<?xml version="1.0" encoding="UTF-8" standalone="no"?>
<!-- Created with Inkscape (http://www.inkscape.org/) -->

<svg
   width="165"
   height="165"
   viewBox="0 0 165 165"
   version="1.1"
   id="svg1"
   xml:space="preserve"
   xmlns:xlink="http://www.w3.org/1999/xlink"
   xmlns="http://www.w3.org/2000/svg"
   xmlns:svg="http://www.w3.org/2000/svg"><defs
     id="defs1"><linearGradient
       id="linearGradient6"><stop
         style="stop-color:#777441;stop-opacity:1;"
         offset="0"
         id="stop7" /><stop
         style="stop-color:#948e51;stop-opacity:1;"
         offset="1"
         id="stop8" /></linearGradient><linearGradient
       id="linearGradient5"><stop
         style="stop-color:#2b2b2b;stop-opacity:1;"
         offset="0"
         id="stop5" /><stop
         style="stop-color:#000000;stop-opacity:1;"
         offset="1"
         id="stop6" /></linearGradient><linearGradient
       id="linearGradient11"><stop
         style="stop-color:#000000;stop-opacity:1;"
         offset="0"
         id="stop11" /><stop
         style="stop-color:#000000;stop-opacity:0;"
         offset="1"
         id="stop12" /></linearGradient><linearGradient
       xlink:href="#linearGradient11"
       id="linearGradient12"
       x1="84.808617"
       y1="46.934216"
       x2="84.811584"
       y2="42.293846"
       gradientUnits="userSpaceOnUse"
       gradientTransform="translate(0.466884)" /><filter
       style="color-interpolation-filters:sRGB"
       id="filter12"
       x="-1.0623628"
       y="-0.065503641"
       width="3.1247256"
       height="1.1310073"><feGaussianBlur
         stdDeviation="2.4564193"
         id="feGaussianBlur12" /></filter><radialGradient
       xlink:href="#linearGradient5"
       id="radialGradient6"
       cx="88.450684"
       cy="69.713287"
       fx="88.450684"
       fy="69.713287"
       r="5.5376344"
       gradientTransform="matrix(1,0,0,2.5072707,0,-110.67509)"
       gradientUnits="userSpaceOnUse" /><linearGradient
       xlink:href="#linearGradient6"
       id="linearGradient8"
       x1="89.541946"
       y1="84.557037"
       x2="89.541946"
       y2="110.2074"
       gradientUnits="userSpaceOnUse" /></defs><g
     id="layer2"
     transform="translate(-7.561705,-15.726572)"><g
       id="g7"
       transform="translate(0,0.79549513)"><rect
         style="fill:#404040;stroke:none;stroke-width:0.3;stroke-linecap:round;paint-order:stroke fill markers"
         id="rect5"
         width="55.428047"
         height="1.6727257"
         x="62.285976"
         y="31.705755" /><path
         id="path5"
         style="fill:#6e5433;fill-opacity:1;stroke-width:0.3;stroke-linecap:round;paint-order:stroke fill markers"
         d="m 94.105781,33.378481 c 0,9.617213 -0.06403,9.856983 -4.105781,9.856983 -4.041754,0 -4.105782,-0.142626 -4.105781,-9.856983 0,-3.810761 1.838221,-6.899993 4.105781,-6.899993 2.26756,0 4.105781,3.089232 4.105781,6.899993 z" /></g><g
       id="g1"
       clip-path="none"><path
         style="display:inline;fill:#a59f5a;fill-opacity:1;stroke:none;stroke-width:0.3;stroke-linecap:round;paint-order:stroke fill markers"
         d="m 81.80963,83.789849 c 0,0 -0.785544,-0.296345 -2.205035,-0.832719 -9.777807,-3.694681 -49.6351,-18.778263 -70.0244386,-26.844785 -1.0943096,-0.432936 -2.282733,-1.982268 0.5432376,-9.203949 2.438473,-6.231443 4.449945,-5.722718 4.627006,-5.698517 23.382941,3.196045 41.698151,5.445457 60.826389,7.603299 6.165491,0.695524 6.155169,-4.558238 6.155169,-4.558238 z"
         id="path2" /><path
         style="fill:#a59f5a;fill-opacity:1;stroke:none;stroke-width:0.3;stroke-linecap:round;paint-order:stroke fill markers"
         d="m 85.676305,150.66857 c 0,0 -14.330367,-1.59398 -21.482757,-2.49653 -0.823743,-0.10395 -0.669024,-5.87895 0,-6.0215 10.454313,-2.22758 20.668132,-3.66432 20.668132,-3.66432 l 0.425687,6.36596 z"
         id="path3" /><path
         id="rect7"
         style="fill:#6f6f6f;fill-opacity:1;stroke-width:0.3;stroke-linecap:round;paint-order:stroke fill markers"
         d="M 14.883457,53.432182 77.524219,75.716601 77.189385,76.412075 14.598333,54.13441 Z" /><path
         id="path11"
         style="fill:url(#linearGradient12);stroke-width:0.3;stroke-linecap:round;paint-order:stroke fill markers"
         d="m 85.894219,44.017399 c 0,0.951903 -0.277009,2.916815 -0.618718,2.916816 -0.341709,10e-7 -0.618719,-1.964912 -0.618719,-2.916816 0,-0.951904 0.27701,-1.723574 0.618719,-1.723573 0.341709,10e-7 0.618718,0.77167 0.618718,1.723573 z" /></g><use
       x="0"
       y="0"
       xlink:href="#g1"
       id="use5"
       transform="matrix(-1,0,0,1,180.12341,0)"
       style="fill:#909090;fill-opacity:1" /><g
       id="g39"
       transform="matrix(0.24198135,0,0,0.24198135,250.06486,98.78793)"
       clip-path="none"
       style="display:inline"><g
         id="g27"
         style="display:inline;fill:#4b5b41;fill-opacity:1"
         transform="translate(-461.92098,-507.6257)"><path
           style="fill:#4b5b41;fill-opacity:1;stroke-width:2.54455;stroke-linecap:round;stroke-linejoin:round;paint-order:stroke fill markers"
           d="m 54.819943,361.7031 c 0,0 0.975888,-39.41206 -19.723769,-25.14782 C 14.396508,350.81952 -17.39002,331.05246 3.3606819,325.45115 24.111385,319.84983 50.273276,321.16157 32.047528,308.59141 13.821791,296.02125 71.928453,265.22148 78.21862,298.48567 c 6.290165,33.2642 37.40139,39.60043 37.40139,39.60043 z"
           id="path32" /><path
           style="fill:#4b5b41;fill-opacity:1;stroke-width:3;stroke-linecap:round;stroke-linejoin:round;paint-order:stroke fill markers"
           d="m -502.65718,294.58522 c 0,0 -27.51861,37.42794 -2.34646,40.10317 25.17215,2.67524 26.27669,-9.36096 37.9763,-32.71663 6.38314,-12.74252 56.73546,-16.77239 39.67028,14.79819 -17.06519,31.57059 54.39526,18.98502 40.5298,-3.41303 -13.86546,-22.39805 1.98354,-27.96488 1.98354,-27.96488 l -107.2655,-13.20602 z"
           id="path36" /></g><g
         id="g4"
         style="display:inline;fill:#8c9458;fill-opacity:1"
         transform="translate(-419.67462,-473.89109)"><path
           style="display:inline;opacity:1;fill:#8c9458;fill-opacity:1;stroke-width:3;stroke-linecap:round;stroke-linejoin:round;paint-order:stroke fill markers"
           d="m -192.10986,334.73005 c 0,0 62.96323,-15.53182 62.96323,-47.74235 0,-32.21053 8.22439,-31.74507 16.83356,-16.83355 8.60917,14.91151 12.10279,17.13478 16.833533,8.94091 4.73074,-8.19388 31.72822,3.57915 13.88242,13.88242 -17.84579,10.30328 27.16785,35.01388 18.22198,50.50858 -8.94587,15.4947 -18.04749,16.14761 -38.319093,5.46625 -14.76517,-7.77994 -16.82348,-4.91813 -35.83288,0.17542 -10.40293,2.78746 -33.46923,5.75507 -33.46923,5.75507 z"
           id="path4-9" /><path
           style="display:inline;opacity:1;fill:#8c9458;fill-opacity:1;stroke-width:3;stroke-linecap:round;stroke-linejoin:round;paint-order:stroke fill markers"
           d="m -437.02872,350.15377 c 0,0 -47.72172,-49.27935 -11.4582,-74.66381 36.26351,-25.38445 66.8314,-15.73426 64.58163,11.73218 -1.43654,17.53811 -28.64037,8.14256 -25.86728,15.18194 2.77309,7.03939 21.82021,32.99883 24.16667,3.77471 2.34646,-29.22412 60.67707,2.62487 51.0779,18.41016 -9.59916,15.7853 -9.13788,61.57115 -9.13788,61.57115 z"
           id="path8" /><path
           style="display:inline;fill:#4b5b41;fill-opacity:1;stroke-width:3;stroke-linecap:round;stroke-linejoin:round;paint-order:stroke fill markers"
           d="m -389.63574,322.56853 c 0,0 -32.88232,-2.41338 -7.84349,-25.03883 25.03884,-22.62545 66.66966,-34.99403 62.44624,-9.9552 -4.22341,25.03883 -40.12246,12.36858 -21.11708,30.16727 19.00537,17.79868 33.82257,21.34418 39.39414,2.17022 5.57157,-19.17397 33.30896,0.54483 23.05209,13.21508 -10.25686,12.67025 9.9552,21.72043 -2.1117,31.67563 -12.06691,9.9552 -23.06499,8.98021 -27.15054,-3.01673 -4.08555,-11.99694 -28.07308,-27.881 -31.53355,-16.05221 -3.46048,11.8288 -18.84578,27.81745 -30.61103,15.1472 -11.76523,-12.67026 -4.52508,-38.31243 -4.52508,-38.31243 z"
           id="path29" /><path
           style="fill:#8c9458;fill-opacity:1;stroke-width:3;stroke-linecap:round;stroke-linejoin:round;paint-order:stroke fill markers"
           d="m 87.13679,259.90157 c 0,0 -26.62997,-20.33228 -51.16453,4.84949 -24.53456,25.18176 -16.82134,36.80406 0.0469,25.94384 16.86824,-10.86021 23.58014,-26.66632 37.08031,-15.98865 13.50017,10.67767 13.50017,10.67767 13.50017,10.67767 l 4.16144,-5.55569 z"
           id="path16" /><path
           style="display:inline;opacity:1;fill:#8c9458;fill-opacity:1;stroke-width:3;stroke-linecap:round;stroke-linejoin:round;paint-order:stroke fill markers"
           d="m -166.41705,395.51309 c 0,0 62.73813,-68.37706 5.97078,-69.35749 -56.76735,-0.98043 -93.88083,-11.23937 -81.50857,-32.57085 12.37225,-21.33147 -45.67011,-27.50087 -43.09996,0.32834 2.57015,27.82921 2.08267,59.6974 26.88803,51.29384 l 24.80537,-8.40356 c 0,0 38.6379,17.57227 14.44455,36.56111 -24.19335,18.98884 -0.29891,43.10201 -0.29891,43.10201 z"
           id="path52" /><path
           style="fill:#4b5b41;fill-opacity:1;stroke:none;stroke-width:6.24763;stroke-linecap:round;stroke-opacity:0.738144;paint-order:stroke fill markers"
           d="m -482.69795,293.62483 c 0,0 -26.12736,-23.0732 13.09453,-10.58949 39.22188,12.48372 0.20005,56.17564 0.20005,56.17564 l -42.42972,-16.29336 c 0,0 -5.76931,-4.37353 11.90252,-14.07725 17.67184,-9.70372 17.23262,-15.21554 17.23262,-15.21554 z"
           id="path77" /></g><g
         id="g38"
         style="display:inline;fill:#1e2e23;fill-opacity:1"
         transform="translate(-424.43469,-515.22349)"><path
           style="fill:#1e2e23;fill-opacity:1;stroke-width:3;stroke-linecap:round;stroke-linejoin:round;paint-order:stroke fill markers"
           d="m -147.5957,329.95848 c 0,0 33.4178,-16.83251 28.65342,8.97857 -4.76438,25.81109 -6.62172,43.08959 7.60788,39.03661 14.2296,-4.05298 32.35523,5.45758 14.2296,15.35866 -18.12563,9.90108 -49.32445,17.12199 -49.16218,0.0284 0.16227,-17.09358 -3.47305,-24.427 -3.47305,-24.427 l 2.47889,-17.86067 0.23002,-13.174 z"
           id="path38" /><path
           style="display:inline;fill:#4b5b41;fill-opacity:1;stroke-width:3;stroke-linecap:round;stroke-linejoin:round;paint-order:stroke fill markers"
           d="m -72.8404,368.17317 c 0,0 15.35805,-36.05466 -19.93765,-23.38441 -35.2957,12.67025 8.72308,-44.0442 -20.51374,-46.45758 -29.23682,-2.41338 -37.65823,41.65577 -29.23682,47.82758 8.42141,6.17182 13.40763,16.05687 3.22187,32.38227 -10.18577,16.32539 -25.10882,48.20486 -3.22187,38.64917 21.88695,-9.5557 42.26066,-25.41713 52.76729,-16.29032 10.50662,9.1268 11.84362,-3.00771 11.84362,-3.00771 l 3.22307,-23.59631 0.84651,-3.91999 z"
           id="path27"
           transform="translate(-37.48628,7.5977907)" /><path
           style="display:inline;opacity:1;fill:#1e2e23;fill-opacity:1;stroke-width:1.77475;stroke-linecap:round;stroke-linejoin:round;paint-order:stroke fill markers"
           d="m -487.84036,286.64438 c 0,0 -0.68153,31.87166 22.99701,37.72336 23.67853,5.85171 0.54773,21.50385 -13.45297,6.81648 -14.00072,-14.68736 -24.28369,-26.34758 -33.63481,-10.19846 -9.35111,16.14913 -23.73474,36.7495 -19.02807,13.31669 4.70668,-23.4328 34.86764,-27.8912 33.48454,-37.45188 -1.38311,-9.56068 -5.7146,-12.81097 -5.7146,-12.81097 z"
           id="path43" /><path
           style="display:inline;opacity:1;fill:#1e2e23;fill-opacity:1;stroke-width:3;stroke-linecap:round;stroke-linejoin:round;paint-order:stroke fill markers"
           d="m -25.359367,319.34694 c 24.46505997,-14.37154 30.0510724,10.49429 30.0510724,10.49429 0,0 -1.7732817,19.37103 -17.5781144,16.22474 -15.804841,-3.14629 -33.160892,-17.85363 -34.78965,-2.25076 -1.628766,15.60288 -13.747008,35.37133 -19.173869,18.83064 -5.426862,-16.54069 -20.842266,-48.13925 -0.974353,-45.11642 19.867914,3.02283 34.647762,9.53315 42.464914,1.81751 z"
           id="path47" /><path
           style="display:inline;opacity:1;fill:#1e2e23;fill-opacity:1;stroke-width:1.80408;stroke-linecap:round;stroke-linejoin:round;paint-order:stroke fill markers"
           d="m -410.49213,362.49197 c 0.0998,15.68558 25.33578,24.67487 29.21604,24.41796 16.76449,-1.10996 38.24219,-62.56798 20.82647,-62.56798 -17.41571,0 -24.02107,6.95826 -19.41126,14.15027 4.6098,7.192 0.26165,24.55202 -5.01479,25.40871 -5.27644,0.85669 -4.82692,-19.10458 -5.73398,-22.91427 -0.90707,-3.80969 -15.19003,-8.06466 -14.40285,2.74982 0.79683,10.94692 -5.5002,15.52548 -5.47963,18.75549 z"
           id="path49" /></g><path
         style="fill:#4b5b41;fill-opacity:1;stroke:none;stroke-width:1.51181;stroke-linecap:round;stroke-opacity:0.738144;paint-order:stroke fill markers"
         d="m 69.932015,140.99491 c 0,0 -0.838265,0.25509 0.661735,3.00509 1.5,2.75 -0.165983,4.92642 -0.165983,4.92642 l -6.234219,-0.75438 c 0,0 -0.558656,0.057 -0.558656,-3.07053 0,-2.79491 0.558656,-2.95097 0.558656,-2.95097 z"
         id="path78"
         transform="matrix(4.1325499,0,0,4.1325499,-1033.4055,-408.24605)" /><path
         style="fill:#8c9458;fill-opacity:1;stroke:none;stroke-width:1.51181;stroke-linecap:round;stroke-opacity:0.738144;paint-order:stroke fill markers"
         d="m 70.75626,144.32155 c 2.530022,-1.46071 5.80624,-2.4778 6.99374,-0.94655 1.1875,1.53125 2.03125,2.78125 1.4375,3.375 -0.59375,0.59375 -1.875,1.46875 -3.0625,0.90625 -1.1875,-0.5625 0.273395,-1.13903 -1.15625,-1.875 -1.429645,-0.73597 -3.744872,-0.1099 -3.752382,0.3863 -0.0075,0.49619 -2.578053,3.24041 -2.185118,0.83245 0.392936,-2.40796 1.72501,-2.67845 1.72501,-2.67845 z"
         id="path83"
         transform="matrix(4.1325499,0,0,4.1325499,-1033.4055,-408.24605)" /><path
         style="fill:#8c9458;fill-opacity:1;stroke:none;stroke-width:1.51181;stroke-linecap:round;stroke-opacity:0.738144;paint-order:stroke fill markers"
         d="m 98.875,141.125 c 0,0 7.5,0.0312 8.8125,1.875 1.3125,1.84375 3.25,2.84375 2.28125,3.375 -0.96875,0.53125 -2.53125,2.0625 -3.875,1.03125 -1.34375,-1.03125 -1.78125,-2.125 -2.46875,-2.71875 -0.6875,-0.59375 -3.699602,-1.73315 -3.42793,-0.1947 0.27168,1.53845 1.61543,2.47595 2.33418,3.03845 0.71875,0.5625 1.21875,1.78125 -1,1.25 -2.21875,-0.53125 -4.255919,-1.00133 -4.196915,-1.33098 0.059,-0.32966 -1.146835,0.76848 -1.053085,-1.57527 0.09375,-2.34375 2.59375,-4.75 2.59375,-4.75 z"
         id="path82"
         transform="matrix(4.1325499,0,0,4.1325499,-1033.4055,-408.24605)" /><path
         style="fill:#4b5b41;fill-opacity:1;stroke:none;stroke-width:1.51181;stroke-linecap:round;stroke-opacity:0.738144;paint-order:stroke fill markers"
         d="m 103.25932,139.74818 c 0,0 -3.760913,1.72057 -3.16716,3.22057 0.59375,1.5 -0.468753,3.53125 -1.53125,2.1875 -1.0625,-1.34375 -1.592118,5.22996 -1.592118,5.22996 l -3.376632,0.39504 0.5,-12.4375 1.16957,0.14247 z"
         id="path79"
         transform="matrix(4.1325499,0,0,4.1325499,-1033.4055,-408.24605)" /><path
         style="fill:#4b5b41;fill-opacity:1;stroke:none;stroke-width:1.51181;stroke-linecap:round;stroke-opacity:0.738144;paint-order:stroke fill markers"
         d="m 85.515727,138.41615 -1.796448,0.23679 c 0,0 -0.72262,3.29875 -0.170193,4.02795 0.552427,0.7292 0.662912,1.37002 0.662912,2.62955 0,1.25954 -0.154679,2.47488 0.132583,2.96101 0.287262,0.48614 0.287262,0.48614 0.287262,0.48614 l 1.044462,1.91098 c 0,0 0.767499,0.87325 1.67348,0.0115 0.90598,-0.86179 -1.834058,-12.26389 -1.834058,-12.26389 z"
         id="path80"
         transform="matrix(4.1325499,0,0,4.1325499,-1033.4055,-408.24605)" /><path
         style="fill:#1e2e23;fill-opacity:1;stroke:none;stroke-width:1.51181;stroke-linecap:round;stroke-opacity:0.738144;paint-order:stroke fill markers"
         d="m 67.062781,141.57272 c 0,0 -1.980949,1.6849 0.996247,2.58868 2.977195,0.90377 5.126524,1.85615 5.480077,0.88388 0.353554,-0.97227 0.589288,-4.82238 0.589288,-4.82238 z"
         id="path81"
         transform="matrix(4.1325499,0,0,4.1325499,-1033.4055,-408.24605)" /><path
         style="display:inline;fill:#1e2e23;fill-opacity:1;stroke-width:0.46355;stroke-linecap:round;stroke-linejoin:round;paint-order:stroke fill markers"
         d="m 115.92986,148.17204 c 0,0 -14.58359,0.69115 -13.17241,-2.07554 1.41118,-2.76669 3.34269,0.36256 5.09927,-2.86759 1.75657,-3.23016 4.91706,-1.6955 4.67173,0.10811 -0.16778,1.23346 2.7324,1.43841 3.94712,1.44822 0.0365,0 -0.004,0.64077 -0.004,1.12834 0,2.25586 -0.54144,2.25846 -0.54144,2.25846"
         id="path42"
         transform="matrix(4.1325499,0,0,4.1325499,-1033.4055,-408.24605)" /><path
         style="fill:#1e2e23;fill-opacity:1;stroke:none;stroke-width:1.51181;stroke-linecap:round;stroke-opacity:0.738144;paint-order:stroke fill markers"
         d="m 79.84375,143.15625 c 0,0 -1.267836,-1.83714 1.21875,-1.15625 2.486586,0.68089 2.982975,0.6838 3.066237,1.99712 0.08326,1.31332 3.109689,3.30003 0.05298,3.55771 C 81.125,147.8125 80.25,147.5625 79.1875,146.75 c -1.0625,-0.8125 -0.65625,-3.03125 0.0625,-3.375 0.71875,-0.34375 0.59375,-0.21875 0.59375,-0.21875 z"
         id="path84"
         transform="matrix(4.1325499,0,0,4.1325499,-1033.4055,-408.24605)" /></g><use
       x="0"
       y="0"
       xlink:href="#path1"
       id="use84"
       transform="matrix(-1,0,0,1,180.12341,0)" /><path
       style="display:inline;fill:#d9d188;fill-opacity:1;stroke:none;stroke-width:0.3;stroke-linecap:round;paint-order:stroke fill markers"
       d="m 86.55914,163.87097 c 0,0 -2.794007,-46.50475 -4.731183,-70.75269 -1.452871,-18.18582 -0.01833,-9.328431 -0.107527,-54.731183 -0.0028,-1.40518 2.003699,-2.126099 3.333333,-2.580645 2.063718,-0.705498 5.778152,-0.570247 5.778152,-0.570247 l 0.840808,129.849055 c 0,0 -4.996694,0.53373 -5.113583,-1.21429 z"
       id="path1" /><path
       style="fill:#495641;fill-opacity:1;stroke:none;stroke-width:1.51181;stroke-linecap:round;stroke-opacity:0.738144;paint-order:stroke fill markers"
       d="m 91.082224,73.892385 c 0,0 -1.35027,7.217973 -3.641522,-3.523165 C 85.14945,59.628081 79.03565,58.86381 84.49926,57.010484 c 5.46361,-1.853326 10.336448,2.559408 12.094902,4.785659 1.758454,2.226252 2.717849,5.39513 0.828585,9.97847 -1.889265,4.583341 1.494757,6.364311 1.494757,6.364311 l -0.007,5.212733 z"
       id="path89" /><path
       style="display:inline;opacity:1;fill:#8c9458;fill-opacity:1;stroke-width:0.725944;stroke-linecap:round;stroke-linejoin:round;paint-order:stroke fill markers"
       d="m 87.990406,36.376922 5.936833,-0.628948 c 0,0 6.203701,3.590037 0.938648,10.919819 -5.265057,7.329785 -11.768949,6.194186 -8.775096,2.477674 2.993857,-3.716509 2.993857,-3.716509 2.993857,-3.716509 0,0 2.132272,-7.081313 0.01529,-6.935314 C 86.982962,38.639641 87.9904,36.376922 87.9904,36.376922 Z"
       id="path26" /><path
       style="display:inline;opacity:1;fill:#1e2e23;fill-opacity:1;stroke-width:0.412111;stroke-linecap:round;stroke-linejoin:round;paint-order:stroke fill markers"
       d="m 87.065799,56.615235 c -0.891801,-1.528803 2.382849,-7.127827 4.786418,-4.765698 2.403569,2.362128 6.813913,5.365155 3.324066,6.308651 -3.489829,0.943496 -5.644754,2.020959 -4.070002,4.756055 1.574751,2.735095 1.47989,4.499156 -0.08636,4.765352 -1.675993,0.284847 -3.341623,0.533433 -5.007989,0.758657 -2.631127,0.355619 -4.532629,-5.21288 -2.226309,-7.647691 2.306317,-2.434811 4.585564,-1.937521 3.280176,-4.175326 z"
       id="path48" /><path
       style="fill:#1e2e23;fill-opacity:1;stroke:none;stroke-width:1.51181;stroke-linecap:round;stroke-opacity:0.738144;paint-order:stroke fill markers"
       d="m 86.0346,155.29084 c 0,0 2.924504,-7.28531 5.545267,-4.54572 2.620762,2.73959 0.811181,2.65981 0.02808,4.33571 -0.783107,1.6759 2.372345,1.96972 2.372345,1.96972 l -0.416017,6.82042 c 0,0 0.105745,1.29083 -3.583476,1.29083 -3.57295,0 -3.421654,-1.29083 -3.421654,-1.29083 z"
       id="path86" /><path
       style="fill:#899057;fill-opacity:1;stroke:none;stroke-width:1.51181;stroke-linecap:round;stroke-opacity:0.738144;paint-order:stroke fill markers"
       d="m 86,113.3125 c 0,0 0.260349,-3.22827 2.797648,-1.80976 2.5373,1.4185 4.499973,0.28927 4.882412,5.04951 0.38244,4.76025 2.958151,8.02364 1.16093,10.07957 -5.237691,4.5121 -3.841975,-1.70853 -3.446069,-4.4485 0.678353,-4.73326 0.41139,-6.15045 -1.332421,-6.49582 C 88.318689,115.34213 86,113.3125 86,113.3125 Z"
       id="path85" /><path
       style="display:inline;fill:#4b5b41;fill-opacity:1;stroke-width:3;stroke-linecap:round;stroke-linejoin:round;paint-order:stroke fill markers"
       d="m -221.64392,650.98001 c 0,0 27.56497,29.08216 29.73058,-11.4176 l -12.21952,-26.42669 c -9.1071,-19.69557 34.85318,-64.29875 10.09455,-47.10341 -24.75863,17.19534 -30.89551,35.00338 -30.89551,35.00338 z"
       id="path33"
       transform="matrix(0.24198135,0,0,0.24198135,138.2886,-24.048022)" /><path
       style="display:inline;opacity:1;fill:#1e2e23;fill-opacity:1;stroke-width:0.725944;stroke-linecap:round;stroke-linejoin:round;paint-order:stroke fill markers"
       d="m 98.295453,93.11828 c 0,0 -7.070641,-3.264521 -7.070641,2.794409 0,3.06308 -2.677171,10.775851 -4.833002,12.190101 -2.108515,1.38322 -3.69674,-3.49851 -3.69674,-3.49851 0,0 0.233539,3.26558 0.69399,9.86574 0.278124,3.98667 3.371902,-1.21817 6.836338,-2.36015 3.037572,-1.00128 6.502639,2.46785 6.683278,-0.16197 z"
       id="path44" /><path
       style="fill:#7f8553;fill-opacity:1;stroke:none;stroke-width:1.51181;stroke-linecap:round;stroke-opacity:0.738144;paint-order:stroke fill markers"
       d="m 85.515729,138.41615 c 0,0 1.116013,-3.2585 3.22282,0.0353 2.106807,3.29377 4.340487,7.98725 2.086286,8.04859 -2.254201,0.0613 -2.255007,0.18593 -2.253804,5e-5 0.0012,-0.18587 -3.137715,3.54916 -1.551254,-0.94406 1.586461,-4.49321 -1.504048,-7.13984 -1.504048,-7.13984 z"
       id="path88" /><path
       style="display:inline;opacity:1;fill:#8c9458;fill-opacity:1;stroke-width:3;stroke-linecap:round;stroke-linejoin:round;paint-order:stroke fill markers"
       d="m -250.81715,421.89773 c 0,0 49.56667,2.16932 37.62104,28.62035 -11.94563,26.45104 3.37204,29.9341 3.37204,29.9341 l -1.33181,18.20234 c 0,0 -11.36394,12.86499 -18.66893,11.86399 -22.20565,-3.04281 -43.17073,-25.74851 -44.95634,-50.00075 -2.716,-36.88874 -2.716,-36.88874 -2.716,-36.88874 z"
       id="path6"
       transform="matrix(0.24198135,0,0,0.24198135,148.51143,-15.884876)" /><path
       style="fill:#1e2e23;fill-opacity:1;stroke:none;stroke-width:1.51181;stroke-linecap:round;stroke-opacity:0.738144;paint-order:stroke fill markers"
       d="m 95.756984,129.05067 c 0,0 -6.831188,-2.3491 -7.083956,1.69762 -0.252768,4.04672 -1.46055,7.09737 -0.06679,10.31449 1.393761,3.21712 6.442648,0.60642 6.442648,0.60642 z"
       id="path87" /><path
       style="display:inline;fill:#404040;fill-opacity:1;stroke:none;stroke-width:0.3;stroke-linecap:round;stroke-opacity:1;paint-order:stroke fill markers"
       d="m 81.724136,40.273318 c 0,0 3.47008,-2.624851 8.275864,-2.624851 0.665803,0 0.966514,0.02253 1.284046,0.04597 0.09537,0.007 0.352743,-1.363141 -0.139839,-2.410997 -0.04091,-0.08703 -1.04635,-0.05748 -1.140318,-0.05748 -7.245087,0 -8.284918,2.415188 -8.283454,3.161194 z"
       id="path9"
       transform="translate(2.012575e-6)" /><use
       x="0"
       y="0"
       xlink:href="#path10"
       id="use1"
       transform="matrix(-1,0,0,1,180.12341,0)" /><path
       style="fill:#a59f5a;fill-opacity:1;stroke:none;stroke-width:0.3;stroke-linecap:round;paint-order:stroke fill markers"
       d="m 89.251196,167.7936 -0.07603,-30.85819 c 0,0 0.0024,-1.02823 0.824834,-1.02823 0.85606,0 0.824835,1.02823 0.824835,1.02823 v 30.84705 c 0,0 0.07354,1.3967 -0.824835,1.3967 -0.838136,0 -0.748804,-1.38556 -0.748804,-1.38556 z"
       id="path4" /><use
       x="0"
       y="0"
       xlink:href="#path9"
       id="use85"
       transform="matrix(-1,0,0,1,179.8874,0)" /><path
       style="fill:#404040;fill-opacity:1;stroke:none;stroke-width:0.3;stroke-linecap:round;stroke-opacity:1;paint-order:stroke fill markers"
       d="m 81.744412,49.750257 c -0.752419,1.005674 -2.640369,1.589174 -4.009577,1.520214 C 76.928437,51.229857 20.581345,44.073274 16.53125,43.46875 14.200379,43.12084 14.7504,41.209879 14.7504,41.209879 l 60.826389,7.603299 0.768212,0.05785 0.616462,-1.62e-4 1.021804,-0.113803 0.660612,-0.169886 0.668044,-0.275812 0.725867,-0.467177 0.405596,-0.372947 0.260631,-0.302056 0.263933,-0.376728 0.271993,-0.501303 0.158778,-0.379684 0.125835,-0.382152 c 0.235611,-0.420681 0.208307,-0.806904 0.207366,-1.274378 z"
       id="path10" /><path
       id="rect6"
       style="fill:url(#linearGradient8);fill-opacity:1;stroke-width:0.348;stroke-linecap:round;stroke-dasharray:none;paint-order:stroke fill markers"
       d="m 84.458913,80.508109 c -0.05891,-2.453566 2.912109,-20.981356 5.645161,-20.964975 2.696813,0.01616 5.608036,17.680857 5.430108,20.095954 0,0 -0.02672,5.519476 -0.167678,8.274658 -0.266994,5.21853 -0.44326,10.548199 -1.283608,15.623424 -1.475857,8.91334 -6.570476,8.87392 -8.089502,0 -0.81898,-4.784357 -1.064215,-10.259143 -1.35147,-15.406282 -0.141626,-2.53771 -0.183011,-7.622779 -0.183011,-7.622779 z" /><ellipse
       style="mix-blend-mode:normal;fill:#414141;fill-opacity:0.470405;stroke:none;stroke-width:0.3;stroke-linecap:round;stroke-opacity:1;paint-order:stroke fill markers;filter:url(#filter12)"
       id="path12"
       cx="90"
       cy="91.934814"
       rx="2.774667"
       ry="45.000599"
       transform="matrix(1,0,0,1.184778,0,-17.958161)" /><path
       style="fill:url(#radialGradient6);fill-opacity:1;stroke:none;stroke-width:0.3;stroke-linecap:round;stroke-opacity:1;paint-order:stroke fill markers"
       d="m 84.462366,75.107526 c 0,6.897507 0.153513,12.204302 5.645161,12.204302 5.430108,0 5.430108,-5.815647 5.430108,-12.849463 0,-6.365085 -2.259807,-14.919234 -5.430108,-14.919234 -2.923134,0 -5.645161,8.030292 -5.645161,15.564395 z"
       id="path7" /></g></svg>
