<?xml version="1.0" encoding="UTF-8" standalone="no"?>
<!-- Created with Inkscape (http://www.inkscape.org/) -->

<svg
   width="165"
   height="165"
   viewBox="0 0 165 165"
   version="1.1"
   id="svg1"
   xml:space="preserve"
   inkscape:version="1.3.2 (091e20e, 2023-11-25, custom)"
   sodipodi:docname="hammer_base.svg"
   xmlns:inkscape="http://www.inkscape.org/namespaces/inkscape"
   xmlns:sodipodi="http://sodipodi.sourceforge.net/DTD/sodipodi-0.dtd"
   xmlns:xlink="http://www.w3.org/1999/xlink"
   xmlns="http://www.w3.org/2000/svg"
   xmlns:svg="http://www.w3.org/2000/svg"><sodipodi:namedview
     id="namedview1"
     pagecolor="#ffffff"
     bordercolor="#000000"
     borderopacity="0.25"
     inkscape:showpageshadow="2"
     inkscape:pageopacity="0.0"
     inkscape:pagecheckerboard="0"
     inkscape:deskcolor="#d1d1d1"
     inkscape:document-units="px"
     showguides="true"
     inkscape:zoom="4"
     inkscape:cx="76.375"
     inkscape:cy="76.875"
     inkscape:window-width="3440"
     inkscape:window-height="1417"
     inkscape:window-x="-8"
     inkscape:window-y="-8"
     inkscape:window-maximized="1"
     inkscape:current-layer="layer2"><sodipodi:guide
       position="-13.435029,143.73654"
       orientation="-1,0"
       id="guide1"
       inkscape:locked="false"
       inkscape:label=""
       inkscape:color="rgb(0,134,229)" /></sodipodi:namedview><defs
     id="defs1"><linearGradient
       id="linearGradient6"
       inkscape:collect="always"><stop
         style="stop-color:#646464;stop-opacity:1;"
         offset="0"
         id="stop7" /><stop
         style="stop-color:#919191;stop-opacity:1;"
         offset="1"
         id="stop8" /></linearGradient><linearGradient
       id="linearGradient5"
       inkscape:collect="always"><stop
         style="stop-color:#2b2b2b;stop-opacity:1;"
         offset="0"
         id="stop5" /><stop
         style="stop-color:#000000;stop-opacity:1;"
         offset="1"
         id="stop6" /></linearGradient><linearGradient
       id="linearGradient3"
       inkscape:collect="always"><stop
         style="stop-color:#b2b2b2;stop-opacity:1;"
         offset="0"
         id="stop3" /><stop
         style="stop-color:#8d8d8d;stop-opacity:1;"
         offset="1"
         id="stop4" /></linearGradient><linearGradient
       id="linearGradient11"
       inkscape:collect="always"><stop
         style="stop-color:#000000;stop-opacity:1;"
         offset="0"
         id="stop11" /><stop
         style="stop-color:#000000;stop-opacity:0;"
         offset="1"
         id="stop12" /></linearGradient><linearGradient
       inkscape:collect="always"
       xlink:href="#linearGradient11"
       id="linearGradient12"
       x1="84.808617"
       y1="46.934216"
       x2="84.811584"
       y2="42.293846"
       gradientUnits="userSpaceOnUse"
       gradientTransform="translate(0.466884)" /><filter
       inkscape:collect="always"
       style="color-interpolation-filters:sRGB"
       id="filter12"
       x="-1.0623628"
       y="-0.065503641"
       width="3.1247256"
       height="1.1310073"><feGaussianBlur
         inkscape:collect="always"
         stdDeviation="2.4564193"
         id="feGaussianBlur12" /></filter><linearGradient
       inkscape:collect="always"
       xlink:href="#linearGradient3"
       id="linearGradient4"
       x1="8.3719845"
       y1="62.490227"
       x2="81.809631"
       y2="62.490227"
       gradientUnits="userSpaceOnUse" /><radialGradient
       inkscape:collect="always"
       xlink:href="#linearGradient5"
       id="radialGradient6"
       cx="88.450684"
       cy="69.713287"
       fx="88.450684"
       fy="69.713287"
       r="5.5376344"
       gradientTransform="matrix(1,0,0,2.5072707,0,-110.67509)"
       gradientUnits="userSpaceOnUse" /><linearGradient
       inkscape:collect="always"
       xlink:href="#linearGradient6"
       id="linearGradient8"
       x1="89.541946"
       y1="84.557037"
       x2="89.541946"
       y2="110.2074"
       gradientUnits="userSpaceOnUse" /></defs><g
     inkscape:groupmode="layer"
     id="layer2"
     inkscape:label="Колымага"><g
       id="g2"
       transform="translate(-7.561705,-18.226572)"><g
         id="g7"
         inkscape:label="винт"
         transform="translate(0,0.79549513)"><rect
           style="fill:#404040;stroke:none;stroke-width:0.3;stroke-linecap:round;paint-order:stroke fill markers"
           id="rect5"
           width="55.428047"
           height="1.6727257"
           x="62.285976"
           y="31.705755" /><path
           id="path5"
           style="fill:#6e5433;fill-opacity:1;stroke-width:0.3;stroke-linecap:round;paint-order:stroke fill markers"
           d="m 94.105781,33.378481 c 0,9.617213 -0.06403,9.856983 -4.105781,9.856983 -4.041754,0 -4.105782,-0.142626 -4.105781,-9.856983 0,-3.810761 1.838221,-6.899993 4.105781,-6.899993 2.26756,0 4.105781,3.089232 4.105781,6.899993 z"
           sodipodi:nodetypes="sssss"
           inkscape:label="path5" /></g><g
         id="g1"
         inkscape:label="1 половина колымаги"><path
           style="display:inline;fill:url(#linearGradient4);fill-opacity:1;stroke:none;stroke-width:0.3;stroke-linecap:round;paint-order:stroke fill markers"
           d="m 81.80963,83.789849 c 0,0 -0.785544,-0.296345 -2.205035,-0.832719 -9.777807,-3.694681 -49.6351,-18.778263 -70.0244386,-26.844785 -1.0943096,-0.432936 -2.282733,-1.982268 0.5432376,-9.203949 2.438473,-6.231443 4.449945,-5.722718 4.627006,-5.698517 23.382941,3.196045 41.698151,5.445457 60.826389,7.603299 6.165491,0.695524 6.155169,-4.558238 6.155169,-4.558238 z"
           id="path2"
           sodipodi:nodetypes="cssssscc"
           inkscape:label="крыло" /><path
           style="fill:#3d3d3d;fill-opacity:1;stroke:none;stroke-width:0.3;stroke-linecap:round;paint-order:stroke fill markers"
           d="m 85.676305,150.66857 c 0,0 -14.330367,-1.59398 -21.482757,-2.49653 -0.823743,-0.10395 -0.669024,-5.87895 0,-6.0215 10.454313,-2.22758 20.668132,-3.66432 20.668132,-3.66432 l 0.425687,6.36596 z"
           id="path3"
           sodipodi:nodetypes="cssccc"
           inkscape:label="хвост" /><path
           style="fill:#404040;fill-opacity:1;stroke:none;stroke-width:0.3;stroke-linecap:round;stroke-opacity:1;paint-order:stroke fill markers"
           d="m 81.744412,49.750257 c -0.752419,1.005674 -2.640369,1.589174 -4.009577,1.520214 C 76.928437,51.229857 20.581345,44.073274 16.53125,43.46875 14.200379,43.12084 14.7504,41.209879 14.7504,41.209879 l 60.826389,7.603299 0.768212,0.05785 0.616462,-1.62e-4 1.021804,-0.113803 0.660612,-0.169886 0.668044,-0.275812 0.725867,-0.467177 0.405596,-0.372947 0.260631,-0.302056 0.263933,-0.376728 0.271993,-0.501303 0.158778,-0.379684 0.125835,-0.382152 0.208866,-0.529224 -0.0015,-0.745154 L 82.6875,45.3125 82.75,50.75 c 0,0 -0.804737,-1.268199 -1.005588,-0.999743 z"
           id="path10"
           sodipodi:nodetypes="sssccccccccccccccccccs"
           inkscape:label="обводка крыла" /><path
           style="display:inline;fill:#dddddd;fill-opacity:1;stroke:none;stroke-width:0.3;stroke-linecap:round;paint-order:stroke fill markers"
           d="m 86.55914,163.87097 c 0,0 -2.794007,-46.50475 -4.731183,-70.75269 -1.452871,-18.18582 -0.01833,-9.328431 -0.107527,-54.731183 -0.0028,-1.40518 2.003699,-2.126099 3.333333,-2.580645 2.063718,-0.705498 5.778152,-0.570247 5.778152,-0.570247 l 0.840808,129.849055 c 0,0 -4.996694,0.53373 -5.113583,-1.21429 z"
           id="path1"
           sodipodi:nodetypes="ssssccs"
           inkscape:label="корпус" /><path
           id="rect7"
           style="fill:#6f6f6f;fill-opacity:1;stroke-width:0.3;stroke-linecap:round;paint-order:stroke fill markers"
           d="M 14.883457,53.432182 77.524219,75.716601 77.189385,76.412075 14.598333,54.13441 Z"
           sodipodi:nodetypes="ccccc"
           inkscape:label="закрылки" /><path
           style="fill:#404040;fill-opacity:1;stroke:none;stroke-width:0.3;stroke-linecap:round;stroke-opacity:1;paint-order:stroke fill markers"
           d="m 81.724136,40.273318 c 0,0 3.47008,-2.624851 8.275864,-2.624851 0.665803,0 0.966514,0.02253 1.284046,0.04597 0.09537,0.007 0.352743,-1.363141 -0.139839,-2.410997 -0.04091,-0.08703 -1.04635,-0.05748 -1.140318,-0.05748 -7.245087,0 -8.284918,2.415188 -8.283454,3.161194 z"
           id="path9"
           sodipodi:nodetypes="csssssc"
           inkscape:label="обводка винта" /><path
           id="path11"
           style="fill:url(#linearGradient12);stroke-width:0.3;stroke-linecap:round;paint-order:stroke fill markers"
           d="m 85.894219,44.017399 c 0,0.951903 -0.277009,2.916815 -0.618718,2.916816 -0.341709,10e-7 -0.618719,-1.964912 -0.618719,-2.916816 0,-0.951904 0.27701,-1.723574 0.618719,-1.723573 0.341709,10e-7 0.618718,0.77167 0.618718,1.723573 z"
           sodipodi:nodetypes="sssss"
           inkscape:label="пулемёта" /></g><use
         x="0"
         y="0"
         xlink:href="#g1"
         id="use5"
         inkscape:label="2 половина колымаги"
         transform="matrix(-1,0,0,1,180.12341,0)"
         style="fill:#909090;fill-opacity:1" /><path
         style="fill:#4d4d4d;fill-opacity:1;stroke:none;stroke-width:0.3;stroke-linecap:round;paint-order:stroke fill markers"
         d="m 89.251196,167.7936 -0.07603,-30.85819 c 0,0 0.0024,-1.02823 0.824834,-1.02823 0.85606,0 0.824835,1.02823 0.824835,1.02823 v 30.84705 c 0,0 0.07354,1.3967 -0.824835,1.3967 -0.838136,0 -0.748804,-1.38556 -0.748804,-1.38556 z"
         id="path4"
         inkscape:label="оперение"
         sodipodi:nodetypes="ccsccsc" /><path
         id="rect6"
         style="fill:url(#linearGradient8);fill-opacity:1;stroke-width:0.348;stroke-linecap:round;stroke-dasharray:none;paint-order:stroke fill markers"
         d="m 84.458913,80.508109 c -0.05891,-2.453566 2.912109,-20.981356 5.645161,-20.964975 2.696813,0.01616 5.608036,17.680857 5.430108,20.095954 0,0 -0.02672,5.519476 -0.167678,8.274658 -0.266994,5.21853 -0.44326,10.548199 -1.283608,15.623424 -1.475857,8.91334 -6.570476,8.87392 -8.089502,0 -0.81898,-4.784357 -1.064215,-10.259143 -1.35147,-15.406282 -0.141626,-2.53771 -0.183011,-7.622779 -0.183011,-7.622779 z"
         sodipodi:nodetypes="sssassas"
         inkscape:label="кабина" /><ellipse
         style="mix-blend-mode:normal;fill:#414141;fill-opacity:0.470405;stroke:none;stroke-width:0.3;stroke-linecap:round;stroke-opacity:1;paint-order:stroke fill markers;filter:url(#filter12)"
         id="path12"
         cx="90"
         cy="91.934814"
         rx="2.774667"
         ry="45.000599"
         transform="matrix(1,0,0,1.184778,0,-17.958161)"
         inkscape:label="блик" /><path
         style="fill:url(#radialGradient6);fill-opacity:1;stroke:none;stroke-width:0.3;stroke-linecap:round;stroke-opacity:1;paint-order:stroke fill markers"
         d="m 84.462366,75.107526 c 0,6.897507 0.153513,12.204302 5.645161,12.204302 5.430108,0 5.430108,-5.815647 5.430108,-12.849463 0,-6.365085 -2.259807,-14.919234 -5.430108,-14.919234 -2.923134,0 -5.645161,8.030292 -5.645161,15.564395 z"
         id="path7"
         sodipodi:nodetypes="sssss"
         inkscape:label="окно" /></g></g></svg>
