<?xml version="1.0" encoding="UTF-8" standalone="no"?>
<!-- Created with Inkscape (http://www.inkscape.org/) -->

<svg
   width="180"
   height="180"
   viewBox="0 0 180 180"
   version="1.1"
   id="svg1"
   xml:space="preserve"
   sodipodi:docname="striker_light_blue.svg"
   inkscape:version="1.3.2 (091e20e, 2023-11-25, custom)"
   xmlns:inkscape="http://www.inkscape.org/namespaces/inkscape"
   xmlns:sodipodi="http://sodipodi.sourceforge.net/DTD/sodipodi-0.dtd"
   xmlns:xlink="http://www.w3.org/1999/xlink"
   xmlns="http://www.w3.org/2000/svg"
   xmlns:svg="http://www.w3.org/2000/svg"><sodipodi:namedview
     id="namedview1"
     pagecolor="#ffffff"
     bordercolor="#000000"
     borderopacity="0.25"
     inkscape:showpageshadow="2"
     inkscape:pageopacity="0.0"
     inkscape:pagecheckerboard="0"
     inkscape:deskcolor="#d1d1d1"
     inkscape:document-units="px"
     showguides="true"
     inkscape:zoom="1"
     inkscape:cx="-31.5"
     inkscape:cy="87.5"
     inkscape:window-width="3440"
     inkscape:window-height="1417"
     inkscape:window-x="-8"
     inkscape:window-y="-8"
     inkscape:window-maximized="1"
     inkscape:current-layer="layer1" /><defs
     id="defs1"><linearGradient
       id="linearGradient2"
       inkscape:collect="always"><stop
         style="stop-color:#000000;stop-opacity:0;"
         offset="0.6754508"
         id="stop1" /><stop
         style="stop-color:#cccccc;stop-opacity:0.6007067;"
         offset="1"
         id="stop2" /></linearGradient><linearGradient
       id="linearGradient16"
       inkscape:collect="always"><stop
         style="stop-color:#7c7c7c;stop-opacity:1;"
         offset="0"
         id="stop16" /><stop
         style="stop-color:#e4e4e4;stop-opacity:0.54063606;"
         offset="1"
         id="stop17" /></linearGradient><clipPath
       clipPathUnits="userSpaceOnUse"
       id="clipPath17"><path
         id="path18"
         style="fill:#000000;fill-opacity:0.996078;stroke:none;stroke-width:3;stroke-linecap:round;stroke-linejoin:round;paint-order:stroke fill markers"
         d="m 0,0 v 180 h 180 v -29.17383 c -6.36401,11.69838 -22.3526,9.18037 -27.625,-12.12109 -0.55093,-2.22601 -0.52974,-4.2185 -0.46094,-6.61914 0.008,-0.28121 0.0711,-0.72344 0.14844,-1.19141 -1.10557,-0.60257 -2.20814,-1.21042 -3.21484,-1.96094 -0.99286,-0.74019 -2.03555,-1.56063 -2.57813,-2.67382 -2.60158,-5.33774 -3.82846,-7.72181 -3.26172,-12.43555 1.68466,-14.011941 9.16207,-20.724595 16.28907,-20.820314 5.07192,-0.06812 9.91915,3.273373 12.41992,9.664064 1.7786,-0.60268 3.52915,-0.86983 5.1914,-0.80859 1.0732,0.0395 2.107,0.21827 3.0918,0.51171 V 67.064453 c -5.7956,-1.33657 -11.71148,-6.823814 -14.89844,-17.363281 -0.64049,-2.118129 -1.30612,-4.228333 -1.92968,-6.351563 -1.01181,-3.285793 -2.19332,-6.50976 -3.33399,-9.751953 -0.29488,-0.887285 -0.56964,-1.782835 -0.87109,-2.667968 -0.0635,-0.186431 -0.35397,-0.678461 -0.19922,-0.556641 0.0118,0.0093 0.0186,0.0229 0.0293,0.0332 -8.15211,-16.651214 -0.71367,-28.1326985 9.29492,-27.9121094 3.83887,0.084609 8.05322,1.8984406 11.9082,5.7929688 V 0 Z" /></clipPath><clipPath
       clipPathUnits="userSpaceOnUse"
       id="clipPath61"><path
         id="path62"
         style="fill:#ff0000;fill-opacity:1;fill-rule:nonzero;stroke:none;stroke-width:0.810939"
         d="m 91.406847,-92.678824 c -0.0032,0.187327 0.0054,0.218662 0,0.457735 -0.01232,0.544991 0.02641,1.101441 -0.101367,1.631381 -0.300721,1.247142 -0.660329,2.482332 -1.080196,3.695155 3.851227,-0.464262 7.729378,-0.745812 11.589136,-1.026348 5.0575,-0.309738 10.11506,-0.602803 15.17184,-0.923391 0.87823,-0.05401 1.75632,-0.06496 2.62604,-0.04436 1.42262,-0.365149 2.84053,-0.74728 4.26535,-1.103947 2.24345,-0.561591 4.49313,-1.101595 6.73935,-1.651971 2.3771,-0.569782 3.16094,-0.750361 4.35087,-1.034263 z m -17.289464,2.310859 c -0.161615,0.0082 -0.321256,0.03982 -0.481495,0.06333 0.22082,0.05717 0.440375,0.118195 0.663639,0.164726 0.04309,0.009 -0.08022,-0.03584 -0.120373,-0.05385 0.247607,-0.09067 -0.02636,0.02879 -0.164722,-0.08869 -0.03399,-0.02887 0.14748,-0.08796 0.102951,-0.08553 z m -10.079713,1.151468 c 0.02069,-0.07039 -0.0394,0.141598 -0.0681,0.209068 -0.0074,0.01744 -0.03202,0.02319 -0.03801,0.0412 -0.02547,0.07607 0.01778,0.198242 -0.05385,0.23441 -0.05594,0.02822 -0.05476,-0.239917 -0.05861,-0.177393 -0.0075,0.122614 0.0079,0.244725 0.01742,0.36746 0.06755,-0.2248 0.134937,-0.449527 0.201151,-0.674725 z m 80.10869,35.161789 c -1.7756,0.102929 -4.08392,0.248954 -5.4469,0.388047 -1.07435,0.109635 -2.14225,0.270087 -3.21367,0.405469 -3.54646,0.494891 -7.08878,1.023906 -10.60397,1.713741 -2.85285,0.559859 -5.68696,1.213186 -8.52594,1.840451 -1.28515,0.478613 -2.63783,0.686733 -3.98342,0.909138 -2.14091,0.498515 -4.28085,1.001034 -6.41782,1.515758 -0.94995,1.249517 -2.26366,2.373528 -3.99609,3.245338 2.59501,4.180472 1.84981,11.010124 -5.14439,17.115239 -0.921132,0.804052 -1.946409,1.46246 -2.982416,2.104956 -0.86188,0.475969 -1.739477,0.913577 -2.55319,1.468242 -0.784091,0.515681 -1.550442,1.055622 -2.320361,1.591784 -1.093913,0.791248 -2.30706,1.377282 -3.541521,1.908557 -0.493025,0.203707 -1.003117,0.354708 -1.512591,0.505253 -1.042453,0.480882 -2.144374,0.709722 -3.251673,0.712739 -0.400705,0.05769 -0.800656,0.120325 -1.202153,0.172641 -0.0278,0.03071 -0.04465,0.07845 -0.07444,0.106119 -0.581077,6.556468 -3.538604,10.5584892 -7.01652,12.016779 2.628269,0.4082589 5.258386,0.8060113 7.893981,1.1625567 0.01546,0.00211 0.01426,-0.011045 0.02059,-0.017419 0.04828,0.3292654 0.09847,0.6591439 0.1473,0.9883314 0.327472,2.2075443 0.07216,0.4785479 0.421308,2.857291 0.259798,2.26013941 0.787926,4.4668412 1.472993,6.6316405 0.305771,0.8186204 0.514319,1.6711672 0.799853,2.4961704 0.007,0.020248 0.03451,0.025309 0.04435,0.044348 0.598134,1.1584987 -0.155815,-0.2225505 0.25817,0.5290106 0.215293,0.4478774 0.504753,0.832716 0.779261,1.2433337 0.139437,0.1988103 0.268999,0.4045027 0.399134,0.6097877 0.10162,0.120674 0.219135,0.236411 0.343699,0.34845 0.07134,0.06114 0.142588,0.122466 0.213821,0.183728 0.08018,0.07101 0.16057,0.142811 0.240748,0.213822 2.724212,2.412701 4.491156,4.896907 5.484922,7.26677 h 62.747955 c 0.49411,-0.626963 0.98674,-1.255807 1.52209,-1.84837 1.25174,-1.380189 2.57273,-2.703672 4.0832,-3.804442 1.50471,-1.143005 3.02366,-2.274565 4.66924,-3.2104932 1.64188,-0.9620709 3.29207,-1.9131773 4.96383,-2.8224464 2.18961,-1.1505824 4.42462,-2.2065317 6.69659,-3.1851507 0.80225,-0.3454444 1.91283,-0.8390757 2.73849,-1.1372149 1.67239,-0.6038889 3.38147,-1.0648686 5.13172,-1.379546 1.88266,-0.37206187 3.77266,-0.68959704 5.66231,-1.02317663 3.27699,-0.57428724 6.56702,-1.08918297 9.87857,-1.42072627 0.24323,-0.023006 0.48904,-0.043361 0.73333,-0.066521 V -34.091677 c -0.26255,-0.04159 -0.52617,-0.07715 -0.78719,-0.128293 -2.41811,-0.473811 -4.68176,-1.509804 -6.84863,-2.648221 -0.585,-0.341207 -1.18119,-0.663287 -1.75492,-1.023177 -1.17204,-0.735212 -2.27405,-1.571745 -3.33878,-2.45499 -0.49867,0.120782 -0.99529,0.24919 -1.49675,0.357954 -1.31157,0.284471 -2.669,0.355594 -4.00243,0.456153 -1.12599,0.06024 -2.25222,0.116708 -3.37997,0.129877 -0.64032,0.02108 -1.28309,0.03549 -1.91806,0.126709 -1.78989,0.239522 -3.59659,0.422106 -5.39464,0.107703 -2.04988,-0.347372 -4.06897,-0.873414 -5.88881,-1.919644 -0.34992,-0.206999 -0.70568,-0.406441 -1.0501,-0.622459 -1.23933,-0.777287 -2.35155,-1.746085 -3.38155,-2.779682 -0.75427,-0.754907 -1.5104,-1.508279 -2.23008,-2.296603 -0.49926,-0.565971 -1.01299,-1.119156 -1.43181,-1.751754 -0.50744,-0.766426 -0.94931,-1.557655 -1.33362,-2.375797 -1.55566,-0.437481 -3.11571,-0.859563 -4.68507,-1.24175 -2.2412,-0.514896 -4.45364,-1.154925 -6.63006,-1.895886 -0.002,-0.0011 -0.006,-0.0019 -0.008,-0.0032 z m -98.899658,33.820257 v 11.121896 c 0.06263,-0.6222283 0.1184,-1.245105 0.183728,-1.867376 0.04543,-0.432669 0.204427,-1.835873 0.231245,-2.321945 0.02239,-0.405898 0.01869,-0.81318 0.02851,-1.219576 0.0022,-0.346468 0.02017,-0.692812 0.0063,-1.039015 -0.01598,-0.403168 -0.182416,-2.425891 -0.224909,-2.844621 -0.01276,-0.125697 -0.139169,-1.160802 -0.224909,-1.829363 z m 39.406547,30.533738 c 0.07115,0.111153 0.141312,0.22305 0.21699,0.331028 0.05329,0.07603 -0.101412,-0.156213 -0.148884,-0.235996 -0.0032,-0.0053 0.01073,0.0077 0.01584,0.01109 -0.02778,-0.03526 -0.05617,-0.07086 -0.08394,-0.106119 z" /></clipPath><clipPath
       clipPathUnits="userSpaceOnUse"
       id="clipPath64"><rect
         style="fill:#cc0000;stroke-width:0.3;stroke-linecap:round;paint-order:stroke fill markers"
         id="rect65"
         width="14"
         height="86.088135"
         x="76"
         y="21.75" /></clipPath><linearGradient
       inkscape:collect="always"
       xlink:href="#linearGradient16"
       id="linearGradient17"
       x1="-89.283203"
       y1="117.6032"
       x2="-51.963474"
       y2="117.6032"
       gradientUnits="userSpaceOnUse" /><radialGradient
       inkscape:collect="always"
       xlink:href="#linearGradient2"
       id="radialGradient4"
       cx="88.295357"
       cy="64.816887"
       fx="88.295357"
       fy="64.816887"
       r="41.1059"
       gradientUnits="userSpaceOnUse" /></defs><g
     inkscape:groupmode="layer"
     id="layer1"
     inkscape:label="Босс-вертолёт "
     style="display:inline"><g
       id="g1"
       transform="translate(-0.33894747,0.18751208)"><g
         id="g63"
         inkscape:label="1 половина верталёта"><g
           id="g68"
           inkscape:label="шасси"><path
             style="fill:#000000;fill-opacity:1;stroke-width:0.3;stroke-linecap:round;paint-order:stroke fill markers"
             d="m 78.930794,53.983183 2.663339,-6.917224 0.0039,-0.04919 0.713567,-0.08255 -0.220971,3.314563 -0.968724,2.252147 -1.35147,3.183736 h -1.325826 v -1.657282 z"
             id="path67"
             inkscape:label="шасси" /><path
             id="rect68"
             style="fill:#333333;fill-opacity:1;stroke-width:0.23496;stroke-linecap:round;paint-order:stroke fill markers"
             d="m 76.87014,52.472624 c 0.03852,-0.590412 1.721974,-0.589286 1.775002,0 0.162179,1.802211 0.242127,3.171891 0,4.910499 -0.08161,0.586012 -1.709332,0.588012 -1.775002,0 -0.202807,-1.815939 -0.121063,-3.054991 0,-4.910499 z"
             sodipodi:nodetypes="sssss"
             inkscape:label="колесо" /></g><path
           style="display:inline;fill:#93b6cc;fill-opacity:1;stroke-width:0.3;stroke-linecap:round;paint-order:stroke fill markers"
           d="m 90.15625,172.3085 c 0,0 -0.875252,-7e-5 -1.077625,-0.35059 -0.241677,-0.4186 -0.502453,-2.38486 -0.502453,-2.38486 0,0 -0.735416,-12.22539 -1.201173,-12.76055 -0.523986,-0.60206 -15.71875,-3.71875 -15.71875,-3.71875 0,0 -0.68685,0.0521 -0.68685,-2.46875 0,-2.50323 0.5931,-2.5 0.5931,-2.5 l 14.881304,-1.7097 c 0,0 -2.561183,-32.81521 -3.402952,-41.7193 -0.06782,-0.71744 -1.182651,-0.94884 -1.369166,-1.64492 -0.197167,-0.73584 -0.310212,-1.31022 -0.310212,-1.979 0,-1.911964 -1.503451,-1.808788 -1.679379,-2.916819 -0.524004,-3.300285 -0.493704,-3.889087 -0.493704,-3.889087 0,0 -0.219551,-8.427007 -0.390179,-8.883029 -0.221875,-0.592985 -1.690427,-0.933602 -17.407374,-6.45235 -1.145276,-0.402145 -1.356804,-0.475129 -1.356804,-3.586993 0,-3.504446 0.209343,-3.210056 1.351704,-3.43988 14.937631,-3.005204 12.102347,-2.245492 14.937631,-3.005204 1.262541,-0.338297 2.189047,-1.573723 2.832912,-2.711217 0.673444,-1.18975 0.739599,-2.64307 0.90625,-4 1.681215,-13.689029 1.675656,-19.147446 3,-32.781251 0.313313,-3.225484 1.636258,-6.175165 2.8125,-9.125 0.999233,-2.505922 1.337648,-3.514852 1.671875,-4.09375 0.635642,-1.101011 2.740357,-0.875 2.740357,-0.875"
           id="path63"
           sodipodi:nodetypes="cscscsccsssscssssssssssc"
           inkscape:label="корпус" /><path
           id="path36"
           style="display:inline;opacity:1;fill:#798b9b;fill-opacity:1;stroke-width:0.300001;stroke-linecap:round;paint-order:stroke fill markers"
           d="m 71.745581,150.71639 17.082544,3.69049 -0.10608,0.3834 -16.976501,-3.78907 z"
           sodipodi:nodetypes="ccccc"
           inkscape:label="закрылки, снизу" /><path
           id="rect36"
           style="display:inline;opacity:1;fill:#798b9b;fill-opacity:1;stroke-width:0.300001;stroke-linecap:round;paint-order:stroke fill markers"
           d="M 61.748541,75.452938 80.299835,81.151239 80.02188,81.440886 61.748504,75.956511 Z"
           sodipodi:nodetypes="ccccc"
           inkscape:label="закрылки, вверху" /><path
           style="display:inline;fill:#bac6d6;fill-opacity:1;stroke-width:0.3;stroke-linecap:round;paint-order:stroke fill markers"
           d="m 88.83029,161.26454 c 0,-39.69986 -2.726685,-53.92028 -2.726685,-53.92028 l 4.208895,-0.8571 v 0.66444 l 0.01673,54.12625 c 0,0 -1.468413,0.48542 -1.49894,-0.0133 z"
           id="path2"
           sodipodi:nodetypes="sccccss"
           inkscape:label="верх хвоста" /><path
           style="fill:#bac6d6;fill-opacity:1;stroke-width:0.3;stroke-linecap:round;paint-order:stroke fill markers"
           d="M 101.20179,85.267135 100.27371,78.372843 99.168856,73.511484 96.738177,66.572999 95.810099,56.496727 V 46.950786 L 95.677517,35.239329 94.926216,29.007951 93.114254,23.218514 c -1.195755,-0.07717 -2.514253,-0.12479 -3.597265,-0.12479 -0.742208,0 -0.928824,0.160662 -1.465824,0.754606 -1.248985,1.38143 -1.628595,3.429003 -2.137405,5.248057 -0.72988,2.6094 -1.284772,8.026493 -1.284772,8.026493 0,0 -0.146091,3.376595 -0.220971,6.204031 -0.110539,4.17337 -0.441957,12.506949 -0.441957,12.506949 l -0.618718,7.999145 c 0,0 -0.07971,1.996161 -0.29618,2.965814 -0.282184,1.264021 -1.07606,3.757062 -1.07606,3.757062 l -1.323605,3.972114 c 0,0 -0.587936,2.210062 -0.883886,3.314563 -0.660547,2.465195 -1.2819,3.048018 -1.2819,6.098843 0,2.962805 0.226754,7.300213 0.495224,10.250829 0.118744,1.30504 0.109931,2.880092 1.024026,3.819061 1.290232,1.325341 0.965119,1.996789 1.178555,3.098209 0.261991,1.35199 1.056855,1.80347 1.544835,2.26077 3.241948,3.03811 4.203628,3.81723 7.232979,3.81723 1.917876,0 6.99782,-2.60746 6.99782,-2.60746 l 0.759493,-0.94516"
           id="path64"
           clip-path="url(#clipPath64)"
           sodipodi:nodetypes="cccccccccssacsccsccssssssscc"
           inkscape:label="верх корпуса"
           transform="translate(0.3125,1.325734)" /><path
           style="fill:#6e879d;fill-opacity:1;stroke-width:0.3;stroke-linecap:round;paint-order:stroke fill markers"
           d="m 90.734375,61.747236 c 0,0 -1.887676,-0.112322 -2.938959,0.22073 -1.308819,0.414641 -2.846387,1.440733 -3.053088,2.715616 -0.263976,1.62814 -1.102364,9.080338 -1.102364,13.719944 0,4.639605 2.637273,18.712293 3.617529,19.692549 0.605432,0.605432 3.607434,0.43756 3.607434,0.43756 z"
           id="path68"
           sodipodi:nodetypes="csssscc"
           inkscape:label="крепление винта" /><g
           id="g6"
           transform="translate(0,2.7842329)"
           inkscape:label="окна"
           style="fill:#000000;fill-opacity:1"><path
             id="rect6"
             style="fill:#000000;fill-opacity:1;stroke-width:0.309162;stroke-linecap:round;paint-order:stroke fill markers"
             d="m 87.545151,26.111098 3.583755,-0.0221 v 5.428617 h -4.601563 z"
             sodipodi:nodetypes="ccccc" /><path
             id="rect5"
             style="fill:#000000;fill-opacity:1;stroke-width:0.404055;stroke-linecap:round;paint-order:stroke fill markers"
             d="m 86.5625,33.078125 h 4.578125 V 40.3125 H 86.5625 Z"
             sodipodi:nodetypes="ccccc" /><path
             id="rect3"
             style="fill:#000000;fill-opacity:1;stroke-width:0.377434;stroke-linecap:round;paint-order:stroke fill markers"
             d="m 86.570312,41.8125 h 4.601563 v 6.3125 h -4.601563 z"
             sodipodi:nodetypes="ccccc" /><path
             id="rect2"
             style="fill:#000000;fill-opacity:1;stroke-width:0.340085;stroke-linecap:round;paint-order:stroke fill markers"
             d="m 86.570312,49.703585 h 4.445313 v 6.234375 l -5.121018,-0.03125 z"
             sodipodi:nodetypes="ccccc" /></g><g
           id="g54"
           style="fill:#000000;fill-opacity:0.255452"><path
             id="path54"
             style="display:inline;fill:#000000;fill-opacity:0.255452;stroke-width:0.3;stroke-linecap:round;paint-order:stroke fill markers"
             d="m 80.727253,97.664673 0.65625,0.2376 0.25,1.10615 -0.6875,-0.2333 z"
             sodipodi:nodetypes="ccccc" /><path
             id="path52"
             style="display:inline;fill:#000000;fill-opacity:0.255452;stroke-width:0.3;stroke-linecap:round;paint-order:stroke fill markers"
             d="m 82.802158,102.13388 0.65625,0.2376 0.25,1.10615 -0.6875,-0.2333 z"
             sodipodi:nodetypes="ccccc" /><path
             id="path53"
             style="display:inline;fill:#000000;fill-opacity:0.255452;stroke-width:0.3;stroke-linecap:round;paint-order:stroke fill markers"
             d="m 82.539214,100.79013 0.65625,0.2376 0.25,1.10615 -0.6875,-0.2333 z"
             sodipodi:nodetypes="ccccc" /><path
             id="rect51"
             style="display:inline;fill:#000000;fill-opacity:0.255452;stroke-width:0.3;stroke-linecap:round;paint-order:stroke fill markers"
             d="m 80.393306,95.862477 0.65625,0.237607 0.25,1.106142 -0.6875,-0.233292 z"
             sodipodi:nodetypes="ccccc" /><rect
             style="display:inline;fill:#000000;fill-opacity:0.255452;stroke-width:0.334609;stroke-linecap:round;paint-order:stroke fill markers"
             id="rect50"
             width="1.1053386"
             height="4.6678853"
             x="86.276375"
             y="42.077385"
             transform="matrix(0.86899798,0.49481564,0.11917582,0.99287317,0,0)" /></g></g><use
         x="0"
         y="0"
         xlink:href="#g63"
         id="use64"
         transform="matrix(-1,0,0,1,180,0)"
         inkscape:label="2 половина верталёта" /><rect
         style="display:inline;fill:#404040;fill-opacity:1;stroke-width:0.3;stroke-linecap:round;paint-order:stroke fill markers"
         id="rect67"
         width="3.314563"
         height="1.767767"
         x="85.637779"
         y="165.55138"
         inkscape:label="крипление рулевого винта" /><path
         id="path65"
         style="fill:#aab9cd;fill-opacity:1;stroke-width:0.3;stroke-linecap:round;paint-order:stroke fill markers"
         d="m 92.837361,166.32651 c -10e-7,3.30636 0.263879,5.98669 -2.837361,5.98669 -3.03154,0 -2.701311,-2.68033 -2.701312,-5.98669 -10e-7,-3.30636 -0.286035,-5.9867 2.701312,-5.9867 3.031541,0 2.837362,2.68034 2.837361,5.9867 z"
         sodipodi:nodetypes="sssss"
         inkscape:label="мотор рулевого винта" /><rect
         style="fill:#000000;fill-opacity:1;stroke-width:0.272898;stroke-linecap:round;paint-order:stroke fill markers"
         id="rect66"
         width="1.1048543"
         height="15.030264"
         x="84.532928"
         y="158.92014"
         inkscape:label="рулевой винт" /><g
         id="g18"
         inkscape:label="винт"
         transform="matrix(1.4632988,-0.640207,0.640207,1.4632988,-80.461292,33.132942)"
         style="display:inline"><use
           x="0"
           y="0"
           xlink:href="#use17"
           id="use18"
           transform="rotate(-117.92727,88.447517,64.841358)"
           inkscape:label="лопость 3" /><use
           x="0"
           y="0"
           xlink:href="#g15"
           id="use17"
           transform="rotate(-116.09206,88.475216,64.732963)"
           inkscape:label="лопость 2"
           style="display:inline;opacity:1" /><circle
           style="display:inline;opacity:0.5;fill:url(#radialGradient4);stroke:none;stroke-width:0.191383;stroke-linecap:round;stroke-linejoin:round;stroke-dasharray:none;stroke-opacity:1;paint-order:stroke fill markers"
           id="path21"
           cx="88.295357"
           cy="64.816887"
           r="41.1059"
           sodipodi:insensitive="true"
           transform="rotate(-0.03755447,-12.167545,2.7391615)"
           inkscape:label="след лопостей" /><g
           id="g15"
           inkscape:label="лопость"
           transform="translate(177.9435,-40.254046)"
           style="display:inline;opacity:1"><path
             style="display:inline;opacity:1;fill:url(#linearGradient17);fill-opacity:1;stroke:none;stroke-width:0.2;stroke-linecap:round;stroke-linejoin:round;stroke-dasharray:none;stroke-opacity:1;paint-order:stroke fill markers"
             d="m -52.660687,109.3657 c -1.596972,6.76287 -3.583624,8.95365 -5.157862,9.83959 -1.267043,0.71306 0.201908,-2.91617 0.47972,-5.55837 0.271843,-2.58543 0.09678,-4.12063 -0.333111,-4.51667 -0.734405,-0.67658 0,0 -1.909815,3.68694 -0.788839,1.52287 -1.386872,0.49523 -1.279615,-1.42442 0.238704,-4.27225 0.144364,-4.62988 -0.234431,-5.4768 -1.228796,-2.74738 -1.663641,0.31313 -2.454314,2.60536 -0.545912,1.58265 -1.877565,3.55367 -3.251906,3.01155 -0.901126,-0.35545 -0.09527,-0.91554 -0.209979,-2.8985 -0.01993,-0.3445 -0.472698,-0.35592 -0.744214,-0.3363 -0.675576,0.0488 -0.904684,0.96001 -1.712216,1.09425 -0.707264,0.11757 0.56901,-2.22592 -0.0274,-3.04885 -0.344146,-0.47485 -1.342723,-1.10802 -1.666964,-0.56262 -0.519159,0.87327 -0.04876,0.79829 -0.485639,1.73202 -0.178537,0.38158 -1.04724,1.67098 -1.664483,0.18834 -0.810671,-1.94727 0.430217,-3.81309 -2.877792,-2.94224 -0.98627,0.25964 -2.916151,0.55714 -2.801812,-0.61944 0.158306,-1.62901 -3.727619,-2.38817 -10.007512,0.92298 -1.295538,0.68309 2.19869,1.62621 3.535804,2.05734 1.187206,0.3828 0.886543,0.95718 3.461906,-0.28043 2.188616,-1.05177 -0.408328,3.00092 0.817592,2.43066 1.665858,-0.7749 2.288068,-2.67693 2.651651,-1.28162 0.460833,1.76853 -1.570431,3.8534 -0.110486,3.24827 2.296251,-0.95177 4.023457,-4.17633 4.033964,-2.10459 0.01407,2.77408 -3.373085,4.92541 -1.259345,4.9589 1.988203,0.0315 5.067222,-5.35161 5.453349,-3.20603 0.323478,1.79746 -3.114658,5.61984 -1.444158,4.88163 3.062711,-1.35344 3.592936,-3.46276 4.154253,-2.98312 -0.06022,1.89313 -1.023326,3.84936 -2.3789,6.04656 -0.995779,1.61402 3.881343,-1.56095 4.286291,-2.00324 0.995058,-1.0869 1.584675,-1.81079 1.355398,-0.66207 -0.364902,1.82821 -1.898811,4.10283 -2.750957,5.99694 -0.16272,0.36169 3.169912,-1.90706 3.670772,-2.49502 1.93248,-2.26853 2.740637,-1.46105 -0.500273,4.91653 -1.511749,2.97487 -1.841894,2.90408 -0.622862,2.36487 6.194792,-2.74012 4.868409,-5.75749 5.73517,-5.19309 3.070473,1.99937 -7.11745,10.77037 -4.78959,7.94083 8.938344,-10.86465 6.702607,-5.62362 9.310379,-8.37166 2.074689,-2.18628 2.076005,-0.90679 2.426598,-8.22232 z"
             id="path15"
             sodipodi:nodetypes="csssssssasasassssssssssssssscssssssscsscc"
             inkscape:label="след" /><path
             style="display:inline;opacity:1;fill:#bcbcbc;fill-opacity:0.74;stroke:none;stroke-width:0.2;stroke-linecap:round;stroke-linejoin:round;stroke-dasharray:none;stroke-opacity:1;paint-order:stroke fill markers"
             d="m -55.202551,94.601832 4.447218,-3.123363 c 0,0 2.178126,3.977726 2.292092,13.507611 0.01953,1.63334 -0.316532,4.63266 -0.521423,6.55349 -1.175187,11.01723 -9.308117,20.14712 -9.308117,20.14712 0,0 1.992729,-3.6249 2.402417,-5.55874 0.503053,-2.37455 0.730224,-4.12384 0.524816,-3.74337 -0.590203,1.09321 -3.37358,4.14136 -6.329405,7.25562 -3.491136,3.67826 -7.872089,6.48153 -7.872089,6.48153 0,0 10.664797,-10.45575 13.653998,-18.90293 1.926252,-5.44339 2.133828,-9.20376 2.184541,-11.26534 0.16209,-6.589249 -1.474048,-11.351628 -1.474048,-11.351628 z"
             id="path14"
             sodipodi:nodetypes="ccsscssscssc"
             inkscape:label="винт" /></g><circle
           style="display:inline;opacity:1;fill:#000000;fill-opacity:0.996078;stroke:none;stroke-width:1;stroke-linecap:round;stroke-linejoin:round;stroke-dasharray:none;stroke-opacity:1;paint-order:stroke fill markers"
           id="path7"
           cx="90"
           cy="65.760933"
           r="4.3615122"
           transform="matrix(0.77205366,-5.06042e-4,5.06042e-4,0.77205366,18.819508,13.713658)"
           inkscape:label="крепение винта" /></g></g></g></svg>
