<?xml version="1.0" encoding="UTF-8" standalone="no"?>
<!-- Created with Inkscape (http://www.inkscape.org/) -->

<svg
   width="250mm"
   height="250mm"
   viewBox="0 0 250 250"
   version="1.1"
   id="svg1"
   xml:space="preserve"
   inkscape:version="1.3.2 (091e20e, 2023-11-25, custom)"
   sodipodi:docname="harrier_blue_cam.svg"
   xmlns:inkscape="http://www.inkscape.org/namespaces/inkscape"
   xmlns:sodipodi="http://sodipodi.sourceforge.net/DTD/sodipodi-0.dtd"
   xmlns:xlink="http://www.w3.org/1999/xlink"
   xmlns="http://www.w3.org/2000/svg"
   xmlns:svg="http://www.w3.org/2000/svg"><sodipodi:namedview
     id="namedview1"
     pagecolor="#ffffff"
     bordercolor="#000000"
     borderopacity="0.25"
     inkscape:showpageshadow="2"
     inkscape:pageopacity="0.0"
     inkscape:pagecheckerboard="0"
     inkscape:deskcolor="#d1d1d1"
     inkscape:document-units="mm"
     showguides="true"
     inkscape:zoom="1"
     inkscape:cx="489.5"
     inkscape:cy="598.5"
     inkscape:window-width="3440"
     inkscape:window-height="1417"
     inkscape:window-x="-8"
     inkscape:window-y="-8"
     inkscape:window-maximized="1"
     inkscape:current-layer="g1" /><defs
     id="defs1"><linearGradient
       id="linearGradient36"
       inkscape:collect="always"><stop
         style="stop-color:#898989;stop-opacity:1;"
         offset="0"
         id="stop36" /><stop
         style="stop-color:#5e5e5e;stop-opacity:0.3888889;"
         offset="1"
         id="stop37" /></linearGradient><linearGradient
       id="linearGradient31"
       inkscape:collect="always"><stop
         style="stop-color:#6a6a6a;stop-opacity:1;"
         offset="0"
         id="stop32" /><stop
         style="stop-color:#494949;stop-opacity:0.77572018;"
         offset="1"
         id="stop33" /></linearGradient><linearGradient
       id="linearGradient29"
       inkscape:collect="always"><stop
         style="stop-color:#c8c8c8;stop-opacity:0.4773663;"
         offset="0"
         id="stop30" /><stop
         style="stop-color:#a8a8a8;stop-opacity:0.68312758;"
         offset="1"
         id="stop31" /></linearGradient><linearGradient
       id="linearGradient27"
       inkscape:collect="always"><stop
         style="stop-color:#ffffff;stop-opacity:0.70576131;"
         offset="0"
         id="stop28" /><stop
         style="stop-color:#c7c7c7;stop-opacity:0.21604939;"
         offset="1"
         id="stop29" /></linearGradient><linearGradient
       id="linearGradient25"
       inkscape:collect="always"><stop
         style="stop-color:#9dbdc8;stop-opacity:1;"
         offset="0"
         id="stop26" /><stop
         style="stop-color:#477585;stop-opacity:0.69999999;"
         offset="1"
         id="stop27" /></linearGradient><linearGradient
       id="linearGradient24"
       inkscape:collect="always"><stop
         style="stop-color:#ffffff;stop-opacity:1;"
         offset="0"
         id="stop24" /><stop
         style="stop-color:#bfbfbf;stop-opacity:1;"
         offset="1"
         id="stop25" /></linearGradient><radialGradient
       inkscape:collect="always"
       xlink:href="#linearGradient24"
       id="radialGradient25"
       cx="94.656685"
       cy="237.29576"
       fx="94.656685"
       fy="237.29576"
       r="79.293343"
       gradientTransform="matrix(0.72271306,0,0,1.2954282,26.247063,-74.377849)"
       gradientUnits="userSpaceOnUse" /><radialGradient
       inkscape:collect="always"
       xlink:href="#linearGradient25"
       id="radialGradient27"
       cx="94.658539"
       cy="199.78265"
       fx="94.658539"
       fy="199.78265"
       r="15.726886"
       gradientTransform="matrix(1,0,0,9.7477832,0,-1734.0172)"
       gradientUnits="userSpaceOnUse" /><radialGradient
       inkscape:collect="always"
       xlink:href="#linearGradient27"
       id="radialGradient29"
       cx="94.65921"
       cy="110.61318"
       fx="94.65921"
       fy="110.61318"
       r="13.834439"
       gradientTransform="matrix(1,0,0,4.8048411,0,-409.45793)"
       gradientUnits="userSpaceOnUse" /><radialGradient
       inkscape:collect="always"
       xlink:href="#linearGradient29"
       id="radialGradient31"
       cx="94.65667"
       cy="108.46114"
       fx="94.65667"
       fy="108.46114"
       r="7.9832354"
       gradientTransform="matrix(0.40343786,-5.823284e-7,4.5725705e-6,3.1678827,56.468112,-230.876)"
       gradientUnits="userSpaceOnUse" /><radialGradient
       inkscape:collect="always"
       xlink:href="#linearGradient31"
       id="radialGradient33"
       cx="94.657578"
       cy="223.70087"
       fx="94.657578"
       fy="223.70087"
       r="2.0928669"
       gradientTransform="matrix(1,0,0,15.305084,0,-3200.0595)"
       gradientUnits="userSpaceOnUse" /><radialGradient
       inkscape:collect="always"
       xlink:href="#linearGradient36"
       id="radialGradient37"
       cx="94.658051"
       cy="88.000313"
       fx="94.658051"
       fy="88.000313"
       r="7.9832335"
       gradientTransform="matrix(0.9171431,0,0,2.9221596,7.8430718,-169.15064)"
       gradientUnits="userSpaceOnUse" /></defs><g
     inkscape:label="Слой 1"
     inkscape:groupmode="layer"
     id="layer1"><g
       id="g1"
       transform="translate(30.3425,-20.087963)"><path
         id="path10"
         style="fill:#d2d3d7;fill-opacity:1;stroke:none;stroke-width:0.465;stroke-linecap:square;stroke-opacity:1;paint-order:markers fill stroke"
         d="m 94.425244,22.506637 c -0.129495,0.22429 -0.357084,3.278666 -0.522449,8.953458 -0.04475,1.535525 -0.386539,10.048999 -0.386539,10.048999 l 1.142049,-0.03927 1.141532,0.03927 c 0,0 -0.30898,-8.513466 -0.353466,-10.048999 -0.165365,-5.707865 -0.426022,-8.729168 -0.555522,-8.953458 -0.03285,-0.05691 -0.08038,-0.09961 -0.231769,-0.09961 -0.151388,0 -0.200978,0.04269 -0.233836,0.09961 z"
         sodipodi:nodetypes="sscccsscs"
         inkscape:label="Игла" /><path
         id="path2"
         style="fill:#bab9bc;fill-opacity:1;stroke:none;stroke-width:0.465;stroke-linecap:square;paint-order:markers fill stroke"
         d="m 86.371989,123.81053 -71.007035,121.92899 13.021427,7.85999 53.70835,4.81779 z m 16.572111,0 4.27726,134.60677 53.70835,-4.81779 13.02195,-7.85999 z"
         inkscape:label="Крылья" /><path
         id="path30"
         style="display:inline;fill:#577180;stroke:none;stroke-width:0.765;stroke-linecap:square;paint-order:markers fill stroke;fill-opacity:1"
         d="M 108.64333 136.24005 C 106.73042 136.21852 104.43101 138.00517 104.22913 139.90752 C 103.85655 143.41834 110.93408 144.70778 110.77395 148.23466 C 110.65757 150.798 105.9929 151.3153 105.48849 153.83122 C 104.87552 156.88852 106.83102 160.15916 108.79371 162.58211 C 110.70147 164.93723 114.61919 165.07355 116.44751 167.49085 C 118.14413 169.73404 116.3737 174.32236 118.89697 175.56478 C 122.42171 177.30032 128.66658 175.12265 129.92317 171.40017 C 130.02733 171.09162 130.09193 170.78854 130.12833 170.48964 L 125.88052 163.19551 C 124.09638 161.42508 122.2382 159.63955 121.32886 157.64753 C 120.65514 156.17165 120.26377 154.57684 119.92171 152.96306 L 110.40085 136.61418 C 109.83953 136.40186 109.26101 136.24699 108.64333 136.24005 z M 84.196245 153.4669 C 83.322184 153.48684 82.522395 153.73572 81.910597 154.30871 C 80.616756 155.52049 83.288861 158.04428 82.439763 159.60038 C 80.210404 163.68599 77.540315 165.66276 73.047055 166.87642 C 71.512117 167.29102 65.822305 164.73476 65.241847 166.21496 C 63.943899 169.52479 69.590996 172.07651 72.65018 173.88788 C 79.770796 178.55203 77.115669 173.59026 82.307472 168.7285 C 82.909126 168.21084 83.886273 167.70848 84.993096 167.19785 L 85.425111 153.59764 C 85.008837 153.52172 84.59236 153.45786 84.196245 153.4669 z M 64.554033 179.01728 C 62.746323 178.9883 60.902837 179.35889 59.413262 180.0229 C 57.614739 180.82463 57.791628 184.01731 56.006751 184.84897 C 54.987684 185.3238 53.578471 183.93813 52.645716 184.56578 C 50.508683 186.00381 51.797436 189.81437 50.347148 191.94311 C 48.974914 193.95726 46.368326 194.93399 44.19817 196.22812 L 40.291431 202.93675 C 40.25116 204.45293 40.620577 205.85735 41.799867 206.35515 C 44.986883 207.70042 46.836006 201.39114 50.001433 199.99584 C 52.549616 198.87262 55.779226 197.26087 58.234006 198.57578 C 60.375128 199.72268 58.771765 204.94019 61.182146 205.23997 C 64.559326 205.65999 67.719934 200.59336 67.473235 197.19912 C 67.214448 193.63854 58.450117 193.1424 59.72332 189.80732 C 60.98664 186.49819 67.852815 191.9818 70.343861 189.46367 C 72.250044 187.53675 72.297813 183.37904 70.519044 181.33393 C 69.142961 179.75181 66.878233 179.05454 64.554033 179.01728 z M 115.3375 199.64548 C 112.50377 199.55786 109.90464 202.63284 107.05531 203.55842 C 106.56118 203.71893 106.02832 203.79435 105.48745 203.84936 L 105.74687 212.01165 C 108.50017 213.78204 110.64952 218.38255 113.81408 217.57255 C 115.52126 217.13558 116.03994 214.60574 116.18912 212.84984 C 116.3666 210.761 113.45907 208.73112 114.35254 206.8347 C 115.1899 205.05742 119.27415 206.4677 119.79511 204.57334 C 120.32336 202.65245 118.14488 200.31148 116.22478 199.78035 C 115.92608 199.69773 115.63064 199.65454 115.3375 199.64548 z M 83.737358 202.99153 C 80.286774 202.95089 76.325274 205.37654 75.046933 208.45424 C 73.975796 211.03307 77.789022 213.67035 77.540321 216.45169 C 77.206142 220.18891 70.862877 222.98255 72.337021 226.43299 C 73.712566 229.65268 79.006594 230.12564 82.423743 229.36304 C 82.619516 229.31935 82.823389 229.21703 83.024224 229.15272 L 83.312061 220.10831 C 83.25759 219.99156 83.181474 219.88309 83.145146 219.7595 C 82.559792 217.76789 82.658685 215.43194 83.520317 213.54282 L 83.855181 203.006 C 83.814932 203.00484 83.777753 202.992 83.737358 202.99153 z M 109.64637 218.47482 C 109.18163 218.46626 108.72951 218.51416 108.30227 218.62675 C 106.92635 218.98932 106.41973 220.65225 106.07088 222.21774 L 106.63312 239.90297 C 107.04817 241.82868 107.62975 243.73485 108.96373 245.08508 C 111.35792 247.50849 115.55999 250.52926 118.48873 248.78925 C 122.65497 246.31401 123.03515 238.39747 120.34081 234.36946 C 118.46143 231.5598 111.50001 234.968 110.55123 231.72362 C 109.63121 228.57764 117.57755 227.69938 117.16581 224.44758 C 116.7773 221.37927 112.89955 218.53472 109.64637 218.47482 z M 142.56478 220.95632 C 138.75729 220.85902 134.4619 224.50688 133.77151 228.25252 C 133.26533 230.9987 137.5471 232.77762 137.88754 235.54923 C 138.34498 239.27339 132.72911 243.33594 134.89444 246.40025 C 136.91495 249.25961 142.19027 248.61116 145.37132 247.14852 C 147.27515 246.27315 149.32928 244.18141 149.11321 242.09715 C 148.88089 239.85631 145.13598 239.58698 144.06132 237.60699 C 143.06844 235.77761 142.67415 233.46503 143.12598 231.4332 C 143.66288 229.0188 147.53692 227.71463 147.24201 225.2589 C 146.98941 223.15551 144.68257 221.01046 142.56478 220.95632 z M 158.9059 225.29869 C 157.69682 225.31748 156.44769 225.75356 155.68594 226.51361 C 153.0787 229.11502 154.06143 233.91365 154.78057 237.52585 C 155.74444 242.36736 159.88629 246.04909 161.55483 250.69508 C 161.80276 251.38541 161.94798 252.14099 162.04369 252.92698 L 173.95149 245.73931 L 168.56939 236.49749 C 166.51369 236.54426 163.98344 237.94119 162.53668 236.58689 C 159.95922 234.17417 164.12533 228.30863 161.40704 226.05575 C 160.76263 225.52169 159.84629 225.28408 158.9059 225.29869 z M 45.977906 234.18291 C 45.736606 234.17624 45.501472 234.19412 45.278724 234.23923 C 40.510854 235.20498 41.474171 245.24541 36.672531 246.02611 C 33.803137 246.49265 32.338568 241.84046 29.563404 240.97474 C 26.590351 240.0473 22.511012 238.7122 19.299431 238.98313 L 15.364788 245.73931 L 28.386215 253.59929 L 63.81196 256.77687 C 62.811613 256.09975 61.948027 255.35382 61.742319 254.25765 C 61.505199 252.99406 63.471495 251.96785 63.239385 250.70334 C 62.570445 247.05902 59.123569 243.70254 55.568535 242.65836 C 51.505023 241.46483 45.514564 249.21232 43.220968 245.65197 C 41.248192 242.58966 50.619456 240.62761 49.955958 237.04578 C 49.666184 235.48149 47.667001 234.22959 45.977906 234.18291 z "
         inkscape:label="Крылья 1"
         transform="translate(-1.3125e-6)" /><path
         id="path37"
         style="display:inline;fill:#2d415b;stroke:none;stroke-width:0.765;stroke-linecap:square;paint-order:markers fill stroke;fill-opacity:1"
         d="M 84.218466 127.50776 L 70.910234 150.36011 C 71.227556 151.36485 71.693055 152.2084 72.628476 152.57342 C 76.620238 154.13107 82.871869 151.81632 84.601905 147.89618 C 85.654013 145.51217 81.590715 143.19722 81.795875 140.59947 C 82.011455 137.86967 85.680573 136.21884 85.911903 133.49034 C 86.082119 131.48264 85.651318 128.90642 84.218466 127.50776 z M 104.19916 160.58533 C 104.17041 160.58656 104.14162 160.59195 104.11286 160.5936 L 105.01823 189.0885 C 107.61517 189.25422 109.84939 189.5615 109.80915 191.64442 C 109.77409 193.45856 107.55415 193.47601 105.15672 193.44999 L 105.35154 199.57365 C 108.74267 197.88003 112.19983 193.49225 115.45274 194.98581 C 118.09462 196.19884 116.71612 200.87715 118.53678 203.14346 C 119.33596 204.13823 120.25333 205.29407 121.24876 206.42129 C 120.20887 206.22664 119.13529 206.30626 118.29339 206.736 C 114.90106 208.46764 112.86776 213.72363 114.04869 217.34466 C 114.9145 219.99945 119.52609 219.51881 121.14799 221.79193 C 123.32734 224.84628 120.33089 231.09672 123.69616 232.75612 C 126.83636 234.30455 131.16256 231.21725 133.25992 228.41375 C 134.51517 226.7359 135.32198 223.91723 134.13738 222.18881 C 132.86378 220.33051 129.44467 221.88107 127.55536 220.65402 C 125.80976 219.52029 124.35976 217.67613 123.78711 215.67499 C 123.26547 213.8521 124.77296 211.66824 124.86301 209.83865 C 126.7172 211.17567 128.68056 211.85345 130.59858 211.02256 C 135.54308 208.8806 135.57628 200.03482 133.40616 195.1026 C 132.37612 192.76158 127.29446 193.51204 126.93472 190.97986 C 126.73127 189.54774 129.128 189.0017 129.8007 187.72114 C 131.3419 184.78726 134.28843 180.66942 132.22225 178.07832 C 129.65497 174.85877 123.43484 180.40885 119.87159 178.34497 C 115.4304 175.77262 116.23727 168.34561 112.50046 164.82745 C 110.2609 162.71894 107.24086 160.45481 104.19916 160.58533 z M 73.649602 175.24542 C 72.760995 175.21992 71.95129 175.43118 71.277137 176.05984 C 69.988316 177.26167 70.746218 179.73121 71.456971 181.34375 C 72.302484 183.26204 75.827402 183.64933 75.952304 185.74193 C 76.069364 187.70312 71.808667 188.42319 72.259506 190.33545 C 72.716663 192.27449 75.750466 193.28517 77.690182 192.83091 C 80.908911 192.07713 81.657246 187.52319 83.927011 185.11975 C 84.075864 184.96213 84.266686 184.83639 84.437057 184.69497 L 84.692339 176.66394 C 83.488033 176.80254 82.195128 177.1541 81.056902 177.0789 C 78.706361 176.92359 75.920488 175.31056 73.649602 175.24542 z M 53.613099 199.9328 C 51.714821 199.921 51.33833 203.29259 47.30289 206.05439 C 44.723204 207.66486 36.852273 208.20404 36.210027 211.17656 C 35.725754 213.4179 36.301747 216.17347 37.861089 217.8547 C 39.685156 219.82133 43.292148 221.8823 45.505583 220.36721 C 46.968394 219.36591 44.71068 216.46558 45.786187 215.05642 C 48.609985 211.35665 51.549267 209.8083 56.1747 209.29088 C 57.754787 209.11413 62.990247 212.50445 63.788705 211.12953 C 65.574111 208.05515 60.380173 204.67584 57.631458 202.42102 C 55.653352 200.64253 54.475953 199.93816 53.613099 199.9328 z M 149.63411 204.31083 C 149.28342 204.31089 148.9249 204.34474 148.55821 204.41521 C 145.06257 205.08706 143.41794 210.22409 143.43294 213.78363 C 143.4471 217.14021 148.105 219.22854 148.34013 222.5769 C 148.61622 226.5084 144.18665 229.66547 144.07786 233.60516 C 143.97558 237.30896 144.23331 242.44258 147.50659 244.17868 C 150.31582 245.66864 155.27955 244.38495 156.66986 241.52509 C 158.32978 238.11077 151.77143 234.70777 152.40448 230.9645 C 152.98732 227.51834 155.83534 222.69709 159.31001 223.07454 C 160.30687 223.18282 161.00916 223.69582 161.54863 224.44241 L 149.83513 204.32891 C 149.76731 204.3264 149.70251 204.31082 149.63411 204.31083 z M 65.358118 221.28033 C 62.506113 221.32796 59.514796 222.55087 58.337875 224.70596 C 55.746904 229.4504 63.059023 234.5088 64.417091 239.74122 C 65.657252 244.51943 64.31089 249.89494 66.243336 254.43748 C 66.602126 255.28089 66.989811 256.19423 67.424142 257.10089 L 77.846245 258.03623 C 76.52442 255.63316 72.580441 253.52377 73.179347 250.84132 C 73.738472 248.33699 78.422655 248.6371 79.355714 246.24677 C 80.489559 243.34208 79.131134 239.78168 77.618352 237.05508 C 76.147909 234.40482 72.312843 233.59091 70.931422 230.89318 C 69.649484 228.38978 72.188662 224.1776 69.91908 222.51643 C 68.730195 221.64626 67.069324 221.25176 65.358118 221.28033 z M 161.84163 224.94471 C 163.30542 227.52737 163.40333 232.10342 165.5117 234.35757 C 166.65955 235.58487 168.05406 237.34708 169.55383 238.18783 L 161.84163 224.94471 z "
         inkscape:label="Крылья 2"
         transform="translate(-1.3125e-6)" /><path
         id="path32"
         style="display:inline;fill:#242d3c;stroke:none;stroke-width:0.765;stroke-linecap:square;paint-order:markers fill stroke;fill-opacity:1"
         d="M 72.608323 152.9429 C 71.467902 152.94087 70.255476 153.15994 69.09691 153.47362 L 55.053839 177.58739 C 55.19077 178.01322 55.422581 178.38225 55.790228 178.65865 C 58.615528 180.78265 64.460698 179.69306 66.195278 176.61329 C 67.80379 173.75736 60.776362 169.94537 62.815639 167.37923 C 64.918695 164.73285 70.079385 170.51621 72.880141 168.6236 C 76.895401 165.91028 79.530542 158.43575 76.606529 154.57123 C 75.707255 153.3827 74.23852 152.94581 72.608323 152.9429 z M 136.67263 192.79163 C 136.37564 192.79909 136.07187 192.8596 135.76157 192.98129 C 134.28138 193.56175 136.83763 199.25157 136.42303 200.78649 C 135.20937 205.27976 133.23262 207.94984 129.14699 210.1792 C 127.59089 211.0283 125.0671 208.3562 123.85532 209.65004 C 122.02175 211.60778 123.51134 215.48603 125.17824 217.58754 C 126.60323 219.38404 129.23936 220.37174 131.52824 220.23337 C 134.56381 220.04986 136.29168 212.35219 138.27512 210.04691 C 143.13687 204.85512 148.09866 207.51023 143.43449 200.38962 C 141.79294 197.61723 139.54349 192.71955 136.67263 192.79163 z M 71.911725 193.38695 C 67.796468 193.47271 70.59721 196.79282 68.266986 202.32335 C 66.969325 205.0737 60.642654 209.78719 61.711314 212.63435 C 62.517104 214.78116 64.492989 216.78622 66.714109 217.35603 C 69.3123 218.02256 73.460963 217.80381 74.502264 215.33186 C 75.190438 213.6982 71.721909 212.48106 71.863666 210.71405 C 72.235859 206.07468 73.869348 203.18226 77.478827 200.24389 C 78.419295 199.47828 82.254077 199.30226 83.996775 198.55924 L 84.081008 195.90152 C 82.275382 194.09569 77.793465 194.00311 74.985956 193.6784 C 73.673007 193.46592 72.673809 193.37106 71.911725 193.38695 z M 53.784149 209.56477 C 48.523839 209.56718 44.997389 217.11955 41.049009 221.09223 C 36.584584 225.58416 30.269413 229.59599 29.029588 235.80658 C 28.485652 238.5313 28.814896 242.82592 31.42014 243.79162 C 33.835362 244.68689 36.16737 241.50421 37.925686 239.62185 C 40.855365 236.48563 39.853814 228.80083 44.12014 228.33468 C 47.594559 227.95505 50.445831 232.77471 51.030829 236.22051 C 51.666262 239.96339 45.109601 243.37039 46.771657 246.78369 C 48.163756 249.64266 53.128186 250.92332 55.936473 249.43159 C 59.208684 247.69343 59.463609 242.55973 59.359003 238.856 C 59.247734 234.91636 54.81588 231.7615 55.089496 227.8298 C 55.322526 224.48131 59.979474 222.39055 59.991522 219.03396 C 60.004292 215.47438 58.356097 210.33828 54.860053 209.66864 C 54.493315 209.59839 54.134837 209.56461 53.784149 209.56477 z M 117.49499 221.14339 C 115.17479 221.08772 114.01577 224.81047 113.94017 227.13011 C 113.81023 231.11628 118.67269 233.86644 119.36568 237.79405 C 119.81325 240.33069 117.07286 243.27583 118.43033 245.4649 C 119.02283 246.42037 120.87704 245.73571 121.61102 246.58732 C 122.89656 248.07888 121.42314 250.91706 122.73343 252.38696 C 125.21391 255.1696 130.01138 257.31384 133.39738 255.75472 C 135.85935 254.62106 137.52419 250.81089 136.57806 248.27093 C 135.34163 244.95168 126.82865 247.12967 127.03653 243.5937 C 127.24606 240.03001 135.44038 243.1792 137.13927 240.0394 C 138.7588 237.04625 137.9589 231.12839 134.70738 230.12372 C 132.38669 229.40666 131.70463 234.82214 129.28135 234.98802 C 126.50308 235.1782 124.22094 232.38182 122.35929 230.31079 C 120.04669 227.7381 120.9533 221.22639 117.49499 221.14339 z "
         transform="translate(-1.3125e-6)"
         inkscape:label="Крылья 3" /><path
         id="path6"
         style="display:none;fill:url(#radialGradient25);fill-opacity:0.587522;stroke:none;stroke-width:0.465;stroke-linecap:square;paint-order:markers fill stroke"
         d="m 86.370371,123.81053 -71.007031,121.92899 13.021421,7.85999 53.70835,4.81779 z m 16.572109,0 4.27726,134.60677 53.70834,-4.81779 13.02195,-7.85999 z"
         inkscape:label="Градиент крыльев" /><path
         id="path3"
         style="fill:#b5c7ce;fill-opacity:1;stroke:none;stroke-width:0.465;stroke-linecap:square;stroke-opacity:1;paint-order:markers fill stroke"
         d="m 93.103878,41.142708 -0.404627,6.767029 c 0,0 -1.879353,5.23597 -2.503723,7.988143 -1.112147,4.902261 -2.468532,10.057402 -3.258199,15.021822 -0.700583,4.404382 -2.454906,14.648299 -3.111438,23.805265 -0.410983,5.732193 -0.875535,12.790793 -1.193209,18.006133 -0.392353,6.44138 -0.631704,12.69134 -0.817004,19.14199 -0.30442,10.59743 -1.883347,41.30259 -0.293005,41.72872 3.643073,0.97616 10.609618,0.23078 13.135115,-0.0853 2.52483,0.31599 9.492722,1.06152 13.136152,0.0853 1.59034,-0.42613 0.0109,-31.13129 -0.29352,-41.72872 -0.1853,-6.45065 -0.42465,-12.70061 -0.81701,-19.14199 -0.31767,-5.21534 -0.78222,-12.27394 -1.19321,-18.006133 -0.65653,-9.156966 -2.41034,-19.400883 -3.11092,-23.805265 -0.78967,-4.96442 -2.14656,-10.119561 -3.258715,-15.021822 -0.62437,-2.752173 -2.503723,-7.988143 -2.503723,-7.988143 l -0.40411,-6.767029 c 0,0 -1.043006,0.0028 -1.554427,0.0031 -0.511246,-3.23e-4 -1.554427,-0.0031 -1.554427,-0.0031 z"
         sodipodi:nodetypes="ccsssssscsssssscccc"
         inkscape:label="Нижнаяя основа" /><path
         id="path14"
         style="display:none;fill:url(#radialGradient29);fill-opacity:0.672444;stroke:none;stroke-width:0.465;stroke-linecap:square;stroke-opacity:1;paint-order:markers fill stroke"
         d="m 93.104844,41.142708 -0.40463,6.767029 c 0,0 -1.87935,5.23597 -2.50372,7.988143 -1.11215,4.902261 -2.46853,10.057402 -3.2582,15.021822 -0.70058,4.404382 -2.4549,14.648299 -3.11144,23.805265 -0.41098,5.732193 -0.87553,12.790793 -1.1932,18.006133 -0.39236,6.44138 -0.63171,12.69134 -0.81701,19.14199 -0.30442,10.59743 -1.88335,41.30259 -0.293,41.72872 3.64307,0.97616 10.60961,0.23078 13.13511,-0.0853 2.52483,0.31599 9.492726,1.06152 13.136156,0.0853 1.59034,-0.42613 0.0109,-31.13129 -0.29352,-41.72872 -0.1853,-6.45065 -0.42465,-12.70061 -0.81701,-19.14199 -0.31767,-5.21534 -0.78222,-12.27394 -1.19321,-18.006133 -0.65653,-9.156966 -2.41034,-19.400883 -3.11092,-23.805265 -0.78967,-4.96442 -2.14656,-10.119561 -3.258716,-15.021822 -0.62437,-2.752173 -2.50372,-7.988143 -2.50372,-7.988143 l -0.40411,-6.767029 c 0,0 -1.04301,0.0028 -1.55443,0.0031 -0.51125,-3.23e-4 -1.55443,-0.0031 -1.55443,-0.0031 z"
         sodipodi:nodetypes="ccsssssscsssssscccc"
         inkscape:label="Градиент нижней основы" /><path
         id="path5"
         style="fill:#8c8c8c;fill-opacity:1;stroke:none;stroke-width:0.465;stroke-linecap:square;stroke-opacity:1;paint-order:markers fill stroke"
         d="m 91.361348,67.847021 c -1.946846,0 -3.005194,7.782969 -3.400826,11.819434 -0.559471,5.708051 -1.285709,15.007928 -1.285709,16.878556 0,1.188029 1.731577,3.391602 2.778642,7.299299 1.50483,5.61609 1.301982,5.45157 1.658813,8.79171 0.4956,4.63908 0.744432,7.66964 1.310514,13.52372 0.566083,5.8541 1.701531,18.37389 1.799891,18.74098 0.015,0.0561 0.06276,0.0981 0.123506,0.13177 l 5.17e-4,0.11731 c 0,0 0.154955,-0.005 0.311092,-0.0264 0.156462,0.0217 0.311609,0.0264 0.311609,0.0264 l 5.17e-4,-0.11731 c 0.06075,-0.0337 0.108501,-0.0757 0.123506,-0.13177 0.0984,-0.36709 1.233811,-12.88688 1.799891,-18.74098 0.566089,-5.85408 0.814914,-8.88464 1.310514,-13.52372 0.35683,-3.34014 0.153982,-3.17562 1.658813,-8.79171 1.047062,-3.907697 2.778642,-6.11127 2.778642,-7.299299 0,-1.870628 -0.72624,-11.170505 -1.28571,-16.878556 -0.39564,-4.036465 -1.453974,-11.819434 -3.400826,-11.819434 -1.333774,0 -2.801871,0.0067 -3.296439,0.0088 -0.494518,-0.0021 -1.963154,-0.0088 -3.296957,-0.0088 z"
         inkscape:label="Основа панели" /><path
         id="path16"
         style="display:inline;fill:url(#radialGradient31);fill-opacity:0.663778;stroke:none;stroke-width:0.465;stroke-linecap:square;stroke-opacity:1;paint-order:markers fill stroke"
         d="m 91.359989,67.847021 c -1.94684,0 -3.00519,7.782969 -3.40082,11.819434 -0.55948,5.708051 -1.28571,15.007928 -1.28571,16.878556 0,1.188029 1.73157,3.391602 2.77864,7.299299 1.50483,5.61609 1.30198,5.45157 1.65881,8.79171 0.4956,4.63908 0.74443,7.66964 1.31052,13.52372 0.56608,5.8541 1.70153,18.37389 1.79989,18.74098 0.015,0.0561 0.0628,0.0981 0.1235,0.13177 l 5.2e-4,0.11731 c 0,0 0.15495,-0.005 0.31109,-0.0264 0.15646,0.0217 0.31161,0.0264 0.31161,0.0264 l 5.2e-4,-0.11731 c 0.0607,-0.0337 0.1085,-0.0757 0.1235,-0.13177 0.0984,-0.36709 1.23381,-12.88688 1.79989,-18.74098 0.56609,-5.85408 0.81492,-8.88464 1.31052,-13.52372 0.35683,-3.34014 0.15398,-3.17562 1.658815,-8.79171 1.047066,-3.907697 2.778646,-6.11127 2.778646,-7.299299 0,-1.870628 -0.72624,-11.170505 -1.28571,-16.878556 -0.39564,-4.036465 -1.453976,-11.819434 -3.400831,-11.819434 -1.33378,0 -2.80187,0.0067 -3.29644,0.0088 -0.49452,-0.0021 -1.96316,-0.0088 -3.29696,-0.0088 z"
         inkscape:label="Градиент основы панели" /><path
         id="path31"
         style="display:inline;fill:#bfbfbf;fill-opacity:1;fill-rule:evenodd;stroke:#0a100c;stroke-width:1;stroke-linecap:butt;stroke-linejoin:miter;stroke-dasharray:none;stroke-opacity:1"
         d="m 67.815131,243.17687 0.07483,-6.82485 m -12.796859,6.82485 0.07483,-6.82485 m -13.171705,6.82485 0.07483,-6.82485 m 40.902766,-81.52553 -5.80319,-0.0351 m -48.27376,81.8285 48.722341,-82.06553 m 4.044988,44.58984 -30.709369,0.28064 m 28.838483,36.76292 -50.51394,0.28064 m 50.51394,6.46623 -50.51394,0.28064 m -0.380024,10.41264 0.07483,-17.27589 m 92.415778,6.82485 -0.0748,-6.82485 m 12.79686,6.82485 -0.0748,-6.82485 m 13.1717,6.82485 -0.0748,-6.82485 m -40.90276,-81.52553 5.80319,-0.0351 m 48.27376,81.8285 -48.72234,-82.06553 m -4.04499,44.58984 30.70937,0.28064 m -28.83849,36.76292 50.51394,0.28064 m -50.51394,6.46623 50.51394,0.28064 m 0.38003,10.41264 -0.0748,-17.27589"
         inkscape:label="Полосы крыльев" /><path
         id="path9"
         style="fill:#a1bbba;fill-opacity:1;stroke:none;stroke-width:0.465;stroke-linecap:square;stroke-opacity:1;paint-order:markers fill stroke"
         d="m 86.920276,124.14953 c -0.258369,-0.0125 -0.51969,0.0421 -0.775663,0.17105 -1.251926,0.6305 -1.810122,13.47998 -2.979663,19.91248 l -2.000395,3.51916 c 0,0 -0.756415,12.7217 -1.367359,42.95449 -0.274485,13.58301 -0.959967,27.78315 -0.855245,41.36853 0.04705,6.10385 0.186743,12.21654 0.703834,18.29862 0.481095,5.65872 1.190797,16.82778 2.38125,17.14676 0.924817,0.24781 11.774151,0.25892 12.630753,0.24392 0.855736,0.015 11.706422,0.004 12.631272,-0.24392 1.19046,-0.31898 1.90015,-11.48804 2.38125,-17.14676 0.51709,-6.08208 0.65683,-12.19477 0.70383,-18.29862 0.10472,-13.58538 -0.58075,-27.78552 -0.85524,-41.36853 -0.61094,-30.23279 -1.36736,-42.95449 -1.36736,-42.95449 l -1.99988,-3.51916 c -1.16954,-6.4325 -1.72826,-19.28198 -2.98018,-19.91248 -0.51195,-0.25783 -1.0449,-0.21942 -1.53324,0.0625 -1.04981,0.60609 -2.730065,20.07009 -2.730065,20.07009 l -0.967383,26.6268 -2.752804,-0.0212 v -0.008 l -0.529683,0.004 -0.529684,-0.004 v 0.008 l -2.752803,0.0212 -0.9679,-26.6268 c 0,0 -1.679748,-19.464 -2.729549,-20.07009 -0.244172,-0.14098 -0.499725,-0.22105 -0.758093,-0.23358 z"
         sodipodi:nodetypes="ssccsssscsscsccsscccccccccss"
         inkscape:label="Верхняя основа" /><path
         id="path19"
         style="display:inline;fill:url(#radialGradient27);fill-opacity:0.627383;stroke:none;stroke-width:0.465;stroke-linecap:square;stroke-opacity:1;paint-order:markers fill stroke"
         d="m 86.920773,124.14953 c -0.25837,-0.0125 -0.51969,0.0421 -0.77566,0.17105 -1.25193,0.6305 -1.81013,13.47998 -2.97967,19.91248 l -2.00039,3.51916 c 0,0 -0.75642,12.7217 -1.36736,42.95449 -0.27449,13.58301 -0.95997,27.78315 -0.85525,41.36853 0.047,6.10385 0.18675,12.21654 0.70384,18.29862 0.48109,5.65872 1.1908,16.82778 2.38125,17.14676 0.92482,0.24781 11.77415,0.25892 12.63075,0.24392 0.85574,0.015 11.706427,0.004 12.631277,-0.24392 1.19046,-0.31898 1.90015,-11.48804 2.38125,-17.14676 0.51709,-6.08208 0.65683,-12.19477 0.70383,-18.29862 0.10472,-13.58538 -0.58075,-27.78552 -0.85524,-41.36853 -0.61094,-30.23279 -1.36736,-42.95449 -1.36736,-42.95449 l -1.99988,-3.51916 c -1.16954,-6.4325 -1.72826,-19.28198 -2.98018,-19.91248 -0.51195,-0.25783 -1.0449,-0.21942 -1.53324,0.0625 -1.04981,0.60609 -2.730067,20.07009 -2.730067,20.07009 l -0.96738,26.6268 -2.75281,-0.0212 v -0.008 l -0.52968,0.004 -0.52969,-0.004 v 0.008 l -2.7528,0.0212 -0.9679,-26.6268 c 0,0 -1.67975,-19.464 -2.72955,-20.07009 -0.24417,-0.14098 -0.49972,-0.22105 -0.75809,-0.23358 z"
         sodipodi:nodetypes="ssccsssscsscsccsscccccccccss"
         inkscape:label="Градиент в основы" /><path
         id="path34"
         style="fill:#4d4d4d;fill-opacity:1;stroke:none;stroke-width:0.465;stroke-linecap:square;stroke-opacity:1;paint-order:markers fill stroke"
         inkscape:label="Двигатель"
         d="m 108.6714,261.55509 c -3.26816,0.0214 -23.948377,0.15781 -27.998288,0.23048 0.367834,3.12773 0.808515,5.58891 1.353923,5.73505 0.924816,0.24781 11.774152,0.25891 12.630753,0.24391 0.855735,0.015 11.706422,0.004 12.631272,-0.24391 0.55914,-0.14982 1.00919,-2.72371 1.38234,-5.96553 z" /><path
         id="path33"
         style="fill:none;fill-rule:evenodd;stroke:#0a100c;stroke-width:1;stroke-linecap:butt;stroke-linejoin:miter;stroke-dasharray:none;stroke-opacity:1"
         d="m 79.862097,188.63914 29.465193,-0.19609 m -30.355325,45.57062 31.376925,1.6e-4"
         inkscape:label="Полосы основы" /><path
         id="path7"
         style="fill:#666666;fill-opacity:1;stroke:none;stroke-width:0.465;stroke-linecap:square;stroke-opacity:1;paint-order:markers fill stroke"
         d="m 91.361348,67.847021 c -1.946844,0 -3.005194,7.782973 -3.400826,11.819434 -0.55947,5.708045 -1.285709,15.00793 -1.285709,16.878556 0,1.188028 1.731578,3.391603 2.778642,7.299299 0.37936,1.41579 0.648856,2.45989 0.847493,3.28972 0.04817,0.0337 0.102149,0.083 0.147795,0.11059 0.989173,0.5972 2.524202,0.90898 4.209303,0.90898 1.685101,0 3.220126,-0.31178 4.209304,-0.90898 0.04564,-0.0276 0.09959,-0.0769 0.147795,-0.11059 0.19864,-0.82983 0.468121,-1.87393 0.847493,-3.28972 1.047062,-3.907696 2.778642,-6.111271 2.778642,-7.299299 0,-1.870626 -0.72624,-11.170511 -1.28571,-16.878556 -0.39563,-4.036461 -1.453974,-11.819434 -3.400826,-11.819434 -1.333803,0 -2.802404,0.0067 -3.296956,0.0088 -0.494908,-0.0021 -1.962847,-0.0088 -3.29644,-0.0088 z"
         sodipodi:nodetypes="ssssccccccssscs"
         inkscape:label="Карбон" /><path
         id="path36"
         style="display:inline;fill:url(#radialGradient37);fill-opacity:1;stroke:none;stroke-width:0.465;stroke-linecap:square;stroke-opacity:1;paint-order:markers fill stroke"
         d="m 91.361348,67.847021 c -1.946844,0 -3.005194,7.782973 -3.400826,11.819434 -0.55947,5.708045 -1.285709,15.00793 -1.285709,16.878556 0,1.188028 1.731578,3.391603 2.778642,7.299299 0.37936,1.41579 0.648856,2.45989 0.847493,3.28972 0.04817,0.0337 0.102149,0.083 0.147795,0.11059 0.989173,0.5972 2.524202,0.90898 4.209303,0.90898 1.685101,0 3.220126,-0.31178 4.209304,-0.90898 0.04564,-0.0276 0.09959,-0.0769 0.147795,-0.11059 0.19864,-0.82983 0.468121,-1.87393 0.847493,-3.28972 1.047062,-3.907696 2.778642,-6.111271 2.778642,-7.299299 0,-1.870626 -0.72624,-11.170511 -1.28571,-16.878556 -0.39563,-4.036461 -1.453974,-11.819434 -3.400826,-11.819434 -1.333803,0 -2.802404,0.0067 -3.296956,0.0088 -0.494908,-0.0021 -1.962847,-0.0088 -3.29644,-0.0088 z"
         sodipodi:nodetypes="ssssccccccssscs"
         inkscape:label="Градиент к" /><path
         id="path8"
         style="fill:#333333;fill-opacity:1;stroke:none;stroke-width:0.465;stroke-linecap:square;stroke-opacity:1;paint-order:markers fill stroke"
         d="m 93.178809,73.106132 c -1.972338,0.04406 -3.629986,4.793239 -3.801836,17.800464 -0.02339,1.770134 3.904795,1.867585 5.280815,1.867585 1.320659,0 5.304724,-0.09727 5.281331,-1.867585 -0.171852,-13.007225 -1.829497,-17.7564 -3.801835,-17.800464 -0.309375,-0.0069 -0.4684,-0.0066 -1.479037,-0.0066 -1.010638,10e-7 -1.169946,-2.79e-4 -1.479438,0.0066 z"
         sodipodi:nodetypes="sscsscs"
         inkscape:label="Стекло" /><path
         id="path4"
         style="fill:#242d3c;fill-opacity:1;stroke:none;stroke-width:0.465;stroke-linecap:square;stroke-opacity:1;paint-order:markers fill stroke"
         d="m 93.103878,41.142708 -0.404627,6.767029 c 0,0 -1.879353,5.235973 -2.503723,7.988143 -0.474705,2.092469 -0.993299,4.241847 -1.493966,6.391858 h 5.956484 5.956484 c -0.50067,-2.150011 -1.019256,-4.299389 -1.493965,-6.391858 -0.62437,-2.75217 -2.503723,-7.988143 -2.503723,-7.988143 l -0.404627,-6.767029 c 0,1e-6 -1.043226,0.0028 -1.554427,0.0031 -0.511392,-3.05e-4 -1.55391,-0.0031 -1.55391,-0.0031 z"
         sodipodi:nodetypes="ccscccscccc"
         inkscape:label="Нос основы" /><path
         id="path13"
         style="fill:#666666;fill-opacity:1;stroke:none;stroke-width:0.465;stroke-linecap:square;stroke-opacity:1;paint-order:markers fill stroke"
         d="m 94.082629,191.96038 c -0.992415,0.99241 -1.318008,8.28352 -1.4149,12.47262 -0.168152,7.27005 -0.08379,15.32301 -0.06253,22.62239 0.0283,9.71518 0.416225,27.34326 1.422652,28.34969 0.176106,0.17611 0.367765,0.32733 0.63043,0.32728 0.262665,-4e-5 0.454635,-0.15144 0.630475,-0.32728 1.006429,-1.00643 1.393836,-18.63451 1.422136,-28.34969 0.0213,-7.29938 0.105621,-15.35234 -0.06253,-22.62239 -0.09689,-4.1891 -0.422481,-11.48021 -1.4149,-12.47262 -0.234777,-0.2348 -0.428394,-0.29103 -0.575418,-0.29103 -0.147024,0 -0.340643,0.0562 -0.575417,0.29103 z"
         sodipodi:nodetypes="cssscssssccc"
         inkscape:label="Заднее крыло" /><path
         id="path21"
         style="display:inline;fill:url(#radialGradient33);fill-opacity:1;stroke:none;stroke-width:0.465;stroke-linecap:square;stroke-opacity:1;paint-order:markers fill stroke"
         d="m 94.082137,191.96038 c -0.99241,0.99241 -1.31801,8.28352 -1.4149,12.47262 -0.16815,7.27005 -0.0838,15.32301 -0.0625,22.62239 0.0283,9.71518 0.41623,27.34326 1.42265,28.34969 0.17611,0.17611 0.36777,0.32733 0.63043,0.32728 0.26267,-4e-5 0.45464,-0.15144 0.63048,-0.32728 1.00643,-1.00643 1.39384,-18.63451 1.42214,-28.34969 0.0213,-7.29938 0.10562,-15.35234 -0.0625,-22.62239 -0.0969,-4.1891 -0.42249,-11.48021 -1.4149,-12.47262 -0.23478,-0.2348 -0.4284,-0.29103 -0.57542,-0.29103 -0.14703,0 -0.34065,0.0562 -0.57542,0.29103 z"
         sodipodi:nodetypes="cssscssssccc"
         inkscape:label="Градиент заднего крыла" /><path
         id="path35"
         style="fill:#cde5e5;fill-opacity:1;stroke:none;stroke-width:1;stroke-linecap:square;stroke-dasharray:none;stroke-opacity:1;paint-order:markers fill stroke"
         d="m 98.891121,144.92604 -0.950329,26.15241 0.0031,0.002 2.703708,-22.97379 z m -8.465633,0.008 -1.752348,3.17242 2.702678,22.96759 z"
         inkscape:label="Тени" /><path
         id="path11"
         style="fill:#000000;fill-opacity:1;stroke:none;stroke-width:0.465;stroke-linecap:square;stroke-opacity:1;paint-order:markers fill stroke"
         d="m 90.387248,144.22479 c -1.165802,0.0196 -6.966485,0.009 -7.222298,0.008 l -2.000395,3.51916 c 0,0 -0.02086,0.46673 -0.0217,0.48111 l 7.53494,-0.0558 c 0,0 0.581605,-0.56648 0.791683,-0.90899 0.444456,-0.72464 0.613654,-1.46614 0.954981,-2.36419 l -0.01654,-0.45062 c 0,0 -0.01943,-0.21416 -0.02067,-0.22841 z m 8.541597,0 c -0.0013,0.0142 -0.02067,0.22841 -0.02067,0.22841 l -0.01654,0.45062 c 0.34133,0.89805 0.510531,1.63955 0.954981,2.36419 0.210094,0.34251 0.791684,0.90899 0.791684,0.90899 l 7.53494,0.0558 c -8e-4,-0.0144 -0.0217,-0.48111 -0.0217,-0.48111 l -2.0004,-3.51916 c -0.25581,0.001 -6.05648,0.0119 -7.222298,-0.008 z"
         inkscape:label="Отверстия" /></g></g></svg>
