<?xml version="1.0" encoding="UTF-8" standalone="no"?>
<!-- Created with Inkscape (http://www.inkscape.org/) -->

<svg
   width="250mm"
   height="250mm"
   viewBox="0 0 250 250"
   version="1.1"
   id="svg1"
   xml:space="preserve"
   xmlns:xlink="http://www.w3.org/1999/xlink"
   xmlns="http://www.w3.org/2000/svg"
   xmlns:svg="http://www.w3.org/2000/svg"><defs
     id="defs1"><linearGradient
       id="linearGradient36"><stop
         style="stop-color:#898989;stop-opacity:1;"
         offset="0"
         id="stop36" /><stop
         style="stop-color:#5e5e5e;stop-opacity:0.3888889;"
         offset="1"
         id="stop37" /></linearGradient><linearGradient
       id="linearGradient31"><stop
         style="stop-color:#6a6a6a;stop-opacity:1;"
         offset="0"
         id="stop32" /><stop
         style="stop-color:#494949;stop-opacity:0.77572018;"
         offset="1"
         id="stop33" /></linearGradient><linearGradient
       id="linearGradient29"><stop
         style="stop-color:#c8c8c8;stop-opacity:0.4773663;"
         offset="0"
         id="stop30" /><stop
         style="stop-color:#a8a8a8;stop-opacity:0.68312758;"
         offset="1"
         id="stop31" /></linearGradient><linearGradient
       id="linearGradient27"><stop
         style="stop-color:#ffffff;stop-opacity:0.70576131;"
         offset="0"
         id="stop28" /><stop
         style="stop-color:#c7c7c7;stop-opacity:0.21604939;"
         offset="1"
         id="stop29" /></linearGradient><linearGradient
       id="linearGradient25"><stop
         style="stop-color:#ccbfa4;stop-opacity:1;"
         offset="0"
         id="stop26" /><stop
         style="stop-color:#6f5d3b;stop-opacity:0.69999999;"
         offset="1"
         id="stop27" /></linearGradient><linearGradient
       id="linearGradient24"><stop
         style="stop-color:#ffffff;stop-opacity:1;"
         offset="0"
         id="stop24" /><stop
         style="stop-color:#bfbfbf;stop-opacity:1;"
         offset="1"
         id="stop25" /></linearGradient><radialGradient
       xlink:href="#linearGradient24"
       id="radialGradient25"
       cx="94.656685"
       cy="237.29576"
       fx="94.656685"
       fy="237.29576"
       r="79.293343"
       gradientTransform="matrix(0.72271306,0,0,1.2954282,26.247063,-74.377849)"
       gradientUnits="userSpaceOnUse" /><radialGradient
       xlink:href="#linearGradient25"
       id="radialGradient27"
       cx="94.658539"
       cy="199.78265"
       fx="94.658539"
       fy="199.78265"
       r="15.726886"
       gradientTransform="matrix(1,0,0,9.7477832,0,-1734.0172)"
       gradientUnits="userSpaceOnUse" /><radialGradient
       xlink:href="#linearGradient27"
       id="radialGradient29"
       cx="94.65921"
       cy="110.61318"
       fx="94.65921"
       fy="110.61318"
       r="13.834439"
       gradientTransform="matrix(1,0,0,4.8048411,0,-409.45793)"
       gradientUnits="userSpaceOnUse" /><radialGradient
       xlink:href="#linearGradient29"
       id="radialGradient31"
       cx="94.65667"
       cy="108.46114"
       fx="94.65667"
       fy="108.46114"
       r="7.9832354"
       gradientTransform="matrix(0.40343786,-5.823284e-7,4.5725705e-6,3.1678827,56.468112,-230.876)"
       gradientUnits="userSpaceOnUse" /><radialGradient
       xlink:href="#linearGradient31"
       id="radialGradient33"
       cx="94.657578"
       cy="223.70087"
       fx="94.657578"
       fy="223.70087"
       r="2.0928669"
       gradientTransform="matrix(1,0,0,15.305084,0,-3200.0595)"
       gradientUnits="userSpaceOnUse" /><radialGradient
       xlink:href="#linearGradient36"
       id="radialGradient37"
       cx="94.658051"
       cy="88.000313"
       fx="94.658051"
       fy="88.000313"
       r="7.9832335"
       gradientTransform="matrix(0.9171431,0,0,2.9221596,7.8430718,-169.15064)"
       gradientUnits="userSpaceOnUse" /></defs><g
     id="layer1"><g
       id="g2"
       transform="translate(-7.2334375e-4)"><g
         id="g1"
         transform="translate(30.3425,-20.087963)"><path
           id="path10"
           style="fill:#d9c6a5;fill-opacity:1;stroke:none;stroke-width:0.465;stroke-linecap:square;stroke-opacity:1;paint-order:markers fill stroke"
           d="m 94.425244,22.506637 c -0.129495,0.22429 -0.357084,3.278666 -0.522449,8.953458 -0.04475,1.535525 -0.386539,10.048999 -0.386539,10.048999 l 1.142049,-0.03927 1.141532,0.03927 c 0,0 -0.30898,-8.513466 -0.353466,-10.048999 -0.165365,-5.707865 -0.426022,-8.729168 -0.555522,-8.953458 -0.03285,-0.05691 -0.08038,-0.09961 -0.231769,-0.09961 -0.151388,0 -0.200978,0.04269 -0.233836,0.09961 z" /><path
           id="path2"
           style="fill:#c7a973;fill-opacity:1;stroke:none;stroke-width:0.465;stroke-linecap:square;paint-order:markers fill stroke"
           d="m 86.371989,123.81053 -71.007035,121.92899 13.021427,7.85999 53.70835,4.81779 z m 16.572111,0 4.27726,134.60677 53.70835,-4.81779 13.02195,-7.85999 z" /><path
           id="path30"
           style="display:inline;fill:#7d5927;fill-opacity:1;stroke:none;stroke-width:0.765;stroke-linecap:square;paint-order:markers fill stroke"
           d="m 108.64333,136.24005 c -1.91291,-0.0215 -4.21232,1.76512 -4.4142,3.66747 -0.37258,3.51082 6.70495,4.80026 6.54482,8.32714 -0.11638,2.56334 -4.78105,3.08064 -5.28546,5.59656 -0.61297,3.0573 1.34253,6.32794 3.30522,8.75089 1.90776,2.35512 5.82548,2.49144 7.6538,4.90874 1.69662,2.24319 -0.0738,6.83151 2.44946,8.07393 3.52474,1.73554 9.76961,-0.44213 11.0262,-4.16461 0.10416,-0.30855 0.16876,-0.61163 0.20516,-0.91053 l -4.24781,-7.29413 c -1.78414,-1.77043 -3.64232,-3.55596 -4.55166,-5.54798 -0.67372,-1.47588 -1.06509,-3.07069 -1.40715,-4.68447 l -9.52086,-16.34888 c -0.56132,-0.21232 -1.13984,-0.36719 -1.75752,-0.37413 z M 84.196245,153.4669 c -0.874061,0.0199 -1.67385,0.26882 -2.285648,0.84181 -1.293841,1.21178 1.378264,3.73557 0.529166,5.29167 -2.229359,4.08561 -4.899448,6.06238 -9.392708,7.27604 -1.534938,0.4146 -7.22475,-2.14166 -7.805208,-0.66146 -1.297948,3.30983 4.349149,5.86155 7.408333,7.67292 7.120616,4.66415 4.465489,-0.29762 9.657292,-5.15938 0.601654,-0.51766 1.578801,-1.02002 2.685624,-1.53065 l 0.432015,-13.60021 c -0.416274,-0.0759 -0.832751,-0.13978 -1.228866,-0.13074 z m -19.642212,25.55038 c -1.80771,-0.029 -3.651196,0.34161 -5.140771,1.00562 -1.798523,0.80173 -1.621634,3.99441 -3.406511,4.82607 -1.019067,0.47483 -2.42828,-0.91084 -3.361035,-0.28319 -2.137033,1.43803 -0.84828,5.24859 -2.298568,7.37733 -1.372234,2.01415 -3.978822,2.99088 -6.148978,4.28501 l -3.906739,6.70863 c -0.04027,1.51618 0.329146,2.9206 1.508436,3.4184 3.187016,1.34527 5.036139,-4.96401 8.201566,-6.35931 2.548183,-1.12322 5.777793,-2.73497 8.232573,-1.42006 2.141122,1.1469 0.537759,6.36441 2.94814,6.66419 3.37718,0.42002 6.537788,-4.64661 6.291089,-8.04085 -0.258787,-3.56058 -9.023118,-4.05672 -7.749915,-7.3918 1.26332,-3.30913 8.129495,2.17448 10.620541,-0.34365 1.906183,-1.92692 1.953952,-6.08463 0.175183,-8.12974 -1.376083,-1.58212 -3.640811,-2.27939 -5.965011,-2.31665 z m 50.783467,20.6282 c -2.83373,-0.0876 -5.43286,2.98736 -8.28219,3.91294 -0.49413,0.16051 -1.02699,0.23593 -1.56786,0.29094 l 0.25942,8.16229 c 2.7533,1.77039 4.90265,6.3709 8.06721,5.5609 1.70718,-0.43697 2.22586,-2.96681 2.37504,-4.72271 0.17748,-2.08884 -2.73005,-4.11872 -1.83658,-6.01514 0.83736,-1.77728 4.92161,-0.367 5.44257,-2.26136 0.52825,-1.92089 -1.65023,-4.26186 -3.57033,-4.79299 -0.2987,-0.0826 -0.59414,-0.12581 -0.88728,-0.13487 z m -31.600142,3.34605 c -3.450584,-0.0406 -7.412084,2.38501 -8.690425,5.46271 -1.071137,2.57883 2.742089,5.21611 2.493388,7.99745 -0.334179,3.73722 -6.677444,6.53086 -5.2033,9.9813 1.375545,3.21969 6.669573,3.69265 10.086722,2.93005 0.195773,-0.0437 0.399646,-0.14601 0.600481,-0.21032 l 0.287837,-9.04441 c -0.05447,-0.11675 -0.130587,-0.22522 -0.166915,-0.34881 -0.585354,-1.99161 -0.486461,-4.32756 0.375171,-6.21668 L 83.855181,203.006 c -0.04025,-0.001 -0.07743,-0.014 -0.117823,-0.0145 z m 25.909012,15.48329 c -0.46474,-0.009 -0.91686,0.0393 -1.3441,0.15193 -1.37592,0.36257 -1.88254,2.0255 -2.23139,3.59099 l 0.56224,17.68523 c 0.41505,1.92571 0.99663,3.83188 2.33061,5.18211 2.39419,2.42341 6.59626,5.44418 9.525,3.70417 4.16624,-2.47524 4.54642,-10.39178 1.85208,-14.41979 -1.87938,-2.80966 -8.8408,0.59854 -9.78958,-2.64584 -0.92002,-3.14598 7.02632,-4.02424 6.61458,-7.27604 -0.38851,-3.06831 -4.26626,-5.91286 -7.51944,-5.97276 z m 32.91841,2.4815 c -3.80749,-0.0973 -8.10288,3.55056 -8.79327,7.2962 -0.50618,2.74618 3.77559,4.5251 4.11603,7.29671 0.45744,3.72416 -5.15843,7.78671 -2.9931,10.85102 2.02051,2.85936 7.29583,2.21091 10.47688,0.74827 1.90383,-0.87537 3.95796,-2.96711 3.74189,-5.05137 -0.23232,-2.24084 -3.97723,-2.51017 -5.05189,-4.49016 -0.99288,-1.82938 -1.38717,-4.14196 -0.93534,-6.17379 0.5369,-2.4144 4.41094,-3.71857 4.11603,-6.1743 -0.2526,-2.10339 -2.55944,-4.24844 -4.67723,-4.30258 z m 16.34112,4.34237 c -1.20908,0.0188 -2.45821,0.45487 -3.21996,1.21492 -2.60724,2.60141 -1.62451,7.40004 -0.90537,11.01224 0.96387,4.84151 5.10572,8.52324 6.77426,13.16923 0.24793,0.69033 0.39315,1.44591 0.48886,2.2319 l 11.9078,-7.18767 -5.3821,-9.24182 c -2.0557,0.0468 -4.58595,1.4437 -6.03271,0.0894 -2.57746,-2.41272 1.58865,-8.27826 -1.12964,-10.53114 -0.64441,-0.53406 -1.56075,-0.77167 -2.50114,-0.75706 z m -112.927994,8.88422 c -0.2413,-0.007 -0.476434,0.0112 -0.699182,0.0563 -4.76787,0.96575 -3.804553,11.00618 -8.606193,11.78688 -2.869394,0.46654 -4.333963,-4.18565 -7.109127,-5.05137 -2.973053,-0.92744 -7.052392,-2.26254 -10.263973,-1.99161 l -3.934643,6.75618 13.021427,7.85998 35.425745,3.17758 c -1.000347,-0.67712 -1.863933,-1.42305 -2.069641,-2.51922 -0.23712,-1.26359 1.729176,-2.2898 1.497066,-3.55431 -0.66894,-3.64432 -4.115816,-7.0008 -7.67085,-8.04498 -4.063512,-1.19353 -10.053971,6.55396 -12.347567,2.99361 -1.972776,-3.06231 7.398488,-5.02436 6.73499,-8.60619 -0.289774,-1.56429 -2.288957,-2.81619 -3.978052,-2.86287 z"
           transform="translate(-1.3125e-6)" /><path
           id="path37"
           style="display:inline;fill:#3e2004;fill-opacity:1;stroke:none;stroke-width:0.765;stroke-linecap:square;paint-order:markers fill stroke"
           d="m 84.218466,127.50776 -13.308232,22.85235 c 0.317322,1.00474 0.782821,1.84829 1.718242,2.21331 3.991762,1.55765 10.243393,-0.7571 11.973429,-4.67724 1.052108,-2.38401 -3.01119,-4.69896 -2.80603,-7.29671 0.21558,-2.7298 3.884698,-4.38063 4.116028,-7.10913 0.170216,-2.0077 -0.260585,-4.58392 -1.693437,-5.98258 z m 19.980694,33.07757 c -0.0288,0.001 -0.0575,0.007 -0.0863,0.008 l 0.90537,28.4949 c 2.59694,0.16572 4.83116,0.473 4.79092,2.55592 -0.0351,1.81414 -2.255,1.83159 -4.65243,1.80557 l 0.19482,6.12366 c 3.39113,-1.69362 6.84829,-6.0814 10.1012,-4.58784 2.64188,1.21303 1.26338,5.89134 3.08404,8.15765 0.79918,0.99477 1.71655,2.15061 2.71198,3.27783 -1.03989,-0.19465 -2.11347,-0.11503 -2.95537,0.31471 -3.39233,1.73164 -5.42563,6.98763 -4.2447,10.60866 0.86581,2.65479 5.4774,2.17415 7.0993,4.44727 2.17935,3.05435 -0.8171,9.30479 2.54817,10.96419 3.1402,1.54843 7.4664,-1.53887 9.56376,-4.34237 1.25525,-1.67785 2.06206,-4.49652 0.87746,-6.22494 -1.2736,-1.8583 -4.69271,-0.30774 -6.58202,-1.53479 -1.7456,-1.13373 -3.1956,-2.97789 -3.76825,-4.97903 -0.52164,-1.82289 0.98585,-4.00675 1.0759,-5.83634 1.85419,1.33702 3.81755,2.0148 5.73557,1.18391 4.9445,-2.14196 4.9777,-10.98774 2.80758,-15.91996 -1.03004,-2.34102 -6.1117,-1.59056 -6.47144,-4.12274 -0.20345,-1.43212 2.19328,-1.97816 2.86598,-3.25872 1.5412,-2.93388 4.48773,-7.05172 2.42155,-9.64282 -2.56728,-3.21955 -8.78741,2.33053 -12.35066,0.26665 -4.44119,-2.57235 -3.63432,-9.99936 -7.37113,-13.51752 -2.23956,-2.10851 -5.2596,-4.37264 -8.3013,-4.24212 z m -30.549558,14.66009 c -0.888607,-0.0255 -1.698312,0.18576 -2.372465,0.81442 -1.288821,1.20183 -0.530919,3.67137 0.179834,5.28391 0.845513,1.91829 4.370431,2.30558 4.495333,4.39818 0.11706,1.96119 -4.143637,2.68126 -3.692798,4.59352 0.457157,1.93904 3.49096,2.94972 5.430676,2.49546 3.218729,-0.75378 3.967064,-5.30772 6.236829,-7.71116 0.148853,-0.15762 0.339675,-0.28336 0.510046,-0.42478 l 0.255282,-8.03103 c -1.204306,0.1386 -2.497211,0.49016 -3.635437,0.41496 -2.350541,-0.15531 -5.136414,-1.76834 -7.4073,-1.83348 z M 53.613099,199.9328 c -1.898278,-0.0118 -2.274769,3.35979 -6.310209,6.12159 -2.579686,1.61047 -10.450617,2.14965 -11.092863,5.12217 -0.484273,2.24134 0.09172,4.99691 1.651062,6.67814 1.824067,1.96663 5.431059,4.0276 7.644494,2.51251 1.462811,-1.0013 -0.794903,-3.90163 0.280604,-5.31079 2.823798,-3.69977 5.76308,-5.24812 10.388513,-5.76554 1.580087,-0.17675 6.815547,3.21357 7.614005,1.83865 1.785406,-3.07438 -3.408532,-6.45369 -6.157247,-8.70851 -1.978106,-1.77849 -3.155505,-2.48286 -4.018359,-2.48822 z m 96.021011,4.37803 c -0.35069,6e-5 -0.70921,0.0339 -1.0759,0.10438 -3.49564,0.67185 -5.14027,5.80888 -5.12527,9.36842 0.0142,3.35658 4.67206,5.44491 4.90719,8.79327 0.27609,3.9315 -4.15348,7.08857 -4.26227,11.02826 -0.10228,3.7038 0.15545,8.83742 3.42873,10.57352 2.80923,1.48996 7.77296,0.20627 9.16327,-2.65359 1.65992,-3.41432 -4.89843,-6.81732 -4.26538,-10.56059 0.58284,-3.44616 3.43086,-8.26741 6.90553,-7.88996 0.99686,0.10828 1.69915,0.62128 2.23862,1.36787 l -11.7135,-20.1135 c -0.0678,-0.003 -0.13262,-0.0181 -0.20102,-0.0181 z m -84.275992,16.9695 c -2.852005,0.0476 -5.843322,1.27054 -7.020243,3.42563 -2.590971,4.74444 4.721148,9.80284 6.079216,15.03526 1.240161,4.77821 -0.106201,10.15372 1.826245,14.69626 0.35879,0.84341 0.746475,1.75675 1.180806,2.66341 l 10.422103,0.93534 c -1.321825,-2.40307 -5.265804,-4.51246 -4.666898,-7.19491 0.559125,-2.50433 5.243308,-2.20422 6.176367,-4.59455 1.133845,-2.90469 -0.22458,-6.46509 -1.737362,-9.19169 -1.470443,-2.65026 -5.305509,-3.46417 -6.68693,-6.1619 -1.281938,-2.5034 1.25724,-6.71558 -1.012342,-8.37675 -1.188885,-0.87017 -2.849756,-1.26467 -4.560962,-1.2361 z m 96.483512,3.66438 c 1.46379,2.58266 1.5617,7.15871 3.67007,9.41286 1.14785,1.2273 2.54236,2.98951 4.04213,3.83026 z"
           transform="translate(-1.3125e-6)" /><path
           id="path32"
           style="display:inline;fill:#b5803a;fill-opacity:1;stroke:none;stroke-width:0.765;stroke-linecap:square;paint-order:markers fill stroke"
           d="m 72.608323,152.9429 c -1.140421,-0.002 -2.352847,0.21704 -3.511413,0.53072 l -14.043071,24.11377 c 0.136931,0.42583 0.368742,0.79486 0.736389,1.07126 2.8253,2.124 8.67047,1.03441 10.40505,-2.04536 1.608512,-2.85593 -5.418916,-6.66792 -3.379639,-9.23406 2.103056,-2.64638 7.263746,3.13698 10.064502,1.24437 4.01526,-2.71332 6.650401,-10.18785 3.726388,-14.05237 -0.899274,-1.18853 -2.368009,-1.62542 -3.998206,-1.62833 z m 64.064307,39.84873 c -0.29699,0.007 -0.60076,0.068 -0.91106,0.18966 -1.48019,0.58046 1.07606,6.27028 0.66146,7.8052 -1.21366,4.49327 -3.19041,7.16335 -7.27604,9.39271 -1.5561,0.8491 -4.07989,-1.823 -5.29167,-0.52916 -1.83357,1.95774 -0.34398,5.83599 1.32292,7.9375 1.42499,1.7965 4.06112,2.7842 6.35,2.64583 3.03557,-0.18351 4.76344,-7.88118 6.74688,-10.18646 4.86175,-5.19179 9.82354,-2.53668 5.15937,-9.65729 -1.64155,-2.77239 -3.891,-7.67007 -6.76186,-7.59799 z m -64.760905,0.59532 c -4.115257,0.0858 -1.314515,3.40587 -3.644739,8.9364 -1.297661,2.75035 -7.624332,7.46384 -6.555672,10.311 0.80579,2.14681 2.781675,4.15187 5.002795,4.72168 2.598191,0.66653 6.746854,0.44778 7.788155,-2.02417 0.688174,-1.63366 -2.780355,-2.8508 -2.638598,-4.61781 0.372193,-4.63937 2.005682,-7.53179 5.615161,-10.47016 0.940468,-0.76561 4.77525,-0.94163 6.517948,-1.68465 l 0.08423,-2.65772 c -1.805626,-1.80583 -6.287543,-1.89841 -9.095052,-2.22312 -1.312949,-0.21248 -2.312147,-0.30734 -3.074231,-0.29145 z m -18.127576,16.17782 c -5.26031,0.002 -8.78676,7.55478 -12.73514,11.52746 -4.464425,4.49193 -10.779596,8.50376 -12.019421,14.71435 -0.543936,2.72472 -0.214692,7.01934 2.390552,7.98504 2.415222,0.89527 4.74723,-2.28741 6.505546,-4.16977 2.929679,-3.13622 1.928128,-10.82102 6.194454,-11.28717 3.474419,-0.37963 6.325691,4.44003 6.910689,7.88583 0.635433,3.74288 -5.921228,7.14988 -4.259172,10.56318 1.392099,2.85897 6.356529,4.13963 9.164816,2.6479 3.272211,-1.73816 3.527136,-6.87186 3.42253,-10.57559 -0.111269,-3.93964 -4.543123,-7.0945 -4.269507,-11.0262 0.23303,-3.34849 4.889978,-5.43925 4.902026,-8.79584 0.01277,-3.55958 -1.635425,-8.69568 -5.131469,-9.36532 -0.366738,-0.0703 -0.725216,-0.10403 -1.075904,-0.10387 z m 63.710841,11.57862 c -2.3202,-0.0557 -3.47922,3.66708 -3.55482,5.98672 -0.12994,3.98617 4.73252,6.73633 5.42551,10.66394 0.44757,2.53664 -2.29282,5.48178 -0.93535,7.67085 0.5925,0.95547 2.44671,0.27081 3.18069,1.12242 1.28554,1.49156 -0.18788,4.32974 1.12241,5.79964 2.48048,2.78264 7.27795,4.92688 10.66395,3.36776 2.46197,-1.13366 4.12681,-4.94383 3.18068,-7.48379 -1.23643,-3.31925 -9.74941,-1.14126 -9.54153,-4.67723 0.20953,-3.56369 8.40385,-0.4145 10.10274,-3.5543 1.61953,-2.99315 0.81963,-8.91101 -2.43189,-9.91568 -2.32069,-0.71706 -3.00275,4.69842 -5.42603,4.8643 -2.77827,0.19018 -5.06041,-2.6062 -6.92206,-4.67723 -2.3126,-2.57269 -1.40599,-9.0844 -4.8643,-9.1674 z"
           transform="translate(-1.3125e-6)" /><path
           id="path6"
           style="display:none;fill:url(#radialGradient25);fill-opacity:0.587522;stroke:none;stroke-width:0.465;stroke-linecap:square;paint-order:markers fill stroke"
           d="m 86.370371,123.81053 -71.007031,121.92899 13.021421,7.85999 53.70835,4.81779 z m 16.572109,0 4.27726,134.60677 53.70834,-4.81779 13.02195,-7.85999 z" /><path
           id="path3"
           style="fill:#cab282;fill-opacity:1;stroke:none;stroke-width:0.465;stroke-linecap:square;stroke-opacity:1;paint-order:markers fill stroke"
           d="m 93.103878,41.142708 -0.404627,6.767029 c 0,0 -1.879353,5.23597 -2.503723,7.988143 -1.112147,4.902261 -2.468532,10.057402 -3.258199,15.021822 -0.700583,4.404382 -2.454906,14.648299 -3.111438,23.805265 -0.410983,5.732193 -0.875535,12.790793 -1.193209,18.006133 -0.392353,6.44138 -0.631704,12.69134 -0.817004,19.14199 -0.30442,10.59743 -1.883347,41.30259 -0.293005,41.72872 3.643073,0.97616 10.609618,0.23078 13.135115,-0.0853 2.52483,0.31599 9.492722,1.06152 13.136152,0.0853 1.59034,-0.42613 0.0109,-31.13129 -0.29352,-41.72872 -0.1853,-6.45065 -0.42465,-12.70061 -0.81701,-19.14199 -0.31767,-5.21534 -0.78222,-12.27394 -1.19321,-18.006133 -0.65653,-9.156966 -2.41034,-19.400883 -3.11092,-23.805265 -0.78967,-4.96442 -2.14656,-10.119561 -3.258715,-15.021822 -0.62437,-2.752173 -2.503723,-7.988143 -2.503723,-7.988143 l -0.40411,-6.767029 c 0,0 -1.043006,0.0028 -1.554427,0.0031 -0.511246,-3.23e-4 -1.554427,-0.0031 -1.554427,-0.0031 z" /><path
           id="path14"
           style="display:none;fill:url(#radialGradient29);fill-opacity:0.672444;stroke:none;stroke-width:0.465;stroke-linecap:square;stroke-opacity:1;paint-order:markers fill stroke"
           d="m 93.104844,41.142708 -0.40463,6.767029 c 0,0 -1.87935,5.23597 -2.50372,7.988143 -1.11215,4.902261 -2.46853,10.057402 -3.2582,15.021822 -0.70058,4.404382 -2.4549,14.648299 -3.11144,23.805265 -0.41098,5.732193 -0.87553,12.790793 -1.1932,18.006133 -0.39236,6.44138 -0.63171,12.69134 -0.81701,19.14199 -0.30442,10.59743 -1.88335,41.30259 -0.293,41.72872 3.64307,0.97616 10.60961,0.23078 13.13511,-0.0853 2.52483,0.31599 9.492726,1.06152 13.136156,0.0853 1.59034,-0.42613 0.0109,-31.13129 -0.29352,-41.72872 -0.1853,-6.45065 -0.42465,-12.70061 -0.81701,-19.14199 -0.31767,-5.21534 -0.78222,-12.27394 -1.19321,-18.006133 -0.65653,-9.156966 -2.41034,-19.400883 -3.11092,-23.805265 -0.78967,-4.96442 -2.14656,-10.119561 -3.258716,-15.021822 -0.62437,-2.752173 -2.50372,-7.988143 -2.50372,-7.988143 l -0.40411,-6.767029 c 0,0 -1.04301,0.0028 -1.55443,0.0031 -0.51125,-3.23e-4 -1.55443,-0.0031 -1.55443,-0.0031 z" /><path
           id="path5"
           style="fill:#8c8c8c;fill-opacity:1;stroke:none;stroke-width:0.465;stroke-linecap:square;stroke-opacity:1;paint-order:markers fill stroke"
           d="m 91.361348,67.847021 c -1.946846,0 -3.005194,7.782969 -3.400826,11.819434 -0.559471,5.708051 -1.285709,15.007928 -1.285709,16.878556 0,1.188029 1.731577,3.391602 2.778642,7.299299 1.50483,5.61609 1.301982,5.45157 1.658813,8.79171 0.4956,4.63908 0.744432,7.66964 1.310514,13.52372 0.566083,5.8541 1.701531,18.37389 1.799891,18.74098 0.015,0.0561 0.06276,0.0981 0.123506,0.13177 l 5.17e-4,0.11731 c 0,0 0.154955,-0.005 0.311092,-0.0264 0.156462,0.0217 0.311609,0.0264 0.311609,0.0264 l 5.17e-4,-0.11731 c 0.06075,-0.0337 0.108501,-0.0757 0.123506,-0.13177 0.0984,-0.36709 1.233811,-12.88688 1.799891,-18.74098 0.566089,-5.85408 0.814914,-8.88464 1.310514,-13.52372 0.35683,-3.34014 0.153982,-3.17562 1.658813,-8.79171 1.047062,-3.907697 2.778642,-6.11127 2.778642,-7.299299 0,-1.870628 -0.72624,-11.170505 -1.28571,-16.878556 -0.39564,-4.036465 -1.453974,-11.819434 -3.400826,-11.819434 -1.333774,0 -2.801871,0.0067 -3.296439,0.0088 -0.494518,-0.0021 -1.963154,-0.0088 -3.296957,-0.0088 z" /><path
           id="path16"
           style="display:inline;fill:url(#radialGradient31);fill-opacity:0.663778;stroke:none;stroke-width:0.465;stroke-linecap:square;stroke-opacity:1;paint-order:markers fill stroke"
           d="m 91.359989,67.847021 c -1.94684,0 -3.00519,7.782969 -3.40082,11.819434 -0.55948,5.708051 -1.28571,15.007928 -1.28571,16.878556 0,1.188029 1.73157,3.391602 2.77864,7.299299 1.50483,5.61609 1.30198,5.45157 1.65881,8.79171 0.4956,4.63908 0.74443,7.66964 1.31052,13.52372 0.56608,5.8541 1.70153,18.37389 1.79989,18.74098 0.015,0.0561 0.0628,0.0981 0.1235,0.13177 l 5.2e-4,0.11731 c 0,0 0.15495,-0.005 0.31109,-0.0264 0.15646,0.0217 0.31161,0.0264 0.31161,0.0264 l 5.2e-4,-0.11731 c 0.0607,-0.0337 0.1085,-0.0757 0.1235,-0.13177 0.0984,-0.36709 1.23381,-12.88688 1.79989,-18.74098 0.56609,-5.85408 0.81492,-8.88464 1.31052,-13.52372 0.35683,-3.34014 0.15398,-3.17562 1.658815,-8.79171 1.047066,-3.907697 2.778646,-6.11127 2.778646,-7.299299 0,-1.870628 -0.72624,-11.170505 -1.28571,-16.878556 -0.39564,-4.036465 -1.453976,-11.819434 -3.400831,-11.819434 -1.33378,0 -2.80187,0.0067 -3.29644,0.0088 -0.49452,-0.0021 -1.96316,-0.0088 -3.29696,-0.0088 z" /><path
           id="path31"
           style="display:inline;fill:#bfbfbf;fill-opacity:1;fill-rule:evenodd;stroke:#0a100c;stroke-width:1;stroke-linecap:butt;stroke-linejoin:miter;stroke-dasharray:none;stroke-opacity:1"
           d="m 67.815131,243.17687 0.07483,-6.82485 m -12.796859,6.82485 0.07483,-6.82485 m -13.171705,6.82485 0.07483,-6.82485 m 40.902766,-81.52553 -5.80319,-0.0351 m -48.27376,81.8285 48.722341,-82.06553 m 4.044988,44.58984 -30.709369,0.28064 m 28.838483,36.76292 -50.51394,0.28064 m 50.51394,6.46623 -50.51394,0.28064 m -0.380024,10.41264 0.07483,-17.27589 m 92.415778,6.82485 -0.0748,-6.82485 m 12.79686,6.82485 -0.0748,-6.82485 m 13.1717,6.82485 -0.0748,-6.82485 m -40.90276,-81.52553 5.80319,-0.0351 m 48.27376,81.8285 -48.72234,-82.06553 m -4.04499,44.58984 30.70937,0.28064 m -28.83849,36.76292 50.51394,0.28064 m -50.51394,6.46623 50.51394,0.28064 m 0.38003,10.41264 -0.0748,-17.27589" /><path
           id="path9"
           style="fill:#d9c6a5;fill-opacity:1;stroke:none;stroke-width:0.465;stroke-linecap:square;stroke-opacity:1;paint-order:markers fill stroke"
           d="m 86.920276,124.14953 c -0.258369,-0.0125 -0.51969,0.0421 -0.775663,0.17105 -1.251926,0.6305 -1.810122,13.47998 -2.979663,19.91248 l -2.000395,3.51916 c 0,0 -0.756415,12.7217 -1.367359,42.95449 -0.274485,13.58301 -0.959967,27.78315 -0.855245,41.36853 0.04705,6.10385 0.186743,12.21654 0.703834,18.29862 0.481095,5.65872 1.190797,16.82778 2.38125,17.14676 0.924817,0.24781 11.774151,0.25892 12.630753,0.24392 0.855736,0.015 11.706422,0.004 12.631272,-0.24392 1.19046,-0.31898 1.90015,-11.48804 2.38125,-17.14676 0.51709,-6.08208 0.65683,-12.19477 0.70383,-18.29862 0.10472,-13.58538 -0.58075,-27.78552 -0.85524,-41.36853 -0.61094,-30.23279 -1.36736,-42.95449 -1.36736,-42.95449 l -1.99988,-3.51916 c -1.16954,-6.4325 -1.72826,-19.28198 -2.98018,-19.91248 -0.51195,-0.25783 -1.0449,-0.21942 -1.53324,0.0625 -1.04981,0.60609 -2.730065,20.07009 -2.730065,20.07009 l -0.967383,26.6268 -2.752804,-0.0212 v -0.008 l -0.529683,0.004 -0.529684,-0.004 v 0.008 l -2.752803,0.0212 -0.9679,-26.6268 c 0,0 -1.679748,-19.464 -2.729549,-20.07009 -0.244172,-0.14098 -0.499725,-0.22105 -0.758093,-0.23358 z" /><path
           id="path19"
           style="display:inline;fill:url(#radialGradient27);fill-opacity:0.627383;stroke:none;stroke-width:0.465;stroke-linecap:square;stroke-opacity:1;paint-order:markers fill stroke"
           d="m 86.920773,124.14953 c -0.25837,-0.0125 -0.51969,0.0421 -0.77566,0.17105 -1.25193,0.6305 -1.81013,13.47998 -2.97967,19.91248 l -2.00039,3.51916 c 0,0 -0.75642,12.7217 -1.36736,42.95449 -0.27449,13.58301 -0.95997,27.78315 -0.85525,41.36853 0.047,6.10385 0.18675,12.21654 0.70384,18.29862 0.48109,5.65872 1.1908,16.82778 2.38125,17.14676 0.92482,0.24781 11.77415,0.25892 12.63075,0.24392 0.85574,0.015 11.706427,0.004 12.631277,-0.24392 1.19046,-0.31898 1.90015,-11.48804 2.38125,-17.14676 0.51709,-6.08208 0.65683,-12.19477 0.70383,-18.29862 0.10472,-13.58538 -0.58075,-27.78552 -0.85524,-41.36853 -0.61094,-30.23279 -1.36736,-42.95449 -1.36736,-42.95449 l -1.99988,-3.51916 c -1.16954,-6.4325 -1.72826,-19.28198 -2.98018,-19.91248 -0.51195,-0.25783 -1.0449,-0.21942 -1.53324,0.0625 -1.04981,0.60609 -2.730067,20.07009 -2.730067,20.07009 l -0.96738,26.6268 -2.75281,-0.0212 v -0.008 l -0.52968,0.004 -0.52969,-0.004 v 0.008 l -2.7528,0.0212 -0.9679,-26.6268 c 0,0 -1.67975,-19.464 -2.72955,-20.07009 -0.24417,-0.14098 -0.49972,-0.22105 -0.75809,-0.23358 z" /><path
           id="path34"
           style="fill:#4d4d4d;fill-opacity:1;stroke:none;stroke-width:0.465;stroke-linecap:square;stroke-opacity:1;paint-order:markers fill stroke"
           d="m 108.6714,261.55509 c -3.26816,0.0214 -23.948377,0.15781 -27.998288,0.23048 0.367834,3.12773 0.808515,5.58891 1.353923,5.73505 0.924816,0.24781 11.774152,0.25891 12.630753,0.24391 0.855735,0.015 11.706422,0.004 12.631272,-0.24391 0.55914,-0.14982 1.00919,-2.72371 1.38234,-5.96553 z" /><path
           id="path33"
           style="fill:none;fill-rule:evenodd;stroke:#0a100c;stroke-width:1;stroke-linecap:butt;stroke-linejoin:miter;stroke-dasharray:none;stroke-opacity:1"
           d="m 79.862097,188.63914 29.465193,-0.19609 m -30.355325,45.57062 31.376925,1.6e-4" /><path
           id="path7"
           style="fill:#666666;fill-opacity:1;stroke:none;stroke-width:0.465;stroke-linecap:square;stroke-opacity:1;paint-order:markers fill stroke"
           d="m 91.361348,67.847021 c -1.946844,0 -3.005194,7.782973 -3.400826,11.819434 -0.55947,5.708045 -1.285709,15.00793 -1.285709,16.878556 0,1.188028 1.731578,3.391603 2.778642,7.299299 0.37936,1.41579 0.648856,2.45989 0.847493,3.28972 0.04817,0.0337 0.102149,0.083 0.147795,0.11059 0.989173,0.5972 2.524202,0.90898 4.209303,0.90898 1.685101,0 3.220126,-0.31178 4.209304,-0.90898 0.04564,-0.0276 0.09959,-0.0769 0.147795,-0.11059 0.19864,-0.82983 0.468121,-1.87393 0.847493,-3.28972 1.047062,-3.907696 2.778642,-6.111271 2.778642,-7.299299 0,-1.870626 -0.72624,-11.170511 -1.28571,-16.878556 -0.39563,-4.036461 -1.453974,-11.819434 -3.400826,-11.819434 -1.333803,0 -2.802404,0.0067 -3.296956,0.0088 -0.494908,-0.0021 -1.962847,-0.0088 -3.29644,-0.0088 z" /><path
           id="path36"
           style="display:inline;fill:url(#radialGradient37);fill-opacity:1;stroke:none;stroke-width:0.465;stroke-linecap:square;stroke-opacity:1;paint-order:markers fill stroke"
           d="m 91.361348,67.847021 c -1.946844,0 -3.005194,7.782973 -3.400826,11.819434 -0.55947,5.708045 -1.285709,15.00793 -1.285709,16.878556 0,1.188028 1.731578,3.391603 2.778642,7.299299 0.37936,1.41579 0.648856,2.45989 0.847493,3.28972 0.04817,0.0337 0.102149,0.083 0.147795,0.11059 0.989173,0.5972 2.524202,0.90898 4.209303,0.90898 1.685101,0 3.220126,-0.31178 4.209304,-0.90898 0.04564,-0.0276 0.09959,-0.0769 0.147795,-0.11059 0.19864,-0.82983 0.468121,-1.87393 0.847493,-3.28972 1.047062,-3.907696 2.778642,-6.111271 2.778642,-7.299299 0,-1.870626 -0.72624,-11.170511 -1.28571,-16.878556 -0.39563,-4.036461 -1.453974,-11.819434 -3.400826,-11.819434 -1.333803,0 -2.802404,0.0067 -3.296956,0.0088 -0.494908,-0.0021 -1.962847,-0.0088 -3.29644,-0.0088 z" /><path
           id="path8"
           style="fill:#333333;fill-opacity:1;stroke:none;stroke-width:0.465;stroke-linecap:square;stroke-opacity:1;paint-order:markers fill stroke"
           d="m 93.178809,73.106132 c -1.972338,0.04406 -3.629986,4.793239 -3.801836,17.800464 -0.02339,1.770134 3.904795,1.867585 5.280815,1.867585 1.320659,0 5.304724,-0.09727 5.281331,-1.867585 -0.171852,-13.007225 -1.829497,-17.7564 -3.801835,-17.800464 -0.309375,-0.0069 -0.4684,-0.0066 -1.479037,-0.0066 -1.010638,10e-7 -1.169946,-2.79e-4 -1.479438,0.0066 z" /><path
           id="path4"
           style="fill:#3e2004;fill-opacity:1;stroke:none;stroke-width:0.465;stroke-linecap:square;stroke-opacity:1;paint-order:markers fill stroke"
           d="m 93.103878,41.142708 -0.404627,6.767029 c 0,0 -1.879353,5.235973 -2.503723,7.988143 -0.474705,2.092469 -0.993299,4.241847 -1.493966,6.391858 h 5.956484 5.956484 c -0.50067,-2.150011 -1.019256,-4.299389 -1.493965,-6.391858 -0.62437,-2.75217 -2.503723,-7.988143 -2.503723,-7.988143 l -0.404627,-6.767029 c 0,1e-6 -1.043226,0.0028 -1.554427,0.0031 -0.511392,-3.05e-4 -1.55391,-0.0031 -1.55391,-0.0031 z" /><path
           id="path13"
           style="fill:#666666;fill-opacity:1;stroke:none;stroke-width:0.465;stroke-linecap:square;stroke-opacity:1;paint-order:markers fill stroke"
           d="m 94.082629,191.96038 c -0.992415,0.99241 -1.318008,8.28352 -1.4149,12.47262 -0.168152,7.27005 -0.08379,15.32301 -0.06253,22.62239 0.0283,9.71518 0.416225,27.34326 1.422652,28.34969 0.176106,0.17611 0.367765,0.32733 0.63043,0.32728 0.262665,-4e-5 0.454635,-0.15144 0.630475,-0.32728 1.006429,-1.00643 1.393836,-18.63451 1.422136,-28.34969 0.0213,-7.29938 0.105621,-15.35234 -0.06253,-22.62239 -0.09689,-4.1891 -0.422481,-11.48021 -1.4149,-12.47262 -0.234777,-0.2348 -0.428394,-0.29103 -0.575418,-0.29103 -0.147024,0 -0.340643,0.0562 -0.575417,0.29103 z" /><path
           id="path21"
           style="display:inline;fill:url(#radialGradient33);fill-opacity:1;stroke:none;stroke-width:0.465;stroke-linecap:square;stroke-opacity:1;paint-order:markers fill stroke"
           d="m 94.082137,191.96038 c -0.99241,0.99241 -1.31801,8.28352 -1.4149,12.47262 -0.16815,7.27005 -0.0838,15.32301 -0.0625,22.62239 0.0283,9.71518 0.41623,27.34326 1.42265,28.34969 0.17611,0.17611 0.36777,0.32733 0.63043,0.32728 0.26267,-4e-5 0.45464,-0.15144 0.63048,-0.32728 1.00643,-1.00643 1.39384,-18.63451 1.42214,-28.34969 0.0213,-7.29938 0.10562,-15.35234 -0.0625,-22.62239 -0.0969,-4.1891 -0.42249,-11.48021 -1.4149,-12.47262 -0.23478,-0.2348 -0.4284,-0.29103 -0.57542,-0.29103 -0.14703,0 -0.34065,0.0562 -0.57542,0.29103 z" /><path
           id="path35"
           style="fill:#e8dcc9;fill-opacity:1;stroke:none;stroke-width:1;stroke-linecap:square;stroke-dasharray:none;stroke-opacity:1;paint-order:markers fill stroke"
           d="m 98.891121,144.92604 -0.950329,26.15241 0.0031,0.002 2.703708,-22.97379 z m -8.465633,0.008 -1.752348,3.17242 2.702678,22.96759 z" /><path
           id="path11"
           style="fill:#000000;fill-opacity:1;stroke:none;stroke-width:0.465;stroke-linecap:square;stroke-opacity:1;paint-order:markers fill stroke"
           d="m 90.387248,144.22479 c -1.165802,0.0196 -6.966485,0.009 -7.222298,0.008 l -2.000395,3.51916 c 0,0 -0.02086,0.46673 -0.0217,0.48111 l 7.53494,-0.0558 c 0,0 0.581605,-0.56648 0.791683,-0.90899 0.444456,-0.72464 0.613654,-1.46614 0.954981,-2.36419 l -0.01654,-0.45062 c 0,0 -0.01943,-0.21416 -0.02067,-0.22841 z m 8.541597,0 c -0.0013,0.0142 -0.02067,0.22841 -0.02067,0.22841 l -0.01654,0.45062 c 0.34133,0.89805 0.510531,1.63955 0.954981,2.36419 0.210094,0.34251 0.791684,0.90899 0.791684,0.90899 l 7.53494,0.0558 c -8e-4,-0.0144 -0.0217,-0.48111 -0.0217,-0.48111 l -2.0004,-3.51916 c -0.25581,0.001 -6.05648,0.0119 -7.222298,-0.008 z" /></g></g></g></svg>
