<?xml version="1.0" encoding="UTF-8" standalone="no"?>
<!-- Created with Inkscape (http://www.inkscape.org/) -->

<svg
   width="250mm"
   height="250mm"
   viewBox="0 0 250 250"
   version="1.1"
   id="svg1"
   xml:space="preserve"
   inkscape:version="1.3.2 (091e20e, 2023-11-25, custom)"
   sodipodi:docname="harrier_violet.svg"
   xmlns:inkscape="http://www.inkscape.org/namespaces/inkscape"
   xmlns:sodipodi="http://sodipodi.sourceforge.net/DTD/sodipodi-0.dtd"
   xmlns:xlink="http://www.w3.org/1999/xlink"
   xmlns="http://www.w3.org/2000/svg"
   xmlns:svg="http://www.w3.org/2000/svg"><sodipodi:namedview
     id="namedview1"
     pagecolor="#ffffff"
     bordercolor="#000000"
     borderopacity="0.25"
     inkscape:showpageshadow="2"
     inkscape:pageopacity="0.0"
     inkscape:pagecheckerboard="0"
     inkscape:deskcolor="#d1d1d1"
     inkscape:document-units="mm"
     showguides="true"
     inkscape:zoom="0.25"
     inkscape:cx="-162"
     inkscape:cy="-122"
     inkscape:window-width="1600"
     inkscape:window-height="829"
     inkscape:window-x="-8"
     inkscape:window-y="-8"
     inkscape:window-maximized="1"
     inkscape:current-layer="g1" /><defs
     id="defs1"><linearGradient
       id="linearGradient36"
       inkscape:collect="always"><stop
         style="stop-color:#c489ff;stop-opacity:0.61728394;"
         offset="0"
         id="stop36" /><stop
         style="stop-color:#5e00bc;stop-opacity:0.3888889;"
         offset="1"
         id="stop37" /></linearGradient><linearGradient
       id="linearGradient31"
       inkscape:collect="always"><stop
         style="stop-color:#6200c4;stop-opacity:0.85185188;"
         offset="0"
         id="stop32" /><stop
         style="stop-color:#35006a;stop-opacity:0.80041152;"
         offset="1"
         id="stop33" /></linearGradient><linearGradient
       id="linearGradient29"
       inkscape:collect="always"><stop
         style="stop-color:#c891ff;stop-opacity:0.4773663;"
         offset="0"
         id="stop30" /><stop
         style="stop-color:#a851ff;stop-opacity:0.68312758;"
         offset="1"
         id="stop31" /></linearGradient><linearGradient
       id="linearGradient25"
       inkscape:collect="always"><stop
         style="stop-color:#8001ff;stop-opacity:1;"
         offset="0"
         id="stop26" /><stop
         style="stop-color:#5400a8;stop-opacity:1;"
         offset="1"
         id="stop27" /></linearGradient><linearGradient
       id="linearGradient24"
       inkscape:collect="always"><stop
         style="stop-color:#7700ed;stop-opacity:1;"
         offset="0"
         id="stop24" /><stop
         style="stop-color:#7400e7;stop-opacity:1;"
         offset="1"
         id="stop25" /></linearGradient><radialGradient
       inkscape:collect="always"
       xlink:href="#linearGradient24"
       id="radialGradient25"
       cx="94.656685"
       cy="237.29576"
       fx="94.656685"
       fy="237.29576"
       r="79.293343"
       gradientTransform="matrix(0.72271306,0,0,1.2954282,26.249924,-74.377849)"
       gradientUnits="userSpaceOnUse" /><radialGradient
       inkscape:collect="always"
       xlink:href="#linearGradient25"
       id="radialGradient27"
       cx="94.658539"
       cy="199.78265"
       fx="94.658539"
       fy="199.78265"
       r="15.726886"
       gradientTransform="matrix(1,0,0,9.7477832,-8.1563073e-4,-1734.01)"
       gradientUnits="userSpaceOnUse" /><radialGradient
       inkscape:collect="always"
       xlink:href="#linearGradient29"
       id="radialGradient31"
       cx="94.65667"
       cy="108.46114"
       fx="94.65667"
       fy="108.46114"
       r="7.9832354"
       gradientTransform="matrix(0.40343786,-5.823284e-7,4.5725705e-6,3.1678827,56.469835,-230.876)"
       gradientUnits="userSpaceOnUse" /><radialGradient
       inkscape:collect="always"
       xlink:href="#linearGradient31"
       id="radialGradient33"
       cx="94.657578"
       cy="223.70087"
       fx="94.657578"
       fy="223.70087"
       r="2.0928669"
       gradientTransform="matrix(1,0,0,15.305084,7.2437241e-4,-3200.0598)"
       gradientUnits="userSpaceOnUse" /><radialGradient
       inkscape:collect="always"
       xlink:href="#linearGradient36"
       id="radialGradient37"
       cx="94.658051"
       cy="88.000313"
       fx="94.658051"
       fy="88.000313"
       r="7.9832335"
       gradientTransform="matrix(0.9171431,0,0,2.9221596,7.8432141,-169.15064)"
       gradientUnits="userSpaceOnUse" /></defs><g
     inkscape:label="Слой 1"
     inkscape:groupmode="layer"
     id="layer1"><g
       id="g1"
       transform="translate(30.3425,-20.087963)"><path
         id="path10"
         style="fill:#c080ff;fill-opacity:1;stroke:none;stroke-width:0.465;stroke-linecap:square;stroke-opacity:1;paint-order:markers fill stroke"
         d="m 94.425244,22.506637 c -0.129495,0.22429 -0.357084,3.278666 -0.522449,8.953458 -0.04475,1.535525 -0.386539,10.048999 -0.386539,10.048999 l 1.142049,-0.03927 1.141532,0.03927 c 0,0 -0.30898,-8.513466 -0.353466,-10.048999 -0.165365,-5.707865 -0.426022,-8.729168 -0.555522,-8.953458 -0.03285,-0.05691 -0.08038,-0.09961 -0.231769,-0.09961 -0.151388,0 -0.200978,0.04269 -0.233836,0.09961 z"
         sodipodi:nodetypes="sscccsscs"
         inkscape:label="Игла" /><path
         id="path2"
         style="fill:#c080ff;fill-opacity:1;stroke:none;stroke-width:0.465;stroke-linecap:square;paint-order:markers fill stroke"
         d="m 86.371989,123.81053 -71.007035,121.92899 13.021427,7.85999 53.70835,4.81779 z m 16.572111,0 4.27726,134.60677 53.70835,-4.81779 13.02195,-7.85999 z"
         inkscape:label="Крылья" /><path
         id="path6"
         style="fill:url(#radialGradient25);fill-opacity:0.587522;stroke:none;stroke-width:0.465;stroke-linecap:square;paint-order:markers fill stroke"
         d="m 86.373234,123.81053 -71.00703,121.92899 13.02142,7.85999 53.70835,4.81779 z m 16.572116,0 4.27726,134.60677 53.70833,-4.81779 13.02195,-7.85999 z"
         inkscape:label="Градиент крыльев" /><path
         id="path3"
         style="fill:#a54cff;fill-opacity:1;stroke:none;stroke-width:0.465;stroke-linecap:square;stroke-opacity:1;paint-order:markers fill stroke"
         d="m 93.103878,41.142708 -0.404627,6.767029 c 0,0 -1.879353,5.23597 -2.503723,7.988143 -1.112147,4.902261 -2.468532,10.057402 -3.258199,15.021822 -0.700583,4.404382 -2.454906,14.648299 -3.111438,23.805265 -0.410983,5.732193 -0.875535,12.790793 -1.193209,18.006133 -0.392353,6.44138 -0.631704,12.69134 -0.817004,19.14199 -0.30442,10.59743 -1.883347,41.30259 -0.293005,41.72872 3.643073,0.97616 10.609618,0.23078 13.135115,-0.0853 2.52483,0.31599 9.492722,1.06152 13.136152,0.0853 1.59034,-0.42613 0.0109,-31.13129 -0.29352,-41.72872 -0.1853,-6.45065 -0.42465,-12.70061 -0.81701,-19.14199 -0.31767,-5.21534 -0.78222,-12.27394 -1.19321,-18.006133 -0.65653,-9.156966 -2.41034,-19.400883 -3.11092,-23.805265 -0.78967,-4.96442 -2.14656,-10.119561 -3.258715,-15.021822 -0.62437,-2.752173 -2.503723,-7.988143 -2.503723,-7.988143 l -0.40411,-6.767029 c 0,0 -1.043006,0.0028 -1.554427,0.0031 -0.511246,-3.23e-4 -1.554427,-0.0031 -1.554427,-0.0031 z"
         sodipodi:nodetypes="ccsssssscsssssscccc"
         inkscape:label="Нижнаяя основа" /><path
         id="path5"
         style="fill:#c080ff;fill-opacity:1;stroke:none;stroke-width:0.465;stroke-linecap:square;stroke-opacity:1;paint-order:markers fill stroke"
         d="m 91.361348,67.847021 c -1.946846,0 -3.005194,7.782969 -3.400826,11.819434 -0.559471,5.708051 -1.285709,15.007928 -1.285709,16.878556 0,1.188029 1.731577,3.391602 2.778642,7.299299 1.50483,5.61609 1.301982,5.45157 1.658813,8.79171 0.4956,4.63908 0.744432,7.66964 1.310514,13.52372 0.566083,5.8541 1.701531,18.37389 1.799891,18.74098 0.015,0.0561 0.06276,0.0981 0.123506,0.13177 l 5.17e-4,0.11731 c 0,0 0.154955,-0.005 0.311092,-0.0264 0.156462,0.0217 0.311609,0.0264 0.311609,0.0264 l 5.17e-4,-0.11731 c 0.06075,-0.0337 0.108501,-0.0757 0.123506,-0.13177 0.0984,-0.36709 1.233811,-12.88688 1.799891,-18.74098 0.566089,-5.85408 0.814914,-8.88464 1.310514,-13.52372 0.35683,-3.34014 0.153982,-3.17562 1.658813,-8.79171 1.047062,-3.907697 2.778642,-6.11127 2.778642,-7.299299 0,-1.870628 -0.72624,-11.170505 -1.28571,-16.878556 -0.39564,-4.036465 -1.453974,-11.819434 -3.400826,-11.819434 -1.333774,0 -2.801871,0.0067 -3.296439,0.0088 -0.494518,-0.0021 -1.963154,-0.0088 -3.296957,-0.0088 z"
         inkscape:label="Основа панели" /><path
         id="path16"
         style="fill:url(#radialGradient31);fill-opacity:0.663778;stroke:none;stroke-width:0.465;stroke-linecap:square;stroke-opacity:1;paint-order:markers fill stroke"
         d="m 91.361715,67.847021 c -1.94684,0 -3.00519,7.782969 -3.40082,11.819434 -0.55948,5.708051 -1.28571,15.007928 -1.28571,16.878556 0,1.188029 1.73157,3.391602 2.77864,7.299299 1.50483,5.61609 1.30198,5.45157 1.65881,8.79171 0.4956,4.63908 0.74443,7.66964 1.31052,13.52372 0.56608,5.8541 1.70153,18.37389 1.79989,18.74098 0.015,0.0561 0.0628,0.0981 0.1235,0.13177 l 5.2e-4,0.11731 c 0,0 0.15495,-0.005 0.31109,-0.0264 0.15646,0.0217 0.31161,0.0264 0.31161,0.0264 l 5.2e-4,-0.11731 c 0.0607,-0.0337 0.1085,-0.0757 0.1235,-0.13177 0.0984,-0.36709 1.23381,-12.88688 1.79989,-18.74098 0.56609,-5.85408 0.81492,-8.88464 1.31052,-13.52372 0.35683,-3.34014 0.15398,-3.17562 1.65881,-8.79171 1.047065,-3.907697 2.778645,-6.11127 2.778645,-7.299299 0,-1.870628 -0.72624,-11.170505 -1.28571,-16.878556 -0.39564,-4.036465 -1.453975,-11.819434 -3.400825,-11.819434 -1.33378,0 -2.80187,0.0067 -3.29644,0.0088 -0.49452,-0.0021 -1.96316,-0.0088 -3.29696,-0.0088 z"
         inkscape:label="Градиент основы панели" /><path
         id="path31"
         style="display:inline;fill:#bfbfbf;fill-opacity:1;fill-rule:evenodd;stroke:#00244d;stroke-width:1;stroke-linecap:butt;stroke-linejoin:miter;stroke-dasharray:none;stroke-opacity:1"
         d="m 67.815131,243.17687 0.07483,-6.82485 m -12.796859,6.82485 0.07483,-6.82485 m -13.171705,6.82485 0.07483,-6.82485 m 40.902766,-81.52553 -5.80319,-0.0351 m -48.27376,81.8285 48.722341,-82.06553 m 4.044988,44.58984 -30.709369,0.28064 m 28.838483,36.76292 -50.51394,0.28064 m 50.51394,6.46623 -50.51394,0.28064 m -0.380024,10.41264 0.07483,-17.27589 m 92.415778,6.82485 -0.0748,-6.82485 m 12.79686,6.82485 -0.0748,-6.82485 m 13.1717,6.82485 -0.0748,-6.82485 m -40.90276,-81.52553 5.80319,-0.0351 m 48.27376,81.8285 -48.72234,-82.06553 m -4.04499,44.58984 30.70937,0.28064 m -28.83849,36.76292 50.51394,0.28064 m -50.51394,6.46623 50.51394,0.28064 m 0.38003,10.41264 -0.0748,-17.27589"
         inkscape:label="Полосы крыльев" /><path
         id="path9"
         style="fill:#8c1aff;fill-opacity:1;stroke:none;stroke-width:0.465;stroke-linecap:square;stroke-opacity:1;paint-order:markers fill stroke"
         d="m 86.920276,124.14953 c -0.258369,-0.0125 -0.51969,0.0421 -0.775663,0.17105 -1.251926,0.6305 -1.810122,13.47998 -2.979663,19.91248 l -2.000395,3.51916 c 0,0 -0.756415,12.7217 -1.367359,42.95449 -0.274485,13.58301 -0.959967,27.78315 -0.855245,41.36853 0.04705,6.10385 0.186743,12.21654 0.703834,18.29862 0.481095,5.65872 1.190797,16.82778 2.38125,17.14676 0.924817,0.24781 11.774151,0.25892 12.630753,0.24392 0.855736,0.015 11.706422,0.004 12.631272,-0.24392 1.19046,-0.31898 1.90015,-11.48804 2.38125,-17.14676 0.51709,-6.08208 0.65683,-12.19477 0.70383,-18.29862 0.10472,-13.58538 -0.58075,-27.78552 -0.85524,-41.36853 -0.61094,-30.23279 -1.36736,-42.95449 -1.36736,-42.95449 l -1.99988,-3.51916 c -1.16954,-6.4325 -1.72826,-19.28198 -2.98018,-19.91248 -0.51195,-0.25783 -1.0449,-0.21942 -1.53324,0.0625 -1.04981,0.60609 -2.730065,20.07009 -2.730065,20.07009 l -0.967383,26.6268 -2.752804,-0.0212 v -0.008 l -0.529683,0.004 -0.529684,-0.004 v 0.008 l -2.752803,0.0212 -0.9679,-26.6268 c 0,0 -1.679748,-19.464 -2.729549,-20.07009 -0.244172,-0.14098 -0.499725,-0.22105 -0.758093,-0.23358 z"
         sodipodi:nodetypes="ssccsssscsscsccsscccccccccss"
         inkscape:label="Верхняя основа" /><path
         id="path19"
         style="fill:url(#radialGradient27);fill-opacity:0.627383;stroke:none;stroke-width:0.465;stroke-linecap:square;stroke-opacity:1;paint-order:markers fill stroke"
         d="m 86.919955,124.15676 c -0.25837,-0.0125 -0.51969,0.0421 -0.77566,0.17105 -1.25193,0.6305 -1.81013,13.47998 -2.97967,19.91248 l -2.00039,3.51916 c 0,0 -0.75642,12.7217 -1.36736,42.95449 -0.27449,13.58301 -0.95997,27.78315 -0.85525,41.36853 0.047,6.10385 0.18675,12.21654 0.70384,18.29862 0.48109,5.65872 1.1908,16.82778 2.38125,17.14676 0.92482,0.24781 11.77415,0.25892 12.63075,0.24392 0.85574,0.015 11.706425,0.004 12.631275,-0.24392 1.19046,-0.31898 1.90015,-11.48804 2.38125,-17.14676 0.51709,-6.08208 0.65683,-12.19477 0.70383,-18.29862 0.10472,-13.58538 -0.58075,-27.78552 -0.85524,-41.36853 -0.61094,-30.23279 -1.36736,-42.95449 -1.36736,-42.95449 l -1.99988,-3.51916 c -1.16954,-6.4325 -1.72826,-19.28198 -2.98018,-19.91248 -0.51195,-0.25783 -1.0449,-0.21942 -1.53324,0.0625 -1.04981,0.60609 -2.730068,20.07009 -2.730068,20.07009 l -0.96738,26.6268 -2.752807,-0.0212 v -0.008 l -0.52968,0.004 -0.52969,-0.004 v 0.008 l -2.7528,0.0212 -0.9679,-26.6268 c 0,0 -1.67975,-19.464 -2.72955,-20.07009 -0.24417,-0.14098 -0.49972,-0.22105 -0.75809,-0.23358 z"
         sodipodi:nodetypes="ssccsssscsscsccsscccccccccss"
         inkscape:label="Градиент в основы" /><path
         id="path34"
         style="fill:#4d4d4d;fill-opacity:1;stroke:none;stroke-width:0.465;stroke-linecap:square;stroke-opacity:1;paint-order:markers fill stroke"
         inkscape:label="Двигатель"
         d="m 108.6714,261.55509 c -3.26816,0.0214 -23.948377,0.15781 -27.998288,0.23048 0.367834,3.12773 0.808515,5.58891 1.353923,5.73505 0.924816,0.24781 11.774152,0.25891 12.630753,0.24391 0.855735,0.015 11.706422,0.004 12.631272,-0.24391 0.55914,-0.14982 1.00919,-2.72371 1.38234,-5.96553 z" /><path
         id="path33"
         style="fill:none;fill-rule:evenodd;stroke:#001933;stroke-width:1;stroke-linecap:butt;stroke-linejoin:miter;stroke-dasharray:none;stroke-opacity:1"
         d="m 79.862097,188.63914 29.465193,-0.19609 m -30.355325,45.57062 31.376925,1.6e-4"
         inkscape:label="Полосы основы" /><path
         id="path7"
         style="fill:#8c1aff;fill-opacity:1;stroke:none;stroke-width:0.465;stroke-linecap:square;stroke-opacity:1;paint-order:markers fill stroke"
         d="m 91.361348,67.847021 c -1.946844,0 -3.005194,7.782973 -3.400826,11.819434 -0.55947,5.708045 -1.285709,15.00793 -1.285709,16.878556 0,1.188028 1.731578,3.391603 2.778642,7.299299 0.37936,1.41579 0.648856,2.45989 0.847493,3.28972 0.04817,0.0337 0.102149,0.083 0.147795,0.11059 0.989173,0.5972 2.524202,0.90898 4.209303,0.90898 1.685101,0 3.220126,-0.31178 4.209304,-0.90898 0.04564,-0.0276 0.09959,-0.0769 0.147795,-0.11059 0.19864,-0.82983 0.468121,-1.87393 0.847493,-3.28972 1.047062,-3.907696 2.778642,-6.111271 2.778642,-7.299299 0,-1.870626 -0.72624,-11.170511 -1.28571,-16.878556 -0.39563,-4.036461 -1.453974,-11.819434 -3.400826,-11.819434 -1.333803,0 -2.802404,0.0067 -3.296956,0.0088 -0.494908,-0.0021 -1.962847,-0.0088 -3.29644,-0.0088 z"
         sodipodi:nodetypes="ssssccccccssscs"
         inkscape:label="Карбон" /><path
         id="path36"
         style="fill:url(#radialGradient37);fill-opacity:1;stroke:none;stroke-width:0.465;stroke-linecap:square;stroke-opacity:1;paint-order:markers fill stroke"
         d="m 91.361484,67.847021 c -1.94684,0 -3.00519,7.782973 -3.40083,11.819434 -0.55947,5.708045 -1.28571,15.00793 -1.28571,16.878556 0,1.188028 1.73158,3.391603 2.77865,7.299299 0.37936,1.41579 0.64885,2.45989 0.84749,3.28972 0.0482,0.0337 0.10215,0.083 0.14779,0.11059 0.98918,0.5972 2.52421,0.90898 4.20931,0.90898 1.6851,0 3.22012,-0.31178 4.2093,-0.90898 0.0456,-0.0276 0.0996,-0.0769 0.1478,-0.11059 0.19864,-0.82983 0.468122,-1.87393 0.847492,-3.28972 1.047054,-3.907696 2.778634,-6.111271 2.778634,-7.299299 0,-1.870626 -0.72624,-11.170511 -1.28571,-16.878556 -0.39563,-4.036461 -1.453964,-11.819434 -3.400816,-11.819434 -1.33381,0 -2.80241,0.0067 -3.29696,0.0088 -0.49491,-0.0021 -1.96285,-0.0088 -3.29644,-0.0088 z"
         sodipodi:nodetypes="ssssccccccssscs"
         inkscape:label="Градиент к" /><path
         id="path8"
         style="fill:#333333;fill-opacity:1;stroke:none;stroke-width:0.465;stroke-linecap:square;stroke-opacity:1;paint-order:markers fill stroke"
         d="m 93.178809,73.106132 c -1.972338,0.04406 -3.629986,4.793239 -3.801836,17.800464 -0.02339,1.770134 3.904795,1.867585 5.280815,1.867585 1.320659,0 5.304724,-0.09727 5.281331,-1.867585 -0.171852,-13.007225 -1.829497,-17.7564 -3.801835,-17.800464 -0.309375,-0.0069 -0.4684,-0.0066 -1.479037,-0.0066 -1.010638,10e-7 -1.169946,-2.79e-4 -1.479438,0.0066 z"
         sodipodi:nodetypes="sscsscs"
         inkscape:label="Стекло" /><path
         id="path4"
         style="fill:#8c1aff;fill-opacity:1;stroke:none;stroke-width:0.465;stroke-linecap:square;stroke-opacity:1;paint-order:markers fill stroke"
         d="m 93.103878,41.142708 -0.404627,6.767029 c 0,0 -1.879353,5.235973 -2.503723,7.988143 -0.474705,2.092469 -0.993299,4.241847 -1.493966,6.391858 h 5.956484 5.956484 c -0.50067,-2.150011 -1.019256,-4.299389 -1.493965,-6.391858 -0.62437,-2.75217 -2.503723,-7.988143 -2.503723,-7.988143 l -0.404627,-6.767029 c 0,1e-6 -1.043226,0.0028 -1.554427,0.0031 -0.511392,-3.05e-4 -1.55391,-0.0031 -1.55391,-0.0031 z"
         sodipodi:nodetypes="ccscccscccc"
         inkscape:label="Нос основы" /><path
         id="path13"
         style="fill:#c080ff;fill-opacity:1;stroke:none;stroke-width:0.465;stroke-linecap:square;stroke-opacity:1;paint-order:markers fill stroke"
         d="m 94.082629,191.96038 c -0.992415,0.99241 -1.318008,8.28352 -1.4149,12.47262 -0.168152,7.27005 -0.08379,15.32301 -0.06253,22.62239 0.0283,9.71518 0.416225,27.34326 1.422652,28.34969 0.176106,0.17611 0.367765,0.32733 0.63043,0.32728 0.262665,-4e-5 0.454635,-0.15144 0.630475,-0.32728 1.006429,-1.00643 1.393836,-18.63451 1.422136,-28.34969 0.0213,-7.29938 0.105621,-15.35234 -0.06253,-22.62239 -0.09689,-4.1891 -0.422481,-11.48021 -1.4149,-12.47262 -0.234777,-0.2348 -0.428394,-0.29103 -0.575418,-0.29103 -0.147024,0 -0.340643,0.0562 -0.575417,0.29103 z"
         sodipodi:nodetypes="cssscssssccc"
         inkscape:label="Заднее крыло" /><path
         id="path21"
         style="fill:url(#radialGradient33);fill-opacity:1;stroke:none;stroke-width:0.465;stroke-linecap:square;stroke-opacity:1;paint-order:markers fill stroke"
         d="m 94.082864,191.95999 c -0.99241,0.99241 -1.31801,8.28352 -1.4149,12.47262 -0.16815,7.27005 -0.0838,15.32301 -0.0625,22.62239 0.0283,9.71518 0.41623,27.34326 1.42265,28.34969 0.17611,0.17611 0.36777,0.32733 0.63043,0.32728 0.26267,-4e-5 0.45464,-0.15144 0.63048,-0.32728 1.00643,-1.00643 1.39384,-18.63451 1.42214,-28.34969 0.0213,-7.29938 0.10562,-15.35234 -0.0625,-22.62239 -0.0969,-4.1891 -0.42249,-11.48021 -1.4149,-12.47262 -0.23478,-0.2348 -0.4284,-0.29103 -0.57542,-0.29103 -0.14703,0 -0.34065,0.0562 -0.57542,0.29103 z"
         sodipodi:nodetypes="cssscssssccc"
         inkscape:label="Градиент заднего крыла" /><path
         id="path35"
         style="fill:#c080ff;fill-opacity:1;stroke:none;stroke-width:1;stroke-linecap:square;stroke-dasharray:none;stroke-opacity:1;paint-order:markers fill stroke"
         d="m 98.891121,144.92604 -0.950329,26.15241 0.0031,0.002 2.703708,-22.97379 z m -8.465633,0.008 -1.752348,3.17242 2.702678,22.96759 z"
         inkscape:label="Тени" /><path
         id="path11"
         style="fill:#000000;fill-opacity:1;stroke:none;stroke-width:0.465;stroke-linecap:square;stroke-opacity:1;paint-order:markers fill stroke"
         d="m 90.387248,144.22479 c -1.165802,0.0196 -6.966485,0.009 -7.222298,0.008 l -2.000395,3.51916 c 0,0 -0.02086,0.46673 -0.0217,0.48111 l 7.53494,-0.0558 c 0,0 0.581605,-0.56648 0.791683,-0.90899 0.444456,-0.72464 0.613654,-1.46614 0.954981,-2.36419 l -0.01654,-0.45062 c 0,0 -0.01943,-0.21416 -0.02067,-0.22841 z m 8.541597,0 c -0.0013,0.0142 -0.02067,0.22841 -0.02067,0.22841 l -0.01654,0.45062 c 0.34133,0.89805 0.510531,1.63955 0.954981,2.36419 0.210094,0.34251 0.791684,0.90899 0.791684,0.90899 l 7.53494,0.0558 c -8e-4,-0.0144 -0.0217,-0.48111 -0.0217,-0.48111 l -2.0004,-3.51916 c -0.25581,0.001 -6.05648,0.0119 -7.222298,-0.008 z"
         inkscape:label="Отверстия" /></g></g></svg>
