<?xml version="1.0" encoding="UTF-8" standalone="no"?>
<!-- Created with Inkscape (http://www.inkscape.org/) -->

<svg
   version="1.1"
   id="svg1"
   width="500"
   height="500"
   viewBox="0 0 500 500"
   xmlns:xlink="http://www.w3.org/1999/xlink"
   xmlns="http://www.w3.org/2000/svg"
   xmlns:svg="http://www.w3.org/2000/svg">
  <defs
     id="defs1">
    <linearGradient
       id="linearGradient92">
      <stop
         style="stop-color:#9d9d9d;stop-opacity:0.51871657;"
         offset="0"
         id="stop93" />
      <stop
         style="stop-color:#525252;stop-opacity:0.36363637;"
         offset="0.85545725"
         id="stop94" />
    </linearGradient>
    <linearGradient
       id="linearGradient91">
      <stop
         style="stop-color:#969696;stop-opacity:0.36330938;"
         offset="0.00294985"
         id="stop91" />
      <stop
         style="stop-color:#ffffff;stop-opacity:0.31016043;"
         offset="1"
         id="stop92" />
    </linearGradient>
    <linearGradient
       id="linearGradient25">
      <stop
         style="stop-color:#f1f1f1;stop-opacity:1;"
         offset="0"
         id="stop26" />
      <stop
         style="stop-color:#c2c2c2;stop-opacity:0;"
         offset="1"
         id="stop27" />
    </linearGradient>
    <linearGradient
       id="linearGradient23">
      <stop
         style="stop-color:#ececec;stop-opacity:1;"
         offset="0"
         id="stop24" />
      <stop
         style="stop-color:#afafaf;stop-opacity:0;"
         offset="0.99705017"
         id="stop25" />
    </linearGradient>
    <radialGradient
       xlink:href="#linearGradient25"
       id="radialGradient27"
       cx="249.66577"
       cy="130.79979"
       fx="249.66577"
       fy="130.79979"
       r="29.180593"
       gradientTransform="matrix(0.67285466,0,0,2.4589225,82.06377,-190.61697)"
       gradientUnits="userSpaceOnUse" />
    <radialGradient
       xlink:href="#linearGradient23"
       id="radialGradient77"
       gradientUnits="userSpaceOnUse"
       gradientTransform="matrix(0.8390374,0,0,7.702767,40.380723,-2241.2949)"
       cx="250.84804"
       cy="325.06595"
       fx="250.84804"
       fy="325.06595"
       r="34.324615" />
    <radialGradient
       xlink:href="#linearGradient91"
       id="radialGradient92"
       cx="250.87207"
       cy="195.69559"
       fx="250.87207"
       fy="195.69559"
       r="248.18294"
       gradientTransform="matrix(2.1125331,0,0,0.22924928,-279.20244,142.81416)"
       gradientUnits="userSpaceOnUse" />
    <radialGradient
       xlink:href="#linearGradient92"
       id="radialGradient94"
       cx="250.84804"
       cy="432.01468"
       fx="250.84804"
       fy="432.01468"
       r="6.2756262"
       gradientTransform="matrix(1.0796682,0,0,52.02108,-19.984618,-22041.855)"
       gradientUnits="userSpaceOnUse" />
  </defs>
  <g
     id="g1">
    <g
       id="g2"
       transform="translate(-0.76073601,-44.987774)">
      <path
         id="path5"
         style="fill:#dddddd;fill-opacity:1;stroke-width:8.31496;paint-order:markers fill stroke"
         d="m 250.81386,99.49609 -1.47461,0.004 -3.25,5.10352 4.71679,0.01 h 0.084 l 4.71679,-0.01 -3.25,-5.10352 -1.4746,-0.004 z" />
      <path
         id="path10"
         style="fill:#808080;fill-opacity:1;stroke-width:8.31496;paint-order:markers fill stroke"
         d="m 244.86074,103 c 0,0 -17.38318,0.14271 -26.11524,0.36328 -14.71226,0.37163 -37.376,0.0381 -31.2871,6.12695 0.12123,0.12124 31.11914,-0.0742 31.11914,-0.0742 l 25.98632,-0.0586 1.08399,2.07617 5.20117,-0.0469 5.19922,0.0469 1.08594,-2.07617 25.98632,0.0586 c 0,0 30.99595,0.19545 31.11719,0.0742 6.0889,-6.08889 -16.57484,-5.75532 -31.28711,-6.12695 C 274.21853,103.14271 256.83535,103 256.83535,103 l -0.38477,1.47656 -5.60156,0.0488 -5.60156,-0.0488 z" />
      <path
         id="path11"
         style="fill:#dddddd;fill-opacity:1;stroke-width:8.31496;paint-order:markers fill stroke"
         d="m 246.90078,111.23828 c -7.0075,0.0598 -21.15983,0.69536 -22.26563,4.82227 -3.60562,13.45634 -3.02734,33.88867 -3.02734,33.88867 l 29.14648,0.13281 29.14649,-0.13281 c 0,0 0.57828,-20.43233 -3.02735,-33.88867 -1.46559,-5.46969 -25.80253,-4.80695 -26.00921,-4.80389 -0.20668,0.003 -1.68331,-0.0378 -3.96344,-0.0184 z" />
      <path
         id="path16"
         style="fill:url(#radialGradient27);stroke-width:8.31496;paint-order:markers fill stroke"
         d="m 246.99453,111.23828 c -7.0075,0.0598 -21.15983,0.69536 -22.26563,4.82227 -3.60562,13.45634 -3.02734,33.88867 -3.02734,33.88867 l 29.14648,0.13281 29.14649,-0.13281 c 0,0 0.57828,-20.43233 -3.02735,-33.88867 -1.46559,-5.46969 -25.80253,-4.80695 -26.00921,-4.80389 -0.20668,0.003 -1.68331,-0.0378 -3.96344,-0.0184 z" />
      <path
         id="path17"
         style="fill:#a4a4a4;fill-opacity:1;stroke-width:8.31496;paint-order:markers fill stroke"
         d="m 237.52148,394.95117 c 0,0 -63.97406,15.98406 -68.92382,21.26953 -6.77843,7.23816 -13.70749,32.25345 -8.83789,37.12305 5.44032,5.44032 88.61313,0.20242 91.12695,0.043 2.50799,0.15908 85.68839,5.39755 91.1289,-0.043 4.8696,-4.8696 -2.05946,-29.88489 -8.83789,-37.12305 -4.94976,-5.28547 -68.92382,-21.26953 -68.92382,-21.26953 l -13.36622,-0.26562 z" />
      <path
         id="path64"
         style="fill:#bcbcbc;fill-opacity:1;stroke-width:7.29317;paint-order:markers fill stroke"
         d="m 147.06157,179.8094 c -52.08618,-0.0637 -104.37349,-0.0118 -105.171427,0.44883 -11.46694,6.62044 -10.731304,62.82935 -2.842059,76.49393 2.915991,5.05064 420.735106,5.05075 423.651156,0 7.88926,-13.66458 8.62487,-69.87349 -2.84205,-76.49393 -1.59343,-0.91996 -208.18584,-0.20777 -208.82335,-0.20557 0,0 -0.31937,1e-5 -0.32036,0 -0.31826,-8.8e-4 -51.72619,-0.17974 -103.65191,-0.24326 z" />
      <path
         id="path65"
         style="fill:#dddddd;fill-opacity:1;stroke-width:7.29317;paint-order:markers fill stroke"
         d="m 225.2789,180.30349 v 6.13637 H 47.575964 v -6.07641 c -3.219218,0.0584 -5.541211,0.12379 -5.685821,0.20728 -11.466913,6.62043 -10.731295,62.82937 -2.842059,76.49393 0.25752,0.44603 3.492413,0.83375 8.52788,1.18034 V 253.02 H 221.40041 v 7.76897 c 16.44629,0.0326 29.39773,0.0343 29.45355,0.0343 h 0.0634 c 0.0558,-10e-6 13.00726,-0.002 29.45355,-0.0343 V 253.02 h 173.82445 v 5.225 c 5.03547,-0.34659 8.27035,-0.73431 8.52787,-1.18034 7.88924,-13.66456 8.62486,-69.8735 -2.84205,-76.49393 -0.14462,-0.0835 -2.4666,-0.14887 -5.68582,-0.20728 v 6.07641 H 276.49242 v -6.13637 c -5.56699,0.0173 -25.44514,0.0601 -25.60249,0.06 l -0.003,0.002 -0.004,-0.002 c -0.15736,1.7e-4 -20.03875,-0.0427 -25.60419,-0.06 z" />
      <path
         id="path74"
         style="fill:#dddddd;fill-opacity:1;stroke-width:8.31496;paint-order:markers fill stroke"
         d="m 250.88672,394.68555 -13.36524,0.26562 c 0,0 -63.97407,15.98407 -68.92382,21.26953 -6.77843,7.23816 -13.70749,32.25345 -8.83789,37.12305 0.664,0.664 2.50142,1.16651 5.19335,1.54102 l -0.0645,-3.86719 76.00195,-1.29297 0.0723,4.22656 c 4.34227,-0.24482 9.4947,-0.53724 9.92383,-0.56445 0.42828,0.0272 5.58136,0.31952 9.92578,0.56445 l 0.0723,-4.22656 76.00195,1.29297 -0.0664,3.86719 c 2.69326,-0.37455 4.53112,-0.87682 5.19531,-1.54102 4.8696,-4.8696 -2.05946,-29.88489 -8.83789,-37.12305 -4.94975,-5.28546 -68.92382,-21.26953 -68.92382,-21.26953 z" />
      <path
         id="path76"
         style="fill:#dddddd;fill-opacity:1;stroke-width:8.31496;paint-order:markers fill stroke"
         d="m 223.85195,208.56445 c -9.62542,9.62542 -7.13149,19.37115 -6.7832,30.11133 0.39667,12.23225 4.49371,44.08718 5.83984,55.03711 4.21823,34.31273 1.8017,13.86152 5.62305,43.59375 2.06352,16.05541 6.11601,41.70326 8.99414,57.63281 7.72578,42.75981 7.02734,39.10488 7.90234,58.70508 0.0479,1.07348 2.30616,34.53859 3.23242,35.46485 0.70562,0.7056 1.45716,0.84909 2.18731,0.85896 0.73016,0.01 1.48336,-0.13124 2.18964,-0.83751 0.92626,-0.92626 3.18255,-34.39332 3.23047,-35.4668 0.875,-19.6002 0.17657,-15.94331 7.90235,-58.70312 2.87812,-15.92956 6.93061,-41.57741 8.99414,-57.63281 3.82134,-29.73223 1.40676,-9.28298 5.625,-43.59571 1.34613,-10.94993 5.44121,-42.80486 5.83789,-55.03711 0.34829,-10.74018 2.84222,-20.4859 -6.7832,-30.11132 -11.97779,-11.97779 -24.54611,-11.60533 -29.1189,-11.4789 -4.5728,0.12643 -15.09386,1.67994 -24.87329,11.45936 z" />
      <path
         id="path77"
         style="fill:url(#radialGradient77);fill-opacity:1;stroke-width:8.31496;paint-order:markers fill stroke"
         d="m 223.85552,208.44313 c -9.62542,9.62542 -7.13149,19.37115 -6.7832,30.11133 0.39667,12.23225 4.49371,44.08718 5.83984,55.03711 4.21823,34.31273 1.8017,13.86152 5.62305,43.59375 2.06352,16.05541 6.11601,41.70326 8.99414,57.63281 7.72578,42.75981 7.02734,39.10488 7.90234,58.70508 0.0479,1.07348 2.30616,34.53859 3.23242,35.46485 0.70562,0.7056 1.45716,0.84909 2.18731,0.85896 0.73016,0.01 1.48336,-0.13124 2.18964,-0.83751 0.92626,-0.92626 3.18255,-34.39332 3.23047,-35.4668 0.875,-19.6002 0.17657,-15.94331 7.90235,-58.70312 2.87812,-15.92956 6.93061,-41.57741 8.99414,-57.63281 3.82134,-29.73223 1.40676,-9.28298 5.625,-43.59571 1.34613,-10.94993 5.44121,-42.80486 5.83789,-55.03711 0.34829,-10.74018 2.84222,-20.4859 -6.7832,-30.11132 -11.97779,-11.97779 -24.54611,-11.60533 -29.1189,-11.4789 -4.5728,0.12643 -15.09386,1.67994 -24.87329,11.45936 z" />
      <path
         id="path78"
         style="fill:#808080;fill-opacity:1;stroke-width:8.31496;paint-order:markers fill stroke"
         d="m 249.2123,374.32809 c -2.21965,3.84455 -3.81218,19.63314 -4.18945,29.65039 -0.44134,11.71846 -0.57014,22.14085 -0.33399,33.86523 0.27483,13.64473 1.24617,35.82557 3.41992,49.29883 0.49082,3.04217 2.58597,3.382 2.74024,3.33266 0.15501,0.0496 2.24756,-0.29107 2.73828,-3.33266 2.17376,-13.47326 3.14509,-35.6541 3.41992,-49.29883 0.23615,-11.72438 0.10736,-22.14677 -0.33398,-33.86523 -0.37727,-10.01725 -1.96786,-25.80584 -4.1875,-29.65039 -0.38057,-0.65917 -1.29567,-0.79013 -1.88551,-0.77735 -0.58983,0.0128 -1.18156,0.4199 -1.38793,0.77735 z" />
      <path
         style="fill:#5e5e5e;fill-opacity:1;stroke-width:8.31496;paint-order:markers fill stroke"
         d="m 224.91486,165.56196 7.96837,-9.76516 -0.0139,5.05025 -7.55936,8.19324 -16.35486,2.48093 1.37718,-3.72465 z"
         id="path81" />
      <path
         style="fill:#5e5e5e;fill-opacity:1;stroke-width:8.31496;paint-order:markers fill stroke"
         d="m 276.86056,165.56196 -7.96837,-9.76516 0.0139,5.05025 7.55936,8.19324 16.35486,2.48093 -1.37718,-3.72465 z"
         id="path82" />
      <path
         style="fill:#5e5e5e;fill-opacity:1;stroke-width:8.31496;paint-order:markers fill stroke"
         d="m 276.86056,205.75606 -7.96837,9.76516 0.0139,-5.05025 7.55936,-8.19324 16.35486,-2.48093 -1.37718,3.72465 z"
         id="path83" />
      <path
         style="fill:#5e5e5e;fill-opacity:1;stroke-width:8.31496;paint-order:markers fill stroke"
         d="m 224.91486,205.75606 7.96837,9.76516 -0.0139,-5.05025 -7.55936,-8.19324 -16.35486,-2.48093 1.37718,3.72465 z"
         id="path84" />
      <path
         id="path85"
         style="fill:#a4a4a4;fill-opacity:1;stroke-width:8.30598;paint-order:markers fill stroke"
         d="m 132.5541,141.75376 c -59.319461,-0.0725 -118.867986,-0.0135 -119.776734,0.51117 -13.05936976,7.53983 -12.2215756,71.55455 -3.2367401,87.11675 3.3209391,5.75203 479.1631741,5.75215 482.4841841,0 8.98485,-15.5622 9.82262,-79.57692 -3.23673,-87.11675 -1.81471,-1.04772 -237.09691,-0.23662 -237.82294,-0.23413 0,0 -0.36372,1e-5 -0.36484,0 -0.36246,-0.001 -58.90949,-0.2047 -118.0462,-0.27704 z" />
      <path
         id="path86"
         style="fill:#dddddd;fill-opacity:1;stroke-width:8.33194;paint-order:markers fill stroke"
         d="m 221.50678,141.86328 v 7.01039 H 18.493366 v -6.94189 c -3.677732,0.0667 -6.330456,0.14143 -6.495662,0.23681 -13.1001493,7.56337 -12.25975463,71.77825 -3.2468527,87.38907 0.2941993,0.50956 3.9898447,0.9525 9.7425147,1.34845 v -5.9692 H 217.07587 v 8.87551 c 18.78874,0.0373 33.5849,0.0392 33.64867,0.0392 h 0.0724 c 0.0637,-1e-5 14.85992,-0.002 33.64866,-0.0392 v -8.87551 h 198.58251 v 5.9692 c 5.75267,-0.39595 9.44831,-0.83889 9.74251,-1.34845 9.0129,-15.61082 9.8533,-79.8257 -3.24685,-87.38907 -0.16522,-0.0954 -2.81793,-0.17007 -6.49566,-0.23681 v 6.94189 h -203.0134 v -7.01039 c -6.35989,0.0197 -29.06932,0.0686 -29.24908,0.0685 l -0.004,0.002 -0.004,-0.002 c -0.17976,1.9e-4 -22.8929,-0.0488 -29.25102,-0.0685 z" />
      <path
         style="fill:#808080;fill-opacity:1;stroke-width:8.31496;paint-order:markers fill stroke"
         d="m 224.91486,165.56196 7.96837,-9.76516 -0.0139,5.05025 -7.55936,8.19324 -16.35486,2.48093 1.37718,-3.72465 z"
         id="path87" />
      <path
         style="fill:#808080;fill-opacity:1;stroke-width:8.31496;paint-order:markers fill stroke"
         d="m 276.86056,165.56196 -7.96837,-9.76516 0.0139,5.05025 7.55936,8.19324 16.35486,2.48093 -1.37718,-3.72465 z"
         id="path88" />
      <path
         style="fill:#808080;fill-opacity:1;stroke-width:8.31496;paint-order:markers fill stroke"
         d="m 276.86056,205.75606 -7.96837,9.76516 0.0139,-5.05025 7.55936,-8.19324 16.35486,-2.48093 -1.37718,3.72465 z"
         id="path89" />
      <path
         style="fill:#808080;fill-opacity:1;stroke-width:8.31496;paint-order:markers fill stroke"
         d="m 224.91486,205.75606 7.96837,9.76516 -0.0139,-5.05025 -7.55936,-8.19324 -16.35486,-2.48093 1.37718,3.72465 z"
         id="path90" />
      <path
         id="path91"
         style="fill:url(#radialGradient92);stroke-width:8.3316;paint-order:markers fill stroke"
         d="m 132.17978,141.57706 c -59.502446,-0.0728 -119.234664,-0.0135 -120.146215,0.51275 -13.0996543,7.56309 -12.25927573,71.77527 -3.2467243,87.38548 3.3311843,5.76978 480.6412793,5.7699 483.9725293,0 9.01257,-15.61021 9.85292,-79.82239 -3.2467,-87.38548 -1.82033,-1.05095 -237.8283,-0.23736 -238.55658,-0.23485 0,0 -0.36484,1e-5 -0.36596,0 -0.36358,-0.001 -59.09121,-0.20533 -118.41035,-0.2779 z" />
      <path
         id="path92"
         style="fill:url(#radialGradient94);stroke-width:8.31496;paint-order:markers fill stroke"
         d="m 249.2123,374.32809 c -2.21965,3.84455 -3.81218,19.63314 -4.18945,29.65039 -0.44134,11.71846 -0.57014,22.14085 -0.33399,33.86523 0.27483,13.64473 1.24617,35.82557 3.41992,49.29883 0.49082,3.04217 2.58597,3.382 2.74024,3.33266 0.15501,0.0496 2.24756,-0.29107 2.73828,-3.33266 2.17376,-13.47326 3.14509,-35.6541 3.41992,-49.29883 0.23615,-11.72438 0.10736,-22.14677 -0.33398,-33.86523 -0.37727,-10.01725 -1.96786,-25.80584 -4.1875,-29.65039 -0.38057,-0.65917 -1.29567,-0.79013 -1.88551,-0.77735 -0.58983,0.0128 -1.18156,0.4199 -1.38793,0.77735 z" />
      <rect
         style="fill:#dddddd;fill-opacity:1;stroke-width:8.19701;paint-order:markers fill stroke"
         id="rect95"
         width="67.234375"
         height="0.26953125"
         x="217.14062"
         y="241.49219" />
    </g>
  </g>
</svg>
