<?xml version="1.0" encoding="UTF-8" standalone="no"?>
<!-- Created with Inkscape (http://www.inkscape.org/) -->

<svg
   version="1.1"
   id="svg1"
   width="500"
   height="500"
   viewBox="0 0 500 500"
   sodipodi:docname="trickster.svg"
   inkscape:version="1.3.2 (091e20e, 2023-11-25, custom)"
   xmlns:inkscape="http://www.inkscape.org/namespaces/inkscape"
   xmlns:sodipodi="http://sodipodi.sourceforge.net/DTD/sodipodi-0.dtd"
   xmlns="http://www.w3.org/2000/svg"
   xmlns:svg="http://www.w3.org/2000/svg">
  <defs
     id="defs1">
    <inkscape:path-effect
       effect="bspline"
       id="path-effect729"
       is_visible="true"
       lpeversion="1"
       weight="33.333333"
       steps="2"
       helper_size="0"
       apply_no_weight="true"
       apply_with_weight="true"
       only_selected="false"
       uniform="false" />
    <inkscape:path-effect
       effect="bspline"
       id="path-effect1385"
       is_visible="true"
       lpeversion="1"
       weight="33.333333"
       steps="2"
       helper_size="0"
       apply_no_weight="true"
       apply_with_weight="true"
       only_selected="false"
       uniform="false" />
    <inkscape:path-effect
       effect="bspline"
       id="path-effect312"
       is_visible="true"
       lpeversion="1"
       weight="33.333333"
       steps="2"
       helper_size="0"
       apply_no_weight="true"
       apply_with_weight="true"
       only_selected="false"
       uniform="false" />
    <inkscape:path-effect
       effect="bspline"
       id="path-effect50"
       is_visible="true"
       lpeversion="1"
       weight="33.333333"
       steps="2"
       helper_size="0"
       apply_no_weight="true"
       apply_with_weight="true"
       only_selected="false"
       uniform="false" />
    <inkscape:path-effect
       effect="bspline"
       id="path-effect52"
       is_visible="true"
       lpeversion="1"
       weight="33.333333"
       steps="2"
       helper_size="0"
       apply_no_weight="true"
       apply_with_weight="true"
       only_selected="false"
       uniform="false" />
    <inkscape:path-effect
       effect="bspline"
       id="path-effect54"
       is_visible="true"
       lpeversion="1"
       weight="33.333333"
       steps="2"
       helper_size="0"
       apply_no_weight="true"
       apply_with_weight="true"
       only_selected="false"
       uniform="false" />
  </defs>
  <sodipodi:namedview
     id="namedview1"
     pagecolor="#ffffff"
     bordercolor="#000000"
     borderopacity="0.25"
     inkscape:showpageshadow="2"
     inkscape:pageopacity="0.0"
     inkscape:pagecheckerboard="true"
     inkscape:deskcolor="#d1d1d1"
     showguides="true"
     inkscape:zoom="1.4142136"
     inkscape:cx="132.22896"
     inkscape:cy="272.58966"
     inkscape:window-width="3440"
     inkscape:window-height="1417"
     inkscape:window-x="-8"
     inkscape:window-y="-8"
     inkscape:window-maximized="1"
     inkscape:current-layer="svg1" />
  <path
     id="path5"
     style="fill:#000000;fill-opacity:1;stroke-width:8.31496;paint-order:markers fill stroke;opacity:0.5"
     inkscape:label="тень"
     d="M 250.81363 99.49559 L 249.33902 99.499496 L 246.16519 104.48387 L 245.24722 104.47606 L 244.8605 102.9995 C 244.8605 102.9995 227.47731 103.14221 218.74527 103.36278 C 204.03303 103.73441 181.36926 103.4009 187.45816 109.48973 C 187.57939 109.61097 218.5773 109.41551 218.5773 109.41551 L 244.56363 109.35692 L 245.55972 111.26317 C 238.24415 111.39085 225.67826 112.16989 224.63589 116.06004 C 222.41802 124.33722 221.84093 134.78521 221.68081 141.96239 C 202.49227 141.9017 177.20277 141.80802 132.55386 141.7534 C 73.234517 141.6809 13.685262 141.74045 12.776516 142.26512 C 12.773802 142.26669 12.771416 142.26941 12.768704 142.27098 C 12.766789 142.27188 12.696052 142.27203 12.694485 142.27293 C -0.40514378 149.83602 0.43585834 214.04948 9.4483912 229.65965 C 9.8882719 230.42155 18.983892 231.07553 33.770657 231.63622 C 34.60366 242.46424 36.372243 252.1169 39.048001 256.75145 C 40.355498 259.0161 125.6364 260.20908 218.97183 260.44286 C 220.36544 273.28855 222.10334 287.1562 222.90933 293.71239 C 227.12754 328.02504 224.71103 307.57397 228.53238 337.30614 C 230.59588 353.36151 234.64839 379.00944 237.52652 394.93895 C 237.52744 394.94406 237.52755 394.94556 237.52847 394.95067 L 237.52066 394.95067 C 237.52066 394.95067 173.54657 410.93473 168.59683 416.2202 C 161.81842 423.45834 154.88934 448.47365 159.75894 453.34325 C 159.92614 453.51045 160.16872 453.66865 160.47964 453.8159 C 160.77006 453.95443 161.13412 454.0807 161.54214 454.20262 C 161.56315 454.20886 161.57552 454.21596 161.59683 454.22215 C 162.02605 454.34776 162.52252 454.46315 163.06948 454.57176 C 163.08046 454.57393 163.08776 454.57741 163.09878 454.57957 C 177.97157 457.51187 231.60581 454.52261 245.2023 453.71043 C 245.24247 454.6068 245.27466 455.47644 245.31948 456.38622 C 245.31962 456.38887 245.31935 456.39138 245.31948 456.39403 C 245.42793 458.59427 245.54961 460.82696 245.68667 463.05809 C 245.68683 463.0607 245.68651 463.0633 245.68667 463.0659 C 245.82377 465.29703 245.97601 467.52539 246.1437 469.7202 C 246.1439 469.72276 246.14351 469.72545 246.1437 469.72801 C 246.31143 471.92267 246.49616 474.08413 246.69644 476.17528 C 246.69668 476.17779 246.6962 476.18057 246.69644 476.18309 C 246.89674 478.2739 247.11395 480.29617 247.34878 482.21629 C 247.34908 482.21875 247.34848 482.22165 247.34878 482.22411 C 247.58363 484.14368 247.83721 485.96031 248.10855 487.64207 C 248.10893 487.64445 248.10816 487.64751 248.10855 487.64989 C 248.59937 490.69204 250.69451 491.03321 250.84878 490.98387 C 251.00379 491.03347 253.09634 490.69146 253.58706 487.64989 C 253.58745 487.64751 253.58668 487.64445 253.58706 487.64207 C 254.94566 479.22131 255.83536 467.39988 256.37808 456.38622 C 256.42296 455.47512 256.457 454.60416 256.49722 453.70653 C 269.97942 454.5126 323.77512 457.51576 338.67495 454.57957 C 338.68665 454.57728 338.69456 454.57406 338.7062 454.57176 C 339.25321 454.4631 339.74969 454.34782 340.17886 454.22215 C 340.24837 454.20196 340.29028 454.17835 340.35659 454.1577 C 340.70881 454.04722 341.0437 453.93574 341.30191 453.812 C 341.60969 453.66565 341.84875 453.5093 342.0148 453.34325 C 342.92785 452.4302 343.42679 450.80952 343.58902 448.72997 C 344.29199 439.71853 338.68437 422.10119 333.17691 416.2202 C 328.22716 410.93474 264.25308 394.95067 264.25308 394.95067 L 264.173 394.94872 C 267.051 379.01842 271.10211 353.37951 273.16519 337.32762 C 276.98651 307.59545 274.57195 328.04457 278.79019 293.73192 C 279.59659 287.17232 281.33433 273.29397 282.72769 260.44286 C 376.08226 260.20942 461.39064 259.01654 462.69839 256.75145 C 465.37119 252.12202 467.13945 242.48455 467.97378 231.67137 C 483.36339 231.10281 492.9714 230.43847 493.42105 229.65965 C 502.4336 214.04948 503.27455 149.83602 490.17495 142.27293 C 489.71795 142.00909 474.43749 141.86361 451.88784 141.79247 C 398.02874 141.61238 315.65501 141.84335 279.923 141.95262 C 279.76251 134.77531 279.18476 124.33336 276.96792 116.06004 C 275.92525 112.16873 263.40419 111.39641 256.13394 111.26707 L 257.13394 109.35692 L 283.12027 109.41551 C 283.12027 109.41551 314.11621 109.61098 314.23745 109.48973 C 320.32635 103.40086 297.66259 103.73441 282.95034 103.36278 C 274.21831 103.14221 256.83511 102.9995 256.83511 102.9995 L 256.45034 104.47606 L 255.53042 104.48387 L 252.35659 99.499496 L 250.88198 99.49559 L 250.81363 99.49559 z "
     transform="translate(-1.4347193,-45.241684)" />
  <g
     inkscape:groupmode="layer"
     inkscape:label="Image"
     id="g1" />
</svg>
