<?xml version="1.0" encoding="UTF-8" standalone="no"?>
<!-- Created with Inkscape (http://www.inkscape.org/) -->

<svg
   version="1.1"
   id="svg1"
   width="500"
   height="500"
   viewBox="0 0 500 500"
   sodipodi:docname="trickster_violet.svg"
   inkscape:version="1.3.2 (091e20e, 2023-11-25, custom)"
   xmlns:inkscape="http://www.inkscape.org/namespaces/inkscape"
   xmlns:sodipodi="http://sodipodi.sourceforge.net/DTD/sodipodi-0.dtd"
   xmlns:xlink="http://www.w3.org/1999/xlink"
   xmlns="http://www.w3.org/2000/svg"
   xmlns:svg="http://www.w3.org/2000/svg">
  <defs
     id="defs1">
    <linearGradient
       id="linearGradient1"
       inkscape:collect="always">
      <stop
         style="stop-color:#ec42ff;stop-opacity:1;"
         offset="0"
         id="stop1" />
      <stop
         style="stop-color:#f000e5;stop-opacity:0.79000002;"
         offset="1"
         id="stop2" />
    </linearGradient>
    <linearGradient
       id="linearGradient92"
       inkscape:collect="always">
      <stop
         style="stop-color:#f762ff;stop-opacity:0.60082304;"
         offset="0"
         id="stop93" />
      <stop
         style="stop-color:#c000cd;stop-opacity:0.65843624;"
         offset="0.85545725"
         id="stop94" />
    </linearGradient>
    <linearGradient
       id="linearGradient91"
       inkscape:collect="always">
      <stop
         style="stop-color:#e702ff;stop-opacity:1;"
         offset="0.00294985"
         id="stop91" />
      <stop
         style="stop-color:#f200e7;stop-opacity:0.79012346;"
         offset="1"
         id="stop92" />
    </linearGradient>
    <linearGradient
       id="linearGradient25"
       inkscape:collect="always">
      <stop
         style="stop-color:#ff6bf9;stop-opacity:1;"
         offset="0"
         id="stop26" />
      <stop
         style="stop-color:#e500da;stop-opacity:0;"
         offset="1"
         id="stop27" />
    </linearGradient>
    <linearGradient
       id="linearGradient23"
       inkscape:collect="always">
      <stop
         style="stop-color:#ff5efb;stop-opacity:1;"
         offset="0"
         id="stop24" />
      <stop
         style="stop-color:#e500da;stop-opacity:0;"
         offset="0.99705017"
         id="stop25" />
    </linearGradient>
    <radialGradient
       inkscape:collect="always"
       xlink:href="#linearGradient25"
       id="radialGradient27"
       cx="250.58821"
       cy="130.79979"
       fx="250.58821"
       fy="130.79979"
       r="29.180593"
       gradientTransform="matrix(1.0840869,0,0,2.4589225,-20.717749,-190.61697)"
       gradientUnits="userSpaceOnUse" />
    <radialGradient
       inkscape:collect="always"
       xlink:href="#linearGradient23"
       id="radialGradient77"
       gradientUnits="userSpaceOnUse"
       gradientTransform="matrix(1.4879558,0,0,7.702767,-122.43234,-2241.2949)"
       cx="250.84804"
       cy="325.06595"
       fx="250.84804"
       fy="325.06595"
       r="34.324615" />
    <radialGradient
       inkscape:collect="always"
       xlink:href="#linearGradient92"
       id="radialGradient94"
       cx="250.84804"
       cy="432.01468"
       fx="250.84804"
       fy="432.01468"
       r="6.2756262"
       gradientTransform="matrix(1.0796682,0,0,52.02108,-19.988333,-22041.347)"
       gradientUnits="userSpaceOnUse" />
    <inkscape:path-effect
       effect="bspline"
       id="path-effect729"
       is_visible="true"
       lpeversion="1"
       weight="33.333333"
       steps="2"
       helper_size="0"
       apply_no_weight="true"
       apply_with_weight="true"
       only_selected="false"
       uniform="false" />
    <inkscape:path-effect
       effect="bspline"
       id="path-effect1385"
       is_visible="true"
       lpeversion="1"
       weight="33.333333"
       steps="2"
       helper_size="0"
       apply_no_weight="true"
       apply_with_weight="true"
       only_selected="false"
       uniform="false" />
    <inkscape:path-effect
       effect="bspline"
       id="path-effect312"
       is_visible="true"
       lpeversion="1"
       weight="33.333333"
       steps="2"
       helper_size="0"
       apply_no_weight="true"
       apply_with_weight="true"
       only_selected="false"
       uniform="false" />
    <inkscape:path-effect
       effect="bspline"
       id="path-effect50"
       is_visible="true"
       lpeversion="1"
       weight="33.333333"
       steps="2"
       helper_size="0"
       apply_no_weight="true"
       apply_with_weight="true"
       only_selected="false"
       uniform="false" />
    <inkscape:path-effect
       effect="bspline"
       id="path-effect52"
       is_visible="true"
       lpeversion="1"
       weight="33.333333"
       steps="2"
       helper_size="0"
       apply_no_weight="true"
       apply_with_weight="true"
       only_selected="false"
       uniform="false" />
    <inkscape:path-effect
       effect="bspline"
       id="path-effect54"
       is_visible="true"
       lpeversion="1"
       weight="33.333333"
       steps="2"
       helper_size="0"
       apply_no_weight="true"
       apply_with_weight="true"
       only_selected="false"
       uniform="false" />
    <radialGradient
       inkscape:collect="always"
       xlink:href="#linearGradient91"
       id="radialGradient32"
       gradientUnits="userSpaceOnUse"
       gradientTransform="matrix(2.1125331,0,0,0.3033268,-279.95504,128.50105)"
       cx="250.87207"
       cy="195.69559"
       fx="250.87207"
       fy="195.69559"
       r="248.18294" />
    <radialGradient
       inkscape:collect="always"
       xlink:href="#linearGradient1"
       id="radialGradient2"
       cx="250.88381"
       cy="424.78516"
       fx="250.88381"
       fy="424.78516"
       r="92.761357"
       gradientTransform="matrix(1,0,0,0.32448436,0,286.94902)"
       gradientUnits="userSpaceOnUse" />
  </defs>
  <sodipodi:namedview
     id="namedview1"
     pagecolor="#ffffff"
     bordercolor="#000000"
     borderopacity="0.25"
     inkscape:showpageshadow="2"
     inkscape:pageopacity="0.0"
     inkscape:pagecheckerboard="0"
     inkscape:deskcolor="#d1d1d1"
     showguides="true"
     inkscape:zoom="1"
     inkscape:cx="149.5"
     inkscape:cy="293.5"
     inkscape:window-width="1600"
     inkscape:window-height="829"
     inkscape:window-x="-8"
     inkscape:window-y="-8"
     inkscape:window-maximized="1"
     inkscape:current-layer="g1" />
  <g
     inkscape:groupmode="layer"
     inkscape:label="Image"
     id="g1">
    <path
       id="path5"
       style="fill:#e480ff;fill-opacity:1;stroke-width:8.31496;paint-order:markers fill stroke"
       d="m 250.81386,99.49609 -1.47461,0.004 -3.25,5.10352 4.71679,0.01 h 0.084 l 4.71679,-0.01 -3.25,-5.10352 -1.4746,-0.004 z"
       inkscape:label="Винт" />
    <path
       id="path10"
       style="fill:#666666;fill-opacity:1;stroke-width:8.31496;paint-order:markers fill stroke"
       d="m 244.86074,103 c 0,0 -17.38318,0.14271 -26.11524,0.36328 -14.71226,0.37163 -37.376,0.0381 -31.2871,6.12695 0.12123,0.12124 31.11914,-0.0742 31.11914,-0.0742 l 25.98632,-0.0586 1.08399,2.07617 5.20117,-0.0469 5.19922,0.0469 1.08594,-2.07617 25.98632,0.0586 c 0,0 30.99595,0.19545 31.11719,0.0742 6.0889,-6.08889 -16.57484,-5.75532 -31.28711,-6.12695 C 274.21853,103.14271 256.83535,103 256.83535,103 l -0.38477,1.47656 -5.60156,0.0488 -5.60156,-0.0488 z"
       inkscape:label="Пропеллер" />
    <path
       id="path11"
       style="fill:#e480ff;fill-opacity:1;stroke-width:8.31496;paint-order:markers fill stroke"
       d="m 246.90078,111.23828 c -7.0075,0.0598 -21.15983,0.69536 -22.26563,4.82227 -3.60562,13.45634 -3.02734,33.88867 -3.02734,33.88867 l 29.14648,0.13281 29.14649,-0.13281 c 0,0 0.57828,-20.43233 -3.02735,-33.88867 -1.46559,-5.46969 -25.80253,-4.80695 -26.00921,-4.80389 -0.20668,0.003 -1.68331,-0.0378 -3.96344,-0.0184 z"
       sodipodi:nodetypes="sscccscs"
       inkscape:label="Двигатель" />
    <path
       id="path16"
       style="fill:url(#radialGradient27);stroke-width:8.31496;paint-order:markers fill stroke"
       d="m 246.88362,111.23828 c -7.0075,0.0598 -21.15983,0.69536 -22.26563,4.82227 -3.60562,13.45634 -3.02734,33.88867 -3.02734,33.88867 l 29.14648,0.13281 29.14649,-0.13281 c 0,0 0.57828,-20.43233 -3.02735,-33.88867 -1.46559,-5.46969 -25.80253,-4.80695 -26.00921,-4.80389 -0.20668,0.003 -1.68331,-0.0378 -3.96344,-0.0184 z"
       sodipodi:nodetypes="sscccscs"
       inkscape:label="Градиент двигателя" />
    <path
       id="path17"
       style="fill:#666666;fill-opacity:1;stroke-width:8.31496;paint-order:markers fill stroke"
       d="m 237.52148,394.95117 c 0,0 -63.97406,15.98406 -68.92382,21.26953 -6.77843,7.23816 -13.70749,32.25345 -8.83789,37.12305 5.44032,5.44032 88.61313,0.20242 91.12695,0.043 2.50799,0.15908 85.68839,5.39755 91.1289,-0.043 4.8696,-4.8696 -2.05946,-29.88489 -8.83789,-37.12305 -4.94976,-5.28547 -68.92382,-21.26953 -68.92382,-21.26953 l -13.36622,-0.26562 z"
       sodipodi:nodetypes="csscssccc"
       inkscape:label="Задние закрылки" />
    <path
       id="path64"
       style="fill:#d533ff;fill-opacity:1;stroke-width:7.29317;paint-order:markers fill stroke"
       d="m 147.06157,179.8094 c -52.08618,-0.0637 -104.37349,-0.0118 -105.171427,0.44883 -11.46694,6.62044 -10.731304,62.82935 -2.842059,76.49393 2.915991,5.05064 420.735106,5.05075 423.651156,0 7.88926,-13.66458 8.62487,-69.87349 -2.84205,-76.49393 -1.59343,-0.91996 -208.18584,-0.20777 -208.82335,-0.20557 0,0 -0.31937,1e-5 -0.32036,0 -0.31826,-8.8e-4 -51.72619,-0.17974 -103.65191,-0.24326 z"
       sodipodi:nodetypes="scsssccs"
       inkscape:label="Нижнее крыло" />
    <path
       id="path74"
       style="fill:#df66ff;fill-opacity:1;stroke-width:8.31496;paint-order:markers fill stroke"
       d="m 250.88672,394.68555 -13.36524,0.26562 c 0,0 -63.97407,15.98407 -68.92382,21.26953 -6.77843,7.23816 -13.70749,32.25345 -8.83789,37.12305 0.664,0.664 2.50142,1.16651 5.19335,1.54102 l -0.0645,-3.86719 76.00195,-1.29297 0.0723,4.22656 c 4.34227,-0.24482 9.4947,-0.53724 9.92383,-0.56445 0.42828,0.0272 5.58136,0.31952 9.92578,0.56445 l 0.0723,-4.22656 76.00195,1.29297 -0.0664,3.86719 c 2.69326,-0.37455 4.53112,-0.87682 5.19531,-1.54102 4.8696,-4.8696 -2.05946,-29.88489 -8.83789,-37.12305 -4.94975,-5.28546 -68.92382,-21.26953 -68.92382,-21.26953 z"
       inkscape:label="Заднее крыло" />
    <path
       id="path1"
       style="fill:url(#radialGradient2);fill-opacity:1;stroke-width:8.315;stroke-dasharray:none;paint-order:markers fill stroke"
       d="m 250.88283,394.68555 -13.36524,0.26562 c 0,0 -63.97407,15.98407 -68.92382,21.26953 -6.77843,7.23816 -13.70749,32.25345 -8.83789,37.12305 0.664,0.664 2.50142,1.16651 5.19335,1.54102 l -0.0645,-3.86719 76.00195,-1.29297 0.0723,4.22656 c 4.34227,-0.24482 9.4947,-0.53724 9.92383,-0.56445 0.42828,0.0272 5.58136,0.31952 9.92578,0.56445 l 0.0723,-4.22656 76.00195,1.29297 -0.0664,3.86719 c 2.69326,-0.37455 4.53112,-0.87682 5.19531,-1.54102 4.8696,-4.8696 -2.05946,-29.88489 -8.83789,-37.12305 -4.94975,-5.28546 -68.92382,-21.26953 -68.92382,-21.26953 z"
       inkscape:label="Градиент заднего крыла" />
    <path
       id="path76"
       style="fill:#e480ff;fill-opacity:1;stroke-width:8.31496;paint-order:markers fill stroke"
       d="m 223.85195,208.56445 c -9.62542,9.62542 -7.13149,19.37115 -6.7832,30.11133 0.39667,12.23225 4.49371,44.08718 5.83984,55.03711 4.21823,34.31273 1.8017,13.86152 5.62305,43.59375 2.06352,16.05541 6.11601,41.70326 8.99414,57.63281 7.72578,42.75981 7.02734,39.10488 7.90234,58.70508 0.0479,1.07348 2.30616,34.53859 3.23242,35.46485 0.70562,0.7056 1.45716,0.84909 2.18731,0.85896 0.73016,0.01 1.48336,-0.13124 2.18964,-0.83751 0.92626,-0.92626 3.18255,-34.39332 3.23047,-35.4668 0.875,-19.6002 0.17657,-15.94331 7.90235,-58.70312 2.87812,-15.92956 6.93061,-41.57741 8.99414,-57.63281 3.82134,-29.73223 1.40676,-9.28298 5.625,-43.59571 1.34613,-10.94993 5.44121,-42.80486 5.83789,-55.03711 0.34829,-10.74018 2.84222,-20.4859 -6.7832,-30.11132 -11.97779,-11.97779 -24.54611,-11.60533 -29.1189,-11.4789 -4.5728,0.12643 -15.09386,1.67994 -24.87329,11.45936 z"
       sodipodi:nodetypes="ssssssscssssssscss"
       inkscape:label="Основа" />
    <path
       id="path77"
       style="fill:url(#radialGradient77);fill-opacity:1;stroke-width:8.31496;paint-order:markers fill stroke"
       d="m 223.82237,208.44313 c -9.62542,9.62542 -7.13149,19.37115 -6.7832,30.11133 0.39667,12.23225 4.49371,44.08718 5.83984,55.03711 4.21823,34.31273 1.8017,13.86152 5.62305,43.59375 2.06352,16.05541 6.11601,41.70326 8.99414,57.63281 7.72578,42.75981 7.02734,39.10488 7.90234,58.70508 0.0479,1.07348 2.30616,34.53859 3.23242,35.46485 0.70562,0.7056 1.45716,0.84909 2.18731,0.85896 0.73016,0.01 1.48336,-0.13124 2.18964,-0.83751 0.92626,-0.92626 3.18255,-34.39332 3.23047,-35.4668 0.875,-19.6002 0.17657,-15.94331 7.90235,-58.70312 2.87812,-15.92956 6.93061,-41.57741 8.99414,-57.63281 3.82134,-29.73223 1.40676,-9.28298 5.625,-43.59571 1.34613,-10.94993 5.44121,-42.80486 5.83789,-55.03711 0.34829,-10.74018 2.84222,-20.4859 -6.7832,-30.11132 -11.97779,-11.97779 -24.54611,-11.60533 -29.1189,-11.4789 -4.5728,0.12643 -15.09386,1.67994 -24.87329,11.45936 z"
       sodipodi:nodetypes="ssssssscssssssscss"
       inkscape:label="Градиент основы" />
    <path
       id="path78"
       style="fill:#a200cc;fill-opacity:1;stroke-width:8.31496;paint-order:markers fill stroke"
       d="m 249.2123,374.82809 c -2.21965,3.84455 -3.81218,19.63314 -4.18945,29.65039 -0.44134,11.71846 -0.57014,22.14085 -0.33399,33.86523 0.27483,13.64473 1.24617,35.82557 3.41992,49.29883 0.49082,3.04217 2.58597,3.382 2.74024,3.33266 0.15501,0.0496 2.24756,-0.29107 2.73828,-3.33266 2.17376,-13.47326 3.14509,-35.6541 3.41992,-49.29883 0.23615,-11.72438 0.10736,-22.14677 -0.33398,-33.86523 -0.37727,-10.01725 -1.96786,-25.80584 -4.1875,-29.65039 -0.38057,-0.65917 -1.29567,-0.79013 -1.88551,-0.77735 -0.58983,0.0128 -1.18156,0.4199 -1.38793,0.77735 z"
       sodipodi:nodetypes="sssscsssscs"
       inkscape:label="ЗВ крыло" />
    <path
       id="path92"
       style="fill:url(#radialGradient94);stroke-width:8.31496;paint-order:markers fill stroke"
       d="m 249.20858,374.83591 c -2.21965,3.84455 -3.81218,19.63314 -4.18945,29.65039 -0.44134,11.71846 -0.57014,22.14085 -0.33399,33.86523 0.27484,13.64473 1.24617,35.82557 3.41992,49.29883 0.49082,3.04217 2.58597,3.382 2.74024,3.33266 0.15501,0.0496 2.24756,-0.29107 2.73828,-3.33266 2.17376,-13.47326 3.14509,-35.6541 3.41993,-49.29883 0.23615,-11.72438 0.10736,-22.14677 -0.33398,-33.86523 -0.37728,-10.01725 -1.96786,-25.80584 -4.1875,-29.65039 -0.38057,-0.65917 -1.29567,-0.79013 -1.88552,-0.77735 -0.58983,0.0128 -1.18155,0.4199 -1.38793,0.77735 z"
       sodipodi:nodetypes="sssscsssscs"
       inkscape:label="Градиент зв крыла " />
    <path
       id="path26"
       style="fill:#7a0099;fill-opacity:1;stroke-width:4.01725;paint-order:markers fill stroke"
       inkscape:label="Рельеф"
       d="m 301.21075,184.89997 c -0.0541,0.007 -0.075,0.36739 -0.048,0.4184 2.30776,4.35138 2.85089,24.88997 2.87388,34.85183 0.0342,14.84466 -0.93506,33.21411 -1.93764,34.81925 -0.0172,0.0273 -0.0453,0.0442 -0.0703,0.0806 -0.0245,0.0354 -0.0469,0.10204 -0.0686,0.19033 -0.0498,0.20249 -0.0708,0.84285 0.30349,0.84022 0.7473,-0.0936 2.95536,-0.64822 3.25627,-1.13001 1.00257,-1.60515 1.97359,-19.9763 1.93935,-34.82096 -0.0232,-10.07096 -0.55965,-31.03671 -2.95104,-34.99586 -0.11318,-0.18722 -2.21064,-0.23562 -3.29742,-0.25379 z m 36.64716,0 c -0.0541,0.007 -0.075,0.36739 -0.048,0.4184 2.30777,4.35138 2.85088,24.88997 2.87389,34.85183 0.0342,14.84466 -0.93507,33.21411 -1.93764,34.81925 -0.0172,0.0273 -0.0453,0.0442 -0.0703,0.0806 -0.0245,0.0354 -0.0469,0.10204 -0.0686,0.19033 -0.0498,0.20249 -0.0708,0.84285 0.30351,0.84022 0.74728,-0.0936 2.95536,-0.64822 3.25626,-1.13001 1.00257,-1.60515 1.97361,-19.9763 1.93937,-34.82096 -0.0232,-10.07096 -0.55967,-31.03671 -2.95105,-34.99586 -0.11316,-0.18722 -2.21063,-0.23562 -3.29742,-0.25379 z m 36.65742,0 c -0.0541,0.007 -0.075,0.36739 -0.048,0.4184 2.30775,4.35138 2.8526,24.88997 2.87559,34.85183 0.0342,14.84466 -0.93678,33.21411 -1.93936,34.81925 -0.0172,0.0273 -0.0453,0.0442 -0.0703,0.0806 -0.0245,0.0354 -0.0469,0.10204 -0.0686,0.19033 -0.0498,0.20249 -0.0708,0.84285 0.3035,0.84022 0.74728,-0.0936 2.95535,-0.64822 3.25627,-1.13001 1.00258,-1.60515 1.97359,-19.9763 1.93935,-34.82096 -0.0233,-10.07096 -0.55966,-31.03671 -2.95104,-34.99586 -0.11317,-0.18722 -2.21063,-0.23562 -3.29743,-0.25379 z m 36.64715,0 c -0.0541,0.007 -0.075,0.36739 -0.048,0.4184 2.30776,4.35138 2.8526,24.88997 2.87561,34.85183 0.0342,14.84466 -0.93678,33.21411 -1.93935,34.81925 -0.0172,0.0273 -0.0453,0.0442 -0.0703,0.0806 -0.0245,0.0354 -0.0468,0.10204 -0.0686,0.19033 -0.0498,0.20249 -0.0708,0.84285 0.3035,0.84022 0.74728,-0.0936 2.95535,-0.64822 3.25627,-1.13001 1.00256,-1.60515 1.97359,-19.9763 1.93936,-34.82096 -0.0233,-10.07096 -0.55967,-31.03671 -2.95106,-34.99586 -0.11316,-0.18722 -2.21061,-0.23562 -3.29742,-0.25379 z m 36.65401,0 c -0.0541,0.007 -0.075,0.36739 -0.048,0.4184 2.30778,4.35138 2.85261,24.88997 2.87561,34.85183 0.0342,14.84466 -0.93678,33.21411 -1.93935,34.81925 -0.0171,0.0273 -0.0453,0.0442 -0.0703,0.0806 -0.0245,0.0354 -0.0468,0.10204 -0.0686,0.19033 -0.0498,0.20249 -0.0708,0.84285 0.3035,0.84022 0.74729,-0.0936 2.95536,-0.64822 3.25628,-1.13001 1.00256,-1.60515 1.97359,-19.9763 1.93935,-34.82096 -0.0232,-10.07096 -0.55966,-31.03671 -2.95105,-34.99586 -0.11316,-0.18722 -2.21061,-0.23562 -3.29742,-0.25379 z m -393.943143,0.004 c -1.086796,0.0182 -3.184252,0.0665 -3.29742,0.25377 -2.391384,3.95917 -2.927792,24.92492 -2.951045,34.99587 -0.03428,14.84465 0.936785,33.21583 1.939355,34.82097 0.300918,0.48179 2.50898,1.03643 3.256267,1.13001 0.374282,0.003 0.353363,-0.63773 0.303508,-0.84021 -0.02173,-0.0883 -0.04407,-0.15492 -0.06859,-0.19034 -0.02511,-0.0364 -0.0532,-0.0533 -0.07031,-0.0806 -1.002571,-1.60514 -1.97363,-19.97459 -1.939356,-34.81925 0.023,-9.96185 0.567834,-30.50044 2.875598,-34.85183 0.02699,-0.051 0.0058,-0.41144 -0.04802,-0.41839 z m 36.65401,0 c -1.086797,0.0182 -3.184252,0.0665 -3.297421,0.25377 -2.391384,3.95917 -2.927792,24.92492 -2.951045,34.99587 -0.03428,14.84465 0.936785,33.21583 1.939356,34.82097 0.300917,0.48179 2.508979,1.03643 3.256266,1.13001 0.374279,0.003 0.353364,-0.63773 0.303508,-0.84021 -0.02173,-0.0883 -0.04408,-0.15492 -0.06859,-0.19034 -0.02511,-0.0364 -0.0532,-0.0533 -0.07031,-0.0806 -1.002571,-1.60514 -1.97363,-19.97459 -1.939356,-34.81925 0.023,-9.96185 0.567835,-30.50044 2.875602,-34.85183 0.027,-0.051 0.006,-0.41144 -0.048,-0.41839 z m 36.647153,0 c -1.0868,0.0182 -3.18425,0.0665 -3.29743,0.25377 -2.39138,3.95917 -2.92778,24.92492 -2.95104,34.99587 -0.0342,14.84465 0.93679,33.21583 1.93936,34.82097 0.30092,0.48179 2.50898,1.03643 3.25626,1.13001 0.37429,0.003 0.35336,-0.63773 0.3035,-0.84021 -0.0217,-0.0883 -0.0441,-0.15492 -0.0686,-0.19034 -0.0251,-0.0364 -0.0532,-0.0533 -0.0703,-0.0806 -1.00258,-1.60514 -1.97363,-19.97459 -1.93935,-34.81925 0.023,-9.96185 0.56783,-30.50044 2.87559,-34.85183 0.027,-0.051 0.006,-0.41144 -0.048,-0.41839 z m 36.65743,0 c -1.08678,0.0182 -3.18425,0.0665 -3.29741,0.25377 -2.39139,3.95917 -2.92779,24.92492 -2.95105,34.99587 -0.0342,14.84465 0.93678,33.21583 1.93936,34.82097 0.30091,0.48179 2.51069,1.03643 3.25798,1.13001 0.37428,0.003 0.35335,-0.63773 0.3035,-0.84021 -0.0217,-0.0883 -0.0458,-0.15492 -0.0703,-0.19034 -0.0251,-0.0364 -0.0514,-0.0533 -0.0686,-0.0806 -1.00257,-1.60514 -1.97363,-19.97459 -1.93936,-34.81925 0.023,-9.96185 0.56613,-30.50044 2.87388,-34.85183 0.027,-0.051 0.006,-0.41144 -0.048,-0.41839 z m 36.64715,0 c -1.08678,0.0182 -3.18424,0.0665 -3.29742,0.25377 -2.39138,3.95917 -2.92778,24.92492 -2.95104,34.99587 -0.0342,14.84465 0.93679,33.21583 1.93936,34.82097 0.30091,0.48179 2.51069,1.03643 3.25798,1.13001 0.37428,0.003 0.35335,-0.63773 0.30351,-0.84021 -0.0217,-0.0883 -0.0458,-0.15492 -0.0703,-0.19034 -0.0251,-0.0364 -0.0514,-0.0533 -0.0686,-0.0806 -1.00257,-1.60514 -1.97363,-19.97459 -1.93936,-34.81925 0.023,-9.96185 0.56613,-30.50044 2.87389,-34.85183 0.027,-0.051 0.006,-0.41144 -0.048,-0.41839 z" />
    <path
       id="path29"
       style="fill:#df66ff;fill-opacity:1;stroke-width:8.30598;paint-order:markers fill stroke"
       d="m 132.5541,141.75376 c -59.319461,-0.0725 -118.867986,-0.0135 -119.776734,0.51117 -13.05936976,7.53983 -12.2215756,71.55455 -3.2367401,87.11675 3.3209391,5.75203 479.1631741,5.75215 482.4841841,0 8.98485,-15.5622 9.82262,-79.57692 -3.23673,-87.11675 -1.81471,-1.04772 -237.09691,-0.23662 -237.82294,-0.23413 0,0 -0.36372,1e-5 -0.36484,0 -0.36246,-0.001 -58.90949,-0.2047 -118.0462,-0.27704 z"
       sodipodi:nodetypes="scsssccs"
       inkscape:label="Верхнее крыло" />
    <path
       id="path30"
       style="fill:url(#radialGradient32);stroke-width:8.3316;paint-order:markers fill stroke"
       d="m 131.42718,141.76059 c -59.502443,-0.0728 -119.234663,-0.0135 -120.146213,0.51275 -13.0996597,7.56309 -12.25927974,71.77527 -3.2467297,87.38548 3.3311897,5.76978 480.6412427,5.7699 483.9725427,0 9.0125,-15.61021 9.8529,-79.82239 -3.2467,-87.38548 -1.8204,-1.05095 -237.82826,-0.23736 -238.55656,-0.23485 0,0 -0.3649,1e-5 -0.366,0 -0.3636,-0.001 -59.0912,-0.20533 -118.41034,-0.2779 z"
       sodipodi:nodetypes="scsssccs"
       inkscape:label="Градиент в крыла" />
    <path
       id="path31"
       style="fill:#a200cc;fill-opacity:1;stroke-width:8.31496;paint-order:markers fill stroke"
       d="m 232.92773,155.25 -7.96875,9.76562 -14.58203,2.23438 -1.37695,3.72461 16.35547,-2.48047 7.55859,-8.19336 z m 36.00977,0 0.0137,5.05078 7.5586,8.19336 16.35546,2.48047 -1.37695,-3.72461 -14.58203,-2.23438 z m -59.9375,44 1.37695,3.72461 14.58203,2.23437 7.96875,9.76563 -0.0137,-5.05078 -7.55859,-8.19336 z m 83.86523,0 -16.35546,2.48047 -7.5586,8.19336 -0.0137,5.05078 7.96875,-9.76563 14.58203,-2.23437 z"
       inkscape:label="Перекрестие" />
    <path
       id="path32"
       style="fill:#a200cc;fill-opacity:1;stroke-width:4.57577;paint-order:markers fill stroke"
       inkscape:label="Рельеф"
       d="m 308.21289,145.97678 c -0.0616,0.008 -0.0854,0.41847 -0.0547,0.47657 2.62861,4.95635 3.24724,28.35041 3.27344,39.69726 0.039,16.90851 -1.06507,37.83185 -2.20703,39.66016 -0.0195,0.0311 -0.0515,0.0503 -0.0801,0.0918 -0.0279,0.0404 -0.0534,0.11623 -0.0781,0.2168 -0.0568,0.23064 -0.0806,0.96003 0.3457,0.95703 0.85118,-0.10658 3.36623,-0.73834 3.70898,-1.28711 1.14196,-1.82831 2.24799,-22.7536 2.20899,-39.66211 -0.0265,-11.47111 -0.63747,-35.35172 -3.36133,-39.86132 -0.12891,-0.21324 -2.51798,-0.26837 -3.75586,-0.28907 z m 41.74219,0 c -0.0616,0.008 -0.0854,0.41847 -0.0547,0.47657 2.62861,4.95635 3.24724,28.35041 3.27344,39.69726 0.039,16.90851 -1.06507,37.83185 -2.20703,39.66016 -0.0195,0.0311 -0.0515,0.0503 -0.0801,0.0918 -0.0279,0.0404 -0.0534,0.11623 -0.0781,0.2168 -0.0568,0.23064 -0.0806,0.96003 0.34571,0.95703 0.85118,-0.10658 3.36623,-0.73834 3.70898,-1.28711 1.14196,-1.82831 2.24799,-22.7536 2.20899,-39.66211 -0.0265,-11.47111 -0.63748,-35.35172 -3.36133,-39.86132 -0.1289,-0.21324 -2.51797,-0.26837 -3.75586,-0.28907 z m 41.7539,0 c -0.0616,0.008 -0.0854,0.41847 -0.0547,0.47657 2.62859,4.95635 3.24919,28.35041 3.27539,39.69726 0.039,16.90851 -1.06703,37.83185 -2.20899,39.66016 -0.0195,0.0311 -0.0515,0.0503 -0.0801,0.0918 -0.0279,0.0404 -0.0534,0.11623 -0.0781,0.2168 -0.0568,0.23064 -0.0806,0.96003 0.3457,0.95703 0.85118,-0.10658 3.36624,-0.73834 3.70899,-1.28711 1.14197,-1.82831 2.24798,-22.7536 2.20898,-39.66211 -0.0265,-11.47111 -0.63747,-35.35172 -3.36133,-39.86132 -0.1289,-0.21324 -2.51797,-0.26837 -3.75586,-0.28907 z m 41.74219,0 c -0.0616,0.008 -0.0854,0.41847 -0.0547,0.47657 2.62861,4.95635 3.2492,28.35041 3.2754,39.69726 0.039,16.90851 -1.06703,37.83185 -2.20899,39.66016 -0.0195,0.0311 -0.0515,0.0503 -0.0801,0.0918 -0.0279,0.0404 -0.0533,0.11623 -0.0781,0.2168 -0.0568,0.23064 -0.0806,0.96003 0.3457,0.95703 0.85118,-0.10658 3.36623,-0.73834 3.70899,-1.28711 1.14194,-1.82831 2.24798,-22.7536 2.20898,-39.66211 -0.0265,-11.47111 -0.63747,-35.35172 -3.36133,-39.86132 -0.1289,-0.21324 -2.51796,-0.26837 -3.75586,-0.28907 z m 41.75,0 c -0.0616,0.008 -0.0854,0.41847 -0.0547,0.47657 2.62861,4.95635 3.2492,28.35041 3.2754,39.69726 0.039,16.90851 -1.06703,37.83185 -2.20899,39.66016 -0.0195,0.0311 -0.0515,0.0503 -0.0801,0.0918 -0.0279,0.0404 -0.0533,0.11623 -0.0781,0.2168 -0.0568,0.23064 -0.0806,0.96003 0.3457,0.95703 0.85118,-0.10658 3.36623,-0.73834 3.70899,-1.28711 1.14194,-1.82831 2.24798,-22.7536 2.20898,-39.66211 -0.0265,-11.47111 -0.63747,-35.35172 -3.36133,-39.86132 -0.1289,-0.21324 -2.51796,-0.26837 -3.75586,-0.28907 z m -448.712889,0.004 c -1.237893,0.0207 -3.626957,0.0758 -3.755859,0.28906 -2.723857,4.50961 -3.334842,28.39021 -3.361328,39.86133 -0.03904,16.9085 1.067027,37.8338 2.208984,39.66211 0.342753,0.54877 2.857802,1.18053 3.708984,1.28711 0.426317,0.003 0.402491,-0.72639 0.345704,-0.95703 -0.02475,-0.10057 -0.0502,-0.17645 -0.07813,-0.2168 -0.0286,-0.0415 -0.06059,-0.0607 -0.08008,-0.0918 -1.141958,-1.8283 -2.248023,-22.75164 -2.208984,-39.66015 0.0262,-11.34685 0.64678,-34.74091 3.275391,-39.69727 0.03074,-0.0581 0.0066,-0.46865 -0.05469,-0.47656 z m 41.75,0 c -1.237893,0.0207 -3.626957,0.0758 -3.755859,0.28906 -2.723857,4.50961 -3.334842,28.39021 -3.361328,39.86133 -0.03904,16.9085 1.067027,37.8338 2.208984,39.66211 0.342753,0.54877 2.857802,1.18053 3.708984,1.28711 0.426317,0.003 0.402491,-0.72639 0.345704,-0.95703 -0.02475,-0.10057 -0.05021,-0.17645 -0.07813,-0.2168 -0.0286,-0.0415 -0.06059,-0.0607 -0.08008,-0.0918 -1.141958,-1.8283 -2.248023,-22.75164 -2.208984,-39.66015 0.0262,-11.34685 0.64678,-34.74091 3.275391,-39.69727 0.03074,-0.0581 0.0066,-0.46865 -0.05469,-0.47656 z m 41.742189,0 c -1.23789,0.0207 -3.62696,0.0758 -3.75586,0.28906 -2.72386,4.50961 -3.33484,28.39021 -3.36133,39.86133 -0.039,16.9085 1.06703,37.8338 2.20899,39.66211 0.34275,0.54877 2.8578,1.18053 3.70898,1.28711 0.42632,0.003 0.40248,-0.72639 0.3457,-0.95703 -0.0247,-0.10057 -0.0502,-0.17645 -0.0781,-0.2168 -0.0286,-0.0415 -0.0606,-0.0607 -0.0801,-0.0918 -1.14196,-1.8283 -2.24802,-22.75164 -2.20898,-39.66015 0.0262,-11.34685 0.64678,-34.74091 3.27539,-39.69727 0.0307,-0.0581 0.007,-0.46865 -0.0547,-0.47656 z m 41.75391,0 c -1.23789,0.0207 -3.62696,0.0758 -3.75586,0.28906 -2.72386,4.50961 -3.33484,28.39021 -3.36133,39.86133 -0.039,16.9085 1.06702,37.8338 2.20898,39.66211 0.34275,0.54877 2.85976,1.18053 3.71094,1.28711 0.42632,0.003 0.40248,-0.72639 0.3457,-0.95703 -0.0247,-0.10057 -0.0522,-0.17645 -0.0801,-0.2168 -0.0286,-0.0415 -0.0586,-0.0607 -0.0781,-0.0918 -1.14196,-1.8283 -2.24802,-22.75164 -2.20899,-39.66015 0.0262,-11.34685 0.64484,-34.74091 3.27344,-39.69727 0.0307,-0.0581 0.007,-0.46865 -0.0547,-0.47656 z m 41.74218,0 c -1.23788,0.0207 -3.62695,0.0758 -3.75586,0.28906 -2.72385,4.50961 -3.33483,28.39021 -3.36132,39.86133 -0.039,16.9085 1.06702,37.8338 2.20898,39.66211 0.34275,0.54877 2.85976,1.18053 3.71094,1.28711 0.42632,0.003 0.40248,-0.72639 0.3457,-0.95703 -0.0247,-0.10057 -0.0522,-0.17645 -0.0801,-0.2168 -0.0286,-0.0415 -0.0586,-0.0607 -0.0781,-0.0918 -1.14196,-1.8283 -2.24803,-22.75164 -2.20899,-39.66015 0.0262,-11.34685 0.64483,-34.74091 3.27344,-39.69727 0.0307,-0.0581 0.007,-0.46865 -0.0547,-0.47656 z" />
  </g>
</svg>
