<?xml version="1.0" encoding="UTF-8" standalone="no"?>
<!-- Created with Inkscape (http://www.inkscape.org/) -->

<svg
   version="1.1"
   id="svg1"
   width="500"
   height="500"
   viewBox="0 0 500 500"
   xmlns:xlink="http://www.w3.org/1999/xlink"
   xmlns="http://www.w3.org/2000/svg"
   xmlns:svg="http://www.w3.org/2000/svg">
  <defs
     id="defs1">
    <linearGradient
       id="linearGradient1">
      <stop
         style="stop-color:#595959;stop-opacity:0.40000001;"
         offset="0"
         id="stop1" />
      <stop
         style="stop-color:#242424;stop-opacity:0.58641976;"
         offset="1"
         id="stop2" />
    </linearGradient>
    <linearGradient
       id="linearGradient92">
      <stop
         style="stop-color:#1f1f1f;stop-opacity:0.59670782;"
         offset="0"
         id="stop93" />
      <stop
         style="stop-color:#050505;stop-opacity:0.63580245;"
         offset="0.85545725"
         id="stop94" />
    </linearGradient>
    <linearGradient
       id="linearGradient91">
      <stop
         style="stop-color:#404040;stop-opacity:0.4012346;"
         offset="0.00294985"
         id="stop91" />
      <stop
         style="stop-color:#000000;stop-opacity:0.30000001;"
         offset="1"
         id="stop92" />
    </linearGradient>
    <linearGradient
       id="linearGradient25">
      <stop
         style="stop-color:#4d4d4d;stop-opacity:0.69999999;"
         offset="0"
         id="stop26" />
      <stop
         style="stop-color:#000000;stop-opacity:0.64999998;"
         offset="1"
         id="stop27" />
    </linearGradient>
    <linearGradient
       id="linearGradient23">
      <stop
         style="stop-color:#4d4d4d;stop-opacity:0.71399176;"
         offset="0"
         id="stop24" />
      <stop
         style="stop-color:#000000;stop-opacity:0.65020579;"
         offset="0.99705017"
         id="stop25" />
    </linearGradient>
    <radialGradient
       xlink:href="#linearGradient25"
       id="radialGradient27"
       cx="249.66577"
       cy="130.79979"
       fx="249.66577"
       fy="130.79979"
       r="29.180593"
       gradientTransform="matrix(0.92729183,0,0,2.4589225,18.289509,-190.61697)"
       gradientUnits="userSpaceOnUse" />
    <radialGradient
       xlink:href="#linearGradient23"
       id="radialGradient77"
       gradientUnits="userSpaceOnUse"
       gradientTransform="matrix(1.0050043,0.02060057,-0.15785813,7.7011493,50.054352,-2245.9366)"
       cx="250.84804"
       cy="325.06595"
       fx="250.84804"
       fy="325.06595"
       r="34.324615" />
    <radialGradient
       xlink:href="#linearGradient92"
       id="radialGradient94"
       cx="250.84804"
       cy="432.01468"
       fx="250.84804"
       fy="432.01468"
       r="6.2756262"
       gradientTransform="matrix(1.0796682,0,0,52.02108,-19.984574,-22041.347)"
       gradientUnits="userSpaceOnUse" />
    <radialGradient
       xlink:href="#linearGradient91"
       id="radialGradient32"
       gradientUnits="userSpaceOnUse"
       gradientTransform="matrix(2.1125331,0,0,0.23779669,-278.43465,141.325)"
       cx="250.87207"
       cy="195.69559"
       fx="250.87207"
       fy="195.69559"
       r="248.18294" />
    <radialGradient
       xlink:href="#linearGradient1"
       id="radialGradient2"
       cx="250.88943"
       cy="424.78516"
       fx="250.88943"
       fy="424.78516"
       r="92.761357"
       gradientTransform="matrix(1,0,0,0.32448436,0,286.94902)"
       gradientUnits="userSpaceOnUse" />
    <linearGradient
       xlink:href="#linearGradient299757"
       id="linearGradient299759"
       x1="642.29938"
       y1="1904.6532"
       x2="815.93195"
       y2="1904.6532"
       gradientUnits="userSpaceOnUse"
       gradientTransform="matrix(0.53613012,0,0,3.7899935,-576.85251,-7075.8235)" />
    <linearGradient
       id="linearGradient299757">
      <stop
         style="stop-color:#3b2501;stop-opacity:1"
         offset="0"
         id="stop299753" />
      <stop
         style="stop-color:#fdc321;stop-opacity:1"
         offset="0.31097549"
         id="stop300119" />
      <stop
         style="stop-color:#f9f173;stop-opacity:1"
         offset="0.44512185"
         id="stop299859" />
      <stop
         style="stop-color:#a78224;stop-opacity:1"
         offset="0.71341455"
         id="stop299925" />
      <stop
         style="stop-color:#7d4f01;stop-opacity:1"
         offset="1"
         id="stop299755" />
    </linearGradient>
    <linearGradient
       xlink:href="#linearGradient299757"
       id="linearGradient2"
       gradientUnits="userSpaceOnUse"
       gradientTransform="matrix(0,-0.18834395,3.7899935,0,-7075.8235,380.71466)"
       x1="642.29938"
       y1="1904.6532"
       x2="815.93195"
       y2="1904.6532" />
    <linearGradient
       xlink:href="#linearGradient61029"
       id="linearGradient61031"
       x1="32.55098"
       y1="236.03503"
       x2="202.19545"
       y2="236.03503"
       gradientUnits="userSpaceOnUse"
       gradientTransform="matrix(0.53729394,0,0,0.89714588,-250.98465,40.426929)" />
    <linearGradient
       id="linearGradient61029">
      <stop
         style="stop-color:#8b4219;stop-opacity:1"
         offset="0"
         id="stop61025" />
      <stop
         style="stop-color:#703412;stop-opacity:1"
         offset="0.106"
         id="stop62773" />
      <stop
         style="stop-color:#dca42d;stop-opacity:1"
         offset="0.35108119"
         id="stop71209" />
      <stop
         style="stop-color:#f6db74;stop-opacity:1"
         offset="0.56599998"
         id="stop62771" />
      <stop
         style="stop-color:#e49919;stop-opacity:1"
         offset="0.77130222"
         id="stop69113" />
      <stop
         style="stop-color:#763d1c;stop-opacity:1"
         offset="1"
         id="stop61027" />
    </linearGradient>
    <linearGradient
       xlink:href="#linearGradient61029"
       id="linearGradient61031-6"
       x1="32.55098"
       y1="236.03503"
       x2="202.19545"
       y2="236.03503"
       gradientUnits="userSpaceOnUse"
       gradientTransform="matrix(0.45247859,0,0,0.15844956,245.79798,416.02838)" />
    <linearGradient
       xlink:href="#linearGradient61029"
       id="linearGradient3"
       gradientUnits="userSpaceOnUse"
       gradientTransform="matrix(0.45371603,0,0,0.15844956,149.2577,416.02838)"
       x1="32.55098"
       y1="236.03503"
       x2="202.19545"
       y2="236.03503" />
    <linearGradient
       xlink:href="#linearGradient299757"
       id="linearGradient299759-7"
       x1="642.29938"
       y1="1904.6532"
       x2="815.93195"
       y2="1904.6532"
       gradientUnits="userSpaceOnUse"
       gradientTransform="matrix(0.06001672,0,0,0.06001672,207.06658,-14.352414)" />
  </defs>
  <g
     id="g1">
    <path
       id="rect16864-8"
       style="fill:url(#linearGradient299759-7);stroke-width:0.391396;stroke-linecap:round;stroke-linejoin:round;paint-order:fill markers stroke"
       d="M 250.81445 99.496094 L 249.33984 99.5 L 246.08984 104.60352 L 250.80664 104.61328 L 250.89062 104.61328 L 255.60742 104.60352 L 252.35742 99.5 L 250.88281 99.496094 L 250.81445 99.496094 z " />
    <path
       id="path10"
       style="fill:#1a1a1a;fill-opacity:1;stroke-width:8.31496;paint-order:markers fill stroke;opacity:0.756"
       d="m 244.86074,103 c 0,0 -17.38318,0.14271 -26.11524,0.36328 -14.71226,0.37163 -37.376,0.0381 -31.2871,6.12695 0.12123,0.12124 31.11914,-0.0742 31.11914,-0.0742 l 25.98632,-0.0586 1.08399,2.07617 5.20117,-0.0469 5.19922,0.0469 1.08594,-2.07617 25.98632,0.0586 c 0,0 30.99595,0.19545 31.11719,0.0742 6.0889,-6.08889 -16.57484,-5.75532 -31.28711,-6.12695 C 274.21853,103.14271 256.83535,103 256.83535,103 l -0.38477,1.47656 -5.60156,0.0488 -5.60156,-0.0488 z" />
    <path
       id="path11"
       style="fill:#404040;fill-opacity:1;stroke-width:8.31496;paint-order:markers fill stroke"
       d="m 246.90078,111.23828 c -7.0075,0.0598 -21.15983,0.69536 -22.26563,4.82227 -3.60562,13.45634 -3.02734,33.88867 -3.02734,33.88867 l 29.14648,0.13281 29.14649,-0.13281 c 0,0 0.57828,-20.43233 -3.02735,-33.88867 -1.46559,-5.46969 -25.80253,-4.80695 -26.00921,-4.80389 -0.20668,0.003 -1.68331,-0.0378 -3.96344,-0.0184 z" />
    <path
       id="path16"
       style="fill:url(#radialGradient27);stroke-width:8.31496;paint-order:markers fill stroke"
       d="m 246.74452,111.23828 c -7.0075,0.0598 -21.15983,0.69536 -22.26563,4.82227 -3.60562,13.45634 -3.02734,33.88867 -3.02734,33.88867 l 29.14648,0.13281 29.14649,-0.13281 c 0,0 0.57828,-20.43233 -3.02735,-33.88867 -1.46559,-5.46969 -25.80253,-4.80695 -26.00921,-4.80389 -0.20668,0.003 -1.68331,-0.0378 -3.96344,-0.0184 z" />
    <path
       id="rect1631-0"
       style="display:inline;fill:url(#linearGradient61031-6);stroke-width:1.74618;stroke-linecap:round;stroke-linejoin:round;paint-order:fill markers stroke"
       d="M 260.52734 443.34766 L 260.52734 453.93555 C 278.45394 454.95059 322.05454 457.11442 337.28711 454.81055 L 337.28711 443.34766 L 260.52734 443.34766 z " />
    <path
       id="path3"
       style="display:inline;fill:url(#linearGradient3);stroke-width:1.74857;stroke-linecap:round;stroke-linejoin:round;paint-order:fill markers stroke"
       d="m 164.02734,443.34766 v 11.38867 c 14.61532,2.3987 58.39193,0.26637 76.96969,-0.77539 v -10.61328 z" />
    <path
       id="path64"
       style="fill:#1a1a1a;fill-opacity:1;stroke-width:7.29317;paint-order:markers fill stroke"
       d="m 147.06157,179.8094 c -52.08618,-0.0637 -104.37349,-0.0118 -105.171427,0.44883 -11.46694,6.62044 -10.731304,62.82935 -2.842059,76.49393 2.915991,5.05064 420.735106,5.05075 423.651156,0 7.88926,-13.66458 8.62487,-69.87349 -2.84205,-76.49393 -1.59343,-0.91996 -208.18584,-0.20777 -208.82335,-0.20557 0,0 -0.31937,1e-5 -0.32036,0 -0.31826,-8.8e-4 -51.72619,-0.17974 -103.65191,-0.24326 z" />
    <path
       id="path1"
       style="fill:#333333;fill-opacity:1;stroke-width:8.31496;paint-order:markers fill stroke"
       d="m 250.88672,394.69028 -13.36524,0.26562 c 0,0 -63.97407,15.98407 -68.92382,21.26953 -6.77843,7.23816 -13.70749,32.25345 -8.83789,37.12305 0.664,0.664 2.50142,1.16651 5.19335,1.54102 l -0.0645,-3.86719 76.00195,-1.29297 0.0723,4.22656 c 4.34227,-0.24482 9.4947,-0.53724 9.92383,-0.56445 0.42828,0.0272 5.58136,0.31952 9.92578,0.56445 l 0.0723,-4.22656 76.00195,1.29297 -0.0664,3.86719 c 2.69326,-0.37455 4.53112,-0.87682 5.19531,-1.54102 4.8696,-4.8696 -2.05946,-29.88489 -8.83789,-37.12305 -4.94975,-5.28546 -68.92382,-21.26953 -68.92382,-21.26953 z" />
    <path
       id="path74"
       style="fill:url(#radialGradient2);fill-opacity:1;stroke-width:8.31496;paint-order:markers fill stroke"
       d="m 250.88844,394.68555 -13.36524,0.26562 c 0,0 -63.97407,15.98407 -68.92382,21.26953 -6.77843,7.23816 -13.70749,32.25345 -8.83789,37.12305 0.664,0.664 2.50142,1.16651 5.19335,1.54102 l -0.0645,-3.86719 76.00195,-1.29297 0.0723,4.22656 c 4.34227,-0.24482 9.4947,-0.53724 9.92383,-0.56445 0.42828,0.0272 5.58136,0.31952 9.92578,0.56445 l 0.0723,-4.22656 76.00195,1.29297 -0.0664,3.86719 c 2.69326,-0.37455 4.53112,-0.87682 5.19531,-1.54102 4.8696,-4.8696 -2.05946,-29.88489 -8.83789,-37.12305 -4.94975,-5.28546 -68.92382,-21.26953 -68.92382,-21.26953 z" />
    <path
       id="path76"
       style="fill:#404040;fill-opacity:1;stroke-width:8.31496;paint-order:markers fill stroke"
       d="m 223.85195,208.56445 c -9.62542,9.62542 -7.13149,19.37115 -6.7832,30.11133 0.39667,12.23225 4.49371,44.08718 5.83984,55.03711 4.21823,34.31273 1.8017,13.86152 5.62305,43.59375 2.06352,16.05541 6.11601,41.70326 8.99414,57.63281 7.72578,42.75981 7.02734,39.10488 7.90234,58.70508 0.0479,1.07348 2.30616,34.53859 3.23242,35.46485 0.70562,0.7056 1.45716,0.84909 2.18731,0.85896 0.73016,0.01 1.48336,-0.13124 2.18964,-0.83751 0.92626,-0.92626 3.18255,-34.39332 3.23047,-35.4668 0.875,-19.6002 0.17657,-15.94331 7.90235,-58.70312 2.87812,-15.92956 6.93061,-41.57741 8.99414,-57.63281 3.82134,-29.73223 1.40676,-9.28298 5.625,-43.59571 1.34613,-10.94993 5.44121,-42.80486 5.83789,-55.03711 0.34829,-10.74018 2.84222,-20.4859 -6.7832,-30.11132 -11.97779,-11.97779 -24.54611,-11.60533 -29.1189,-11.4789 -4.5728,0.12643 -15.09386,1.67994 -24.87329,11.45936 z" />
    <path
       id="path77"
       style="fill:url(#radialGradient77);fill-opacity:1;stroke-width:8.31496;paint-order:markers fill stroke"
       d="m 223.8473,208.44313 c -9.62542,9.62542 -7.13149,19.37115 -6.7832,30.11133 0.39667,12.23225 4.49371,44.08718 5.83984,55.03711 4.21823,34.31273 1.8017,13.86152 5.62305,43.59375 2.06352,16.05541 6.11601,41.70326 8.99414,57.63281 7.72578,42.75981 7.02734,39.10488 7.90234,58.70508 0.0479,1.07348 2.30616,34.53859 3.23242,35.46485 0.70562,0.7056 1.45716,0.84909 2.18731,0.85896 0.73016,0.01 1.48336,-0.13124 2.18964,-0.83751 0.92626,-0.92626 3.18255,-34.39332 3.23047,-35.4668 0.875,-19.6002 0.17657,-15.94331 7.90235,-58.70312 2.87812,-15.92956 6.93061,-41.57741 8.99414,-57.63281 3.82134,-29.73223 1.40676,-9.28298 5.625,-43.59571 1.34613,-10.94993 5.44121,-42.80486 5.83789,-55.03711 0.34829,-10.74018 2.84222,-20.4859 -6.7832,-30.11132 -11.97779,-11.97779 -24.54611,-11.60533 -29.1189,-11.4789 -4.5728,0.12643 -15.09386,1.67994 -24.87329,11.45936 z" />
    <path
       id="path78"
       style="fill:#262626;fill-opacity:1;stroke-width:8.31496;paint-order:markers fill stroke"
       d="m 249.2123,374.82809 c -2.21965,3.84455 -3.81218,19.63314 -4.18945,29.65039 -0.44134,11.71846 -0.57014,22.14085 -0.33399,33.86523 0.27483,13.64473 1.24617,35.82557 3.41992,49.29883 0.49082,3.04217 2.58597,3.382 2.74024,3.33266 0.15501,0.0496 2.24756,-0.29107 2.73828,-3.33266 2.17376,-13.47326 3.14509,-35.6541 3.41992,-49.29883 0.23615,-11.72438 0.10736,-22.14677 -0.33398,-33.86523 -0.37727,-10.01725 -1.96786,-25.80584 -4.1875,-29.65039 -0.38057,-0.65917 -1.29567,-0.79013 -1.88551,-0.77735 -0.58983,0.0128 -1.18156,0.4199 -1.38793,0.77735 z" />
    <path
       id="path92"
       style="fill:url(#radialGradient94);stroke-width:8.31496;paint-order:markers fill stroke"
       d="m 249.21234,374.83591 c -2.21965,3.84455 -3.81218,19.63314 -4.18945,29.65039 -0.44134,11.71846 -0.57014,22.14085 -0.33399,33.86523 0.27483,13.64473 1.24617,35.82557 3.41992,49.29883 0.49082,3.04217 2.58597,3.382 2.74024,3.33266 0.15501,0.0496 2.24756,-0.29107 2.73828,-3.33266 2.17376,-13.47326 3.14509,-35.6541 3.41992,-49.29883 0.23615,-11.72438 0.10736,-22.14677 -0.33398,-33.86523 -0.37727,-10.01725 -1.96786,-25.80584 -4.1875,-29.65039 -0.38057,-0.65917 -1.29567,-0.79013 -1.88551,-0.77735 -0.58983,0.0128 -1.18156,0.4199 -1.38793,0.77735 z" />
    <path
       id="path2"
       style="display:inline;fill:url(#linearGradient2);stroke-width:5.50983;stroke-linecap:round;stroke-linejoin:round;paint-order:fill markers stroke"
       d="M 47.716797 227.38086 C 47.934275 240.40045 48.719708 253.62215 49.564453 254.97461 C 49.865371 255.4564 52.073026 256.01189 52.820312 256.10547 C 53.194594 256.10847 53.172902 255.46615 53.123047 255.26367 C 53.101317 255.17537 53.079207 255.10964 53.054688 255.07422 C 53.029578 255.03782 53.001485 255.02144 52.984375 254.99414 C 52.139176 253.64096 51.355619 240.4068 51.138672 227.38086 L 47.716797 227.38086 z M 84.371094 227.38086 C 84.588572 240.40045 85.374004 253.62215 86.21875 254.97461 C 86.519667 255.4564 88.727323 256.01189 89.474609 256.10547 C 89.848888 256.10847 89.8272 255.46615 89.777344 255.26367 C 89.755614 255.17537 89.733494 255.10964 89.708984 255.07422 C 89.683874 255.03782 89.655782 255.02144 89.638672 254.99414 C 88.793473 253.64096 88.009916 240.4068 87.792969 227.38086 L 84.371094 227.38086 z M 121.01953 227.38086 C 121.23704 240.40045 122.02049 253.62215 122.86523 254.97461 C 123.16615 255.4564 125.37381 256.01189 126.12109 256.10547 C 126.49538 256.10847 126.47564 255.46615 126.42578 255.26367 C 126.40408 255.17537 126.38192 255.10964 126.35742 255.07422 C 126.33232 255.03782 126.30421 255.02144 126.28711 254.99414 C 125.4419 253.64096 124.6564 240.4068 124.43945 227.38086 L 121.01953 227.38086 z M 157.67578 227.38086 C 157.89329 240.40045 158.67868 253.62215 159.52344 254.97461 C 159.82435 255.4564 162.03396 256.01189 162.78125 256.10547 C 163.15553 256.10847 163.13383 255.46615 163.08398 255.26367 C 163.06228 255.17537 163.03817 255.10964 163.01367 255.07422 C 162.98857 255.03782 162.96251 255.02144 162.94531 254.99414 C 162.10011 253.64096 161.31656 240.4068 161.09961 227.38086 L 157.67578 227.38086 z M 194.32422 227.38086 C 194.54173 240.40045 195.32518 253.62215 196.16992 254.97461 C 196.47083 255.4564 198.68045 256.01189 199.42773 256.10547 C 199.80201 256.10847 199.78226 255.46615 199.73242 255.26367 C 199.71072 255.17537 199.68661 255.10964 199.66211 255.07422 C 199.63701 255.03782 199.609 255.02144 199.5918 254.99414 C 198.7466 253.64096 197.96304 240.4068 197.74609 227.38086 L 194.32422 227.38086 z M 303.94336 227.38086 C 303.72667 240.40553 302.94473 253.63719 302.09961 254.99023 C 302.08241 255.01753 302.0543 255.03391 302.0293 255.07031 C 302.0048 255.10571 301.98264 255.17148 301.96094 255.25977 C 301.91114 255.46226 301.88938 256.10419 302.26367 256.10156 C 303.01097 256.00796 305.21862 255.45249 305.51953 254.9707 C 306.36419 253.61837 307.1496 240.39919 307.36719 227.38086 L 303.94336 227.38086 z M 340.5918 227.38086 C 340.3751 240.40554 339.59121 253.63719 338.74609 254.99023 C 338.72889 255.01753 338.70078 255.03391 338.67578 255.07031 C 338.65128 255.10571 338.62912 255.17148 338.60742 255.25977 C 338.55762 255.46226 338.53585 256.10419 338.91016 256.10156 C 339.65744 256.00796 341.86707 255.45249 342.16797 254.9707 C 343.01263 253.61837 343.79608 240.39919 344.01367 227.38086 L 340.5918 227.38086 z M 377.25 227.38086 C 377.03293 240.40553 376.24942 253.63719 375.4043 254.99023 C 375.3871 255.01753 375.35898 255.03391 375.33398 255.07031 C 375.30948 255.10571 375.28732 255.17148 375.26562 255.25977 C 375.21583 255.46226 375.19406 256.10419 375.56836 256.10156 C 376.31564 256.00796 378.5233 255.45249 378.82422 254.9707 C 379.66889 253.61837 380.45233 240.39918 380.66992 227.38086 L 377.25 227.38086 z M 413.89648 227.38086 C 413.67941 240.40553 412.89589 253.63719 412.05078 254.99023 C 412.03358 255.01753 412.00547 255.03391 411.98047 255.07031 C 411.95597 255.10571 411.93391 255.17148 411.91211 255.25977 C 411.86231 255.46226 411.84054 256.10419 412.21484 256.10156 C 412.96212 256.00796 415.16978 255.45249 415.4707 254.9707 C 416.31535 253.61837 417.10076 240.39919 417.31836 227.38086 L 413.89648 227.38086 z M 450.55078 227.38086 C 450.33371 240.40553 449.55019 253.63719 448.70508 254.99023 C 448.68798 255.01753 448.65977 255.03391 448.63477 255.07031 C 448.61027 255.10571 448.58821 255.17148 448.56641 255.25977 C 448.51661 255.46226 448.49484 256.10419 448.86914 256.10156 C 449.61643 256.00796 451.82408 255.45249 452.125 254.9707 C 452.96965 253.61837 453.75506 240.39919 453.97266 227.38086 L 450.55078 227.38086 z " />
    <path
       id="path29"
       style="fill:#333333;fill-opacity:1;stroke-width:8.30598;paint-order:markers fill stroke"
       d="m 132.5541,141.75376 c -59.319461,-0.0725 -118.867986,-0.0135 -119.776734,0.51117 -13.05936976,7.53983 -12.2215756,71.55455 -3.2367401,87.11675 3.3209391,5.75203 479.1631741,5.75215 482.4841841,0 8.98485,-15.5622 9.82262,-79.57692 -3.23673,-87.11675 -1.81471,-1.04772 -237.09691,-0.23662 -237.82294,-0.23413 0,0 -0.36372,1e-5 -0.36484,0 -0.36246,-0.001 -58.90949,-0.2047 -118.0462,-0.27704 z" />
    <path
       id="path30"
       style="display:inline;fill:url(#radialGradient32);stroke-width:8.3316;paint-order:markers fill stroke"
       d="m 132.94757,141.76059 c -59.502452,-0.0728 -119.234662,-0.0135 -120.146212,0.51275 -13.0996591,7.56309 -12.2592791,71.77527 -3.2467291,87.38548 3.3311891,5.76978 480.6412611,5.7699 483.9725611,0 9.0125,-15.61021 9.8529,-79.82239 -3.2467,-87.38548 -1.8204,-1.05095 -237.82833,-0.23736 -238.55661,-0.23485 0,0 -0.36484,1e-5 -0.36596,0 -0.36358,-0.001 -59.09121,-0.20533 -118.41035,-0.2779 z" />
    <path
       id="rect1631"
       style="fill:url(#linearGradient61031);stroke-width:4.52773;stroke-linecap:round;stroke-linejoin:round;paint-order:fill markers stroke"
       d="M -155.25 232.92773 L -165.01562 224.95898 L -167.25 210.37695 L -170.97461 209 L -168.49414 225.35547 L -160.30078 232.91406 L -155.25 232.92773 z M -155.25 268.9375 L -160.30078 268.95117 L -168.49414 276.50977 L -170.97461 292.86523 L -167.25 291.48828 L -165.01562 276.90625 L -155.25 268.9375 z M -199.25 209 L -202.97461 210.37695 L -205.20898 224.95898 L -214.97461 232.92773 L -209.92383 232.91406 L -201.73047 225.35547 L -199.25 209 z M -199.25 292.86523 L -201.73047 276.50977 L -209.92383 268.95117 L -214.97461 268.9375 L -205.20898 276.90625 L -202.97461 291.48828 L -199.25 292.86523 z "
       transform="rotate(-90)" />
    <path
       id="rect16864"
       style="fill:url(#linearGradient299759);stroke-width:9.29603;stroke-linecap:round;stroke-linejoin:round;paint-order:fill markers stroke"
       d="M -145.97656 308.21289 C -145.98456 308.15129 -146.39503 308.1275 -146.45312 308.1582 C -151.40947 310.78681 -174.80355 311.40544 -186.15039 311.43164 C -203.05888 311.47064 -223.98224 310.36657 -225.81055 309.22461 C -225.84165 309.20511 -225.86084 309.17313 -225.90234 309.14453 C -225.94274 309.11663 -226.01857 309.09111 -226.11914 309.06641 C -226.34978 309.00961 -227.07917 308.98581 -227.07617 309.41211 C -226.96959 310.26329 -226.33783 312.77834 -225.78906 313.12109 C -223.96075 314.26305 -203.03545 315.36908 -186.12695 315.33008 C -174.65585 315.30358 -150.77522 314.69261 -146.26562 311.96875 C -146.05239 311.83984 -145.99726 309.45077 -145.97656 308.21289 z M -145.97656 349.95508 C -145.98456 349.89348 -146.39503 349.86969 -146.45312 349.90039 C -151.40947 352.529 -174.80355 353.14763 -186.15039 353.17383 C -203.05888 353.21283 -223.98224 352.10876 -225.81055 350.9668 C -225.84165 350.9473 -225.86084 350.91532 -225.90234 350.88672 C -225.94274 350.85882 -226.01857 350.83329 -226.11914 350.80859 C -226.34978 350.75179 -227.07917 350.72799 -227.07617 351.1543 C -226.96959 352.00548 -226.33783 354.52053 -225.78906 354.86328 C -223.96075 356.00524 -203.03545 357.11127 -186.12695 357.07227 C -174.65585 357.04577 -150.77522 356.43478 -146.26562 353.71094 C -146.05239 353.58204 -145.99726 351.19297 -145.97656 349.95508 z M -145.97656 391.70898 C -145.98456 391.64738 -146.39503 391.6236 -146.45312 391.6543 C -151.40947 394.28288 -174.80355 394.90349 -186.15039 394.92969 C -203.05888 394.96869 -223.98224 393.86266 -225.81055 392.7207 C -225.84165 392.7012 -225.86084 392.66922 -225.90234 392.64062 C -225.94274 392.61273 -226.01857 392.5872 -226.11914 392.5625 C -226.34978 392.5057 -227.07917 392.4819 -227.07617 392.9082 C -226.96959 393.75938 -226.33783 396.27444 -225.78906 396.61719 C -223.96075 397.75916 -203.03545 398.86517 -186.12695 398.82617 C -174.65585 398.79967 -150.77522 398.1887 -146.26562 395.46484 C -146.05239 395.33594 -145.99726 392.94687 -145.97656 391.70898 z M -145.97656 433.45117 C -145.98456 433.38957 -146.39503 433.36578 -146.45312 433.39648 C -151.40947 436.02509 -174.80355 436.64568 -186.15039 436.67188 C -203.05888 436.71087 -223.98224 435.60485 -225.81055 434.46289 C -225.84165 434.44339 -225.86084 434.41141 -225.90234 434.38281 C -225.94274 434.35491 -226.01857 434.32949 -226.11914 434.30469 C -226.34978 434.24789 -227.07917 434.22409 -227.07617 434.65039 C -226.96959 435.50157 -226.33783 438.01662 -225.78906 438.35938 C -223.96075 439.50131 -203.03545 440.60736 -186.12695 440.56836 C -174.65585 440.54186 -150.77522 439.93089 -146.26562 437.20703 C -146.05239 437.07813 -145.99726 434.68907 -145.97656 433.45117 z M -145.97656 475.20117 C -145.98456 475.13957 -146.39503 475.11578 -146.45312 475.14648 C -151.40947 477.77509 -174.80355 478.39568 -186.15039 478.42188 C -203.05888 478.46087 -223.98224 477.35485 -225.81055 476.21289 C -225.84165 476.19339 -225.86084 476.16141 -225.90234 476.13281 C -225.94274 476.10491 -226.01857 476.07949 -226.11914 476.05469 C -226.34978 475.99789 -227.07917 475.97409 -227.07617 476.40039 C -226.96959 477.25157 -226.33783 479.76662 -225.78906 480.10938 C -223.96075 481.25131 -203.03545 482.35736 -186.12695 482.31836 C -174.65585 482.29186 -150.77522 481.68089 -146.26562 478.95703 C -146.05239 478.82813 -145.99726 476.43907 -145.97656 475.20117 z M -145.98047 26.488281 C -146.00117 25.250389 -146.05627 22.861324 -146.26953 22.732422 C -150.77914 20.008568 -174.65975 19.39758 -186.13086 19.371094 C -203.03934 19.332054 -223.96466 20.438122 -225.79297 21.580078 C -226.34174 21.922831 -226.9735 24.437881 -227.08008 25.289062 C -227.08308 25.715379 -226.35369 25.691553 -226.12305 25.634766 C -226.02248 25.610016 -225.9466 25.584571 -225.90625 25.556641 C -225.86475 25.528041 -225.84555 25.496052 -225.81445 25.476562 C -223.98615 24.334606 -203.06279 23.228539 -186.1543 23.267578 C -174.80746 23.293778 -151.41339 23.91436 -146.45703 26.542969 C -146.39893 26.573709 -145.98838 26.549571 -145.98047 26.488281 z M -145.98047 68.238281 C -146.00117 67.000389 -146.05627 64.611324 -146.26953 64.482422 C -150.77914 61.758568 -174.65975 61.14758 -186.13086 61.121094 C -203.03934 61.082054 -223.96466 62.188122 -225.79297 63.330078 C -226.34174 63.672831 -226.9735 66.187881 -227.08008 67.039062 C -227.08308 67.465379 -226.35369 67.441553 -226.12305 67.384766 C -226.02248 67.360016 -225.9466 67.334561 -225.90625 67.306641 C -225.86475 67.278041 -225.84555 67.246052 -225.81445 67.226562 C -223.98615 66.084606 -203.06279 64.978539 -186.1543 65.017578 C -174.80746 65.043778 -151.41339 65.66436 -146.45703 68.292969 C -146.39893 68.323709 -145.98838 68.299571 -145.98047 68.238281 z M -145.98047 109.98047 C -146.00117 108.74258 -146.05627 106.35351 -146.26953 106.22461 C -150.77914 103.50075 -174.65975 102.88977 -186.13086 102.86328 C -203.03934 102.82428 -223.96466 103.93031 -225.79297 105.07227 C -226.34174 105.41502 -226.9735 107.93007 -227.08008 108.78125 C -227.08308 109.20757 -226.35369 109.18373 -226.12305 109.12695 C -226.02248 109.10225 -225.9466 109.07673 -225.90625 109.04883 C -225.86475 109.02023 -225.84555 108.98825 -225.81445 108.96875 C -223.98615 107.82679 -203.06279 106.72073 -186.1543 106.75977 C -174.80746 106.78597 -151.41339 107.40655 -146.45703 110.03516 C -146.39893 110.06586 -145.98838 110.04217 -145.98047 109.98047 z M -145.98047 151.73438 C -146.00117 150.49649 -146.05627 148.10742 -146.26953 147.97852 C -150.77914 145.25466 -174.65975 144.64368 -186.13086 144.61719 C -203.03934 144.57819 -223.96466 145.68421 -225.79297 146.82617 C -226.34174 147.16892 -226.9735 149.68593 -227.08008 150.53711 C -227.08308 150.96343 -226.35369 150.93959 -226.12305 150.88281 C -226.02248 150.85811 -225.9466 150.83063 -225.90625 150.80273 C -225.86475 150.77413 -225.84555 150.74411 -225.81445 150.72461 C -223.98615 149.58265 -203.06279 148.4766 -186.1543 148.51562 C -174.80746 148.54182 -151.41339 149.16047 -146.45703 151.78906 C -146.39893 151.81976 -145.98838 151.79607 -145.98047 151.73438 z M -145.98047 193.47656 C -146.00117 192.23868 -146.05627 189.84961 -146.26953 189.7207 C -150.77914 186.99686 -174.65975 186.38586 -186.13086 186.35938 C -203.03934 186.32038 -223.96466 187.4264 -225.79297 188.56836 C -226.34174 188.91111 -226.9735 191.42812 -227.08008 192.2793 C -227.08308 192.70562 -226.35369 192.68178 -226.12305 192.625 C -226.02248 192.6003 -225.9466 192.57282 -225.90625 192.54492 C -225.86475 192.51632 -225.84555 192.4863 -225.81445 192.4668 C -223.98615 191.32484 -203.06279 190.21877 -186.1543 190.25781 C -174.80746 190.28401 -151.41339 190.90264 -146.45703 193.53125 C -146.39893 193.56195 -145.98838 193.53826 -145.98047 193.47656 z "
       transform="rotate(-90)" />
  </g>
</svg>
