<?xml version="1.0" encoding="UTF-8" standalone="no"?>
<svg
   width="300"
   height="300"
   viewBox="0 0 300 300"
   fill="none"
   version="1.1"
   id="svg20"
   sodipodi:docname="nopic_party_list.svg"
   inkscape:version="1.2.1 (9c6d41e410, 2022-07-14)"
   xmlns:inkscape="http://www.inkscape.org/namespaces/inkscape"
   xmlns:sodipodi="http://sodipodi.sourceforge.net/DTD/sodipodi-0.dtd"
   xmlns="http://www.w3.org/2000/svg"
   xmlns:svg="http://www.w3.org/2000/svg">
  <sodipodi:namedview
     id="namedview22"
     pagecolor="#ffffff"
     bordercolor="#111111"
     borderopacity="1"
     inkscape:showpageshadow="0"
     inkscape:pageopacity="0"
     inkscape:pagecheckerboard="1"
     inkscape:deskcolor="#d1d1d1"
     showgrid="false"
     inkscape:zoom="3.4233334"
     inkscape:cx="23.807205"
     inkscape:cy="152.48296"
     inkscape:window-width="3440"
     inkscape:window-height="1417"
     inkscape:window-x="-8"
     inkscape:window-y="-8"
     inkscape:window-maximized="1"
     inkscape:current-layer="svg20" />
  <defs
     id="defs18" />
  <g
     id="g1940"
     style="fill:#000000;fill-opacity:1;stroke:#ffffff;stroke-opacity:1;stroke-width:3;stroke-dasharray:none">
    <path
       style="display:inline;fill:none;stroke:#000000;stroke-width:3;stroke-opacity:0;stroke-dasharray:none"
       d="M -35.320913,159.87361 V -20.44895 H 154.50318 344.32727 V 159.87361 340.19617 H 154.50318 -35.320913 Z"
       id="path3017" />
    <path
       style="display:inline;opacity:1;fill:#28353e;fill-opacity:1;stroke:#ffffff;stroke-width:3;stroke-dasharray:none;stroke-opacity:1"
       d="m 222.92924,259.64395 c 0,0 0.10036,-29.79024 -1.93077,-40.6688 -2.03112,-10.87857 -10.18295,-24.01837 -10.18295,-24.01837 0,0 2.89019,-2.90202 6.73114,-5.95901 3.84095,-3.057 8.55963,-4.95446 11.77844,-6.45068 6.43764,-2.99245 20.04318,-4.59566 20.04318,-4.59566 0,0 11.43731,1.34505 19.6224,4.48235 8.18509,3.13731 13.26401,7.77478 17.48978,11.14636 8.45155,6.74316 13.15892,24.83027 13.15892,24.83027 l -0.13356,32.19676 c 0,0 -4.6518,4.68457 -10.73866,6.55217 -6.08685,1.8676 -25.19825,4.65344 -25.19825,4.65344 l -20.90408,0.15707 c -6.78273,0.051 -19.73562,-2.3259 -19.73562,-2.3259 z"
       id="path12963-8"
       sodipodi:nodetypes="cscsscssccscscc" />
    <path
       style="opacity:1;fill:#28353e;fill-opacity:1;stroke:#ffffff;stroke-width:3;stroke-opacity:1;stroke-dasharray:none"
       d="m 229.00485,100.09209 c 0,0 -7.51224,-5.194667 -11.99131,-7.069057 -4.47906,-1.874391 -9.54616,-3.198558 -14.88308,-3.557622 -4.47062,-0.30078 -8.80616,0.157277 -13.31252,1.24287 -4.50637,1.085595 -13.72565,4.651028 -13.72565,4.651028 0,0 4.39805,2.693521 8.31094,6.360571 3.9129,3.66706 7.34064,8.30765 9.32457,11.78866 1.98393,3.48102 2.93302,4.77799 4.05742,9.64565 1.1244,4.86765 2.9036,9.30022 2.32084,13.77073 -1.55972,9.74067 -3.08785,16.49364 -5.91324,22.03685 -2.82539,5.54321 -6.79314,10.23812 -11.06324,14.52004 0,0 6.97088,3.1276 10.37887,5.44016 3.40799,2.31256 9.91412,8.07374 9.91412,8.07374 0,0 4.96736,-5.35397 7.86414,-7.61785 2.89679,-2.26387 9.31003,-5.81048 9.31003,-5.81048 0,0 -6.74573,-6.11751 -10.3542,-13.61143 -3.60847,-7.49392 -3.87311,-16.51917 -4.54356,-23.05761 -0.41006,-3.999 1.07878,-7.17247 2.40143,-11.85849 1.32266,-4.68602 3.09574,-6.8856 5.10402,-9.95279 2.00828,-3.06719 4.60758,-6.35118 8.30562,-9.33313 3.69803,-2.98194 8.4948,-5.66184 8.4948,-5.66184 z"
       id="path359-9"
       sodipodi:nodetypes="cssscssscscscscsssssc" />
    <circle
       cx="101.5"
       cy="53.5"
       r="30.5"
       fill="#528A51"
       id="circle4"
       style="fill:#28353e;fill-opacity:1;stroke:#ffffff;stroke-opacity:1;stroke-width:3;stroke-dasharray:none" />
    <circle
       cx="50.5"
       cy="139.5"
       r="33.5"
       fill="#528A51"
       id="circle6"
       style="fill:#28353e;fill-opacity:1;stroke:#ffffff;stroke-opacity:1;stroke-width:3;stroke-dasharray:none" />
    <circle
       cx="249.5"
       cy="139.5"
       r="33.5"
       fill="#528A51"
       id="circle8"
       style="fill:#28353e;fill-opacity:1;stroke:#ffffff;stroke-opacity:1;stroke-width:3;stroke-dasharray:none" />
    <circle
       cx="150"
       cy="137"
       r="37"
       fill="#528A51"
       id="circle10"
       style="fill:#28353e;fill-opacity:1;stroke:#ffffff;stroke-opacity:1;stroke-width:3;stroke-dasharray:none" />
    <circle
       cx="198.5"
       cy="53.5"
       r="30.5"
       fill="#528A51"
       id="circle12"
       style="fill:#28353e;fill-opacity:1;stroke:#ffffff;stroke-opacity:1;stroke-width:3;stroke-dasharray:none" />
    <path
       style="opacity:1;fill:#28353e;fill-opacity:1;stroke:#ffffff;stroke-width:3;stroke-opacity:1;stroke-dasharray:none"
       d="m 70.922947,99.970463 c 0,0 7.512245,-5.194667 11.991311,-7.069057 4.479065,-1.874391 9.546162,-3.198558 14.883081,-3.557622 4.470621,-0.30078 8.806161,0.157277 13.312521,1.24287 4.50637,1.085595 13.72565,4.651028 13.72565,4.651028 0,0 -4.39805,2.693521 -8.31094,6.360568 -3.9129,3.66706 -7.34064,8.30765 -9.32457,11.78866 -1.98393,3.48102 -2.93302,4.77799 -4.05742,9.64565 -1.1244,4.86765 -2.9036,9.30022 -2.32084,13.77073 1.55972,9.74067 3.08785,16.49364 5.91324,22.03685 2.82539,5.54321 6.79314,10.23812 11.06324,14.52004 0,0 -6.97088,3.1276 -10.37887,5.44016 -3.40799,2.31256 -9.914124,8.07374 -9.914124,8.07374 0,0 -4.967353,-5.35397 -7.864141,-7.61785 -2.896786,-2.26387 -9.310025,-5.81048 -9.310025,-5.81048 0,0 6.745734,-6.11751 10.3542,-13.61143 3.608466,-7.49392 3.873109,-16.51917 4.543561,-23.05761 0.410058,-3.999 -1.078779,-7.17247 -2.401433,-11.85849 -1.322654,-4.68602 -3.095737,-6.8856 -5.104015,-9.95279 -2.008279,-3.06719 -4.607584,-6.35118 -8.30562,-9.33313 -3.698037,-2.98194 -8.494806,-5.661837 -8.494806,-5.661837 z"
       id="path359"
       sodipodi:nodetypes="cssscssscscscscsssssc" />
    <path
       style="opacity:1;fill:#28353e;fill-opacity:1;stroke:#ffffff;stroke-width:3;stroke-dasharray:none;stroke-opacity:1"
       d="m 77.045033,259.74297 c 0,0 -0.10036,-29.79024 1.930764,-40.6688 2.031125,-10.87857 10.182956,-24.01837 10.182956,-24.01837 0,0 -2.890189,-2.90202 -6.731139,-5.95901 -3.84095,-3.057 -8.559632,-4.95446 -11.778448,-6.45068 -6.437632,-2.99245 -20.043179,-4.59566 -20.043179,-4.59566 0,0 -11.437311,1.34505 -19.622398,4.48235 -8.185088,3.13731 -13.264008,7.77478 -17.48978,11.14636 -8.4515494,6.74316 -12.9398324,24.83027 -12.9398324,24.83027 l -0.0125297,32.26979 c 0,0 4.5787752,4.61154 10.6656301,6.47914 6.086857,1.8676 25.19825,4.65344 25.19825,4.65344 l 20.904079,0.15707 c 6.782731,0.051 19.735627,-2.3259 19.735627,-2.3259 z"
       id="path12963"
       sodipodi:nodetypes="cscsscssccscsc" />
    <path
       style="opacity:1;fill:#28353e;fill-opacity:1;stroke:#ffffff;stroke-width:3;stroke-opacity:1;stroke-dasharray:none"
       d="m 89.021422,260.78384 0.292113,-33.37391 c 0,0 0.791139,-5.11197 2.277568,-9.78578 1.48643,-4.67381 3.668149,-8.90945 5.280856,-11.83058 3.225411,-5.84225 11.794061,-13.43719 11.794061,-13.43719 0,0 6.23174,-5.62317 13.03554,-7.96008 3.4019,-1.16845 9.61843,-3.7792 15.71476,-5.00243 6.09634,-1.22322 12.07248,-1.05891 12.07248,-1.05891 0,0 5.0998,-1.25974 13.05836,0.87177 8.94455,2.74966 15.87,4.61838 22.74887,8.90069 6.87886,4.28232 13.71113,10.97825 18.67184,18.70855 4.658,7.22163 6.79162,20.88608 6.79162,20.88608 l 0.14606,32.64362 c 0,0 -2.36125,4.50341 -9.89533,6.75511 -3.76704,1.12585 -10.11136,3.2528 -17.99689,4.66011 -7.88553,1.40732 -17.31226,2.095 -17.31226,2.095 l -31.5482,-0.21908 c 0,0 -9.8223,-0.57815 -18.02885,-2.08131 -8.20654,-1.50317 -14.79734,-3.93135 -18.558292,-5.00243 -7.521908,-2.14217 -8.544306,-5.76923 -8.544306,-5.76923 z"
       id="path16632"
       sodipodi:nodetypes="ccsscssccscccssccssc" />
  </g>
</svg>
