<?xml version="1.0" encoding="UTF-8" standalone="no"?>
<!-- Created with Inkscape (http://www.inkscape.org/) -->

<svg
   width="320mm"
   height="200mm"
   viewBox="0 0 320 200"
   version="1.1"
   id="svg1"
   xml:space="preserve"
   xmlns="http://www.w3.org/2000/svg"
   xmlns:svg="http://www.w3.org/2000/svg"><defs
     id="defs1" /><g
     id="layer1"
     transform="matrix(0.84598289,0,0,0.84598289,75.198,14.668918)"><rect
       style="fill:none;stroke:#000000;stroke-width:9.29994;stroke-linejoin:bevel;paint-order:markers fill stroke"
       id="rect1"
       width="368.41821"
       height="226.58716"
       x="-83.883766"
       y="-12.334939"
       rx="29.133284"
       ry="28.991531"
       transform="translate(-1.0589261e-6)" /><path
       d="m 12000,12520 c -192,-27 -395,-98 -655,-230 -446,-225 -961,-590 -1620,-1149 C 8799,10356 7567,9141 6259,7725 5598,7008 4870,6188 4346,5568 c -87,-104 -159,-188 -160,-188 -1,0 -67,34 -146,76 -255,134 -875,442 -1078,536 -849,391 -1441,595 -1912,659 -134,18 -368,13 -479,-10 C 347,6593 166,6460 76,6275 24,6171 7,6092 6,5965 5,5860 7,5852 38,5788 67,5729 93,5701 273,5534 711,5127 1192,4630 1546,4219 2338,3298 3171,2052 4125,361 4293,64 4359,6 4530,6 c 66,0 96,5 132,21 113,51 158,111 238,313 135,341 398,964 565,1335 1285,2866 2820,5295 4654,7365 520,587 971,1049 1821,1866 665,640 790,788 844,1005 81,328 -187,601 -604,614 -63,2 -144,0 -180,-5 z"
       id="path1-6"
       transform="matrix(0.00794342,0,0,-0.00794342,161.55865,199.15349)" /><g
       id="g1"><rect
         style="fill:none;stroke:#000000;stroke-width:5.15835;stroke-linejoin:bevel;stroke-dasharray:none;stroke-opacity:1;paint-order:markers fill stroke"
         id="rect3"
         width="144.04434"
         height="3.9362314"
         x="3.3224247"
         y="193.53865"
         rx="3.0060015"
         ry="1.244791" /><path
         style="fill:none;stroke:#000000;stroke-width:7;stroke-linejoin:bevel;stroke-dasharray:none;stroke-opacity:1;paint-order:markers fill stroke"
         d="m 122.64129,25.192078 c -0.11565,-1.341242 1.54539,-3.481175 3.40925,-5.913592 1.86385,-2.432416 4.9636,-6.505536 6.96807,-9.212602 2.00447,-2.7070662 3.24998,-4.490009 4.81571,-4.8315321 1.56572,-0.341523 3.45164,0.758374 12.37207,4.7433941 8.92043,3.98502 26.27544,11.458028 34.30078,14.947058 8.02534,3.489031 9.80895,4.33657 10.69391,5.526523 0.88495,1.189953 1.01515,2.790693 1.03427,6.352325 0.0191,3.561631 -0.0728,9.084151 -0.871,13.077699 -0.79818,3.993548 -2.3026,6.458122 -4.61059,7.324376 -2.30798,0.866253 -5.16204,0.194759 -16.95973,-5.349163 C 161.99634,46.312642 145.16163,37.743793 134.80161,32.5197 124.44158,27.295608 122.75694,26.533321 122.64129,25.192078 Z"
         id="path1"
         transform="translate(-1.0589261e-6)" /><path
         style="fill:none;stroke:#000000;stroke-width:7;stroke-linejoin:bevel;stroke-dasharray:none;stroke-opacity:1;paint-order:markers fill stroke"
         d="m 61.855572,136.42897 c 1.396773,-2.62411 4.03838,-5.20706 7.712365,-8.02363 3.673984,-2.81657 8.357123,-5.84406 12.559024,-8.41951 4.201901,-2.57544 7.922564,-4.69886 10.381229,-5.76291 2.458664,-1.06406 3.655325,-1.06876 3.999382,-1.2382 0.344057,-0.16944 -0.164495,-0.50362 -0.237493,-1.12992 -0.073,-0.62631 0.289555,-1.54473 1.298677,-3.60938 1.009123,-2.06465 2.664814,-5.27552 4.254004,-7.71992 1.58919,-2.444398 3.11187,-4.122319 4.46662,-5.567219 1.35474,-1.444901 2.54155,-2.656782 3.81002,-3.920253 1.26848,-1.263471 2.61864,-2.578544 2.51879,-3.18836 -0.0999,-0.609816 -1.6497,-0.51438 -3.18492,-0.53992 -1.53521,-0.02554 -3.05578,-0.172056 -5.18806,-0.588704 -2.13228,-0.416648 -4.876271,-1.103427 -7.92315,-2.698183 -3.04688,-1.594757 -6.396645,-4.097491 -7.80627,-4.685748 -1.409625,-0.588257 -0.87911,0.737963 -1.986456,2.600696 -1.107345,1.862734 -3.852552,4.261981 -7.584261,6.63591 -3.731709,2.37393 -8.44992,4.722542 -11.700827,5.923397 -3.250906,1.200856 -5.034507,1.253955 -4.495358,2.346549 0.53915,1.092594 3.40105,3.224685 5.025118,5.457175 1.624069,2.23249 2.010304,4.56538 2.631399,6.32423 0.621095,1.75885 1.477054,2.94367 1.334476,3.53214 -0.142577,0.58847 -1.283684,0.58061 -5.680627,0.55033 -4.396944,-0.0303 -12.049723,-0.0829 -16.698283,-1.57874 -4.64856,-1.49579 -6.292901,-4.43469 -7.336796,-6.78535 -1.043896,-2.35065 -1.487345,-4.11306 -1.5665,-6.158294 -0.07916,-2.045234 0.205984,-4.373292 1.251043,-7.040889 1.04506,-2.667596 2.850039,-5.674731 6.188643,-11.262883 3.338603,-5.588152 8.210831,-13.757319 11.121719,-18.331611 2.910888,-4.574292 3.860436,-5.553708 5.097797,-6.412874 1.237361,-0.859165 2.834038,-1.632723 5.523158,-2.697511 2.68912,-1.064787 6.567941,-2.473474 12.144936,-4.588845 5.576994,-2.115372 11.80343,-4.546258 16.421054,-6.285435 4.617625,-1.739177 10.057855,-3.695682 15.274955,-5.716739 5.21709,-2.021057 10.44823,-4.178856 15.80338,-6.387807 16.83016,8.455481 33.66033,16.910967 50.49049,25.366448 -5.98545,12.518574 -11.9709,25.037148 -16.88565,34.516658 -4.91475,9.47951 -8.75881,15.919962 -13.16842,21.724322 -4.40961,5.80437 -9.38477,10.97265 -14.22651,14.80545 -4.84173,3.8328 -9.55003,6.33013 -13.27306,7.9367 -3.72302,1.60657 -6.46077,2.3224 -10.4456,4.29112 -3.98482,1.96872 -9.21672,5.19034 -14.490258,8.59328 -5.27354,3.40294 -10.588727,6.98721 -14.707719,8.95457 -4.118992,1.96737 -7.041793,2.31784 -9.464689,1.88653 -2.422896,-0.4313 -4.345892,-1.64439 -6.069169,-2.89075 -1.723277,-1.24637 -3.246837,-2.52601 -4.345755,-4.26822 -1.098918,-1.74221 -1.773194,-3.94699 -2.057428,-6.36323 -0.284235,-2.41624 -0.181793,-4.96036 1.21498,-7.58447 z"
         id="path2"
         transform="translate(-1.0589261e-6)" /><path
         id="rect2"
         style="fill:none;stroke:#000000;stroke-width:7.91474;stroke-linejoin:bevel;stroke-opacity:1;paint-order:markers fill stroke"
         d="m 129.81896,131.0632 -0.516,61.80333 c -0.0139,1.66194 -0.822,2.828 -2.484,2.828 H 24.196156 c -1.662,0 -3,-1.338 -3,-3 v -76.99495 c 0,-1.662 1.338019,-2.99212 3,-3 l 72.553253,-0.344"
         transform="translate(-1.0589261e-6)" /></g></g></svg>
