<?xml version="1.0" encoding="UTF-8" standalone="no"?>
<svg
   width="34"
   height="34"
   viewBox="0 0 34 34"
   class="overview__war-icon"
   fill="none"
   version="1.1"
   id="svg1"
   xmlns="http://www.w3.org/2000/svg"
   xmlns:svg="http://www.w3.org/2000/svg">
  <defs
     id="defs1" />
  <circle
     cx="17"
     cy="17"
     r="16.5"
     stroke="var(--c10two)"
     id="circle1"
     style="fill:none;stroke:#000000;stroke-opacity:1" />
  <g
     id="_Group_"
     data-name="&lt;Group&gt;"
     transform="matrix(0.62847395,0,0,0.62847395,0.02146112,1.4829787)">
    <ellipse
       id="_Ellipse_"
       data-name="&lt;Ellipse&gt;"
       class="cls-1"
       cx="24"
       cy="45.419998"
       rx="7.9000001"
       ry="1.58"
       style="opacity:0.15;fill:#45413c" />
    <path
       id="_Path_"
       data-name="&lt;Path&gt;"
       class="cls-2"
       d="M 33.31,12.94 C 33.31,7 29.14,2.88 24,2.88 c -5.14,0 -9.31,4.12 -9.31,10.06 0,5.37 5.16,11.23 8.39,12.27 l -0.74,1.7 a 0.65,0.65 0 0 0 0.59,0.91 h 2.14 a 0.65,0.65 0 0 0 0.59,-0.91 l -0.74,-1.7 c 3.23,-1.04 8.39,-6.9 8.39,-12.27 z"
       style="fill:#ff2a2a" />
    <g
       id="_Group_2"
       data-name="&lt;Group&gt;">
      <path
         id="_Path_2"
         data-name="&lt;Path&gt;"
         class="cls-3"
         d="m 24,7.27 c 4.64,0 8.48,2.85 9.18,7.08 a 9.6,9.6 0 0 0 0.13,-1.41 C 33.31,7 29.14,2.88 24,2.88 18.86,2.88 14.69,7 14.69,12.94 a 9.6,9.6 0 0 0 0.13,1.41 C 15.52,10.12 19.36,7.27 24,7.27 Z"
         style="fill:#ff5555" />
    </g>
    <path
       id="_Path_3"
       data-name="&lt;Path&gt;"
       class="cls-4"
       d="M 33.31,12.94 C 33.31,7 29.14,2.88 24,2.88 c -5.14,0 -9.31,4.12 -9.31,10.06 0,5.37 5.16,11.23 8.39,12.27 l -0.74,1.7 a 0.65,0.65 0 0 0 0.59,0.91 h 2.14 a 0.65,0.65 0 0 0 0.59,-0.91 l -0.74,-1.7 c 3.23,-1.04 8.39,-6.9 8.39,-12.27 z"
       style="fill:none;stroke:#45413c;stroke-linecap:round;stroke-linejoin:round" />
    <path
       id="_Path_4"
       data-name="&lt;Path&gt;"
       class="cls-4"
       d="m 24,27.82 c 0,6.34 8,7.18 11.78,10.35 3.78,3.17 3.56,6.33 3.56,6.33"
       style="fill:none;stroke:#45413c;stroke-linecap:round;stroke-linejoin:round" />
  </g>
</svg>
