<svg width="17" height="17" viewBox="0 0 17 17" fill="none" xmlns="http://www.w3.org/2000/svg">
<path d="M15.6093 7.05053L8.95261 0.39377C8.42758 -0.131257 7.57607 -0.131257 7.05104 0.39377C6.52602 0.918796 6.52602 1.77031 7.05104 2.29533L12.7564 8.00065L7.05104 13.7059C6.52602 14.231 6.52602 15.0825 7.05104 15.6075C7.57607 16.1325 8.42758 16.1325 8.95261 15.6075L15.6093 8.95076C16.1344 8.42704 16.1344 7.57556 15.6093 7.05053ZM7.60538 6.64743L2.3205 1.07738C1.78946 0.518391 0.92932 0.518391 0.39828 1.07738C-0.13276 1.63638 -0.13276 2.54319 0.39828 3.10286L4.7224 7.66017L0.39828 12.2175C-0.13276 12.7765 -0.13276 13.6839 0.39828 14.243C0.92932 14.802 1.78946 14.802 2.3205 14.243L7.60538 8.67291C8.13642 8.11392 8.13642 7.20711 7.60538 6.64743Z" fill="#DDDDDD"/>
</svg>
