<svg width="12" height="10" viewBox="0 0 12 10" fill="none" xmlns="http://www.w3.org/2000/svg">
<path d="M7.32689 1.86943V1.11688C7.32689 -0.327858 0.739746 -0.327858 0.739746 1.11688V5.51857C0.739746 6.08651 1.76494 6.44056 2.99828 6.56642C2.54716 6.74187 2.25986 6.97886 2.25986 7.27924V8.59976C2.25986 9.32213 3.91678 9.70017 5.55344 9.70017C7.19011 9.70017 8.84703 9.32211 8.84703 8.59976V7.93585C10.3969 7.8989 11.8873 7.52416 11.8873 6.83909V2.87757C11.8872 1.96549 9.26276 1.6299 7.32689 1.86943ZM4.03333 0.472726C5.83649 0.472726 6.8202 0.908043 6.8202 1.13183C6.8202 1.35562 5.83647 1.79093 4.03333 1.79093C2.23019 1.79093 1.24647 1.35562 1.24647 1.13183C1.24644 0.908063 2.23017 0.472726 4.03333 0.472726ZM1.24644 1.74321C1.86121 2.06407 2.95016 2.23035 4.03331 2.23035C5.11646 2.23035 6.20543 2.06407 6.8202 1.74321V1.96154C5.93974 2.13086 5.30008 2.44009 5.30008 2.88945V3.01944C4.90303 3.07468 4.47442 3.10914 4.03333 3.10914C2.23017 3.10914 1.24647 2.67382 1.24647 2.45004V1.74321H1.24644ZM5.80678 6.13722C5.855 6.16237 5.90516 6.18682 5.959 6.21005C5.90829 6.20822 5.85768 6.20643 5.80678 6.20528V6.13722ZM1.24644 3.06142C1.86121 3.38227 2.95016 3.54855 4.03331 3.54855C4.47186 3.54855 4.89813 3.5144 5.30006 3.46234V4.55735C4.903 4.61259 4.4744 4.64705 4.03331 4.64705C2.23015 4.64705 1.24644 4.21174 1.24644 3.98795V3.06142ZM1.24644 5.52586V4.59933C1.86121 4.92019 2.95016 5.08647 4.03331 5.08647C4.47186 5.08647 4.89813 5.05232 5.30006 5.00025V6.09527C4.903 6.15051 4.4744 6.18497 4.03331 6.18497C2.23017 6.18497 1.24644 5.74963 1.24644 5.52586ZM8.34031 8.60167C8.34031 8.82546 7.35658 9.26078 5.55344 9.26078C3.75031 9.26078 2.76655 8.82546 2.76655 8.60167V7.89483C3.38132 8.21568 4.47027 8.38196 5.55342 8.38196C6.59023 8.38196 7.63376 8.23 8.26043 7.93565C8.28675 7.93651 8.31385 7.93662 8.34028 7.93732V8.60167H8.34031ZM5.55344 7.94257C3.75028 7.94257 2.76658 7.50725 2.76658 7.28347C2.76658 7.05968 3.75031 6.62436 5.55344 6.62436C7.35658 6.62436 8.34031 7.05968 8.34031 7.28347C8.34031 7.50725 7.35658 7.94257 5.55344 7.94257ZM11.3805 6.84407C11.3805 7.05671 10.4828 7.45597 8.847 7.49555V7.28347C8.847 7.00897 8.60747 6.7871 8.22107 6.61709C8.34496 6.62144 8.46923 6.62436 8.59364 6.62436C9.6768 6.62436 10.7658 6.45808 11.3805 6.13722V6.84407H11.3805ZM11.3805 5.52586C11.3805 5.74965 10.3968 6.18497 8.59367 6.18497C6.79053 6.18497 5.8068 5.74965 5.8068 5.52586V4.81902C6.42155 5.13988 7.51052 5.30616 8.59367 5.30616C9.67682 5.30616 10.7658 5.13988 11.3805 4.81902V5.52586ZM11.3805 4.20766C11.3805 4.43144 10.3968 4.86676 8.59367 4.86676C6.79053 4.86676 5.8068 4.43144 5.8068 4.20766V3.50081C6.42155 3.82167 7.51052 3.98795 8.59367 3.98795C9.67682 3.98795 10.7658 3.82167 11.3805 3.50081V4.20766ZM8.59367 3.54855C6.79051 3.54855 5.8068 3.11324 5.8068 2.88945C5.8068 2.66567 6.79053 2.23035 8.59367 2.23035C10.3968 2.23035 11.3805 2.66567 11.3805 2.88945C11.3805 3.11324 10.3968 3.54855 8.59367 3.54855Z" fill="#DDDDDD"/>
</svg>
