<svg width="12" height="11" viewBox="0 0 12 11" fill="none" xmlns="http://www.w3.org/2000/svg">
<g clip-path="url(#clip0)">
<path d="M3.34089 8.51161C2.45133 7.63788 1.90741 6.50565 1.78112 5.2843C1.30833 5.88196 1.05198 6.61498 1.05316 7.3843C1.05396 7.88467 1.16658 8.38205 1.37999 8.83183L0.939941 10.1125C0.864295 10.3326 0.919553 10.5716 1.08417 10.7363C1.20001 10.8521 1.35274 10.9138 1.50982 10.9138C1.5759 10.9138 1.64276 10.9029 1.70797 10.8805L2.98863 10.4404C3.43841 10.6538 3.93579 10.7665 4.43616 10.7673C5.22054 10.7683 5.96706 10.5022 6.57088 10.0117C5.35675 9.90184 4.22416 9.37913 3.34089 8.51161Z" fill="#DDDDDD"/>
<path d="M11.867 8.63335L11.2281 6.77405C11.5361 6.14451 11.6988 5.44438 11.6999 4.73992C11.7018 3.51503 11.2279 2.35687 10.3655 1.4788C9.50287 0.600541 8.35341 0.106184 7.1288 0.0867839C5.85896 0.066696 4.66538 0.549709 3.76804 1.44703C2.8707 2.34437 2.3876 3.53793 2.40771 4.80783C2.42711 6.03243 2.92146 7.18191 3.79968 8.04451C4.67603 8.90526 5.83125 9.37903 7.05352 9.37899C7.05592 9.37899 7.05846 9.37899 7.06082 9.37899C7.7653 9.37789 8.46543 9.21515 9.09497 8.90719L10.9543 9.54609C11.0318 9.57271 11.1112 9.58569 11.1898 9.58569C11.3764 9.58569 11.5579 9.51239 11.6956 9.37467C11.8912 9.17903 11.9569 8.89501 11.867 8.63335ZM7.50239 6.34496H5.10316C4.92235 6.34496 4.77578 6.19837 4.77578 6.01758C4.77578 5.83677 4.92237 5.6902 5.10316 5.6902H7.50237C7.68318 5.6902 7.82975 5.83679 7.82975 6.01758C7.82975 6.19839 7.6832 6.34496 7.50239 6.34496ZM9.00389 4.99855H5.10318C4.92237 4.99855 4.77581 4.85196 4.77581 4.67117C4.77581 4.49038 4.92239 4.34379 5.10318 4.34379H9.00389C9.18471 4.34379 9.33127 4.49038 9.33127 4.67117C9.33127 4.85196 9.18471 4.99855 9.00389 4.99855ZM9.00389 3.6521H5.10318C4.92237 3.6521 4.77581 3.50551 4.77581 3.32472C4.77581 3.14391 4.92239 2.99734 5.10318 2.99734H9.00389C9.18471 2.99734 9.33127 3.14393 9.33127 3.32472C9.33127 3.50551 9.18471 3.6521 9.00389 3.6521Z" fill="#DDDDDD"/>
</g>
<defs>
<clipPath id="clip0">
<rect width="11" height="11" fill="white" transform="translate(0.906616)"/>
</clipPath>
</defs>
</svg>
