<svg width="11" height="11" viewBox="0 0 11 11" fill="none" xmlns="http://www.w3.org/2000/svg">
<path d="M10.9788 6.02931C10.88 4.99442 10.4362 4.01877 9.72907 3.28207C9.12474 2.65254 8.38507 2.24799 7.60676 2.0681V1.49943C7.92465 1.41704 8.16094 1.11728 8.16094 0.760982C8.16094 0.341368 7.83326 0 7.43046 0H5.88356C5.48077 0 5.15308 0.341368 5.15308 0.760982C5.15308 1.11726 5.38937 1.41702 5.70724 1.49943V2.06969C4.93132 2.25034 4.19409 2.65433 3.59149 3.28209C3.45962 3.41947 3.33801 3.56359 3.2267 3.71337C3.22131 3.71294 3.21592 3.71252 3.21042 3.71252H1.67939C1.56076 3.71252 1.46455 3.81272 1.46455 3.93634C1.46455 4.05995 1.56076 4.16016 1.67939 4.16016H2.93436C2.77683 4.43489 2.64982 4.72342 2.55313 5.02042H0.214847C0.0962085 5.02042 0 5.12063 0 5.24424C0 5.36786 0.0962085 5.46806 0.214847 5.46806H2.43172C2.36981 5.75121 2.33427 6.03938 2.3251 6.32835H1.37502C1.25638 6.32835 1.16017 6.42856 1.16017 6.55217C1.16017 6.67579 1.25638 6.77599 1.37502 6.77599H2.33195C2.35008 7.0657 2.39479 7.35389 2.4661 7.63628H1.07423C0.955596 7.63628 0.859388 7.73648 0.859388 7.8601C0.859388 7.98371 0.955596 8.08392 1.07423 8.08392H2.60321C2.81398 8.66475 3.14336 9.20914 3.59149 9.67598C4.29932 10.4134 5.23683 10.8758 6.23127 10.9782C6.3732 10.9928 6.51523 11 6.65708 11C7.49545 11 8.32317 10.7472 9.02551 10.2708C9.12494 10.2033 9.15306 10.0647 9.08831 9.96108C9.02355 9.8575 8.89045 9.8282 8.79102 9.89566C7.25364 10.9386 5.1947 10.7131 3.89533 9.35946C2.37073 7.7712 2.37073 5.18692 3.89533 3.59864C5.4199 2.0104 7.90059 2.0104 9.42521 3.59864C10.7229 4.9505 10.9405 7.09359 9.94269 8.69438C9.87806 8.79805 9.90636 8.93669 10.0059 9.00399C10.1054 9.07131 10.2384 9.04184 10.3031 8.93816C10.8362 8.08284 11.0762 7.04981 10.9788 6.02931ZM5.58278 0.761005C5.58278 0.588217 5.7177 0.447659 5.88356 0.447659H7.43046C7.59632 0.447659 7.73125 0.588217 7.73125 0.761005C7.73125 0.933793 7.59632 1.07435 7.43046 1.07435H7.39192H5.92208H5.88356C5.7177 1.07435 5.58278 0.93377 5.58278 0.761005ZM6.13693 1.99274V1.52199H7.17707V1.99194C6.83168 1.94914 6.48226 1.94941 6.13693 1.99274Z" fill="#747474"/>
<path d="M9.57739 9.29395C9.52067 9.29395 9.46546 9.31789 9.42552 9.35952C9.38534 9.40115 9.36255 9.4589 9.36255 9.51776C9.36255 9.57662 9.38534 9.63437 9.42552 9.676C9.46546 9.71785 9.5207 9.74158 9.57739 9.74158C9.6339 9.74158 9.68911 9.71785 9.72929 9.676C9.76925 9.63437 9.79224 9.57662 9.79224 9.51776C9.79224 9.4589 9.76927 9.40115 9.72929 9.35952C9.68911 9.31789 9.63387 9.29395 9.57739 9.29395Z" fill="#747474"/>
<path d="M6.66078 3.00735C4.82302 3.00735 3.32788 4.56491 3.32788 6.47943C3.32788 8.39395 4.82302 9.9515 6.66078 9.9515C8.49854 9.9515 9.99368 8.39395 9.99368 6.47943C9.99368 4.56491 8.49854 3.00735 6.66078 3.00735ZM6.66078 9.50386C5.05993 9.50386 3.75757 8.1471 3.75757 6.47943C3.75757 4.81176 5.05993 3.45499 6.66078 3.45499C8.26163 3.45499 9.56399 4.81176 9.56399 6.47943C9.56399 8.1471 8.26163 9.50386 6.66078 9.50386Z" fill="#747474"/>
<path d="M8.01918 4.74695L6.95505 5.8555C6.86606 5.80966 6.76596 5.78376 6.66015 5.78376C6.55431 5.78376 6.45424 5.80966 6.36525 5.8555L5.889 5.35936C5.80508 5.27196 5.66908 5.27196 5.58514 5.35936C5.50124 5.44676 5.50124 5.58848 5.58514 5.67588L6.06139 6.17202C6.01737 6.26473 5.99253 6.369 5.99253 6.47923C5.99253 6.86273 6.29201 7.17473 6.66015 7.17473C7.02829 7.17473 7.32776 6.86273 7.32776 6.47923C7.32776 6.369 7.30291 6.26473 7.25891 6.17202L8.2918 5.09599L8.32302 5.06347C8.40692 4.97607 8.40692 4.83435 8.32302 4.74695C8.23912 4.65955 8.10312 4.65955 8.01918 4.74695ZM6.66015 6.72711C6.52896 6.72711 6.42223 6.61592 6.42223 6.47926C6.42223 6.34259 6.52896 6.2314 6.66015 6.2314C6.79133 6.2314 6.89807 6.34259 6.89807 6.47926C6.89807 6.61592 6.79133 6.72711 6.66015 6.72711Z" fill="#747474"/>
<path d="M8.95809 6.25815H8.75903C8.6404 6.25815 8.54419 6.35835 8.54419 6.48196C8.54419 6.60558 8.6404 6.70578 8.75903 6.70578H8.95809C9.07672 6.70578 9.17293 6.60558 9.17293 6.48196C9.17293 6.35835 9.07672 6.25815 8.95809 6.25815Z" fill="#747474"/>
<path d="M4.56231 6.25256H4.36328C4.24464 6.25256 4.14844 6.35277 4.14844 6.47638C4.14844 6.59999 4.24464 6.70019 4.36328 6.70019H4.56231C4.68095 6.70019 4.77716 6.59999 4.77716 6.47638C4.77716 6.35277 4.68095 6.25256 4.56231 6.25256Z" fill="#747474"/>
<path d="M6.66333 4.51746C6.78197 4.51746 6.87817 4.41726 6.87817 4.29364V4.0863C6.87817 3.96269 6.78197 3.86249 6.66333 3.86249C6.54469 3.86249 6.44849 3.96269 6.44849 4.0863V4.29364C6.44849 4.41726 6.54469 4.51746 6.66333 4.51746Z" fill="#747474"/>
<path d="M6.65747 8.44104C6.53883 8.44104 6.44263 8.54124 6.44263 8.66485V8.8722C6.44263 8.99581 6.53883 9.09601 6.65747 9.09601C6.77611 9.09601 6.87231 8.99581 6.87231 8.8722V8.66485C6.87231 8.54124 6.77611 8.44104 6.65747 8.44104Z" fill="#747474"/>
<path d="M0.214844 7.63666C0.15834 7.63666 0.10291 7.66061 0.0629492 7.70224C0.0229883 7.74386 0 7.80161 0 7.86047C0 7.91956 0.0229668 7.97708 0.0629492 8.01871C0.102932 8.06034 0.15834 8.08429 0.214844 8.08429C0.271348 8.08429 0.326777 8.06034 0.366717 8.01871C0.406678 7.97708 0.429687 7.91934 0.429687 7.86047C0.429687 7.80161 0.406699 7.74386 0.366717 7.70224C0.326777 7.66061 0.271348 7.63666 0.214844 7.63666Z" fill="#747474"/>
</svg>
