<svg width="12" height="11" viewBox="0 0 12 11" fill="none" xmlns="http://www.w3.org/2000/svg">
<g clip-path="url(#clip0)">
<path d="M4.1267 1.22766C3.01959 1.22766 2.1189 2.18264 2.1189 3.35646C2.1189 4.53028 3.01959 5.48526 4.1267 5.48526C5.23381 5.48526 6.13452 4.53028 6.13452 3.35646C6.13452 2.18264 5.23383 1.22766 4.1267 1.22766Z" fill="#DDDDDD"/>
<path d="M8.69145 1.53235C8.68692 1.53235 8.68232 1.53237 8.67779 1.53239C8.21316 1.53624 7.77918 1.73241 7.4558 2.08482C7.13809 2.431 6.96533 2.88769 6.96931 3.37074C6.9733 3.8538 7.15358 4.30757 7.47694 4.64848C7.80286 4.99204 8.23458 5.18072 8.69405 5.18072C8.69867 5.18072 8.70329 5.18069 8.70793 5.18067C9.17255 5.17683 9.60653 4.98063 9.92992 4.62825C10.2476 4.28207 10.4204 3.82537 10.4164 3.3423C10.4081 2.34126 9.63567 1.53235 8.69145 1.53235Z" fill="#DDDDDD"/>
<path d="M8.77628 5.52917H8.60956C7.83312 5.52917 7.12456 5.82437 6.5896 6.3082C6.72345 6.41089 6.85085 6.52283 6.97159 6.64357C7.3278 6.99978 7.60753 7.41486 7.80304 7.8772C7.97921 8.29357 8.07976 8.73228 8.10318 9.1841H11.7897V8.54236C11.7897 6.88097 10.4379 5.52917 8.77628 5.52917Z" fill="#DDDDDD"/>
<path d="M7.45723 9.1841C7.39643 8.20463 6.89992 7.34311 6.15893 6.79096C5.61988 6.3892 4.95129 6.15137 4.22705 6.15137H4.02639C2.23867 6.15139 0.789551 7.60049 0.789551 9.3882V9.77234H7.46367V9.3882C7.46367 9.31967 7.46152 9.25156 7.45723 9.1841Z" fill="#DDDDDD"/>
</g>
<defs>
<clipPath id="clip0">
<rect width="11" height="11" fill="white" transform="translate(0.789551)"/>
</clipPath>
</defs>
</svg>
