<svg width="18" height="10" viewBox="0 0 18 10" fill="none" xmlns="http://www.w3.org/2000/svg">
<path d="M11.4348 8.88156L9.84195 5.75657C9.56496 5.26315 8.94169 4.9342 8.24915 4.9342H3.81703C3.12452 4.9342 2.50125 5.26315 2.22422 5.75657L0.492932 8.93637C0.423691 9.04603 0.492932 9.10085 0.492932 9.2105C0.492932 9.32016 0.631447 9.32016 0.769929 9.32016H11.1577C11.3655 9.32016 11.504 9.2105 11.504 9.04603C11.504 8.99119 11.504 8.93637 11.4348 8.88156ZM7.76439 6.57893H4.02478L3.263 8.05919C3.19376 8.16885 3.05525 8.22367 2.91673 8.22367C2.84749 8.22367 2.84749 8.22367 2.77822 8.22367C2.57046 8.16885 2.50122 8.00438 2.57046 7.8399L3.47073 6.19517C3.53997 6.08552 3.67848 6.0307 3.817 6.0307H7.76436C7.97212 6.0307 8.11063 6.14036 8.11063 6.30483C8.11066 6.46928 7.97215 6.57893 7.76439 6.57893Z" fill="#CDD018"/>
<path d="M14.274 3.94735L12.612 0.822365C12.335 0.328946 11.7117 0 11.0192 0H6.58705C5.89454 0 5.27127 0.328946 4.99424 0.822365L3.26295 4.00217C3.19371 4.11182 3.26295 4.16664 3.26295 4.2763C3.26295 4.38595 3.47071 4.38595 3.60922 4.38595H13.997C14.2048 4.38595 14.3433 4.2763 14.3433 4.11182C14.3433 4.05698 14.3433 4.00217 14.274 3.94735ZM10.5344 1.64473H6.7948L6.03302 3.12499C5.96378 3.23464 5.82527 3.28946 5.68675 3.28946C5.61751 3.28946 5.61751 3.28946 5.54824 3.28946C5.34048 3.23464 5.27124 3.07017 5.34048 2.9057L6.24074 1.26097C6.30999 1.15131 6.4485 1.09649 6.58702 1.09649H10.5344C10.7421 1.09649 10.8807 1.20615 10.8807 1.37063C10.8807 1.53507 10.7422 1.64473 10.5344 1.64473Z" fill="#CDD018"/>
<path d="M17.1135 8.93637L15.3822 5.75657C15.1052 5.26315 14.4819 4.9342 13.7894 4.9342H10.673C10.5345 4.9342 10.4653 4.98902 10.396 5.09868C10.3268 5.20833 10.3268 5.26315 10.396 5.37281C10.4653 5.42762 10.4653 5.48246 10.5346 5.5921L10.8116 6.08552H13.3739C13.5816 6.08552 13.7201 6.19517 13.7201 6.35965C13.7201 6.52412 13.5816 6.63378 13.3739 6.63378H11.0886L12.2659 8.77192C12.3351 8.88158 12.3351 8.9364 12.3351 9.10087C12.3351 9.15569 12.3351 9.21053 12.4043 9.21053C12.4736 9.32018 12.6121 9.375 12.7506 9.375H16.9057C17.0442 9.375 17.1135 9.32018 17.1827 9.26534C17.1135 9.10084 17.1135 9.04603 17.1135 8.93637Z" fill="#CDD018"/>
</svg>
