<svg width="11" height="11" viewBox="0 0 11 11" fill="none" xmlns="http://www.w3.org/2000/svg">
<path d="M8.45168 5.79456H4.76221C4.67322 5.79456 4.60107 5.8667 4.60107 5.95569C4.60107 6.04468 4.67322 6.11682 4.76221 6.11682H8.45168C8.54067 6.11682 8.61281 6.04468 8.61281 5.95569C8.61281 5.8667 8.54067 5.79456 8.45168 5.79456Z" fill="#DDDDDD"/>
<path d="M8.45168 6.48914H4.76221C4.67322 6.48914 4.60107 6.56128 4.60107 6.65027C4.60107 6.73926 4.67322 6.8114 4.76221 6.8114H8.45168C8.54067 6.8114 8.61281 6.73926 8.61281 6.65027C8.61281 6.56128 8.54067 6.48914 8.45168 6.48914Z" fill="#DDDDDD"/>
<path d="M8.45168 7.18359H4.76221C4.67322 7.18359 4.60107 7.25574 4.60107 7.34473C4.60107 7.43371 4.67322 7.50586 4.76221 7.50586H8.45168C8.54067 7.50586 8.61281 7.43371 8.61281 7.34473C8.61281 7.25574 8.54067 7.18359 8.45168 7.18359Z" fill="#DDDDDD"/>
<path d="M8.45168 7.87805H4.76221C4.67322 7.87805 4.60107 7.9502 4.60107 8.03918C4.60107 8.12817 4.67322 8.20032 4.76221 8.20032H8.45168C8.54067 8.20032 8.61281 8.12817 8.61281 8.03918C8.61281 7.9502 8.54067 7.87805 8.45168 7.87805Z" fill="#DDDDDD"/>
<path d="M8.45168 8.57251H4.76221C4.67322 8.57251 4.60107 8.64465 4.60107 8.73364C4.60107 8.82263 4.67322 8.89478 4.76221 8.89478H8.45168C8.54067 8.89478 8.61281 8.82263 8.61281 8.73364C8.61281 8.64465 8.54067 8.57251 8.45168 8.57251Z" fill="#DDDDDD"/>
<path d="M8.45168 9.26697H4.76221C4.67322 9.26697 4.60107 9.33911 4.60107 9.4281C4.60107 9.51709 4.67322 9.58923 4.76221 9.58923H8.45168C8.54067 9.58923 8.61281 9.51709 8.61281 9.4281C8.61281 9.33911 8.54067 9.26697 8.45168 9.26697Z" fill="#DDDDDD"/>
<path d="M0.855591 10.2838H8.45154C8.54053 10.2838 8.61267 10.2117 8.61267 10.1227C8.61267 10.0337 8.54053 9.96155 8.45154 9.96155H0.855591C0.766603 9.96155 0.694458 10.0337 0.694458 10.1227C0.694458 10.2117 0.766603 10.2838 0.855591 10.2838V10.2838Z" fill="#DDDDDD"/>
<path d="M0.694458 9.42812C0.694458 9.51711 0.766603 9.58926 0.855591 9.58926H3.89398C3.98296 9.58926 4.05511 9.51711 4.05511 9.42812V5.95569C4.05511 5.8667 3.98296 5.79456 3.89398 5.79456H0.855591C0.766603 5.79456 0.694458 5.8667 0.694458 5.95569V9.42812ZM1.01672 6.11682H3.73284V9.26699H1.01672V6.11682Z" fill="#DDDDDD"/>
<path d="M8.61267 2.17957C8.61267 2.09058 8.54053 2.01843 8.45154 2.01843H0.855591C0.766603 2.01843 0.694458 2.09058 0.694458 2.17957V5.08773C0.694458 5.17672 0.766603 5.24887 0.855591 5.24887H8.45154C8.54053 5.24887 8.61267 5.17672 8.61267 5.08773V2.17957ZM8.29041 4.9266H1.01672V2.3407H8.29041V4.9266Z" fill="#DDDDDD"/>
<path d="M1.4916 4.55424C1.58059 4.55424 1.65273 4.48209 1.65273 4.3931V3.39363L2.38432 4.45302C2.43281 4.52308 2.51327 4.55299 2.58921 4.52925C2.66701 4.50495 2.71728 4.43141 2.71726 4.34034L2.70306 2.87235C2.7022 2.78388 2.63023 2.71277 2.54197 2.71277C2.54145 2.71277 2.54092 2.71277 2.54038 2.71277C2.45139 2.71363 2.37996 2.78646 2.38081 2.87545L2.39068 3.89512L1.62416 2.78515C1.58409 2.72712 1.51096 2.7019 1.44362 2.72289C1.37629 2.74388 1.33044 2.8062 1.33044 2.87672V4.39308C1.33047 4.48209 1.40261 4.55424 1.4916 4.55424Z" fill="#DDDDDD"/>
<path d="M3.23743 4.55434H3.87755C3.96654 4.55434 4.03869 4.48219 4.03869 4.3932C4.03869 4.30422 3.96654 4.23207 3.87755 4.23207H3.39856V3.79474H3.83035C3.91934 3.79474 3.99149 3.72259 3.99149 3.6336C3.99149 3.54461 3.91934 3.47247 3.83035 3.47247H3.39856V3.03516H3.87755C3.96654 3.03516 4.03869 2.96301 4.03869 2.87402C4.03869 2.78503 3.96654 2.71289 3.87755 2.71289H3.23743C3.14844 2.71289 3.07629 2.78503 3.07629 2.87402V4.3932C3.07629 4.48219 3.14844 4.55434 3.23743 4.55434V4.55434Z" fill="#DDDDDD"/>
<path d="M7.35853 4.55424C7.66472 4.55424 7.92168 4.35991 7.96948 4.09217C8.00525 3.89181 7.91285 3.62955 7.54622 3.49431C7.35498 3.42377 7.17731 3.34686 7.12774 3.32512C7.08849 3.29512 7.06956 3.24809 7.07685 3.19724C7.08149 3.16497 7.1045 3.08623 7.21785 3.05207C7.44756 2.98293 7.65735 3.14987 7.66245 3.15401C7.73057 3.21067 7.83172 3.20169 7.88878 3.13378C7.94604 3.06567 7.93723 2.96403 7.8691 2.90675C7.85525 2.89511 7.52518 2.62294 7.12489 2.74351C6.92598 2.80343 6.78535 2.95973 6.75782 3.15146C6.73211 3.33066 6.80975 3.50301 6.96046 3.60125C6.96758 3.6059 6.97505 3.60998 6.98281 3.61341C6.99157 3.61733 7.19993 3.71007 7.43467 3.79666C7.58981 3.85389 7.66911 3.94094 7.6522 4.03552C7.63495 4.13209 7.52039 4.23197 7.35851 4.23197C7.19954 4.23197 7.04625 4.16756 6.9485 4.05969C6.88873 3.99375 6.78685 3.98873 6.72089 4.0485C6.65496 4.10826 6.64995 4.21014 6.7097 4.2761C6.86757 4.45027 7.1101 4.55424 7.35853 4.55424V4.55424Z" fill="#DDDDDD"/>
<path d="M4.7101 4.4017C4.71162 4.40939 4.71368 4.41695 4.71633 4.42434C4.744 4.50225 4.81788 4.55437 4.90047 4.55437H4.90178C4.9849 4.55381 5.05872 4.50057 5.08549 4.42187C5.08597 4.42048 5.08642 4.41906 5.08687 4.41764L5.39517 3.42158L5.70209 4.41788C5.70276 4.42007 5.70349 4.42226 5.70427 4.42441C5.73196 4.50229 5.80584 4.55437 5.88841 4.55437H5.88974C5.97284 4.55381 6.04666 4.50055 6.07341 4.42187C6.07569 4.41519 6.07751 4.40836 6.07889 4.40144L6.37606 2.9083C6.39342 2.82103 6.33674 2.73619 6.24947 2.71881C6.16223 2.70149 6.07736 2.7581 6.05998 2.84539L5.86175 3.84149L5.54908 2.82661L5.54816 2.82689C5.53245 2.77892 5.49464 2.73898 5.44274 2.72291C5.35772 2.69663 5.26749 2.74418 5.24117 2.82919L4.9278 3.8416L4.73023 2.84279C4.71295 2.75548 4.62809 2.6987 4.54091 2.71599C4.45362 2.73327 4.39683 2.81804 4.41411 2.90531L4.7101 4.4017Z" fill="#DDDDDD"/>
<path d="M10.4368 0.000386719C10.4332 0.000236328 10.4191 0 10.4156 0H7.44627C7.35728 0 7.28514 0.0721445 7.28514 0.161133C7.28514 0.250121 7.35728 0.322266 7.44627 0.322266H9.8934C9.85366 0.401135 9.83125 0.490188 9.83125 0.584375V4.24316C9.83125 4.33215 9.90339 4.4043 9.99238 4.4043C10.0814 4.4043 10.1535 4.33215 10.1535 4.24316V0.584375C10.1524 0.442707 10.2748 0.320289 10.4205 0.322008C10.5563 0.323748 10.6776 0.448078 10.6777 0.594473V10.0246C10.6777 10.3848 10.3703 10.6777 9.99247 10.6777C9.99245 10.6777 9.99245 10.6777 9.99243 10.6777C9.9924 10.6777 9.9924 10.6777 9.99238 10.6777C9.6146 10.6777 9.30725 10.3848 9.30725 10.0246V8.80795H9.5584C9.88655 8.80795 10.1535 8.54098 10.1535 8.21283V4.99512C10.1535 4.90613 10.0814 4.83398 9.99238 4.83398C9.90339 4.83398 9.83125 4.90613 9.83125 4.99512V8.21283C9.83125 8.36329 9.70885 8.48568 9.5584 8.48568H9.30725V1.94068C9.30725 1.61253 9.04017 1.34557 8.71191 1.34557H1.21215V0.584375C1.21215 0.43985 1.32963 0.322266 1.47404 0.322266H6.69432C6.7833 0.322266 6.85545 0.250121 6.85545 0.161133C6.85545 0.0721445 6.7833 0 6.69432 0H1.47404C1.15193 0 0.889883 0.262152 0.889883 0.584375V1.34557H0.595117C0.266965 1.34557 0 1.61253 0 1.94068V6.69174C0 6.78073 0.0721445 6.85287 0.161133 6.85287C0.250121 6.85287 0.322266 6.78073 0.322266 6.69174V1.94068C0.322266 1.79023 0.444662 1.66783 0.595117 1.66783H8.71191C8.86248 1.66783 8.98498 1.79023 8.98498 1.94068V10.0246C8.98498 10.2756 9.08338 10.5047 9.24479 10.6777H1.00762C0.629707 10.6777 0.322266 10.3848 0.322266 10.0246V7.44369C0.322266 7.3547 0.250121 7.28256 0.161133 7.28256C0.0721445 7.28256 0 7.3547 0 7.44369V10.0246C0 10.5624 0.45201 11 1.00762 11H9.99238H9.99243C9.99243 11 9.99245 11 9.99247 11C10.548 11 11 10.5624 11 10.0246V0.594473C11 0.272572 10.7526 0.0116016 10.4368 0.000386719V0.000386719Z" fill="#DDDDDD"/>
</svg>
