<svg width="12" height="11" viewBox="0 0 12 11" fill="none" xmlns="http://www.w3.org/2000/svg">
<g clip-path="url(#clip0)">
<path d="M11.3434 6.70542L10.3323 5.9148C10.3451 5.79288 10.3561 5.65035 10.3561 5.49955C10.3561 5.34875 10.3456 5.20622 10.3323 5.0843L11.3443 4.29322C11.5322 4.14472 11.5836 3.88117 11.4639 3.66165L10.4125 1.8425C10.3002 1.63717 10.0541 1.53175 9.80431 1.62387L8.61126 2.10283C8.38256 1.93783 8.14283 1.7985 7.89488 1.68712L7.71338 0.421674C7.68358 0.1815 7.47458 0 7.22756 0H5.11923C4.87218 0 4.66365 0.1815 4.63431 0.418L4.45235 1.68805C4.21218 1.79622 3.97615 1.93372 3.73735 2.10375L2.5411 1.62342C2.31696 1.5368 2.04883 1.63395 1.93746 1.83838L0.88468 3.6598C0.760479 3.86972 0.811805 4.14242 1.00385 4.2946L2.01493 5.08522C1.99888 5.23967 1.9911 5.37397 1.9911 5.50002C1.9911 5.62607 1.9989 5.76035 2.01493 5.91527L1.00293 6.70635C0.815006 6.8553 0.764131 7.11885 0.883756 7.33792L1.93518 9.15705C2.04748 9.36192 2.2913 9.46825 2.54338 9.37567L3.73643 8.89672C3.96468 9.06127 4.20438 9.2006 4.45235 9.31242L4.63385 10.5774C4.66363 10.8185 4.87218 11 5.11968 11H7.22801C7.47506 11 7.68406 10.8185 7.71338 10.582L7.89533 9.31242C8.13551 9.2038 8.37108 9.06675 8.61033 8.89625L9.80658 9.37658C9.86433 9.39903 9.92438 9.4105 9.98626 9.4105C10.1641 9.4105 10.3277 9.31333 10.4102 9.16208L11.4662 7.33333C11.5836 7.11883 11.5322 6.8553 11.3434 6.70542ZM6.17338 7.33333C5.16231 7.33333 4.34006 6.51108 4.34006 5.5C4.34006 4.48892 5.16231 3.66667 6.17338 3.66667C7.18446 3.66667 8.00671 4.48892 8.00671 5.5C8.00671 6.51108 7.18446 7.33333 6.17338 7.33333Z" fill="#DDDDDD"/>
</g>
<defs>
<clipPath id="clip0">
<rect width="11" height="11" fill="white" transform="translate(0.672852)"/>
</clipPath>
</defs>
</svg>
