<?xml version="1.0" encoding="UTF-8" standalone="no"?>
<!-- Created with Inkscape (http://www.inkscape.org/) -->

<svg
   width="210mm"
   height="297mm"
   viewBox="0 0 210 297"
   version="1.1"
   id="svg1"
   xml:space="preserve"
   xmlns="http://www.w3.org/2000/svg"
   xmlns:svg="http://www.w3.org/2000/svg"><defs
     id="defs1" /><g
     id="layer1"
     style="display:inline"><path
       id="path1"
       style="display:inline;fill:#000000;fill-opacity:1;stroke:none;stroke-width:0.135591;stroke-linejoin:bevel;stroke-dasharray:none;stroke-opacity:1;paint-order:markers fill stroke"
       d="m 104.99979,12.39821 a 12.878422,10.934076 0 0 0 -12.847792,10.572481 23.394659,8.9087839 0 0 0 5.875093,1.0604 c -0.722785,5.49247 -1.106157,11.740828 -1.111043,18.108456 -1.3e-5,10.391818 0.992619,19.728957 2.571419,26.305371 a 8.1699495,3.6979775 0 0 0 -2.657202,2.71973 8.1699495,3.6979775 0 0 0 1.925464,2.361613 v 3.321761 c -5.76323,0.584325 -10.940196,1.958926 -15.060062,3.881417 l -2.401404,1.261422 c -0.02523,0.01305 -0.04926,0.0279 -0.0739,0.04186 0.10967,0.992997 0.726914,2.242733 1.655197,3.351217 0.803647,0.955104 1.75767,1.707364 2.629296,2.073258 1.08426,-0.71852 3.680101,-2.223418 7.791256,-3.378088 V 239.84479 c 0,0 2.85546,17.43107 4.826579,25.59172 1.971149,8.16065 6.850749,23.35568 6.850749,23.35568 h 0.001 0.002 0.001 c 0,0 4.87961,-15.19503 6.85075,-23.35568 1.97103,-8.16065 4.82658,-25.59172 4.82658,-25.59172 V 84.0481 c 4.17681,1.158645 6.81281,2.684002 7.90701,3.409094 0.87164,-0.365894 1.82563,-1.118154 2.62929,-2.073258 0.92829,-1.108484 1.54553,-2.35822 1.6552,-3.351217 -0.0246,-0.01396 -0.0487,-0.02881 -0.0739,-0.04186 l -2.4014,-1.261422 c -4.13603,-1.930006 -9.33692,-3.308272 -15.12724,-3.888651 v -3.314527 a 8.1699495,3.6979775 0 0 0 1.92598,-2.361613 8.1699495,3.6979775 0 0 0 -2.65514,-2.728515 c 1.57759,-6.575951 2.56936,-15.909336 2.56935,-26.296586 -7.4e-4,-6.362668 -0.37945,-12.611228 -1.0976,-18.110006 a 23.394659,8.9087839 0 0 0 5.88181,-1.063501 12.878422,10.934076 0 0 0 -12.86847,-10.56783 z m 0,1.690852 a 11.410156,7.4744792 0 0 1 0.19069,0.0078 v 0.966866 a 9.447978,5.6594324 0 0 0 -0.0853,-0.0031 9.447978,5.6594324 0 0 0 -9.440248,5.589323 h 0.0015 a 9.447978,4.7941475 0 0 1 9.438698,-4.723742 9.447978,4.7941475 0 0 1 0.0853,0.0026 v 2.364714 c 0,0.553989 0.45609,0.894367 0.99994,0.999939 l 8.65373,1.680001 a 20.191015,5.2619648 0 0 0 -9.84436,-0.670244 20.191015,5.2619648 0 0 0 -11.375531,0.91674 11.410156,7.4744792 0 0 1 11.375531,-7.130831 z m -4.94905,7.540625 h 4.62607 v 2.270146 a 7.1642021,4.3057825 0 0 0 -5.431705,3.002918 6.8130202,30.457649 0 0 1 0.805635,-5.273064 z m 9.27644,1.240752 c 1.27562,2.466435 2.17278,11.48764 2.17299,21.849829 -3.3e-4,10.383367 -1.79002,19.182505 -3.06906,21.62762 0.56215,-3.951449 1.81129,-12.242421 1.81229,-21.62762 -1.9e-4,-9.35568 -0.35715,-17.868332 -0.91622,-21.849829 z m -4.65037,1.993676 v 3.632854 a 7.4928326,4.5032939 0 0 0 -5.936584,3.697965 6.8130202,30.457649 0 0 1 0.469222,-4.965072 7.1642021,3.3148625 0 0 1 5.467362,-2.365747 z m 0,4.642094 v 3.481442 a 8.6247817,4.2012529 0 0 0 -6.143289,3.062862 6.8130202,30.457649 0 0 1 0.191719,-3.630786 7.4928326,3.4669192 0 0 1 5.95157,-2.913518 z m 0,4.412651 v 3.665926 a 8.6247817,4.2012529 0 0 0 -6.25026,3.241146 6.8130202,30.457649 0 0 1 0.0987,-4.538224 8.6247817,3.2343892 0 0 1 6.15156,-2.368848 z m 0,4.597135 v 3.996656 a 8.6247817,4.2012529 0 0 0 -6.25336,3.246313 6.8130202,28.14505 0 0 1 0.02997,-2.035535 6.8130202,30.457649 0 0 1 -0.03256,-2.397269 6.8130202,30.457649 0 0 1 0.0036,-0.311609 8.6247817,3.2343892 0 0 1 6.25233,-2.498556 z m 0,4.927865 v 4.486031 a 8.5152382,4.1478927 0 0 0 -6.129854,3.15898 6.8130202,28.14505 0 0 1 -0.12609,-5.141805 8.6247817,3.2343892 0 0 1 6.255944,-2.503206 z m 0,5.405355 v 4.504118 a 8.1135843,3.9522414 0 0 0 -5.75985,2.978112 6.8130202,28.14505 0 0 1 -0.362252,-5.059639 8.5152382,3.1933092 0 0 1 6.122102,-2.422591 z m 0,5.378483 v 4.575948 a 6.6530288,3.9522414 0 0 0 -5.072554,2.881994 6.8130202,28.14505 0 0 1 -0.67076,-5.186763 8.1135843,3.0426845 0 0 1 5.743314,-2.271179 z m 0,5.459615 v 3.868498 a 5.1924797,3.9522414 0 0 0 -4.20852,2.432926 6.8130202,28.14505 0 0 1 -0.833028,-4.121712 6.6530288,3.0426845 0 0 1 5.041548,-2.179712 z m 0,4.769735 v 2.757971 a 8.2669802,4.2445741 0 0 0 -3.72122,0.591695 6.8130202,28.14505 0 0 1 -0.42219,-1.575615 5.1924797,3.0426845 0 0 1 4.14341,-1.774051 z m 0.18914,4.084505 c -0.009,0.0621 -0.0387,0.151771 -0.0501,0.222208 a 6.4740233,3.0179036 0 0 0 -6.265246,2.8205 6.6807289,2.7065701 0 0 1 -0.231511,-0.350366 6.6807289,2.7065701 0 0 1 6.546887,-2.692342 z m -0.20671,0.918807 c -0.072,0.347343 -0.11642,0.703352 -0.21394,0.951363 -0.12867,0.32726 -0.33901,0.72445 -0.59582,1.101741 -0.31578,0.463796 -0.67232,0.879533 -0.67232,0.879533 0,0 0.34237,0.111404 0.60359,0.176734 0.26123,0.06534 0.47328,0.107172 0.66507,0.136942 0.47011,0.07297 1.61024,0.147278 1.61024,0.147278 0,0 1.97079,0.04373 3.19154,5.17e-4 0.26785,-0.0095 0.62349,-0.02863 1.00562,-0.05168 a 6.6807289,2.7065701 0 0 1 -5.25343,1.137399 6.6807289,2.7065701 0 0 1 -6.443015,-2.347144 6.4740233,2.3233724 0 0 1 6.102465,-2.132686 z m 0.18191,8.36383 v 4.101559 A 26.632601,10.384895 0 0 0 85.347762,85.330192 12.113991,8.1266642 0 0 1 82.88383,82.441996 26.632601,10.384895 0 0 1 104.84115,77.82419 Z m -4.914433,5.195032 -0.280603,51.918278 v 79.66904 c 0,0 1.300466,13.50604 2.198316,19.82928 0.89486,6.30212 3.0977,17.97439 3.11247,18.05264 v 33.07292 c -0.0299,-0.0978 -4.4823,-14.69423 -6.291088,-22.57537 -1.814823,-7.90751 -4.443656,-24.79796 -4.443656,-24.79796 V 134.9375 120.48515 h 0.172599 l 0.435632,-36.50733 c 0,0 1.441883,-0.366764 2.291333,-0.529684 0.849454,-0.162916 2.804997,-0.428914 2.804997,-0.428914 z m 8.717813,0.05994 -0.13332,139.790428 -3.32073,24.04091 -3.69487,-24.32151 v -19.93315 c 0.14075,8.33118 0.34515,16.55509 0.72089,20.48195 0.94019,9.82598 2.88096,17.52814 2.88096,17.52814 l 1.09813,-157.509254 0.16691,-0.04444 z" /></g></svg>
