<?xml version="1.0" encoding="UTF-8" standalone="no"?>
<!-- Created with Inkscape (http://www.inkscape.org/) -->

<svg
   width="210mm"
   height="210mm"
   viewBox="0 0 210 210"
   version="1.1"
   id="svg1"
   xml:space="preserve"
   inkscape:version="1.3.2 (091e20e, 2023-11-25, custom)"
   sodipodi:docname="smuggler_desert_cam.svg"
   xmlns:inkscape="http://www.inkscape.org/namespaces/inkscape"
   xmlns:sodipodi="http://sodipodi.sourceforge.net/DTD/sodipodi-0.dtd"
   xmlns:xlink="http://www.w3.org/1999/xlink"
   xmlns="http://www.w3.org/2000/svg"
   xmlns:svg="http://www.w3.org/2000/svg"><sodipodi:namedview
     id="namedview1"
     pagecolor="#ffffff"
     bordercolor="#000000"
     borderopacity="0.25"
     inkscape:showpageshadow="2"
     inkscape:pageopacity="0.0"
     inkscape:pagecheckerboard="0"
     inkscape:deskcolor="#d1d1d1"
     inkscape:document-units="mm"
     showguides="true"
     inkscape:zoom="1"
     inkscape:cx="699.99997"
     inkscape:cy="403.49998"
     inkscape:window-width="3440"
     inkscape:window-height="1417"
     inkscape:window-x="-8"
     inkscape:window-y="-8"
     inkscape:window-maximized="1"
     inkscape:current-layer="layer1" /><defs
     id="defs1"><linearGradient
       id="linearGradient121"
       inkscape:collect="always"><stop
         style="stop-color:#676767;stop-opacity:1;"
         offset="0"
         id="stop121" /><stop
         style="stop-color:#363636;stop-opacity:0.72839504;"
         offset="1"
         id="stop122" /></linearGradient><linearGradient
       id="linearGradient107"
       inkscape:collect="always"><stop
         style="stop-color:#ffffff;stop-opacity:1;"
         offset="0"
         id="stop107" /><stop
         style="stop-color:#bbbbbb;stop-opacity:0;"
         offset="1"
         id="stop108" /></linearGradient><linearGradient
       id="linearGradient104"
       inkscape:collect="always"><stop
         style="stop-color:#f2f2f2;stop-opacity:1;"
         offset="0"
         id="stop105" /><stop
         style="stop-color:#a5a5a5;stop-opacity:0;"
         offset="1"
         id="stop106" /></linearGradient><linearGradient
       id="linearGradient102"
       inkscape:collect="always"><stop
         style="stop-color:#c9bb9c;stop-opacity:1;"
         offset="0"
         id="stop103" /><stop
         style="stop-color:#a68d59;stop-opacity:0.80000001;"
         offset="1"
         id="stop104" /></linearGradient><linearGradient
       id="linearGradient101"
       inkscape:collect="always"><stop
         style="stop-color:#c9bb9c;stop-opacity:1;"
         offset="0"
         id="stop101" /><stop
         style="stop-color:#a68c59;stop-opacity:0.80000001;"
         offset="1"
         id="stop102" /></linearGradient><linearGradient
       id="linearGradient98"
       inkscape:collect="always"><stop
         style="stop-color:#cabb9c;stop-opacity:1;"
         offset="0"
         id="stop98" /><stop
         style="stop-color:#a68c59;stop-opacity:0.80000001;"
         offset="1"
         id="stop99" /></linearGradient><linearGradient
       id="linearGradient96"
       inkscape:collect="always"><stop
         style="stop-color:#c9bb9c;stop-opacity:1;"
         offset="0"
         id="stop96" /><stop
         style="stop-color:#a68c59;stop-opacity:0.80000001;"
         offset="1"
         id="stop97" /></linearGradient><linearGradient
       id="linearGradient76"
       inkscape:collect="always"><stop
         style="stop-color:#ffffff;stop-opacity:1;"
         offset="0"
         id="stop77" /><stop
         style="stop-color:#e7e7e7;stop-opacity:0;"
         offset="1"
         id="stop78" /></linearGradient><inkscape:path-effect
       effect="bspline"
       id="path-effect729"
       is_visible="true"
       lpeversion="1"
       weight="33.333333"
       steps="2"
       helper_size="0"
       apply_no_weight="true"
       apply_with_weight="true"
       only_selected="false"
       uniform="false" /><inkscape:path-effect
       effect="bspline"
       id="path-effect1385"
       is_visible="true"
       lpeversion="1"
       weight="33.333333"
       steps="2"
       helper_size="0"
       apply_no_weight="true"
       apply_with_weight="true"
       only_selected="false"
       uniform="false" /><inkscape:path-effect
       effect="bspline"
       id="path-effect312"
       is_visible="true"
       lpeversion="1"
       weight="33.333333"
       steps="2"
       helper_size="0"
       apply_no_weight="true"
       apply_with_weight="true"
       only_selected="false"
       uniform="false" /><inkscape:path-effect
       effect="bspline"
       id="path-effect50"
       is_visible="true"
       lpeversion="1"
       weight="33.333333"
       steps="2"
       helper_size="0"
       apply_no_weight="true"
       apply_with_weight="true"
       only_selected="false"
       uniform="false" /><inkscape:path-effect
       effect="bspline"
       id="path-effect52"
       is_visible="true"
       lpeversion="1"
       weight="33.333333"
       steps="2"
       helper_size="0"
       apply_no_weight="true"
       apply_with_weight="true"
       only_selected="false"
       uniform="false" /><inkscape:path-effect
       effect="bspline"
       id="path-effect54"
       is_visible="true"
       lpeversion="1"
       weight="33.333333"
       steps="2"
       helper_size="0"
       apply_no_weight="true"
       apply_with_weight="true"
       only_selected="false"
       uniform="false" /><radialGradient
       inkscape:collect="always"
       xlink:href="#linearGradient76"
       id="radialGradient78"
       cx="105.09196"
       cy="120.37275"
       fx="105.09196"
       fy="120.37275"
       r="97.944366"
       gradientTransform="matrix(2.8146445,0,0,0.16215181,-190.70454,80.21659)"
       gradientUnits="userSpaceOnUse" /><radialGradient
       inkscape:collect="always"
       xlink:href="#linearGradient96"
       id="radialGradient97"
       cx="64.689934"
       cy="103.45556"
       fx="64.689934"
       fy="103.45556"
       r="9.4254522"
       gradientTransform="matrix(0.93614299,0.02837703,-0.17864372,5.8933633,22.61259,-528.71883)"
       gradientUnits="userSpaceOnUse" /><radialGradient
       inkscape:collect="always"
       xlink:href="#linearGradient98"
       id="radialGradient99"
       cx="145.49345"
       cy="103.45556"
       fx="145.49345"
       fy="103.45556"
       r="9.4255009"
       gradientTransform="matrix(0.9082828,0,-2.9028569e-8,5.841497,13.344257,-521.51728)"
       gradientUnits="userSpaceOnUse" /><radialGradient
       inkscape:collect="always"
       xlink:href="#linearGradient101"
       id="radialGradient102"
       cx="5.9160652"
       cy="107.46575"
       fx="5.9160652"
       fy="107.46575"
       r="5.0043678"
       gradientTransform="matrix(1.2779536,0.08842829,-0.64761974,9.3593132,73.244221,-912.09215)"
       gradientUnits="userSpaceOnUse" /><radialGradient
       inkscape:collect="always"
       xlink:href="#linearGradient102"
       id="radialGradient104"
       cx="204.26762"
       cy="107.46572"
       fx="204.26762"
       fy="107.46572"
       r="5.0043812"
       gradientTransform="matrix(1.1618126,-0.08860584,0.75486424,9.8978869,-119.4668,-951.34763)"
       gradientUnits="userSpaceOnUse" /><radialGradient
       inkscape:collect="always"
       xlink:href="#linearGradient104"
       id="radialGradient106"
       cx="105.09172"
       cy="191.69597"
       fx="105.09172"
       fy="191.69597"
       r="41.219322"
       gradientTransform="matrix(1,0,0,0.23723947,0,125.58062)"
       gradientUnits="userSpaceOnUse" /><radialGradient
       inkscape:collect="always"
       xlink:href="#linearGradient107"
       id="radialGradient108"
       cx="105.09148"
       cy="135.53732"
       fx="105.09148"
       fy="135.53732"
       r="12.591909"
       gradientTransform="matrix(1,0,0,5.1064818,3.6666667e-8,-579.69886)"
       gradientUnits="userSpaceOnUse" /><radialGradient
       inkscape:collect="always"
       xlink:href="#linearGradient121"
       id="radialGradient122"
       cx="105.08739"
       cy="187.06163"
       fx="105.08739"
       fy="187.06163"
       r="0.91560167"
       gradientTransform="matrix(1,0,0,17.611512,3.6666667e-8,-3128.0141)"
       gradientUnits="userSpaceOnUse" /></defs><g
     inkscape:label="Слой 1"
     inkscape:groupmode="layer"
     id="layer1"><path
       id="path54"
       style="display:none;fill:url(#radialGradient78);fill-opacity:1;stroke-width:2.18092;paint-order:markers fill stroke"
       d="m 55.837518,81.16216 -45.30476,1.78633 -1.2463843,14.70765 -2.138781,13.7676 c 0,0 20.1632783,1.93089 30.2503043,2.83753 12.091,1.08674 34.801148,3.01558 36.285507,3.11878 6.665147,0.4634 19.837642,0.92825 19.837642,0.92825 l -0.69773,-11.65136 -0.269972,-15.4233 0.0015,-9.19804 -18.520563,-0.80787 z m 98.508402,0 -18.19679,0.0656 -18.52056,0.80787 9.9e-4,9.19804 -0.26946,15.4233 -0.69772,11.65136 c 0,0 13.17245,-0.46485 19.83764,-0.92825 1.48436,-0.1032 24.19494,-2.03204 36.28601,-3.11878 10.08709,-0.90664 30.2503,-2.83753 30.2503,-2.83753 l -2.13878,-13.7676 -1.24639,-14.70765 z"
       inkscape:label="Градиент пер. крыльев" /><path
       id="path104"
       style="display:none;fill:url(#radialGradient106);fill-opacity:1;stroke-width:2.18092;paint-order:markers fill stroke"
       d="m 100.56289,161.27962 c 0,0 -5.051296,0.64176 -35.120069,4.45072 -1.247678,0.15805 -1.525411,4.7205 -1.567585,7.89325 -0.03494,2.62821 0.242668,4.75473 1.397508,5.42148 0.974311,0.56251 36.909796,1.79225 39.818736,1.79225 2.90892,0 38.8449,-1.22974 39.81922,-1.79225 1.15485,-0.66675 1.43241,-2.79327 1.39751,-5.42148 -0.0421,-3.17275 -0.31989,-7.7352 -1.56759,-7.89325 -30.06893,-3.80896 -35.12058,-4.45072 -35.12058,-4.45072 l -4.52857,17.99444 z"
       sodipodi:nodetypes="cssscsscccc"
       inkscape:label="Градиент задних крыльев" /><path
       id="path107"
       style="display:none;fill:url(#radialGradient108);fill-opacity:1;stroke-width:2.18092;paint-order:markers fill stroke"
       d="m 104.76463,51.866218 c -0.81884,0.03818 -2.70206,0.318235 -4.66587,1.946676 -5.271064,4.370909 -6.09584,12.275577 -7.178623,18.939609 -0.548015,3.372788 -0.443657,17.102444 -0.328885,25.653584 0.09277,6.911573 0.314217,13.826813 0.822215,20.720313 0.791333,10.73835 1.821151,15.38844 3.124412,23.02251 1.061519,6.21803 2.20118,12.71685 3.530141,18.88325 0.90026,4.17721 2.63757,11.89293 4.3247,17.88483 0.21778,0.77346 0.59229,1.33816 0.67211,1.4559 v 0.0892 c 0,0 0.0244,-0.0412 0.0266,-0.0445 0.002,0.003 0.0272,0.0445 0.0272,0.0445 v -0.0892 c 0.0799,-0.11779 0.45383,-0.68249 0.67161,-1.4559 1.68716,-5.9919 3.42494,-13.70762 4.32521,-17.88483 1.32896,-6.1664 2.46811,-12.66522 3.52963,-18.88325 1.30326,-7.63407 2.33306,-12.28416 3.12441,-23.02251 0.50799,-6.8935 0.72942,-13.80874 0.82222,-20.720313 0.11477,-8.55114 0.21913,-22.280796 -0.32889,-25.653584 -1.08279,-6.664032 -1.90702,-14.5687 -7.17812,-18.939609 -2.46476,-2.043841 -4.72733,-1.962126 -4.99321,-1.945651 -0.0541,-0.0034 -0.11804,-0.01076 -0.32684,-9.96e-4 z"
       inkscape:label="Градиент основания " /><g
       id="g1"
       transform="translate(-0.09183911,-11.940734)"><path
         id="path15"
         style="fill:#cdb184;fill-opacity:1;stroke-width:2.18092;paint-order:markers fill stroke"
         d="m 55.837518,81.16216 -45.30476,1.78633 -1.2463843,14.70765 -2.138781,13.7676 c 0,0 20.1632783,1.93089 30.2503043,2.83753 12.091,1.08674 34.801148,3.01558 36.285507,3.11878 6.665147,0.4634 19.837642,0.92825 19.837642,0.92825 l -0.69773,-11.65136 -0.269972,-15.4233 0.0015,-9.19804 -18.520563,-0.80787 z m 98.508402,0 -18.19679,0.0656 -18.52056,0.80787 9.9e-4,9.19804 -0.26946,15.4233 -0.69772,11.65136 c 0,0 13.17245,-0.46485 19.83764,-0.92825 1.48436,-0.1032 24.19494,-2.03204 36.28601,-3.11878 10.08709,-0.90664 30.2503,-2.83753 30.2503,-2.83753 l -2.13878,-13.7676 -1.24639,-14.70765 z"
         inkscape:label="Пер. крылья " /><path
         id="path2"
         style="display:inline;fill:#7f592a;fill-opacity:1;stroke:none;stroke-width:0.765;stroke-linecap:square;paint-order:markers fill stroke"
         d="m 79.507292,81.466345 c -0.422569,0.258515 -0.825767,0.544794 -1.181324,0.89607 -2.423404,2.394204 -5.444174,6.596264 -3.704166,9.525 2.475234,4.16625 10.391769,4.546417 14.419791,1.852083 2.809656,-1.879376 -0.59854,-8.840785 2.645834,-9.789583 0.311524,-0.0911 0.595572,-0.07432 0.86713,-0.0083 l 5.17e-4,-1.905827 z M 15.92616,85.887781 c -2.320196,-0.05567 -3.478705,3.66708 -3.554305,5.986714 -0.12994,3.986182 4.73251,6.736332 5.425508,10.663945 0.44757,2.53664 -2.293328,5.48178 -0.93586,7.67085 0.592498,0.95547 2.446706,0.27081 3.180684,1.12242 0.326212,0.37849 0.472863,0.8443 0.534335,1.35185 5.791439,0.54894 9.156914,0.87256 14.669389,1.37563 -0.03889,-0.36311 -0.114101,-0.71428 -0.236678,-1.04335 -1.236428,-3.31927 -9.749417,-1.14128 -9.541537,-4.67723 0.20953,-3.56369 8.403855,-0.41501 10.102743,-3.55483 1.619526,-2.99313 0.819629,-8.911001 -2.431893,-9.915669 -2.320696,-0.717058 -3.002233,4.698423 -5.425509,4.864303 -2.778264,0.19018 -5.060929,-2.606208 -6.922575,-4.677234 -2.312594,-2.572686 -1.40599,-9.084399 -4.864302,-9.167399 z m 136.22579,7.49515 c -2.29976,0.02116 -4.62347,0.780336 -5.96552,2.214851 -1.9215,2.053856 1.35577,5.721138 0.5612,8.419128 -0.85625,2.90738 -4.47298,4.41942 -5.42551,7.29671 -0.5846,1.76592 -1.04794,3.81087 -0.98547,5.7366 2.27571,-0.18614 8.68044,-0.74801 14.70143,-1.26349 -0.20158,-1.43246 -0.34103,-2.86376 -0.24546,-4.28604 0.36243,-5.39366 6.60738,-11.722366 3.18017,-15.902908 -1.24543,-1.519174 -3.52107,-2.236016 -5.82084,-2.214851 z"
         inkscape:label="Пер. крылья 1" /><path
         id="path4"
         style="display:inline;fill:#d19751;fill-opacity:1;stroke:none;stroke-width:0.765;stroke-linecap:square;paint-order:markers fill stroke"
         d="m 173.00908,82.547933 c -0.49605,0.01385 -0.98043,0.07515 -1.44281,0.188619 -2.71198,0.665493 -2.57633,5.29995 -4.96404,6.747908 -3.20829,1.945596 -9.21823,-1.508273 -11.12386,1.723926 -1.77821,3.016031 0.97801,7.560388 3.61735,9.860894 1.5796,1.37684 4.33031,2.39138 6.14226,1.33894 1.94805,-1.13153 0.65707,-4.656613 2.02158,-6.449219 1.2607,-1.65623 3.20741,-2.964999 5.24567,-3.386874 2.42204,-0.501311 5.20111,2.496363 7.31945,1.219564 1.81441,-1.093611 2.82435,-4.077713 2.00453,-6.031156 -1.28969,-3.072972 -5.34778,-5.309553 -8.82013,-5.212602 z m 14.69109,2.992065 c -2.3202,-0.05567 -3.47922,3.667596 -3.55482,5.987232 -0.12994,3.986182 4.73251,6.736319 5.42551,10.66395 0.44757,2.53663 -2.2928,5.48124 -0.93535,7.67033 0.5925,0.95547 2.44619,0.27132 3.18017,1.12293 0.34442,0.39962 0.47986,0.90105 0.53485,1.44177 3.69904,-0.35161 10.68566,-1.00252 10.68566,-1.00252 l -0.12403,-0.79943 c -2.72005,-0.44164 -5.79649,-0.48963 -5.67045,-2.63344 0.11184,-1.90216 2.49823,-1.89631 4.95783,-1.95078 l -1.17718,-7.578866 c -0.43911,0.515292 -0.93336,0.882217 -1.53583,0.923457 -2.77827,0.19018 -5.06041,-2.606208 -6.92206,-4.677234 -2.31258,-2.572684 -1.40598,-9.084399 -4.8643,-9.167399 z M 32.116903,85.984932 c -0.862845,0.0068 -2.038996,0.713253 -4.014226,2.494939 -2.745062,2.259266 -7.933673,5.647333 -6.143294,8.718847 0.800679,1.373618 6.030533,-2.025248 7.610905,-1.85105 4.626265,0.50993 7.568033,2.053268 10.397815,5.748482 1.077783,1.40741 -1.175043,4.31135 0.289388,5.31027 2.215887,1.51151 5.819471,-0.55533 7.640361,-2.52491 1.556629,-1.68372 2.128102,-4.440179 1.64021,-6.680725 C 48.891004,94.229311 41.019216,93.70298 38.43693,92.096704 34.397023,89.341435 34.015162,85.970068 32.116903,85.984932 Z m 38.831221,8.3783 c -0.782239,-0.02108 -1.551939,0.138977 -2.13527,0.49196 -4.16202,2.518496 0.134043,11.643958 -4.122229,13.999658 -2.543488,1.40774 -5.492915,-2.47677 -8.39742,-2.35489 -4.798115,0.20134 -12.42047,0.3583 -13.496851,5.03845 -0.248565,1.08077 -0.130206,2.16034 0.236678,3.20704 12.350553,1.08455 29.396495,2.54729 30.650326,2.63447 6.66514,0.46339 19.837549,0.92862 19.837549,0.92862 l -0.525033,-8.76897 c -0.805923,-0.2879 -1.510254,-0.68555 -1.928048,-1.39888 -0.649733,-1.10937 0.85411,-2.73898 0.208773,-3.85093 -1.85985,-3.20462 -6.236987,-5.200817 -9.935828,-4.983677 -4.227886,0.24821 -7.251991,9.563277 -10.612788,6.986137 -2.890697,-2.21665 5.268561,-7.226958 3.434932,-10.37456 -0.572005,-0.981906 -1.911058,-1.519296 -3.214791,-1.554428 z"
         inkscape:label="Пер. крылья 2" /><path
         id="path7"
         style="display:inline;fill:#3d1f03;fill-opacity:1;stroke:none;stroke-width:0.765;stroke-linecap:square;paint-order:markers fill stroke"
         d="m 136.30227,81.227083 -0.15296,5.17e-4 -6.7231,0.293522 c -0.52647,0.287299 -1.02171,0.594182 -1.44436,0.912606 -5.05823,3.810866 -5.93344,11.241458 -8.04447,17.212386 -0.61302,1.733906 -1.59038,3.597216 -2.55023,5.481836 l -0.0269,1.52911 -0.6811,11.36364 c 0.14487,0.096 0.29197,0.18945 0.44855,0.26975 0.42395,-0.0151 3.86003,-0.14878 8.35918,-0.34468 0.27546,-0.11084 0.55971,-0.21676 0.81132,-0.339 3.0192,-1.4667 2.88358,-6.56972 5.79965,-8.23205 3.42395,-1.95185 8.18883,0.67314 11.78688,-0.93534 3.38257,-1.51218 7.89759,-3.96857 8.04447,-7.67085 0.12606,-3.177397 -3.181,-7.094831 -6.36085,-7.109131 -3.79642,-0.01712 -4.02275,7.367741 -7.67085,8.418611 -3.35854,0.96745 -8.93784,0.48922 -10.10275,-2.806033 -1.43043,-4.046322 5.92864,-6.476838 7.48378,-10.47688 0.91654,-2.357278 2.7139,-5.753124 1.02371,-7.568014 z m -84.290458,0.08578 -7.74578,0.305408 c -0.150095,1.634891 0.208943,3.53668 -1.050582,4.359941 -1.644536,1.074916 -4.384427,-2.26645 -5.820833,-0.926042 -1.456521,1.359186 -0.827835,4.494567 0.529166,5.953125 2.251786,2.420304 6.57657,0.809742 9.789584,1.5875 1.802646,0.436358 3.46302,2.02959 5.291666,1.719792 1.365228,-0.23129 3.012032,-1.160706 3.307292,-2.513542 0.45853,-2.100936 -2.10092,-3.755356 -3.042708,-5.688542 -0.65968,-1.354122 -0.897532,-3.148652 -1.257805,-4.79764 z m 121.362618,8.916769 c -2.82116,-0.04392 -2.67137,5.565618 -4.81986,8.131803 -2.34291,2.798415 -10.20379,5.891865 -10.19679,9.541535 0.004,1.96736 0.93566,5.23774 2.23707,7.40627 2.3525,-0.20338 3.21307,-0.27299 5.46065,-0.46974 1.09775,-0.78256 2.11688,-1.37952 2.68614,-0.94981 0.24663,0.18617 0.44668,0.41554 0.62425,0.66559 1.3016,-0.11515 2.28035,-0.19161 3.41995,-0.29404 3.49458,-0.31409 5.82406,-0.5458 10.47998,-0.98288 -0.76945,-1.07125 -1.5193,-2.16587 -1.42834,-3.31763 0.21558,-2.7298 3.8847,-4.38063 4.11603,-7.10913 0.1967,-2.32006 -0.40275,-5.406519 -2.4319,-6.548437 -1.43892,-0.80978 -3.33922,1.568111 -4.8643,0.935343 -2.57215,-1.067218 -1.9808,-6.22619 -4.67723,-6.922058 -0.21605,-0.05576 -0.41757,-0.08389 -0.60565,-0.08682 z"
         inkscape:label="Пер. крылья 3" /><path
         id="path21"
         style="fill:#cdb184;fill-opacity:1;stroke-width:2.18092;paint-order:markers fill stroke"
         d="m 100.56289,161.27962 c 0,0 -5.051296,0.64176 -35.120069,4.45072 -1.247678,0.15805 -1.525411,4.7205 -1.567585,7.89325 -0.03494,2.62821 0.242668,4.75473 1.397508,5.42148 0.974311,0.56251 36.909796,1.79225 39.818736,1.79225 2.90892,0 38.8449,-1.22974 39.81922,-1.79225 1.15485,-0.66675 1.43241,-2.79327 1.39751,-5.42148 -0.0421,-3.17275 -0.31989,-7.7352 -1.56759,-7.89325 -30.06893,-3.80896 -35.12058,-4.45072 -35.12058,-4.45072 l -4.52857,17.99444 z"
         sodipodi:nodetypes="cssscsscccc"
         inkscape:label="Задние крылья " /><path
         id="path25"
         style="display:inline;fill:#d19751;fill-opacity:1;stroke:none;stroke-width:0.765;stroke-linecap:square;paint-order:markers fill stroke"
         d="m 100.29775,161.31315 c -0.0151,0.002 -6.310973,0.79976 -6.874512,0.87127 0.446122,0.58681 0.607336,1.20878 0.230994,1.90944 -1.139503,2.12145 -4.289067,-0.052 -7.097758,-1.03921 -0.850551,0.10785 -2.899854,0.36758 -4.146,0.52555 -2.379395,2.34934 -3.723067,7.39587 -1.381828,9.50743 1.803721,1.62676 4.700351,-2.99953 6.968567,-2.13062 2.600486,0.9962 3.4947,4.49312 4.312398,7.15512 0.214061,0.69688 0.219087,1.49475 0.131775,2.3306 2.545804,0.0904 4.65235,0.16756 6.614583,0.22893 -0.36337,-2.67467 -1.561598,-5.53238 -0.882633,-8.08943 0.544936,-2.05225 3.166834,-3.44627 3.898984,-5.30459 l -0.55449,-2.20348 c -0.63868,-0.41778 -1.4886,-0.7333 -1.682063,-1.41335 -0.220545,-0.77525 0.07723,-1.5609 0.461983,-2.34766 z m 17.33331,2.86339 c -2.87085,-0.0721 -5.12031,4.8256 -6.76186,7.59799 -4.36949,6.67076 -0.29106,4.76295 4.23902,8.7638 2.48213,-0.0848 5.13996,-0.18149 7.95662,-0.28938 -2.71068,-1.98415 -4.199,-4.43015 -5.18418,-8.07755 -0.4146,-1.53494 2.14166,-7.22475 0.66146,-7.80521 -0.3103,-0.12168 -0.61407,-0.18219 -0.91106,-0.18965 z"
         inkscape:label="ЗКР1" /><path
         id="path26"
         style="display:inline;fill:#3d1f03;fill-opacity:1;stroke:none;stroke-width:0.765;stroke-linecap:square;paint-order:markers fill stroke"
         d="m 126.21452,163.38279 c -0.37452,0.0845 -0.72672,0.21449 -1.01596,0.47232 -2.78264,2.48048 -4.92689,7.27797 -3.36775,10.66395 1.13366,2.46198 4.9433,4.12682 7.48326,3.18069 3.31927,-1.23643 1.14128,-9.74942 4.67723,-9.54154 3.56369,0.20953 0.41501,8.40387 3.55483,10.10274 2.21251,1.19715 6.01856,1.06829 8.26151,-0.3917 0.3954,-0.99531 0.51355,-2.44966 0.49816,-4.11862 -1.42571,-0.98749 -3.60396,-1.82324 -3.7083,-3.34759 -0.11871,-1.73416 0.92665,-3.27459 2.23242,-4.64055 -0.0301,-0.009 -0.0581,-0.0281 -0.0894,-0.032 -15.86135,-2.00922 -13.65652,-1.73033 -18.526,-2.34766 z m -52.714097,2.14819 c -0.241299,-0.007 -0.476433,0.0112 -0.699182,0.0563 -4.761784,0.96451 -3.808311,10.97842 -8.58914,11.78171 0.216353,0.78592 0.548426,1.38028 1.060401,1.67587 0.59266,0.34216 13.792509,0.90825 24.955066,1.31723 -1.245605,-2.95058 -4.142243,-5.47621 -7.136516,-6.35569 -4.063512,-1.19353 -10.053972,6.55397 -12.347566,2.99362 -1.972778,-3.06233 7.398487,-5.02438 6.734989,-8.60619 -0.289774,-1.56429 -2.288957,-2.81619 -3.978052,-2.86288 z"
         inkscape:label="ЗКР2" /><path
         id="path27"
         style="display:inline;fill:#7f592a;fill-opacity:1;stroke:none;stroke-width:0.765;stroke-linecap:square;paint-order:markers fill stroke"
         d="m 112.18385,161.60461 c -0.11731,0.60224 -0.35596,1.11938 -0.86816,1.45417 -0.59648,0.38988 -1.33768,0.19637 -2.10789,-0.14159 l -1.56011,6.19859 c 2.35935,0.82387 5.61209,-0.0606 8.16591,0.55758 1.80265,0.43636 3.18239,3.52631 5.01104,3.21651 1.36523,-0.23129 3.01203,-1.76875 3.30729,-3.12159 0.45853,-2.10092 -1.82029,-4.64402 -2.76208,-6.57721 -0.0696,-0.14282 -0.13051,-0.29435 -0.1912,-0.44648 -1.40547,-0.17825 -8.77867,-1.11254 -8.9948,-1.13998 z m -30.014189,2.00608 c -2.205591,0.27958 -3.515289,0.44543 -7.193876,0.91157 1.998528,1.81637 3.196137,4.0458 4.031796,7.13961 0.414598,1.53494 -2.141655,7.22475 -0.661459,7.80521 3.309834,1.29795 5.861551,-4.34914 7.672917,-7.40833 4.243016,-6.47767 0.517684,-4.88346 -3.849378,-8.44806 z"
         sodipodi:nodetypes="csccssssccccsscc"
         inkscape:label="ЗКР3" /><path
         id="path68"
         style="fill:#a68c59;fill-opacity:1;stroke-width:2.18092;paint-order:markers fill stroke"
         d="m 147.90184,59.833614 c 2.76165,-0.103268 6.45382,0.03851 6.50476,1.529141 0.24089,7.050648 0.55845,11.389215 0.50676,17.609656 -0.0872,10.484459 0.22221,26.061529 -1.45659,26.486959 -0.74329,0.18835 -6.58943,0.33113 -7.41835,0.34532 -0.8289,0.0142 -6.67645,0.0775 -7.42591,-0.0846 -1.69273,-0.36606 -1.93242,-15.94436 -2.38853,-26.419259 -0.2706,-6.214765 -0.10543,-10.561832 -0.11288,-17.616588 -0.002,-2.260806 8.22986,-1.729195 9.121,-1.665894 0.30189,-0.03217 1.2449,-0.132056 2.66974,-0.185339 z"
         sodipodi:nodetypes="cssscsscccc"
         inkscape:label="Прав. двигатель" /><path
         id="path80"
         style="fill:#808080;fill-opacity:1;stroke-width:2.18092;paint-order:markers fill stroke"
         d="m 62.907436,56.062882 c -0.305148,0.619456 -0.683055,3.906385 -0.590788,3.931201 l 2.543856,0.08833 -5.5e-5,0.0031 0.08963,-9e-6 0.08958,0.0032 5.5e-5,-0.0031 2.544882,0.0013 c 0.09309,-0.02155 -0.168902,-3.319746 -0.452057,-3.94956 -0.542817,-1.207366 -1.606612,-1.666579 -2.083431,-1.675009 -0.476818,-0.0085 -1.556654,0.413011 -2.141664,1.60058 z"
         sodipodi:nodetypes="scccccccscs"
         inkscape:label="Лев. винт" /><path
         id="path81"
         style="fill:#010101;fill-opacity:1;stroke-width:2.91704;paint-order:markers fill stroke"
         d="m 57.930651,57.471882 c -1.398307,-0.02154 -2.574561,0.0089 -3.037738,0.142242 -0.381299,0.109836 -1.2629,0.695678 -1.030066,0.972775 0.242982,0.289174 10.651412,0.367447 11.107117,0.370769 0.456917,0.01281 10.859784,0.300836 11.11278,0.02041 0.242438,-0.268729 -0.617466,-0.885229 -0.994668,-1.008418 -1.421997,-0.464407 -9.597226,-0.181205 -10.097841,-0.163426 -0.337713,-0.02392 -4.11786,-0.288954 -7.059584,-0.334354 z"
         inkscape:label="Лев. пропеллер" /><path
         id="path82"
         style="fill:#a68c59;fill-opacity:1;stroke-width:2.18092;paint-order:markers fill stroke"
         d="m 62.281559,59.833614 c -2.761639,-0.103268 -6.453791,0.03851 -6.504722,1.529141 -0.240888,7.050648 -0.558452,11.389215 -0.506767,17.609656 0.08712,10.484459 -0.222203,26.061529 1.456589,26.486959 0.743283,0.18835 6.589392,0.33113 7.418299,0.34532 0.828909,0.0142 6.676412,0.0775 7.425871,-0.0846 1.692725,-0.36606 1.932412,-15.94436 2.38852,-26.419259 0.270607,-6.214765 0.105433,-10.561832 0.112886,-17.616588 0.0024,-2.260806 -8.229817,-1.729195 -9.120955,-1.665894 -0.301895,-0.03217 -1.24489,-0.132056 -2.669721,-0.185339 z"
         sodipodi:nodetypes="cssscsssccc"
         inkscape:label="Лев. двигатель" /><path
         style="fill:#a68c59;fill-opacity:1;stroke-width:2.18092;paint-order:markers fill stroke"
         d="m 9.1683335,121.14455 c 0.307125,0.31791 1.0680985,0.19353 1.4261955,-0.0656 2.212523,-1.6013 3.258849,-6.2242 4.213017,-15.99959 0.864204,-8.853676 1.55263,-17.182583 1.377017,-29.704062 -0.03605,-2.570847 -0.110351,-6.02093 -1.950433,-7.816667 -0.56162,-0.548065 -1.545216,-0.680014 -2.481519,0.353733 -4.7410851,5.234509 -4.8064882,13.304476 -5.2136732,19.290283 -0.4220713,6.20461 -0.4472634,15.327023 -0.068385,23.508013 0.1681629,3.63107 1.1632724,8.84547 2.6977807,10.43389 z"
         id="path84"
         sodipodi:nodetypes="sssssssss"
         inkscape:label="лч крыльев" /><path
         id="path88"
         style="fill:#808080;fill-opacity:1;stroke-width:2.18092;paint-order:markers fill stroke"
         d="m 147.27595,56.062882 c 0.30515,0.619456 0.68307,3.906385 0.59079,3.931201 l -2.54386,0.08833 4e-5,0.0031 -0.0897,-9e-6 -0.0897,0.0032 -6e-5,-0.0031 -2.5449,0.0013 c -0.093,-0.02155 0.1689,-3.319746 0.45207,-3.94956 0.54281,-1.207366 1.60661,-1.666579 2.08345,-1.675009 0.47684,-0.0085 1.55668,0.413011 2.14169,1.60058 z"
         sodipodi:nodetypes="scccccccscs"
         inkscape:label="Лев. винт" /><path
         id="path89"
         style="fill:#010101;fill-opacity:1;stroke-width:2.91704;paint-order:markers fill stroke"
         d="m 152.25277,57.471882 c 1.39832,-0.02154 2.57458,0.0089 3.03775,0.142242 0.38131,0.109836 1.26291,0.695678 1.03008,0.972775 -0.24299,0.289174 -10.65147,0.367447 -11.10718,0.370769 -0.45693,0.01281 -10.85985,0.300836 -11.11284,0.02041 -0.24245,-0.268729 0.61746,-0.885229 0.99467,-1.008418 1.422,-0.464407 9.59728,-0.181205 10.0979,-0.163426 0.33771,-0.02392 4.11788,-0.288954 7.05962,-0.334354 z"
         inkscape:label="Прав. пропеллер" /><path
         style="fill:#a68c59;fill-opacity:1;stroke-width:2.18092;paint-order:markers fill stroke"
         d="m 201.01534,121.14456 c -0.30712,0.31791 -1.0681,0.19353 -1.42619,-0.0656 -2.21253,-1.6013 -3.25886,-6.2242 -4.21303,-15.99959 -0.86421,-8.853732 -1.55264,-17.182642 -1.37703,-29.704121 0.0361,-2.570847 0.11035,-6.02093 1.95044,-7.816667 0.56163,-0.548085 1.54523,-0.680034 2.48154,0.353713 4.74108,5.23451 4.80648,13.304476 5.21367,19.290283 0.42207,6.20461 0.44726,15.327022 0.0684,23.508022 -0.16816,3.63107 -1.16326,8.84547 -2.69779,10.43389 z"
         id="path92"
         sodipodi:nodetypes="sssssssss"
         inkscape:label="Пч крыльев" /><path
         id="path96"
         style="display:inline;fill:url(#radialGradient97);fill-opacity:1;stroke-width:2.18092;paint-order:markers fill stroke"
         d="m 62.281559,59.833614 c -2.761639,-0.103268 -6.453791,0.03851 -6.504722,1.529141 -0.240888,7.050648 -0.558452,11.389215 -0.506767,17.609656 0.08712,10.484459 -0.222203,26.061529 1.456589,26.486959 0.743283,0.18835 6.589392,0.33113 7.418299,0.34532 0.828909,0.0142 6.676412,0.0775 7.425871,-0.0846 1.692725,-0.36606 1.932412,-15.94436 2.38852,-26.419259 0.270607,-6.214765 0.105433,-10.561832 0.112886,-17.616588 0.0024,-2.260806 -8.229817,-1.729195 -9.120955,-1.665894 -0.301895,-0.03217 -1.24489,-0.132056 -2.669721,-0.185339 z"
         sodipodi:nodetypes="cssscsssccc"
         inkscape:label="Градиент лев. двигателя" /><path
         id="path97"
         style="fill:#010101;fill-opacity:1;stroke-width:2.18092;paint-order:markers fill stroke"
         d="m 58.634582,102.84408 -0.708999,0.69259 -0.04149,1.42568 5.408683,0.11987 -0.163931,-0.93746 -1.143928,-0.20902 -0.730515,-0.89802 z m 11.121661,0.1957 -2.625449,0.10142 -0.761253,0.8719 -1.150587,0.16855 -0.196717,0.9308 5.409195,0.0707 0.0088,-1.42619 z"
         inkscape:label="Промышленные отверстия 1" /><path
         id="path98"
         style="display:inline;fill:url(#radialGradient99);fill-opacity:1;stroke-width:2.18092;paint-order:markers fill stroke"
         d="m 147.90184,59.833614 c 2.76165,-0.103268 6.45382,0.03851 6.50476,1.529141 0.24089,7.050648 0.55845,11.389215 0.50676,17.609656 -0.0872,10.484459 0.22221,26.061529 -1.45659,26.486959 -0.74329,0.18835 -6.58943,0.33113 -7.41835,0.34532 -0.8289,0.0142 -6.67645,0.0775 -7.42591,-0.0846 -1.69273,-0.36606 -1.93242,-15.94436 -2.38853,-26.419259 -0.2706,-6.214765 -0.10543,-10.561832 -0.11288,-17.616588 -0.002,-2.260806 8.22986,-1.729195 9.121,-1.665894 0.30189,-0.03217 1.2449,-0.132056 2.66974,-0.185339 z"
         sodipodi:nodetypes="cssscsscccc"
         inkscape:label="Градиент прав. двигателя" /><path
         id="path99"
         style="fill:#010101;fill-opacity:1;stroke-width:2.18092;paint-order:markers fill stroke"
         d="m 151.5488,102.84406 0.70901,0.69252 0.0415,1.42567 -5.40848,0.11982 0.16385,-0.93743 1.14402,-0.2087 0.7302,-0.89819 z m -11.12156,0.19581 2.6251,0.10133 0.76136,0.87196 1.15067,0.16829 0.19673,0.93107 -5.40932,0.0706 -0.009,-1.42625 z"
         inkscape:label="Промышленные отверстия 2" /><path
         style="display:inline;fill:url(#radialGradient102);fill-opacity:1;stroke-width:2.18092;paint-order:markers fill stroke"
         d="m 9.1683335,121.14455 c 0.307125,0.31791 1.0680985,0.19353 1.4261955,-0.0656 2.212523,-1.6013 3.258849,-6.2242 4.213017,-15.99959 0.864204,-8.853676 1.55263,-17.182583 1.377017,-29.704062 -0.03605,-2.570847 -0.110351,-6.02093 -1.950433,-7.816667 -0.56162,-0.548065 -1.545216,-0.680014 -2.481519,0.353733 -4.7410851,5.234509 -4.8064882,13.304476 -5.2136732,19.290283 -0.4220713,6.20461 -0.4472634,15.327023 -0.068385,23.508013 0.1681629,3.63107 1.1632724,8.84547 2.6977807,10.43389 z"
         id="path101"
         sodipodi:nodetypes="sssssssss"
         inkscape:label="Градиент лч крыльев " /><path
         style="display:inline;fill:url(#radialGradient104);fill-opacity:1;stroke-width:2.18092;paint-order:markers fill stroke"
         d="m 201.01534,121.14456 c -0.30712,0.31791 -1.0681,0.19353 -1.42619,-0.0656 -2.21253,-1.6013 -3.25886,-6.2242 -4.21303,-15.99959 -0.86421,-8.853732 -1.55264,-17.182642 -1.37703,-29.704121 0.0361,-2.570847 0.11035,-6.02093 1.95044,-7.816667 0.56163,-0.548085 1.54523,-0.680034 2.48154,0.353713 4.74108,5.23451 4.80648,13.304476 5.21367,19.290283 0.42207,6.20461 0.44726,15.327022 0.0684,23.508022 -0.16816,3.63107 -1.16326,8.84547 -2.69779,10.43389 z"
         id="path102"
         sodipodi:nodetypes="sssssssss"
         inkscape:label="Градиент пч крыльев" /><path
         id="path106"
         style="fill:#f7e9c6;fill-opacity:1;stroke-width:2.18092;paint-order:markers fill stroke"
         d="m 104.76463,51.337051 c -0.81884,0.03818 -2.70206,0.318235 -4.66587,1.946676 -5.271064,4.370909 -6.09584,12.275577 -7.178623,18.939609 -0.548015,3.372788 -0.443657,17.102444 -0.328885,25.653584 0.09277,6.91157 0.314217,13.82681 0.822215,20.72031 0.791333,10.73835 1.821151,15.38844 3.124412,23.02251 1.061519,6.21803 2.20118,12.71685 3.530141,18.88325 0.90026,4.17721 2.63757,11.89293 4.3247,17.88483 0.21778,0.77346 0.59229,1.33816 0.67211,1.4559 v 0.0892 c 0,0 0.0244,-0.0412 0.0266,-0.0445 0.002,0.003 0.0272,0.0445 0.0272,0.0445 v -0.0892 c 0.0799,-0.11779 0.45383,-0.68249 0.67161,-1.4559 1.68716,-5.9919 3.42494,-13.70762 4.32521,-17.88483 1.32896,-6.1664 2.46811,-12.66522 3.52963,-18.88325 1.30326,-7.63407 2.33306,-12.28416 3.12441,-23.02251 0.50799,-6.8935 0.72942,-13.80874 0.82222,-20.72031 0.11477,-8.55114 0.21913,-22.280796 -0.32889,-25.653584 -1.08279,-6.664032 -1.90702,-14.5687 -7.17812,-18.939609 -2.46476,-2.043841 -4.72733,-1.962126 -4.99321,-1.945651 -0.0541,-0.0034 -0.11804,-0.01076 -0.32684,-9.96e-4 z"
         inkscape:label="Основание" /><path
         id="path31"
         style="display:inline;fill:#ca944f;fill-opacity:1;stroke:none;stroke-width:0.765;stroke-linecap:square;paint-order:markers fill stroke"
         d="m 106.10308,53.334212 c -2.32017,-0.05567 -3.47922,3.667081 -3.55482,5.986715 -0.12994,3.986178 4.73251,6.736847 5.42551,10.664465 0.44757,2.536632 -2.29281,5.481249 -0.93534,7.670333 0.5925,0.955467 2.4467,0.270805 3.18068,1.122412 1.28555,1.491577 -0.18785,4.330266 1.12241,5.800163 1.52314,1.708668 3.92012,3.172226 6.32727,3.689697 0.0139,-3.79296 -0.006,-7.460672 -0.0847,-10.483081 -1.18507,-0.329223 -2.00559,-0.874367 -1.93942,-1.999878 0.0597,-1.015662 0.77926,-1.477074 1.80092,-1.703255 -0.051,-0.76959 -0.11065,-1.413414 -0.18293,-1.858284 -0.27399,-1.686257 -0.53245,-3.452062 -0.84956,-5.219837 -2.12316,-0.636455 -3.92491,-2.810262 -5.44566,-4.502051 -2.3126,-2.572681 -1.40599,-9.084399 -4.86431,-9.167399 z m 9.30383,54.016338 c -1.71122,-0.0277 -3.372,0.3679 -4.56045,1.23869 -2.26873,1.66232 0.27247,5.87321 -1.0082,8.37726 -1.38006,2.69844 -5.21473,3.51399 -6.68383,6.165 -1.5114,2.72736 -2.86803,6.2881 -1.73271,9.19221 0.93427,2.38985 5.61804,2.08794 6.17843,4.59196 0.77106,3.4453 -5.97458,5.94595 -4.99711,9.33845 0.52965,1.83825 3.1047,3.19763 4.98471,2.84376 2.7351,-0.51484 4.48061,-3.2195 5.79293,-5.9738 0.0854,-0.49757 0.18019,-1.00997 0.26458,-1.5043 1.30326,-7.63406 2.33301,-12.28403 3.12436,-23.02237 0.27049,-3.67063 0.45572,-7.34759 0.58756,-11.02672 -0.64243,-0.1302 -1.29916,-0.20959 -1.95027,-0.22014 z" /><path
         id="path32"
         style="display:inline;fill:#3f250e;fill-opacity:1;stroke:none;stroke-width:0.765;stroke-linecap:square;paint-order:markers fill stroke"
         d="m 105.87571,79.154858 c -1.83388,0.06036 -3.35679,2.24244 -5.10873,3.095935 -2.487555,1.211843 -6.484987,0.983661 -8.257381,2.764173 -0.0021,1.255719 -4.53e-4,2.514068 0.0052,3.789949 0.576938,0.742787 1.356329,1.411461 2.034502,1.912545 1.686046,1.245778 4.938458,-0.167256 6.085409,1.5875 1.07492,1.644536 -2.266442,4.384428 -0.926034,5.820833 1.359194,1.456518 4.494564,0.82784 5.953124,-0.529166 2.42031,-2.251785 0.80974,-6.57657 1.5875,-9.789584 0.43636,-1.802644 2.02959,-3.46302 1.71979,-5.291666 -0.23129,-1.365228 -1.1607,-3.012032 -2.51354,-3.307292 -0.19697,-0.04299 -0.3901,-0.05947 -0.57981,-0.05323 z m -3.95997,57.706552 c -2.108632,-0.0529 -3.879163,2.57521 -5.32267,5.07308 0.592776,3.46881 1.213707,7.01383 1.875338,10.54457 0.603312,0.44352 1.224597,0.97527 1.844852,1.63763 1.98343,2.30528 3.7113,10.00295 6.74687,10.18646 0.73019,0.0441 1.49403,-0.0382 2.24431,-0.21291 0.26531,-1.18659 0.61535,-2.6805 0.8108,-3.58738 0.45035,-2.08961 0.87304,-4.22185 1.28416,-6.36395 -0.70696,0.25916 -1.39608,0.4167 -1.95802,0.11007 -4.08561,-2.22936 -6.06238,-4.89944 -7.27604,-9.39271 -0.4146,-1.53492 2.14166,-7.22474 0.66146,-7.8052 -0.3103,-0.12169 -0.61407,-0.1822 -0.91106,-0.18966 z" /><path
         id="path33"
         style="display:inline;fill:#7e572b;fill-opacity:1;stroke:none;stroke-width:0.765;stroke-linecap:square;paint-order:markers fill stroke"
         d="m 93.224284,82.075094 c -0.23663,0.0088 -0.470403,0.02942 -0.700733,0.05891 -0.04359,5.170311 0.0061,11.154277 0.0677,15.742708 0.09277,6.911568 0.314174,13.827208 0.822172,20.720698 0.101337,1.37514 0.207027,2.64505 0.316259,3.83956 0.123734,0.0268 0.248997,0.0495 0.376722,0.0646 5.933176,0.70119 9.060266,-7.85467 12.957866,-12.38271 3.71532,-4.31629 8.94909,-8.35305 10.5425,-13.691672 0.0251,-2.020246 0.0464,-4.147702 0.06,-6.433199 -0.44545,-1.528986 -1.2734,-2.812769 -2.62206,-3.205489 -2.47309,-0.720159 -4.57172,2.621176 -6.19084,4.624524 -2.69776,3.337807 -1.14869,10.931386 -5.37073,11.701616 -3.43835,0.62727 -6.626846,-3.976024 -7.456907,-7.371131 -0.901626,-3.687836 5.393807,-7.555065 3.491777,-10.840682 -1.09526,-1.892039 -3.821328,-2.919334 -6.293673,-2.827734 z" /><path
         id="path120"
         style="fill:#808080;fill-opacity:1;stroke-width:2.18092;paint-order:markers fill stroke"
         d="m 104.7923,150.3992 c -0.42682,1.22723 -0.65904,7.93566 -0.61526,15.59543 0.0721,12.60204 0.4765,13.8375 0.65573,16.15739 0.0226,0.29284 0.1443,0.3976 0.25463,0.39724 0.11032,-3.6e-4 0.23205,-0.10498 0.25462,-0.39723 0.17923,-2.31989 0.58366,-3.55535 0.65572,-16.15739 0.0438,-7.65977 -0.18845,-14.3682 -0.61525,-15.59543 -0.0253,-0.0726 -0.13362,-0.10022 -0.29509,-0.10021 -0.16146,2e-5 -0.26984,0.0276 -0.2951,0.1002 z"
         sodipodi:nodetypes="csscssscc"
         inkscape:label="ЗВ крыло" /><path
         id="path121"
         style="fill:url(#radialGradient122);fill-opacity:1;stroke-width:2.18092;paint-order:markers fill stroke"
         d="m 104.7923,150.3992 c -0.42682,1.22723 -0.65904,7.93566 -0.61526,15.59543 0.0721,12.60204 0.4765,13.8375 0.65573,16.15739 0.0226,0.29284 0.1443,0.3976 0.25463,0.39724 0.11032,-3.6e-4 0.23205,-0.10498 0.25462,-0.39723 0.17923,-2.31989 0.58366,-3.55535 0.65572,-16.15739 0.0438,-7.65977 -0.18845,-14.3682 -0.61525,-15.59543 -0.0253,-0.0726 -0.13362,-0.10022 -0.29509,-0.10021 -0.16146,2e-5 -0.26984,0.0276 -0.2951,0.1002 z"
         sodipodi:nodetypes="csscssscc"
         inkscape:label="Градиент зв крыла" /><path
         id="path114"
         style="fill:#010101;fill-opacity:1;stroke-width:2.18092;paint-order:markers fill stroke"
         inkscape:label="Стекла"
         d="m 104.63806,67.994299 c 0,0 -3.53535,0.140124 -4.86999,0.468706 -1.680202,0.413657 -3.339583,1.26895 -4.931481,3.207556 -0.711192,0.866086 -1.358057,3.378088 -1.358057,3.378088 l 1.425753,0.917257 c 0,0 1.869988,-1.377355 2.635498,-1.785938 1.265914,-0.675675 1.910475,-0.814699 3.170347,-1.003556 1.32374,-0.198452 3.92586,-0.131258 3.92586,-0.131258 z m 0.90692,0 0.002,5.050855 c 0,0 2.60263,-0.06719 3.92637,0.131258 1.25988,0.188857 1.90391,0.327881 3.16983,1.003556 0.76551,0.408583 2.63602,1.785938 2.63602,1.785938 l 1.42523,-0.917257 c 0,0 -0.64634,-2.512002 -1.35754,-3.378088 -1.5919,-1.938606 -3.25127,-2.793899 -4.93148,-3.207556 -1.33465,-0.328582 -4.8705,-0.468706 -4.8705,-0.468706 z m -12.44472,10.509436 10e-4,10.934733 1.262455,-0.536918 0.0057,-10.113594 z m 23.98252,0 -1.26918,0.284221 0.006,10.113594 1.26246,0.536918 z m -22.632731,13.594003 -1.261422,0.318843 0.281637,10.109459 1.276924,0.5023 z m 21.283451,0 -0.29765,10.930602 1.27692,-0.5023 0.28164,-10.109459 z" /></g></g></svg>
