<?xml version="1.0" encoding="UTF-8" standalone="no"?>
<!-- Created with Inkscape (http://www.inkscape.org/) -->

<svg
   width="210mm"
   height="210mm"
   viewBox="0 0 210 210"
   version="1.1"
   id="svg1"
   xml:space="preserve"
   inkscape:version="1.3.2 (091e20e, 2023-11-25, custom)"
   sodipodi:docname="smuggler_1.svg"
   xmlns:inkscape="http://www.inkscape.org/namespaces/inkscape"
   xmlns:sodipodi="http://sodipodi.sourceforge.net/DTD/sodipodi-0.dtd"
   xmlns:xlink="http://www.w3.org/1999/xlink"
   xmlns="http://www.w3.org/2000/svg"
   xmlns:svg="http://www.w3.org/2000/svg"><sodipodi:namedview
     id="namedview1"
     pagecolor="#ffffff"
     bordercolor="#000000"
     borderopacity="0.25"
     inkscape:showpageshadow="2"
     inkscape:pageopacity="0.0"
     inkscape:pagecheckerboard="true"
     inkscape:deskcolor="#d1d1d1"
     inkscape:document-units="mm"
     showguides="true"
     inkscape:zoom="1.4142136"
     inkscape:cx="263.75083"
     inkscape:cy="326.32978"
     inkscape:window-width="3440"
     inkscape:window-height="1417"
     inkscape:window-x="-8"
     inkscape:window-y="-8"
     inkscape:window-maximized="1"
     inkscape:current-layer="layer1" /><defs
     id="defs1"><linearGradient
       id="linearGradient121"
       inkscape:collect="always"><stop
         style="stop-color:#838383;stop-opacity:1;"
         offset="0"
         id="stop121" /><stop
         style="stop-color:#363636;stop-opacity:0;"
         offset="1"
         id="stop122" /></linearGradient><linearGradient
       id="linearGradient107"
       inkscape:collect="always"><stop
         style="stop-color:#ffffff;stop-opacity:1;"
         offset="0"
         id="stop107" /><stop
         style="stop-color:#bbbbbb;stop-opacity:0;"
         offset="1"
         id="stop108" /></linearGradient><linearGradient
       id="linearGradient104"
       inkscape:collect="always"><stop
         style="stop-color:#f2f2f2;stop-opacity:1;"
         offset="0"
         id="stop105" /><stop
         style="stop-color:#a5a5a5;stop-opacity:0;"
         offset="1"
         id="stop106" /></linearGradient><linearGradient
       id="linearGradient102"
       inkscape:collect="always"><stop
         style="stop-color:#e1e1e1;stop-opacity:1;"
         offset="0"
         id="stop103" /><stop
         style="stop-color:#9c9c9c;stop-opacity:0.24313726;"
         offset="1"
         id="stop104" /></linearGradient><linearGradient
       id="linearGradient101"
       inkscape:collect="always"><stop
         style="stop-color:#e1e1e1;stop-opacity:1;"
         offset="0"
         id="stop101" /><stop
         style="stop-color:#9c9c9c;stop-opacity:0.24313726;"
         offset="1"
         id="stop102" /></linearGradient><linearGradient
       id="linearGradient98"
       inkscape:collect="always"><stop
         style="stop-color:#e1e1e1;stop-opacity:1;"
         offset="0"
         id="stop98" /><stop
         style="stop-color:#9c9c9c;stop-opacity:0.24313726;"
         offset="1"
         id="stop99" /></linearGradient><linearGradient
       id="linearGradient96"
       inkscape:collect="always"><stop
         style="stop-color:#e1e1e1;stop-opacity:1;"
         offset="0"
         id="stop96" /><stop
         style="stop-color:#9c9c9c;stop-opacity:0.24242428;"
         offset="1"
         id="stop97" /></linearGradient><linearGradient
       id="linearGradient76"
       inkscape:collect="always"><stop
         style="stop-color:#ffffff;stop-opacity:1;"
         offset="0"
         id="stop77" /><stop
         style="stop-color:#e7e7e7;stop-opacity:0;"
         offset="1"
         id="stop78" /></linearGradient><inkscape:path-effect
       effect="bspline"
       id="path-effect729"
       is_visible="true"
       lpeversion="1"
       weight="33.333333"
       steps="2"
       helper_size="0"
       apply_no_weight="true"
       apply_with_weight="true"
       only_selected="false"
       uniform="false" /><inkscape:path-effect
       effect="bspline"
       id="path-effect1385"
       is_visible="true"
       lpeversion="1"
       weight="33.333333"
       steps="2"
       helper_size="0"
       apply_no_weight="true"
       apply_with_weight="true"
       only_selected="false"
       uniform="false" /><inkscape:path-effect
       effect="bspline"
       id="path-effect312"
       is_visible="true"
       lpeversion="1"
       weight="33.333333"
       steps="2"
       helper_size="0"
       apply_no_weight="true"
       apply_with_weight="true"
       only_selected="false"
       uniform="false" /><inkscape:path-effect
       effect="bspline"
       id="path-effect50"
       is_visible="true"
       lpeversion="1"
       weight="33.333333"
       steps="2"
       helper_size="0"
       apply_no_weight="true"
       apply_with_weight="true"
       only_selected="false"
       uniform="false" /><inkscape:path-effect
       effect="bspline"
       id="path-effect52"
       is_visible="true"
       lpeversion="1"
       weight="33.333333"
       steps="2"
       helper_size="0"
       apply_no_weight="true"
       apply_with_weight="true"
       only_selected="false"
       uniform="false" /><inkscape:path-effect
       effect="bspline"
       id="path-effect54"
       is_visible="true"
       lpeversion="1"
       weight="33.333333"
       steps="2"
       helper_size="0"
       apply_no_weight="true"
       apply_with_weight="true"
       only_selected="false"
       uniform="false" /><radialGradient
       inkscape:collect="always"
       xlink:href="#linearGradient76"
       id="radialGradient78"
       cx="105.09196"
       cy="120.37275"
       fx="105.09196"
       fy="120.37275"
       r="97.944366"
       gradientTransform="matrix(2.8146445,0,0,0.16215181,-190.70454,80.21659)"
       gradientUnits="userSpaceOnUse" /><radialGradient
       inkscape:collect="always"
       xlink:href="#linearGradient96"
       id="radialGradient97"
       cx="64.689934"
       cy="103.45556"
       fx="64.689934"
       fy="103.45556"
       r="9.4254522"
       gradientTransform="matrix(0.93614299,0.02837703,-0.17864372,5.8933633,22.61259,-528.71883)"
       gradientUnits="userSpaceOnUse" /><radialGradient
       inkscape:collect="always"
       xlink:href="#linearGradient98"
       id="radialGradient99"
       cx="145.49345"
       cy="103.45556"
       fx="145.49345"
       fy="103.45556"
       r="9.4255009"
       gradientTransform="matrix(0.9082828,0,-2.9028569e-8,5.841497,13.344257,-521.51728)"
       gradientUnits="userSpaceOnUse" /><radialGradient
       inkscape:collect="always"
       xlink:href="#linearGradient101"
       id="radialGradient102"
       cx="5.9160652"
       cy="107.46575"
       fx="5.9160652"
       fy="107.46575"
       r="5.0043678"
       gradientTransform="matrix(1.2779536,0.08842829,-0.64761974,9.3593132,73.244221,-912.09215)"
       gradientUnits="userSpaceOnUse" /><radialGradient
       inkscape:collect="always"
       xlink:href="#linearGradient102"
       id="radialGradient104"
       cx="204.26762"
       cy="107.46572"
       fx="204.26762"
       fy="107.46572"
       r="5.0043812"
       gradientTransform="matrix(1.1618126,-0.08860584,0.75486424,9.8978869,-119.4668,-951.34763)"
       gradientUnits="userSpaceOnUse" /><radialGradient
       inkscape:collect="always"
       xlink:href="#linearGradient104"
       id="radialGradient106"
       cx="105.09172"
       cy="191.69597"
       fx="105.09172"
       fy="191.69597"
       r="41.219322"
       gradientTransform="matrix(1,0,0,0.23723947,0,125.58062)"
       gradientUnits="userSpaceOnUse" /><radialGradient
       inkscape:collect="always"
       xlink:href="#linearGradient107"
       id="radialGradient108"
       cx="105.09148"
       cy="135.53732"
       fx="105.09148"
       fy="135.53732"
       r="12.591909"
       gradientTransform="matrix(1,0,0,5.1064818,-0.52916663,-580.22803)"
       gradientUnits="userSpaceOnUse" /><radialGradient
       inkscape:collect="always"
       xlink:href="#linearGradient121"
       id="radialGradient122"
       cx="105.08739"
       cy="187.06163"
       fx="105.08739"
       fy="187.06163"
       r="0.91560167"
       gradientTransform="matrix(1,0,0,17.611512,3.6666667e-8,-3128.0141)"
       gradientUnits="userSpaceOnUse" /></defs><g
     inkscape:label="Слой 1"
     inkscape:groupmode="layer"
     id="layer1"><g
       id="g1"
       transform="translate(-0.09183911,-11.940734)"><path
         id="path15"
         style="fill:#cccccc;fill-opacity:1;stroke-width:2.18092;paint-order:markers fill stroke"
         d="m 55.837518,81.16216 -45.30476,1.78633 -1.2463843,14.70765 -2.138781,13.7676 c 0,0 20.1632783,1.93089 30.2503043,2.83753 12.091,1.08674 34.801148,3.01558 36.285507,3.11878 6.665147,0.4634 19.837642,0.92825 19.837642,0.92825 l -0.69773,-11.65136 -0.269972,-15.4233 0.0015,-9.19804 -18.520563,-0.80787 z m 98.508402,0 -18.19679,0.0656 -18.52056,0.80787 9.9e-4,9.19804 -0.26946,15.4233 -0.69772,11.65136 c 0,0 13.17245,-0.46485 19.83764,-0.92825 1.48436,-0.1032 24.19494,-2.03204 36.28601,-3.11878 10.08709,-0.90664 30.2503,-2.83753 30.2503,-2.83753 l -2.13878,-13.7676 -1.24639,-14.70765 z"
         inkscape:label="Пер. крылья " /><path
         id="path21"
         style="fill:#cccccc;fill-opacity:1;stroke-width:2.18092;paint-order:markers fill stroke"
         d="m 100.56289,161.27962 c 0,0 -5.051296,0.64176 -35.120069,4.45072 -1.247678,0.15805 -1.525411,4.7205 -1.567585,7.89325 -0.03494,2.62821 0.242668,4.75473 1.397508,5.42148 0.974311,0.56251 36.909796,1.79225 39.818736,1.79225 2.90892,0 38.8449,-1.22974 39.81922,-1.79225 1.15485,-0.66675 1.43241,-2.79327 1.39751,-5.42148 -0.0421,-3.17275 -0.31989,-7.7352 -1.56759,-7.89325 -30.06893,-3.80896 -35.12058,-4.45072 -35.12058,-4.45072 l -4.52857,17.99444 z"
         sodipodi:nodetypes="cssscsscccc"
         inkscape:label="Задние крылья " /><path
         id="path54"
         style="fill:url(#radialGradient78);fill-opacity:1;stroke-width:2.18092;paint-order:markers fill stroke"
         d="m 55.837518,81.16216 -45.30476,1.78633 -1.2463843,14.70765 -2.138781,13.7676 c 0,0 20.1632783,1.93089 30.2503043,2.83753 12.091,1.08674 34.801148,3.01558 36.285507,3.11878 6.665147,0.4634 19.837642,0.92825 19.837642,0.92825 l -0.69773,-11.65136 -0.269972,-15.4233 0.0015,-9.19804 -18.520563,-0.80787 z m 98.508402,0 -18.19679,0.0656 -18.52056,0.80787 9.9e-4,9.19804 -0.26946,15.4233 -0.69772,11.65136 c 0,0 13.17245,-0.46485 19.83764,-0.92825 1.48436,-0.1032 24.19494,-2.03204 36.28601,-3.11878 10.08709,-0.90664 30.2503,-2.83753 30.2503,-2.83753 l -2.13878,-13.7676 -1.24639,-14.70765 z"
         inkscape:label="Градиент пер. крыльев" /><path
         id="path58"
         style="fill:#808080;fill-opacity:1;stroke-width:2.18092;paint-order:markers fill stroke"
         d="m 62.907436,56.062882 c -0.305148,0.619456 -0.683055,3.906385 -0.590788,3.931201 l 2.543856,0.08833 -5.5e-5,0.0031 0.08963,-9e-6 0.08958,0.0032 5.5e-5,-0.0031 2.544882,0.0013 c 0.09309,-0.02155 -0.168902,-3.319746 -0.452057,-3.94956 -0.542817,-1.207366 -1.606612,-1.666579 -2.083431,-1.675009 -0.476818,-0.0085 -1.556654,0.413011 -2.141664,1.60058 z"
         sodipodi:nodetypes="scccccccscs" /><path
         id="path59"
         style="fill:#010101;fill-opacity:1;stroke-width:2.91704;paint-order:markers fill stroke"
         d="m 57.930651,57.471882 c -1.398307,-0.02154 -2.574561,0.0089 -3.037738,0.142242 -0.381299,0.109836 -1.2629,0.695678 -1.030066,0.972775 0.242982,0.289174 10.651412,0.367447 11.107117,0.370769 0.456917,0.01281 10.859784,0.300836 11.11278,0.02041 0.242438,-0.268729 -0.617466,-0.885229 -0.994668,-1.008418 -1.421997,-0.464407 -9.597226,-0.181205 -10.097841,-0.163426 -0.337713,-0.02392 -4.11786,-0.288954 -7.059584,-0.334354 z" /><path
         id="path60"
         style="fill:#a9a9a9;fill-opacity:1;stroke-width:2.18092;paint-order:markers fill stroke"
         d="m 62.281559,59.833614 c -2.761639,-0.103268 -6.453791,0.03851 -6.504722,1.529141 -0.240888,7.050648 -0.558452,11.389215 -0.506767,17.609656 0.08712,10.484459 -0.222203,26.061529 1.456589,26.486959 0.743283,0.18835 6.589392,0.33113 7.418299,0.34532 0.828909,0.0142 6.676412,0.0775 7.425871,-0.0846 1.692725,-0.36606 1.932412,-15.94436 2.38852,-26.419259 0.270607,-6.214765 0.105433,-10.561832 0.112886,-17.616588 0.0024,-2.260806 -8.229817,-1.729195 -9.120955,-1.665894 -0.301895,-0.03217 -1.24489,-0.132056 -2.669721,-0.185339 z"
         sodipodi:nodetypes="cssscsssccc" /><path
         id="path61"
         style="fill:#010101;fill-opacity:1;stroke-width:2.18092;paint-order:markers fill stroke"
         d="m 58.634582,102.84408 -0.708999,0.69259 -0.04149,1.42568 5.408683,0.11987 -0.163931,-0.93746 -1.143928,-0.20902 -0.730515,-0.89802 z m 11.121661,0.1957 -2.625449,0.10142 -0.761253,0.8719 -1.150587,0.16855 -0.196717,0.9308 5.409195,0.0707 0.0088,-1.42619 z" /><path
         style="fill:#a9a9a9;fill-opacity:1;stroke-width:2.18092;paint-order:markers fill stroke"
         d="m 9.1683335,121.14455 c 0.307125,0.31791 1.0680985,0.19353 1.4261955,-0.0656 2.212523,-1.6013 3.258849,-6.2242 4.213017,-15.99959 0.864204,-8.853676 1.55263,-17.182583 1.377017,-29.704062 -0.03605,-2.570847 -0.110351,-6.02093 -1.950433,-7.816667 -0.56162,-0.548065 -1.545216,-0.680014 -2.481519,0.353733 -4.7410851,5.234509 -4.8064882,13.304476 -5.2136732,19.290283 -0.4220713,6.20461 -0.4472634,15.327023 -0.068385,23.508013 0.1681629,3.63107 1.1632724,8.84547 2.6977807,10.43389 z"
         id="path62"
         sodipodi:nodetypes="sssssssss" /><path
         id="path66"
         style="fill:#808080;fill-opacity:1;stroke-width:2.18092;paint-order:markers fill stroke"
         d="m 147.27595,56.062882 c 0.30515,0.619456 0.68307,3.906385 0.59079,3.931201 l -2.54386,0.08833 4e-5,0.0031 -0.0897,-9e-6 -0.0897,0.0032 -6e-5,-0.0031 -2.5449,0.0013 c -0.093,-0.02155 0.1689,-3.319746 0.45207,-3.94956 0.54281,-1.207366 1.60661,-1.666579 2.08345,-1.675009 0.47684,-0.0085 1.55668,0.413011 2.14169,1.60058 z"
         sodipodi:nodetypes="scccccccscs" /><path
         id="path67"
         style="fill:#010101;fill-opacity:1;stroke-width:2.91704;paint-order:markers fill stroke"
         d="m 152.25277,57.471882 c 1.39832,-0.02154 2.57458,0.0089 3.03775,0.142242 0.38131,0.109836 1.26291,0.695678 1.03008,0.972775 -0.24299,0.289174 -10.65147,0.367447 -11.10718,0.370769 -0.45693,0.01281 -10.85985,0.300836 -11.11284,0.02041 -0.24245,-0.268729 0.61746,-0.885229 0.99467,-1.008418 1.422,-0.464407 9.59728,-0.181205 10.0979,-0.163426 0.33771,-0.02392 4.11788,-0.288954 7.05962,-0.334354 z" /><path
         id="path68"
         style="fill:#a9a9a9;fill-opacity:1;stroke-width:2.18092;paint-order:markers fill stroke"
         d="m 147.90184,59.833614 c 2.76165,-0.103268 6.45382,0.03851 6.50476,1.529141 0.24089,7.050648 0.55845,11.389215 0.50676,17.609656 -0.0872,10.484459 0.22221,26.061529 -1.45659,26.486959 -0.74329,0.18835 -6.58943,0.33113 -7.41835,0.34532 -0.8289,0.0142 -6.67645,0.0775 -7.42591,-0.0846 -1.69273,-0.36606 -1.93242,-15.94436 -2.38853,-26.419259 -0.2706,-6.214765 -0.10543,-10.561832 -0.11288,-17.616588 -0.002,-2.260806 8.22986,-1.729195 9.121,-1.665894 0.30189,-0.03217 1.2449,-0.132056 2.66974,-0.185339 z"
         sodipodi:nodetypes="cssscsscccc"
         inkscape:label="Прав. двигатель" /><path
         style="fill:#a9a9a9;fill-opacity:1;stroke-width:2.18092;paint-order:markers fill stroke"
         d="m 201.01534,121.14456 c -0.30712,0.31791 -1.0681,0.19353 -1.42619,-0.0656 -2.21253,-1.6013 -3.25886,-6.2242 -4.21303,-15.99959 -0.86421,-8.853732 -1.55264,-17.182642 -1.37703,-29.704121 0.0361,-2.570847 0.11035,-6.02093 1.95044,-7.816667 0.56163,-0.548085 1.54523,-0.680034 2.48154,0.353713 4.74108,5.23451 4.80648,13.304476 5.21367,19.290283 0.42207,6.20461 0.44726,15.327022 0.0684,23.508022 -0.16816,3.63107 -1.16326,8.84547 -2.69779,10.43389 z"
         id="path70"
         sodipodi:nodetypes="sssssssss" /><path
         id="path80"
         style="fill:#808080;fill-opacity:1;stroke-width:2.18092;paint-order:markers fill stroke"
         d="m 62.907436,56.062882 c -0.305148,0.619456 -0.683055,3.906385 -0.590788,3.931201 l 2.543856,0.08833 -5.5e-5,0.0031 0.08963,-9e-6 0.08958,0.0032 5.5e-5,-0.0031 2.544882,0.0013 c 0.09309,-0.02155 -0.168902,-3.319746 -0.452057,-3.94956 -0.542817,-1.207366 -1.606612,-1.666579 -2.083431,-1.675009 -0.476818,-0.0085 -1.556654,0.413011 -2.141664,1.60058 z"
         sodipodi:nodetypes="scccccccscs"
         inkscape:label="Лев. винт" /><path
         id="path81"
         style="fill:#010101;fill-opacity:1;stroke-width:2.91704;paint-order:markers fill stroke"
         d="m 57.930651,57.471882 c -1.398307,-0.02154 -2.574561,0.0089 -3.037738,0.142242 -0.381299,0.109836 -1.2629,0.695678 -1.030066,0.972775 0.242982,0.289174 10.651412,0.367447 11.107117,0.370769 0.456917,0.01281 10.859784,0.300836 11.11278,0.02041 0.242438,-0.268729 -0.617466,-0.885229 -0.994668,-1.008418 -1.421997,-0.464407 -9.597226,-0.181205 -10.097841,-0.163426 -0.337713,-0.02392 -4.11786,-0.288954 -7.059584,-0.334354 z"
         inkscape:label="Лев. пропеллер" /><path
         id="path82"
         style="fill:#a9a9a9;fill-opacity:1;stroke-width:2.18092;paint-order:markers fill stroke"
         d="m 62.281559,59.833614 c -2.761639,-0.103268 -6.453791,0.03851 -6.504722,1.529141 -0.240888,7.050648 -0.558452,11.389215 -0.506767,17.609656 0.08712,10.484459 -0.222203,26.061529 1.456589,26.486959 0.743283,0.18835 6.589392,0.33113 7.418299,0.34532 0.828909,0.0142 6.676412,0.0775 7.425871,-0.0846 1.692725,-0.36606 1.932412,-15.94436 2.38852,-26.419259 0.270607,-6.214765 0.105433,-10.561832 0.112886,-17.616588 0.0024,-2.260806 -8.229817,-1.729195 -9.120955,-1.665894 -0.301895,-0.03217 -1.24489,-0.132056 -2.669721,-0.185339 z"
         sodipodi:nodetypes="cssscsssccc"
         inkscape:label="Лев. двигатель" /><path
         style="fill:#a9a9a9;fill-opacity:1;stroke-width:2.18092;paint-order:markers fill stroke"
         d="m 9.1683335,121.14455 c 0.307125,0.31791 1.0680985,0.19353 1.4261955,-0.0656 2.212523,-1.6013 3.258849,-6.2242 4.213017,-15.99959 0.864204,-8.853676 1.55263,-17.182583 1.377017,-29.704062 -0.03605,-2.570847 -0.110351,-6.02093 -1.950433,-7.816667 -0.56162,-0.548065 -1.545216,-0.680014 -2.481519,0.353733 -4.7410851,5.234509 -4.8064882,13.304476 -5.2136732,19.290283 -0.4220713,6.20461 -0.4472634,15.327023 -0.068385,23.508013 0.1681629,3.63107 1.1632724,8.84547 2.6977807,10.43389 z"
         id="path84"
         sodipodi:nodetypes="sssssssss"
         inkscape:label="лч крыльев" /><path
         id="path88"
         style="fill:#808080;fill-opacity:1;stroke-width:2.18092;paint-order:markers fill stroke"
         d="m 147.27595,56.062882 c 0.30515,0.619456 0.68307,3.906385 0.59079,3.931201 l -2.54386,0.08833 4e-5,0.0031 -0.0897,-9e-6 -0.0897,0.0032 -6e-5,-0.0031 -2.5449,0.0013 c -0.093,-0.02155 0.1689,-3.319746 0.45207,-3.94956 0.54281,-1.207366 1.60661,-1.666579 2.08345,-1.675009 0.47684,-0.0085 1.55668,0.413011 2.14169,1.60058 z"
         sodipodi:nodetypes="scccccccscs"
         inkscape:label="Лев. винт" /><path
         id="path89"
         style="fill:#010101;fill-opacity:1;stroke-width:2.91704;paint-order:markers fill stroke"
         d="m 152.25277,57.471882 c 1.39832,-0.02154 2.57458,0.0089 3.03775,0.142242 0.38131,0.109836 1.26291,0.695678 1.03008,0.972775 -0.24299,0.289174 -10.65147,0.367447 -11.10718,0.370769 -0.45693,0.01281 -10.85985,0.300836 -11.11284,0.02041 -0.24245,-0.268729 0.61746,-0.885229 0.99467,-1.008418 1.422,-0.464407 9.59728,-0.181205 10.0979,-0.163426 0.33771,-0.02392 4.11788,-0.288954 7.05962,-0.334354 z"
         inkscape:label="Прав. пропеллер" /><path
         style="fill:#a9a9a9;fill-opacity:1;stroke-width:2.18092;paint-order:markers fill stroke"
         d="m 201.01534,121.14456 c -0.30712,0.31791 -1.0681,0.19353 -1.42619,-0.0656 -2.21253,-1.6013 -3.25886,-6.2242 -4.21303,-15.99959 -0.86421,-8.853732 -1.55264,-17.182642 -1.37703,-29.704121 0.0361,-2.570847 0.11035,-6.02093 1.95044,-7.816667 0.56163,-0.548085 1.54523,-0.680034 2.48154,0.353713 4.74108,5.23451 4.80648,13.304476 5.21367,19.290283 0.42207,6.20461 0.44726,15.327022 0.0684,23.508022 -0.16816,3.63107 -1.16326,8.84547 -2.69779,10.43389 z"
         id="path92"
         sodipodi:nodetypes="sssssssss"
         inkscape:label="Пч крыльев" /><path
         id="path96"
         style="fill:url(#radialGradient97);fill-opacity:1;stroke-width:2.18092;paint-order:markers fill stroke"
         d="m 62.281559,59.833614 c -2.761639,-0.103268 -6.453791,0.03851 -6.504722,1.529141 -0.240888,7.050648 -0.558452,11.389215 -0.506767,17.609656 0.08712,10.484459 -0.222203,26.061529 1.456589,26.486959 0.743283,0.18835 6.589392,0.33113 7.418299,0.34532 0.828909,0.0142 6.676412,0.0775 7.425871,-0.0846 1.692725,-0.36606 1.932412,-15.94436 2.38852,-26.419259 0.270607,-6.214765 0.105433,-10.561832 0.112886,-17.616588 0.0024,-2.260806 -8.229817,-1.729195 -9.120955,-1.665894 -0.301895,-0.03217 -1.24489,-0.132056 -2.669721,-0.185339 z"
         sodipodi:nodetypes="cssscsssccc"
         inkscape:label="Градиент лев. двигателя" /><path
         id="path97"
         style="fill:#010101;fill-opacity:1;stroke-width:2.18092;paint-order:markers fill stroke"
         d="m 58.634582,102.84408 -0.708999,0.69259 -0.04149,1.42568 5.408683,0.11987 -0.163931,-0.93746 -1.143928,-0.20902 -0.730515,-0.89802 z m 11.121661,0.1957 -2.625449,0.10142 -0.761253,0.8719 -1.150587,0.16855 -0.196717,0.9308 5.409195,0.0707 0.0088,-1.42619 z"
         inkscape:label="Промышленные отверстия 1" /><path
         id="path98"
         style="fill:url(#radialGradient99);fill-opacity:1;stroke-width:2.18092;paint-order:markers fill stroke"
         d="m 147.90184,59.833614 c 2.76165,-0.103268 6.45382,0.03851 6.50476,1.529141 0.24089,7.050648 0.55845,11.389215 0.50676,17.609656 -0.0872,10.484459 0.22221,26.061529 -1.45659,26.486959 -0.74329,0.18835 -6.58943,0.33113 -7.41835,0.34532 -0.8289,0.0142 -6.67645,0.0775 -7.42591,-0.0846 -1.69273,-0.36606 -1.93242,-15.94436 -2.38853,-26.419259 -0.2706,-6.214765 -0.10543,-10.561832 -0.11288,-17.616588 -0.002,-2.260806 8.22986,-1.729195 9.121,-1.665894 0.30189,-0.03217 1.2449,-0.132056 2.66974,-0.185339 z"
         sodipodi:nodetypes="cssscsscccc"
         inkscape:label="Градиент прав. двигателя" /><path
         id="path99"
         style="fill:#010101;fill-opacity:1;stroke-width:2.18092;paint-order:markers fill stroke"
         d="m 151.5488,102.84406 0.70901,0.69252 0.0415,1.42567 -5.40848,0.11982 0.16385,-0.93743 1.14402,-0.2087 0.7302,-0.89819 z m -11.12156,0.19581 2.6251,0.10133 0.76136,0.87196 1.15067,0.16829 0.19673,0.93107 -5.40932,0.0706 -0.009,-1.42625 z"
         inkscape:label="Промышленные отверстия 2" /><path
         style="fill:url(#radialGradient102);fill-opacity:1;stroke-width:2.18092;paint-order:markers fill stroke"
         d="m 9.1683335,121.14455 c 0.307125,0.31791 1.0680985,0.19353 1.4261955,-0.0656 2.212523,-1.6013 3.258849,-6.2242 4.213017,-15.99959 0.864204,-8.853676 1.55263,-17.182583 1.377017,-29.704062 -0.03605,-2.570847 -0.110351,-6.02093 -1.950433,-7.816667 -0.56162,-0.548065 -1.545216,-0.680014 -2.481519,0.353733 -4.7410851,5.234509 -4.8064882,13.304476 -5.2136732,19.290283 -0.4220713,6.20461 -0.4472634,15.327023 -0.068385,23.508013 0.1681629,3.63107 1.1632724,8.84547 2.6977807,10.43389 z"
         id="path101"
         sodipodi:nodetypes="sssssssss"
         inkscape:label="Градиент лч крыльев " /><path
         style="fill:url(#radialGradient104);fill-opacity:1;stroke-width:2.18092;paint-order:markers fill stroke"
         d="m 201.01534,121.14456 c -0.30712,0.31791 -1.0681,0.19353 -1.42619,-0.0656 -2.21253,-1.6013 -3.25886,-6.2242 -4.21303,-15.99959 -0.86421,-8.853732 -1.55264,-17.182642 -1.37703,-29.704121 0.0361,-2.570847 0.11035,-6.02093 1.95044,-7.816667 0.56163,-0.548085 1.54523,-0.680034 2.48154,0.353713 4.74108,5.23451 4.80648,13.304476 5.21367,19.290283 0.42207,6.20461 0.44726,15.327022 0.0684,23.508022 -0.16816,3.63107 -1.16326,8.84547 -2.69779,10.43389 z"
         id="path102"
         sodipodi:nodetypes="sssssssss"
         inkscape:label="Градиент пч крыльев" /><path
         id="path104"
         style="fill:url(#radialGradient106);fill-opacity:1;stroke-width:2.18092;paint-order:markers fill stroke"
         d="m 100.56289,161.27962 c 0,0 -5.051296,0.64176 -35.120069,4.45072 -1.247678,0.15805 -1.525411,4.7205 -1.567585,7.89325 -0.03494,2.62821 0.242668,4.75473 1.397508,5.42148 0.974311,0.56251 36.909796,1.79225 39.818736,1.79225 2.90892,0 38.8449,-1.22974 39.81922,-1.79225 1.15485,-0.66675 1.43241,-2.79327 1.39751,-5.42148 -0.0421,-3.17275 -0.31989,-7.7352 -1.56759,-7.89325 -30.06893,-3.80896 -35.12058,-4.45072 -35.12058,-4.45072 l -4.52857,17.99444 z"
         sodipodi:nodetypes="cssscsscccc"
         inkscape:label="Градиент задних крыльев" /><path
         id="path106"
         style="fill:#dddddd;fill-opacity:1;stroke-width:2.18092;paint-order:markers fill stroke"
         d="m 104.76463,51.337051 c -0.81884,0.03818 -2.70206,0.318235 -4.66587,1.946676 -5.271064,4.370909 -6.09584,12.275577 -7.178623,18.939609 -0.548015,3.372788 -0.443657,17.102444 -0.328885,25.653584 0.09277,6.91157 0.314217,13.82681 0.822215,20.72031 0.791333,10.73835 1.821151,15.38844 3.124412,23.02251 1.061519,6.21803 2.20118,12.71685 3.530141,18.88325 0.90026,4.17721 2.63757,11.89293 4.3247,17.88483 0.21778,0.77346 0.59229,1.33816 0.67211,1.4559 v 0.0892 c 0,0 0.0244,-0.0412 0.0266,-0.0445 0.002,0.003 0.0272,0.0445 0.0272,0.0445 v -0.0892 c 0.0799,-0.11779 0.45383,-0.68249 0.67161,-1.4559 1.68716,-5.9919 3.42494,-13.70762 4.32521,-17.88483 1.32896,-6.1664 2.46811,-12.66522 3.52963,-18.88325 1.30326,-7.63407 2.33306,-12.28416 3.12441,-23.02251 0.50799,-6.8935 0.72942,-13.80874 0.82222,-20.72031 0.11477,-8.55114 0.21913,-22.280796 -0.32889,-25.653584 -1.08279,-6.664032 -1.90702,-14.5687 -7.17812,-18.939609 -2.46476,-2.043841 -4.72733,-1.962126 -4.99321,-1.945651 -0.0541,-0.0034 -0.11804,-0.01076 -0.32684,-9.96e-4 z"
         inkscape:label="Основание" /><path
         id="path107"
         style="fill:url(#radialGradient108);fill-opacity:1;stroke-width:2.18092;paint-order:markers fill stroke"
         d="m 104.23546,51.337051 c -0.81884,0.03818 -2.70206,0.318235 -4.665867,1.946676 -5.271064,4.370909 -6.09584,12.275577 -7.178623,18.939609 -0.548015,3.372788 -0.443657,17.102444 -0.328885,25.653584 0.09277,6.91157 0.314217,13.82681 0.822215,20.72031 0.791333,10.73835 1.821151,15.38844 3.124412,23.02251 1.061519,6.21803 2.20118,12.71685 3.530141,18.88325 0.900257,4.17721 2.637567,11.89293 4.324697,17.88483 0.21778,0.77346 0.59229,1.33816 0.67211,1.4559 v 0.0892 c 0,0 0.0244,-0.0412 0.0266,-0.0445 0.002,0.003 0.0272,0.0445 0.0272,0.0445 v -0.0892 c 0.0799,-0.11779 0.45383,-0.68249 0.67161,-1.4559 1.68716,-5.9919 3.42494,-13.70762 4.32521,-17.88483 1.32896,-6.1664 2.46811,-12.66522 3.52963,-18.88325 1.30326,-7.63407 2.33306,-12.28416 3.12441,-23.02251 0.50799,-6.8935 0.72942,-13.80874 0.82222,-20.72031 0.11477,-8.55114 0.21913,-22.280796 -0.32889,-25.653584 -1.08279,-6.664032 -1.90702,-14.5687 -7.17812,-18.939609 -2.46476,-2.043841 -4.72733,-1.962126 -4.99321,-1.945651 -0.0541,-0.0034 -0.11804,-0.01076 -0.32684,-9.96e-4 z"
         inkscape:label="Градиент основания " /><path
         style="fill:#333333;fill-opacity:1;stroke-width:2.18092;paint-order:markers fill stroke"
         d="m 93.478516,75.04843 c 0,0 0.646748,-2.511566 1.35794,-3.377653 1.5919,-1.938608 3.251167,-2.793893 4.931371,-3.207551 1.334643,-0.328582 4.870273,-0.469143 4.870273,-0.469143 l -0.002,5.051002 c 0,0 -2.60239,-0.06731 -3.92613,0.131142 -1.259875,0.188857 -1.904054,0.327938 -3.16997,1.003614 -0.76551,0.408583 -2.635894,1.786018 -2.635894,1.786018 z"
         id="path108"
         sodipodi:nodetypes="cssccsscc" /><path
         style="fill:#333333;fill-opacity:1;stroke-width:2.18092;paint-order:markers fill stroke"
         d="m 93.101213,89.43861 -8.61e-4,-10.934623 1.269282,0.28399 -0.0058,10.113653 z"
         id="path109"
         sodipodi:nodetypes="ccccc" /><path
         style="fill:#333333;fill-opacity:1;stroke-width:2.18092;paint-order:markers fill stroke"
         d="m 94.747288,103.0285 -0.29742,-10.93059 -1.261063,0.31852 0.281633,10.10972 z"
         id="path110"
         sodipodi:nodetypes="ccccc" /><path
         style="fill:#333333;fill-opacity:1;stroke-width:2.18092;paint-order:markers fill stroke"
         d="m 116.70471,75.04843 c 0,0 -0.64676,-2.511566 -1.35796,-3.377653 -1.59191,-1.938608 -3.25118,-2.793893 -4.93139,-3.207551 -1.33465,-0.328582 -4.87031,-0.469143 -4.87031,-0.469143 l 0.002,5.051002 c 0,0 2.60242,-0.06731 3.92616,0.131142 1.25988,0.188857 1.90406,0.327938 3.16998,1.003614 0.76551,0.408583 2.63592,1.786018 2.63592,1.786018 z"
         id="path111"
         sodipodi:nodetypes="cssccsscc" /><path
         style="fill:#333333;fill-opacity:1;stroke-width:2.18092;paint-order:markers fill stroke"
         d="m 117.08201,89.43861 8.7e-4,-10.934623 -1.2693,0.28399 0.006,10.113653 z"
         id="path112"
         sodipodi:nodetypes="ccccc" /><path
         style="fill:#333333;fill-opacity:1;stroke-width:2.18092;paint-order:markers fill stroke"
         d="m 115.43592,103.0285 0.29743,-10.93059 1.26107,0.31852 -0.28163,10.10972 z"
         id="path113"
         sodipodi:nodetypes="ccccc" /><path
         style="fill:#333333;fill-opacity:1;stroke-width:2.18092;paint-order:markers fill stroke"
         d="m 93.478516,75.04843 c 0,0 0.646748,-2.511566 1.35794,-3.377653 1.5919,-1.938608 3.251167,-2.793893 4.931371,-3.207551 1.334643,-0.328582 4.870273,-0.469143 4.870273,-0.469143 l -0.002,5.051002 c 0,0 -2.60239,-0.06731 -3.92613,0.131142 -1.259875,0.188857 -1.904054,0.327938 -3.16997,1.003614 -0.76551,0.408583 -2.635894,1.786018 -2.635894,1.786018 z"
         id="path114"
         sodipodi:nodetypes="cssccsscc"
         inkscape:label="ЛП стекло" /><path
         style="fill:#333333;fill-opacity:1;stroke-width:2.18092;paint-order:markers fill stroke"
         d="m 93.101213,89.43861 -8.61e-4,-10.934623 1.269282,0.28399 -0.0058,10.113653 z"
         id="path115"
         sodipodi:nodetypes="ccccc"
         inkscape:label="ЛС стекло" /><path
         style="fill:#333333;fill-opacity:1;stroke-width:2.18092;paint-order:markers fill stroke"
         d="m 94.747288,103.0285 -0.29742,-10.93059 -1.261063,0.31852 0.281633,10.10972 z"
         id="path116"
         sodipodi:nodetypes="ccccc"
         inkscape:label="ЛЗ стекло" /><path
         style="fill:#333333;fill-opacity:1;stroke-width:2.18092;paint-order:markers fill stroke"
         d="m 116.70471,75.04843 c 0,0 -0.64676,-2.511566 -1.35796,-3.377653 -1.59191,-1.938608 -3.25118,-2.793893 -4.93139,-3.207551 -1.33465,-0.328582 -4.87031,-0.469143 -4.87031,-0.469143 l 0.002,5.051002 c 0,0 2.60242,-0.06731 3.92616,0.131142 1.25988,0.188857 1.90406,0.327938 3.16998,1.003614 0.76551,0.408583 2.63592,1.786018 2.63592,1.786018 z"
         id="path117"
         sodipodi:nodetypes="cssccsscc"
         inkscape:label="ПП стекло" /><path
         style="fill:#333333;fill-opacity:1;stroke-width:2.18092;paint-order:markers fill stroke"
         d="m 117.08201,89.43861 8.7e-4,-10.934623 -1.2693,0.28399 0.006,10.113653 z"
         id="path118"
         sodipodi:nodetypes="ccccc"
         inkscape:label="ПС стекло" /><path
         style="fill:#333333;fill-opacity:1;stroke-width:2.18092;paint-order:markers fill stroke"
         d="m 115.43592,103.0285 0.29743,-10.93059 1.26107,0.31852 -0.28163,10.10972 z"
         id="path119"
         sodipodi:nodetypes="ccccc"
         inkscape:label="ПЗ стекло" /><path
         id="path120"
         style="fill:#808080;fill-opacity:1;stroke-width:2.18092;paint-order:markers fill stroke"
         d="m 104.7923,150.3992 c -0.42682,1.22723 -0.65904,7.93566 -0.61526,15.59543 0.0721,12.60204 0.4765,13.8375 0.65573,16.15739 0.0226,0.29284 0.1443,0.3976 0.25463,0.39724 0.11032,-3.6e-4 0.23205,-0.10498 0.25462,-0.39723 0.17923,-2.31989 0.58366,-3.55535 0.65572,-16.15739 0.0438,-7.65977 -0.18845,-14.3682 -0.61525,-15.59543 -0.0253,-0.0726 -0.13362,-0.10022 -0.29509,-0.10021 -0.16146,2e-5 -0.26984,0.0276 -0.2951,0.1002 z"
         sodipodi:nodetypes="csscssscc"
         inkscape:label="ЗВ крыло" /><path
         id="path121"
         style="fill:url(#radialGradient122);fill-opacity:1;stroke-width:2.18092;paint-order:markers fill stroke"
         d="m 104.7923,150.3992 c -0.42682,1.22723 -0.65904,7.93566 -0.61526,15.59543 0.0721,12.60204 0.4765,13.8375 0.65573,16.15739 0.0226,0.29284 0.1443,0.3976 0.25463,0.39724 0.11032,-3.6e-4 0.23205,-0.10498 0.25462,-0.39723 0.17923,-2.31989 0.58366,-3.55535 0.65572,-16.15739 0.0438,-7.65977 -0.18845,-14.3682 -0.61525,-15.59543 -0.0253,-0.0726 -0.13362,-0.10022 -0.29509,-0.10021 -0.16146,2e-5 -0.26984,0.0276 -0.2951,0.1002 z"
         sodipodi:nodetypes="csscssscc"
         inkscape:label="Градиент зв крыла" /></g></g></svg>
