<?xml version="1.0" encoding="UTF-8" standalone="no"?>
<!-- Created with Inkscape (http://www.inkscape.org/) -->

<svg
   width="210mm"
   height="210mm"
   viewBox="0 0 210 210"
   version="1.1"
   id="svg1"
   xml:space="preserve"
   inkscape:version="1.3.2 (091e20e, 2023-11-25, custom)"
   sodipodi:docname="smuggler_friday.svg"
   xmlns:inkscape="http://www.inkscape.org/namespaces/inkscape"
   xmlns:sodipodi="http://sodipodi.sourceforge.net/DTD/sodipodi-0.dtd"
   xmlns:xlink="http://www.w3.org/1999/xlink"
   xmlns="http://www.w3.org/2000/svg"
   xmlns:svg="http://www.w3.org/2000/svg"><sodipodi:namedview
     id="namedview1"
     pagecolor="#ffffff"
     bordercolor="#000000"
     borderopacity="0.25"
     inkscape:showpageshadow="2"
     inkscape:pageopacity="0.0"
     inkscape:pagecheckerboard="0"
     inkscape:deskcolor="#d1d1d1"
     inkscape:document-units="mm"
     showguides="true"
     inkscape:zoom="1"
     inkscape:cx="-130.5"
     inkscape:cy="539.5"
     inkscape:window-width="3440"
     inkscape:window-height="1417"
     inkscape:window-x="-8"
     inkscape:window-y="-8"
     inkscape:window-maximized="1"
     inkscape:current-layer="g1" /><defs
     id="defs1"><linearGradient
       id="linearGradient107"
       inkscape:collect="always"><stop
         style="stop-color:#404040;stop-opacity:1;"
         offset="0"
         id="stop107" /><stop
         style="stop-color:#262626;stop-opacity:1;"
         offset="1"
         id="stop108" /></linearGradient><linearGradient
       id="linearGradient104"
       inkscape:collect="always"><stop
         style="stop-color:#333333;stop-opacity:1;"
         offset="0"
         id="stop105" /><stop
         style="stop-color:#121212;stop-opacity:1;"
         offset="1"
         id="stop106" /></linearGradient><linearGradient
       id="linearGradient102"
       inkscape:collect="always"><stop
         style="stop-color:#333333;stop-opacity:1;"
         offset="0"
         id="stop103" /><stop
         style="stop-color:#0d0d0d;stop-opacity:1;"
         offset="1"
         id="stop104" /></linearGradient><linearGradient
       id="linearGradient101"
       inkscape:collect="always"><stop
         style="stop-color:#333333;stop-opacity:1;"
         offset="0"
         id="stop101" /><stop
         style="stop-color:#0d0d0d;stop-opacity:1;"
         offset="1"
         id="stop102" /></linearGradient><linearGradient
       id="linearGradient76"
       inkscape:collect="always"><stop
         style="stop-color:#363636;stop-opacity:1;"
         offset="0"
         id="stop77" /><stop
         style="stop-color:#121212;stop-opacity:1;"
         offset="1"
         id="stop78" /></linearGradient><inkscape:path-effect
       effect="bspline"
       id="path-effect729"
       is_visible="true"
       lpeversion="1"
       weight="33.333333"
       steps="2"
       helper_size="0"
       apply_no_weight="true"
       apply_with_weight="true"
       only_selected="false"
       uniform="false" /><inkscape:path-effect
       effect="bspline"
       id="path-effect1385"
       is_visible="true"
       lpeversion="1"
       weight="33.333333"
       steps="2"
       helper_size="0"
       apply_no_weight="true"
       apply_with_weight="true"
       only_selected="false"
       uniform="false" /><inkscape:path-effect
       effect="bspline"
       id="path-effect312"
       is_visible="true"
       lpeversion="1"
       weight="33.333333"
       steps="2"
       helper_size="0"
       apply_no_weight="true"
       apply_with_weight="true"
       only_selected="false"
       uniform="false" /><inkscape:path-effect
       effect="bspline"
       id="path-effect50"
       is_visible="true"
       lpeversion="1"
       weight="33.333333"
       steps="2"
       helper_size="0"
       apply_no_weight="true"
       apply_with_weight="true"
       only_selected="false"
       uniform="false" /><inkscape:path-effect
       effect="bspline"
       id="path-effect52"
       is_visible="true"
       lpeversion="1"
       weight="33.333333"
       steps="2"
       helper_size="0"
       apply_no_weight="true"
       apply_with_weight="true"
       only_selected="false"
       uniform="false" /><inkscape:path-effect
       effect="bspline"
       id="path-effect54"
       is_visible="true"
       lpeversion="1"
       weight="33.333333"
       steps="2"
       helper_size="0"
       apply_no_weight="true"
       apply_with_weight="true"
       only_selected="false"
       uniform="false" /><radialGradient
       inkscape:collect="always"
       xlink:href="#linearGradient76"
       id="radialGradient78"
       cx="105.09196"
       cy="120.37275"
       fx="105.09196"
       fy="120.37275"
       r="97.944366"
       gradientTransform="matrix(2.8146445,0,0,0.16215181,-190.69575,80.21659)"
       gradientUnits="userSpaceOnUse" /><radialGradient
       inkscape:collect="always"
       xlink:href="#linearGradient101"
       id="radialGradient102"
       cx="5.9160652"
       cy="107.46575"
       fx="5.9160652"
       fy="107.46575"
       r="5.0043678"
       gradientTransform="matrix(1.2779536,0.08842829,-0.64761974,9.3593132,73.241985,-912.09215)"
       gradientUnits="userSpaceOnUse" /><radialGradient
       inkscape:collect="always"
       xlink:href="#linearGradient102"
       id="radialGradient104"
       cx="204.26762"
       cy="107.46572"
       fx="204.26762"
       fy="107.46572"
       r="5.0043812"
       gradientTransform="matrix(1.1618126,-0.08860584,0.75486424,9.8978869,-119.4678,-951.34763)"
       gradientUnits="userSpaceOnUse" /><radialGradient
       inkscape:collect="always"
       xlink:href="#linearGradient104"
       id="radialGradient106"
       cx="105.09172"
       cy="191.69597"
       fx="105.09172"
       fy="191.69597"
       r="41.219322"
       gradientTransform="matrix(1,0,0,0.23723947,0.01322736,125.58062)"
       gradientUnits="userSpaceOnUse" /><radialGradient
       inkscape:collect="always"
       xlink:href="#linearGradient107"
       id="radialGradient108"
       cx="105.09148"
       cy="135.53732"
       fx="105.09148"
       fy="135.53732"
       r="12.591909"
       gradientTransform="matrix(1,0,0,5.1064818,-0.00437095,-580.22803)"
       gradientUnits="userSpaceOnUse" /><linearGradient
       inkscape:collect="always"
       xlink:href="#linearGradient61029"
       id="linearGradient61031"
       x1="32.55098"
       y1="236.03503"
       x2="202.19545"
       y2="236.03503"
       gradientUnits="userSpaceOnUse"
       gradientTransform="matrix(0.1200162,0,0,0.37059746,131.56003,-16.008223)" /><linearGradient
       inkscape:collect="always"
       id="linearGradient61029"><stop
         style="stop-color:#8b4219;stop-opacity:1"
         offset="0"
         id="stop61025" /><stop
         style="stop-color:#703412;stop-opacity:1"
         offset="0.106"
         id="stop62773" /><stop
         style="stop-color:#dca42d;stop-opacity:1"
         offset="0.35108119"
         id="stop71209" /><stop
         style="stop-color:#f6db74;stop-opacity:1"
         offset="0.56599998"
         id="stop62771" /><stop
         style="stop-color:#e49919;stop-opacity:1"
         offset="0.77130222"
         id="stop69113" /><stop
         style="stop-color:#763d1c;stop-opacity:1"
         offset="1"
         id="stop61027" /></linearGradient><linearGradient
       inkscape:collect="always"
       xlink:href="#linearGradient61029"
       id="linearGradient18"
       gradientUnits="userSpaceOnUse"
       gradientTransform="matrix(0.1200162,0,0,0.37059746,50.59753,-16.008223)"
       x1="32.55098"
       y1="236.03503"
       x2="202.19545"
       y2="236.03503" /><linearGradient
       inkscape:collect="always"
       xlink:href="#linearGradient143719"
       id="linearGradient143721"
       x1="414.18558"
       y1="939.76465"
       x2="583.83008"
       y2="939.76465"
       gradientUnits="userSpaceOnUse"
       gradientTransform="matrix(0.01202533,0,0,0.28221818,110.11254,-169.40529)" /><linearGradient
       inkscape:collect="always"
       id="linearGradient143719"><stop
         style="stop-color:#eeb333;stop-opacity:1"
         offset="0"
         id="stop143715" /><stop
         style="stop-color:#f5c84d;stop-opacity:1"
         offset="0.04752062"
         id="stop143821" /><stop
         style="stop-color:#facf4c;stop-opacity:1"
         offset="0.39395982"
         id="stop143887" /><stop
         style="stop-color:#faedcb;stop-opacity:1"
         offset="0.67272025"
         id="stop144081" /><stop
         style="stop-color:#d5ae36;stop-opacity:1"
         offset="1"
         id="stop143717" /></linearGradient><linearGradient
       inkscape:collect="always"
       xlink:href="#linearGradient143719"
       id="linearGradient19"
       gradientUnits="userSpaceOnUse"
       gradientTransform="matrix(-0.01202533,0,0,-0.28221818,99.866487,361.03203)"
       x1="414.18558"
       y1="939.76465"
       x2="583.83008"
       y2="939.76465" /><linearGradient
       inkscape:collect="always"
       xlink:href="#linearGradient61029"
       id="linearGradient61031-3"
       x1="32.55098"
       y1="236.03503"
       x2="202.19545"
       y2="236.03503"
       gradientUnits="userSpaceOnUse"
       gradientTransform="matrix(0.0135712,0,0,0.28221818,103.49792,100.20301)" /></defs><g
     inkscape:label="Слой 1"
     inkscape:groupmode="layer"
     id="layer1"><g
       id="g1"
       transform="translate(-0.0907175,-11.940734)"><path
         id="path15"
         style="fill:#333333;fill-opacity:1;stroke-width:2.18092;paint-order:markers fill stroke"
         d="m 55.837518,81.16216 -45.30476,1.78633 -1.2463843,14.70765 -2.138781,13.7676 c 0,0 20.1632783,1.93089 30.2503043,2.83753 12.091,1.08674 34.801148,3.01558 36.285507,3.11878 6.665147,0.4634 19.837642,0.92825 19.837642,0.92825 l -0.69773,-11.65136 -0.269972,-15.4233 0.0015,-9.19804 -18.520563,-0.80787 z m 98.508402,0 -18.19679,0.0656 -18.52056,0.80787 9.9e-4,9.19804 -0.26946,15.4233 -0.69772,11.65136 c 0,0 13.17245,-0.46485 19.83764,-0.92825 1.48436,-0.1032 24.19494,-2.03204 36.28601,-3.11878 10.08709,-0.90664 30.2503,-2.83753 30.2503,-2.83753 l -2.13878,-13.7676 -1.24639,-14.70765 z"
         inkscape:label="Пер. крылья " /><path
         id="path21"
         style="fill:#333333;fill-opacity:1;stroke-width:2.18092;paint-order:markers fill stroke"
         d="m 100.56289,161.27962 c 0,0 -5.051296,0.64176 -35.120069,4.45072 -1.247678,0.15805 -1.525411,4.7205 -1.567585,7.89325 -0.03494,2.62821 0.242668,4.75473 1.397508,5.42148 0.974311,0.56251 36.909796,1.79225 39.818736,1.79225 2.90892,0 38.8449,-1.22974 39.81922,-1.79225 1.15485,-0.66675 1.43241,-2.79327 1.39751,-5.42148 -0.0421,-3.17275 -0.31989,-7.7352 -1.56759,-7.89325 -30.06893,-3.80896 -35.12058,-4.45072 -35.12058,-4.45072 l -4.52857,17.99444 z"
         sodipodi:nodetypes="cssscsscccc"
         inkscape:label="Задние крылья " /><path
         id="path54"
         style="fill:url(#radialGradient78);fill-opacity:1;stroke-width:2.18092;paint-order:markers fill stroke"
         d="m 55.846314,81.16216 -45.304761,1.78633 -1.2463796,14.70765 -2.1387798,13.7676 c 0,0 20.1632704,1.93089 30.2503004,2.83753 12.091,1.08674 34.80115,3.01558 36.28551,3.11878 6.665143,0.4634 19.83764,0.92825 19.83764,0.92825 l -0.69773,-11.65136 -0.26997,-15.4233 0.002,-9.19804 -18.52057,-0.80787 z m 98.508396,0 -18.19679,0.0656 -18.52056,0.80787 9.9e-4,9.19804 -0.26946,15.4233 -0.69772,11.65136 c 0,0 13.17245,-0.46485 19.83764,-0.92825 1.48436,-0.1032 24.19494,-2.03204 36.28601,-3.11878 10.08709,-0.90664 30.2503,-2.83753 30.2503,-2.83753 l -2.13878,-13.7676 -1.24639,-14.70765 z"
         inkscape:label="Градиент пер. крыльев" /><path
         id="path80"
         style="fill:#000000;fill-opacity:1;stroke-width:2.18092;paint-order:markers fill stroke"
         d="m 62.907436,56.062882 c -0.305148,0.619456 -0.683055,3.906385 -0.590788,3.931201 l 2.543856,0.08833 -5.5e-5,0.0031 0.08963,-9e-6 0.08958,0.0032 5.5e-5,-0.0031 2.544882,0.0013 c 0.09309,-0.02155 -0.168902,-3.319746 -0.452057,-3.94956 -0.542817,-1.207366 -1.606612,-1.666579 -2.083431,-1.675009 -0.476818,-0.0085 -1.556654,0.413011 -2.141664,1.60058 z"
         sodipodi:nodetypes="scccccccscs"
         inkscape:label="Лев. винт" /><path
         id="path81"
         style="fill:#000000;fill-opacity:1;stroke-width:2.91704;paint-order:markers fill stroke;opacity:0.756"
         d="m 57.930651,57.471882 c -1.398307,-0.02154 -2.574561,0.0089 -3.037738,0.142242 -0.381299,0.109836 -1.2629,0.695678 -1.030066,0.972775 0.242982,0.289174 10.651412,0.367447 11.107117,0.370769 0.456917,0.01281 10.859784,0.300836 11.11278,0.02041 0.242438,-0.268729 -0.617466,-0.885229 -0.994668,-1.008418 -1.421997,-0.464407 -9.597226,-0.181205 -10.097841,-0.163426 -0.337713,-0.02392 -4.11786,-0.288954 -7.059584,-0.334354 z"
         inkscape:label="Лев. пропеллер" /><path
         id="path82"
         style="fill:#1a1a1a;fill-opacity:1;stroke-width:2.18092;paint-order:markers fill stroke"
         d="m 62.281559,59.833614 c -2.761639,-0.103268 -6.453791,0.03851 -6.504722,1.529141 -0.240888,7.050648 -0.558452,11.389215 -0.506767,17.609656 0.08712,10.484459 -0.222203,26.061529 1.456589,26.486959 0.743283,0.18835 6.589392,0.33113 7.418299,0.34532 0.828909,0.0142 6.676412,0.0775 7.425871,-0.0846 1.692725,-0.36606 1.932412,-15.94436 2.38852,-26.419259 0.270607,-6.214765 0.105433,-10.561832 0.112886,-17.616588 0.0024,-2.260806 -8.229817,-1.729195 -9.120955,-1.665894 -0.301895,-0.03217 -1.24489,-0.132056 -2.669721,-0.185339 z"
         sodipodi:nodetypes="cssscsssccc"
         inkscape:label="Лев. двигатель" /><path
         style="fill:#1a1a1a;fill-opacity:1;stroke-width:2.18092;paint-order:markers fill stroke"
         d="m 9.1683335,121.14455 c 0.307125,0.31791 1.0680985,0.19353 1.4261955,-0.0656 2.212523,-1.6013 3.258849,-6.2242 4.213017,-15.99959 0.864204,-8.853676 1.55263,-17.182583 1.377017,-29.704062 -0.03605,-2.570847 -0.110351,-6.02093 -1.950433,-7.816667 -0.56162,-0.548065 -1.545216,-0.680014 -2.481519,0.353733 -4.7410851,5.234509 -4.8064882,13.304476 -5.2136732,19.290283 -0.4220713,6.20461 -0.4472634,15.327023 -0.068385,23.508013 0.1681629,3.63107 1.1632724,8.84547 2.6977807,10.43389 z"
         id="path84"
         sodipodi:nodetypes="sssssssss"
         inkscape:label="лч крыльев" /><path
         id="path88"
         style="fill:#000000;fill-opacity:1;stroke-width:2.18092;paint-order:markers fill stroke"
         d="m 147.27595,56.062882 c 0.30515,0.619456 0.68307,3.906385 0.59079,3.931201 l -2.54386,0.08833 4e-5,0.0031 -0.0897,-9e-6 -0.0897,0.0032 -6e-5,-0.0031 -2.5449,0.0013 c -0.093,-0.02155 0.1689,-3.319746 0.45207,-3.94956 0.54281,-1.207366 1.60661,-1.666579 2.08345,-1.675009 0.47684,-0.0085 1.55668,0.413011 2.14169,1.60058 z"
         sodipodi:nodetypes="scccccccscs"
         inkscape:label="Лев. винт" /><path
         id="path89"
         style="fill:#000000;fill-opacity:1;stroke-width:2.91704;paint-order:markers fill stroke;opacity:0.762"
         d="m 152.25277,57.471882 c 1.39832,-0.02154 2.57458,0.0089 3.03775,0.142242 0.38131,0.109836 1.26291,0.695678 1.03008,0.972775 -0.24299,0.289174 -10.65147,0.367447 -11.10718,0.370769 -0.45693,0.01281 -10.85985,0.300836 -11.11284,0.02041 -0.24245,-0.268729 0.61746,-0.885229 0.99467,-1.008418 1.422,-0.464407 9.59728,-0.181205 10.0979,-0.163426 0.33771,-0.02392 4.11788,-0.288954 7.05962,-0.334354 z"
         inkscape:label="Прав. пропеллер" /><path
         style="fill:#a9a9a9;fill-opacity:1;stroke-width:2.18092;paint-order:markers fill stroke"
         d="m 201.01534,121.14456 c -0.30712,0.31791 -1.0681,0.19353 -1.42619,-0.0656 -2.21253,-1.6013 -3.25886,-6.2242 -4.21303,-15.99959 -0.86421,-8.853732 -1.55264,-17.182642 -1.37703,-29.704121 0.0361,-2.570847 0.11035,-6.02093 1.95044,-7.816667 0.56163,-0.548085 1.54523,-0.680034 2.48154,0.353713 4.74108,5.23451 4.80648,13.304476 5.21367,19.290283 0.42207,6.20461 0.44726,15.327022 0.0684,23.508022 -0.16816,3.63107 -1.16326,8.84547 -2.69779,10.43389 z"
         id="path92"
         sodipodi:nodetypes="sssssssss"
         inkscape:label="Пч крыльев" /><path
         id="path18"
         style="fill:url(#linearGradient18);stroke-width:1.37536;stroke-linecap:round;stroke-linejoin:round;paint-order:fill markers stroke"
         d="M 59.816504 47.889583 C 57.686568 47.971468 55.721491 48.337849 55.684456 49.42179 C 55.443567 56.472431 55.125831 60.811133 55.177511 67.031567 C 55.26461 77.516016 54.955481 93.09341 56.634269 93.51884 C 57.377548 93.707189 63.223512 93.849848 64.052421 93.864038 C 64.88133 93.878238 70.728865 93.941389 71.478324 93.779289 C 73.171043 93.413229 73.4107 77.835118 73.866809 67.360229 C 74.137419 61.145471 73.972004 56.798483 73.979464 49.743734 C 73.981464 47.48293 65.749713 48.014385 64.858573 48.077686 C 64.556684 48.045516 63.613797 47.94545 62.188969 47.892167 L 62.188969 47.892684 C 62.145798 47.89107 62.098736 47.891074 62.055127 47.889583 L 59.816504 47.889583 z "
         transform="translate(0.0907175,11.940734)" /><path
         id="path97"
         style="fill:#010101;fill-opacity:1;stroke-width:2.18092;paint-order:markers fill stroke"
         d="m 58.634582,102.84408 -0.708999,0.69259 -0.04149,1.42568 5.408683,0.11987 -0.163931,-0.93746 -1.143928,-0.20902 -0.730515,-0.89802 z m 11.121661,0.1957 -2.625449,0.10142 -0.761253,0.8719 -1.150587,0.16855 -0.196717,0.9308 5.409195,0.0707 0.0088,-1.42619 z"
         inkscape:label="Промышленные отверстия 1" /><path
         style="fill:url(#radialGradient102);fill-opacity:1;stroke-width:2.18092;paint-order:markers fill stroke"
         d="m 9.166095,121.14455 c 0.3071202,0.31791 1.0681,0.19353 1.42619,-0.0656 2.21253,-1.6013 3.25885,-6.2242 4.21302,-15.99959 0.86421,-8.853676 1.55263,-17.182583 1.37702,-29.704062 -0.036,-2.570847 -0.11035,-6.02093 -1.95043,-7.816667 -0.56162,-0.548065 -1.54522,-0.680014 -2.48152,0.353733 -4.74109,5.234509 -4.80649,13.304476 -5.21368,19.290283 -0.42207,6.20461 -0.44726,15.327023 -0.0684,23.508013 0.16816,3.63107 1.16327,8.84547 2.69778,10.43389 z"
         id="path101"
         sodipodi:nodetypes="sssssssss"
         inkscape:label="Градиент лч крыльев " /><path
         style="fill:url(#radialGradient104);fill-opacity:1;stroke-width:2.18092;paint-order:markers fill stroke"
         d="m 201.01434,121.14456 c -0.30712,0.31791 -1.0681,0.19353 -1.42619,-0.0656 -2.21253,-1.6013 -3.25886,-6.2242 -4.21303,-15.99959 -0.86421,-8.853732 -1.55264,-17.182642 -1.37703,-29.704121 0.0361,-2.570847 0.11035,-6.02093 1.95044,-7.816667 0.56163,-0.548085 1.54523,-0.680034 2.48154,0.353713 4.74108,5.23451 4.80648,13.304476 5.21367,19.290283 0.42207,6.20461 0.44726,15.327022 0.0684,23.508022 -0.16816,3.63107 -1.16326,8.84547 -2.69779,10.43389 z"
         id="path102"
         sodipodi:nodetypes="sssssssss"
         inkscape:label="Градиент пч крыльев" /><path
         id="path104"
         style="fill:url(#radialGradient106);fill-opacity:1;stroke-width:2.18092;paint-order:markers fill stroke"
         d="m 100.57611,161.27962 c 0,0 -5.051292,0.64176 -35.120062,4.45072 -1.24768,0.15805 -1.52541,4.7205 -1.56759,7.89325 -0.0349,2.62821 0.24267,4.75473 1.39751,5.42148 0.97431,0.56251 36.909792,1.79225 39.818732,1.79225 2.90892,0 38.8449,-1.22974 39.81922,-1.79225 1.15485,-0.66675 1.43241,-2.79327 1.39751,-5.42148 -0.0421,-3.17275 -0.31989,-7.7352 -1.56759,-7.89325 -30.06893,-3.80896 -35.12058,-4.45072 -35.12058,-4.45072 l -4.52857,17.99444 z"
         sodipodi:nodetypes="cssscsscccc"
         inkscape:label="Градиент задних крыльев" /><path
         id="path68"
         style="fill:#1a1a1a;fill-opacity:1;stroke-width:2.18092;paint-order:markers fill stroke"
         d="m 147.90184,59.833614 c 2.76165,-0.103268 6.45382,0.03851 6.50476,1.529141 0.24089,7.050648 0.55845,11.389215 0.50676,17.609656 -0.0872,10.484459 0.22221,26.061529 -1.45659,26.486959 -0.74329,0.18835 -6.58943,0.33113 -7.41835,0.34532 -0.8289,0.0142 -6.67645,0.0775 -7.42591,-0.0846 -1.69273,-0.36606 -1.93242,-15.94436 -2.38853,-26.419259 -0.2706,-6.214765 -0.10543,-10.561832 -0.11288,-17.616588 -0.002,-2.260806 8.22986,-1.729195 9.121,-1.665894 0.30189,-0.03217 1.2449,-0.132056 2.66974,-0.185339 z"
         sodipodi:nodetypes="cssscsscccc"
         inkscape:label="Прав. двигатель" /><path
         id="rect1631"
         style="fill:url(#linearGradient61031);stroke-width:1.37536;stroke-linecap:round;stroke-linejoin:round;paint-order:fill markers stroke"
         d="M 147.94859 47.889583 C 147.905 47.891073 147.8579 47.89107 147.81475 47.892684 L 147.81475 47.892167 C 146.38991 47.94545 145.44704 48.045516 145.14515 48.077686 C 144.25401 48.014385 136.02226 47.48293 136.02426 49.743734 C 136.03171 56.798483 135.86631 61.145471 136.13691 67.360229 C 136.59302 77.835118 136.83318 93.413229 138.52591 93.779289 C 139.27537 93.941389 145.12292 93.878238 145.95181 93.864038 C 146.78073 93.849848 152.62668 93.707189 153.36997 93.51884 C 155.04876 93.09341 154.73953 77.516016 154.82673 67.031567 C 154.87842 60.811133 154.56067 56.472431 154.31978 49.42179 C 154.28274 48.337833 152.3172 47.97146 150.18722 47.889583 L 147.94859 47.889583 z "
         transform="translate(0.0907175,11.940734)" /><path
         id="path99"
         style="fill:#010101;fill-opacity:1;stroke-width:2.18092;paint-order:markers fill stroke"
         d="m 151.5488,102.84406 0.70901,0.69252 0.0415,1.42567 -5.40848,0.11982 0.16385,-0.93743 1.14402,-0.2087 0.7302,-0.89819 z m -11.12156,0.19581 2.6251,0.10133 0.76136,0.87196 1.15067,0.16829 0.19673,0.93107 -5.40932,0.0706 -0.009,-1.42625 z"
         inkscape:label="Промышленные отверстия 2" /><path
         id="path106"
         style="fill:#404040;fill-opacity:1;stroke-width:2.18092;paint-order:markers fill stroke"
         d="m 104.76463,51.337051 c -0.81884,0.03818 -2.70206,0.318235 -4.66587,1.946676 -5.271064,4.370909 -6.09584,12.275577 -7.178623,18.939609 -0.548015,3.372788 -0.443657,17.102444 -0.328885,25.653584 0.09277,6.91157 0.314217,13.82681 0.822215,20.72031 0.791333,10.73835 1.821151,15.38844 3.124412,23.02251 1.061519,6.21803 2.20118,12.71685 3.530141,18.88325 0.90026,4.17721 2.63757,11.89293 4.3247,17.88483 0.21778,0.77346 0.59229,1.33816 0.67211,1.4559 v 0.0892 c 0,0 0.0244,-0.0412 0.0266,-0.0445 0.002,0.003 0.0272,0.0445 0.0272,0.0445 v -0.0892 c 0.0799,-0.11779 0.45383,-0.68249 0.67161,-1.4559 1.68716,-5.9919 3.42494,-13.70762 4.32521,-17.88483 1.32896,-6.1664 2.46811,-12.66522 3.52963,-18.88325 1.30326,-7.63407 2.33306,-12.28416 3.12441,-23.02251 0.50799,-6.8935 0.72942,-13.80874 0.82222,-20.72031 0.11477,-8.55114 0.21913,-22.280796 -0.32889,-25.653584 -1.08279,-6.664032 -1.90702,-14.5687 -7.17812,-18.939609 -2.46476,-2.043841 -4.72733,-1.962126 -4.99321,-1.945651 -0.0541,-0.0034 -0.11804,-0.01076 -0.32684,-9.96e-4 z"
         inkscape:label="Основание" /><path
         id="path107"
         style="fill:url(#radialGradient108);fill-opacity:1;stroke-width:2.18092;paint-order:markers fill stroke"
         d="m 104.76026,51.337052 c -0.81884,0.03818 -2.70206,0.318235 -4.66587,1.946676 -5.27107,4.370909 -6.09584,12.275577 -7.17863,18.939609 -0.54801,3.372788 -0.44365,17.102444 -0.32888,25.653584 0.0928,6.911569 0.31422,13.826809 0.82221,20.720309 0.79134,10.73835 1.82116,15.38844 3.12442,23.02251 1.06152,6.21803 2.20118,12.71685 3.53014,18.88325 0.90026,4.17721 2.63757,11.89293 4.3247,17.88483 0.21778,0.77346 0.59229,1.33816 0.67211,1.4559 v 0.0892 c 0,0 0.0244,-0.0412 0.0266,-0.0445 0.002,0.003 0.0272,0.0445 0.0272,0.0445 v -0.0892 c 0.0799,-0.11779 0.45383,-0.68249 0.67161,-1.4559 1.68716,-5.9919 3.42494,-13.70762 4.32521,-17.88483 1.32896,-6.1664 2.46811,-12.66522 3.52963,-18.88325 1.30326,-7.63407 2.33306,-12.28416 3.12441,-23.02251 0.50799,-6.8935 0.72942,-13.80874 0.82222,-20.720309 0.11477,-8.55114 0.21913,-22.280796 -0.32889,-25.653584 -1.08279,-6.664032 -1.90702,-14.5687 -7.17812,-18.939609 -2.46476,-2.043841 -4.72733,-1.962126 -4.99321,-1.945651 -0.0541,-0.0034 -0.11804,-0.01076 -0.32684,-9.96e-4 z"
         inkscape:label="Градиент основания " /><path
         id="path120"
         style="fill:#1a1a1a;fill-opacity:1;stroke-width:2.18092;paint-order:markers fill stroke"
         d="m 104.7923,150.3992 c -0.42682,1.22723 -0.65904,7.93566 -0.61526,15.59543 0.0721,12.60204 0.4765,13.8375 0.65573,16.15739 0.0226,0.29284 0.1443,0.3976 0.25463,0.39724 0.11032,-3.6e-4 0.23205,-0.10498 0.25462,-0.39723 0.17923,-2.31989 0.58366,-3.55535 0.65572,-16.15739 0.0438,-7.65977 -0.18845,-14.3682 -0.61525,-15.59543 -0.0253,-0.0726 -0.13362,-0.10022 -0.29509,-0.10021 -0.16146,2e-5 -0.26984,0.0276 -0.2951,0.1002 z"
         sodipodi:nodetypes="csscssscc"
         inkscape:label="ЗВ крыло" /><path
         id="rect1631-6"
         style="fill:url(#linearGradient61031-3);stroke-width:0.403595;stroke-linecap:round;stroke-linejoin:round;paint-order:fill markers stroke"
         d="M 105.08793 150.29921 C 104.92647 150.29923 104.81811 150.32635 104.79285 150.39895 C 104.36603 151.62618 104.13412 158.33462 104.1779 165.99438 C 104.25 178.59641 104.65445 179.83216 104.83368 182.15205 C 104.85628 182.44489 104.9776 182.5498 105.08793 182.54944 C 105.19825 182.54908 105.32012 182.4443 105.34269 182.15205 C 105.52192 179.83216 105.9264 178.59692 105.99846 165.9949 C 106.04226 158.33513 105.8098 151.62669 105.383 150.39947 C 105.3577 150.32687 105.2494 150.2992 105.08793 150.29921 z " /><g
         id="g2"><path
           id="path114"
           style="display:inline;fill:#000000;fill-opacity:1;stroke-width:2.18092;paint-order:markers fill stroke"
           inkscape:label="Стекла"
           d="m 104.63806,67.994299 c 0,0 -3.53535,0.140124 -4.86999,0.468706 -1.680202,0.413657 -3.339583,1.26895 -4.931481,3.207556 -0.711192,0.866086 -1.358057,3.378088 -1.358057,3.378088 l 1.425753,0.917257 c 0,0 1.869988,-1.377355 2.635498,-1.785938 1.265914,-0.675675 1.910475,-0.814699 3.170347,-1.003556 1.32374,-0.198452 3.92586,-0.131258 3.92586,-0.131258 z m 0.90692,0 0.002,5.050855 c 0,0 2.60263,-0.06719 3.92637,0.131258 1.25988,0.188857 1.90391,0.327881 3.16983,1.003556 0.76551,0.408583 2.63602,1.785938 2.63602,1.785938 l 1.42523,-0.917257 c 0,0 -0.64634,-2.512002 -1.35754,-3.378088 -1.5919,-1.938606 -3.25127,-2.793899 -4.93148,-3.207556 -1.33465,-0.328582 -4.8705,-0.468706 -4.8705,-0.468706 z m -12.44472,10.509436 10e-4,10.934733 1.262455,-0.536918 0.0057,-10.113594 z m 23.98252,0 -1.26918,0.284221 0.006,10.113594 1.26246,0.536918 z m -22.632731,13.594003 -1.261422,0.318843 0.281637,10.109459 1.276924,0.5023 z m 21.283451,0 -0.29765,10.930602 1.27692,-0.5023 0.28164,-10.109459 z" /><path
           id="path3"
           style="display:inline;fill:#000000;fill-opacity:1;stroke-width:2.18092;paint-order:markers fill stroke"
           inkscape:label="Стекла"
           d="m 104.63806,67.994299 c 0,0 -3.53535,0.140124 -4.86999,0.468706 -1.680202,0.413657 -3.339583,1.26895 -4.931481,3.207556 -0.711192,0.866086 -1.358057,3.378088 -1.358057,3.378088 l 1.425753,0.917257 c 0,0 1.869988,-1.377355 2.635498,-1.785938 1.265914,-0.675675 1.910475,-0.814699 3.170347,-1.003556 1.32374,-0.198452 3.92586,-0.131258 3.92586,-0.131258 z m 0.90692,0 0.002,5.050855 c 0,0 2.60263,-0.06719 3.92637,0.131258 1.25988,0.188857 1.90391,0.327881 3.16983,1.003556 0.76551,0.408583 2.63602,1.785938 2.63602,1.785938 l 1.42523,-0.917257 c 0,0 -0.64634,-2.512002 -1.35754,-3.378088 -1.5919,-1.938606 -3.25127,-2.793899 -4.93148,-3.207556 -1.33465,-0.328582 -4.8705,-0.468706 -4.8705,-0.468706 z m -12.44472,10.509436 10e-4,10.934733 1.262455,-0.536918 0.0057,-10.113594 z m 23.98252,0 -1.26918,0.284221 0.006,10.113594 1.26246,0.536918 z m -22.632731,13.594003 -1.261422,0.318843 0.281637,10.109459 1.276924,0.5023 z m 21.283451,0 -0.29765,10.930602 1.27692,-0.5023 0.28164,-10.109459 z" /><path
           id="path4"
           style="display:inline;fill:#000000;fill-opacity:1;stroke-width:2.18092;paint-order:markers fill stroke"
           inkscape:label="Стекла"
           d="m 104.63806,67.994299 c 0,0 -3.53535,0.140124 -4.86999,0.468706 -1.680202,0.413657 -3.339583,1.26895 -4.931481,3.207556 -0.711192,0.866086 -1.358057,3.378088 -1.358057,3.378088 l 1.425753,0.917257 c 0,0 1.869988,-1.377355 2.635498,-1.785938 1.265914,-0.675675 1.910475,-0.814699 3.170347,-1.003556 1.32374,-0.198452 3.92586,-0.131258 3.92586,-0.131258 z m 0.90692,0 0.002,5.050855 c 0,0 2.60263,-0.06719 3.92637,0.131258 1.25988,0.188857 1.90391,0.327881 3.16983,1.003556 0.76551,0.408583 2.63602,1.785938 2.63602,1.785938 l 1.42523,-0.917257 c 0,0 -0.64634,-2.512002 -1.35754,-3.378088 -1.5919,-1.938606 -3.25127,-2.793899 -4.93148,-3.207556 -1.33465,-0.328582 -4.8705,-0.468706 -4.8705,-0.468706 z m -12.44472,10.509436 10e-4,10.934733 1.262455,-0.536918 0.0057,-10.113594 z m 23.98252,0 -1.26918,0.284221 0.006,10.113594 1.26246,0.536918 z m -22.632731,13.594003 -1.261422,0.318843 0.281637,10.109459 1.276924,0.5023 z m 21.283451,0 -0.29765,10.930602 1.27692,-0.5023 0.28164,-10.109459 z" /><path
           id="path6"
           style="display:inline;fill:#000000;fill-opacity:1;stroke-width:2.18092;paint-order:markers fill stroke"
           inkscape:label="Стекла"
           d="m 104.63806,67.994299 c 0,0 -3.53535,0.140124 -4.86999,0.468706 -1.680202,0.413657 -3.339583,1.26895 -4.931481,3.207556 -0.711192,0.866086 -1.358057,3.378088 -1.358057,3.378088 l 1.425753,0.917257 c 0,0 1.869988,-1.377355 2.635498,-1.785938 1.265914,-0.675675 1.910475,-0.814699 3.170347,-1.003556 1.32374,-0.198452 3.92586,-0.131258 3.92586,-0.131258 z m 0.90692,0 0.002,5.050855 c 0,0 2.60263,-0.06719 3.92637,0.131258 1.25988,0.188857 1.90391,0.327881 3.16983,1.003556 0.76551,0.408583 2.63602,1.785938 2.63602,1.785938 l 1.42523,-0.917257 c 0,0 -0.64634,-2.512002 -1.35754,-3.378088 -1.5919,-1.938606 -3.25127,-2.793899 -4.93148,-3.207556 -1.33465,-0.328582 -4.8705,-0.468706 -4.8705,-0.468706 z m -12.44472,10.509436 10e-4,10.934733 1.262455,-0.536918 0.0057,-10.113594 z m 23.98252,0 -1.26918,0.284221 0.006,10.113594 1.26246,0.536918 z m -22.632731,13.594003 -1.261422,0.318843 0.281637,10.109459 1.276924,0.5023 z m 21.283451,0 -0.29765,10.930602 1.27692,-0.5023 0.28164,-10.109459 z" /><path
           id="rect1691"
           style="fill:url(#linearGradient143721);stroke-width:0.379914;stroke-linecap:round;stroke-linejoin:round;paint-order:fill markers stroke"
           d="M 117.08254 78.503596 L 115.81337 78.787817 L 115.81957 88.901411 L 117.08203 89.438329 L 117.08254 78.503596 z M 115.73327 92.097598 L 115.43561 103.0282 L 116.71254 102.5259 L 116.99418 92.416442 L 115.73327 92.097598 z " /><path
           id="path19"
           style="fill:url(#linearGradient19);stroke-width:0.379914;stroke-linecap:round;stroke-linejoin:round;paint-order:fill markers stroke"
           d="M 93.100027 78.503596 L 93.101061 89.438329 L 94.363516 88.901411 L 94.369201 78.787817 L 93.100027 78.503596 z M 94.449816 92.097598 L 93.188394 92.416442 L 93.470031 102.5259 L 94.746955 103.0282 L 94.449816 92.097598 z " /></g></g></g></svg>
