<?xml version="1.0" encoding="UTF-8" standalone="no"?>
<!-- Created with Inkscape (http://www.inkscape.org/) -->

<svg
   width="275mm"
   height="275mm"
   viewBox="0 0 275 275"
   version="1.1"
   id="svg5"
   xml:space="preserve"
   inkscape:version="1.3.2 (091e20e, 2023-11-25, custom)"
   sodipodi:docname="pretender_violet.svg"
   inkscape:export-filename="..\..\..\..\..\..\Users\Андрей\Desktop\pretender_1.png"
   inkscape:export-xdpi="96"
   inkscape:export-ydpi="96"
   xmlns:inkscape="http://www.inkscape.org/namespaces/inkscape"
   xmlns:sodipodi="http://sodipodi.sourceforge.net/DTD/sodipodi-0.dtd"
   xmlns:xlink="http://www.w3.org/1999/xlink"
   xmlns="http://www.w3.org/2000/svg"
   xmlns:svg="http://www.w3.org/2000/svg"><sodipodi:namedview
     id="namedview7"
     pagecolor="#ffffff"
     bordercolor="#111111"
     borderopacity="1"
     inkscape:showpageshadow="0"
     inkscape:pageopacity="0"
     inkscape:pagecheckerboard="1"
     inkscape:deskcolor="#d1d1d1"
     inkscape:document-units="mm"
     showgrid="false"
     inkscape:zoom="0.5"
     inkscape:cx="511"
     inkscape:cy="509"
     inkscape:window-width="3440"
     inkscape:window-height="1417"
     inkscape:window-x="-8"
     inkscape:window-y="-8"
     inkscape:window-maximized="1"
     inkscape:current-layer="layer1"
     showguides="true" /><defs
     id="defs2"><linearGradient
       id="linearGradient1"
       inkscape:collect="always"><stop
         style="stop-color:#b572ff;stop-opacity:1;"
         offset="0.57681942"
         id="stop3" /><stop
         style="stop-color:#cd76fd;stop-opacity:1;"
         offset="1"
         id="stop6" /></linearGradient><linearGradient
       id="linearGradient2"
       inkscape:collect="always"><stop
         style="stop-color:#8006ff;stop-opacity:1;"
         offset="0"
         id="stop1" /><stop
         style="stop-color:#b572ff;stop-opacity:1;"
         offset="1"
         id="stop2" /></linearGradient><linearGradient
       id="linearGradient12"
       inkscape:collect="always"><stop
         style="stop-color:#5300ab;stop-opacity:1;"
         offset="0"
         id="stop13" /><stop
         style="stop-color:#444444;stop-opacity:0.02077151;"
         offset="1"
         id="stop14" /></linearGradient><inkscape:path-effect
       effect="bspline"
       id="path-effect9"
       is_visible="true"
       lpeversion="1.3"
       weight="33.333333"
       steps="2"
       helper_size="0"
       apply_no_weight="true"
       apply_with_weight="true"
       only_selected="false"
       uniform="false" /><inkscape:path-effect
       effect="bspline"
       id="path-effect5"
       is_visible="true"
       lpeversion="1.3"
       weight="33.333333"
       steps="2"
       helper_size="0"
       apply_no_weight="true"
       apply_with_weight="true"
       only_selected="false"
       uniform="false" /><inkscape:path-effect
       effect="bspline"
       id="path-effect55"
       is_visible="true"
       lpeversion="1.3"
       weight="33.333333"
       steps="2"
       helper_size="0"
       apply_no_weight="true"
       apply_with_weight="true"
       only_selected="false"
       uniform="false" /><inkscape:path-effect
       effect="bspline"
       id="path-effect54"
       is_visible="true"
       lpeversion="1"
       weight="33.333333"
       steps="2"
       helper_size="0"
       apply_no_weight="true"
       apply_with_weight="true"
       only_selected="false"
       uniform="false" /><inkscape:path-effect
       effect="bspline"
       id="path-effect52"
       is_visible="true"
       lpeversion="1"
       weight="33.333333"
       steps="2"
       helper_size="0"
       apply_no_weight="true"
       apply_with_weight="true"
       only_selected="false"
       uniform="false" /><inkscape:path-effect
       effect="bspline"
       id="path-effect50"
       is_visible="true"
       lpeversion="1"
       weight="33.333333"
       steps="2"
       helper_size="0"
       apply_no_weight="true"
       apply_with_weight="true"
       only_selected="false"
       uniform="false" /><inkscape:path-effect
       effect="bspline"
       id="path-effect34"
       is_visible="true"
       lpeversion="1.3"
       weight="33.333333"
       steps="2"
       helper_size="0"
       apply_no_weight="true"
       apply_with_weight="true"
       only_selected="false"
       uniform="false" /><inkscape:path-effect
       effect="bspline"
       id="path-effect32"
       is_visible="true"
       lpeversion="1.3"
       weight="33.333333"
       steps="2"
       helper_size="0"
       apply_no_weight="true"
       apply_with_weight="true"
       only_selected="false"
       uniform="false" /><inkscape:path-effect
       effect="bspline"
       id="path-effect24"
       is_visible="true"
       lpeversion="1.3"
       weight="33.333333"
       steps="2"
       helper_size="0"
       apply_no_weight="true"
       apply_with_weight="true"
       only_selected="false"
       uniform="false" /><inkscape:path-effect
       effect="bspline"
       id="path-effect22"
       is_visible="true"
       lpeversion="1.3"
       weight="33.333333"
       steps="2"
       helper_size="0"
       apply_no_weight="true"
       apply_with_weight="true"
       only_selected="false"
       uniform="false" /><linearGradient
       id="linearGradient21"
       inkscape:collect="always"><stop
         style="stop-color:#c9c9c9;stop-opacity:1;"
         offset="0.76363629"
         id="stop21" /><stop
         style="stop-color:#898989;stop-opacity:0;"
         offset="1"
         id="stop22" /></linearGradient><inkscape:path-effect
       effect="bspline"
       id="path-effect19"
       is_visible="true"
       lpeversion="1.3"
       weight="33.333333"
       steps="2"
       helper_size="0"
       apply_no_weight="true"
       apply_with_weight="true"
       only_selected="false"
       uniform="false" /><inkscape:path-effect
       effect="bspline"
       id="path-effect7"
       is_visible="true"
       lpeversion="1.3"
       weight="33.333333"
       steps="2"
       helper_size="0"
       apply_no_weight="true"
       apply_with_weight="true"
       only_selected="false"
       uniform="false" /><inkscape:path-effect
       effect="bspline"
       id="path-effect2"
       is_visible="true"
       lpeversion="1.3"
       weight="33.333333"
       steps="2"
       helper_size="0"
       apply_no_weight="true"
       apply_with_weight="true"
       only_selected="false"
       uniform="false" /><inkscape:path-effect
       effect="bspline"
       id="path-effect6"
       is_visible="true"
       lpeversion="1.3"
       weight="33.333333"
       steps="2"
       helper_size="0"
       apply_no_weight="true"
       apply_with_weight="true"
       only_selected="false"
       uniform="false" /><inkscape:path-effect
       effect="bspline"
       id="path-effect4"
       is_visible="true"
       lpeversion="1.3"
       weight="33.333333"
       steps="2"
       helper_size="0"
       apply_no_weight="true"
       apply_with_weight="true"
       only_selected="false"
       uniform="false" /><inkscape:path-effect
       effect="bspline"
       id="path-effect3"
       is_visible="true"
       lpeversion="1.3"
       weight="33.333333"
       steps="2"
       helper_size="0"
       apply_no_weight="true"
       apply_with_weight="true"
       only_selected="false"
       uniform="false" /><inkscape:path-effect
       effect="bspline"
       id="path-effect1"
       is_visible="true"
       lpeversion="1.3"
       weight="33.333333"
       steps="2"
       helper_size="0"
       apply_no_weight="true"
       apply_with_weight="true"
       only_selected="false"
       uniform="false" /><inkscape:path-effect
       effect="bspline"
       id="path-effect312"
       is_visible="true"
       lpeversion="1"
       weight="33.333333"
       steps="2"
       helper_size="0"
       apply_no_weight="true"
       apply_with_weight="true"
       only_selected="false"
       uniform="false" /><inkscape:path-effect
       effect="bspline"
       id="path-effect1385"
       is_visible="true"
       lpeversion="1"
       weight="33.333333"
       steps="2"
       helper_size="0"
       apply_no_weight="true"
       apply_with_weight="true"
       only_selected="false"
       uniform="false" /><inkscape:path-effect
       effect="bspline"
       id="path-effect729"
       is_visible="true"
       lpeversion="1"
       weight="33.333333"
       steps="2"
       helper_size="0"
       apply_no_weight="true"
       apply_with_weight="true"
       only_selected="false"
       uniform="false" /><inkscape:path-effect
       effect="bspline"
       id="path-effect596"
       is_visible="true"
       lpeversion="1"
       weight="33.333333"
       steps="2"
       helper_size="0"
       apply_no_weight="true"
       apply_with_weight="true"
       only_selected="false"
       uniform="false" /><inkscape:path-effect
       effect="bspline"
       id="path-effect581"
       is_visible="true"
       lpeversion="1"
       weight="33.333333"
       steps="2"
       helper_size="0"
       apply_no_weight="true"
       apply_with_weight="true"
       only_selected="false"
       uniform="false" /><inkscape:path-effect
       effect="bspline"
       id="path-effect904"
       is_visible="true"
       lpeversion="1"
       weight="33.333333"
       steps="2"
       helper_size="0"
       apply_no_weight="true"
       apply_with_weight="true"
       only_selected="false"
       uniform="false" /><radialGradient
       inkscape:collect="always"
       xlink:href="#linearGradient21"
       id="radialGradient22"
       cx="130.17332"
       cy="187.11745"
       fx="130.17332"
       fy="187.11745"
       r="4.7431202"
       gradientTransform="matrix(1.0209969,-0.03883513,0.02283329,0.60029917,-7.0040723,77.035939)"
       gradientUnits="userSpaceOnUse" /><radialGradient
       inkscape:collect="always"
       xlink:href="#linearGradient12"
       id="radialGradient14"
       cx="150.54839"
       cy="249.55664"
       fx="150.54839"
       fy="249.55664"
       r="1.6271454"
       gradientTransform="matrix(0.38619457,0,0,11.438295,92.630426,-2607.9107)"
       gradientUnits="userSpaceOnUse" /><radialGradient
       inkscape:collect="always"
       xlink:href="#linearGradient2"
       id="radialGradient13"
       gradientUnits="userSpaceOnUse"
       gradientTransform="matrix(-2.1448639,0.05546494,0.0164921,0.63867916,484.45007,51.315378)"
       cx="162.22266"
       cy="165.38829"
       fx="162.22266"
       fy="165.38829"
       r="6.988235" /><filter
       inkscape:collect="always"
       style="color-interpolation-filters:sRGB"
       id="filter5"
       x="-0.075424637"
       y="-0.02043177"
       width="1.1508493"
       height="1.0408635"><feGaussianBlur
         inkscape:collect="always"
         stdDeviation="0.36078539"
         id="feGaussianBlur5" /></filter><linearGradient
       inkscape:collect="always"
       xlink:href="#linearGradient1"
       id="linearGradient6"
       x1="143.13438"
       y1="19.440414"
       x2="142.95975"
       y2="283.43707"
       gradientUnits="userSpaceOnUse" /><filter
       inkscape:collect="always"
       style="color-interpolation-filters:sRGB"
       id="filter6"
       x="-1.5258328"
       y="-0.11810329"
       width="4.0516657"
       height="1.2362066"><feGaussianBlur
         inkscape:collect="always"
         stdDeviation="10.302708"
         id="feGaussianBlur6" /></filter></defs><g
     inkscape:label="Слой 1"
     inkscape:groupmode="layer"
     id="layer1"
     style="display:inline"><g
       id="g5"
       inkscape:label="самолет"
       style="display:inline;opacity:1"
       transform="translate(-13.227586,-12.792034)"><path
         id="path2"
         style="display:inline;opacity:1;fill:url(#linearGradient6);fill-opacity:1;stroke-width:0.119062"
         d="m 150.69623,17.877462 c 10e-6,-1e-6 -0.0315,0.0083 -0.0631,0.01602 -0.0316,0.0077 0.0311,-0.0077 -5.1e-4,0 -0.0316,0.0077 -0.18953,0.04619 -0.308,0.09302 -0.11847,0.04682 -0.2281,0.109223 -0.36483,0.232544 -0.13673,0.123322 -0.30087,0.307704 -0.58653,0.652673 -0.28567,0.34497 -0.69183,0.849129 -1.1498,1.474329 -0.45797,0.6252 -0.96789,1.371407 -1.69705,2.674772 -0.72917,1.303364 -1.6769,3.16205 -2.37712,4.707206 -0.70023,1.545157 -1.15325,2.77725 -1.58078,4.064868 -0.42753,1.287619 -0.82897,2.630406 -1.21543,4.173906 -0.38646,1.543499 -0.83218,3.637555 -1.05162,4.841565 -0.21944,1.20401 -0.43262,2.722037 -0.56689,3.679362 -0.13426,0.957324 -0.22505,1.606743 -0.30385,11.154874 -0.0788,9.548132 -0.1453,27.994974 -0.21188,46.442119 l -55.63071,44.83499 -27.81484,22.41724 c -9.277753,7.4363 -18.556071,14.87263 -23.291085,18.74098 -4.735014,3.86834 -4.927345,4.16899 -5.188831,4.53925 -0.261484,0.37025 -0.592253,0.81021 -0.992187,1.41232 -0.399934,0.6021 -0.868809,1.36638 -1.53634,2.51871 -0.667532,1.15234 -1.533069,2.69267 -2.39882,4.23333 -2.263056,3.84603 -4.526352,7.69174 -5.655986,9.75186 -1.129634,2.06013 -1.125458,2.38554 -1.071769,2.81482 0.05369,0.42927 0.195466,1.29227 0.275952,1.75235 0.08049,0.46008 0.0989,0.52168 0.137459,0.53226 0.03856,0.0106 0.09621,-0.0356 0.153479,-0.0817 l 8.364348,-8.47131 c 0.06788,-0.0682 0.13548,-0.13607 0.211873,-0.17415 0.07639,-0.0381 0.16148,-0.0461 0.246497,-0.0538 l 1.141015,-0.0682 c 0.07062,-0.006 0.140941,-0.0122 0.198438,-0.0398 0.0575,-0.0276 0.101897,-0.077 0.146244,-0.12609 l 2.066541,-2.37402 c 0.07543,-0.0712 0.150638,-0.14237 0.239778,-0.20308 0.08914,-0.0607 0.19269,-0.11065 0.295589,-0.16072 l 7.963855,-3.84369 8.273397,-3.99407 8.27288,-3.99407 8.103898,-3.91759 c 0.05638,-0.0255 0.112196,-0.0505 0.151412,-0.0439 0.03922,0.007 0.06101,0.0453 0.08268,0.0842 l 0.363285,0.64079 c 0.0268,0.0537 0.0536,0.10728 0.07855,0.1049 0.02495,-0.002 0.04805,-0.0612 0.07131,-0.11989 l 0.444934,-1.11466 c 0.0226,-0.0562 0.04519,-0.11163 0.08423,-0.15554 0.03904,-0.0439 0.09475,-0.0755 0.150379,-0.10697 l 5.860624,-2.81688 3.013769,-1.45521 2.76779,-1.35599 c 0.08206,-0.0332 0.163707,-0.066 0.21084,-0.0486 0.04713,0.0174 0.05893,0.085 0.0708,0.15296 l 0.120923,1.38287 c 0.0078,0.0859 0.01534,0.17217 0.03411,0.17156 0.01878,-6.1e-4 0.04912,-0.0885 0.07906,-0.1757 l 0.695565,-1.93786 c 0.03906,-0.0496 0.07762,-0.0993 0.124023,-0.14056 0.0464,-0.0412 0.100676,-0.0741 0.154513,-0.10698 l 6.507096,-3.14192 3.253548,-1.57097 3.160014,-1.526 c 0.03117,-0.0148 0.062,-0.03 0.08062,-0.0202 0.01861,0.01 0.02424,0.0441 0.02997,0.0785 l 0.255281,1.52549 c 0.0067,0.0403 0.01348,0.0811 0.02377,0.0806 0.01029,-5.9e-4 0.02424,-0.0426 0.03824,-0.0842 l 0.699699,-2.07687 c 0.0069,-0.0204 0.01394,-0.0403 0.02997,-0.0568 0.01604,-0.0164 0.04181,-0.0291 0.06718,-0.0413 l 12.98267,-6.26215 c 0.0389,-0.0188 0.0774,-0.0373 0.10128,-0.0243 0.0239,0.013 0.0323,0.0576 0.0408,0.10231 l 0.31471,1.65003 c 0.0152,0.0795 0.0305,0.15909 0.045,0.1571 0.0145,-0.002 0.0285,-0.086 0.0424,-0.1695 l 0.34106,-2.04742 c 0.007,-0.0418 0.0138,-0.0833 0.0408,-0.11989 0.027,-0.0366 0.0747,-0.068 0.12195,-0.0992 l 0.54829,-0.36277 c 0.0361,-0.0239 0.072,-0.0473 0.11266,-0.0599 0.0407,-0.0127 0.0869,-0.0141 0.13229,-0.0155 l 0.71572,-0.0207 c 0.0297,-0.001 0.0589,-0.002 0.0775,0.0129 0.0187,0.0146 0.0258,0.0443 0.0331,0.0744 l 0.36071,1.49086 c 0.0113,0.0468 0.0224,0.0937 0.0357,0.0915 0.0133,-0.002 0.029,-0.0535 0.0444,-0.1049 l 0.45114,-1.50327 c 0.009,-0.0306 0.0178,-0.0605 0.0413,-0.0765 0.0235,-0.0161 0.0617,-0.0177 0.0997,-0.0191 l 10.7642,-0.35398 c 0.0437,-0.001 0.0873,-0.003 0.11627,0.016 0.0289,0.0189 0.0424,0.0577 0.0563,0.0966 l 0.49712,1.39578 c 0.0196,0.0549 0.0393,0.10999 0.0589,0.10956 0.0196,-4.3e-4 0.0396,-0.0567 0.0594,-0.11266 l 0.5147,-1.45469 c 0.0102,-0.0287 0.0204,-0.0573 0.0455,-0.0724 0.0251,-0.0152 0.0652,-0.0167 0.10542,-0.0181 l 13.26845,-0.38965 c 0.0837,-0.002 0.16738,-0.005 0.22272,0.0238 0.0554,0.0286 0.0819,0.0879 0.10852,0.14727 l 0.5457,1.21595 c 0.0315,0.0703 0.0631,0.14067 0.092,0.14159 0.0289,9.2e-4 0.0551,-0.0683 0.0816,-0.13694 l 0.49144,-1.27331 c 0.0241,-0.0626 0.0481,-0.12517 0.0946,-0.15761 0.0465,-0.0324 0.11557,-0.0342 0.18448,-0.0362 l 4.73666,-0.13023 c 0.0421,-0.001 0.0841,-0.002 0.10542,0.0191 0.0213,0.0213 0.0215,0.0647 0.0217,0.10801 l -0.0506,2.65461 c 0.004,0.718 0.007,1.43615 0.045,2.21124 0.0381,0.77509 0.11037,1.60691 0.18294,2.43913 l 0.13332,1.34358 c 0.0573,0.43442 0.11477,0.86866 0.16692,1.21543 0.0522,0.34677 0.0992,0.60595 0.14624,0.86507 l 0.75086,4.34237 0.87488,4.3403 c 0.0409,0.20298 0.0815,0.406 0.0248,0.51108 -0.0567,0.10509 -0.21039,0.11252 -0.36432,0.11989 l -2.68873,0.10542 -0.49506,0.0196 c -0.027,-0.14517 -0.0541,-0.2906 -0.0837,-0.4501 -0.0297,-0.15951 -0.0619,-0.33321 -0.11524,-0.57361 -0.0534,-0.24039 -0.12775,-0.54729 -0.20309,-0.79375 -0.0753,-0.24646 -0.1518,-0.43233 -0.21911,-0.59635 -0.0673,-0.16402 -0.1252,-0.30632 -0.20515,-0.45062 -0.0799,-0.1443 -0.1816,-0.29067 -0.26924,-0.41703 -0.0876,-0.12636 -0.16144,-0.23255 -0.24029,-0.28525 -0.0789,-0.0527 -0.1623,-0.0516 -0.24598,-0.0506 l -11.80962,0.15503 c -0.0747,0.001 -0.14955,0.002 -0.19947,0.0357 -0.0499,0.0338 -0.0751,0.10012 -0.17621,0.36536 -0.10107,0.26527 -0.2781,0.72944 -0.37879,0.99373 -0.1007,0.26429 -0.12531,0.32853 -0.14418,0.39533 -0.0189,0.0668 -0.0319,0.13653 -0.0734,0.31988 -0.0415,0.18335 -0.11141,0.48075 -0.18603,0.87023 -0.0746,0.38948 -0.15435,0.87114 -0.21963,1.30276 -0.0653,0.43163 -0.11611,0.81286 -0.1633,1.25832 -0.0472,0.44545 -0.0908,0.95499 -0.12195,1.42575 -0.0312,0.47076 -0.0502,0.9028 -0.0667,1.36581 -0.0165,0.46302 -0.0305,0.95717 -0.0326,1.66708 -0.002,0.70991 0.007,1.63582 0.0785,2.99879 0.071,1.36297 0.20385,3.16309 0.33021,4.90616 0.12635,1.74308 0.24627,3.4291 0.41289,5.17798 0.16661,1.74888 0.37969,3.56043 0.66198,5.39605 0.28229,1.83563 0.63366,3.69516 1.01234,5.45548 0.37869,1.76033 0.84535,3.66889 1.17047,4.98884 0.32512,1.31995 0.86595,3.4955 0.99839,4.02818 0.13243,0.53267 0.16814,0.67641 0.26355,0.74672 0.0954,0.0703 0.25082,0.0671 0.40618,0.0641 l 8.3845,-0.16433 0.0264,0.16382 c 0.006,0.0537 0.0125,0.10779 0.0393,0.14676 0.0268,0.039 0.0744,0.0633 0.12195,0.0879 l 7.50755,3.87263 c 0.0999,0.0515 0.19964,0.10251 0.26304,0.18087 0.0634,0.0784 0.09,0.18338 0.11679,0.28835 l 1.87275,7.34581 0.10025,0.3917 -0.28112,0.2217 -4.82089,3.80028 -4.8209,3.8008 -4.82089,3.80029 -4.82089,3.8008 -4.82038,3.80028 -4.8209,3.80081 -4.82089,3.80028 -3.06235,2.42466 c -0.58621,0.45876 -1.17277,0.91736 -1.6061,1.38958 -0.43333,0.47221 -0.71368,0.95788 -0.92604,1.47329 -0.21236,0.51541 -0.35669,1.06054 -0.48783,1.95079 -0.13115,0.89026 -0.24942,2.12573 -0.31212,3.34398 -0.0627,1.21825 -0.0712,2.64478 -0.0687,3.31608 0.002,0.67129 0.0207,1.29191 0.0315,1.65623 0.0108,0.36432 0.0286,0.95712 0.0362,1.21181 0.008,0.25469 0.0115,0.37886 0.0398,0.45889 0.0283,0.08 0.0809,0.11612 0.13385,0.15192 l 0.23771,0.16072 0.18655,0.12609 c 0.0576,0.039 0.11528,0.0778 0.18604,0.0791 0.0708,0.001 0.15506,-0.0357 0.23926,-0.0723 l 10.50633,-4.56872 10.75852,-4.67878 10.75852,-4.67879 10.75851,-4.67878 0.0625,0.63304 0.0558,0.58239 0.062,0.65267 0.0687,0.66508 0.0724,0.50953 0.0973,0.38657 c 0.004,0.0176 0.0111,0.0439 0.0133,0.0527 0.002,0.009 0.047,0.0625 0.0722,0.0919 0.0252,0.0293 0.11051,0.0972 0.1262,0.10331 0.0157,0.006 0.0268,0.0105 0.0466,0.0174 0.0198,0.007 0.0285,0.009 0.0402,0.009 0.0117,10e-6 0.0178,10e-4 0.0375,-0.005 0.0197,-0.007 0.0399,-0.0113 0.056,-0.0183 0.0161,-0.007 0.0944,-0.07 0.1197,-0.0993 0.0254,-0.0293 0.0545,-0.0673 0.0668,-0.0937 0.0124,-0.0264 0.018,-0.0561 0.018,-0.0561 l 0.0978,-0.38831 0.0718,-0.50953 0.0687,-0.66508 0.0625,-0.65267 0.0558,-0.58239 0.0625,-0.63304 10.75852,4.67878 10.75851,4.67879 10.75852,4.67878 10.50582,4.56872 c 0.0842,0.0366 0.16898,0.0733 0.23978,0.0723 0.0708,-10e-4 0.12843,-0.0401 0.18603,-0.0791 l 0.18655,-0.12609 0.23771,-0.16072 c 0.053,-0.0358 0.10555,-0.0719 0.13385,-0.15192 0.0283,-0.08 0.0318,-0.2042 0.0398,-0.45889 0.008,-0.25469 0.0254,-0.84749 0.0362,-1.21181 0.0108,-0.36432 0.0295,-0.98494 0.0315,-1.65623 0.002,-0.6713 -0.006,-2.09783 -0.0687,-3.31608 -0.0627,-1.21825 -0.18097,-2.45372 -0.31212,-3.34398 -0.13114,-0.89025 -0.27547,-1.43538 -0.48783,-1.95079 -0.21236,-0.51541 -0.49271,-1.00108 -0.92604,-1.47329 -0.43333,-0.47222 -1.01989,-0.93082 -1.6061,-1.38958 l -3.06235,-2.42466 -4.82089,-3.80028 -4.8209,-3.80081 -4.82089,-3.80028 -4.8209,-3.8008 -4.82089,-3.80029 -4.82038,-3.8008 -4.82089,-3.80028 -0.28112,-0.2217 0.10025,-0.3917 1.87275,-7.34581 c 0.0268,-0.10497 0.0534,-0.20995 0.11679,-0.28835 0.0634,-0.0784 0.16314,-0.12937 0.26304,-0.18087 l 7.50755,-3.87263 c 0.0475,-0.0245 0.0952,-0.0489 0.12196,-0.0879 0.0268,-0.039 0.0327,-0.0931 0.0387,-0.14676 l 0.0264,-0.16382 8.38502,0.16433 c 0.15536,0.003 0.31077,0.006 0.40617,-0.0641 0.0954,-0.0703 0.13112,-0.21405 0.26355,-0.74672 0.13244,-0.53268 0.67327,-2.70823 0.99839,-4.02818 0.32512,-1.31995 0.79127,-3.22851 1.16996,-4.98884 0.37867,-1.76032 0.73056,-3.61985 1.01285,-5.45548 0.28229,-1.83562 0.49537,-3.64717 0.66198,-5.39605 0.16662,-1.74888 0.28654,-3.4349 0.41289,-5.17798 0.12636,-1.74307 0.25922,-3.54319 0.33022,-4.90616 0.0715,-1.36297 0.08,-2.28888 0.078,-2.99879 -0.002,-0.70991 -0.0161,-1.20406 -0.0326,-1.66708 -0.0165,-0.46301 -0.0355,-0.89505 -0.0667,-1.36581 -0.0311,-0.47076 -0.0742,-0.9803 -0.12144,-1.42575 -0.0472,-0.44546 -0.0985,-0.82669 -0.16382,-1.25832 -0.0653,-0.43162 -0.1445,-0.91328 -0.2191,-1.30276 -0.0746,-0.38948 -0.14454,-0.68688 -0.18604,-0.87023 -0.0415,-0.18335 -0.055,-0.25308 -0.0739,-0.31988 -0.0189,-0.0668 -0.043,-0.13104 -0.14366,-0.39533 -0.10069,-0.26429 -0.27772,-0.72846 -0.37879,-0.99373 -0.10111,-0.26524 -0.12631,-0.33156 -0.17621,-0.36536 -0.0499,-0.0338 -0.12477,-0.0346 -0.19947,-0.0357 l -11.80919,-0.1549 c -0.0837,-0.001 -0.16708,-0.002 -0.24598,0.0506 -0.0788,0.0527 -0.15269,0.15889 -0.24029,0.28525 -0.0876,0.12636 -0.18934,0.27273 -0.26924,0.41703 -0.0799,0.1443 -0.13837,0.2866 -0.20567,0.45062 -0.0673,0.16402 -0.14329,0.34989 -0.21859,0.59635 -0.0753,0.24646 -0.14969,0.55336 -0.20309,0.79375 -0.0533,0.2404 -0.0861,0.4141 -0.11575,0.57361 -0.0296,0.1595 -0.0562,0.30493 -0.0832,0.4501 l -0.49506,-0.0196 -2.68925,-0.10542 c -0.15393,-0.007 -0.30761,-0.0148 -0.36431,-0.11989 -0.0567,-0.10508 -0.0156,-0.3081 0.0253,-0.51108 l 0.87488,-4.3403 0.75086,-4.34237 c 0.047,-0.25912 0.094,-0.5183 0.14624,-0.86507 0.0521,-0.34677 0.1091,-0.78101 0.1664,-1.21543 l 0.13333,-1.34358 c 0.0726,-0.83222 0.14535,-1.66404 0.18345,-2.43913 0.0381,-0.77509 0.041,-1.49324 0.045,-2.21124 l -0.0506,-2.65461 c 2e-4,-0.0433 4.1e-4,-0.0867 0.0217,-0.10801 0.0213,-0.0213 0.0633,-0.0201 0.10542,-0.0191 l 4.73614,0.13023 c 0.0689,0.002 0.13799,0.004 0.18449,0.0362 0.0465,0.0324 0.071,0.095 0.0951,0.15761 l 0.49093,1.27331 c 0.0265,0.0686 0.0533,0.13786 0.0822,0.13694 0.0289,-9.2e-4 0.0605,-0.0713 0.092,-0.14159 l 0.5457,-1.21595 c 0.0267,-0.0593 0.0532,-0.11867 0.10852,-0.14727 0.0553,-0.0289 0.13851,-0.0258 0.22221,-0.0238 l 13.26896,0.38965 c 0.0402,10e-4 0.0803,0.003 0.10542,0.0181 0.0251,0.0151 0.0353,0.0436 0.0455,0.0724 l 0.5147,1.45469 c 0.0198,0.0559 0.0398,0.11223 0.0594,0.11266 0.0196,4.3e-4 0.0388,-0.0547 0.0584,-0.10956 l 0.49765,-1.39578 c 0.0139,-0.0389 0.0274,-0.0777 0.0563,-0.0966 0.0289,-0.0192 0.0726,-0.017 0.11627,-0.016 l 10.76421,0.35398 c 0.038,10e-4 0.0762,0.003 0.0997,0.0191 0.0235,0.016 0.0323,0.0459 0.0413,0.0765 l 0.45114,1.50327 c 0.0154,0.0514 0.0306,0.1029 0.0439,0.1049 0.0133,0.002 0.0249,-0.0447 0.0362,-0.0915 l 0.3607,-1.49086 c 0.007,-0.0301 0.0144,-0.0598 0.0331,-0.0744 0.0186,-0.0146 0.0478,-0.0139 0.0775,-0.0129 l 0.71572,0.0207 c 0.0454,10e-4 0.0911,0.003 0.13178,0.0155 0.0407,0.0126 0.0765,0.036 0.11265,0.0599 l 0.54881,0.36277 c 0.0472,0.0312 0.0944,0.0626 0.12144,0.0992 0.027,0.0366 0.0343,0.0781 0.0413,0.11989 l 0.34106,2.04742 c 0.0139,0.0835 0.0279,0.1675 0.0424,0.1695 0.0145,0.002 0.0298,-0.0776 0.045,-0.1571 l 0.3147,-1.65003 c 0.008,-0.0447 0.0169,-0.0893 0.0408,-0.10231 0.0239,-0.013 0.0624,0.005 0.10128,0.0243 l 12.98267,6.26215 c 0.0254,0.0122 0.0512,0.0249 0.0672,0.0413 0.016,0.0165 0.023,0.0365 0.03,0.0568 l 0.6997,2.07687 c 0.014,0.0416 0.0279,0.0837 0.0382,0.0842 0.0103,5e-4 0.0168,-0.0403 0.0238,-0.0806 l 0.25528,-1.52549 c 0.006,-0.0344 0.0114,-0.0685 0.03,-0.0785 0.0186,-0.01 0.0494,0.005 0.0806,0.0202 l 3.16001,1.526 3.25355,1.57097 6.50709,3.14192 c 0.0538,0.0328 0.1076,0.0658 0.154,0.10698 0.0464,0.0412 0.0854,0.091 0.12454,0.14056 l 0.69557,1.93786 c 0.03,0.0872 0.0603,0.17509 0.0791,0.1757 0.0187,6.1e-4 0.0261,-0.0857 0.0341,-0.17156 l 0.1204,-1.38287 c 0.0118,-0.068 0.0237,-0.13556 0.0708,-0.15296 0.0471,-0.0174 0.12926,0.0154 0.21136,0.0486 l 2.76727,1.35599 3.01377,1.45521 5.86062,2.81688 c 0.0556,0.0314 0.1118,0.0631 0.1509,0.10697 0.039,0.0439 0.0611,0.0993 0.0837,0.15554 l 0.44494,1.11466 c 0.0233,0.0587 0.0469,0.11789 0.0718,0.11989 0.025,0.002 0.0518,-0.0512 0.0786,-0.1049 l 0.36328,-0.64079 c 0.0217,-0.0389 0.043,-0.0772 0.0822,-0.0842 0.0392,-0.007 0.0955,0.0184 0.15193,0.0439 l 8.10389,3.91759 8.27288,3.99407 8.27288,3.99407 7.96438,3.84369 c 0.1029,0.0501 0.20597,0.10002 0.29507,0.16072 0.0891,0.0607 0.16438,0.13188 0.23978,0.20308 l 2.06654,2.37402 c 0.0444,0.0491 0.0893,0.0985 0.14676,0.12609 0.0575,0.0276 0.12784,0.0338 0.19844,0.0398 l 1.14049,0.0682 c 0.085,0.008 0.17062,0.0156 0.24702,0.0538 0.0764,0.0381 0.14397,0.10595 0.21187,0.17415 l 8.36383,8.47131 c 0.0573,0.0461 0.11488,0.0923 0.15348,0.0817 0.0386,-0.0106 0.0575,-0.0722 0.13798,-0.53226 0.0805,-0.46008 0.22173,-1.32308 0.27543,-1.75235 0.0537,-0.42928 0.0584,-0.75469 -1.07125,-2.81482 -1.12963,-2.06012 -3.39293,-5.90583 -5.65599,-9.75186 -0.86574,-1.54066 -1.73129,-3.08099 -2.39882,-4.23333 -0.66753,-1.15233 -1.13691,-1.91661 -1.53685,-2.51871 -0.39993,-0.60211 -0.73071,-1.04207 -0.99219,-1.41232 -0.26149,-0.37026 -0.45383,-0.67091 -5.18883,-4.53925 -4.73501,-3.86835 -14.01283,-11.30468 -23.29057,-18.74098 L 217.867,146.92001 162.2368,102.08502 c -0.0666,-18.447148 -0.13307,-36.89399 -0.21187,-46.442122 -0.0788,-9.548131 -0.17012,-10.19755 -0.30438,-11.154874 -0.13427,-0.957325 -0.34693,-2.475352 -0.56637,-3.679362 -0.21944,-1.20401 -0.66516,-3.298066 -1.05162,-4.841565 -0.38646,-1.5435 -0.78841,-2.886287 -1.21594,-4.173906 -0.42753,-1.287618 -0.88004,-2.519711 -1.58027,-4.064868 -0.70022,-1.545156 -1.64795,-3.403842 -2.37712,-4.707206 -0.72915,-1.303365 -1.23908,-2.049572 -1.69705,-2.674772 -0.45797,-0.6252 -0.86413,-1.129359 -1.1498,-1.474329 -0.28566,-0.344969 -0.4498,-0.529351 -0.58653,-0.652673 -0.13673,-0.123321 -0.24636,-0.185724 -0.36483,-0.232544 -0.11847,-0.04683 -0.24531,-0.0776 -0.30851,-0.09302 -0.0632,-0.01542 -0.0419,-0.01332 -0.0631,-0.01602 -0.008,-9.88e-4 -0.0204,-0.0054 -0.0306,-0.0054 -0.0178,3.6e-5 -0.0326,0.0052 -0.0326,0.0052 0,-1e-6 4e-5,10e-7 4e-5,0 z"
         sodipodi:nodetypes="zzzssssssssssscccsssscssssccsccsccscccccccccccsccccsccsccscccccccccccccsccsccscccccccccccccccccsccccccccsccsccsccsccccccscccccsssssccscsssssscsccssssssscccsccsccccccccccccsssscscsscccccccccccccczzzzzzzzzccccccccccccccsscscssssccccccccccccsccscccsssssssccssssssssssccssssscccccsccccccsccsccsccsccccccccscccccccccccccccccsccsccscccccccccccccsccsccsccccccccccccccccsccsccsccsssscsssscccssssssssssszssszz"
         inkscape:label="корпус" /><g
         id="g54"
         inkscape:label="блики"
         style="display:inline;opacity:1"><path
           id="path34"
           style="display:inline;opacity:1;mix-blend-mode:normal;fill:#8f3efc;fill-opacity:1;stroke:none;stroke-width:0.0945008;stroke-opacity:1;filter:url(#filter6)"
           d="m 150.90264,19.440765 c -0.0967,-0.0014 -0.19361,0.0015 -0.22129,0.0035 -0.53938,0.03807 -1.14251,1.756262 -1.64617,3.316265 -0.50366,1.560004 -0.90771,2.962019 -1.49864,4.965324 -0.59094,2.003303 -1.3688,4.607894 -2.4858,8.384178 -1.03159,3.487605 -2.34912,7.967993 -2.22924,9.5873 -0.0284,0.147877 -0.07,0.289249 -0.07,0.448728 v 180.75039 c 0,1.05663 0.66112,1.90728 1.48236,1.90728 h 13.19919 c 0.82123,0 1.48236,-0.85065 1.48236,-1.90728 V 46.14605 c 0,-0.04439 -0.0172,-0.08129 -0.0195,-0.124918 0.37578,-1.248767 -1.06762,-6.155304 -2.17772,-9.908316 -1.11699,-3.776285 -1.89486,-6.380877 -2.48579,-8.384177 -0.59094,-2.003306 -0.99498,-3.405323 -1.49864,-4.965325 -0.50366,-1.560003 -1.10679,-3.27821 -1.64617,-3.316265 -0.0149,-0.001 -0.0738,6.25e-4 -0.11715,6.97e-4 -0.0277,-0.0014 -0.038,-0.0066 -0.0678,-0.0069 z"
           inkscape:label="блик 1"
           transform="matrix(0.39298784,0,0,1.0570845,91.503098,-0.54847939)" /></g><use
         x="0"
         y="0"
         xlink:href="#path55"
         id="use18"
         transform="matrix(-1,0,0,1,301.45437,4.7000054e-4)"
         inkscape:label="обводка хвоста 2"
         style="display:inline;opacity:1;fill:#4d0005;fill-opacity:1" /><path
         id="path55"
         style="display:inline;opacity:1;fill:#9631ff;fill-opacity:1;stroke-width:0.119062"
         inkscape:label="обводка хвоста"
         d="m 149.15318,237.08805 -2.53267,1.79349 -0.006,-0.003 -0.2682,0.21136 -4.82089,3.80028 -4.8209,3.8008 -4.82089,3.80029 -4.82089,3.8008 -4.82038,3.80028 -4.8209,3.80081 -4.82089,3.80028 -2.08773,1.65313 v 1.88309 l 22.86992,-17.01602 15.70964,-11.4763 z"
         sodipodi:nodetypes="cccccccccccccccc" /><g
         id="g22"
         inkscape:label="левый движок"><path
           id="path25"
           style="display:inline;opacity:1;mix-blend-mode:normal;fill:#974dfc;fill-opacity:1;stroke-width:0.119062"
           inkscape:label="корпус"
           d="m 136.4325,182.63795 -11.80962,0.15503 c -0.0747,0.001 -0.14955,0.002 -0.19947,0.0357 -0.0499,0.0338 -0.0751,0.10012 -0.17621,0.36536 -0.10107,0.26527 -0.2781,0.72944 -0.37879,0.99373 -0.1007,0.26429 -0.12531,0.32853 -0.14418,0.39533 -0.0189,0.0668 -0.0319,0.13653 -0.0734,0.31988 -0.0415,0.18335 -0.11141,0.48075 -0.18603,0.87023 -0.0746,0.38948 -0.15435,0.87114 -0.21963,1.30276 -0.0653,0.43163 -0.11611,0.81286 -0.1633,1.25832 -0.0472,0.44545 -0.0908,0.95499 -0.12195,1.42575 -0.0312,0.47076 -0.0502,0.9028 -0.0667,1.36581 -0.0165,0.46302 -0.0305,0.95717 -0.0326,1.66708 -0.002,0.70991 0.007,1.63582 0.0785,2.99879 0.071,1.36297 0.20385,3.16309 0.33021,4.90616 0.12635,1.74308 0.24627,3.4291 0.41289,5.17798 0.16661,1.74887 0.37969,3.56043 0.66198,5.39605 0.28229,1.83563 0.63366,3.69516 1.01234,5.45548 0.37869,1.76033 0.84535,3.66889 1.17047,4.98884 0.32512,1.31995 0.86595,3.4955 0.99839,4.02818 0.13243,0.53267 0.16814,0.67641 0.26355,0.74672 0.0954,0.0703 0.25082,0.0671 0.40618,0.0641 l 8.3845,-0.16433 0.0264,0.16382 c 0.006,0.0537 0.0125,0.10779 0.0393,0.14676 0.0268,0.039 0.0744,0.0632 0.12195,0.0879 l 7.50755,3.87263 c 0.0487,0.0251 0.0837,0.0603 0.12816,0.0884 0.10734,-0.14266 0.0793,-0.33186 0.0331,-0.61547 -0.0585,-0.35859 -0.13618,-0.86543 -0.21808,-1.44229 -0.0819,-0.57685 -0.16751,-1.22399 -0.23771,-1.81643 -0.0702,-0.59245 -0.12477,-1.13 -0.17157,-1.66398 -0.0468,-0.53399 -0.0858,-1.06404 -0.12092,-1.60972 -0.0351,-0.54567 -0.0659,-1.10696 -0.0739,-1.83193 -0.008,-0.72496 0.008,-1.61402 0.0233,-2.27273 0.0156,-0.6587 0.0314,-1.08707 0.047,-2.13165 0.0156,-1.04457 0.0308,-2.70518 0.062,-4.37338 0.0311,-1.6682 0.0781,-3.3443 0.11318,-4.61884 0.0351,-1.27453 0.0583,-2.14731 0.0232,-3.49591 -0.0351,-1.34858 -0.12824,-3.17273 -0.19844,-4.44727 -0.0702,-1.27454 -0.11692,-1.99981 -0.19482,-2.88458 -0.0779,-0.88478 -0.18715,-1.92903 -0.27285,-2.76314 -0.0857,-0.8341 -0.14837,-1.45777 -0.25786,-2.31562 -0.1095,-0.85785 -0.26603,-1.95028 -0.37466,-2.80086 -0.10863,-0.85058 -0.16918,-1.45952 -0.24908,-2.01073 -0.0799,-0.55122 -0.17914,-1.04437 -0.32246,-1.28416 -0.14331,-0.23994 -0.33091,-0.22601 -0.4439,-0.24391 -0.0539,-0.009 -0.0911,-0.0263 -0.13643,-0.0744 -0.073,0.0307 -0.13519,0.0723 -0.23409,0.077 l -2.68873,0.10542 -0.49506,0.0191 c -0.027,-0.14517 -0.0541,-0.2906 -0.0837,-0.4501 -0.0297,-0.15951 -0.0619,-0.33321 -0.11524,-0.57361 -0.0534,-0.24039 -0.12775,-0.54729 -0.20309,-0.79375 -0.0753,-0.24646 -0.1518,-0.43233 -0.21911,-0.59635 -0.0673,-0.16401 -0.1252,-0.30631 -0.20515,-0.45061 -0.0799,-0.1443 -0.1816,-0.29067 -0.26924,-0.41703 -0.0876,-0.12636 -0.16144,-0.23256 -0.24029,-0.28526 -0.0789,-0.0527 -0.1623,-0.0511 -0.24598,-0.0501 z" /><path
           id="path6"
           style="display:inline;opacity:1;fill:#8006ff;fill-opacity:1;stroke:none;stroke-width:0.079375"
           d="m 136.4325,182.63795 -11.80962,0.15503 c -0.0747,0.001 -0.14955,0.002 -0.19947,0.0357 -0.0499,0.0338 -0.0751,0.10012 -0.17621,0.36536 -0.10107,0.26527 -0.2781,0.72944 -0.37879,0.99373 -0.1007,0.26429 -0.12531,0.32853 -0.14418,0.39533 -1.5e-4,5.3e-4 -3.6e-4,0.002 -5.2e-4,0.003 l 13.75007,-0.52503 c -0.0268,-0.0683 -0.0558,-0.15923 -0.0806,-0.21963 -0.0673,-0.16401 -0.1252,-0.30631 -0.20515,-0.45061 -0.0799,-0.1443 -0.1816,-0.29067 -0.26924,-0.41703 -0.0876,-0.12636 -0.16144,-0.23256 -0.24029,-0.28526 -0.0789,-0.0527 -0.1623,-0.0511 -0.24598,-0.0501 z"
           inkscape:label="движок-центр" /><path
           id="path20"
           style="display:inline;opacity:0.133183;fill:#9631ff;fill-opacity:1;stroke:none;stroke-width:0.079375"
           d="m 136.4387,182.63795 -11.80962,0.15503 c -0.0747,0.001 -0.14955,0.002 -0.19947,0.0357 -0.0499,0.0338 -0.0751,0.10012 -0.17621,0.36536 -0.10107,0.26527 -0.2781,0.72944 -0.37879,0.99373 -0.1007,0.26429 -0.12531,0.32853 -0.14418,0.39533 -1.5e-4,5.3e-4 -3.6e-4,0.002 -5.2e-4,0.003 l 13.75007,-0.52503 c -0.0268,-0.0683 -0.0558,-0.15923 -0.0806,-0.21963 -0.0673,-0.16401 -0.1252,-0.30631 -0.20515,-0.45061 -0.0799,-0.1443 -0.1816,-0.29067 -0.26924,-0.41703 -0.0876,-0.12636 -0.16144,-0.23256 -0.24029,-0.28526 -0.0789,-0.0527 -0.1623,-0.0511 -0.24598,-0.0501 z"
           inkscape:label="движок-внешнее" /><path
           id="path21"
           style="display:inline;opacity:0.5;fill:url(#radialGradient22);fill-opacity:1;stroke:none;stroke-width:0.079375"
           inkscape:label="движок-середина"
           d="m 133.78905,182.67216 -6.74635,0.0889 c -0.16633,0.0652 -0.29621,0.13666 -0.4129,0.21291 -0.19683,0.12863 -0.35876,0.26936 -0.49713,0.40773 -0.13836,0.13837 -0.25316,0.27483 -0.3545,0.42684 -0.10134,0.15201 -0.18888,0.31933 -0.25218,0.46354 -0.0456,0.10366 -0.075,0.18592 -0.0971,0.25167 l 9.48624,-0.36226 c -0.0184,-0.0781 -0.0397,-0.15947 -0.0729,-0.24753 -0.0507,-0.13447 -0.12544,-0.27971 -0.20154,-0.39997 -0.0761,-0.12026 -0.15351,-0.21538 -0.24081,-0.31058 -0.0873,-0.0952 -0.18425,-0.1904 -0.30231,-0.29145 -0.0889,-0.0761 -0.19422,-0.15676 -0.30851,-0.23978 z" /><path
           id="path23"
           style="display:inline;opacity:1;fill:#b06fff;fill-opacity:1;stroke-width:0.119062;filter:url(#filter5)"
           inkscape:label="засвет на корпусе"
           d="m 134.93337,184.15827 -9.52397,0.3638 c -0.0356,0.24208 -0.0683,0.43656 -0.11266,0.81855 -0.0717,0.61736 -0.16005,1.49947 -0.22065,2.46962 -0.0606,0.97014 -0.0933,2.02846 -0.12093,3.12539 -0.0276,1.09693 -0.0504,2.23224 -0.0444,3.53312 0.006,1.30088 0.0389,2.76709 0.12713,4.15065 0.0882,1.38357 0.23133,2.68459 0.35811,4.00751 0.12678,1.32293 0.23703,2.66752 0.39688,4.13928 0.15985,1.47176 0.36931,3.07042 0.5457,4.45399 0.1764,1.38357 0.31988,2.55197 0.601,4.31033 0.28112,1.75839 0.6997,4.10688 1.03043,5.9645 0.33073,1.85762 0.57342,3.2246 0.78289,4.10104 0.0999,0.41791 0.19376,0.72162 0.34314,0.94154 l 3.74447,-0.0734 c 0.31178,-0.30296 0.28975,-0.71534 0.29456,-1.23196 0.006,-0.64493 0.0607,-1.44986 0.11575,-2.25465 0.0551,-0.80478 0.11042,-1.60954 0.20412,-2.43086 0.0937,-0.82129 0.22566,-1.65914 0.40205,-2.62929 0.17639,-0.97015 0.39687,-2.07257 0.64492,-3.10886 0.24805,-1.0363 0.52399,-2.00642 0.75551,-2.9931 0.23151,-0.98667 0.41874,-1.98988 0.57309,-3.175 0.15434,-1.18511 0.27548,-2.55212 0.34158,-4.01835 0.0662,-1.46625 0.0773,-3.03167 0.12144,-4.41524 0.0441,-1.38357 0.12147,-2.58519 0.0884,-4.10104 -0.0331,-1.51586 -0.17639,-3.34603 -0.3142,-4.78472 -0.1378,-1.43869 -0.27011,-2.48597 -0.38033,-3.32383 -0.11024,-0.83785 -0.19878,-1.46622 -0.32557,-2.08359 -0.12678,-0.61737 -0.29218,-1.22375 -0.37878,-1.5503 -0.0423,-0.15946 -0.0358,-0.14655 -0.0496,-0.20515 z" /></g><use
         x="0"
         y="0"
         xlink:href="#g22"
         id="use5"
         transform="matrix(-1,0,0,1,301.41063,-0.09824517)"
         style="display:inline;opacity:1;fill:#ed3535;fill-opacity:1" /><g
         id="g11"
         style="display:inline;opacity:1"
         inkscape:label="оперение хвоста"><path
           id="path11"
           style="display:inline;opacity:1;fill:#9631ff;fill-opacity:1;stroke-width:0.079375"
           d="m 150.71328,231.2293 v 0.003 c -0.34941,0.55566 -0.69857,1.11162 -0.92139,1.78283 -0.22324,0.67248 -0.31958,1.46071 -0.41599,2.24896 -0.0691,0.72775 -0.13805,1.45557 -0.18914,2.36523 -0.0511,0.90967 -0.0907,2.21927 -0.0982,3.46284 -0.007,1.24357 0.0147,4.30148 0.0222,5.64462 0.007,1.34314 0.0171,3.87148 0.0553,5.82341 0.0383,1.95195 0.1211,4.32938 0.22169,5.8782 0.1006,1.54881 0.35351,4.16339 0.48318,5.48442 0.12967,1.32104 0.29767,2.99971 0.41909,3.72018 0.0994,0.59002 0.18047,0.81475 0.43357,0.80977 0.24122,-0.005 0.32129,-0.25396 0.41496,-0.80977 0.12142,-0.72047 0.28942,-2.39915 0.41909,-3.72018 0.12968,-1.32103 0.38258,-3.93561 0.48318,-5.48442 0.10059,-1.54881 0.18341,-3.92625 0.22169,-5.8782 0.0383,-1.95194 0.0478,-4.48027 0.0553,-5.82341 0.007,-1.34314 0.0296,-4.40105 0.0222,-5.64462 -0.007,-1.24357 -0.0471,-2.55317 -0.0982,-3.46284 -0.0511,-0.90966 -0.12008,-1.63747 -0.18914,-2.36523 -0.0964,-0.78825 -0.19275,-1.57648 -0.41599,-2.24896 -0.22282,-0.67121 -0.57198,-1.22717 -0.92139,-1.78283 v -0.003 c -3.3e-4,5.2e-4 -7e-4,0.001 -0.001,0.002 -3.3e-4,-5.3e-4 -7e-4,-0.001 -0.001,-0.002 z"
           transform="translate(0,0.00413411)"
           sodipodi:nodetypes="ccscscccssssssssssscscccc"
           inkscape:label="основа" /><path
           id="path1"
           style="display:inline;opacity:1;fill:url(#radialGradient14);fill-opacity:1;stroke-width:0.079375"
           d="m 150.71328,231.23343 v 0.003 c -0.34941,0.55566 -0.69857,1.11162 -0.92139,1.78283 -0.22324,0.67248 -0.31958,1.46071 -0.41599,2.24896 -0.0691,0.72775 -0.13805,1.45557 -0.18914,2.36523 -0.0511,0.90967 -0.0907,2.21927 -0.0982,3.46284 -0.007,1.24357 0.0147,4.30148 0.0222,5.64462 0.007,1.34314 0.0171,3.87148 0.0553,5.82341 0.0383,1.95195 0.1211,4.32938 0.22169,5.8782 0.1006,1.54881 0.35351,4.16339 0.48318,5.48442 0.12967,1.32104 0.29767,2.99971 0.41909,3.72018 0.0994,0.59002 0.18047,0.81475 0.43357,0.80977 0.24122,-0.005 0.32129,-0.25396 0.41496,-0.80977 0.12142,-0.72047 0.28942,-2.39915 0.41909,-3.72018 0.12968,-1.32103 0.38258,-3.93561 0.48318,-5.48442 0.10059,-1.54881 0.18341,-3.92625 0.22169,-5.8782 0.0383,-1.95194 0.0478,-4.48027 0.0553,-5.82341 0.007,-1.34314 0.0296,-4.40105 0.0222,-5.64462 -0.007,-1.24357 -0.0471,-2.55317 -0.0982,-3.46284 -0.0511,-0.90966 -0.12008,-1.63747 -0.18914,-2.36523 -0.0964,-0.78825 -0.19275,-1.57648 -0.41599,-2.24896 -0.22282,-0.67121 -0.57198,-1.22717 -0.92139,-1.78283 v -0.003 c -3.3e-4,5.2e-4 -7e-4,0.001 -0.001,0.002 -3.3e-4,-5.3e-4 -7e-4,-0.001 -0.001,-0.002 z"
           sodipodi:nodetypes="ccscscccssssssssssscscccc"
           inkscape:label="градиент"
           sodipodi:insensitive="true" /></g><path
         id="rect1511"
         style="display:inline;opacity:1;fill:#1a1a1a;stroke:#000000;stroke-width:0.117863;stroke-opacity:1"
         d="m 139.47779,57.067318 c -7e-4,0.09502 -0.001,0.184087 -0.002,0.280603 h 2.90835 c 0.54575,0 0.98495,0.439201 0.98495,0.984953 v 5.496305 c 0,0.54575 -0.4392,0.985469 -0.98495,0.985469 h -2.95383 c -6.3e-4,0.116691 -0.001,0.221426 -0.002,0.338998 h 3.13986 c 0.554,0 0.99994,-0.445941 0.99994,-0.999939 v -6.08645 c 0,-0.554 -0.44594,-0.999939 -0.99994,-0.999939 z"
         inkscape:label="дверь" /><use
         x="0"
         y="0"
         xlink:href="#g1680"
         id="use13"
         transform="matrix(-1,0,0,1,301.44561,0)"
         style="display:inline;opacity:1"
         inkscape:label="илюминаторы 2" /><g
         id="g1680"
         style="display:inline;opacity:1;fill:#333333"
         inkscape:label="борт иллюминаторы"><path
           id="rect1533-4-2-8-3-8-4-3-1"
           style="display:inline;opacity:1;fill:#333333;stroke-width:0.128655"
           d="m 139.20618,133.19125 c -0.004,1.06808 -0.008,2.13561 -0.0119,3.2246 h 0.49868 c 0.4432,0 0.79995,-0.35675 0.79995,-0.79995 v -1.6247 c 0,-0.4432 -0.35675,-0.79995 -0.79995,-0.79995 z" /><path
           id="rect1533-4-2-8-3-8-4-3"
           style="display:inline;opacity:1;fill:#333333;stroke-width:0.128655"
           d="m 139.26102,125.45385 c -0.004,1.06808 -0.008,2.13561 -0.0119,3.2246 h 0.49868 c 0.4432,0 0.79995,-0.35675 0.79995,-0.79995 v -1.6247 c 0,-0.4432 -0.35675,-0.79995 -0.79995,-0.79995 z" /><path
           id="rect1533-4-2-8-3-8"
           style="display:inline;opacity:1;fill:#333333;stroke-width:0.128655"
           d="m 139.23476,109.86916 c -0.004,1.06808 -0.008,2.13561 -0.0119,3.2246 h 0.49868 c 0.4432,0 0.79995,-0.35675 0.79995,-0.79995 v -1.6247 c 0,-0.4432 -0.35675,-0.79995 -0.79995,-0.79995 z" /><path
           id="rect1533-4-2-8-3-8-4"
           style="display:inline;opacity:1;fill:#333333;stroke-width:0.128655"
           d="m 139.24165,117.60084 c -0.004,1.06808 -0.008,2.13561 -0.0119,3.2246 h 0.49868 c 0.4432,0 0.79995,-0.35675 0.79995,-0.79995 v -1.6247 c 0,-0.4432 -0.35675,-0.79995 -0.79995,-0.79995 z" /><path
           id="rect1533-4-2-8-3"
           style="display:inline;opacity:1;fill:#333333;stroke-width:0.128655"
           d="m 139.24448,102.03822 c -0.004,1.06808 -0.008,2.13561 -0.0119,3.2246 h 0.49868 c 0.4432,0 0.79995,-0.35675 0.79995,-0.79995 v -1.6247 c 0,-0.4432 -0.35675,-0.79995 -0.79995,-0.79995 z" /><path
           id="rect1533-4-2-8"
           style="display:inline;opacity:1;fill:#333333;stroke-width:0.128655"
           d="m 139.24835,94.233008 c -0.004,1.068089 -0.008,2.135615 -0.0119,3.224609 h 0.49868 c 0.4432,0 0.79995,-0.356751 0.79995,-0.799951 v -1.624707 c 0,-0.4432 -0.35675,-0.799951 -0.79995,-0.799951 z" /><path
           id="rect1533"
           style="opacity:1;fill:#333333;stroke-width:0.128655"
           d="m 139.3486,70.809115 c -0.005,1.0579 -0.0109,2.126307 -0.016,3.224609 h 0.47697 c 0.4432,0 0.79996,-0.356752 0.79996,-0.799951 v -1.624707 c 0,-0.4432 -0.35676,-0.799951 -0.79996,-0.799951 z" /><path
           id="rect1533-4"
           style="display:inline;opacity:1;fill:#333333;stroke-width:0.128655"
           d="m 139.31191,78.601921 c -0.005,1.062197 -0.009,2.130883 -0.014,3.224609 h 0.47284 c 0.4432,0 0.79995,-0.356752 0.79995,-0.799951 v -1.624707 c 0,-0.4432 -0.35675,-0.799951 -0.79995,-0.799951 z" /><path
           id="rect1533-4-2"
           style="display:inline;opacity:1;fill:#333333;stroke-width:0.128655"
           d="m 139.27987,86.436068 c -0.004,1.042084 -0.008,2.158108 -0.0124,3.224609 h 0.50333 c 0.4432,0 0.79995,-0.356752 0.79995,-0.799951 v -1.62419 c 0,-0.4432 -0.35675,-0.800468 -0.79995,-0.800468 z" /><path
           id="path4"
           style="display:inline;opacity:1;fill:#333333;stroke-width:0.128655"
           d="m 139.26102,141.03119 c -0.004,1.06808 -0.008,2.13561 -0.0119,3.2246 h 0.49868 c 0.4432,0 0.79995,-0.35675 0.79995,-0.79995 v -1.6247 c 0,-0.4432 -0.35675,-0.79995 -0.79995,-0.79995 z"
           sodipodi:nodetypes="ccssssc" /><path
           id="path5"
           style="display:inline;opacity:1;fill:#333333;stroke-width:0.128655"
           d="m 139.26102,148.86947 c -0.004,1.06808 -0.008,2.13561 -0.0119,3.2246 h 0.49868 c 0.4432,0 0.79995,-0.35675 0.79995,-0.79995 v -1.6247 c 0,-0.4432 -0.35675,-0.79995 -0.79995,-0.79995 z" /></g><use
         x="0"
         y="0"
         xlink:href="#g2"
         id="use11"
         style="display:inline;opacity:1"
         inkscape:label="обводка крыла 2"
         transform="matrix(-1,0,0,1,301.45548,3.0999906e-4)" /><g
         id="g2"
         inkscape:label="обводка крыла"
         style="display:inline;opacity:1;fill:#4f0100;fill-opacity:1"><path
           style="display:inline;opacity:1;fill:#9631ff;fill-opacity:1;stroke:#ffffff;stroke-width:0.079375"
           d="m 16.205728,215.36397 c 0,0 -0.01075,-1.76725 -0.01075,-1.76725 -0.0013,-0.20722 -0.0025,-0.41418 0.05864,-0.61811 0.06117,-0.20392 0.184822,-0.40436 0.50286,-0.92 0.318037,-0.51564 1.24061,-2.0115 1.801499,-2.83734 0.56089,-0.82584 1.38495,-1.9236 1.824997,-2.5189 0.440047,-0.5953 0.61914,-0.85207 0.833068,-1.08175 0.213928,-0.22969 0.462591,-0.43218 0.711284,-0.63469 0.229,-0.0351 0.45822,-0.0702 0.67324,-0.0701 0.215019,4e-5 0.415954,0.0351 0.704378,0.18997 0.288424,0.15484 0.664321,0.42928 1.008153,0.70491 0.343832,0.27562 0.655335,0.55215 0.967118,0.82892 0,0 -0.592963,0.071 -0.592963,0.071 z"
           id="path310"
           sodipodi:nodetypes="cczcszzczzzccc"
           inkscape:label="кончик крыла"
           inkscape:original-d="m 16.205728,215.36397 -0.01075,-1.76725 c 0,0 -0.0023,-0.41418 -0.0038,-0.62167 0.123918,-0.20017 0.247571,-0.40061 0.37096,-0.60132 0.512461,-0.83071 1.435258,-2.32643 1.978809,-3.20844 0.578214,-0.76964 1.402274,-1.8674 2.103014,-2.8015 0.179359,-0.25651 0.358453,-0.51328 0.537282,-0.77032 0.248958,-0.20225 0.74608,-0.60754 0.74608,-0.60754 0,0 0.458265,-0.0699 0.687,-0.10524 0.201213,0.0354 0.402161,0.0704 0.602844,0.10524 0.376163,0.27471 0.752062,0.54915 1.127696,0.82333 0.312047,0.27704 0.935349,0.83032 0.935349,0.83032 l -0.592963,0.071 z"
           inkscape:path-effect="#path-effect312" /><path
           id="path902"
           style="display:inline;opacity:1;fill:#9631ff;fill-opacity:1;stroke:none;stroke-width:0.119062;stroke-opacity:1"
           inkscape:label="накладка на крыло"
           d="m 139.25765,101.94313 c -0.0153,0.0123 -0.0229,0.0187 -0.0382,0.031 -1.6e-4,0.0439 -3.6e-4,0.0667 -5.2e-4,0.11058 L 83.58822,146.9197 55.77338,169.33694 c -9.277744,7.43629 -18.556076,14.87263 -23.291085,18.74098 -2.877154,2.35053 -3.912164,3.25532 -4.469495,3.78736 -0.01636,0.1056 -0.03223,0.20223 -0.05116,0.34313 -0.02848,0.212 -0.124673,0.64904 -0.129191,0.84698 -0.0045,0.19793 0.06882,0.60382 0.100769,0.78135 0.03194,0.17753 0.04744,0.26429 0.03411,0.32711 -0.01333,0.0628 -0.05558,0.10144 -0.340548,0.3638 -0.284974,0.26236 -0.812829,0.74828 -1.138948,1.04852 -0.326118,0.30023 -0.450673,0.41504 -0.52865,0.59583 -0.07798,0.1808 -0.109399,0.42744 -0.134875,0.62786 -0.02548,0.20043 -0.045,0.35452 -0.05478,0.4315 l -0.0098,0.077 c 0,0 -1.06e-4,1.9e-4 0.798918,-0.65267 0.799023,-0.65286 2.397057,-1.95868 3.995105,-3.2644 -0.124725,-0.17929 -0.250477,-0.36002 -0.178284,-0.55449 0.07219,-0.19447 0.342682,-0.4074 16.450159,-13.09119 C 62.9331,167.0618 94.875708,141.90867 126.81816,116.75565 l 0.49609,0.0413 11.82357,-9.49193 z" /></g><use
         x="0"
         y="0"
         xlink:href="#path12"
         id="use6"
         transform="matrix(-1,0,0,1,301.4549,3.4999877e-4)"
         style="display:inline;opacity:1"
         inkscape:label="тень у крыла 2" /><path
         id="path12"
         style="display:inline;opacity:1;fill:url(#radialGradient13);fill-opacity:1;stroke-width:0.119062"
         inkscape:label="тень у крыла"
         d="m 139.24816,152.28142 0.0393,13.80588 c -2e-4,-0.0433 -4.2e-4,-0.0867 -0.0217,-0.10801 -0.0213,-0.0213 -0.0633,-0.0201 -0.10542,-0.0191 l -4.73614,0.13023 -1.82115,0.0754 -6.93498,0.20361 c -0.2293,-0.88673 -0.34922,-1.79819 -0.35708,-2.71405 9e-5,-6.19944 7.73769,-11.37389 13.93713,-11.37398 z"
         sodipodi:nodetypes="ccsccccccc" /><g
         id="g1389"
         inkscape:label="передние иллюминаторы"
         style="display:inline;opacity:1;fill:#4a4c4c;fill-opacity:1"><path
           style="display:inline;fill:#4a4c4c;fill-opacity:1;stroke-width:0.119062"
           d="m 145.64587,39.634289 c 0,0 4.10789,-2.494037 4.10789,-2.494037 0.0659,-0.04003 0.13193,-0.0801 0.16503,-0.139107 0.0331,-0.05901 0.0334,-0.137573 0.0338,-0.215871 0,0 0.0213,-4.563924 0.0213,-4.563924 3.2e-4,-0.0686 6.4e-4,-0.136937 -0.0399,-0.153157 -0.0405,-0.01622 -0.12199,0.02027 -0.2034,0.05673 -0.53637,0.228583 -1.07262,0.45711 -1.62732,0.757524 -0.5547,0.300414 -1.12765,0.672638 -1.63047,1.043908 -0.50283,0.371269 -0.93547,0.741549 -1.30869,1.096252 -0.37322,0.354704 -0.68697,0.6938 -0.86957,0.935098 -0.1826,0.241299 -0.24422,0.413203 -0.27111,0.509526 -0.0269,0.09632 -0.0466,0.217618 -0.0549,0.288173 -0.008,0.07056 -0.01,0.119417 -0.003,0.163683 0.007,0.04427 0.0211,0.08342 0.0358,0.122892 0.19248,0.447766 0.38509,0.895851 0.5892,1.311746 0.2041,0.415895 0.41962,0.799609 0.63531,1.183637 0.0555,0.06293 0.1112,0.126133 0.18126,0.142116 0.0701,0.01598 0.1546,-0.01457 0.23931,-0.04519 z"
           id="path727"
           sodipodi:nodetypes="cczcczczzzzsczczczcc"
           inkscape:original-d="m 145.64587,39.634289 4.10789,-2.494037 c 0,0 0.13212,-0.07979 0.19779,-0.120083 6e-4,-0.07803 0.001,-0.234895 0.001,-0.234895 l 0.0213,-4.563924 c 0,0 9e-4,-0.136936 9.6e-4,-0.205801 -0.0812,0.03672 -0.24423,0.109378 -0.24423,0.109378 0,0 -1.07248,0.457429 -1.60912,0.685748 -0.5727,0.372494 -1.14565,0.74472 -1.71887,1.116684 -0.43239,0.370549 -0.86503,0.740831 -1.29794,1.110851 -0.31349,0.33936 -0.62725,0.678454 -0.94127,1.017285 -0.0511,0.143637 -0.11275,0.315532 -0.15419,0.430117 -0.0124,0.07799 -0.0323,0.199253 -0.0473,0.291075 -0.001,0.0493 -0.003,0.09815 -0.005,0.146868 0.0149,0.03976 0.044,0.118428 0.044,0.118428 0,0 0.38522,0.895795 0.57743,1.343298 0.21596,0.384293 0.64708,1.152085 0.64708,1.152085 0,0 0.11122,0.126116 0.16643,0.188777 0.085,-0.03035 0.25414,-0.09185 0.25414,-0.09185 z"
           inkscape:path-effect="#path-effect729" /><path
           style="display:inline;opacity:1;fill:#4a4c4c;fill-opacity:1;stroke-width:0.119062"
           d="m 143.33448,38.124621 c 0,0 0.9369,1.95482 0.9369,1.95482 0.0201,0.04187 0.0403,0.08406 0.0509,0.131781 0.0106,0.04772 0.012,0.101036 0.0133,0.154634 0,0 0.0117,0.493604 0.0117,0.493604 0.001,0.04935 0.003,0.09897 -0.008,0.14098 -0.0104,0.04201 -0.0324,0.07682 -0.0545,0.111709 -0.48268,0.734908 -1.04231,1.586969 -1.37405,2.278991 -0.33174,0.692023 -0.74878,1.9319 -0.87985,2.338116 -0.13106,0.406216 -0.15705,0.53314 -0.16992,0.619751 -0.0129,0.08661 -0.017,0.154161 -0.0585,0.185679 -0.0415,0.03152 -0.12095,0.02723 -0.20012,0.02296 0,0 -1.01137,0.0086 -1.01137,0.0086 -0.0505,4.33e-4 -0.10064,8.64e-4 -0.12266,-0.02723 -0.022,-0.0281 -0.0153,-0.08517 -0.009,-0.142026 0.0789,-0.792507 0.1578,-1.584779 0.35121,-2.518943 0.1934,-0.934165 0.50131,-2.009924 0.77024,-2.819386 0.26893,-0.809462 0.49887,-1.352578 0.70618,-1.794837 0.2073,-0.44226 0.39196,-0.783627 0.52655,-1.02936 0.13459,-0.245733 0.21911,-0.395807 0.29769,-0.39804 0.0786,-0.0022 0.15084,0.142826 0.22326,0.288211 z"
           id="path1383"
           sodipodi:nodetypes="cczcczcscczcczczzzzzcc"
           inkscape:original-d="m 143.33448,38.124621 0.9369,1.95482 c 0,0 0.0404,0.08401 0.0602,0.12562 0.002,0.05386 0.004,0.160795 0.004,0.160795 l 0.0117,0.493604 c 0,0 0.003,0.09896 0.004,0.148038 -0.0218,0.03515 -0.0662,0.104651 -0.0662,0.104651 0,0 -1.042,1.587173 -1.44805,2.204725 -0.25742,0.766398 -0.67446,2.006273 -0.91959,2.734004 -0.017,0.08466 -0.043,0.211581 -0.0649,0.316959 -0.004,0.06779 -0.008,0.135348 -0.0124,0.202625 -0.0789,-0.004 -0.2375,-0.01282 -0.2375,-0.01282 l -1.01137,0.0086 c 0,0 -0.10064,0.0011 -0.15136,0.0013 0.007,-0.05659 0.0201,-0.170558 0.0201,-0.170558 0,0 0.15809,-1.58475 0.23674,-2.377522 0.30818,-1.075496 0.6161,-2.151254 0.92375,-3.227279 0.23021,-0.542854 0.46015,-1.085971 0.68983,-1.629353 0.18492,-0.341103 0.36958,-0.68247 0.55398,-1.024102 0.0848,-0.14982 0.1693,-0.299901 0.25356,-0.450253 0.0727,0.145652 0.21727,0.436154 0.21727,0.436154 z"
           inkscape:path-effect="#path-effect1385" /></g><use
         x="0"
         y="0"
         xlink:href="#g1389"
         id="use1"
         inkscape:label="передние илюминаторы 2 "
         style="display:inline;opacity:1;fill:#b7b7b7;fill-opacity:1"
         transform="matrix(-1,0,0,1,301.54533,4.2802244e-6)" /></g></g></svg>
