<?xml version="1.0" encoding="UTF-8" standalone="no"?>
<!-- Created with Inkscape (http://www.inkscape.org/) -->

<svg
   width="210mm"
   height="210mm"
   viewBox="0 0 210 210"
   version="1.1"
   id="svg1"
   xml:space="preserve"
   sodipodi:docname="nagger_dreamflight.svg"
   inkscape:version="1.3.2 (091e20e, 2023-11-25, custom)"
   inkscape:export-filename="..\..\..\..\..\..\Users\Андрей\Desktop\nagger_black_gold.png"
   inkscape:export-xdpi="60.476189"
   inkscape:export-ydpi="60.476189"
   xmlns:inkscape="http://www.inkscape.org/namespaces/inkscape"
   xmlns:sodipodi="http://sodipodi.sourceforge.net/DTD/sodipodi-0.dtd"
   xmlns:xlink="http://www.w3.org/1999/xlink"
   xmlns="http://www.w3.org/2000/svg"
   xmlns:svg="http://www.w3.org/2000/svg"><sodipodi:namedview
     id="namedview1"
     pagecolor="#ffffff"
     bordercolor="#000000"
     borderopacity="0.25"
     inkscape:showpageshadow="2"
     inkscape:pageopacity="0.0"
     inkscape:pagecheckerboard="0"
     inkscape:deskcolor="#d1d1d1"
     inkscape:document-units="mm"
     showguides="true"
     inkscape:zoom="1"
     inkscape:cx="100.5"
     inkscape:cy="445.5"
     inkscape:window-width="3440"
     inkscape:window-height="1417"
     inkscape:window-x="-8"
     inkscape:window-y="-8"
     inkscape:window-maximized="1"
     inkscape:current-layer="g1"
     showgrid="false" /><defs
     id="defs1"><linearGradient
       id="linearGradient14"
       inkscape:collect="always"><stop
         style="stop-color:#008080;stop-opacity:1;"
         offset="0"
         id="stop14" /><stop
         style="stop-color:#008080;stop-opacity:0;"
         offset="1"
         id="stop15" /></linearGradient><inkscape:path-effect
       effect="bspline"
       id="path-effect12"
       is_visible="true"
       lpeversion="1.3"
       weight="33.333333"
       steps="2"
       helper_size="0"
       apply_no_weight="true"
       apply_with_weight="true"
       only_selected="false"
       uniform="false" /><linearGradient
       id="linearGradient4"
       inkscape:collect="always"><stop
         style="stop-color:#000000;stop-opacity:1;"
         offset="0"
         id="stop4" /><stop
         style="stop-color:#0e0e0e;stop-opacity:0.04526749;"
         offset="1"
         id="stop5" /></linearGradient><linearGradient
       id="linearGradient56"
       inkscape:collect="always"><stop
         style="stop-color:#d9d9d9;stop-opacity:0.37254903;"
         offset="0"
         id="stop57" /><stop
         style="stop-color:#1f1f1f;stop-opacity:0;"
         offset="1"
         id="stop58" /></linearGradient><linearGradient
       id="linearGradient54"
       inkscape:collect="always"><stop
         style="stop-color:#000000;stop-opacity:0.89999998;"
         offset="0"
         id="stop55" /><stop
         style="stop-color:#000000;stop-opacity:0;"
         offset="1"
         id="stop56" /></linearGradient><linearGradient
       id="linearGradient52"
       inkscape:collect="always"><stop
         style="stop-color:#ffffff;stop-opacity:1;"
         offset="0"
         id="stop53" /><stop
         style="stop-color:#ffffff;stop-opacity:0;"
         offset="1"
         id="stop54" /></linearGradient><linearGradient
       id="linearGradient46"
       inkscape:collect="always"><stop
         style="stop-color:#000000;stop-opacity:0.89506173;"
         offset="0"
         id="stop47" /><stop
         style="stop-color:#000000;stop-opacity:0;"
         offset="1"
         id="stop48" /></linearGradient><linearGradient
       id="linearGradient44"
       inkscape:collect="always"><stop
         style="stop-color:#ffffff;stop-opacity:1;"
         offset="0"
         id="stop45" /><stop
         style="stop-color:#ffffff;stop-opacity:0;"
         offset="1"
         id="stop46" /></linearGradient><linearGradient
       id="linearGradient38"
       inkscape:collect="always"><stop
         style="stop-color:#000000;stop-opacity:0.31687242;"
         offset="0"
         id="stop39" /><stop
         style="stop-color:#555555;stop-opacity:0.71193415;"
         offset="1"
         id="stop40" /></linearGradient><linearGradient
       id="linearGradient29"
       inkscape:collect="always"><stop
         style="stop-color:#2e2e2e;stop-opacity:0.31893003;"
         offset="0"
         id="stop30" /><stop
         style="stop-color:#000000;stop-opacity:1;"
         offset="1"
         id="stop31" /></linearGradient><linearGradient
       id="linearGradient28"
       inkscape:collect="always"><stop
         style="stop-color:#1e1e1e;stop-opacity:0.52263373;"
         offset="0"
         id="stop28" /><stop
         style="stop-color:#828282;stop-opacity:0.54732507;"
         offset="1"
         id="stop29" /></linearGradient><inkscape:path-effect
       effect="bspline"
       id="path-effect729"
       is_visible="true"
       lpeversion="1"
       weight="33.333333"
       steps="2"
       helper_size="0"
       apply_no_weight="true"
       apply_with_weight="true"
       only_selected="false"
       uniform="false" /><inkscape:path-effect
       effect="bspline"
       id="path-effect1385"
       is_visible="true"
       lpeversion="1"
       weight="33.333333"
       steps="2"
       helper_size="0"
       apply_no_weight="true"
       apply_with_weight="true"
       only_selected="false"
       uniform="false" /><inkscape:path-effect
       effect="bspline"
       id="path-effect312"
       is_visible="true"
       lpeversion="1"
       weight="33.333333"
       steps="2"
       helper_size="0"
       apply_no_weight="true"
       apply_with_weight="true"
       only_selected="false"
       uniform="false" /><inkscape:path-effect
       effect="bspline"
       id="path-effect50"
       is_visible="true"
       lpeversion="1"
       weight="33.333333"
       steps="2"
       helper_size="0"
       apply_no_weight="true"
       apply_with_weight="true"
       only_selected="false"
       uniform="false" /><inkscape:path-effect
       effect="bspline"
       id="path-effect52"
       is_visible="true"
       lpeversion="1"
       weight="33.333333"
       steps="2"
       helper_size="0"
       apply_no_weight="true"
       apply_with_weight="true"
       only_selected="false"
       uniform="false" /><inkscape:path-effect
       effect="bspline"
       id="path-effect54"
       is_visible="true"
       lpeversion="1"
       weight="33.333333"
       steps="2"
       helper_size="0"
       apply_no_weight="true"
       apply_with_weight="true"
       only_selected="false"
       uniform="false" /><inkscape:path-effect
       effect="bspline"
       id="path-effect729-2"
       is_visible="true"
       lpeversion="1"
       weight="33.333333"
       steps="2"
       helper_size="0"
       apply_no_weight="true"
       apply_with_weight="true"
       only_selected="false"
       uniform="false" /><inkscape:path-effect
       effect="bspline"
       id="path-effect1385-7"
       is_visible="true"
       lpeversion="1"
       weight="33.333333"
       steps="2"
       helper_size="0"
       apply_no_weight="true"
       apply_with_weight="true"
       only_selected="false"
       uniform="false" /><inkscape:path-effect
       effect="bspline"
       id="path-effect312-5"
       is_visible="true"
       lpeversion="1"
       weight="33.333333"
       steps="2"
       helper_size="0"
       apply_no_weight="true"
       apply_with_weight="true"
       only_selected="false"
       uniform="false" /><inkscape:path-effect
       effect="bspline"
       id="path-effect50-9"
       is_visible="true"
       lpeversion="1"
       weight="33.333333"
       steps="2"
       helper_size="0"
       apply_no_weight="true"
       apply_with_weight="true"
       only_selected="false"
       uniform="false" /><inkscape:path-effect
       effect="bspline"
       id="path-effect52-6"
       is_visible="true"
       lpeversion="1"
       weight="33.333333"
       steps="2"
       helper_size="0"
       apply_no_weight="true"
       apply_with_weight="true"
       only_selected="false"
       uniform="false" /><inkscape:path-effect
       effect="bspline"
       id="path-effect54-6"
       is_visible="true"
       lpeversion="1"
       weight="33.333333"
       steps="2"
       helper_size="0"
       apply_no_weight="true"
       apply_with_weight="true"
       only_selected="false"
       uniform="false" /><radialGradient
       inkscape:collect="always"
       xlink:href="#linearGradient28"
       id="radialGradient29"
       cx="104.50988"
       cy="137.77242"
       fx="104.50988"
       fy="137.77242"
       r="101.94082"
       gradientTransform="matrix(1,0,0,0.32243813,-0.00517123,59.346644)"
       gradientUnits="userSpaceOnUse" /><radialGradient
       inkscape:collect="always"
       xlink:href="#linearGradient29"
       id="radialGradient33"
       cx="104.50654"
       cy="142.27098"
       fx="104.50654"
       fy="142.27098"
       r="10.853829"
       gradientTransform="matrix(0.68238167,0,0,24.613674,33.190277,-3396.6211)"
       gradientUnits="userSpaceOnUse" /><radialGradient
       inkscape:collect="always"
       xlink:href="#linearGradient38"
       id="radialGradient40"
       cx="104.5099"
       cy="227.00343"
       fx="104.5099"
       fy="227.00343"
       r="36.856731"
       gradientTransform="matrix(0.68054819,0,0,1.0776881,33.389783,-52.674974)"
       gradientUnits="userSpaceOnUse" /><radialGradient
       inkscape:collect="always"
       xlink:href="#linearGradient44"
       id="radialGradient46"
       cx="56.439896"
       cy="117.34173"
       fx="56.439896"
       fy="117.34173"
       r="7.3785658"
       gradientTransform="matrix(1,0,0,0.18133418,0,69.954237)"
       gradientUnits="userSpaceOnUse" /><radialGradient
       inkscape:collect="always"
       xlink:href="#linearGradient46"
       id="radialGradient48"
       cx="56.389286"
       cy="112.13846"
       fx="56.389286"
       fy="112.13846"
       r="7.3785658"
       gradientTransform="matrix(1,0,0,0.20834804,0.04677217,67.184827)"
       gradientUnits="userSpaceOnUse" /><radialGradient
       inkscape:collect="always"
       xlink:href="#linearGradient52"
       id="radialGradient54"
       cx="152.54239"
       cy="116.72437"
       fx="152.54239"
       fy="116.72437"
       r="7.3785648"
       gradientTransform="matrix(1,0,0,0.22615712,0,65.02308)"
       gradientUnits="userSpaceOnUse" /><radialGradient
       inkscape:collect="always"
       xlink:href="#linearGradient54"
       id="radialGradient56"
       cx="152.54239"
       cy="108.47849"
       fx="152.54239"
       fy="108.47849"
       r="7.3785648"
       gradientTransform="matrix(1,0,0,0.1813342,0,71.053827)"
       gradientUnits="userSpaceOnUse" /><radialGradient
       inkscape:collect="always"
       xlink:href="#linearGradient56"
       id="radialGradient58"
       cx="104.50308"
       cy="220.00203"
       fx="104.50308"
       fy="220.00203"
       r="1.1249696"
       gradientTransform="matrix(1,0,0,21.46111,233.3625,-4502.816)"
       gradientUnits="userSpaceOnUse" /><radialGradient
       inkscape:collect="always"
       xlink:href="#linearGradient4"
       id="radialGradient5"
       cx="104.5099"
       cy="37.449944"
       fx="104.5099"
       fy="37.449944"
       r="8.1205835"
       gradientTransform="matrix(1.2850907,0,0,1.0572059,-29.794806,-4.6707356)"
       gradientUnits="userSpaceOnUse" /><radialGradient
       inkscape:collect="always"
       xlink:href="#linearGradient14"
       id="radialGradient15"
       cx="104.2012"
       cy="17.708782"
       fx="104.2012"
       fy="17.708782"
       r="10.679451"
       gradientTransform="matrix(0,2.3369549,-1.3538635,4.6152057e-6,128.49736,-228.51039)"
       gradientUnits="userSpaceOnUse" /></defs><g
     inkscape:label="Слой 1"
     inkscape:groupmode="layer"
     id="layer1"><path
       id="path192"
       style="display:inline;opacity:1;fill:url(#radialGradient58);fill-opacity:0.372549;stroke:none;stroke-width:0.465;stroke-linecap:round;stroke-linejoin:round;stroke-dasharray:none;stroke-opacity:0.544118;paint-order:markers fill stroke"
       d="m 337.64089,196.05935 c -0.6355,2.37868 -0.79103,12.66086 -0.85938,18.9146 -0.056,5.12492 -0.0561,9.72576 0.0992,14.71745 0.14956,4.80464 0.45092,14.24982 0.85989,14.48594 0.01,0.006 0.0194,0.0328 0.13175,0.0328 0.11235,2e-4 0.12165,-0.0278 0.13165,-0.0328 0.40898,-0.23612 0.71034,-9.6813 0.8599,-14.48594 0.1553,-4.99169 0.15522,-9.59253 0.0992,-14.71745 -0.0684,-6.25374 -0.22388,-16.53592 -0.85938,-18.9146 0,0 -0.0357,-0.1354 -0.23151,-0.1354 -0.19603,0 -0.23132,0.1354 -0.23132,0.1354 z"
       sodipodi:nodetypes="cscscccscsc"
       inkscape:label="Градиент ЗВКрыла" /><g
       id="g1"
       transform="translate(0.4927056,-7.379898)"><path
         id="path131"
         style="fill:#808080;fill-opacity:1;stroke:none;stroke-width:0.769244;stroke-linecap:square;stroke-opacity:0.544118;paint-order:markers fill stroke"
         d="m 135.36225,109.63414 2.62465,0.78186 -1.27434,4.08813 z m 25.41394,8.62239 2.33695,0.75622 -1.10084,3.64282 z m 16.37369,5.7726 2.38487,0.74982 -1.15755,3.92431 z"
         sodipodi:nodetypes="cccccccccccc"
         inkscape:label="ПШтуки" /><path
         id="path5"
         style="fill:#808080;fill-opacity:1;stroke:none;stroke-width:0.769244;stroke-linecap:square;stroke-opacity:0.544118;paint-order:markers fill stroke"
         d="m 73.65752,109.63414 -2.624646,0.78186 1.27434,4.08813 z m -25.413943,8.62239 -2.33695,0.75622 1.10084,3.64282 z m -16.373688,5.7726 -2.384867,0.74982 1.157552,3.92431 z"
         sodipodi:nodetypes="cccccccccccc"
         inkscape:label="ЛШтуки " /><path
         id="path1"
         style="fill:#808080;fill-opacity:0.501961;stroke:none;stroke-width:0.750001;stroke-linecap:square;stroke-opacity:0.544118;paint-order:markers fill stroke"
         d="m 51.671265,91.036817 c -0.551351,0.001 -0.923826,0.005 -0.937411,0.0129 -1.314969,0.73495 -1.637109,2.66134 -1.637109,2.66134 l 7.203694,0.001 h 0.286288 l 7.266545,-0.001 c 0,0 -0.31161,-1.92639 -1.626579,-2.66134 -0.05299,-0.0296 -5.50951,-0.002 -5.78311,-5.1e-4 -0.20346,-10e-4 -3.172961,-0.0165 -4.772318,-0.0124 z"
         sodipodi:nodetypes="scccccscss"
         inkscape:label="ВЧасть ЛДвигателя" /><path
         id="path127"
         style="fill:#808080;fill-opacity:0.501961;stroke:none;stroke-width:0.750001;stroke-linecap:square;stroke-opacity:0.544118;paint-order:markers fill stroke"
         d="m 157.34851,91.036817 c 0.55135,0.001 0.92382,0.005 0.93741,0.0129 1.31497,0.73495 1.63711,2.66134 1.63711,2.66134 l -7.2037,0.001 h -0.28629 l -7.26654,-0.001 c 0,0 0.31161,-1.92639 1.62658,-2.66134 0.053,-0.0296 5.50951,-0.002 5.78311,-5.1e-4 0.20346,-10e-4 3.17296,-0.0165 4.77232,-0.0124 z"
         sodipodi:nodetypes="scccccscss"
         inkscape:label="ВЧасть ПДвигателя" /><path
         id="path2"
         style="fill:url(#radialGradient46);stroke:none;stroke-width:0.750001;stroke-linecap:square;stroke-opacity:0.544118;paint-order:markers fill stroke"
         d="m 51.673332,91.030087 c -0.551351,0.001 -0.923826,0.005 -0.937411,0.0129 -1.314969,0.73495 -1.637109,2.66134 -1.637109,2.66134 l 7.203694,10e-4 h 0.286288 l 7.26715,-10e-4 c 0,0 -0.307048,-1.92639 -1.622017,-2.66134 -0.05299,-0.0296 -5.514677,-0.002 -5.788277,-5.1e-4 -0.20346,-0.001 -3.172961,-0.0165 -4.772318,-0.0124 z"
         sodipodi:nodetypes="scccccscss"
         inkscape:label="Градиент 1 ЛДвигателя" /><path
         id="path128"
         style="fill:url(#radialGradient54);stroke:none;stroke-width:0.750001;stroke-linecap:square;stroke-opacity:0.544118;paint-order:markers fill stroke"
         d="m 157.34644,91.042987 c 0.55135,0.001 0.92382,0.005 0.93741,0.0129 1.31497,0.73495 1.63711,2.66134 1.63711,2.66134 l -7.2037,0.001 h -0.28628 l -7.26715,-0.001 c 0,0 0.30704,-1.92639 1.62201,-2.66134 0.053,-0.0296 5.51468,-0.002 5.78828,-5.1e-4 0.20346,-10e-4 3.17296,-0.0165 4.77232,-0.0124 z"
         sodipodi:nodetypes="scccccscss"
         inkscape:label="Градиент 1 ПДвигателя " /><path
         id="path339"
         style="fill:url(#radialGradient56);stroke:none;stroke-width:0.750001;stroke-linecap:square;stroke-opacity:0.544118;paint-order:markers fill stroke"
         d="m 157.34644,91.074157 c 0.55135,0.001 0.92382,0.005 0.93741,0.0129 1.31497,0.73495 1.63711,2.66134 1.63711,2.66134 l -7.2037,0.001 h -0.28628 l -7.26715,-0.001 c 0,0 0.30704,-1.92639 1.62201,-2.66134 0.053,-0.0296 5.51468,-0.002 5.78828,-5.1e-4 0.20346,-10e-4 3.17296,-0.0165 4.77232,-0.0124 z"
         sodipodi:nodetypes="scccccscss"
         inkscape:label="Градиент 2 ПДвигателя" /><path
         id="path340"
         style="fill:url(#radialGradient48);stroke:none;stroke-width:0.750001;stroke-linecap:square;stroke-opacity:0.544118;paint-order:markers fill stroke"
         d="m 51.720104,91.012177 c -0.551351,0.001 -0.923826,0.005 -0.937411,0.0129 -1.314969,0.73495 -1.637109,2.66134 -1.637109,2.66134 l 7.203694,10e-4 h 0.286288 l 7.26715,-10e-4 c 0,0 -0.307048,-1.92639 -1.622017,-2.66134 -0.05299,-0.0296 -5.514677,-0.002 -5.788277,-5.1e-4 -0.20346,-0.001 -3.172961,-0.0165 -4.772318,-0.0124 z"
         sodipodi:nodetypes="scccccscss"
         inkscape:label="Градиент 2 ЛДвигателя" /><path
         id="path3"
         style="fill:#404040;fill-opacity:1;stroke:none;stroke-width:0.750001;stroke-linecap:square;stroke-opacity:0.544118;paint-order:markers fill stroke"
         d="m 56.438932,93.708187 -7.342704,0.002 c 0,0 -0.488827,4.46592 0.579293,8.452203 0.160756,0.59996 6.736246,17.93017 6.800102,17.93017 0.06386,0 6.639345,-17.33021 6.800101,-17.93017 1.06812,-3.986283 0.579293,-8.452203 0.579293,-8.452203 l -7.342704,-0.002 z m 96.068558,0 -7.34271,0.002 c 0,0 -0.48883,4.46592 0.5793,8.452203 0.16075,0.59996 6.7363,17.93017 6.8001,17.93017 0.0638,0 6.63934,-17.33021 6.8001,-17.93017 1.06812,-3.986283 0.57929,-8.452203 0.57929,-8.452203 l -7.3427,-0.002 z"
         inkscape:label="Двигатели" /><path
         id="path7"
         style="fill:#333333;fill-opacity:1;stroke:none;stroke-width:0.750001;stroke-linecap:square;stroke-opacity:0.544118;paint-order:markers fill stroke"
         d="m 99.063204,175.98543 c 0,0 -28.928681,17.73817 -30.999142,23.14639 -1.393882,3.64095 1.205612,7.87497 1.205612,7.87497 l 33.487876,-11.06651 z m 10.892876,0 -3.69383,19.95485 33.48788,11.06651 c 0,0 2.59949,-4.23402 1.20561,-7.87497 -2.07046,-5.40822 -30.99966,-23.14639 -30.99966,-23.14639 z"
         inkscape:label="ЗКрылья" /><path
         id="path8"
         style="fill:url(#radialGradient40);fill-opacity:1;stroke:none;stroke-width:0.750001;stroke-linecap:square;stroke-opacity:0.544118;paint-order:markers fill stroke"
         d="m 99.067104,175.98552 c 0,0 -28.928681,17.73816 -30.999141,23.14639 -1.39388,3.64094 1.20561,7.87497 1.20561,7.87497 l 33.487877,-11.06651 z m 10.892876,0 -3.69383,19.95485 33.48788,11.06651 c 0,0 2.59949,-4.23403 1.20561,-7.87497 -2.07046,-5.40823 -30.99966,-23.14639 -30.99966,-23.14639 z"
         inkscape:label="Градиент ЗКрыльев" /><path
         id="path9"
         style="display:inline;fill:#333333;fill-opacity:1;stroke:none;stroke-width:0.750001;stroke-linecap:square;stroke-opacity:0.544118;paint-order:markers fill stroke"
         d="m 93.859904,71.087207 c 0,0 -0.02911,1.36749 -2.128552,5.00385 -1.242717,2.15247 -4.352242,4.51881 -5.327324,5.1315 -16.808588,10.56166 -53.179936,29.672813 -77.0495602,43.453933 -0.5591652,0.32283 -3.785317,3.67674 -5.4957886,6.58876 -1.2010711,2.04478 -1.8469587,5.22488 -0.6604248,5.54281 0.6365133,0.17055 0.9719983,-0.84924 2.1688599,-1.83038 1.3678931,-1.12134 1.9400323,-1.60007 4.7056557,-2.6665 20.544136,-7.92191 39.80223,-14.6008 60.816443,-21.74244 4.629762,-1.57341 9.333874,-1.53078 14.446663,-1.32706 3.450797,0.1375 5.1031,0.94978 7.235218,2.18076 1.06188,0.61308 1.25367,1.76269 1.25367,1.76269 z m 21.299996,0 0.0351,42.097923 c 0,0 0.19179,-1.14961 1.25367,-1.76269 2.13211,-1.23098 3.78442,-2.04326 7.23521,-2.18076 5.11279,-0.20372 9.8169,-0.24635 14.44667,1.32706 21.01421,7.14164 40.2723,13.82053 60.81644,21.74244 2.76562,1.06643 3.33777,1.54516 4.70566,2.6665 1.19686,0.98114 1.53235,2.00093 2.16886,1.83038 1.18653,-0.31793 0.54064,-3.49803 -0.66043,-5.54281 -1.71048,-2.91202 -4.93662,-6.26593 -5.49579,-6.58876 -23.86962,-13.78112 -60.24097,-32.892273 -77.04956,-43.453933 -0.97508,-0.61269 -4.0846,-2.97903 -5.32732,-5.1315 -2.09942,-3.63636 -2.12855,-5.00385 -2.12855,-5.00385 z"
         inkscape:label="Передние крылья" /><path
         id="path10"
         style="fill:url(#radialGradient29);fill-opacity:1;stroke:none;stroke-width:0.750001;stroke-linecap:square;stroke-opacity:0.544118;paint-order:markers fill stroke"
         d="m 93.854729,71.087207 c 0,0 -0.0291,1.36749 -2.12855,5.00386 -1.24272,2.15247 -4.35224,4.51881 -5.32732,5.1315 -16.80859,10.56166 -53.17994,29.672813 -77.0495603,43.453923 -0.55917,0.32283 -3.7853199,3.67677 -5.4957899,6.58879 -1.20107,2.04478 -1.84696,5.2244 -0.66043,5.54233 0.63652,0.17054 0.972,-0.84874 2.16886,-1.82988 1.3679,-1.12135 1.94003,-1.60009 4.7056602,-2.66652 20.54413,-7.92191 39.80223,-14.60082 60.81644,-21.74246 4.62976,-1.57341 9.33388,-1.53078 14.44666,-1.32706 3.4508,0.1375 5.1031,0.94978 7.23522,2.18076 1.06188,0.61308 1.25367,1.76269 1.25367,1.76269 z m 21.300001,0 0.0351,42.097933 c 0,0 0.19179,-1.14961 1.25367,-1.76269 2.13211,-1.23098 3.78442,-2.04326 7.23521,-2.18076 5.11279,-0.20372 9.8169,-0.24635 14.44667,1.32706 21.01421,7.14164 40.2723,13.82055 60.81644,21.74246 2.76562,1.06643 3.33777,1.54517 4.70566,2.66652 1.19686,0.98114 1.53235,2.00042 2.16886,1.82988 1.18653,-0.31793 0.54064,-3.49755 -0.66043,-5.54233 -1.71048,-2.91202 -4.93662,-6.26596 -5.49579,-6.58879 -23.86962,-13.78111 -60.24097,-32.892263 -77.04956,-43.453923 -0.97508,-0.61269 -4.0846,-2.97903 -5.32732,-5.1315 -2.09942,-3.63637 -2.12855,-5.00386 -2.12855,-5.00386 z"
         inkscape:label="Градиент ПКрыльев" /><path
         id="rect12"
         style="fill:#008080;fill-opacity:1;stroke-width:1.95529;stroke-linejoin:bevel;paint-order:markers fill stroke"
         transform="translate(-0.4927056,7.379898)"
         d="m 105.54066,78.971995 10.60304,-0.06372 80.67612,41.525935 -4.04512,-0.8728 -8.59647,-3.07551 c -4.76739,-1.68667 -11.06793,-4.34835 -15.94143,-6.1988 -4.8735,-1.85045 -8.55783,-3.41102 -14.51499,-5.44277 -5.95716,-2.03175 -14.99853,-4.961195 -21.27744,-6.549888 -6.27891,-1.588693 -16.27684,-3.248874 -16.27684,-3.248874 l -11.25017,0.241802 z"
         sodipodi:nodetypes="ccccczzzccc" /><path
         id="path13"
         style="fill:#008080;fill-opacity:1;stroke-width:1.95529;stroke-linejoin:bevel;paint-order:markers fill stroke"
         d="m 104.12391,86.351893 -10.603044,-0.06372 -80.676119,41.525937 2.115768,-0.21799 10.525821,-3.73032 c 4.76739,-1.68667 11.06793,-4.34835 15.94143,-6.1988 4.8735,-1.85045 8.55783,-3.41102 14.51499,-5.44277 5.95716,-2.03175 14.99853,-4.9612 21.27744,-6.54989 6.27891,-1.58869 16.27684,-3.24887 16.27684,-3.24887 l 11.250174,0.2418 z"
         sodipodi:nodetypes="ccccczzzccc" /><path
         id="path144"
         style="display:inline;fill:none;fill-opacity:0.799999;fill-rule:evenodd;stroke:#000000;stroke-width:0.465;stroke-linecap:butt;stroke-linejoin:miter;stroke-dasharray:none;stroke-opacity:1"
         inkscape:label=" П Линии"
         d="m 115.58711,86.225457 -0.10323,16.444553 m 25.79429,5.50323 -1.06799,3.10176 m 23.83644,4.90253 -1.03774,2.9569 m 19.40373,4.12007 -0.91894,2.49869 m 18.77971,3.9979 c -28.25791,-9.35244 -55.2755,-23.1633 -84.98225,-27.30773 m 84.97055,27.30773 -85.20206,-35.394063 m 0.0228,-8.24928 85.2433,43.702713 M 93.423969,86.279447 93.527196,102.67001 m -25.785605,5.50323 1.067992,3.10176 m -23.836442,4.90253 1.037742,2.9569 m -19.403732,4.12007 0.918936,2.49869 m -18.7796918,3.9979 C 37.05046,120.60181 63.049126,106.84173 93.728645,102.44336 M 8.7580882,129.75109 93.960155,94.357027 m -0.02282,-8.24928 -85.2432932,43.702713"
         sodipodi:nodetypes="cccccccccccccccccccccccccccc" /><path
         id="path145"
         style="display:inline;fill:#000000;fill-opacity:0;fill-rule:evenodd;stroke:#000000;stroke-width:0.465;stroke-linecap:butt;stroke-linejoin:miter;stroke-dasharray:none;stroke-opacity:1"
         inkscape:label="ЗЛинии"
         d="m 137.58698,202.3298 -1.19437,3.56729 M 71.434399,202.337 102.13872,191.50204 m -30.705928,10.82776 1.194371,3.56729 M 137.58537,202.337 106.88105,191.50204" /><path
         id="path189"
         style="fill:#404040;fill-opacity:1;stroke:none;stroke-width:0.465;stroke-linecap:round;stroke-linejoin:round;stroke-dasharray:none;stroke-opacity:0.544118;paint-order:markers fill stroke"
         d="m 103.77609,15.067298 c -5.459848,3.645728 -8.035681,13.446724 -8.035681,13.446724 0,0 -1.869576,6.296683 -1.903243,11.359513 -0.22346,33.603742 -0.235578,66.967705 -0.06149,100.402665 0.01178,2.26282 0.713946,11.38069 1.444357,17.05735 1.082468,8.41277 7.781377,41.98173 8.496647,43.22062 0.26367,0.4567 0.55808,0.52691 0.71882,0.54622 v 0.0295 c 0,0 0.06,-0.0146 0.0744,-0.015 0.0144,3.4e-4 0.0744,0.015 0.0744,0.015 v -0.0295 c 0.16074,-0.0193 0.45515,-0.0895 0.71882,-0.54622 0.71527,-1.23889 7.41418,-34.80785 8.49664,-43.22062 0.73041,-5.67666 1.43256,-14.79453 1.44436,-17.05735 0.17408,-33.43496 0.16196,-66.798923 -0.0615,-100.402665 -0.0337,-5.06283 -1.90324,-11.359513 -1.90324,-11.359513 0,0 -2.57635,-9.800996 -8.0362,-13.446724 -0.17312,-0.115596 -0.56652,-0.120812 -0.73329,-0.120812 -0.16677,0 -0.56069,0.0052 -0.73381,0.120812 z"
         sodipodi:nodetypes="ccsssscccccsscscscc"
         inkscape:label="Основа" /><path
         id="path190"
         style="fill:url(#radialGradient33);fill-opacity:0.372549;stroke:none;stroke-width:0.465;stroke-linecap:round;stroke-linejoin:round;stroke-dasharray:none;stroke-opacity:0.544118;paint-order:markers fill stroke"
         d="m 103.77455,15.067297 c -5.459838,3.645729 -8.035678,13.446725 -8.035678,13.446725 0,0 -1.86957,6.296682 -1.90324,11.359513 -0.22346,33.603742 -0.23558,66.967195 -0.0615,100.402155 0.0118,2.26282 0.71395,11.3812 1.44435,17.05787 1.08248,8.41277 7.781368,41.98173 8.496638,43.22062 0.26367,0.4567 0.55808,0.5269 0.71882,0.54622 v 0.0294 c 0,0 0.06,-0.0146 0.0744,-0.015 0.0144,3.4e-4 0.0744,0.015 0.0744,0.015 v -0.0294 c 0.16074,-0.0193 0.45515,-0.0895 0.71882,-0.54622 0.71527,-1.23889 7.41418,-34.80785 8.49664,-43.22062 0.73041,-5.67667 1.43256,-14.79505 1.44436,-17.05787 0.17408,-33.43496 0.16196,-66.798413 -0.0615,-100.402155 -0.0337,-5.062831 -1.90324,-11.359513 -1.90324,-11.359513 0,0 -2.57635,-9.800996 -8.0362,-13.446725 -0.17312,-0.115595 -0.56652,-0.120811 -0.73328,-0.120811 -0.16676,0 -0.56068,0.0052 -0.7338,0.120811 z"
         sodipodi:nodetypes="ccsssscccccsscccscc"
         inkscape:label="Градиент Основы" /><path
         id="path11"
         style="display:inline;fill:#008080;fill-opacity:1;stroke:none;stroke-width:0.465;stroke-linecap:round;stroke-linejoin:round;stroke-dasharray:none;stroke-opacity:0.544118;paint-order:markers fill stroke"
         inkscape:label="Желтизна"
         d="m 93.799443,47.033822 c -0.17974,31.179965 -0.197337,62.188908 -0.03566,93.242378 0.0118,2.2628 0.713947,11.38071 1.444356,17.05735 1.010079,7.85025 6.849301,37.27121 8.215001,42.22171 l 0.81494,-0.46457 0.14883,-27.89804 c 0,0 -1.91579,-0.42016 -2.56212,-1.20302 -1.58643,-1.92153 -2.837444,-6.27206 -3.473174,-9.66556 -1.265468,-6.75495 -2.924962,-19.94111 -2.976562,-26.41028 -0.18355,-23.02182 -0.160349,-44.575043 -0.257349,-66.977823 -0.02892,-6.669992 0.02383,-14.98518 -1.318265,-19.902145 z m 21.409027,0 c -1.3421,4.916965 -1.28934,13.232153 -1.31826,19.902145 -0.097,22.40278 -0.0738,43.956003 -0.25735,66.977823 -0.0516,6.46917 -1.7111,19.65533 -2.97657,26.41028 -0.63572,3.3935 -1.88673,7.74403 -3.47317,9.66556 -0.64633,0.78286 -2.56212,1.20302 -2.56212,1.20302 l 0.14883,27.89804 0.81494,0.46457 c 1.36571,-4.9505 7.20492,-34.37146 8.215,-42.22171 0.73041,-5.67664 1.43256,-14.79455 1.44436,-17.05735 0.16168,-31.05347 0.14404,-62.062413 -0.0357,-93.242378 z" /><path
         id="path6"
         style="display:none;fill:#008080;fill-opacity:1;stroke:none;stroke-width:0.27094;stroke-linejoin:bevel;paint-order:markers fill stroke"
         d="m 104.50967,14.946361 c -0.0834,0 -0.22335,0.0013 -0.36432,0.01705 -0.14096,0.01575 -0.28292,0.04606 -0.36948,0.10387 -0.34124,0.227858 -0.67082,0.479842 -0.98961,0.751892 h -5.2e-4 c -0.31868,0.271982 -0.62603,0.564455 -0.92242,0.872815 -0.29648,0.308452 -0.58195,0.632905 -0.85628,0.969967 -0.27432,0.337061 -0.53781,0.6865 -0.79013,1.04438 -0.504638,0.715762 -0.96534,1.465662 -1.382862,2.217953 -0.417521,0.75229 -0.791836,1.506965 -1.123445,2.233455 -0.663219,1.452981 -1.155803,2.791922 -1.482597,3.767729 -0.326794,0.975807 -0.487826,1.588534 -0.487826,1.588534 0,0 -0.116692,0.393563 -0.292488,1.062984 -0.175799,0.66942 -0.410672,1.614669 -0.646473,2.71818 -0.235801,1.103511 -0.472666,2.365203 -0.652673,3.667476 -0.09,0.651137 -0.165798,1.312686 -0.220142,1.969389 -0.05434,0.656703 -0.08726,1.308631 -0.09147,1.941484 -0.0041,0.614772 -0.0028,1.224551 -0.0067,1.839164 0.05499,0.02817 0.136273,-0.03503 0.255282,-0.242879 1.390079,-2.427811 4.64151,-9.99745 6.044079,-11.310938 2.01655,-1.888514 4.37548,-2.444758 4.38009,-2.445845 0.005,0.0011 2.36353,0.557331 4.3801,2.445845 1.40254,1.313488 4.65398,8.883127 6.04407,11.310938 0.11901,0.207849 0.20028,0.271049 0.25528,0.242879 -0.004,-0.614615 -0.003,-1.22439 -0.007,-1.839164 -0.0337,-5.062825 -1.90324,-11.359513 -1.90324,-11.359513 0,0 -2.57636,-9.801001 -8.0362,-13.446725 -0.0866,-0.0578 -0.22813,-0.08812 -0.36897,-0.10387 -0.14097,-0.01575 -0.28092,-0.01705 -0.36432,-0.01705 z" /><path
         id="path14"
         style="fill:url(#radialGradient15);fill-opacity:1;stroke:none;stroke-width:0.27094;stroke-linejoin:bevel;paint-order:markers fill stroke"
         d="M 104.50967 14.946361 C 104.42627 14.946361 104.28632 14.947664 104.14535 14.963414 C 104.00439 14.979166 103.86243 15.009478 103.77587 15.067284 C 103.43463 15.295142 103.10505 15.547126 102.78626 15.819176 L 102.78574 15.819176 C 102.46706 16.091158 102.15971 16.383631 101.86332 16.691991 C 101.56684 17.000443 101.28137 17.324896 101.00704 17.661958 C 100.73272 17.999019 100.46923 18.348458 100.21691 18.706338 C 99.712272 19.4221 99.25157 20.172 98.834048 20.924291 C 98.416527 21.676581 98.042212 22.431256 97.710603 23.157746 C 97.047384 24.610727 96.5548 25.949668 96.228006 26.925475 C 95.901212 27.901282 95.74018 28.514009 95.74018 28.514009 C 95.74018 28.514009 95.623488 28.907572 95.447692 29.576993 C 95.271893 30.246413 95.03702 31.191662 94.801219 32.295173 C 94.565418 33.398684 94.328553 34.660376 94.148546 35.962649 C 94.058543 36.613786 93.982748 37.275335 93.928404 37.932038 C 93.874061 38.588741 93.841146 39.240669 93.836937 39.873522 C 93.832837 40.488294 93.834119 41.098073 93.830219 41.712686 C 93.885209 41.740856 93.966492 41.677656 94.085501 41.469807 C 95.47558 39.041996 98.727011 31.472357 100.12958 30.158869 C 102.14613 28.270355 104.50506 27.714111 104.50967 27.713024 C 104.51467 27.714124 106.8732 28.270355 108.88977 30.158869 C 110.29231 31.472357 113.54375 39.041996 114.93384 41.469807 C 115.05285 41.677656 115.13412 41.740856 115.18912 41.712686 C 115.18518 41.098071 115.18649 40.488296 115.1824 39.873522 C 115.1487 34.810697 113.27916 28.514009 113.27916 28.514009 C 113.27916 28.514009 110.7028 18.713008 105.24296 15.067284 C 105.1564 15.009486 105.01483 14.979168 104.87399 14.963414 C 104.73302 14.947664 104.59307 14.946361 104.50967 14.946361 z " /><path
         id="path338"
         style="display:inline;fill:#000000;fill-opacity:1;stroke-width:0.0812461"
         inkscape:label="двери"
         d="m 93.821147,41.745663 c -5.29e-4,0.05969 -3.3e-4,0.09543 -10e-4,0.156063 l 2.242241,0.02635 c 0.494174,0.0057 0.706524,0.212665 0.705383,0.555522 l -0.01189,3.535701 c -0.0014,0.410459 -0.162128,0.601975 -0.668693,0.605648 l -2.295984,0.01654 c -4.77e-4,0.0733 0.0012,0.110105 5.17e-4,0.183968 h 2.409672 c 0.419025,0 0.756543,-0.279828 0.756543,-0.627868 v -3.824056 c 0,-0.34804 -0.337518,-0.627857 -0.756543,-0.627869 z m 18.997293,0 c -0.41902,1.2e-5 -0.75655,0.279829 -0.75655,0.627869 v 3.824056 c 0,0.34804 0.33753,0.627868 0.75655,0.627868 h 2.40967 c -4.3e-4,-0.07386 0.001,-0.110668 5.2e-4,-0.183968 l -2.29599,-0.01654 c -0.50657,-0.0037 -0.66769,-0.195189 -0.66869,-0.605648 l -0.0119,-3.535701 c -10e-4,-0.342857 0.21121,-0.549822 0.70539,-0.555522 l 2.24224,-0.02635 c -7.1e-4,-0.06064 -5.2e-4,-0.09637 -0.001,-0.156063 z" /><path
         id="path195"
         style="fill:#686868;fill-opacity:1;stroke:none;stroke-width:0.465;stroke-linecap:round;stroke-linejoin:round;stroke-dasharray:none;stroke-opacity:0.544118;paint-order:markers fill stroke"
         d="m 104.32955,25.775171 c 0,0 -1.35592,0.432335 -2.72645,1.361157 -1.24769,0.845572 -2.153874,1.878956 -2.153874,1.878956 l 1.882574,2.35076 c 0,0 0.84097,-0.777139 1.70739,-1.169437 0.60001,-0.271677 1.29863,-0.315226 1.29863,-0.315226 z m 0.3607,0 -0.008,4.10621 c 0,0 0.69862,0.04355 1.29863,0.315226 0.86642,0.392298 1.70739,1.169437 1.70739,1.169437 l 1.88257,-2.35076 c 0,0 -0.90618,-1.033384 -2.15387,-1.878956 -1.37053,-0.928822 -2.72645,-1.361157 -2.72645,-1.361157 z m -5.421894,3.428215 c 0,0 -2.098818,2.114511 -2.711975,4.402832 -0.363957,1.358306 -0.0759,2.094784 0.316257,2.174544 0.2547,0.0518 0.955417,0.197576 1.199924,-0.375171 0.624237,-1.462208 3.047878,-3.804419 3.047878,-3.804419 z m 10.483084,0 -1.85208,2.397786 c 0,0 2.42364,2.342211 3.04787,3.804419 0.24451,0.572747 0.94523,0.426971 1.19993,0.375171 0.39213,-0.07976 0.68022,-0.816238 0.31626,-2.174544 -0.61315,-2.288321 -2.71198,-4.402832 -2.71198,-4.402832 z"
         inkscape:label="Стекла" /><path
         id="path191"
         style="fill:#333333;fill-opacity:1;stroke:none;stroke-width:0.465;stroke-linecap:round;stroke-linejoin:round;stroke-dasharray:none;stroke-opacity:0.544118;paint-order:markers fill stroke"
         d="m 104.27839,161.66352 c -0.6355,2.37868 -0.79103,12.66086 -0.85938,18.91461 -0.056,5.12491 -0.0561,9.72575 0.0992,14.71745 0.14956,4.80463 0.45092,14.24981 0.85989,14.48593 0.01,0.006 0.0194,0.0318 0.13178,0.0318 0.1124,0 0.12175,-0.0258 0.13177,-0.0318 0.40898,-0.23612 0.71034,-9.6813 0.8599,-14.48593 0.1553,-4.9917 0.15522,-9.59254 0.0992,-14.71745 -0.0684,-6.25375 -0.22388,-16.53593 -0.85938,-18.91461 0,0 -0.0274,-0.13539 -0.23149,-0.13539 -0.19895,0 -0.23149,0.13539 -0.23149,0.13539 z"
         sodipodi:nodetypes="cscscccscsc"
         inkscape:label="ЗВКрыло" /><path
         id="path266"
         style="display:inline;fill:#000000;fill-opacity:1;fill-rule:evenodd;stroke:#696969;stroke-width:1.168;stroke-linecap:round;stroke-linejoin:round;stroke-dasharray:none;stroke-opacity:1"
         d="m 95.249483,49.846053 -0.461987,0.0041 z m 18.520837,0 0.46198,0.0041 z m -18.520837,2.66237 -0.461987,0.0041 z m 18.520837,0 0.46198,0.0041 z m -18.520837,2.695443 -0.461987,0.0041 z m 18.520837,0 0.46198,0.0041 z m -18.520837,2.563151 -0.461987,0.0041 z m 18.520837,0 0.46198,0.0041 z m -18.520837,2.629297 -0.461987,0.0041 z m 18.520837,0 0.46198,0.0041 z m -18.520837,2.645833 -0.461987,0.0041 z m 18.520837,0 0.46198,0.0041 z m -18.520837,2.6293 -0.461987,0.004 z m 18.520837,0 0.46198,0.004 z m -18.520837,2.62929 -0.461987,0.004 z m 18.520837,0 0.46198,0.004 z m -18.520837,2.59623 -0.461987,0.004 z m 18.520837,0 0.46198,0.004 z m -18.520837,2.59622 -0.461987,0.004 z m 18.520837,0 0.46198,0.004 z m -18.520837,2.59623 -0.461987,0.004 z m 18.520837,0 0.46198,0.004 z m -18.520837,2.6789 -0.461987,0.004 z m 18.520837,0 0.46198,0.004 z m -18.520837,2.56315 -0.461987,0.004 z m 18.520837,0 0.46198,0.004 z m -18.520837,2.66237 -0.461987,0.004 z m 18.520837,0 0.46198,0.004 z m -18.520837,2.59623 -0.461987,0.004 z m 18.520837,0 0.46198,0.004 z m -18.520837,2.61276 -0.461987,0.004 z m 18.520837,0 0.46198,0.004 z m -18.520837,2.62929 -0.461987,0.004 z m 18.520837,0 0.46198,0.004 z m -18.520837,2.57969 -0.461987,0.004 z m 18.520837,0 0.46198,0.004 z m -18.520837,2.6293 -0.461987,0.004 z m 18.520837,0 0.46198,0.004 z m -18.520837,2.61276 -0.461987,0.004 z m 18.520837,0 0.46198,0.004 z m -18.520837,2.612763 -0.461987,0.004 z m 18.520837,0 0.46198,0.004 z m -18.520837,2.65462 -0.461987,0.004 z m 18.520837,0 0.46198,0.004 z m -18.520837,2.66598 -0.461987,0.004 z m 18.520837,0 0.46198,0.004 z m -18.520837,2.57246 -0.461987,0.004 z m 18.520837,0 0.46198,0.004 z m -18.520837,2.63084 -0.461987,0.004 z m 18.520837,0 0.46198,0.004 z m -18.520837,2.61948 -0.461987,0.004 z m 18.520837,0 0.46198,0.004 z m -18.520837,2.57246 -0.461987,0.004 z m 18.520837,0 0.46198,0.004 z m -18.520837,2.63084 -0.461987,0.004 z m 18.520837,0 0.46198,0.004 z m -18.520837,2.63085 -0.461987,0.004 z m 18.520837,0 0.46198,0.004 z m -18.520837,2.63085 -0.461987,0.004 z m 18.520837,0 0.46198,0.004 z m -18.520837,2.67787 -0.461987,0.004 z m 18.520837,0 0.46198,0.004 z m -18.520837,2.53731 -0.461987,0.004 z m 18.520837,0 0.46198,0.004 z m -18.520837,2.6541 -0.461987,0.004 z m 18.520837,0 0.46198,0.004 z m -18.520837,2.59623 -0.461987,0.004 z m 18.520837,0 0.46198,0.004 z m -18.520837,2.64635 -0.461987,0.004 z m 18.520837,0 0.46198,0.004 z"
         inkscape:label="Окна" /><path
         id="path4"
         style="fill:url(#radialGradient5);fill-opacity:1;stroke:none;stroke-width:0.465;stroke-linecap:round;stroke-linejoin:round;stroke-dasharray:none;stroke-opacity:0.544118;paint-order:markers fill stroke"
         d="m 104.32955,25.775171 c 0,0 -1.35592,0.432335 -2.72645,1.361157 -1.24769,0.845572 -2.153874,1.878956 -2.153874,1.878956 l 1.882574,2.35076 c 0,0 0.84097,-0.777139 1.70739,-1.169437 0.60001,-0.271677 1.29863,-0.315226 1.29863,-0.315226 z m 0.3607,0 -0.008,4.10621 c 0,0 0.69862,0.04355 1.29863,0.315226 0.86642,0.392298 1.70739,1.169437 1.70739,1.169437 l 1.88257,-2.35076 c 0,0 -0.90618,-1.033384 -2.15387,-1.878956 -1.37053,-0.928822 -2.72645,-1.361157 -2.72645,-1.361157 z m -5.421894,3.428215 c 0,0 -2.098818,2.114511 -2.711975,4.402832 -0.363957,1.358306 -0.0759,2.094784 0.316257,2.174544 0.2547,0.0518 0.955417,0.197576 1.199924,-0.375171 0.624237,-1.462208 3.047878,-3.804419 3.047878,-3.804419 z m 10.483084,0 -1.85208,2.397786 c 0,0 2.42364,2.342211 3.04787,3.804419 0.24451,0.572747 0.94523,0.426971 1.19993,0.375171 0.39213,-0.07976 0.68022,-0.816238 0.31626,-2.174544 -0.61315,-2.288321 -2.71198,-4.402832 -2.71198,-4.402832 z"
         inkscape:label="Стекла" /></g></g></svg>
