<?xml version="1.0" encoding="UTF-8" standalone="no"?>
<!-- Created with Inkscape (http://www.inkscape.org/) -->

<svg
   width="210mm"
   height="210mm"
   viewBox="0 0 210 210"
   version="1.1"
   id="svg1"
   xml:space="preserve"
   xmlns:xlink="http://www.w3.org/1999/xlink"
   xmlns="http://www.w3.org/2000/svg"
   xmlns:svg="http://www.w3.org/2000/svg"><defs
     id="defs1"><linearGradient
       id="linearGradient56"><stop
         style="stop-color:#d9d9d9;stop-opacity:0.37254903;"
         offset="0"
         id="stop57" /><stop
         style="stop-color:#1f1f1f;stop-opacity:0;"
         offset="1"
         id="stop58" /></linearGradient><linearGradient
       id="linearGradient54"><stop
         style="stop-color:#000000;stop-opacity:0.89999998;"
         offset="0"
         id="stop55" /><stop
         style="stop-color:#000000;stop-opacity:0;"
         offset="1"
         id="stop56" /></linearGradient><linearGradient
       id="linearGradient52"><stop
         style="stop-color:#ffffff;stop-opacity:1;"
         offset="0"
         id="stop53" /><stop
         style="stop-color:#ffffff;stop-opacity:0;"
         offset="1"
         id="stop54" /></linearGradient><linearGradient
       id="linearGradient46"><stop
         style="stop-color:#000000;stop-opacity:0.89506173;"
         offset="0"
         id="stop47" /><stop
         style="stop-color:#000000;stop-opacity:0;"
         offset="1"
         id="stop48" /></linearGradient><linearGradient
       id="linearGradient44"><stop
         style="stop-color:#ffffff;stop-opacity:1;"
         offset="0"
         id="stop45" /><stop
         style="stop-color:#ffffff;stop-opacity:0;"
         offset="1"
         id="stop46" /></linearGradient><linearGradient
       id="linearGradient42"><stop
         style="stop-color:#595959;stop-opacity:0.553922;"
         offset="0"
         id="stop43" /><stop
         style="stop-color:#5c5c5c;stop-opacity:0;"
         offset="1"
         id="stop44" /></linearGradient><linearGradient
       id="linearGradient40"><stop
         style="stop-color:#595959;stop-opacity:0.553922;"
         offset="0"
         id="stop41" /><stop
         style="stop-color:#5b5b5b;stop-opacity:0;"
         offset="1"
         id="stop42" /></linearGradient><linearGradient
       id="linearGradient38"><stop
         style="stop-color:#7a7a7a;stop-opacity:1;"
         offset="0"
         id="stop39" /><stop
         style="stop-color:#b8b8b8;stop-opacity:0;"
         offset="1"
         id="stop40" /></linearGradient><linearGradient
       id="linearGradient29"><stop
         style="stop-color:#ffffff;stop-opacity:0.63991767;"
         offset="0"
         id="stop30" /><stop
         style="stop-color:#222222;stop-opacity:0;"
         offset="1"
         id="stop31" /></linearGradient><linearGradient
       id="linearGradient28"><stop
         style="stop-color:#969696;stop-opacity:1;"
         offset="0"
         id="stop28" /><stop
         style="stop-color:#f2f2f2;stop-opacity:0;"
         offset="1"
         id="stop29" /></linearGradient><radialGradient
       xlink:href="#linearGradient28"
       id="radialGradient29"
       cx="104.50988"
       cy="137.77242"
       fx="104.50988"
       fy="137.77242"
       r="101.94082"
       gradientTransform="matrix(1,0,0,0.32243813,0,93.742477)"
       gradientUnits="userSpaceOnUse" /><radialGradient
       xlink:href="#linearGradient29"
       id="radialGradient33"
       cx="104.50654"
       cy="142.27098"
       fx="104.50654"
       fy="142.27098"
       r="10.853829"
       gradientTransform="matrix(1.4136905,0,0,24.613674,-43.234744,-3362.2253)"
       gradientUnits="userSpaceOnUse" /><radialGradient
       xlink:href="#linearGradient38"
       id="radialGradient40"
       cx="104.5099"
       cy="227.00343"
       fx="104.5099"
       fy="227.00343"
       r="36.856731"
       gradientTransform="matrix(0.68054819,0,0,1.0776881,33.385878,-18.279141)"
       gradientUnits="userSpaceOnUse" /><radialGradient
       xlink:href="#linearGradient40"
       id="radialGradient42"
       cx="56.475624"
       cy="141.29579"
       fx="56.475624"
       fy="141.29579"
       r="7.4910326"
       gradientTransform="matrix(0.77976945,0,0,4.345947,12.437658,-472.76822)"
       gradientUnits="userSpaceOnUse" /><radialGradient
       xlink:href="#linearGradient42"
       id="radialGradient44"
       cx="152.54417"
       cy="141.29579"
       fx="152.54417"
       fy="141.29579"
       r="7.4910135"
       gradientTransform="matrix(0.77924926,0,0,4.6581495,33.67424,-516.88111)"
       gradientUnits="userSpaceOnUse" /><radialGradient
       xlink:href="#linearGradient44"
       id="radialGradient46"
       cx="56.439896"
       cy="117.34173"
       fx="56.439896"
       fy="117.34173"
       r="7.3785658"
       gradientTransform="matrix(1,0,0,0.18133418,0,104.35007)"
       gradientUnits="userSpaceOnUse" /><radialGradient
       xlink:href="#linearGradient46"
       id="radialGradient48"
       cx="56.389286"
       cy="112.13846"
       fx="56.389286"
       fy="112.13846"
       r="7.3785658"
       gradientTransform="matrix(1,0,0,0.20834804,0.04677217,101.58066)"
       gradientUnits="userSpaceOnUse" /><radialGradient
       xlink:href="#linearGradient52"
       id="radialGradient54"
       cx="152.54239"
       cy="116.72437"
       fx="152.54239"
       fy="116.72437"
       r="7.3785648"
       gradientTransform="matrix(1,0,0,0.22615712,0,99.418913)"
       gradientUnits="userSpaceOnUse" /><radialGradient
       xlink:href="#linearGradient54"
       id="radialGradient56"
       cx="152.54239"
       cy="108.47849"
       fx="152.54239"
       fy="108.47849"
       r="7.3785648"
       gradientTransform="matrix(1,0,0,0.1813342,0,105.44966)"
       gradientUnits="userSpaceOnUse" /><radialGradient
       xlink:href="#linearGradient56"
       id="radialGradient58"
       cx="104.50308"
       cy="220.00203"
       fx="104.50308"
       fy="220.00203"
       r="1.1249696"
       gradientTransform="matrix(1,0,0,21.46111,0,-4502.816)"
       gradientUnits="userSpaceOnUse" /></defs><g
     id="layer1"><g
       id="g1"
       transform="translate(0.49011961,-41.77623)"><path
         id="path131"
         style="fill:#808080;fill-opacity:1;stroke:none;stroke-width:0.769244;stroke-linecap:square;stroke-opacity:0.544118;paint-order:markers fill stroke"
         d="m 135.36225,144.02997 2.62465,0.78186 -1.27434,4.08813 z m 25.41394,8.62239 2.33695,0.75622 -1.10084,3.64282 z m 16.37369,5.7726 2.38487,0.74982 -1.15755,3.92431 z" /><path
         id="path5"
         style="fill:#808080;fill-opacity:1;stroke:none;stroke-width:0.769244;stroke-linecap:square;stroke-opacity:0.544118;paint-order:markers fill stroke"
         d="m 73.65752,144.02997 -2.624646,0.78186 1.27434,4.08813 z m -25.413943,8.62239 -2.33695,0.75622 1.10084,3.64282 z m -16.373688,5.7726 -2.384867,0.74982 1.157552,3.92431 z" /><path
         id="path1"
         style="fill:#b5b5b5;fill-opacity:1;stroke:none;stroke-width:0.750001;stroke-linecap:square;stroke-opacity:0.544118;paint-order:markers fill stroke"
         d="m 51.671265,125.43265 c -0.551351,0.001 -0.923826,0.005 -0.937411,0.0129 -1.314969,0.73495 -1.637109,2.66134 -1.637109,2.66134 l 7.203694,0.001 h 0.286288 l 7.266545,-0.001 c 0,0 -0.31161,-1.92639 -1.626579,-2.66134 -0.05299,-0.0296 -5.50951,-0.002 -5.78311,-5.1e-4 -0.20346,-0.001 -3.172961,-0.0165 -4.772318,-0.0124 z" /><path
         id="path127"
         style="display:inline;fill:#b4b4b4;fill-opacity:1;stroke:none;stroke-width:0.750001;stroke-linecap:square;stroke-opacity:0.544118;paint-order:markers fill stroke"
         d="m 157.34851,125.43265 c 0.55135,0.001 0.92382,0.005 0.93741,0.0129 1.31497,0.73495 1.63711,2.66134 1.63711,2.66134 l -7.2037,0.001 h -0.28629 l -7.26654,-0.001 c 0,0 0.31161,-1.92639 1.62658,-2.66134 0.053,-0.0296 5.50951,-0.002 5.78311,-5.1e-4 0.20346,-0.001 3.17296,-0.0165 4.77232,-0.0124 z" /><path
         id="path2"
         style="fill:url(#radialGradient46);stroke:none;stroke-width:0.750001;stroke-linecap:square;stroke-opacity:0.544118;paint-order:markers fill stroke"
         d="m 51.673332,125.42592 c -0.551351,10e-4 -0.923826,0.005 -0.937411,0.0129 -1.314969,0.73495 -1.637109,2.66134 -1.637109,2.66134 l 7.203694,0.001 h 0.286288 l 7.26715,-0.001 c 0,0 -0.307048,-1.92639 -1.622017,-2.66134 -0.05299,-0.0296 -5.514677,-0.002 -5.788277,-5.1e-4 -0.20346,-0.001 -3.172961,-0.0165 -4.772318,-0.0124 z" /><path
         id="path128"
         style="fill:url(#radialGradient54);stroke:none;stroke-width:0.750001;stroke-linecap:square;stroke-opacity:0.544118;paint-order:markers fill stroke"
         d="m 157.34644,125.43882 c 0.55135,10e-4 0.92382,0.005 0.93741,0.0129 1.31497,0.73495 1.63711,2.66134 1.63711,2.66134 l -7.2037,0.001 h -0.28628 l -7.26715,-0.001 c 0,0 0.30704,-1.92639 1.62201,-2.66134 0.053,-0.0296 5.51468,-0.002 5.78828,-5.1e-4 0.20346,-0.001 3.17296,-0.0165 4.77232,-0.0124 z" /><path
         id="path339"
         style="fill:url(#radialGradient56);stroke:none;stroke-width:0.750001;stroke-linecap:square;stroke-opacity:0.544118;paint-order:markers fill stroke"
         d="m 157.34644,125.46999 c 0.55135,0.001 0.92382,0.005 0.93741,0.0129 1.31497,0.73495 1.63711,2.66134 1.63711,2.66134 l -7.2037,0.001 h -0.28628 l -7.26715,-0.001 c 0,0 0.30704,-1.92639 1.62201,-2.66134 0.053,-0.0296 5.51468,-0.002 5.78828,-5.1e-4 0.20346,-0.001 3.17296,-0.0165 4.77232,-0.0124 z" /><path
         id="path340"
         style="fill:url(#radialGradient48);stroke:none;stroke-width:0.750001;stroke-linecap:square;stroke-opacity:0.544118;paint-order:markers fill stroke"
         d="m 51.720104,125.40801 c -0.551351,10e-4 -0.923826,0.005 -0.937411,0.0129 -1.314969,0.73495 -1.637109,2.66134 -1.637109,2.66134 l 7.203694,0.001 h 0.286288 l 7.26715,-0.001 c 0,0 -0.307048,-1.92639 -1.622017,-2.66134 -0.05299,-0.0296 -5.514677,-0.002 -5.788277,-5.1e-4 -0.20346,-0.001 -3.172961,-0.0165 -4.772318,-0.0124 z" /><path
         id="path3"
         style="fill:#e8e8e8;fill-opacity:1;stroke:none;stroke-width:0.750001;stroke-linecap:square;stroke-opacity:0.544118;paint-order:markers fill stroke"
         d="m 56.438932,128.10402 -7.342704,0.002 c 0,0 -0.488827,4.46592 0.579293,8.4522 0.160756,0.59996 6.736246,17.93017 6.800102,17.93017 0.06386,0 6.639345,-17.33021 6.800101,-17.93017 1.06812,-3.98628 0.579293,-8.4522 0.579293,-8.4522 l -7.342704,-0.002 z m 96.068558,0 -7.34271,0.002 c 0,0 -0.48883,4.46592 0.5793,8.4522 0.16075,0.59996 6.7363,17.93017 6.8001,17.93017 0.0638,0 6.63934,-17.33021 6.8001,-17.93017 1.06812,-3.98628 0.57929,-8.4522 0.57929,-8.4522 l -7.3427,-0.002 z" /><path
         id="path130"
         style="fill:url(#radialGradient44);fill-opacity:0.553922;stroke:none;stroke-width:0.750001;stroke-linecap:square;stroke-opacity:0.544118;paint-order:markers fill stroke"
         d="m 152.58084,128.10381 7.3427,0.002 c 0,0 0.48883,4.46591 -0.57929,8.45219 -0.16076,0.59996 -6.73625,17.92977 -6.80006,17.92977 -0.0638,0 -6.63935,-17.32981 -6.8001,-17.92977 -1.06813,-3.98628 -0.5793,-8.45219 -0.5793,-8.45219 l 7.34271,-0.002 z" /><path
         id="path4"
         style="fill:url(#radialGradient42);fill-opacity:0.553922;stroke:none;stroke-width:0.750001;stroke-linecap:square;stroke-opacity:0.544118;paint-order:markers fill stroke"
         d="m 56.438932,128.10381 -7.342704,0.002 c 0,0 -0.488828,4.46591 0.579293,8.45219 0.160756,0.59996 6.736246,17.92977 6.800102,17.92977 0.06386,0 6.639345,-17.32981 6.800101,-17.92977 1.068121,-3.98628 0.579293,-8.45219 0.579293,-8.45219 l -7.342704,-0.002 z" /><path
         id="path7"
         style="fill:#dddddd;fill-opacity:1;stroke:none;stroke-width:0.750001;stroke-linecap:square;stroke-opacity:0.544118;paint-order:markers fill stroke"
         d="m 99.063204,210.38126 c 0,0 -28.928681,17.73817 -30.999142,23.14639 -1.393882,3.64095 1.205612,7.87497 1.205612,7.87497 l 33.487876,-11.06651 z m 10.892876,0 -3.69383,19.95485 33.48788,11.06651 c 0,0 2.59949,-4.23402 1.20561,-7.87497 -2.07046,-5.40822 -30.99966,-23.14639 -30.99966,-23.14639 z" /><path
         id="path8"
         style="fill:url(#radialGradient40);fill-opacity:1;stroke:none;stroke-width:0.750001;stroke-linecap:square;stroke-opacity:0.544118;paint-order:markers fill stroke"
         d="m 99.063204,210.38135 c 0,0 -28.928681,17.73816 -30.999142,23.14639 -1.393882,3.64094 1.205612,7.87497 1.205612,7.87497 L 102.75755,230.3362 Z m 10.892876,0 -3.69383,19.95485 33.48788,11.06651 c 0,0 2.59949,-4.23403 1.20561,-7.87497 -2.07046,-5.40823 -30.99966,-23.14639 -30.99966,-23.14639 z" /><path
         id="path9"
         style="fill:#dddddd;fill-opacity:1;stroke:none;stroke-width:0.750001;stroke-linecap:square;stroke-opacity:0.544118;paint-order:markers fill stroke"
         d="m 93.859904,105.48304 c 0,0 -0.02911,1.36749 -2.128552,5.00385 -1.242717,2.15247 -4.352242,4.51881 -5.327324,5.1315 -16.808588,10.56166 -53.179936,29.67281 -77.0495602,43.45393 -0.5591652,0.32283 -3.785317,3.67674 -5.4957886,6.58876 -1.2010711,2.04478 -1.8469587,5.22488 -0.6604248,5.54281 0.6365133,0.17055 0.9719983,-0.84924 2.1688599,-1.83038 1.3678931,-1.12134 1.9400323,-1.60007 4.7056557,-2.6665 20.544136,-7.92191 39.80223,-14.6008 60.816443,-21.74244 4.629762,-1.57341 9.333874,-1.53078 14.446663,-1.32706 3.450797,0.1375 5.1031,0.94978 7.235218,2.18076 1.06188,0.61308 1.25367,1.76269 1.25367,1.76269 z m 21.299996,0 0.0351,42.09792 c 0,0 0.19179,-1.14961 1.25367,-1.76269 2.13211,-1.23098 3.78442,-2.04326 7.23521,-2.18076 5.11279,-0.20372 9.8169,-0.24635 14.44667,1.32706 21.01421,7.14164 40.2723,13.82053 60.81644,21.74244 2.76562,1.06643 3.33777,1.54516 4.70566,2.6665 1.19686,0.98114 1.53235,2.00093 2.16886,1.83038 1.18653,-0.31793 0.54064,-3.49803 -0.66043,-5.54281 -1.71048,-2.91202 -4.93662,-6.26593 -5.49579,-6.58876 -23.86962,-13.78112 -60.24097,-32.89227 -77.04956,-43.45393 -0.97508,-0.61269 -4.0846,-2.97903 -5.32732,-5.1315 -2.09942,-3.63636 -2.12855,-5.00385 -2.12855,-5.00385 z" /><path
         id="path10"
         style="fill:url(#radialGradient29);fill-opacity:1;stroke:none;stroke-width:0.750001;stroke-linecap:square;stroke-opacity:0.544118;paint-order:markers fill stroke"
         d="m 93.859904,105.48304 c 0,0 -0.02911,1.36749 -2.128552,5.00386 -1.242717,2.15247 -4.352242,4.51881 -5.327324,5.1315 -16.808588,10.56166 -53.179936,29.67281 -77.0495602,43.45392 -0.5591652,0.32283 -3.785317,3.67677 -5.4957886,6.58879 -1.2010711,2.04478 -1.8469587,5.2244 -0.6604248,5.54233 0.6365133,0.17054 0.9719983,-0.84874 2.1688599,-1.82988 1.3678931,-1.12135 1.9400323,-1.60009 4.7056557,-2.66652 20.544136,-7.92191 39.80223,-14.60082 60.816443,-21.74246 4.629762,-1.57341 9.333874,-1.53078 14.446663,-1.32706 3.450797,0.1375 5.1031,0.94978 7.235218,2.18076 1.06188,0.61308 1.25367,1.76269 1.25367,1.76269 z m 21.299996,0 0.0351,42.09793 c 0,0 0.19179,-1.14961 1.25367,-1.76269 2.13211,-1.23098 3.78442,-2.04326 7.23521,-2.18076 5.11279,-0.20372 9.8169,-0.24635 14.44667,1.32706 21.01421,7.14164 40.2723,13.82055 60.81644,21.74246 2.76562,1.06643 3.33777,1.54517 4.70566,2.66652 1.19686,0.98114 1.53235,2.00042 2.16886,1.82988 1.18653,-0.31793 0.54064,-3.49755 -0.66043,-5.54233 -1.71048,-2.91202 -4.93662,-6.26596 -5.49579,-6.58879 -23.86962,-13.78111 -60.24097,-32.89226 -77.04956,-43.45392 -0.97508,-0.61269 -4.0846,-2.97903 -5.32732,-5.1315 -2.09942,-3.63637 -2.12855,-5.00386 -2.12855,-5.00386 z" /><path
         style="fill:none;fill-rule:evenodd;stroke:#737373;stroke-width:0.465;stroke-linecap:round;stroke-linejoin:round;stroke-dasharray:none;stroke-opacity:1"
         d="M 93.937336,120.50358 8.6940428,164.20629"
         id="path13" /><path
         style="fill:none;fill-rule:evenodd;stroke:#737373;stroke-width:0.465;stroke-linecap:round;stroke-linejoin:miter;stroke-dasharray:none;stroke-opacity:1"
         d="M 8.7580882,164.14692 93.960155,128.75286"
         id="path14" /><path
         style="fill:none;fill-rule:evenodd;stroke:#737373;stroke-width:0.465;stroke-linecap:butt;stroke-linejoin:miter;stroke-dasharray:none;stroke-opacity:1"
         d="M 8.7463952,164.14692 93.728645,136.83919"
         id="path15" /><path
         style="fill:none;fill-rule:evenodd;stroke:#737373;stroke-width:0.465;stroke-linecap:butt;stroke-linejoin:miter;stroke-dasharray:none;stroke-opacity:1"
         d="m 26.607161,157.65033 0.918936,2.49869"
         id="path16" /><path
         style="fill:none;fill-rule:evenodd;stroke:#737373;stroke-width:0.465;stroke-linecap:butt;stroke-linejoin:miter;stroke-dasharray:none;stroke-opacity:1"
         d="m 44.973151,150.57336 1.037742,2.9569"
         id="path17" /><path
         style="fill:none;fill-rule:evenodd;stroke:#737373;stroke-width:0.465;stroke-linecap:butt;stroke-linejoin:miter;stroke-dasharray:none;stroke-opacity:1"
         d="m 67.741601,142.56907 1.067992,3.10176"
         id="path18" /><path
         style="fill:none;fill-rule:evenodd;stroke:#737373;stroke-width:0.465;stroke-linecap:butt;stroke-linejoin:miter;stroke-dasharray:none;stroke-opacity:1"
         d="m 93.423979,120.67528 0.103227,16.39056"
         id="path19" /><path
         style="fill:none;fill-rule:evenodd;stroke:#737373;stroke-width:0.465;stroke-linecap:round;stroke-linejoin:round;stroke-dasharray:none;stroke-opacity:1"
         d="m 115.08243,120.50358 85.2433,43.70271"
         id="path138" /><path
         style="fill:none;fill-rule:evenodd;stroke:#737373;stroke-width:0.465;stroke-linecap:round;stroke-linejoin:miter;stroke-dasharray:none;stroke-opacity:1"
         d="M 200.26168,164.14692 115.05962,128.75286"
         id="path139" /><path
         style="fill:none;fill-rule:evenodd;stroke:#737373;stroke-width:0.465;stroke-linecap:butt;stroke-linejoin:miter;stroke-dasharray:none;stroke-opacity:1"
         d="M 200.27338,164.14692 115.29113,136.83919"
         id="path140" /><path
         style="fill:none;fill-rule:evenodd;stroke:#737373;stroke-width:0.465;stroke-linecap:butt;stroke-linejoin:miter;stroke-dasharray:none;stroke-opacity:1"
         d="m 182.41261,157.65033 -0.91894,2.49869"
         id="path141" /><path
         style="fill:none;fill-rule:evenodd;stroke:#737373;stroke-width:0.465;stroke-linecap:butt;stroke-linejoin:miter;stroke-dasharray:none;stroke-opacity:1"
         d="m 164.04662,150.57336 -1.03774,2.9569"
         id="path142" /><path
         style="fill:none;fill-rule:evenodd;stroke:#737373;stroke-width:0.465;stroke-linecap:butt;stroke-linejoin:miter;stroke-dasharray:none;stroke-opacity:1"
         d="m 141.27817,142.56907 -1.06799,3.10176"
         id="path143" /><path
         style="display:inline;fill:none;fill-rule:evenodd;stroke:#737373;stroke-width:0.465;stroke-linecap:butt;stroke-linejoin:miter;stroke-dasharray:none;stroke-opacity:1"
         d="m 115.58711,120.62129 -0.10323,16.44455"
         id="path144" /><path
         style="display:inline;fill:#000000;fill-opacity:0;fill-rule:evenodd;stroke:#737373;stroke-width:0.465;stroke-linecap:round;stroke-linejoin:miter;stroke-dasharray:none;stroke-opacity:1"
         d="M 137.58537,236.73283 106.88105,225.89787"
         id="path146" /><path
         style="display:inline;fill:#000000;fill-opacity:0;fill-rule:evenodd;stroke:#737373;stroke-width:0.465;stroke-linecap:butt;stroke-linejoin:miter;stroke-dasharray:none;stroke-opacity:1"
         d="m 71.432792,236.72563 1.194371,3.56729"
         id="path21" /><path
         style="display:inline;fill:#000000;fill-opacity:0;fill-rule:evenodd;stroke:#737373;stroke-width:0.465;stroke-linecap:round;stroke-linejoin:miter;stroke-dasharray:none;stroke-opacity:1"
         d="M 71.434399,236.73283 102.13872,225.89787"
         id="path22" /><path
         style="display:inline;fill:#000000;fill-opacity:0;fill-rule:evenodd;stroke:#737373;stroke-width:0.465;stroke-linecap:butt;stroke-linejoin:miter;stroke-dasharray:none;stroke-opacity:1"
         d="m 137.58698,236.72563 -1.19437,3.56729"
         id="path145" /><path
         id="path189"
         style="fill:#e8e8e8;fill-opacity:1;stroke:none;stroke-width:0.465;stroke-linecap:round;stroke-linejoin:round;stroke-dasharray:none;stroke-opacity:0.544118;paint-order:markers fill stroke"
         d="m 103.77609,49.463131 c -5.459848,3.645728 -8.035681,13.446724 -8.035681,13.446724 0,0 -1.869576,6.296683 -1.903243,11.359513 -0.22346,33.603742 -0.235578,66.967702 -0.06149,100.402662 0.01178,2.26282 0.713946,11.38069 1.444357,17.05735 1.082468,8.41277 7.781377,41.98173 8.496647,43.22062 0.26367,0.4567 0.55808,0.52691 0.71882,0.54622 v 0.0295 c 0,0 0.06,-0.0146 0.0744,-0.015 0.0144,3.4e-4 0.0744,0.015 0.0744,0.015 v -0.0295 c 0.16074,-0.0193 0.45515,-0.0895 0.71882,-0.54622 0.71527,-1.23889 7.41418,-34.80785 8.49664,-43.22062 0.73041,-5.67666 1.43256,-14.79453 1.44436,-17.05735 0.17408,-33.43496 0.16196,-66.79892 -0.0615,-100.402662 -0.0337,-5.06283 -1.90324,-11.359513 -1.90324,-11.359513 0,0 -2.57635,-9.800996 -8.0362,-13.446724 -0.17312,-0.115596 -0.56652,-0.120812 -0.73329,-0.120812 -0.16677,0 -0.56069,0.0052 -0.73381,0.120812 z" /><path
         id="path190"
         style="fill:url(#radialGradient33);fill-opacity:0.372549;stroke:none;stroke-width:0.465;stroke-linecap:round;stroke-linejoin:round;stroke-dasharray:none;stroke-opacity:0.544118;paint-order:markers fill stroke"
         d="m 103.77609,49.46313 c -5.459848,3.645729 -8.035683,13.446725 -8.035683,13.446725 0,0 -1.869574,6.296682 -1.903241,11.359513 -0.22346,33.603742 -0.235578,66.967192 -0.06149,100.402152 0.01178,2.26282 0.713946,11.3812 1.444354,17.05787 1.082471,8.41277 7.78137,41.98173 8.49664,43.22062 0.26367,0.4567 0.55808,0.5269 0.71882,0.54622 v 0.0294 c 0,0 0.06,-0.0146 0.0744,-0.015 0.0144,3.4e-4 0.0744,0.015 0.0744,0.015 v -0.0294 c 0.16074,-0.0193 0.45515,-0.0895 0.71882,-0.54622 0.71527,-1.23889 7.41418,-34.80785 8.49664,-43.22062 0.73041,-5.67667 1.43256,-14.79505 1.44436,-17.05787 0.17408,-33.43496 0.16196,-66.79841 -0.0615,-100.402152 -0.0337,-5.062831 -1.90324,-11.359513 -1.90324,-11.359513 0,0 -2.57635,-9.800996 -8.0362,-13.446725 -0.17312,-0.115595 -0.56652,-0.120811 -0.73328,-0.120811 -0.16676,0 -0.56068,0.0052 -0.7338,0.120811 z" /><path
         id="path338"
         style="display:inline;fill:#1a1a1a;stroke-width:0.0812461"
         d="m 93.821147,76.141496 c -5.29e-4,0.05969 -3.3e-4,0.09543 -10e-4,0.156063 l 2.242241,0.02635 c 0.494174,0.0057 0.706524,0.212665 0.705383,0.555522 l -0.01189,3.535701 c -0.0014,0.410459 -0.162128,0.601975 -0.668693,0.605648 l -2.295984,0.01654 c -4.77e-4,0.0733 0.0012,0.110105 5.17e-4,0.183968 h 2.409672 c 0.419025,0 0.756543,-0.279828 0.756543,-0.627868 v -3.824056 c 0,-0.34804 -0.337518,-0.627857 -0.756543,-0.627869 z m 18.997293,0 c -0.41902,1.2e-5 -0.75655,0.279829 -0.75655,0.627869 v 3.824056 c 0,0.34804 0.33753,0.627868 0.75655,0.627868 h 2.40967 c -4.3e-4,-0.07386 0.001,-0.110668 5.2e-4,-0.183968 l -2.29599,-0.01654 c -0.50657,-0.0037 -0.66769,-0.195189 -0.66869,-0.605648 l -0.0119,-3.535701 c -10e-4,-0.342857 0.21121,-0.549822 0.70539,-0.555522 l 2.24224,-0.02635 c -7.1e-4,-0.06064 -5.2e-4,-0.09637 -0.001,-0.156063 z" /><path
         id="path195"
         style="fill:#4d4d4d;fill-opacity:1;stroke:none;stroke-width:0.465;stroke-linecap:round;stroke-linejoin:round;stroke-dasharray:none;stroke-opacity:0.544118;paint-order:markers fill stroke"
         d="m 104.32955,60.171004 c 0,0 -1.35592,0.432335 -2.72645,1.361157 -1.24769,0.845572 -2.153874,1.878956 -2.153874,1.878956 l 1.882574,2.35076 c 0,0 0.84097,-0.777139 1.70739,-1.169437 0.60001,-0.271677 1.29863,-0.315226 1.29863,-0.315226 z m 0.3607,0 -0.008,4.10621 c 0,0 0.69862,0.04355 1.29863,0.315226 0.86642,0.392298 1.70739,1.169437 1.70739,1.169437 l 1.88257,-2.35076 c 0,0 -0.90618,-1.033384 -2.15387,-1.878956 -1.37053,-0.928822 -2.72645,-1.361157 -2.72645,-1.361157 z m -5.421894,3.428215 c 0,0 -2.098818,2.114511 -2.711975,4.402832 -0.363957,1.358306 -0.0759,2.094784 0.316257,2.174544 0.2547,0.0518 0.955417,0.197576 1.199924,-0.375171 0.624237,-1.462208 3.047878,-3.804419 3.047878,-3.804419 z m 10.483084,0 -1.85208,2.397786 c 0,0 2.42364,2.342211 3.04787,3.804419 0.24451,0.572747 0.94523,0.426971 1.19993,0.375171 0.39213,-0.07976 0.68022,-0.816238 0.31626,-2.174544 -0.61315,-2.288321 -2.71198,-4.402832 -2.71198,-4.402832 z" /><path
         id="path191"
         style="fill:#808080;fill-opacity:1;stroke:none;stroke-width:0.465;stroke-linecap:round;stroke-linejoin:round;stroke-dasharray:none;stroke-opacity:0.544118;paint-order:markers fill stroke"
         d="m 104.27839,196.05935 c -0.6355,2.37868 -0.79103,12.66086 -0.85938,18.91461 -0.056,5.12491 -0.0561,9.72575 0.0992,14.71745 0.14956,4.80463 0.45092,14.24981 0.85989,14.48593 0.01,0.006 0.0194,0.0318 0.13178,0.0318 0.1124,0 0.12175,-0.0258 0.13177,-0.0318 0.40898,-0.23612 0.71034,-9.6813 0.8599,-14.48593 0.1553,-4.9917 0.15522,-9.59254 0.0992,-14.71745 -0.0684,-6.25375 -0.22388,-16.53593 -0.85938,-18.91461 0,0 -0.0274,-0.13539 -0.23149,-0.13539 -0.19895,0 -0.23149,0.13539 -0.23149,0.13539 z" /><path
         id="path192"
         style="fill:url(#radialGradient58);fill-opacity:0.372549;stroke:none;stroke-width:0.465;stroke-linecap:round;stroke-linejoin:round;stroke-dasharray:none;stroke-opacity:0.544118;paint-order:markers fill stroke"
         d="m 104.27839,196.05935 c -0.6355,2.37868 -0.79103,12.66086 -0.85938,18.9146 -0.056,5.12492 -0.0561,9.72576 0.0992,14.71745 0.14956,4.80464 0.45092,14.24982 0.85989,14.48594 0.01,0.006 0.0194,0.0328 0.13175,0.0328 0.11235,2e-4 0.12165,-0.0278 0.13165,-0.0328 0.40898,-0.23612 0.71034,-9.6813 0.8599,-14.48594 0.1553,-4.99169 0.15522,-9.59253 0.0992,-14.71745 -0.0684,-6.25374 -0.22388,-16.53592 -0.85938,-18.9146 0,0 -0.0357,-0.1354 -0.23151,-0.1354 -0.19603,0 -0.23132,0.1354 -0.23132,0.1354 z" /><path
         id="path266"
         style="display:inline;fill:none;fill-rule:evenodd;stroke:#000000;stroke-width:1.168;stroke-linecap:round;stroke-linejoin:round;stroke-dasharray:none;stroke-opacity:1"
         d="m 95.249483,84.241886 -0.461987,0.0041 z m 18.520837,0 0.46198,0.0041 z m -18.520837,2.66237 -0.461987,0.0041 z m 18.520837,0 0.46198,0.0041 z m -18.520837,2.695443 -0.461987,0.0041 z m 18.520837,0 0.46198,0.0041 z m -18.520837,2.563151 -0.461987,0.0041 z m 18.520837,0 0.46198,0.0041 z m -18.520837,2.629297 -0.461987,0.0041 z m 18.520837,0 0.46198,0.0041 z m -18.520837,2.645833 -0.461987,0.0041 z m 18.520837,0 0.46198,0.0041 z m -18.520837,2.6293 -0.461987,0.004 z m 18.520837,0 0.46198,0.004 z m -18.520837,2.62929 -0.461987,0.004 z m 18.520837,0 0.46198,0.004 z m -18.520837,2.59623 -0.461987,0.004 z m 18.520837,0 0.46198,0.004 z m -18.520837,2.59622 -0.461987,0.004 z m 18.520837,0 0.46198,0.004 z m -18.520837,2.59623 -0.461987,0.004 z m 18.520837,0 0.46198,0.004 z m -18.520837,2.6789 -0.461987,0.004 z m 18.520837,0 0.46198,0.004 z m -18.520837,2.56315 -0.461987,0.004 z m 18.520837,0 0.46198,0.004 z m -18.520837,2.66237 -0.461987,0.004 z m 18.520837,0 0.46198,0.004 z m -18.520837,2.59623 -0.461987,0.004 z m 18.520837,0 0.46198,0.004 z m -18.520837,2.61276 -0.461987,0.004 z m 18.520837,0 0.46198,0.004 z m -18.520837,2.62929 -0.461987,0.004 z m 18.520837,0 0.46198,0.004 z m -18.520837,2.57969 -0.461987,0.004 z m 18.520837,0 0.46198,0.004 z m -18.520837,2.6293 -0.461987,0.004 z m 18.520837,0 0.46198,0.004 z m -18.520837,2.61276 -0.461987,0.004 z m 18.520837,0 0.46198,0.004 z m -18.520837,2.61276 -0.461987,0.004 z m 18.520837,0 0.46198,0.004 z m -18.520837,2.65462 -0.461987,0.004 z m 18.520837,0 0.46198,0.004 z m -18.520837,2.66598 -0.461987,0.004 z m 18.520837,0 0.46198,0.004 z m -18.520837,2.57246 -0.461987,0.004 z m 18.520837,0 0.46198,0.004 z m -18.520837,2.63084 -0.461987,0.004 z m 18.520837,0 0.46198,0.004 z m -18.520837,2.61948 -0.461987,0.004 z m 18.520837,0 0.46198,0.004 z m -18.520837,2.57246 -0.461987,0.004 z m 18.520837,0 0.46198,0.004 z m -18.520837,2.63084 -0.461987,0.004 z m 18.520837,0 0.46198,0.004 z m -18.520837,2.63085 -0.461987,0.004 z m 18.520837,0 0.46198,0.004 z m -18.520837,2.63085 -0.461987,0.004 z m 18.520837,0 0.46198,0.004 z m -18.520837,2.67787 -0.461987,0.004 z m 18.520837,0 0.46198,0.004 z m -18.520837,2.53731 -0.461987,0.004 z m 18.520837,0 0.46198,0.004 z m -18.520837,2.6541 -0.461987,0.004 z m 18.520837,0 0.46198,0.004 z m -18.520837,2.59623 -0.461987,0.004 z m 18.520837,0 0.46198,0.004 z m -18.520837,2.64635 -0.461987,0.004 z m 18.520837,0 0.46198,0.004 z" /></g></g></svg>
