<?xml version="1.0" encoding="UTF-8" standalone="no"?>
<!-- Created with Inkscape (http://www.inkscape.org/) -->

<svg
   width="300mm"
   height="300mm"
   viewBox="0 0 300 300"
   version="1.1"
   id="svg1"
   xml:space="preserve"
   inkscape:version="1.3.2 (091e20e, 2023-11-25, custom)"
   sodipodi:docname="Buran.svg"
   xmlns:inkscape="http://www.inkscape.org/namespaces/inkscape"
   xmlns:sodipodi="http://sodipodi.sourceforge.net/DTD/sodipodi-0.dtd"
   xmlns:xlink="http://www.w3.org/1999/xlink"
   xmlns="http://www.w3.org/2000/svg"
   xmlns:svg="http://www.w3.org/2000/svg"><sodipodi:namedview
     id="namedview1"
     pagecolor="#ffffff"
     bordercolor="#000000"
     borderopacity="0.25"
     inkscape:showpageshadow="2"
     inkscape:pageopacity="0.0"
     inkscape:pagecheckerboard="0"
     inkscape:deskcolor="#d1d1d1"
     inkscape:document-units="mm"
     showguides="true"
     inkscape:zoom="0.5"
     inkscape:cx="137"
     inkscape:cy="523"
     inkscape:window-width="3440"
     inkscape:window-height="1417"
     inkscape:window-x="-8"
     inkscape:window-y="-8"
     inkscape:window-maximized="1"
     inkscape:current-layer="layer1"
     showgrid="false" /><defs
     id="defs1"><linearGradient
       id="linearGradient14"
       inkscape:collect="always"><stop
         style="stop-color:#ffffff;stop-opacity:1;"
         offset="0"
         id="stop15" /><stop
         style="stop-color:#b2b2b2;stop-opacity:0.60000002;"
         offset="1"
         id="stop16" /></linearGradient><linearGradient
       id="linearGradient13"
       inkscape:collect="always"><stop
         style="stop-color:#e5e5e5;stop-opacity:1;"
         offset="0"
         id="stop13" /><stop
         style="stop-color:#595959;stop-opacity:0;"
         offset="1"
         id="stop14" /></linearGradient><radialGradient
       inkscape:collect="always"
       xlink:href="#linearGradient13"
       id="radialGradient14"
       cx="105.45816"
       cy="228.67665"
       fx="105.45816"
       fy="228.67665"
       r="91.542221"
       gradientTransform="matrix(0.50611579,0,0,1.7910994,52.08412,-181.51965)"
       gradientUnits="userSpaceOnUse" /><radialGradient
       inkscape:collect="always"
       xlink:href="#linearGradient14"
       id="radialGradient16"
       cx="105.45817"
       cy="128.72778"
       fx="105.45817"
       fy="128.72778"
       r="22.203815"
       gradientTransform="matrix(1.0714969,0,-3.1038427e-8,11.271572,-7.5399273,-1315.1787)"
       gradientUnits="userSpaceOnUse" /></defs><g
     inkscape:label="Слой 1"
     inkscape:groupmode="layer"
     id="layer1"
     style="display:inline"><g
       id="g1"
       transform="translate(44.541826,0.48329215)"><path
         id="path8"
         style="display:inline;fill:#bfbfbf;fill-opacity:1;stroke:none;stroke-width:1;stroke-linecap:square;paint-order:markers fill stroke"
         d="m 81.456527,102.84696 -11.102165,51.53742 -53.867513,54.37188 -0.09612,0.21652 -2.474785,14.12111 69.89961,0.1235 1.216463,-120.36836 z m 48.003273,0 -3.57549,0.002 1.21646,120.36836 69.89961,-0.1235 -2.47479,-14.12111 -0.0961,-0.21652 -53.86752,-54.37188 z m -82.535532,124.57999 0.218591,15.83315 1.141532,0.17673 0.07803,-16.00988 z m 115.629632,0 0.078,16.00988 1.14154,-0.17673 0.21859,-15.83315 z"
         inkscape:label="Крылья" /><path
         id="path3"
         style="display:inline;fill:url(#radialGradient14);fill-opacity:1;stroke:none;stroke-width:1;stroke-linecap:square;paint-order:markers fill stroke"
         d="m 81.456527,102.84696 -11.102165,51.53742 -53.867513,54.37188 -0.09612,0.21652 -2.474785,14.12111 69.89961,0.1235 1.216463,-120.36836 z m 48.003273,0 -3.57549,0.002 1.21646,120.36836 69.89961,-0.1235 -2.47479,-14.12111 -0.0961,-0.21652 -53.86752,-54.37188 z m -82.535532,124.57999 0.218591,15.83315 1.141532,0.17673 0.07803,-16.00988 z m 115.629632,0 0.078,16.00988 1.14154,-0.17673 0.21859,-15.83315 z"
         inkscape:label="Градиент крыльев" /><path
         id="path5"
         style="display:inline;fill:#737373;fill-opacity:1;stroke:none;stroke-width:1;stroke-linecap:square;paint-order:markers fill stroke"
         d="m 9.7038005,225.59968 0.3524335,11.36881 37.095927,6.29367 -0.0072,-16.40933 z m 191.5087195,0 -37.44164,1.25315 -0.007,16.40933 37.09593,-6.29367 z m -152.927612,1.6092 -0.0155,16.22588 34.892444,6.12521 -0.117822,-20.37912 z m 114.346512,0 -34.75912,1.97197 -0.11782,20.37912 34.89244,-6.12521 z"
         inkscape:label="Закрылки" /><path
         id="path7"
         style="display:inline;fill:#737373;fill-opacity:1;stroke:none;stroke-width:1;stroke-linecap:square;paint-order:markers fill stroke"
         d="m 47.105135,223.15228 0.01447,4.39043 1.236618,0.0527 -0.02636,-4.44314 z m 115.481325,0 -0.0264,4.44314 1.2361,-0.0527 0.015,-4.39043 z"
         inkscape:label="Деталька" /><path
         id="path1"
         style="display:inline;fill:#262626;fill-opacity:1;stroke:none;stroke-width:1;stroke-linecap:square;paint-order:markers fill stroke"
         d="m 83.253833,72.731479 c -0.362012,1.351043 -9.188083,43.251741 -14.223421,66.388721 -0.900652,4.13844 -2.318581,9.23323 -3.98632,12.06438 -1.372057,2.3292 -2.676731,4.62991 -4.547526,6.49779 -14.531042,14.5087 -27.798695,27.27728 -42.197941,42.08116 -2.334952,2.40053 -4.418609,5.11915 -5.940206,8.10235 -1.438127,2.81951 -2.6716718,8.62066 -2.6716718,9.56995 0,3.53685 0.01757,8.17987 0.01757,8.17987 l 37.4411258,1.92288 v -4.38578 l -33.229497,-0.0589 2.474785,-14.12111 0.09612,-0.21652 53.867513,-54.37188 11.102165,-51.53742 3.335197,0.002 0.286804,-30.117551 c 0,0 -1.820835,-0.0144 -1.824695,0 z m 42.583967,0 0.2868,30.117551 3.3352,-0.002 11.10216,51.53742 53.86752,54.37188 0.0961,0.21652 2.47479,14.12111 -33.2295,0.0589 v 4.38578 l 37.44113,-1.92288 c 0,0 0.0176,-4.64302 0.0176,-8.17987 0,-0.94929 -1.23355,-6.75044 -2.67167,-9.56995 -1.5216,-2.9832 -3.60526,-5.70182 -5.94021,-8.10235 -14.39925,-14.80388 -27.66691,-27.57246 -42.19794,-42.08116 -1.8708,-1.86788 -3.17547,-4.16859 -4.54753,-6.49779 -1.66774,-2.83115 -3.08566,-7.92594 -3.98632,-12.06438 -5.03533,-23.13698 -13.86141,-65.037678 -14.22342,-66.388721 -0.004,-0.0144 -1.82469,0 -1.82469,0 z M 48.286458,223.15435 v 4.44314 l 35.299138,1.81281 0.05891,-6.19342 z m 114.343412,0 -35.35805,0.0625 0.0589,6.19342 35.29914,-1.81281 z"
         inkscape:label="Полосы на крыльях" /><path
         id="rect10"
         style="display:inline;fill:#595959;fill-opacity:1;stroke:none;stroke-width:1;stroke-linecap:square;paint-order:markers fill stroke"
         d="m 93.812362,249.16205 v 18.06712 h 11.645808 11.64528 v -18.06712 h -11.13007 -1.03043 z"
         sodipodi:nodetypes="cccccccc"
         inkscape:label="Выхлоп " /><path
         id="rect11"
         style="display:inline;fill:#cccccc;fill-opacity:1;stroke-width:13.1969;stroke-linecap:square;paint-order:markers fill stroke"
         d="m 87.848385,250.46482 v 15.44091 h 6.153629 v -15.44091 z m 29.065925,0 v 15.44091 h 6.15363 v -15.44091 z"
         inkscape:label="Задняя верхняя часть основы" /><path
         id="path11"
         style="display:inline;fill:#b2b2b2;fill-opacity:1;stroke-width:1;stroke-linecap:square;paint-order:markers fill stroke"
         d="m 83.020772,227.49981 0.02326,38.809 c 0,0 1.343851,-0.19467 2.019515,-0.25787 0.947352,-0.0886 2.78691,-0.14521 2.78691,-0.14521 l 0.0015,-15.43161 z m 44.875298,0 -4.83175,22.97431 0.002,15.43161 c 0,0 1.83956,0.0566 2.78691,0.14521 0.67567,0.0632 2.01951,0.25787 2.01951,0.25787 z"
         inkscape:label="Боковые части основы" /><path
         id="path9"
         style="display:inline;fill:#e5e5e5;fill-opacity:1;stroke-width:1;stroke-linecap:square;paint-order:markers fill stroke"
         d="m 105.37135,3.753776 v 0.00362 c -0.43319,-0.00156 -2.4734,0.063708 -3.95428,1.5446086 -3.420601,3.420589 -7.770859,18.0397174 -8.995321,22.6094734 -3.351178,12.50676 -5.541202,24.638176 -8.057389,37.373946 -0.334343,1.692281 -1.11001,5.862691 -1.11001,5.862691 l 0.0026,156.585275 c 0,0 0.552652,5.61753 0.88625,7.2502 1.226852,6.00432 3.706751,15.62179 3.706751,15.62179 l 17.595309,-0.091 h 0.0129 l 17.60875,0.091 c 0,0 2.4799,-9.61746 3.70675,-15.62179 0.3336,-1.63267 0.88625,-7.2502 0.88625,-7.2502 l 0.002,-156.585275 c 0,0 -0.77568,-4.170408 -1.11001,-5.862691 -2.51619,-12.735782 -4.70622,-24.867173 -8.05739,-37.373946 -0.91836,-3.42732 -3.5951,-12.507602 -6.319,-18.2764046 -0.90796,-1.9229339 -1.82117,-3.4779207 -2.67632,-4.3330688 -0.32898,-0.328983 -0.69212,-0.5722467 -1.05988,-0.7766968 -0.0766,-0.043138 -0.14707,-0.090355 -0.22376,-0.1286743 -0.0978,-0.048401 -0.18669,-0.069205 -0.28422,-0.1105876 -0.3783,-0.1620139 -0.72947,-0.2878017 -1.06247,-0.3607015 -0.0914,-0.020691 -0.15269,-0.028015 -0.23875,-0.043925 -0.31205,-0.05558 -0.55654,-0.095723 -0.75344,-0.1059367 -0.18288,-0.013371 -0.24784,-0.018328 -0.32918,-0.018087 -7.7e-4,2.3e-6 -0.002,-2.7e-6 -0.003,0 v -0.00362 c 0,0 -0.0639,0.00211 -0.0822,0.00207 -0.0146,3.37e-4 -0.0915,-0.00207 -0.0915,-0.00207 z"
         inkscape:label="Основа" /><path
         id="path4"
         style="display:inline;fill:url(#radialGradient16);fill-opacity:1;stroke-width:1;stroke-linecap:square;paint-order:markers fill stroke"
         d="m 105.37135,3.753776 v 0.00362 c -0.43319,-0.00156 -2.4734,0.063708 -3.95428,1.5446086 -3.420601,3.420589 -7.770859,18.0397174 -8.995321,22.6094734 -3.351178,12.50676 -5.541202,24.638176 -8.057389,37.373946 -0.334343,1.692281 -1.11001,5.862691 -1.11001,5.862691 l 0.0026,156.585275 c 0,0 0.552652,5.61753 0.88625,7.2502 1.226852,6.00432 3.706751,15.62179 3.706751,15.62179 l 17.595309,-0.091 h 0.0129 l 17.60875,0.091 c 0,0 2.4799,-9.61746 3.70675,-15.62179 0.3336,-1.63267 0.88625,-7.2502 0.88625,-7.2502 l 0.002,-156.585275 c 0,0 -0.77568,-4.170408 -1.11001,-5.862691 -2.51619,-12.735782 -4.70622,-24.867173 -8.05739,-37.373946 -0.91836,-3.42732 -3.5951,-12.507602 -6.319,-18.2764046 -0.90796,-1.9229339 -1.82117,-3.4779207 -2.67632,-4.3330688 -0.32898,-0.328983 -0.69212,-0.5722467 -1.05988,-0.7766968 -0.0766,-0.043138 -0.14707,-0.090355 -0.22376,-0.1286743 -0.0978,-0.048401 -0.18669,-0.069205 -0.28422,-0.1105876 -0.3783,-0.1620139 -0.72947,-0.2878017 -1.06247,-0.3607015 -0.0914,-0.020691 -0.15269,-0.028015 -0.23875,-0.043925 -0.31205,-0.05558 -0.55654,-0.095723 -0.75344,-0.1059367 -0.18288,-0.013371 -0.24784,-0.018328 -0.32918,-0.018087 -7.7e-4,2.3e-6 -0.002,-2.7e-6 -0.003,0 v -0.00362 c 0,0 -0.0639,0.00211 -0.0822,0.00207 -0.0146,3.37e-4 -0.0915,-0.00207 -0.0915,-0.00207 z"
         inkscape:label="Основа" /><path
         id="path10"
         style="fill:#262626;fill-opacity:1;stroke:none;stroke-width:1;stroke-linecap:square;paint-order:markers fill stroke"
         d="m 104.27891,46.401302 -6.912243,3.042708 -5.457032,4.365625 -1.25677,7.077605 4.101041,-0.56224 1.223698,-3.803385 3.208073,-3.373438 4.332553,-1.653646 z m 2.35851,0 0.76068,5.093229 4.33255,1.653646 3.20807,3.373438 1.2237,3.803385 4.10104,0.56224 -1.25677,-7.077605 -5.45703,-4.365625 z"
         inkscape:label="Карбон" /><path
         id="path12"
         style="fill:#4d4d4d;fill-opacity:1;stroke:none;stroke-width:1;stroke-linecap:square;paint-order:markers fill stroke"
         d="m 103.29757,47.699414 -4.860168,2.131653 0.979785,2.556433 3.538803,-1.389063 z m 4.32118,0 0.34159,3.299023 3.5388,1.389063 0.97978,-2.556433 z m -10.566276,2.869076 -3.952214,3.141927 2.695443,1.901692 2.546615,-2.563151 z m 16.811376,0 -1.28984,2.480468 2.54661,2.563151 2.69544,-1.901692 z m -21.474657,4.282942 -0.892969,5.32474 2.860807,-0.347266 0.942578,-3.141927 z m 26.137937,0 -2.91041,1.835547 0.94257,3.141927 2.86081,0.347266 z"
         inkscape:label="Окна" /><path
         id="path15"
         style="fill:#262626;fill-opacity:1;stroke:none;stroke-width:1;stroke-linecap:square;paint-order:markers fill stroke"
         d="m 98.499931,45.460791 c -3.273987,2.237879 -6.624673,6.254012 -6.218225,6.362919 0.273875,0.07339 1.667971,-1.595784 5.59294,-3.781164 4.698954,-2.616329 6.570744,-2.845295 7.583514,-2.845295 1.00403,-0.03307 2.88456,0.228966 7.58352,2.845295 3.92496,2.18538 5.31907,3.854549 5.59294,3.781164 0.40645,-0.108907 -2.94424,-4.12504 -6.21823,-6.362919 -3.36199,-2.298035 -6.13547,-2.714789 -6.95823,-2.714789 -0.82276,0 -3.59624,0.416754 -6.958229,2.714789 z"
         sodipodi:nodetypes="ssscssscs"
         inkscape:label="Оконная полоса" /><path
         id="path6"
         style="display:inline;fill:#262626;fill-opacity:1;stroke-width:1;stroke-linecap:square;paint-order:markers fill stroke"
         d="m 105.37135,3.753776 v 0.00413 c -0.43318,-0.00161 -2.4734,0.063198 -3.95428,1.5440918 -3.420601,3.420589 -7.770859,18.0397172 -8.995321,22.6094732 -2.949065,11.006055 -5.001237,21.776368 -7.165454,32.868794 l 0.74414,-10e-4 c 0,0 2.079581,-10.332036 3.188953,-15.481743 1.094641,-5.081329 2.291343,-10.183359 3.910872,-15.134993 1.64609,-5.032837 6.151563,-15.015104 6.151563,-15.015104 l 6.206337,-0.03462 6.20634,0.03462 c 0,0 4.50548,9.982267 6.15156,15.015104 1.61953,4.951634 2.81623,10.053631 3.91088,15.134993 1.10937,5.149707 3.18895,15.481743 3.18895,15.481743 l 0.74414,10e-4 C 123.49581,49.687839 121.44363,38.917526 118.49458,27.911471 117.27012,23.341715 112.91986,8.7225868 109.49926,5.3019978 108.01838,3.821104 105.97816,3.756299 105.54498,3.757906 v -0.00413 c 0,0 -0.0736,0.00239 -0.0868,0.00207 -0.0132,3.198e-4 -0.0868,-0.00207 -0.0868,-0.00207 z"
         inkscape:label="Нос" /><path
         id="path2"
         style="fill:#262626;fill-opacity:1;stroke-width:1;stroke-linecap:square;paint-order:markers fill stroke"
         d="m 103.99779,221.65314 c -2.34223,1.69908 -1.71726,11.82617 -1.70378,18.07176 0.0343,15.87641 0.33354,28.54946 0.83613,44.64276 0.0716,2.29213 0.58753,9.80662 1.24178,10.46086 0.15704,0.15703 0.35547,0.45112 1.08625,0.45112 0.73077,0 0.92919,-0.29409 1.08623,-0.45112 0.65425,-0.65424 1.17019,-8.16873 1.24179,-10.46086 0.50259,-16.0933 0.80182,-28.76635 0.83612,-44.64276 0.0135,-6.24559 0.63846,-16.37268 -1.70377,-18.07176 -0.31604,-0.22926 -0.68886,-0.4652 -1.46038,-0.4652 -0.77152,0 -1.14434,0.23594 -1.46037,0.4652 z"
         sodipodi:nodetypes="cssscscsscc"
         inkscape:label="Заднее верхнее крыло" /><path
         id="path13"
         style="display:inline;fill:#262626;fill-opacity:1;stroke-width:1;stroke-linecap:square;paint-order:markers fill stroke"
         d="m 103.99779,221.65314 c -2.34223,1.69908 -1.71726,11.82617 -1.70378,18.07176 0.0343,15.87641 0.33354,28.54946 0.83613,44.64276 0.0716,2.29213 0.58753,9.80662 1.24178,10.46086 0.15704,0.15703 0.35547,0.45112 1.08625,0.45112 0.73077,0 0.92919,-0.29409 1.08623,-0.45112 0.65425,-0.65424 1.17019,-8.16873 1.24179,-10.46086 0.50259,-16.0933 0.80182,-28.76635 0.83612,-44.64276 0.0135,-6.24559 0.63846,-16.37268 -1.70377,-18.07176 -0.31604,-0.22926 -0.68886,-0.4652 -1.46038,-0.4652 -0.77152,0 -1.14434,0.23594 -1.46037,0.4652 z"
         sodipodi:nodetypes="cssscscsscc"
         inkscape:label="Заднее верхнее крыло" /><path
         id="rect29"
         style="fill:#808080;fill-opacity:1;stroke-width:1;stroke-linecap:square;paint-order:markers fill stroke"
         d="m 83.267786,71.077315 c -2.24e-4,0.0012 -0.01344,0.0708 -0.01344,0.0708 v 0.45837 H 105.05922 V 107.72211 H 83.254867 v 0.52916 h 21.804353 v 36.37298 H 83.255383 v 0.52916 h 21.803837 v 36.31045 H 83.256417 v 0.52917 h 21.802803 v 37.29126 H 83.256934 v 0.52917 h 44.402976 v -0.52917 h -21.78885 v -37.29126 h 21.78936 v -0.52917 h -21.78936 v -36.31045 h 21.78988 v -0.52916 h -21.78988 v -36.37298 h 21.7904 v -0.52916 h -21.7904 V 71.606482 h 21.79092 v -0.45837 c 0,0 -0.0132,-0.06959 -0.0134,-0.0708 z"
         inkscape:label="Полосы" /></g></g></svg>
