<?xml version="1.0" encoding="UTF-8" standalone="no"?>
<svg
   width="66"
   height="66"
   viewBox="0 0 66 66"
   fill="none"
   version="1.1"
   id="svg6"
   xmlns:xlink="http://www.w3.org/1999/xlink"
   xmlns="http://www.w3.org/2000/svg"
   xmlns:svg="http://www.w3.org/2000/svg">
  <defs
     id="defs6">
    <linearGradient
       xlink:href="#linearGradient143719"
       id="linearGradient143721"
       x1="414.18558"
       y1="939.76465"
       x2="583.83008"
       y2="939.76465"
       gradientUnits="userSpaceOnUse"
       gradientTransform="matrix(0.13538837,0,0,0.13538837,-11.867066,-90.506031)" />
    <linearGradient
       id="linearGradient143719">
      <stop
         style="stop-color:#eeb333;stop-opacity:1"
         offset="0"
         id="stop143715" />
      <stop
         style="stop-color:#f5c84d;stop-opacity:1"
         offset="0.04752062"
         id="stop143821" />
      <stop
         style="stop-color:#facf4c;stop-opacity:1"
         offset="0.39395982"
         id="stop143887" />
      <stop
         style="stop-color:#faedcb;stop-opacity:1"
         offset="0.67272025"
         id="stop144081" />
      <stop
         style="stop-color:#d5ae36;stop-opacity:1"
         offset="1"
         id="stop143717" />
    </linearGradient>
    <linearGradient
       xlink:href="#linearGradient143719"
       id="linearGradient15"
       gradientUnits="userSpaceOnUse"
       gradientTransform="matrix(0.13538837,0,0,0.13538837,-33.772062,-90.506031)"
       x1="414.18558"
       y1="939.76465"
       x2="583.83008"
       y2="939.76465" />
    <linearGradient
       xlink:href="#linearGradient143719"
       id="linearGradient16"
       gradientUnits="userSpaceOnUse"
       gradientTransform="matrix(0.13538837,0,0,0.13538837,-55.677058,-90.506031)"
       x1="414.18558"
       y1="939.76465"
       x2="583.83008"
       y2="939.76465" />
    <linearGradient
       xlink:href="#linearGradient143719"
       id="linearGradient17"
       gradientUnits="userSpaceOnUse"
       gradientTransform="matrix(0.13538837,0,0,0.13538837,-44.321653,-104.00303)"
       x1="414.18558"
       y1="939.76465"
       x2="583.83008"
       y2="939.76465" />
    <linearGradient
       xlink:href="#linearGradient143719"
       id="linearGradient18"
       gradientUnits="userSpaceOnUse"
       gradientTransform="matrix(0.13538837,0,0,0.13538837,-22.208495,-104.00303)"
       x1="414.18558"
       y1="939.76465"
       x2="583.83008"
       y2="939.76465" />
    <linearGradient
       xlink:href="#linearGradient143719"
       id="linearGradient19"
       gradientUnits="userSpaceOnUse"
       gradientTransform="matrix(0.13538837,0,0,0.13538837,-33.016052,-117.50002)"
       x1="414.18558"
       y1="939.76465"
       x2="583.83008"
       y2="939.76465" />
    <linearGradient
       xlink:href="#linearGradient143719"
       id="linearGradient143721-5"
       x1="414.18558"
       y1="939.76465"
       x2="583.83008"
       y2="939.76465"
       gradientUnits="userSpaceOnUse"
       gradientTransform="matrix(0.09432679,0,0,0.29038817,-102.47706,-239.89546)" />
  </defs>
  <g
     id="g6"
     transform="translate(0,2.4042166)">
    <path
       id="rect1691"
       style="display:inline;fill:url(#linearGradient143721);stroke-width:0.882929;stroke-linecap:round;stroke-linejoin:round;paint-order:fill markers stroke"
       d="m 48.052734,28.758938 -3.80664,13.27539 H 66 l -3.263672,-13.27539 z" />
    <path
       id="path9"
       style="display:inline;fill:url(#linearGradient15);stroke-width:0.882929;stroke-linecap:round;stroke-linejoin:round;paint-order:fill markers stroke"
       d="m 26.147738,28.758938 -3.80664,13.27539 h 21.753906 l -3.263672,-13.27539 z" />
    <path
       id="path10"
       style="display:inline;fill:url(#linearGradient16);stroke-width:0.882929;stroke-linecap:round;stroke-linejoin:round;paint-order:fill markers stroke"
       d="M 4.2427421,28.758938 0.43610211,42.034328 H 22.190008 l -3.263672,-13.27539 z" />
    <path
       id="path11"
       style="display:inline;fill:url(#linearGradient17);stroke-width:0.882929;stroke-linecap:round;stroke-linejoin:round;paint-order:fill markers stroke"
       d="m 15.598147,15.261943 -3.80664,13.27539 h 21.753906 l -3.263672,-13.27539 z" />
    <path
       id="path12"
       style="display:inline;fill:url(#linearGradient18);stroke-width:0.882929;stroke-linecap:round;stroke-linejoin:round;paint-order:fill markers stroke"
       d="m 37.711305,15.261943 -3.80664,13.27539 h 21.753906 l -3.263672,-13.27539 z" />
    <path
       id="path18"
       style="display:inline;fill:url(#linearGradient19);stroke-width:0.882929;stroke-linecap:round;stroke-linejoin:round;paint-order:fill markers stroke"
       d="M 26.903748,1.7649482 23.097108,15.040338 H 44.851014 L 41.587342,1.7649482 Z" />
  </g>
  <path
     id="rect1691-9"
     style="fill:url(#linearGradient143721-5);fill-opacity:1;stroke:none;stroke-width:1.07933;stroke-linecap:round;stroke-linejoin:round;paint-order:fill markers stroke"
     d="M -48.417969 18.580078 C -48.417969 17.777994 -48.645833 17.107206 -49.101562 16.566406 C -49.551215 16.031684 -50.192925 15.588759 -51.025391 15.236328 L -51.169922 15.537109 C -50.16124 16.169054 -49.658203 16.954643 -49.658203 17.896484 C -49.658203 18.479818 -49.851345 18.966579 -50.240234 19.355469 C -50.623047 19.750434 -51.128038 19.947266 -51.753906 19.947266 C -52.233942 19.947266 -52.67513 19.837891 -53.076172 19.619141 C -53.477214 19.400391 -53.819878 19.048612 -54.105469 18.5625 C -54.391056 18.082464 -54.564233 17.603082 -54.625 17.123047 L -54.898438 17.123047 L -54.898438 17.414062 C -54.898437 17.888021 -54.998698 18.352864 -55.199219 18.808594 C -55.393663 19.264323 -55.612413 19.623481 -55.855469 19.884766 C -56.031684 20.073133 -56.290581 20.24631 -56.630859 20.404297 C -57.086589 20.616971 -57.553168 20.722656 -58.033203 20.722656 C -58.689454 20.722656 -59.258246 20.491103 -59.738281 20.029297 C -60.218316 19.573567 -60.458984 19.035808 -60.458984 18.416016 C -60.458984 18.160807 -60.424262 17.922092 -60.357422 17.697266 C -60.320964 17.557508 -60.209853 17.304037 -60.021484 16.939453 C -59.827038 16.574869 -59.713974 16.34158 -59.683594 16.238281 C -59.63498 16.080295 -59.611328 15.925347 -59.611328 15.773438 C -59.611328 15.572916 -59.676866 15.399739 -59.810547 15.253906 C -59.944228 15.114149 -60.099175 15.044922 -60.275391 15.044922 C -60.51237 15.044922 -60.734808 15.192491 -60.941406 15.490234 C -61.148003 15.794054 -61.251953 16.362847 -61.251953 17.195312 C -61.251953 18.878473 -60.741537 20.163628 -59.720703 21.050781 C -58.936849 21.731338 -58.008899 22.072266 -56.939453 22.072266 C -56.192057 22.072266 -55.543186 21.877171 -54.990234 21.488281 C -54.437283 21.099392 -54.010634 20.525174 -53.712891 19.765625 C -52.75282 20.895834 -51.823134 21.460937 -50.923828 21.460938 C -50.376953 21.460938 -49.864801 21.260417 -49.384766 20.859375 C -48.740668 20.330729 -48.417969 19.57053 -48.417969 18.580078 z M -48.417969 28.324219 C -48.417969 27.740885 -48.6148 27.175782 -49.009766 26.628906 C -49.50803 25.924045 -50.268228 25.358941 -51.289062 24.933594 C -52.30382 24.508246 -53.516058 24.294922 -54.925781 24.294922 C -56.57856 24.294922 -57.991318 24.626736 -59.164062 25.289062 C -60.555556 26.072918 -61.251953 27.053602 -61.251953 28.232422 C -61.251953 28.827909 -61.025825 29.445963 -60.576172 30.083984 C -60.120442 30.728082 -59.391277 31.256727 -58.388672 31.669922 C -57.386067 32.083117 -56.168404 32.289062 -54.734375 32.289062 C -52.68663 32.289062 -51.064237 31.818794 -49.867188 30.876953 C -48.901041 30.123481 -48.417969 29.272136 -48.417969 28.324219 z M -48.417969 37.658203 C -48.417969 37.07487 -48.6148 36.509766 -49.009766 35.962891 C -49.50803 35.258029 -50.268228 34.692926 -51.289062 34.267578 C -52.30382 33.842231 -53.516058 33.628906 -54.925781 33.628906 C -56.57856 33.628906 -57.991318 33.96072 -59.164062 34.623047 C -60.555556 35.406902 -61.251953 36.387586 -61.251953 37.566406 C -61.251953 38.161893 -61.025825 38.777994 -60.576172 39.416016 C -60.120442 40.060114 -59.391277 40.588759 -58.388672 41.001953 C -57.386067 41.415148 -56.168404 41.623047 -54.734375 41.623047 C -52.68663 41.623047 -51.064237 41.150825 -49.867188 40.208984 C -48.901041 39.455512 -48.417969 38.606121 -48.417969 37.658203 z M -48.417969 46.990234 C -48.417969 46.406901 -48.6148 45.841797 -49.009766 45.294922 C -49.50803 44.59006 -50.268228 44.024957 -51.289062 43.599609 C -52.30382 43.174262 -53.516058 42.962891 -54.925781 42.962891 C -56.57856 42.962891 -57.991318 43.292751 -59.164062 43.955078 C -60.555556 44.738933 -61.251953 45.72157 -61.251953 46.900391 C -61.251953 47.495877 -61.025825 48.111979 -60.576172 48.75 C -60.120442 49.394098 -59.391277 49.922743 -58.388672 50.335938 C -57.386067 50.749132 -56.168404 50.955078 -54.734375 50.955078 C -52.68663 50.955078 -51.064237 50.48481 -49.867188 49.542969 C -48.901041 48.789496 -48.417969 47.938152 -48.417969 46.990234 z M -49.019531 28.314453 C -49.019531 28.666884 -49.119791 28.967664 -49.320312 29.216797 C -49.61198 29.563151 -50.107855 29.845703 -50.806641 30.064453 C -51.748482 30.356119 -52.924261 30.501953 -54.333984 30.501953 C -56.235896 30.501953 -57.708767 30.363498 -58.753906 30.083984 C -59.446615 29.901693 -59.942491 29.633681 -60.240234 29.28125 C -60.531901 28.928819 -60.677734 28.587891 -60.677734 28.259766 C -60.677734 27.573133 -60.223742 27.057292 -59.318359 26.710938 C -58.242838 26.291666 -56.855687 26.082031 -55.154297 26.082031 C -54.103081 26.082031 -53.036676 26.160373 -51.955078 26.318359 C -50.873481 26.476346 -50.080513 26.77539 -49.576172 27.212891 C -49.205512 27.53494 -49.019531 27.901259 -49.019531 28.314453 z M -49.019531 37.648438 C -49.019531 38.000868 -49.119791 38.301649 -49.320312 38.550781 C -49.61198 38.897136 -50.107855 39.179687 -50.806641 39.398438 C -51.748482 39.690105 -52.924261 39.835938 -54.333984 39.835938 C -56.235896 39.835938 -57.708767 39.69553 -58.753906 39.416016 C -59.446615 39.233724 -59.942491 38.967665 -60.240234 38.615234 C -60.531901 38.262803 -60.677734 37.921875 -60.677734 37.59375 C -60.677734 36.907117 -60.223742 36.391276 -59.318359 36.044922 C -58.242838 35.625651 -56.855687 35.416016 -55.154297 35.416016 C -54.103081 35.416016 -53.036676 35.494358 -51.955078 35.652344 C -50.873481 35.81033 -50.080513 36.107422 -49.576172 36.544922 C -49.205512 36.866971 -49.019531 37.235243 -49.019531 37.648438 z M -49.019531 46.982422 C -49.019531 47.334853 -49.119791 47.635634 -49.320312 47.884766 C -49.61198 48.23112 -50.107855 48.513671 -50.806641 48.732422 C -51.748482 49.024089 -52.924261 49.169922 -54.333984 49.169922 C -56.235896 49.169922 -57.708767 49.029514 -58.753906 48.75 C -59.446615 48.567708 -59.942491 48.299697 -60.240234 47.947266 C -60.531901 47.594835 -60.677734 47.25586 -60.677734 46.927734 C -60.677734 46.241102 -60.223742 45.723307 -59.318359 45.376953 C -58.242838 44.957682 -56.855687 44.748047 -55.154297 44.748047 C -54.103081 44.748047 -53.036676 44.828342 -51.955078 44.986328 C -50.873481 45.144315 -50.080513 45.441406 -49.576172 45.878906 C -49.205512 46.200955 -49.019531 46.569227 -49.019531 46.982422 z "
     transform="rotate(-90)" />
</svg>
