<?xml version="1.0" encoding="UTF-8" standalone="no"?>
<svg
   width="66"
   height="66"
   viewBox="0 0 66 66"
   fill="none"
   version="1.1"
   id="svg6"
   sodipodi:docname="gold_1000.svg"
   inkscape:version="1.3.2 (091e20e, 2023-11-25, custom)"
   xmlns:inkscape="http://www.inkscape.org/namespaces/inkscape"
   xmlns:sodipodi="http://sodipodi.sourceforge.net/DTD/sodipodi-0.dtd"
   xmlns:xlink="http://www.w3.org/1999/xlink"
   xmlns="http://www.w3.org/2000/svg"
   xmlns:svg="http://www.w3.org/2000/svg">
  <defs
     id="defs6">
    <linearGradient
       inkscape:collect="always"
       xlink:href="#linearGradient143719"
       id="linearGradient143721"
       x1="414.18558"
       y1="939.76465"
       x2="583.83008"
       y2="939.76465"
       gradientUnits="userSpaceOnUse"
       gradientTransform="matrix(0.13538837,0,0,0.13538837,-11.867066,-90.506031)" />
    <linearGradient
       inkscape:collect="always"
       id="linearGradient143719">
      <stop
         style="stop-color:#eeb333;stop-opacity:1"
         offset="0"
         id="stop143715" />
      <stop
         style="stop-color:#f5c84d;stop-opacity:1"
         offset="0.04752062"
         id="stop143821" />
      <stop
         style="stop-color:#facf4c;stop-opacity:1"
         offset="0.39395982"
         id="stop143887" />
      <stop
         style="stop-color:#faedcb;stop-opacity:1"
         offset="0.67272025"
         id="stop144081" />
      <stop
         style="stop-color:#d5ae36;stop-opacity:1"
         offset="1"
         id="stop143717" />
    </linearGradient>
    <linearGradient
       inkscape:collect="always"
       xlink:href="#linearGradient143719"
       id="linearGradient15"
       gradientUnits="userSpaceOnUse"
       gradientTransform="matrix(0.13538837,0,0,0.13538837,-33.772062,-90.506031)"
       x1="414.18558"
       y1="939.76465"
       x2="583.83008"
       y2="939.76465" />
    <linearGradient
       inkscape:collect="always"
       xlink:href="#linearGradient143719"
       id="linearGradient16"
       gradientUnits="userSpaceOnUse"
       gradientTransform="matrix(0.13538837,0,0,0.13538837,-55.677058,-90.506031)"
       x1="414.18558"
       y1="939.76465"
       x2="583.83008"
       y2="939.76465" />
    <linearGradient
       inkscape:collect="always"
       xlink:href="#linearGradient143719"
       id="linearGradient17"
       gradientUnits="userSpaceOnUse"
       gradientTransform="matrix(0.13538837,0,0,0.13538837,-44.321653,-104.00303)"
       x1="414.18558"
       y1="939.76465"
       x2="583.83008"
       y2="939.76465" />
    <linearGradient
       inkscape:collect="always"
       xlink:href="#linearGradient143719"
       id="linearGradient18"
       gradientUnits="userSpaceOnUse"
       gradientTransform="matrix(0.13538837,0,0,0.13538837,-22.208495,-104.00303)"
       x1="414.18558"
       y1="939.76465"
       x2="583.83008"
       y2="939.76465" />
    <linearGradient
       inkscape:collect="always"
       xlink:href="#linearGradient143719"
       id="linearGradient19"
       gradientUnits="userSpaceOnUse"
       gradientTransform="matrix(0.13538837,0,0,0.13538837,-33.016052,-117.50002)"
       x1="414.18558"
       y1="939.76465"
       x2="583.83008"
       y2="939.76465" />
    <linearGradient
       inkscape:collect="always"
       xlink:href="#linearGradient143719"
       id="linearGradient143721-5"
       x1="414.18558"
       y1="939.76465"
       x2="583.83008"
       y2="939.76465"
       gradientUnits="userSpaceOnUse"
       gradientTransform="matrix(0.09076654,0,0,0.27942781,-100.33866,-229.60165)" />
  </defs>
  <sodipodi:namedview
     id="namedview6"
     pagecolor="#ffffff"
     bordercolor="#111111"
     borderopacity="1"
     inkscape:showpageshadow="0"
     inkscape:pageopacity="0"
     inkscape:pagecheckerboard="1"
     inkscape:deskcolor="#d1d1d1"
     inkscape:zoom="10.039272"
     inkscape:cx="4.1835703"
     inkscape:cy="47.264383"
     inkscape:window-width="3440"
     inkscape:window-height="1417"
     inkscape:window-x="-8"
     inkscape:window-y="-8"
     inkscape:window-maximized="1"
     inkscape:current-layer="svg6" />
  <g
     id="g6"
     transform="translate(0,2.4042166)">
    <path
       id="rect1691"
       style="display:inline;fill:url(#linearGradient143721);stroke-width:0.882929;stroke-linecap:round;stroke-linejoin:round;paint-order:fill markers stroke"
       d="m 48.052734,28.758938 -3.80664,13.27539 H 66 l -3.263672,-13.27539 z" />
    <path
       id="path9"
       style="display:inline;fill:url(#linearGradient15);stroke-width:0.882929;stroke-linecap:round;stroke-linejoin:round;paint-order:fill markers stroke"
       d="m 26.147738,28.758938 -3.80664,13.27539 h 21.753906 l -3.263672,-13.27539 z" />
    <path
       id="path10"
       style="display:inline;fill:url(#linearGradient16);stroke-width:0.882929;stroke-linecap:round;stroke-linejoin:round;paint-order:fill markers stroke"
       d="M 4.2427421,28.758938 0.43610211,42.034328 H 22.190008 l -3.263672,-13.27539 z" />
    <path
       id="path11"
       style="display:inline;fill:url(#linearGradient17);stroke-width:0.882929;stroke-linecap:round;stroke-linejoin:round;paint-order:fill markers stroke"
       d="m 15.598147,15.261943 -3.80664,13.27539 h 21.753906 l -3.263672,-13.27539 z" />
    <path
       id="path12"
       style="display:inline;fill:url(#linearGradient18);stroke-width:0.882929;stroke-linecap:round;stroke-linejoin:round;paint-order:fill markers stroke"
       d="m 37.711305,15.261943 -3.80664,13.27539 h 21.753906 l -3.263672,-13.27539 z" />
    <path
       id="path18"
       style="display:inline;fill:url(#linearGradient19);stroke-width:0.882929;stroke-linecap:round;stroke-linejoin:round;paint-order:fill markers stroke"
       d="M 26.903748,1.7649482 23.097108,15.040338 H 44.851014 L 41.587342,1.7649482 Z" />
  </g>
  <path
     id="rect1691-9"
     style="fill:url(#linearGradient143721-5);fill-opacity:1;stroke:none;stroke-width:1.03859;stroke-linecap:round;stroke-linejoin:round;paint-order:fill markers stroke"
     d="M -48.417969 18.767578 L -49.884766 15.759766 L -50.167969 15.896484 C -49.9796 16.297527 -49.884766 16.611111 -49.884766 16.835938 C -49.884766 16.993924 -49.930338 17.126954 -50.021484 17.236328 C -50.11263 17.351781 -50.256727 17.430123 -50.451172 17.472656 C -50.706381 17.533423 -51.282335 17.564453 -52.181641 17.564453 L -58.853516 17.564453 C -59.594836 17.564453 -60.04145 17.531684 -60.193359 17.464844 C -60.339193 17.398004 -60.457682 17.279514 -60.548828 17.109375 C -60.633897 16.939236 -60.683159 16.561849 -60.695312 15.978516 L -61.033203 15.978516 L -61.033203 20.626953 L -60.695312 20.626953 C -60.683159 20.067924 -60.632162 19.697917 -60.541016 19.515625 C -60.44987 19.333336 -60.318576 19.211157 -60.148438 19.150391 C -59.978298 19.095704 -59.546225 19.068359 -58.853516 19.068359 L -48.417969 19.068359 L -48.417969 18.767578 z M -48.417969 27.609375 C -48.417969 27.026041 -48.6148 26.460938 -49.009766 25.914062 C -49.50803 25.209201 -50.268228 24.644098 -51.289062 24.21875 C -52.30382 23.793402 -53.516058 23.580078 -54.925781 23.580078 C -56.57856 23.580078 -57.991318 23.911892 -59.164062 24.574219 C -60.555556 25.358074 -61.251953 26.338758 -61.251953 27.517578 C -61.251953 28.113065 -61.025825 28.729166 -60.576172 29.367188 C -60.120442 30.011285 -59.391277 30.53993 -58.388672 30.953125 C -57.386067 31.36632 -56.168404 31.574219 -54.734375 31.574219 C -52.68663 31.574219 -51.064237 31.101997 -49.867188 30.160156 C -48.901041 29.406684 -48.417969 28.557293 -48.417969 27.609375 z M -48.417969 36.941406 C -48.417969 36.358073 -48.6148 35.792969 -49.009766 35.246094 C -49.50803 34.541232 -50.268228 33.976129 -51.289062 33.550781 C -52.30382 33.125434 -53.516058 32.914062 -54.925781 32.914062 C -56.57856 32.914062 -57.991318 33.243923 -59.164062 33.90625 C -60.555556 34.690105 -61.251953 35.672742 -61.251953 36.851562 C -61.251953 37.447049 -61.025825 38.063151 -60.576172 38.701172 C -60.120442 39.345269 -59.391277 39.873914 -58.388672 40.287109 C -57.386067 40.700304 -56.168404 40.90625 -54.734375 40.90625 C -52.68663 40.90625 -51.064237 40.435982 -49.867188 39.494141 C -48.901041 38.740668 -48.417969 37.889324 -48.417969 36.941406 z M -48.417969 46.275391 C -48.417969 45.692057 -48.6148 45.126954 -49.009766 44.580078 C -49.50803 43.875216 -50.268228 43.310113 -51.289062 42.884766 C -52.30382 42.459418 -53.516058 42.246094 -54.925781 42.246094 C -56.57856 42.246094 -57.991318 42.577907 -59.164062 43.240234 C -60.555556 44.024089 -61.251953 45.004774 -61.251953 46.183594 C -61.251953 46.77908 -61.025825 47.397135 -60.576172 48.035156 C -60.120442 48.679254 -59.391277 49.207899 -58.388672 49.621094 C -57.386067 50.034289 -56.168404 50.240234 -54.734375 50.240234 C -52.68663 50.240234 -51.064237 49.769966 -49.867188 48.828125 C -48.901041 48.074652 -48.417969 47.223308 -48.417969 46.275391 z M -49.019531 27.599609 C -49.019531 27.95204 -49.119791 28.252821 -49.320312 28.501953 C -49.61198 28.848307 -50.107855 29.130859 -50.806641 29.349609 C -51.748482 29.641276 -52.924261 29.787109 -54.333984 29.787109 C -56.235896 29.787109 -57.708767 29.646701 -58.753906 29.367188 C -59.446615 29.184896 -59.942491 28.918837 -60.240234 28.566406 C -60.531901 28.213975 -60.677734 27.873047 -60.677734 27.544922 C -60.677734 26.858289 -60.223742 26.342448 -59.318359 25.996094 C -58.242838 25.576822 -56.855687 25.367188 -55.154297 25.367188 C -54.103081 25.367188 -53.036676 25.445529 -51.955078 25.603516 C -50.873481 25.761502 -50.080513 26.058594 -49.576172 26.496094 C -49.205512 26.818143 -49.019531 27.186415 -49.019531 27.599609 z M -49.019531 36.933594 C -49.019531 37.286024 -49.119791 37.586805 -49.320312 37.835938 C -49.61198 38.182292 -50.107855 38.464843 -50.806641 38.683594 C -51.748482 38.97526 -52.924261 39.121094 -54.333984 39.121094 C -56.235896 39.121094 -57.708767 38.980686 -58.753906 38.701172 C -59.446615 38.51888 -59.942491 38.250868 -60.240234 37.898438 C -60.531901 37.546007 -60.677734 37.207031 -60.677734 36.878906 C -60.677734 36.192274 -60.223742 35.674479 -59.318359 35.328125 C -58.242838 34.908854 -56.855687 34.699219 -55.154297 34.699219 C -54.103081 34.699219 -53.036676 34.779514 -51.955078 34.9375 C -50.873481 35.095487 -50.080513 35.392578 -49.576172 35.830078 C -49.205512 36.152127 -49.019531 36.520399 -49.019531 36.933594 z M -49.019531 46.265625 C -49.019531 46.618056 -49.119791 46.918837 -49.320312 47.167969 C -49.61198 47.514323 -50.107855 47.796875 -50.806641 48.015625 C -51.748482 48.307292 -52.924261 48.453125 -54.333984 48.453125 C -56.235896 48.453125 -57.708767 48.314671 -58.753906 48.035156 C -59.446615 47.852864 -59.942491 47.584853 -60.240234 47.232422 C -60.531901 46.879992 -60.677734 46.539063 -60.677734 46.210938 C -60.677734 45.524305 -60.223742 45.008464 -59.318359 44.662109 C -58.242838 44.242838 -56.855687 44.033203 -55.154297 44.033203 C -54.103081 44.033203 -53.036676 44.111545 -51.955078 44.269531 C -50.873481 44.427518 -50.080513 44.726562 -49.576172 45.164062 C -49.205512 45.486112 -49.019531 45.85243 -49.019531 46.265625 z "
     transform="rotate(-90)" />
</svg>
