<?xml version="1.0" encoding="UTF-8" standalone="no"?>
<svg
   width="66"
   height="66"
   viewBox="0 0 66 66"
   fill="none"
   version="1.1"
   id="svg6"
   sodipodi:docname="gold_500.svg"
   inkscape:version="1.3.2 (091e20e, 2023-11-25, custom)"
   xmlns:inkscape="http://www.inkscape.org/namespaces/inkscape"
   xmlns:sodipodi="http://sodipodi.sourceforge.net/DTD/sodipodi-0.dtd"
   xmlns:xlink="http://www.w3.org/1999/xlink"
   xmlns="http://www.w3.org/2000/svg"
   xmlns:svg="http://www.w3.org/2000/svg">
  <defs
     id="defs6">
    <linearGradient
       inkscape:collect="always"
       xlink:href="#linearGradient143719"
       id="linearGradient143721"
       x1="414.18558"
       y1="939.76465"
       x2="583.83008"
       y2="939.76465"
       gradientUnits="userSpaceOnUse"
       gradientTransform="matrix(0.13538837,0,0,0.13538837,-11.867066,-90.506031)" />
    <linearGradient
       inkscape:collect="always"
       id="linearGradient143719">
      <stop
         style="stop-color:#eeb333;stop-opacity:1"
         offset="0"
         id="stop143715" />
      <stop
         style="stop-color:#f5c84d;stop-opacity:1"
         offset="0.04752062"
         id="stop143821" />
      <stop
         style="stop-color:#facf4c;stop-opacity:1"
         offset="0.39395982"
         id="stop143887" />
      <stop
         style="stop-color:#faedcb;stop-opacity:1"
         offset="0.67272025"
         id="stop144081" />
      <stop
         style="stop-color:#d5ae36;stop-opacity:1"
         offset="1"
         id="stop143717" />
    </linearGradient>
    <linearGradient
       inkscape:collect="always"
       xlink:href="#linearGradient143719"
       id="linearGradient15"
       gradientUnits="userSpaceOnUse"
       gradientTransform="matrix(0.13538837,0,0,0.13538837,-33.772062,-90.506031)"
       x1="414.18558"
       y1="939.76465"
       x2="583.83008"
       y2="939.76465" />
    <linearGradient
       inkscape:collect="always"
       xlink:href="#linearGradient143719"
       id="linearGradient16"
       gradientUnits="userSpaceOnUse"
       gradientTransform="matrix(0.13538837,0,0,0.13538837,-55.677058,-90.506031)"
       x1="414.18558"
       y1="939.76465"
       x2="583.83008"
       y2="939.76465" />
    <linearGradient
       inkscape:collect="always"
       xlink:href="#linearGradient143719"
       id="linearGradient17"
       gradientUnits="userSpaceOnUse"
       gradientTransform="matrix(0.13538837,0,0,0.13538837,-44.321653,-104.00303)"
       x1="414.18558"
       y1="939.76465"
       x2="583.83008"
       y2="939.76465" />
    <linearGradient
       inkscape:collect="always"
       xlink:href="#linearGradient143719"
       id="linearGradient18"
       gradientUnits="userSpaceOnUse"
       gradientTransform="matrix(0.13538837,0,0,0.13538837,-22.208495,-104.00303)"
       x1="414.18558"
       y1="939.76465"
       x2="583.83008"
       y2="939.76465" />
    <linearGradient
       inkscape:collect="always"
       xlink:href="#linearGradient143719"
       id="linearGradient19"
       gradientUnits="userSpaceOnUse"
       gradientTransform="matrix(0.13538837,0,0,0.13538837,-33.016052,-117.50002)"
       x1="414.18558"
       y1="939.76465"
       x2="583.83008"
       y2="939.76465" />
    <linearGradient
       inkscape:collect="always"
       xlink:href="#linearGradient143719"
       id="linearGradient143721-5"
       x1="414.18558"
       y1="939.76465"
       x2="583.83008"
       y2="939.76465"
       gradientUnits="userSpaceOnUse"
       gradientTransform="matrix(0.09432679,0,0,0.29038817,-102.47706,-239.89546)" />
  </defs>
  <sodipodi:namedview
     id="namedview6"
     pagecolor="#ffffff"
     bordercolor="#111111"
     borderopacity="1"
     inkscape:showpageshadow="0"
     inkscape:pageopacity="0"
     inkscape:pagecheckerboard="1"
     inkscape:deskcolor="#d1d1d1"
     inkscape:zoom="10.039272"
     inkscape:cx="10.06049"
     inkscape:cy="42.781987"
     inkscape:window-width="3440"
     inkscape:window-height="1417"
     inkscape:window-x="-8"
     inkscape:window-y="-8"
     inkscape:window-maximized="1"
     inkscape:current-layer="svg6" />
  <g
     id="g6"
     transform="translate(0,2.4042166)">
    <path
       id="rect1691"
       style="display:inline;fill:url(#linearGradient143721);stroke-width:0.882929;stroke-linecap:round;stroke-linejoin:round;paint-order:fill markers stroke"
       d="m 48.052734,28.758938 -3.80664,13.27539 H 66 l -3.263672,-13.27539 z" />
    <path
       id="path9"
       style="display:inline;fill:url(#linearGradient15);stroke-width:0.882929;stroke-linecap:round;stroke-linejoin:round;paint-order:fill markers stroke"
       d="m 26.147738,28.758938 -3.80664,13.27539 h 21.753906 l -3.263672,-13.27539 z" />
    <path
       id="path10"
       style="display:inline;fill:url(#linearGradient16);stroke-width:0.882929;stroke-linecap:round;stroke-linejoin:round;paint-order:fill markers stroke"
       d="M 4.2427421,28.758938 0.43610211,42.034328 H 22.190008 l -3.263672,-13.27539 z" />
    <path
       id="path11"
       style="display:inline;fill:url(#linearGradient17);stroke-width:0.882929;stroke-linecap:round;stroke-linejoin:round;paint-order:fill markers stroke"
       d="m 15.598147,15.261943 -3.80664,13.27539 h 21.753906 l -3.263672,-13.27539 z" />
    <path
       id="path12"
       style="display:inline;fill:url(#linearGradient18);stroke-width:0.882929;stroke-linecap:round;stroke-linejoin:round;paint-order:fill markers stroke"
       d="m 37.711305,15.261943 -3.80664,13.27539 h 21.753906 l -3.263672,-13.27539 z" />
    <path
       id="path18"
       style="display:inline;fill:url(#linearGradient19);stroke-width:0.882929;stroke-linecap:round;stroke-linejoin:round;paint-order:fill markers stroke"
       d="M 26.903748,1.7649482 23.097108,15.040338 H 44.851014 L 41.587342,1.7649482 Z" />
  </g>
  <path
     id="rect1691-9"
     style="fill:url(#linearGradient143721-5);fill-opacity:1;stroke:none;stroke-width:1.07933;stroke-linecap:round;stroke-linejoin:round;paint-order:fill markers stroke"
     d="M -48.417969 32.921875 C -48.417969 32.338542 -48.6148 31.773438 -49.009766 31.226562 C -49.50803 30.521701 -50.268228 29.956598 -51.289062 29.53125 C -52.30382 29.105902 -53.516058 28.894531 -54.925781 28.894531 C -56.57856 28.894531 -57.991318 29.224391 -59.164062 29.886719 C -60.555556 30.670573 -61.251953 31.653211 -61.251953 32.832031 C -61.251953 33.427518 -61.025825 34.043619 -60.576172 34.681641 C -60.120442 35.325739 -59.391277 35.854384 -58.388672 36.267578 C -57.386067 36.680773 -56.168404 36.886719 -54.734375 36.886719 C -52.68663 36.886719 -51.064237 36.41645 -49.867188 35.474609 C -48.901041 34.721137 -48.417969 33.869793 -48.417969 32.921875 z M -48.417969 42.255859 C -48.417969 41.672526 -48.6148 41.107422 -49.009766 40.560547 C -49.50803 39.855685 -50.268228 39.290582 -51.289062 38.865234 C -52.30382 38.439887 -53.516058 38.226562 -54.925781 38.226562 C -56.57856 38.226563 -57.991318 38.558376 -59.164062 39.220703 C -60.555556 40.004558 -61.251953 40.985242 -61.251953 42.164062 C -61.251953 42.759549 -61.025825 43.377604 -60.576172 44.015625 C -60.120442 44.659723 -59.391277 45.188368 -58.388672 45.601562 C -57.386067 46.014757 -56.168404 46.220703 -54.734375 46.220703 C -52.68663 46.220703 -51.064237 45.750435 -49.867188 44.808594 C -48.901041 44.055121 -48.417969 43.203777 -48.417969 42.255859 z M -48.673828 22.558594 L -53.476562 20.189453 C -53.519097 21.331815 -53.677734 22.234157 -53.951172 22.896484 C -54.303603 23.741103 -54.804904 24.402778 -55.455078 24.882812 C -56.099175 25.362848 -56.793619 25.603516 -57.541016 25.603516 C -58.312718 25.603516 -58.968966 25.333768 -59.509766 24.792969 C -60.044488 24.258247 -60.3125 23.634767 -60.3125 22.923828 C -60.3125 22.455946 -60.153863 21.994792 -59.837891 21.539062 C -59.637372 21.253472 -59.513457 21.049262 -59.464844 20.927734 C -59.41623 20.812283 -59.392578 20.675565 -59.392578 20.517578 C -59.392578 20.304904 -59.458116 20.128038 -59.591797 19.988281 C -59.719401 19.848524 -59.868924 19.779297 -60.039062 19.779297 C -60.342882 19.779297 -60.621744 19.947048 -60.876953 20.28125 C -61.126085 20.621528 -61.251953 21.161024 -61.251953 21.902344 C -61.251953 22.637588 -61.084202 23.355902 -60.75 24.054688 C -60.513021 24.546875 -60.199436 24.993489 -59.810547 25.394531 C -59.421658 25.795573 -58.95139 26.125434 -58.398438 26.386719 C -57.845486 26.65408 -57.243924 26.789062 -56.59375 26.789062 C -55.475693 26.789062 -54.504124 26.384332 -53.677734 25.576172 C -52.717664 24.634331 -52.117838 23.358291 -51.880859 21.748047 L -50.222656 22.558594 L -50.222656 26.277344 L -48.673828 26.988281 L -48.673828 22.558594 z M -49.019531 32.914062 C -49.019531 33.266493 -49.119791 33.567274 -49.320312 33.816406 C -49.61198 34.162761 -50.107855 34.445312 -50.806641 34.664062 C -51.748482 34.95573 -52.924261 35.101562 -54.333984 35.101562 C -56.235896 35.101563 -57.708767 34.961155 -58.753906 34.681641 C -59.446615 34.499349 -59.942491 34.231337 -60.240234 33.878906 C -60.531901 33.526476 -60.677734 33.187501 -60.677734 32.859375 C -60.677734 32.172742 -60.223742 31.654948 -59.318359 31.308594 C -58.242838 30.889323 -56.855687 30.679688 -55.154297 30.679688 C -54.103081 30.679687 -53.036676 30.759983 -51.955078 30.917969 C -50.873481 31.075955 -50.080513 31.373047 -49.576172 31.810547 C -49.205512 32.132596 -49.019531 32.500868 -49.019531 32.914062 z M -49.019531 42.246094 C -49.019531 42.598525 -49.119791 42.899306 -49.320312 43.148438 C -49.61198 43.494792 -50.107855 43.777343 -50.806641 43.996094 C -51.748482 44.287761 -52.924261 44.433594 -54.333984 44.433594 C -56.235896 44.433594 -57.708767 44.295139 -58.753906 44.015625 C -59.446615 43.833333 -59.942491 43.565322 -60.240234 43.212891 C -60.531901 42.86046 -60.677734 42.519532 -60.677734 42.191406 C -60.677734 41.504774 -60.223742 40.988933 -59.318359 40.642578 C -58.242838 40.223307 -56.855687 40.013672 -55.154297 40.013672 C -54.103081 40.013672 -53.036676 40.092013 -51.955078 40.25 C -50.873481 40.407986 -50.080513 40.707031 -49.576172 41.144531 C -49.205512 41.46658 -49.019531 41.832899 -49.019531 42.246094 z "
     transform="rotate(-90)" />
</svg>
