<?xml version="1.0" encoding="UTF-8" standalone="no"?>
<svg
   width="66"
   height="66"
   viewBox="0 0 66 66"
   fill="none"
   version="1.1"
   id="svg6"
   sodipodi:docname="jackpot_gold.svg"
   inkscape:version="1.3.2 (091e20e, 2023-11-25, custom)"
   xmlns:inkscape="http://www.inkscape.org/namespaces/inkscape"
   xmlns:sodipodi="http://sodipodi.sourceforge.net/DTD/sodipodi-0.dtd"
   xmlns:xlink="http://www.w3.org/1999/xlink"
   xmlns="http://www.w3.org/2000/svg"
   xmlns:svg="http://www.w3.org/2000/svg">
  <path
     id="rect1691-1"
     style="fill:url(#linearGradient143721-9);fill-opacity:1;stroke:none;stroke-width:1.09645;stroke-linecap:round;stroke-linejoin:round;paint-order:fill markers stroke"
     d="M -50.794922 23.933594 C -50.794922 23.101595 -50.979657 22.349734 -51.347656 21.677734 C -51.715656 21.005735 -52.226813 20.47775 -52.882812 20.09375 C -53.530812 19.71775 -54.258407 19.529297 -55.066406 19.529297 C -55.874405 19.529297 -56.607673 19.71775 -57.263672 20.09375 C -57.911671 20.47775 -58.41911 21.002016 -58.787109 21.666016 C -59.155109 22.338015 -59.339844 23.089876 -59.339844 23.921875 C -59.339844 24.545874 -59.235344 25.122391 -59.027344 25.650391 C -58.811344 26.18639 -58.503515 26.63786 -58.103516 27.005859 L -57.539062 26.441406 C -58.211062 25.793407 -58.546875 24.96503 -58.546875 23.957031 C -58.546875 23.293032 -58.395797 22.690484 -58.091797 22.146484 C -57.787797 21.602485 -57.371749 21.173328 -56.84375 20.861328 C -56.315751 20.557328 -55.722406 20.40625 -55.066406 20.40625 C -54.410407 20.40625 -53.819015 20.557328 -53.291016 20.861328 C -52.763016 21.173328 -52.346968 21.602485 -52.042969 22.146484 C -51.738969 22.690484 -51.587891 23.293032 -51.587891 23.957031 C -51.587891 24.95703 -51.919985 25.785407 -52.583984 26.441406 L -52.019531 27.005859 C -51.619532 26.63786 -51.315422 26.190109 -51.107422 25.662109 C -50.899422 25.13411 -50.794922 24.557593 -50.794922 23.933594 z M -50.794922 49.722656 C -50.794922 48.890657 -50.983375 48.133124 -51.359375 47.453125 C -51.727375 46.781126 -52.234813 46.25314 -52.882812 45.869141 C -53.530812 45.493141 -54.258407 45.306641 -55.066406 45.306641 C -55.874405 45.306641 -56.603954 45.493141 -57.251953 45.869141 C -57.899952 46.25314 -58.41111 46.781126 -58.787109 47.453125 C -59.155109 48.133124 -59.339844 48.890657 -59.339844 49.722656 C -59.339844 50.554655 -59.155109 51.302798 -58.787109 51.966797 C -58.41911 52.638796 -57.911671 53.166782 -57.263672 53.550781 C -56.607673 53.934781 -55.874405 54.126953 -55.066406 54.126953 C -54.258407 54.126953 -53.530812 53.934781 -52.882812 53.550781 C -52.226813 53.166782 -51.715656 52.638796 -51.347656 51.966797 C -50.979657 51.302798 -50.794922 50.554655 -50.794922 49.722656 z M -50.867188 5.3574219 L -51.634766 5.3574219 L -51.634766 8.4296875 L -56.722656 8.4296875 C -57.954655 8.4296875 -58.570313 7.9091396 -58.570312 6.8691406 C -58.570312 6.1251414 -58.227062 5.5225933 -57.539062 5.0585938 L -58.138672 4.5292969 C -58.522671 4.7852966 -58.819344 5.117391 -59.027344 5.5253906 C -59.235344 5.9333902 -59.339844 6.3774224 -59.339844 6.8574219 C -59.339844 7.6654211 -59.119687 8.273641 -58.679688 8.6816406 C -58.231688 9.0976402 -57.567499 9.3066406 -56.6875 9.3066406 L -50.867188 9.3066406 L -50.867188 5.3574219 z M -50.867188 14.285156 L -59.267578 10.445312 L -59.267578 11.369141 L -57.023438 12.378906 L -57.023438 17.058594 L -59.267578 18.066406 L -59.267578 19.001953 L -50.867188 15.162109 L -50.867188 14.285156 z M -50.867188 28.902344 L -59.267578 28.902344 L -59.267578 29.789062 L -57.058594 29.789062 L -55.318359 31.505859 L -59.267578 34.9375 L -59.267578 35.994141 L -54.671875 32.105469 L -50.867188 35.742188 L -50.867188 34.722656 L -55.943359 29.789062 L -50.867188 29.789062 L -50.867188 28.902344 z M -50.867188 37.433594 L -59.267578 37.433594 L -59.267578 38.322266 L -56.615234 38.322266 L -56.615234 40.578125 C -56.615234 41.650124 -56.363374 42.489657 -55.859375 43.097656 C -55.347376 43.705656 -54.644046 44.009766 -53.748047 44.009766 C -52.852048 44.009766 -52.146765 43.705656 -51.634766 43.097656 C -51.122766 42.489657 -50.867188 41.650124 -50.867188 40.578125 L -50.867188 37.433594 z M -50.867188 54.677734 L -51.634766 54.677734 L -51.634766 57.630859 L -59.267578 57.630859 L -59.267578 58.517578 L -51.634766 58.517578 L -51.634766 61.470703 L -50.867188 61.470703 L -50.867188 54.677734 z M -51.587891 49.722656 C -51.587891 50.386656 -51.738969 50.985485 -52.042969 51.521484 C -52.338968 52.057484 -52.755016 52.47725 -53.291016 52.78125 C -53.819015 53.08525 -54.410407 53.238281 -55.066406 53.238281 C -55.722406 53.238281 -56.319469 53.08525 -56.855469 52.78125 C -57.383468 52.47725 -57.799516 52.057484 -58.103516 51.521484 C -58.399515 50.985485 -58.546875 50.386656 -58.546875 49.722656 C -58.546875 49.058657 -58.399515 48.454156 -58.103516 47.910156 C -57.799516 47.374157 -57.383468 46.950672 -56.855469 46.638672 C -56.319469 46.334672 -55.722406 46.181641 -55.066406 46.181641 C -54.410407 46.181641 -53.819015 46.334672 -53.291016 46.638672 C -52.755016 46.950672 -52.338968 47.374157 -52.042969 47.910156 C -51.738969 48.454156 -51.587891 49.058657 -51.587891 49.722656 z M -51.634766 38.322266 L -51.634766 40.554688 C -51.634766 41.386687 -51.8195 42.022891 -52.1875 42.462891 C -52.5475 42.90289 -53.068048 43.121094 -53.748047 43.121094 C -54.412046 43.121094 -54.926922 42.90289 -55.294922 42.462891 C -55.654922 42.022891 -55.835937 41.386687 -55.835938 40.554688 L -55.835938 38.322266 L -51.634766 38.322266 z M -51.791016 14.71875 L -56.302734 16.734375 L -56.302734 12.701172 L -51.791016 14.71875 z "
     transform="rotate(-90)" />
  <defs
     id="defs6">
    <linearGradient
       inkscape:collect="always"
       xlink:href="#linearGradient143719"
       id="linearGradient143721"
       x1="414.18558"
       y1="939.76465"
       x2="583.83008"
       y2="939.76465"
       gradientUnits="userSpaceOnUse"
       gradientTransform="matrix(0.13538837,0,0,0.13538837,-11.867066,-90.506031)" />
    <linearGradient
       inkscape:collect="always"
       id="linearGradient143719">
      <stop
         style="stop-color:#eeb333;stop-opacity:1"
         offset="0"
         id="stop143715" />
      <stop
         style="stop-color:#f5c84d;stop-opacity:1"
         offset="0.04752062"
         id="stop143821" />
      <stop
         style="stop-color:#facf4c;stop-opacity:1"
         offset="0.39395982"
         id="stop143887" />
      <stop
         style="stop-color:#faedcb;stop-opacity:1"
         offset="0.67272025"
         id="stop144081" />
      <stop
         style="stop-color:#d5ae36;stop-opacity:1"
         offset="1"
         id="stop143717" />
    </linearGradient>
    <linearGradient
       inkscape:collect="always"
       xlink:href="#linearGradient143719"
       id="linearGradient15"
       gradientUnits="userSpaceOnUse"
       gradientTransform="matrix(0.13538837,0,0,0.13538837,-33.772062,-90.506031)"
       x1="414.18558"
       y1="939.76465"
       x2="583.83008"
       y2="939.76465" />
    <linearGradient
       inkscape:collect="always"
       xlink:href="#linearGradient143719"
       id="linearGradient16"
       gradientUnits="userSpaceOnUse"
       gradientTransform="matrix(0.13538837,0,0,0.13538837,-55.677058,-90.506031)"
       x1="414.18558"
       y1="939.76465"
       x2="583.83008"
       y2="939.76465" />
    <linearGradient
       inkscape:collect="always"
       xlink:href="#linearGradient143719"
       id="linearGradient17"
       gradientUnits="userSpaceOnUse"
       gradientTransform="matrix(0.13538837,0,0,0.13538837,-44.321653,-104.00303)"
       x1="414.18558"
       y1="939.76465"
       x2="583.83008"
       y2="939.76465" />
    <linearGradient
       inkscape:collect="always"
       xlink:href="#linearGradient143719"
       id="linearGradient18"
       gradientUnits="userSpaceOnUse"
       gradientTransform="matrix(0.13538837,0,0,0.13538837,-22.208495,-104.00303)"
       x1="414.18558"
       y1="939.76465"
       x2="583.83008"
       y2="939.76465" />
    <linearGradient
       inkscape:collect="always"
       xlink:href="#linearGradient143719"
       id="linearGradient19"
       gradientUnits="userSpaceOnUse"
       gradientTransform="matrix(0.13538837,0,0,0.13538837,-33.016052,-117.50002)"
       x1="414.18558"
       y1="939.76465"
       x2="583.83008"
       y2="939.76465" />
    <linearGradient
       inkscape:collect="always"
       xlink:href="#linearGradient143719"
       id="linearGradient143721-9"
       x1="414.18558"
       y1="939.76465"
       x2="583.83008"
       y2="939.76465"
       gradientUnits="userSpaceOnUse"
       gradientTransform="matrix(0.0620237,0,0,0.45575873,-86.518336,-394.88532)" />
  </defs>
  <sodipodi:namedview
     id="namedview6"
     pagecolor="#ffffff"
     bordercolor="#111111"
     borderopacity="1"
     inkscape:showpageshadow="0"
     inkscape:pageopacity="0"
     inkscape:pagecheckerboard="1"
     inkscape:deskcolor="#d1d1d1"
     inkscape:zoom="5.019636"
     inkscape:cx="-17.829978"
     inkscape:cy="79.786662"
     inkscape:window-width="3440"
     inkscape:window-height="1417"
     inkscape:window-x="-8"
     inkscape:window-y="-8"
     inkscape:window-maximized="1"
     inkscape:current-layer="svg6" />
  <g
     id="g6"
     transform="translate(0,2.4042166)">
    <path
       id="rect1691"
       style="display:inline;fill:url(#linearGradient143721);stroke-width:0.882929;stroke-linecap:round;stroke-linejoin:round;paint-order:fill markers stroke"
       d="m 48.052734,28.758938 -3.80664,13.27539 H 66 l -3.263672,-13.27539 z" />
    <path
       id="path9"
       style="display:inline;fill:url(#linearGradient15);stroke-width:0.882929;stroke-linecap:round;stroke-linejoin:round;paint-order:fill markers stroke"
       d="m 26.147738,28.758938 -3.80664,13.27539 h 21.753906 l -3.263672,-13.27539 z" />
    <path
       id="path10"
       style="display:inline;fill:url(#linearGradient16);stroke-width:0.882929;stroke-linecap:round;stroke-linejoin:round;paint-order:fill markers stroke"
       d="M 4.2427421,28.758938 0.43610211,42.034328 H 22.190008 l -3.263672,-13.27539 z" />
    <path
       id="path11"
       style="display:inline;fill:url(#linearGradient17);stroke-width:0.882929;stroke-linecap:round;stroke-linejoin:round;paint-order:fill markers stroke"
       d="m 15.598147,15.261943 -3.80664,13.27539 h 21.753906 l -3.263672,-13.27539 z" />
    <path
       id="path12"
       style="display:inline;fill:url(#linearGradient18);stroke-width:0.882929;stroke-linecap:round;stroke-linejoin:round;paint-order:fill markers stroke"
       d="m 37.711305,15.261943 -3.80664,13.27539 h 21.753906 l -3.263672,-13.27539 z" />
    <path
       id="path18"
       style="display:inline;fill:url(#linearGradient19);stroke-width:0.882929;stroke-linecap:round;stroke-linejoin:round;paint-order:fill markers stroke"
       d="M 26.903748,1.7649482 23.097108,15.040338 H 44.851014 L 41.587342,1.7649482 Z" />
  </g>
</svg>
