<?xml version="1.0" encoding="UTF-8" standalone="no"?>
<!-- Created with Inkscape (http://www.inkscape.org/) -->

<svg
   width="200mm"
   height="200mm"
   viewBox="0 0 200 200"
   version="1.1"
   id="svg1"
   xmlns="http://www.w3.org/2000/svg"
   xmlns:svg="http://www.w3.org/2000/svg">
  <defs
     id="defs1" />
  <path
     id="text1"
     style="font-size:2660.38px;font-family:'AC Boucle';-inkscape-font-specification:'AC Boucle';fill:#ffcc00;stroke-width:4.97721;stroke-linejoin:bevel;paint-order:markers fill stroke"
     d="M 6204.6092 -6315.4633 L 6528.4715 -4431.6597 L 6658.0076 -4431.6597 L 6895.5173 -5756.8012 L 7122.2165 -4431.6597 L 7254.4626 -4431.6597 L 7578.3249 -6315.4633 L 7443.3835 -6315.4633 L 7186.9919 -4836.4839 L 6930.6003 -6315.4633 L 6798.3543 -6315.4633 L 6828.0466 -6140.0336 L 6593.2468 -4831.0933 L 6336.8553 -6315.4633 L 6204.6092 -6315.4633 z M 7875.2048 -6315.4633 L 7875.2048 -4431.6597 L 8007.4362 -4431.6597 L 8007.4362 -5184.6333 L 8280.029 -5184.6333 C 8319.6121 -5184.6333 8359.1861 -5191.8312 8398.7692 -5206.2251 C 8440.1515 -5222.4181 8476.1412 -5244.9081 8506.7282 -5273.6958 C 8539.1143 -5302.4835 8565.2033 -5336.681 8584.9948 -5376.2641 C 8604.7863 -5417.6465 8614.6871 -5464.4185 8614.6871 -5516.5962 L 8614.6871 -5802.6801 L 8614.6871 -6007.7875 C 8614.6871 -6054.5676 8604.7863 -6096.8445 8584.9948 -6134.6283 C 8567.0025 -6172.4122 8542.7203 -6204.8029 8512.1334 -6231.7914 C 8483.3457 -6258.7799 8450.0589 -6279.4776 8412.275 -6293.8715 C 8376.2904 -6308.2654 8339.4046 -6315.4633 8301.6208 -6315.4633 L 8007.4362 -6315.4633 L 7875.2048 -6315.4633 z M 8007.4362 -6183.2172 L 8301.6208 -6183.2172 C 8344.8023 -6183.2172 8385.2871 -6167.0145 8423.0709 -6134.6283 C 8462.654 -6104.0414 8482.4411 -6061.7645 8482.4411 -6007.7875 L 8482.4411 -5802.6801 L 8482.4411 -5516.5962 C 8482.4411 -5482.4108 8475.2431 -5452.7229 8460.8493 -5427.5337 C 8448.2547 -5402.3444 8431.1559 -5381.6614 8409.5651 -5365.4682 C 8389.7735 -5349.2752 8368.1943 -5336.6715 8344.8044 -5327.6753 C 8321.4143 -5320.4783 8299.8205 -5316.8794 8280.029 -5316.8794 L 8007.4362 -5316.8794 L 8007.4362 -6183.2172 z M 5120.5809 -4271.6402 C 5119.1721 -4271.6402 5080.6621 -4195.5543 5034.6385 -4102.5679 C 4971.2388 -3974.3594 4948.6956 -3932.5608 4941.1815 -3931.1519 C 4931.789 -3928.8038 4843.0256 -3913.318 4676.7772 -3885.6099 C 4626.9967 -3877.1566 4587.084 -3869.1632 4587.5536 -3867.2847 C 4588.4929 -3865.4062 4635.4502 -3814.6929 4692.2753 -3754.1109 C 4749.1002 -3693.9985 4806.4059 -3632.9507 4819.5555 -3618.8619 L 4843.9745 -3593.0221 L 4828.4764 -3485.0045 C 4819.5535 -3425.8313 4807.3364 -3339.8926 4800.7616 -3295.2779 C 4794.1868 -3250.1936 4789.4952 -3212.6333 4790.4345 -3211.694 C 4791.3738 -3210.7547 4801.2386 -3215.4472 4812.5097 -3221.5524 C 4882.9538 -3260.0618 5114.0106 -3379.3453 5118.2372 -3379.3453 C 5121.055 -3379.3453 5194.7868 -3341.3033 5282.6073 -3294.3404 C 5370.4277 -3247.8473 5443.2101 -3210.7538 5444.619 -3212.1627 C 5446.9671 -3214.5109 5443.2199 -3244.5684 5407.9979 -3493.4713 L 5394.3748 -3591.1471 L 5523.5155 -3728.2857 C 5649.8454 -3861.6601 5653.1347 -3865.4183 5639.9852 -3868.7056 C 5632.9408 -3870.5842 5589.2696 -3878.5647 5543.7157 -3886.0787 C 5277.9062 -3932.1022 5281.6698 -3931.1593 5281.6698 -3942.9 C 5281.6698 -3947.5962 5122.9291 -4271.6402 5120.5809 -4271.6402 z M 6267.2312 -4271.6402 C 6265.8229 -4271.6402 6227.3119 -4195.5543 6181.2889 -4102.5679 C 6117.8889 -3974.3594 6095.3463 -3932.5608 6087.8318 -3931.1519 C 6078.4396 -3928.8038 5989.6759 -3913.318 5823.4276 -3885.6099 C 5773.647 -3877.1566 5733.7343 -3869.1632 5734.2039 -3867.2847 C 5735.1432 -3865.4062 5782.1005 -3814.6929 5838.9256 -3754.1109 C 5895.7506 -3693.9985 5953.0418 -3632.9507 5966.1912 -3618.8619 L 5990.6102 -3593.0221 L 5975.1121 -3485.0045 C 5966.1893 -3425.8313 5953.9867 -3339.8926 5947.4119 -3295.2779 C 5940.8372 -3250.1936 5936.1459 -3212.6333 5937.0848 -3211.694 C 5938.0245 -3210.7547 5947.8738 -3215.4472 5959.1453 -3221.5524 C 6029.5895 -3260.0618 6260.6462 -3379.3453 6264.8728 -3379.3453 C 6267.6904 -3379.3453 6341.4226 -3341.3033 6429.2429 -3294.3404 C 6517.0632 -3247.8473 6589.8609 -3210.7538 6591.2693 -3212.1627 C 6593.6174 -3214.5109 6589.8561 -3244.5684 6554.6336 -3493.4713 L 6541.0252 -3591.1471 L 6670.1658 -3728.2857 C 6796.4963 -3861.6601 6799.785 -3865.4183 6786.6355 -3868.7056 C 6779.5913 -3870.5842 6735.9197 -3878.5647 6690.366 -3886.0787 C 6424.5563 -3932.1022 6428.3054 -3931.1593 6428.3054 -3942.9 C 6428.3054 -3947.5962 6269.5793 -4271.6402 6267.2312 -4271.6402 z M 7413.8669 -4271.6402 C 7412.4585 -4271.6402 7373.9477 -4195.5543 7327.9245 -4102.5679 C 7264.5245 -3974.3594 7241.9966 -3932.5608 7234.4822 -3931.1519 C 7225.0899 -3928.8038 7136.3263 -3913.318 6970.0779 -3885.6099 C 6920.2973 -3877.1566 6880.37 -3869.1632 6880.8396 -3867.2847 C 6881.7789 -3865.4062 6928.7508 -3814.6929 6985.5759 -3754.1109 C 7042.4006 -3693.9985 7099.6921 -3632.9507 7112.8415 -3618.8619 L 7137.2605 -3593.0221 L 7121.7624 -3485.0045 C 7112.8396 -3425.8313 7100.637 -3339.8926 7094.0622 -3295.2779 C 7087.4875 -3250.1936 7082.7815 -3212.6333 7083.7204 -3211.694 C 7084.6601 -3210.7547 7094.524 -3215.4472 7105.7956 -3221.5524 C 7176.2399 -3260.0618 7407.2965 -3379.3453 7411.5232 -3379.3453 C 7414.3407 -3379.3453 7488.0729 -3341.3033 7575.8933 -3294.3404 C 7663.7129 -3247.8473 7736.5112 -3210.7538 7737.9196 -3212.1627 C 7740.2677 -3214.5109 7736.5064 -3244.5684 7701.2839 -3493.4713 L 7687.6608 -3591.1471 L 7816.8161 -3728.2857 C 7943.1467 -3861.6601 7946.4353 -3865.4183 7933.2858 -3868.7056 C 7926.2416 -3870.5842 7882.57 -3878.5647 7837.0163 -3886.0787 C 7571.2071 -3932.1022 7574.9558 -3931.1593 7574.9558 -3942.9 C 7574.9558 -3947.5962 7416.215 -4271.6402 7413.8669 -4271.6402 z M 8560.5172 -4271.6402 C 8559.1088 -4271.6402 8520.598 -4195.5543 8474.5749 -4102.5679 C 8411.1748 -3974.3594 8388.6322 -3932.5608 8381.1178 -3931.1519 C 8371.7256 -3928.8038 8282.962 -3913.318 8116.7135 -3885.6099 C 8066.9332 -3877.1566 8027.0205 -3869.1632 8027.4899 -3867.2847 C 8028.4296 -3865.4062 8075.387 -3814.6929 8132.2116 -3754.1109 C 8189.0361 -3693.9985 8246.3424 -3632.9507 8259.4919 -3618.8619 L 8283.9108 -3593.0221 L 8268.4128 -3485.0045 C 8259.49 -3425.8313 8247.2726 -3339.8926 8240.6979 -3295.2779 C 8234.1232 -3250.1936 8229.4318 -3212.6333 8230.3708 -3211.694 C 8231.3104 -3210.7547 8241.1743 -3215.4472 8252.446 -3221.5524 C 8322.8902 -3260.0618 8553.9468 -3379.3453 8558.1735 -3379.3453 C 8560.991 -3379.3453 8634.724 -3341.3033 8722.5436 -3294.3404 C 8810.364 -3247.8473 8883.1616 -3210.7538 8884.5699 -3212.1627 C 8886.918 -3214.5109 8883.1567 -3244.5684 8847.9342 -3493.4713 L 8834.3112 -3591.1471 L 8963.4664 -3728.2857 C 9089.7963 -3861.6601 9093.0856 -3865.4183 9079.9361 -3868.7056 C 9072.8919 -3870.5842 9029.2056 -3878.5647 8983.652 -3886.0787 C 8717.842 -3932.1022 8721.6061 -3931.1593 8721.6061 -3942.9 C 8721.6061 -3947.5962 8562.8653 -4271.6402 8560.5172 -4271.6402 z M 9707.1675 -4271.6402 C 9705.7592 -4271.6402 9667.2483 -4195.5543 9621.2252 -4102.5679 C 9557.8251 -3974.3594 9535.2826 -3932.5608 9527.7681 -3931.1519 C 9518.3759 -3928.8038 9429.6124 -3913.318 9263.3639 -3885.6099 C 9213.5835 -3877.1566 9173.67 -3869.1632 9174.1402 -3867.2847 C 9175.0792 -3865.4062 9222.0366 -3814.6929 9278.8619 -3754.1109 C 9335.6865 -3693.9985 9392.9781 -3632.9507 9406.1275 -3618.8619 L 9430.5611 -3593.0221 L 9415.0631 -3485.0045 C 9406.1403 -3425.8313 9393.923 -3339.8926 9387.3482 -3295.2779 C 9380.7735 -3250.1936 9376.0822 -3212.6333 9377.0211 -3211.694 C 9377.9608 -3210.7547 9387.8246 -3215.4472 9399.0963 -3221.5524 C 9469.5405 -3260.0618 9700.5971 -3379.3453 9704.8238 -3379.3453 C 9707.6413 -3379.3453 9781.3735 -3341.3033 9869.1939 -3294.3404 C 9957.0143 -3247.8473 10029.797 -3210.7538 10031.206 -3212.1627 C 10033.554 -3214.5109 10029.807 -3244.5684 9994.5845 -3493.4713 L 9980.9615 -3591.1471 L 10110.102 -3728.2857 C 10236.433 -3861.6601 10239.721 -3865.4183 10226.572 -3868.7056 C 10219.528 -3870.5842 10175.856 -3878.5647 10130.302 -3886.0787 C 9864.4923 -3932.1022 9868.2418 -3931.1593 9868.2418 -3942.9 C 9868.2418 -3947.5962 9709.5156 -4271.6402 9707.1675 -4271.6402 z M 7097.0505 -2964.0914 L 7102.3679 -2043.5983 L 7232.7243 -2038.2809 C 7250.4602 -2064.8847 7269.9764 -2082.6161 7291.2595 -2091.4841 C 7312.5425 -2100.352 7340.0321 -2104.7849 7373.7302 -2104.7849 L 7445.5661 -2104.7849 C 7465.0756 -2104.7849 7486.3474 -2100.352 7509.404 -2091.4841 C 7532.4606 -2084.3897 7553.7471 -2072.8614 7573.2565 -2056.8991 C 7594.5395 -2040.9369 7611.3932 -2020.5428 7623.8083 -1995.7126 C 7637.997 -1970.8824 7645.0925 -1941.6226 7645.0925 -1907.9245 L 7645.0925 -1623.2614 L 7645.0925 -1421.0691 C 7645.0925 -1367.8615 7625.5762 -1325.3032 7586.5573 -1293.3787 C 7549.312 -1263.2277 7509.4163 -1248.1443 7466.8503 -1248.1443 L 7373.7302 -1248.1443 C 7357.7679 -1248.1443 7338.2517 -1249.9145 7315.195 -1253.4617 C 7293.9121 -1258.7824 7272.6402 -1268.5406 7251.3572 -1282.7292 C 7230.0741 -1296.918 7211.4503 -1316.4342 7195.488 -1341.2644 C 7181.2994 -1367.8682 7174.2038 -1402.4532 7174.2038 -1445.0193 L 7043.8474 -1445.0193 C 7043.8474 -1347.4721 7073.1072 -1268.5438 7131.6355 -1208.2419 C 7191.9374 -1147.9401 7272.6358 -1117.7878 7373.7302 -1117.7878 L 7466.8503 -1120.4539 C 7504.0956 -1120.4539 7540.4509 -1127.5494 7575.9226 -1141.738 C 7613.1679 -1155.9267 7645.9827 -1175.4283 7674.3601 -1200.2585 C 7704.511 -1226.8623 7728.4455 -1258.7848 7746.1813 -1296.03 C 7765.6907 -1333.2753 7775.4489 -1374.9559 7775.4489 -1421.0691 L 7775.4489 -1623.2614 C 7773.6754 -1662.2803 7772.7829 -1703.9609 7772.7829 -1748.3005 L 7772.7829 -1907.9245 C 7772.7829 -1957.5849 7763.0394 -2002.8058 7743.53 -2043.5983 C 7724.0205 -2084.3908 7698.3012 -2118.0981 7666.3767 -2144.7018 C 7636.2257 -2173.0792 7601.6407 -2194.3511 7562.6218 -2208.5397 C 7523.603 -2224.502 7484.585 -2232.4899 7445.5661 -2232.4899 L 7373.7302 -2232.4899 C 7322.2962 -2232.4899 7274.4126 -2221.8394 7230.073 -2200.5563 L 7227.407 -2836.3864 L 7772.7829 -2836.3864 L 7772.7829 -2964.0914 L 7097.0505 -2964.0914 z "
     transform="matrix(0.03527778,0,0,0.03527778,-161.39584,231.99548)" />
</svg>
