<?xml version="1.0" encoding="UTF-8" standalone="no"?>
<!-- Created with Inkscape (http://www.inkscape.org/) -->

<svg
   width="500"
   height="500"
   viewBox="0 0 500 500"
   version="1.1"
   id="svg5"
   xml:space="preserve"
   sodipodi:docname="cross.svg"
   inkscape:version="1.2.1 (9c6d41e410, 2022-07-14)"
   xmlns:inkscape="http://www.inkscape.org/namespaces/inkscape"
   xmlns:sodipodi="http://sodipodi.sourceforge.net/DTD/sodipodi-0.dtd"
   xmlns="http://www.w3.org/2000/svg"
   xmlns:svg="http://www.w3.org/2000/svg"><sodipodi:namedview
     id="namedview7"
     pagecolor="#ffffff"
     bordercolor="#111111"
     borderopacity="1"
     inkscape:showpageshadow="0"
     inkscape:pageopacity="0"
     inkscape:pagecheckerboard="1"
     inkscape:deskcolor="#d1d1d1"
     inkscape:document-units="px"
     showgrid="false"
     inkscape:zoom="1.4041667"
     inkscape:cx="-251.03857"
     inkscape:cy="259.22848"
     inkscape:window-width="3440"
     inkscape:window-height="1417"
     inkscape:window-x="-8"
     inkscape:window-y="-8"
     inkscape:window-maximized="1"
     inkscape:current-layer="layer1" /><defs
     id="defs2" /><g
     inkscape:label="Слой 1"
     inkscape:groupmode="layer"
     id="layer1"><path
       id="path360"
       style="display:inline;fill:#000000;fill-opacity:1;stroke:#ffffff;stroke-width:4.91263;stroke-dasharray:none;stroke-opacity:1"
       d="m 76.716821,76.716787 a 245.06024,245.06017 0 0 0 0,346.566463 245.06024,245.06017 0 0 0 346.566539,0 245.06024,245.06017 0 0 0 0,-346.566463 245.06024,245.06017 0 0 0 -346.566539,0 z M 93.461399,124.13891 219.32252,250.00001 93.461399,375.8611 a 201.39533,201.39528 0 0 1 0,-251.72219 z M 124.13897,93.46136 a 201.39533,201.39528 0 0 1 251.72224,0 L 250.0001,219.32245 Z m 0,313.07731 125.86113,-125.86109 125.86111,125.86108 a 201.39533,201.39528 0 0 1 -251.72224,1e-5 z m 156.5387,-156.53866 125.86111,-125.8611 a 201.39533,201.39528 0 0 1 0,251.72219 z" /></g></svg>
