<svg width="25" height="23" viewBox="0 0 25 23" fill="none" xmlns="http://www.w3.org/2000/svg">
<path d="M24.1043 16.8733C23.9895 16.3502 23.5173 15.9706 22.9817 15.9706H15.7086C15.173 15.9706 14.7008 16.3502 14.5859 16.8733L13.7174 20.827C13.6423 21.1689 13.725 21.5213 13.9443 21.794C14.1636 22.0666 14.4901 22.2231 14.84 22.2231H23.8502C24.2002 22.2231 24.5266 22.0667 24.7459 21.794C24.9652 21.5213 25.0479 21.1689 24.9728 20.827L24.1043 16.8733Z" fill="#DDDDDD"/>
<path d="M10.414 16.8733C10.2991 16.3502 9.82696 15.9706 9.29134 15.9706H2.01823C1.48267 15.9706 1.01048 16.3502 0.895584 16.8733L0.0270965 20.827C-0.0480038 21.1689 0.034714 21.5213 0.254009 21.794C0.473304 22.0666 0.79978 22.2231 1.14974 22.2231H10.1599C10.5098 22.2231 10.8363 22.0667 11.0556 21.794C11.2749 21.5213 11.3576 21.1689 11.2825 20.827L10.414 16.8733Z" fill="#DDDDDD"/>
<path d="M17.0195 14.5056C17.3695 14.5056 17.6959 14.3492 17.9152 14.0764C18.1345 13.8037 18.2172 13.4513 18.1421 13.1095L17.2736 9.15582C17.1587 8.6327 16.6866 8.25305 16.151 8.25305H8.8779C8.34233 8.25305 7.87015 8.6327 7.75525 9.15582L6.88672 13.1095C6.81162 13.4513 6.89433 13.8037 7.11363 14.0764C7.33292 14.3491 7.6594 14.5056 8.00931 14.5056H17.0195Z" fill="#DDDDDD"/>
<path d="M12.5124 4.77538C12.9169 4.77538 13.2448 4.44744 13.2448 4.04294V1.5093C13.2448 1.1048 12.9169 0.776855 12.5124 0.776855C12.1078 0.776855 11.7799 1.1048 11.7799 1.5093V4.04294C11.7799 4.44744 12.1078 4.77538 12.5124 4.77538Z" fill="#DDDDDD"/>
<path d="M16.9765 5.65053C17.1639 5.65053 17.3514 5.57904 17.4944 5.43597L19.286 3.6444C19.572 3.35836 19.572 2.89462 19.286 2.60858C19 2.32253 18.5362 2.32253 18.2501 2.60858L16.4586 4.40014C16.1725 4.68619 16.1725 5.14992 16.4586 5.43597C16.6016 5.57904 16.789 5.65053 16.9765 5.65053V5.65053Z" fill="#DDDDDD"/>
<path d="M7.44459 5.22934C7.58761 5.37236 7.77507 5.44385 7.96247 5.44385C8.14988 5.44385 8.33739 5.37236 8.48036 5.22929C8.76641 4.94324 8.76641 4.47951 8.48036 4.19346L6.6888 2.40189C6.4028 2.1159 5.93902 2.11585 5.65297 2.40189C5.36698 2.68794 5.36698 3.15168 5.65297 3.43772L7.44459 5.22934Z" fill="#DDDDDD"/>
</svg>
