<svg width="25" height="25" viewBox="0 0 25 25" fill="none" xmlns="http://www.w3.org/2000/svg">
<path d="M24.1214 12.8706L24.0888 12.8351C22.6092 11.2147 20.9123 9.61128 18.9013 7.93318C18.5973 7.67943 17.2204 6.59006 17.1561 6.53531C17.0918 6.48055 17.025 6.43285 17.0391 6.35964C17.0559 6.27273 17.0803 6.1789 17.109 6.08007C17.1345 5.99204 17.1609 5.90091 17.1811 5.80438C17.2178 5.62905 17.241 5.47282 17.2522 5.32661L17.2529 5.3187C17.2654 5.15569 17.2889 4.85233 17.0996 4.65024C17.0331 4.57947 16.9113 4.495 16.7072 4.495C16.5568 4.495 16.4093 4.5404 16.3213 4.56768L16.3116 4.57071C16.0721 4.64411 15.8587 4.75632 15.6994 4.84593C15.6073 4.89779 15.5152 4.95228 15.4263 5.00803C15.3996 5.0247 15.3729 5.04295 15.346 5.06153C15.2768 5.1093 15.2442 5.15325 15.1431 5.06706C15.0033 4.94405 13.4372 3.60798 9.22449 1.64384C8.54878 1.32882 7.84784 1.03949 7.14136 0.783968C6.44845 0.533451 5.68458 0.296772 4.80645 0.0604877L4.77964 0.0532397C4.67757 0.0256315 4.56694 0 4.45025 0C4.217 0 4.02169 0.107402 3.89993 0.302438C3.79958 0.463278 3.77434 0.659039 3.83081 0.839316C3.88985 1.02816 4.02987 1.18201 4.21462 1.26154L4.68647 1.46469C6.55697 2.26934 8.41206 3.38349 10.3578 4.87077C11.0248 5.38064 11.6279 5.87192 12.2015 6.37275C12.4726 6.60943 12.7431 6.84961 13.0056 7.08668C13.0289 7.10763 13.2278 7.29694 13.2278 7.29694L1.1536 21.6243C0.774007 22.0745 0.590896 22.5931 0.623908 23.124C0.655469 23.6311 0.890699 24.1221 1.26937 24.4712C1.63948 24.8123 2.12213 25 2.62857 25C2.69195 25 2.75613 24.997 2.81912 24.9909C3.39132 24.9362 3.91871 24.6313 4.26608 24.1544C4.37105 24.0105 14.5914 9.98416 15.1644 9.19624C16.7536 10.8371 18.2535 12.6075 19.6222 14.4583C19.8915 14.8223 20.3679 15.5007 20.3895 15.5334C20.4815 15.6745 20.586 15.8342 20.7337 15.9519C20.8452 16.0406 20.975 16.0876 21.1091 16.0876C21.3183 16.0876 21.4883 15.9747 21.598 15.8897L24.0743 13.9717C24.3697 13.715 24.3784 13.4552 24.3784 13.4552C24.3971 13.1695 24.2248 12.9826 24.1214 12.8706Z" fill="#DDDDDD"/>
</svg>
