<svg width="17" height="13" viewBox="0 0 17 13" fill="none" xmlns="http://www.w3.org/2000/svg">
<path d="M15.7168 10.1024H5.45254C4.74381 10.1024 4.16919 10.6704 4.16919 11.371C4.16919 12.0709 4.74381 12.639 5.45254 12.639H15.7168C16.4253 12.639 16.9999 12.0709 16.9999 11.371C16.9999 10.6707 16.4253 10.1024 15.7168 10.1024Z" fill="#DDDDDD"/>
<path d="M15.7168 5.05493H5.45254C4.74381 5.05493 4.16919 5.62269 4.16919 6.32321C4.16919 7.02346 4.74381 7.59121 5.45254 7.59121H15.7168C16.4253 7.59121 16.9999 7.02346 16.9999 6.32321C16.9999 5.62296 16.4253 5.05493 15.7168 5.05493Z" fill="#DDDDDD"/>
<path d="M5.45254 2.54385H15.7168C16.4253 2.54385 16.9999 1.97609 16.9999 1.27557C16.9999 0.575054 16.4253 0.00756836 15.7168 0.00756836H5.45254C4.74381 0.00756836 4.16919 0.575324 4.16919 1.27557C4.16919 1.97582 4.74381 2.54385 5.45254 2.54385Z" fill="#DDDDDD"/>
<path d="M1.30274 2.57433C2.02223 2.57433 2.60549 1.99805 2.60549 1.28716C2.60549 0.576283 2.02223 0 1.30274 0C0.583258 0 0 0.576283 0 1.28716C0 1.99805 0.583258 2.57433 1.30274 2.57433Z" fill="#DDDDDD"/>
<path d="M1.30283 7.61017C2.02216 7.61017 2.60529 7.034 2.60529 6.32327C2.60529 5.61254 2.02216 5.03638 1.30283 5.03638C0.583499 5.03638 0.000366211 5.61254 0.000366211 6.32327C0.000366211 7.034 0.583499 7.61017 1.30283 7.61017Z" fill="#DDDDDD"/>
<path d="M1.30274 12.6579C2.02223 12.6579 2.60549 12.0817 2.60549 11.3708C2.60549 10.6599 2.02223 10.0836 1.30274 10.0836C0.583258 10.0836 0 10.6599 0 11.3708C0 12.0817 0.583258 12.6579 1.30274 12.6579Z" fill="#DDDDDD"/>
</svg>
