<svg width="25" height="25" viewBox="0 0 25 25" fill="none" xmlns="http://www.w3.org/2000/svg">
<g clip-path="url(#clip0)">
<path d="M24.5759 0.133592C24.3129 -0.0288465 23.9846 -0.043704 23.708 0.0943037L16.942 3.47816L9.29123 0.0773012C9.27872 0.0719651 9.26444 0.0710234 9.25105 0.0656872C9.21663 0.0528177 9.18142 0.042093 9.14569 0.0335656C9.11016 0.0239919 9.07407 0.0165109 9.03766 0.011227C8.96515 0.00526306 8.89227 0.00526306 8.81981 0.011227C8.7834 0.0165109 8.74731 0.0239919 8.71178 0.0335656C8.67605 0.042093 8.64084 0.0528177 8.60642 0.0656872C8.59303 0.0710234 8.57875 0.0719127 8.56624 0.0773012L0.530564 3.64871C0.20804 3.792 0.000191835 4.11186 0.00024415 4.46478V24.1074C0.000191835 24.6006 0.399881 25.0004 0.893004 25.0004C1.01793 25.0004 1.14145 24.9743 1.2556 24.9235L8.92873 21.5128L16.6019 24.9235C16.6153 24.9288 16.6295 24.9235 16.6429 24.9316C16.8591 25.0282 17.1072 25.0227 17.3188 24.9164C17.3331 24.9102 17.3491 24.9164 17.3634 24.9066L24.5062 21.3351C24.8089 21.1839 25.0001 20.8745 24.9999 20.536V0.893367C24.9999 0.583713 24.8394 0.296136 24.5759 0.133592Z" fill="#DDDDDD"/>
<rect x="8.57141" width="0.714287" height="22.1429" fill="#50505B"/>
<rect x="16.4286" y="2.85718" width="0.714293" height="22.1429" fill="#50505B"/>
</g>
<defs>
<clipPath id="clip0">
<rect width="25" height="25" fill="white"/>
</clipPath>
</defs>
</svg>
