<svg width="25" height="25" viewBox="0 0 25 25" fill="none" xmlns="http://www.w3.org/2000/svg">
<path d="M12.4108 5.20835C13.8493 5.20835 15.0149 4.04272 15.0149 2.6042C15.0149 1.16563 13.8493 0 12.4108 0C10.9723 0 9.80664 1.16563 9.80664 2.60415C9.80659 4.04272 10.9733 5.20835 12.4108 5.20835V5.20835Z" fill="#DDDDDD"/>
<path d="M19.792 6.24993C21.2305 6.24993 22.3962 5.0843 22.3962 3.64578C22.3962 2.20828 21.2305 1.04163 19.792 1.04163C18.3535 1.04163 17.1879 2.20725 17.1879 3.64578C17.1878 5.0843 18.3545 6.24993 19.792 6.24993Z" fill="#DDDDDD"/>
<path d="M5.20864 6.24993C6.64717 6.24993 7.81279 5.0843 7.81279 3.64578C7.81279 2.20828 6.64717 1.04163 5.20864 1.04163C3.77114 1.04163 2.60449 2.20828 2.60449 3.64578C2.60449 5.0843 3.77114 6.24993 5.20864 6.24993Z" fill="#DDDDDD"/>
<path d="M24.3284 14.9114L23.6607 9.57288C23.4982 8.27288 22.3878 7.29163 21.0774 7.29163H18.5055C18.2159 7.29163 17.9242 7.34265 17.6378 7.44475C17.3815 7.53538 17.2388 7.80725 17.3086 8.06975C17.3596 8.26248 17.4076 8.45828 17.4315 8.6614L18.1221 14.7114C18.2128 15.5124 17.9628 16.3104 17.4357 16.901C17.3211 17.0302 17.1804 17.151 16.9961 17.2833C16.8482 17.3885 16.7658 17.5635 16.7794 17.7437L17.1888 23.4739C17.2086 23.7468 17.4346 23.9583 17.7086 23.9583H21.8752C22.1481 23.9583 22.3752 23.7468 22.395 23.4749L22.8815 16.6635C23.2919 16.6364 23.6762 16.4489 23.9502 16.1385C24.2462 15.802 24.3847 15.3562 24.3284 14.9114V14.9114Z" fill="#DDDDDD"/>
<path d="M7.96802 17.3854C7.74405 17.2448 7.54825 17.0823 7.38575 16.9021C6.85865 16.3115 6.60865 15.5136 6.69927 14.7125L7.3899 8.6625C7.4149 8.44375 7.46387 8.23335 7.52115 8.02812C7.55865 7.89375 7.5399 7.75 7.47012 7.62813C7.40137 7.50728 7.28575 7.41978 7.15137 7.38437C6.91075 7.32187 6.7024 7.29272 6.4941 7.29272H3.92217C2.61177 7.29272 1.5003 8.27295 1.33882 9.57397L0.671148 14.9115C0.615923 15.3563 0.753423 15.8032 1.0503 16.1396C1.32427 16.45 1.70865 16.6375 2.11905 16.6646L2.60552 23.4761C2.6253 23.749 2.85137 23.9595 3.1253 23.9595H7.29195C7.56485 23.9595 7.79195 23.748 7.81172 23.4761L8.21275 17.8646C8.2274 17.6709 8.13262 17.4865 7.96802 17.3854V17.3854Z" fill="#DDDDDD"/>
<path d="M17.0868 14.8302L16.3962 8.7792C16.2316 7.3375 15.09 6.25 13.741 6.25H11.0816C9.73263 6.25 8.58996 7.3375 8.42638 8.77915L7.73576 14.8292C7.67741 15.3354 7.83366 15.8375 8.16388 16.2083C8.44826 16.5271 8.82536 16.7114 9.23366 16.7343L9.80866 24.5177C9.82843 24.7885 10.0555 25 10.3284 25H14.4951C14.768 25 14.9941 24.7896 15.0149 24.5177L15.5899 16.7343C15.9992 16.7114 16.3753 16.526 16.6596 16.2083C16.9889 15.8396 17.1441 15.3354 17.0868 14.8302Z" fill="#DDDDDD"/>
</svg>
