<svg width="25" height="21" viewBox="0 0 25 21" fill="none" xmlns="http://www.w3.org/2000/svg">
<path d="M25 5.35473V1.67432C25 1.26982 24.6721 0.941895 24.2676 0.941895H0.732422C0.32793 0.941895 0 1.26982 0 1.67432V5.35473H25Z" fill="#DDDDDD"/>
<path d="M11.0291 11.2385H13.9709C14.3782 11.2385 14.7095 10.9072 14.7095 10.5C14.7095 10.0928 14.3782 9.76147 13.9709 9.76147H11.0291C10.6218 9.76147 10.2905 10.0928 10.2905 10.5C10.2905 10.9072 10.6218 11.2385 11.0291 11.2385Z" fill="#DDDDDD"/>
<path d="M1.47095 6.81958V19.3257C1.47095 19.7302 1.79888 20.0581 2.20337 20.0581H22.7966C23.2011 20.0581 23.5291 19.7302 23.5291 19.3257V6.81958H1.47095ZM11.0291 8.29663H13.9709C15.1859 8.29663 16.1743 9.28506 16.1743 10.5C16.1743 11.7149 15.1859 12.7034 13.9709 12.7034H11.0291C9.81411 12.7034 8.82568 11.7149 8.82568 10.5C8.82568 9.28506 9.81411 8.29663 11.0291 8.29663Z" fill="#DDDDDD"/>
</svg>
