<svg width="25" height="25" viewBox="0 0 25 25" fill="none" xmlns="http://www.w3.org/2000/svg">
<g clip-path="url(#clip0)">
<path d="M8.1291 24.7761L12.9945 17.1199C13.1336 16.8994 13.1755 16.5717 13.0996 16.2854C13.0246 15.999 12.8466 15.8122 12.65 15.8122L9.24424 15.8122L9.24424 1.26538C9.24424 0.842755 9.02627 0.499756 8.7577 0.499756L6.81156 0.499756C6.54299 0.499756 6.32502 0.842755 6.32502 1.26538L6.32502 15.8122H2.91927C2.72271 15.8122 2.54464 15.999 2.46971 16.2854C2.44538 16.3788 2.43274 16.4798 2.43274 16.5778C2.43274 16.7769 2.48236 16.9729 2.5748 17.1199L7.44016 24.7761C7.63089 25.0747 7.93838 25.0747 8.1291 24.7761Z" fill="#DDDDDD"/>
</g>
<g clip-path="url(#clip1)">
<path d="M16.8713 0.223884L12.0059 7.88011C11.8668 8.10061 11.8249 8.4283 11.9008 8.71464C11.9757 9.00098 12.1538 9.18779 12.3504 9.18779L15.7561 9.18779L15.7561 23.7346C15.7561 24.1572 15.9741 24.5002 16.2427 24.5002H18.1888C18.4574 24.5002 18.6753 24.1572 18.6753 23.7346V9.18779H22.0811C22.2777 9.18779 22.4557 9.00098 22.5307 8.71464C22.555 8.62123 22.5676 8.52017 22.5676 8.42217C22.5676 8.22311 22.518 8.02711 22.4256 7.88011L17.5602 0.223884C17.3695 -0.0747088 17.062 -0.0747088 16.8713 0.223884Z" fill="#DDDDDD"/>
</g>
<defs>
<clipPath id="clip0">
<rect width="24.5003" height="15.5694" fill="white" transform="translate(15.5696 0.499756) rotate(90)"/>
</clipPath>
<clipPath id="clip1">
<rect width="24.5003" height="15.5694" fill="white" transform="translate(9.43079 24.5002) rotate(-90)"/>
</clipPath>
</defs>
</svg>
