<svg width="8" height="12" viewBox="0 0 8 12" fill="none" xmlns="http://www.w3.org/2000/svg">
<path d="M5.03027 1.26359V2.89364C5.03027 3.16016 5.27956 3.37622 5.5871 3.37622C5.89461 3.37622 6.14392 3.16016 6.14392 2.89364V1.26359C6.14392 0.997052 5.89461 0.781006 5.5871 0.781006C5.27956 0.781006 5.03027 0.997052 5.03027 1.26359Z" fill="#3D82EA"/>
<path d="M7.99988 2.89363V1.90702C7.99988 1.64049 7.75057 1.42444 7.44306 1.42444C7.13552 1.42444 6.88623 1.64049 6.88623 1.90702V2.89363C6.88623 3.16015 7.13552 3.37621 7.44306 3.37621C7.75057 3.37621 7.99988 3.16015 7.99988 2.89363Z" fill="#3D82EA"/>
<path d="M0.575684 4.01966C0.575684 5.07491 1.16963 6.01431 2.06055 6.59343V11.4407C2.06055 11.6208 2.22386 11.7624 2.43176 11.7624H6.88635C7.09426 11.7624 7.25757 11.6208 7.25757 11.4407V5.94355C7.74017 5.39665 8 4.71456 8 4.01966V3.90384C7.82927 3.97462 7.64366 4.01966 7.44318 4.01966C7.07938 4.01966 6.75271 3.89097 6.51514 3.67862C6.27756 3.89097 5.95089 4.01966 5.5871 4.01966C5.38662 4.01966 5.19358 3.98106 5.02285 3.90384C5.03027 3.94245 5.03027 3.98106 5.03027 4.01966C5.03027 4.54729 4.65163 5.01054 4.12453 5.20358C4.46603 5.46097 4.73328 5.78913 4.88179 6.1623C4.94863 6.3296 4.85211 6.51622 4.65906 6.57411C4.44378 6.63847 4.2433 6.5355 4.1839 6.38107C3.92405 5.73763 3.21874 5.30655 2.43176 5.30655C2.22386 5.30655 2.06055 5.16497 2.06055 4.98483C2.06055 4.80464 2.22386 4.66311 2.43176 4.66311H3.54541C3.95375 4.66311 4.28784 4.37356 4.28784 4.01966C4.28784 3.65934 3.9463 3.37622 3.54541 3.37622H1.31812C0.909778 3.37622 0.575684 3.66577 0.575684 4.01966Z" fill="#3D82EA"/>
<path d="M1.31812 2.73278H2.43176V1.26359C2.43176 0.997052 2.18246 0.781006 1.87494 0.781006C1.5674 0.781006 1.31812 0.997052 1.31812 1.26359V2.73278Z" fill="#3D82EA"/>
<path d="M3.17407 1.26359V2.73278H4.28772V1.26359C4.28772 0.997052 4.03841 0.781006 3.7309 0.781006C3.42336 0.781006 3.17407 0.997052 3.17407 1.26359Z" fill="#3D82EA"/>
</svg>
