<svg width="9" height="11" viewBox="0 0 9 11" fill="none" xmlns="http://www.w3.org/2000/svg">
<path d="M2.39372 7.6405H2.39167C2.25057 7.6405 2.13574 7.77063 2.13574 7.93054V10.6625H2.64964V7.93054C2.64965 7.77063 2.53483 7.6405 2.39372 7.6405V7.6405Z" fill="#DDDDDD"/>
<path d="M4.61638 7.24792H4.61433C4.47323 7.24792 4.3584 7.37806 4.3584 7.53797V10.6625H4.87229V7.53797C4.87231 7.37806 4.75748 7.24792 4.61638 7.24792V7.24792Z" fill="#DDDDDD"/>
<path d="M6.85539 7.6405H6.85334C6.71224 7.6405 6.59741 7.77063 6.59741 7.93054V10.6625H7.11131V7.93054C7.11132 7.77063 6.9965 7.6405 6.85539 7.6405V7.6405Z" fill="#DDDDDD"/>
<path d="M4.62366 4.7948C4.76557 4.7948 4.88061 4.66495 4.88061 4.50476C4.88061 4.34458 4.76557 4.21472 4.62366 4.21472C4.48174 4.21472 4.3667 4.34458 4.3667 4.50476C4.3667 4.66495 4.48174 4.7948 4.62366 4.7948Z" fill="#DDDDDD"/>
<path d="M6.09319 5.87104H9V5.17784C9 5.05699 8.93381 4.94871 8.83382 4.90617L4.87959 3.22726V2.5027H6.28513C6.4264 2.5027 6.54106 2.37276 6.54106 2.21266V1.24585C6.54106 1.08575 6.4264 0.955812 6.28513 0.955812H4.8647C4.8295 0.843276 4.73498 0.762451 4.62366 0.762451C4.48238 0.762451 4.36773 0.89239 4.36773 1.05249V3.2272L0.418949 4.90385L0.413325 4.90636C0.313507 4.94871 0.247314 5.05699 0.247314 5.17784V5.87104H3.15413C3.3118 5.87104 3.43957 6.01587 3.43957 6.19453C3.43957 6.37301 3.31178 6.51783 3.15413 6.51783H0.606636V10.3725C0.606636 10.5326 0.721293 10.6625 0.862567 10.6625H1.62403V7.93053C1.62403 7.4506 1.96835 7.0604 2.39181 7.0604H2.39386C2.81717 7.0604 3.16163 7.4506 3.16163 7.93053V10.6625H3.84633V7.538C3.84633 7.05828 4.19064 6.66788 4.6141 6.66788H4.61615C5.03963 6.66788 5.38393 7.05828 5.38393 7.538V10.6625H6.08568V7.93053C6.08568 7.4506 6.43016 7.0604 6.85346 7.0604H6.85551C7.27899 7.0604 7.62328 7.4506 7.62328 7.93053V10.6625H8.38475C8.52602 10.6625 8.64068 10.5326 8.64068 10.3725V6.51783H6.09319C5.93516 6.51783 5.80775 6.37252 5.80775 6.19453C5.80775 6.01587 5.93553 5.87104 6.09319 5.87104V5.87104ZM4.62366 5.37488C4.19966 5.37488 3.85486 4.98448 3.85486 4.50475C3.85486 4.02483 4.19968 3.63463 4.62366 3.63463C5.04763 3.63463 5.39246 4.02483 5.39246 4.50475C5.39246 4.98448 5.04765 5.37488 4.62366 5.37488V5.37488Z" fill="#DDDDDD"/>
</svg>
