<svg width="10" height="10" viewBox="0 0 10 10" fill="none" xmlns="http://www.w3.org/2000/svg">
<g clip-path="url(#clip0)">
<path d="M4.64038 2.63747C5.15825 2.63747 5.57788 2.21784 5.57788 1.69997C5.57788 1.18208 5.15825 0.762451 4.64038 0.762451C4.12251 0.762451 3.70288 1.18208 3.70288 1.69995C3.70286 2.21784 4.12288 2.63747 4.64038 2.63747Z" fill="#DDDDDD"/>
<path d="M7.2976 3.01245C7.81547 3.01245 8.2351 2.59282 8.2351 2.07495C8.2351 1.55745 7.81547 1.13745 7.2976 1.13745C6.77973 1.13745 6.36011 1.55708 6.36011 2.07495C6.36009 2.59282 6.7801 3.01245 7.2976 3.01245Z" fill="#DDDDDD"/>
<path d="M2.0476 3.01245C2.56547 3.01245 2.9851 2.59282 2.9851 2.07495C2.9851 1.55745 2.56547 1.13745 2.0476 1.13745C1.5301 1.13745 1.11011 1.55745 1.11011 2.07495C1.11011 2.59282 1.5301 3.01245 2.0476 3.01245Z" fill="#DDDDDD"/>
<path d="M8.93082 6.13059L8.69044 4.20871C8.63194 3.7407 8.23219 3.38745 7.76043 3.38745H6.83456C6.7303 3.38745 6.62531 3.40582 6.52217 3.44258C6.42992 3.4752 6.37854 3.57308 6.40368 3.66758C6.42205 3.73696 6.43931 3.80745 6.44792 3.88057L6.69655 6.05859C6.72918 6.34696 6.63918 6.63422 6.44942 6.84685C6.40816 6.89334 6.35754 6.93685 6.29116 6.98447C6.23792 7.02235 6.20828 7.08535 6.21317 7.15021L6.36054 9.21311C6.36766 9.31135 6.44905 9.38748 6.54766 9.38748H8.04766C8.1459 9.38748 8.22766 9.31135 8.23478 9.21348L8.40991 6.76133C8.55765 6.75157 8.69603 6.68407 8.79466 6.57233C8.9012 6.45121 8.95107 6.29071 8.93082 6.13059Z" fill="#DDDDDD"/>
<path d="M3.04134 7.02122C2.96071 6.9706 2.89022 6.9121 2.83172 6.84721C2.64196 6.63459 2.55196 6.34734 2.58459 6.05895L2.83321 3.88094C2.84221 3.80219 2.85984 3.72644 2.88046 3.65256C2.89396 3.60419 2.88721 3.55244 2.86209 3.50856C2.83734 3.46506 2.79572 3.43356 2.74734 3.42081C2.66072 3.39831 2.58571 3.38782 2.51073 3.38782H1.58483C1.11309 3.38782 0.712959 3.7407 0.654828 4.20907L0.414465 6.1306C0.394584 6.29072 0.444084 6.4516 0.550959 6.57273C0.64959 6.68447 0.787965 6.75197 0.935709 6.76173L1.11084 9.21388C1.11796 9.31212 1.19935 9.38788 1.29796 9.38788H2.79795C2.8962 9.38788 2.97795 9.31175 2.98507 9.21388L3.12944 7.19373C3.13471 7.12398 3.10059 7.05761 3.04134 7.02122Z" fill="#DDDDDD"/>
<path d="M6.32383 6.10135L6.07521 3.92297C6.01595 3.40395 5.60496 3.01245 5.11933 3.01245H4.16195C3.67632 3.01245 3.26496 3.40395 3.20607 3.92295L2.95745 6.10097C2.93644 6.28322 2.99269 6.46398 3.11157 6.59746C3.21395 6.71222 3.3497 6.77859 3.49669 6.78683L3.70369 9.58886C3.71081 9.68637 3.79257 9.76248 3.89081 9.76248H5.3908C5.48905 9.76248 5.57043 9.68674 5.57792 9.58886L5.78492 6.78683C5.9323 6.77859 6.06767 6.71183 6.17004 6.59746C6.28859 6.46473 6.34445 6.28322 6.32383 6.10135Z" fill="#DDDDDD"/>
</g>
<defs>
<clipPath id="clip0">
<rect width="9" height="9.00006" fill="white" transform="translate(0.172607 0.762451)"/>
</clipPath>
</defs>
</svg>
