<svg width="11" height="12" viewBox="0 0 11 12" fill="none" xmlns="http://www.w3.org/2000/svg">
<g clip-path="url(#clip0)">
<path d="M9.98336 2.5115C9.98318 2.50767 9.98279 2.50384 9.98219 2.50003C9.96844 2.47882 9.95154 2.46057 9.93738 2.43977C9.83469 2.28866 9.72596 2.14322 9.61122 2.00343C9.57979 1.96523 9.54834 1.92745 9.51613 1.8901C9.39798 1.75343 9.27406 1.62312 9.14438 1.49919C9.12041 1.47626 9.09801 1.45251 9.07404 1.43C8.75444 1.13427 8.4045 0.879052 8.03109 0.669397C8.01615 0.660916 8.00045 0.653704 7.98511 0.645199C7.81882 0.553925 7.64832 0.471879 7.47424 0.399432C7.43494 0.384162 7.39918 0.369713 7.36186 0.356979C7.20703 0.296719 7.04984 0.243944 6.89029 0.198656C6.84314 0.185077 6.79598 0.171075 6.74804 0.159187C6.59084 0.119718 6.43367 0.0895758 6.27293 0.0649545C6.22421 0.0573193 6.17627 0.0471226 6.12713 0.0407559C5.71316 -0.0135853 5.29462 -0.0135853 4.88062 0.0407559C4.83151 0.0471226 4.78357 0.0573193 4.73482 0.0649545C4.5741 0.0895758 4.41534 0.119718 4.25971 0.159187C4.21177 0.171075 4.16462 0.185077 4.11746 0.198656C3.95686 0.24392 3.79969 0.296694 3.6459 0.356979C3.60659 0.371404 3.57084 0.385853 3.53351 0.399432C3.35946 0.471879 3.18893 0.5539 3.02264 0.645199C3.00731 0.653679 2.9916 0.660892 2.97666 0.669397C2.60201 0.878828 2.25089 1.13402 1.93017 1.43C1.9062 1.45248 1.8838 1.47626 1.85983 1.49919C1.72884 1.62369 1.60491 1.75401 1.48808 1.8901C1.45587 1.92745 1.42441 1.96523 1.39298 2.00343C1.27797 2.14293 1.16925 2.28837 1.06683 2.43975C1.05269 2.46054 1.03579 2.4788 1.02202 2.50001C1.02022 2.50372 1.01864 2.50755 1.0173 2.51147C-0.338123 4.56318 -0.338123 7.31804 1.0173 9.36973C1.01864 9.37365 1.0202 9.37748 1.02202 9.38119C1.03577 9.4024 1.05267 9.42066 1.06683 9.44145C1.16927 9.59256 1.27797 9.738 1.39298 9.8778C1.42441 9.916 1.45587 9.95377 1.48808 9.99113C1.6065 10.1278 1.7304 10.2581 1.85983 10.382C1.8838 10.405 1.9062 10.4287 1.93017 10.4512C2.24977 10.747 2.59971 11.0022 2.97311 11.2118C2.98806 11.2203 3.00376 11.2275 3.0191 11.236C3.18539 11.3273 3.35589 11.4093 3.52996 11.4818C3.56927 11.4971 3.60503 11.5115 3.64235 11.5242C3.79718 11.5845 3.95437 11.6373 4.11392 11.6826C4.16107 11.6961 4.20823 11.7102 4.25617 11.722C4.41336 11.7615 4.57054 11.7916 4.73128 11.8163C4.78 11.8239 4.82794 11.8341 4.87708 11.8405C5.29105 11.8948 5.70959 11.8948 6.12359 11.8405C6.1727 11.8341 6.22064 11.8239 6.26938 11.8163C6.4301 11.7916 6.58886 11.7615 6.74449 11.722C6.79243 11.7102 6.83959 11.6961 6.88675 11.6826C7.0476 11.6373 7.2048 11.5845 7.35831 11.5242C7.39761 11.5098 7.43337 11.4954 7.4707 11.4818C7.64475 11.4093 7.81527 11.3273 7.98157 11.236C7.9969 11.2275 8.0126 11.2203 8.02755 11.2118C8.40095 11.0021 8.7509 10.747 9.07049 10.4512C9.09446 10.4287 9.11686 10.405 9.14083 10.382C9.27183 10.2578 9.39575 10.1275 9.51258 9.99113C9.54479 9.95377 9.57625 9.916 9.60768 9.8778C9.72269 9.738 9.83142 9.59256 9.93383 9.44145C9.94797 9.42066 9.96487 9.4024 9.97864 9.38119C9.98044 9.37748 9.98203 9.37365 9.98336 9.36973C11.3388 7.31807 11.3388 4.56321 9.98336 2.5115ZM9.53499 3.31458C9.91081 3.98311 10.1377 4.73678 10.1979 5.5162H7.84403C7.81521 5.01045 7.74152 4.50887 7.62398 4.01833C8.28889 3.88383 8.93248 3.64682 9.53499 3.31458ZM6.50204 0.964381C6.52405 0.969903 6.54525 0.977538 6.56727 0.983059C6.70795 1.01872 6.84746 1.05946 6.98382 1.11039C7.00466 1.11803 7.02508 1.12696 7.04553 1.13502C7.18071 1.18595 7.31392 1.2424 7.4444 1.3048C7.4672 1.31627 7.4896 1.329 7.5124 1.34047C7.63736 1.40471 7.75944 1.47417 7.87864 1.54888L7.95723 1.60023C8.0704 1.67494 8.18044 1.75488 8.28732 1.84006C8.31484 1.86169 8.34233 1.88251 8.36945 1.90626C8.47424 1.99114 8.57459 2.08212 8.67047 2.17919C8.69561 2.20381 8.72156 2.22801 8.74631 2.25347C8.84691 2.35661 8.94279 2.46569 9.03554 2.5786C9.04733 2.59345 9.0599 2.60703 9.07169 2.62105C8.53959 2.89495 7.9759 3.09053 7.39568 3.20254C7.12688 2.40441 6.7718 1.64333 6.33782 0.935134C6.39239 0.945729 6.4482 0.951673 6.50204 0.964381ZM3.94459 5.51618C3.97558 5.05693 4.04797 4.60203 4.16073 4.15795C4.60597 4.21508 5.05396 4.2434 5.50233 4.24283C5.95113 4.24268 6.39953 4.21363 6.84512 4.15581C6.95766 4.60061 7.02967 5.05623 7.06006 5.51618H3.94459ZM7.06006 6.3651C7.02907 6.82435 6.95668 7.27925 6.84392 7.72333C6.39867 7.6662 5.95069 7.63787 5.50231 7.63844C5.05354 7.6379 4.60517 7.66622 4.15953 7.72333C4.0471 7.27922 3.97512 6.82432 3.94456 6.3651H7.06006ZM5.50231 1.124C5.94951 1.8086 6.31732 2.54985 6.59752 3.33114C6.23374 3.37288 5.86816 3.39384 5.50231 3.39397C5.13687 3.39349 4.77169 3.3724 4.40827 3.33072C4.68882 2.54995 5.05619 1.80894 5.50231 1.124ZM1.96952 2.57815C2.06188 2.46524 2.15815 2.35616 2.25875 2.25302C2.2835 2.22756 2.30945 2.20336 2.33459 2.17874C2.43153 2.08339 2.53188 1.99241 2.63561 1.90581C2.66273 1.88331 2.69022 1.86336 2.71774 1.83961C2.82462 1.75473 2.93466 1.67477 3.04783 1.59979L3.12642 1.54843C3.24562 1.47317 3.3677 1.40369 3.49266 1.34002C3.51546 1.32855 3.53786 1.31582 3.56066 1.30436C3.69112 1.24069 3.82435 1.18423 3.95953 1.13457C3.97995 1.12651 3.99883 1.11758 4.02121 1.10995C4.15757 1.0607 4.2963 1.01997 4.43777 0.982611C4.45978 0.97709 4.48099 0.969455 4.50339 0.964356C4.55723 0.951623 4.61304 0.945679 4.66766 0.935059C4.23349 1.64338 3.8783 2.40461 3.60938 3.20289C3.02916 3.09087 2.46545 2.89529 1.93337 2.6214C1.94516 2.60658 1.95773 2.593 1.96952 2.57815ZM1.46966 3.31458C2.07203 3.64679 2.71548 3.88381 3.38028 4.01833C3.26287 4.50889 3.1893 5.01047 3.16061 5.5162H0.806731C0.86692 4.73678 1.09386 3.98311 1.46966 3.31458ZM1.46966 8.56672C1.09384 7.89819 0.866897 7.14452 0.806731 6.3651H3.16061C3.18944 6.87085 3.26312 7.37243 3.38067 7.86297C2.71576 7.99744 2.07217 8.23446 1.46966 8.56672ZM4.50261 10.9169C4.4806 10.9114 4.45939 10.9037 4.43738 10.8982C4.29669 10.8626 4.15718 10.8218 4.02082 10.7709C3.99999 10.7632 3.97956 10.7543 3.95912 10.7463C3.82393 10.6953 3.69073 10.6389 3.56024 10.5765C3.53745 10.565 3.51504 10.5523 3.49225 10.5408C3.36729 10.4766 3.24521 10.4071 3.126 10.3324L3.04742 10.281C2.93425 10.2063 2.82421 10.1264 2.71732 10.0412C2.68981 10.0196 2.66231 9.99876 2.63519 9.97501C2.5304 9.89013 2.43006 9.79916 2.33418 9.70209C2.30903 9.67747 2.28308 9.65327 2.25833 9.6278C2.15773 9.52467 2.06185 9.41559 1.96911 9.30268C1.95732 9.28783 1.94475 9.27425 1.93296 9.26022C2.46505 8.98633 3.02874 8.79075 3.60897 8.67873C3.87777 9.47687 4.23284 10.2379 4.66683 10.9461C4.61224 10.9356 4.55644 10.9296 4.50261 10.9169ZM5.50231 10.7573C5.05511 10.0727 4.6873 9.33145 4.4071 8.55016C5.13487 8.46555 5.86895 8.46555 6.59672 8.55016L6.59632 8.55058C6.31583 9.33133 5.94845 10.0723 5.50231 10.7573ZM9.03512 9.30312C8.94277 9.41603 8.8465 9.52511 8.7459 9.62825C8.72115 9.65372 8.6952 9.67792 8.67005 9.70254C8.57312 9.79819 8.47277 9.88916 8.36904 9.97546C8.34192 9.99794 8.31442 10.02 8.28691 10.0417C8.18002 10.1265 8.06998 10.2065 7.95681 10.2815L7.87823 10.3328C7.75928 10.4078 7.6372 10.4773 7.51198 10.5413C7.48919 10.5527 7.46678 10.5655 7.44399 10.5769C7.31353 10.6406 7.1803 10.697 7.04512 10.7467C7.02469 10.7548 7.00581 10.7637 6.98343 10.7713C6.84707 10.8206 6.70834 10.8613 6.56687 10.8987C6.54486 10.9042 6.52366 10.9118 6.50125 10.9169C6.44742 10.9297 6.3916 10.9356 6.33699 10.9462C6.77097 10.238 7.12607 9.47694 7.39485 8.67881C7.97507 8.79082 8.53878 8.9864 9.07086 9.2603C9.05948 9.2747 9.04691 9.28828 9.03512 9.30312ZM9.53499 8.56672C8.93261 8.23451 8.28916 7.99749 7.62437 7.86297C7.74178 7.37241 7.81534 6.87083 7.84403 6.3651H10.1979C10.1377 7.1445 9.91079 7.89816 9.53499 8.56672Z" fill="#DDDDDD"/>
</g>
<defs>
<clipPath id="clip0">
<rect width="11" height="11.8812" fill="white"/>
</clipPath>
</defs>
</svg>
