<svg width="10" height="11" viewBox="0 0 10 11" fill="none" xmlns="http://www.w3.org/2000/svg">
<g clip-path="url(#clip0)">
<path d="M8.78175 5.85923L8.77001 5.84519C8.23736 5.20352 7.62648 4.56855 6.90251 3.90401C6.79306 3.80353 6.29739 3.37213 6.27424 3.35045C6.25109 3.32877 6.22706 3.30988 6.23214 3.28089C6.23816 3.24647 6.24694 3.20931 6.25728 3.17017C6.26648 3.13531 6.27597 3.09923 6.28323 3.061C6.29644 2.99157 6.30482 2.9297 6.30885 2.8718L6.30909 2.86867C6.31359 2.80412 6.32204 2.68399 6.25389 2.60396C6.22998 2.57593 6.18612 2.54248 6.11263 2.54248C6.0585 2.54248 6.00539 2.56046 5.9737 2.57126L5.97021 2.57246C5.88401 2.60153 5.80718 2.64597 5.74985 2.68145C5.71666 2.70199 5.68352 2.72357 5.6515 2.74564C5.64192 2.75224 5.63229 2.75947 5.62261 2.76683C5.5977 2.78575 5.58596 2.80315 5.54957 2.76902C5.49924 2.72031 4.93545 2.19122 3.41886 1.41342C3.17561 1.28867 2.92327 1.17409 2.66894 1.0729C2.41949 0.973699 2.1445 0.879974 1.82837 0.786404L1.81872 0.783534C1.78197 0.772601 1.74215 0.762451 1.70014 0.762451C1.61617 0.762451 1.54586 0.804983 1.50202 0.882218C1.46589 0.94591 1.45681 1.02343 1.47714 1.09482C1.49839 1.1696 1.5488 1.23053 1.61531 1.26203L1.78518 1.34247C2.45856 1.66112 3.12639 2.10232 3.82686 2.69129C4.06696 2.8932 4.28408 3.08775 4.49059 3.28608C4.58817 3.37981 4.68557 3.47491 4.78005 3.5688C4.78845 3.57709 4.86004 3.65206 4.86004 3.65206L0.513344 9.32573C0.376689 9.50402 0.31077 9.7094 0.322654 9.9196C0.334016 10.1204 0.418699 10.3149 0.555021 10.4531C0.68826 10.5882 0.862014 10.6625 1.04433 10.6625C1.06715 10.6625 1.09025 10.6613 1.11293 10.6589C1.31892 10.6372 1.50878 10.5165 1.63384 10.3277C1.67162 10.2707 5.35094 4.71621 5.55724 4.40419C6.12933 5.05398 6.66931 5.75507 7.16206 6.48797C7.25898 6.6321 7.4305 6.90076 7.43826 6.91372C7.4714 6.96959 7.509 7.03284 7.56218 7.07944C7.60234 7.11456 7.64907 7.13317 7.69731 7.13317C7.77265 7.13317 7.83385 7.08847 7.87332 7.05484L8.76479 6.2953C8.87113 6.19364 8.87426 6.09073 8.87426 6.09073C8.881 5.97762 8.81897 5.90362 8.78175 5.85923Z" fill="#DDDDDD"/>
</g>
<defs>
<clipPath id="clip0">
<rect width="9" height="9.90007" fill="white" transform="translate(0.0979004 0.762451)"/>
</clipPath>
</defs>
</svg>
