<svg width="11" height="11" viewBox="0 0 11 11" fill="none" xmlns="http://www.w3.org/2000/svg">
<g clip-path="url(#clip0)">
<path d="M3.32787 1.31995C2.22076 1.31995 1.32007 2.27493 1.32007 3.44875C1.32007 4.62257 2.22076 5.57755 3.32787 5.57755C4.43498 5.57755 5.33569 4.62257 5.33569 3.44875C5.33569 2.27493 4.435 1.31995 3.32787 1.31995Z" fill="#CDD018"/>
<path d="M7.9019 1.53223C7.89736 1.53223 7.89277 1.53225 7.88823 1.53227C7.42361 1.53612 6.98963 1.73229 6.66625 2.0847C6.34854 2.43087 6.17578 2.88757 6.17975 3.37062C6.18375 3.85368 6.36403 4.30745 6.68739 4.64836C7.0133 4.99192 7.44503 5.18059 7.9045 5.18059C7.90912 5.18059 7.91374 5.18057 7.91838 5.18055C8.383 5.17671 8.81698 4.98051 9.14036 4.62812C9.45807 4.28195 9.63083 3.82525 9.62685 3.34218C9.61858 2.34113 8.84611 1.53223 7.9019 1.53223Z" fill="#CDD018"/>
<path d="M7.98673 5.52917H7.82001C7.04357 5.52917 6.33501 5.82437 5.80005 6.3082C5.9339 6.41089 6.0613 6.52283 6.18204 6.64357C6.53825 6.99978 6.81798 7.41486 7.01349 7.8772C7.18966 8.29357 7.29021 8.73228 7.31362 9.1841H11.0001V8.54236C11.0001 6.88097 9.64833 5.52917 7.98673 5.52917Z" fill="#CDD018"/>
<path d="M6.66768 9.1841C6.60687 8.20463 6.11037 7.34311 5.36937 6.79096C4.83033 6.3892 4.16174 6.15137 3.4375 6.15137H3.23684C1.44912 6.15139 0 7.60049 0 9.38821V9.77235H6.67412V9.38821C6.67412 9.31967 6.67197 9.25156 6.66768 9.1841Z" fill="#CDD018"/>
</g>
<defs>
<clipPath id="clip0">
<rect width="11" height="11" fill="white"/>
</clipPath>
</defs>
</svg>
