<?xml version="1.0" encoding="UTF-8" standalone="no"?>
<!-- Generator: Adobe Illustrator 27.1.1, SVG Export Plug-In . SVG Version: 6.00 Build 0)  -->

<svg
   version="1.1"
   id="svg1"
   inkscape:version="1.3.2 (091e20e, 2023-11-25, custom)"
   sodipodi:docname="demolisher_panty.svg"
   x="0px"
   y="0px"
   viewBox="0 0 560.00001 559.99998"
   xml:space="preserve"
   width="560"
   height="560"
   xmlns:inkscape="http://www.inkscape.org/namespaces/inkscape"
   xmlns:sodipodi="http://sodipodi.sourceforge.net/DTD/sodipodi-0.dtd"
   xmlns="http://www.w3.org/2000/svg"
   xmlns:svg="http://www.w3.org/2000/svg"><defs
   id="defs24" />
<style
   type="text/css"
   id="style1">
	.st0{display:none;stroke:#000000;stroke-width:0.1843;stroke-linecap:round;stroke-linejoin:round;stroke-miterlimit:11.3386;}
	.st1{fill:#B5BAC3;stroke:#696969;stroke-width:0.1843;stroke-linecap:round;stroke-linejoin:round;stroke-miterlimit:11.3386;}
	.st2{fill:#BFC5CA;stroke:#696969;stroke-width:0.1843;stroke-linecap:round;stroke-linejoin:round;stroke-miterlimit:11.3386;}
	.st3{fill:url(#path29_00000094589808864914062440000016793566464638311564_);}
	.st4{fill:url(#path68_00000127009930920677770230000017694751578736807329_);}
	.st5{fill:url(#path4_00000034088386238187786140000016422453070378635195_);}
	.st6{fill:url(#path69_00000054963861053699491610000017170584685194620817_);}
	.st7{fill:none;stroke:#000000;stroke-width:0.1843;stroke-linecap:round;stroke-linejoin:round;stroke-miterlimit:11.3386;}
	.st8{fill:url(#path74_00000014612480202582330600000016661986186048579730_);}
	.st9{fill:url(#path13_00000115475499620948087790000011940108231266194304_);}
	.st10{fill:url(#path75_00000096032775491955098180000011569674160065136810_);}
	.st11{fill:url(#path12_00000140734262903000310810000015864065022912015532_);}
	.st12{fill:#021336;}
	.st13{fill:url(#path78_00000120540135821925816940000008194585274883265410_);}
	.st14{fill:url(#path1_00000122717515825683089540000006078171149534960061_);}
	.st15{fill:url(#path11_00000088134541519546527310000017328478149157165702_);}
	.st16{fill:url(#path79_00000072251736753054593240000012565791966764646061_);}
	.st17{fill:none;stroke:#5E5E5E;stroke-width:0.1843;stroke-linecap:round;stroke-linejoin:round;stroke-miterlimit:11.3386;}
	.st18{fill:none;stroke:#5E5E5E;stroke-width:0.1796;stroke-linecap:round;stroke-linejoin:round;stroke-miterlimit:11.3386;}
</style>
<sodipodi:namedview
   bordercolor="#000000"
   borderopacity="0.25"
   id="namedview1"
   inkscape:current-layer="g24"
   inkscape:cx="180.74999"
   inkscape:cy="165.74999"
   inkscape:deskcolor="#d1d1d1"
   inkscape:document-units="mm"
   inkscape:pagecheckerboard="true"
   inkscape:pageopacity="0.0"
   inkscape:showpageshadow="2"
   inkscape:window-height="1417"
   inkscape:window-maximized="1"
   inkscape:window-width="3440"
   inkscape:window-x="-8"
   inkscape:window-y="-8"
   inkscape:zoom="2.0000001"
   pagecolor="#ffffff"
   showgrid="false">
	</sodipodi:namedview>

<g
   id="layer1"
   inkscape:groupmode="layer"
   inkscape:label="main 1">
	
		
	
		
	
		
	
		
	
		<radialGradient
   id="path29_00000065752957385978036170000015910564743533464505_"
   cx="113.253"
   cy="722.85248"
   r="6.0679998"
   gradientTransform="matrix(1.9217,0,0,-11.0376,103.5076,8317.0146)"
   gradientUnits="userSpaceOnUse">
		<stop
   offset="0.1441"
   style="stop-color:#191919;stop-opacity:1;"
   id="stop1" />
		<stop
   offset="1"
   style="stop-color:#34406f;stop-opacity:1;"
   id="stop2" />
	</radialGradient>
	
		
	
		<radialGradient
   id="path68_00000044874541930399516570000009279153387982543518_"
   cx="113.253"
   cy="722.85248"
   r="6.0679998"
   gradientTransform="matrix(-1.9217,0,0,-11.0376,484.7324,8317.0195)"
   gradientUnits="userSpaceOnUse">
		<stop
   offset="0.18735032"
   style="stop-color:#1a1a1a;stop-opacity:1;"
   id="stop3" />
		<stop
   offset="1"
   style="stop-color:#334070;stop-opacity:0;"
   id="stop4" />
	</radialGradient>
	
		
	
		<radialGradient
   id="path4_00000182501977058256673300000006421581735404065168_"
   cx="103.6647"
   cy="726.00378"
   r="3.8585"
   gradientTransform="matrix(-5.1714,0,0,27.9984,830.5408,-19967)"
   gradientUnits="userSpaceOnUse">
		<stop
   offset="0"
   style="stop-color:#76d4f1;stop-opacity:1;"
   id="stop5" />
		<stop
   offset="0.85028255"
   style="stop-color:#14a3d0;stop-opacity:1;"
   id="stop6" />
	</radialGradient>
	
		
	
		<radialGradient
   id="path69_00000053508241893170768360000016176631075676228266_"
   cx="103.6653"
   cy="726.00409"
   r="3.8578"
   gradientTransform="matrix(5.1714,0,0,27.9984,-242.1808,-19967.006)"
   gradientUnits="userSpaceOnUse">
		<stop
   offset="0"
   style="stop-color:#76d4f1;stop-opacity:1;"
   id="stop7" />
		<stop
   offset="0.85000002"
   style="stop-color:#14a3d0;stop-opacity:1;"
   id="stop8" />
	</radialGradient>
	
		
	
	
	
	
	
	
	
	
	
		<radialGradient
   id="path74_00000123402493905263489250000006273147629228872631_"
   cx="118.6471"
   cy="703.7738"
   r="5.0015998"
   gradientTransform="matrix(3.0732,0,0,4.5124,-28.1754,-2873.2567)"
   gradientUnits="userSpaceOnUse">
		<stop
   offset="0"
   style="stop-color:#000000"
   id="stop9" />
		<stop
   offset="1"
   style="stop-color:#000000;stop-opacity:0"
   id="stop10" />
	</radialGradient>
	
		
	
		<radialGradient
   id="path13_00000001623032920965031700000009481967001161226901_"
   cx="118.6471"
   cy="703.7738"
   r="5.0015998"
   gradientTransform="matrix(-3.0732,0,0,4.5124,616.5354,-2873.2518)"
   gradientUnits="userSpaceOnUse">
		<stop
   offset="0"
   style="stop-color:#000000"
   id="stop11" />
		<stop
   offset="1"
   style="stop-color:#000000;stop-opacity:0"
   id="stop12" />
	</radialGradient>
	
		
	
		<radialGradient
   id="path75_00000006698056055472845630000000476913759236699799_"
   cx="118.4896"
   cy="733.31982"
   r="5.7375998"
   gradientTransform="matrix(5.1916,0,0,2.022,-279.2192,-1090.5997)"
   gradientUnits="userSpaceOnUse">
		<stop
   offset="0"
   style="stop-color:#000000"
   id="stop13" />
		<stop
   offset="1"
   style="stop-color:#000000;stop-opacity:0"
   id="stop14" />
	</radialGradient>
	
		
	
		<radialGradient
   id="path12_00000155109882662612652620000009521674539995049917_"
   cx="118.4896"
   cy="733.31982"
   r="5.7375998"
   gradientTransform="matrix(-5.1916,0,0,2.022,867.5792,-1090.5946)"
   gradientUnits="userSpaceOnUse">
		<stop
   offset="0"
   style="stop-color:#000000"
   id="stop15" />
		<stop
   offset="1"
   style="stop-color:#000000;stop-opacity:0"
   id="stop16" />
	</radialGradient>
	
		
	
	
	
	
	
		<radialGradient
   id="path78_00000035493026488882107740000012386334225245683088_"
   cx="123.026"
   cy="720.87958"
   r="7.0826001"
   gradientTransform="matrix(-4.346,0,0,-9.1744,773.8466,6959.3667)"
   gradientUnits="userSpaceOnUse">
		<stop
   offset="0"
   style="stop-color:#000000;stop-opacity:0.44"
   id="stop17" />
		<stop
   offset="0.8785"
   style="stop-color:#000000;stop-opacity:0"
   id="stop18" />
	</radialGradient>
	
		
	
		<radialGradient
   id="path1_00000174564823659159510830000015761204594025670295_"
   cx="123.026"
   cy="720.87958"
   r="7.0826001"
   gradientTransform="matrix(-4.346,0,0,9.1744,773.9065,-6269.8619)"
   gradientUnits="userSpaceOnUse">
		<stop
   offset="0"
   style="stop-color:#000000;stop-opacity:0.44"
   id="stop19" />
		<stop
   offset="0.8785"
   style="stop-color:#000000;stop-opacity:0"
   id="stop20" />
	</radialGradient>
	
		
	
		<radialGradient
   id="path11_00000155121570109820834970000004895951731746029725_"
   cx="118.3017"
   cy="721.48749"
   r="5.3724999"
   gradientTransform="matrix(-5.7953,0,0,51.389,938.5516,-36728.32)"
   gradientUnits="userSpaceOnUse">
		<stop
   offset="0"
   style="stop-color:#76d4f1;stop-opacity:1;"
   id="stop21" />
		<stop
   offset="0.44"
   style="stop-color:#15b5eb;stop-opacity:1;"
   id="stop22" />
	</radialGradient>
	
		
	
		<radialGradient
   id="path79_00000153687319666007084810000014886463855219054737_"
   cx="118.3017"
   cy="721.48749"
   r="5.3724999"
   gradientTransform="matrix(5.7953,0,0,51.389,-350.1916,-36728.324)"
   gradientUnits="userSpaceOnUse">
		<stop
   offset="0"
   style="stop-color:#76d4f1;stop-opacity:1;"
   id="stop23" />
		<stop
   offset="0.43788758"
   style="stop-color:#15b5eb;stop-opacity:1;"
   id="stop24" />
	</radialGradient>
	
		
</g>
<g
   id="layer2"
   inkscape:groupmode="layer"
   inkscape:label="main">
	
	
	
	
	
	
	
	
	
	
	
	
	
	
	
	
	
	
	
	
	
	
	
	
	
	
	
	
	
	<g
   id="g24"
   transform="rotate(180,287.075,312.375)"><path
     id="path2"
     inkscape:label="base1_r"
     sodipodi:nodetypes="ccccccc"
     class="st1"
     d="m 294.2,460.09994 -277.4,-203.4 41.5,-27.3 96.3,70.1 65.2,-45 33.1,25 41.2,-28.1"
     style="fill:#455b82;fill-opacity:1;stroke:#040404;stroke-opacity:1" /><path
     id="path66"
     inkscape:label="base1_l"
     sodipodi:nodetypes="ccccccc"
     class="st1"
     d="m 294.2,460.09994 277.3,-203.4 -41.5,-27.3 -96.3,70.1 -65.2,-45 -33.2,24.9 -41.2,-28.1"
     style="display:inline;fill:#445b83;fill-opacity:1;stroke:#040404;stroke-opacity:1" /><g
     id="g31"
     inkscape:label="панцу"
     style="display:inline"
     transform="rotate(180,294.15,344.74997)"><g
       id="g36"><path
         id="rect32"
         style="display:inline;fill:#15b5eb;stroke-width:0.890342;stroke-linejoin:bevel;paint-order:markers fill stroke"
         d="m -363.70078,-280.43555 41.23633,30.23632 h 56.7207 l 41.22071,-30.23632 z"
         transform="rotate(180,0,-2.2109372e-6)" /><path
         id="rect32-5"
         style="fill:#ffffff;stroke-width:0.890342;stroke-linejoin:bevel;paint-order:markers fill stroke"
         d="m -404.42148,-310.29297 41.23633,30.23633 h 138.14648 l 41.2207,-30.23633 z"
         transform="scale(-1)" /><path
         id="rect33"
         style="fill:#15b5eb;stroke-width:0.890342;stroke-linejoin:bevel;paint-order:markers fill stroke"
         d="m -445.14414,-340.15235 41.23633,30.23633 h 219.57617 l 41.22266,-30.23633 z"
         transform="scale(-1)" /><path
         id="rect34"
         style="fill:#ffffff;stroke-width:0.890342;stroke-linejoin:bevel;paint-order:markers fill stroke"
         d="m -486.38047,-370.38868 41.23633,30.23633 h 302.03515 l 41.2207,-30.23633 z"
         transform="rotate(180,-2.4368301e-6,-2.2109372e-6)" /><path
         id="rect35"
         style="fill:#15b5eb;stroke-width:0.890342;stroke-linejoin:bevel;paint-order:markers fill stroke"
         d="m -527.10117,-400.2461 41.23633,30.23633 h 383.46093 l 41.220703,-30.23633 h -79.339843 l -14.07617,10.24609 -14.84571,-10.24609 h -249.41015 l -14.8457,10.24609 -14.07617,-10.24609 z"
         transform="rotate(180,-2.4368301e-6,-2.2109372e-6)" /><path
         id="rect36"
         style="fill:#ffffff;stroke-width:0.890342;stroke-linejoin:bevel;paint-order:markers fill stroke"
         d="m -567.82187,-430.10352 41.23828,30.23633 h 79.32812 l -41.53711,-30.23633 z m 192.22851,0 -43.81055,30.23633 h 250.50781 l -43.81054,-30.23633 h -13.62305 l -26.66992,20.0039 -29.33008,-20.0039 h -23.5957 l -29.47461,20.10351 -26.61719,-20.10351 z m 276.085934,0 -41.537104,30.23633 h 79.345698 l 41.220702,-30.23633 z"
         transform="rotate(180,-2.4368301e-6,-2.2109372e-6)" /><path
         id="rect36-0"
         style="display:inline;fill:#15b5eb;stroke-width:0.890342;stroke-linejoin:bevel;paint-order:markers fill stroke"
         d="m -530.20664,-459.9629 -41.29296,27.16211 4.19336,3.07422 h 79.03124 l -41.5371,-30.23633 z m 471.71875,0 -41.53711,30.23633 h 79.033203 l 4.191407,-3.07422 -41.292969,-27.16211 z m -235.71289,21.76368 v 0.0996 l -12.27734,8.37305 h 24.70117 z m -74.29883,3.19921 -7.64062,5.27344 h 14.62305 z m 148.69922,0 -7.03125,5.27344 h 14.67188 z"
         transform="rotate(180,0,-2.2109372e-6)" /><path
         id="path41"
         style="display:inline;fill:#ffffff;stroke-width:0.890342;stroke-linejoin:bevel;paint-order:markers fill stroke"
         d="m 322.46445,250.19922 -28.36523,-20.79883 -28.35547,20.79883 z" /></g><path
       id="path43"
       style="display:inline;fill:#ffffff;fill-opacity:0.9;stroke:none;stroke-opacity:1"
       class="st2"
       inkscape:label="base2_l"
       d="m 103.98203,375.50391 a 59.700199,113.43003 60.98717 0 0 90.77344,-26.7168 59.700199,113.43003 60.98717 0 0 68.57226,-90.50781 l -159.6914,117.18945 a 59.700199,113.43003 60.98717 0 0 0.3457,0.0352 z" /><path
       id="ellipse30"
       style="fill:#ffffff;fill-opacity:1;stroke:#000000;stroke-width:0.377953;stroke-linejoin:bevel;stroke-dasharray:none;stroke-opacity:1;paint-order:markers fill stroke"
       d="m 41.486783,-389.62241 a 130.99153,86.797356 0 0 0 -65.496038,-11.62867 130.99153,86.797356 0 0 0 -128.067565,69.45918 l 6.08216,-1.53402 a 83.206453,125.48222 89.948617 0 1 122.015704,-64.33364 83.206453,125.48222 89.948617 0 1 62.736346,11.12606 83.206453,125.48222 89.948617 0 1 9.451428,4.18646 l 6.181679,-1.56107 a 130.99153,86.797356 0 0 0 -12.903714,-5.7143 z"
       transform="rotate(157.90663,-4.2390432e-6,1.0695045e-5)"
       inkscape:label="правая дуга" /><path
       id="path44"
       style="display:inline;fill:#ffffff;fill-opacity:0.9;stroke:none;stroke-opacity:1"
       class="st2"
       inkscape:label="base2_r"
       d="M 484.58164,375.50196 325.40781,258.67774 a 113.43003,59.700199 29.01283 0 0 68.73437,90.10937 113.43003,59.700199 29.01283 0 0 90.43946,26.71485 z" /><path
       id="path31"
       style="fill:#ffffff;fill-opacity:1;stroke:#000000;stroke-width:0.377953;stroke-linejoin:bevel;stroke-dasharray:none;stroke-opacity:1;paint-order:markers fill stroke"
       d="M 480.18471,376.61719 A 130.99153,86.797356 22.09337 0 1 415.12416,362.75781 130.99153,86.797356 22.09337 0 1 322.5851,250.23048 l 5.05859,3.70898 a 125.48222,83.206453 22.144753 0 0 88.85938,105.50195 125.48222,83.206453 22.144753 0 0 62.31445,13.28711 125.48222,83.206453 22.144753 0 0 10.33203,-0.32422 l 5.14063,3.77148 a 130.99153,86.797356 22.09337 0 1 -14.10547,0.44141 z"
       inkscape:label="левая дуга" /></g><path
     id="path37"
     style="display:inline;fill:#ffffff;fill-opacity:0.9;stroke:#000000;stroke-width:0.185197;stroke-dasharray:none;stroke-opacity:1"
     class="st1"
     inkscape:label="перекрытие"
     d="m 107.57773,316.83197 a 125.48222,83.206453 22.144753 0 0 -8.408195,0.26367 L 260.6539,435.50189 a 125.48222,83.206453 22.144753 0 0 -0.19922,-6.46875 z m 373.26757,0.002 -152.99023,112.26953 a 83.206453,125.48222 67.855247 0 0 -0.19922,6.45703 L 489.15976,317.09564 a 83.206453,125.48222 67.855247 0 0 -8.31446,-0.26172 z M 265.75546,432.92376 a 130.99153,86.797356 22.09337 0 1 -0.041,6.28907 l 28.48632,20.88672 28.39649,-20.83008 a 86.797356,130.99153 67.90663 0 1 -0.041,-6.27735 l -28.35547,20.8086 z" /><path
     id="path46"
     style="display:inline;fill:#ffffff;fill-opacity:0;stroke:#000000;stroke-width:0.185197;stroke-linejoin:bevel;stroke-dasharray:none;stroke-opacity:1;paint-order:markers fill stroke"
     inkscape:label="перекрытие верх"
     d="m 58.300395,229.40033 -41.5,27.29883 77.2246,56.625 a 130.99153,86.797356 22.09337 0 1 8.234375,-0.39648 l -74.160155,-54.42774 30.90039,-20.19921 88.999995,65.69921 6.5293,-4.55078 z m 471.699205,0 -96.22851,70.04883 6.52929,4.55078 89.00001,-65.69921 30.90039,20.29882 -74.03321,54.32813 a 86.797356,130.99153 67.90663 0 1 8.13477,0.39648 l 77.19726,-56.625 z m -235.90039,21.9004 v 0.0996 l -41.19922,28.09961 -33.09961,-25 -65.13281,44.95313 6.63281,5.14648 57.79883,-40.5 33.90039,24.70117 41.09961,-28.0332 v -0.0684 l 0.0508,0.0352 0.0508,-0.0352 v 0.0684 l 41.09961,28.0332 33.90039,-24.70117 57.79883,40.5 6.63281,-5.14648 -65.13281,-44.95313 -33.19922,24.90039 z" /><path
     id="path67"
     inkscape:label="base2_l"
     sodipodi:nodetypes="ccccccccc"
     class="st2"
     d="m 294.1,235.7 -266,195.2 30.9,20.3 89,-65.7 6.6,4.6 6.7,-5.2 57.8,40.5 33.9,-24.7 41.2,28.1"
     style="display:none;fill:#334070;fill-opacity:1;stroke:#040404;stroke-opacity:1" /><path
     id="path3"
     inkscape:label="base2_r"
     sodipodi:nodetypes="ccccccccc"
     class="st2"
     d="m 294.1,235.7 266.1,195.3 -30.9,20.2 -89,-65.7 -6.6,4.6 -6.7,-5.2 -57.8,40.5 -33.9,-24.7 -41.2,28.1"
     style="display:none;fill:#334070;fill-opacity:1;stroke:#040404;stroke-opacity:1" /><path
     id="path29"
     inkscape:label="shadow1_r"
     style="display:none;fill:url(#path29_00000065752957385978036170000015910564743533464505_)"
     d="m 315.8,291.2 -0.1,-8 -0.3,-6.3 -0.3,-7.2 -0.6,-3.4 -1.3,-4.4 3.2,-3 c 0,0 4,0.2 4.4,0.3 0.4,0.1 5,1.6 5,1.6 l 12,9.9 9.1,10.5 -0.3,4.4 -13.9,0.7 -7.6,0.9 -0.7,0.2 -4.2,2.8 1.5,76.7 0.4,25.6 0.3,14.2 v 2.7 l -9.3,6.4 -0.1,-0.1 -0.5,-16 v -7.5 -9.2 l 0.3,-13 0.5,-13.3 0.5,-10.6 0.5,-10.3 0.4,-8 0.3,-6.5 0.2,-4.8 0.1,-4.5 0.2,-5.9 0.1,-6.1 0.1,-4.9 z" /><path
     id="path68"
     inkscape:label="shadow1_l"
     style="display:none;fill:url(#path68_00000044874541930399516570000009279153387982543518_)"
     d="m 272.4,291.2 0.1,-8 0.3,-6.3 0.3,-7.2 0.6,-3.4 1.3,-4.4 -3.2,-3 c 0,0 -4,0.2 -4.4,0.3 -0.4,0.1 -5,1.6 -5,1.6 l -12,9.9 -9.1,10.5 0.3,4.4 13.9,0.7 7.6,0.9 0.7,0.2 4.2,2.8 -1.5,76.7 -0.4,25.6 -0.3,14.2 v 2.7 l 9.3,6.4 0.1,-0.1 0.5,-16 v -7.5 -9.2 l -0.3,-13 -0.5,-13.3 -0.5,-10.6 -0.5,-10.3 -0.4,-8 -0.3,-6.5 -0.2,-4.8 -0.1,-4.5 -0.2,-5.9 -0.1,-6.1 -0.1,-4.9 z" /><path
     id="path4"
     inkscape:label="center_r"
     sodipodi:nodetypes="cccccc"
     style="fill:url(#path4_00000182501977058256673300000006421581735404065168_)"
     d="m 294.2,448.29994 c -9.2,0 -21.3,-16.4 -21.3,-33 -2,-46.7 4.7,-82.1 2.3,-141.4 l 3.5,-2.5 15.6,-10.6 z" /><path
     id="path69"
     inkscape:label="center_l"
     sodipodi:nodetypes="cccccc"
     style="fill:url(#path69_00000053508241893170768360000016176631075676228266_)"
     d="m 294.2,448.29994 c 9.2,0 21.3,-16.4 21.3,-33 2,-46.7 -4.7,-82.1 -2.3,-141.4 l -3.5,-2.5 -15.5,-10.6 z" /><g
     id="g1"
     style="display:none"><path
       id="path7"
       inkscape:label="fig1_r"
       class="st7"
       d="m 383.8,306 3.6,2.9 -9.5,12.4 0.1,29.8 1.8,1.7 -3.8,2.5 -2.5,-2.3 -0.1,-34.3 z"
       style="stroke:#000000;stroke-opacity:1" /><path
       id="path70"
       inkscape:label="fig1_l"
       class="st7"
       d="m 204.5,306 -3.6,2.9 9.5,12.4 -0.1,29.8 -1.8,1.7 3.8,2.5 2.5,-2.3 0.1,-34.3 z"
       style="stroke:#000000;stroke-opacity:1" /><path
       id="path8"
       inkscape:label="fig2_r"
       class="st7"
       d="m 371,353.9 3.1,2.9 -18.8,13.3 v 18.2 l -4.1,2.6 0.1,-23.1 z"
       style="stroke:#000000;stroke-opacity:1" /><path
       id="path71"
       inkscape:label="fig2_l"
       class="st7"
       d="m 217.2,353.9 -3.1,2.9 18.8,13.3 v 18.2 l 4.1,2.6 -0.1,-23.1 z"
       style="stroke:#000000;stroke-opacity:1" /><path
       id="path9"
       inkscape:label="fig3_r"
       class="st7"
       d="m 355.3,392 0.3,7.6 39.4,-27.4 3.2,2.9 -47.3,32.7 0.2,-13.3 z"
       style="stroke:#000000;stroke-opacity:1" /><path
       id="path72"
       inkscape:label="fig3_l"
       class="st7"
       d="m 232.9,392 -0.3,7.6 -39.4,-27.4 -3.2,2.9 47.3,32.7 -0.2,-13.3 z"
       style="stroke:#000000;stroke-opacity:1" /><path
       id="path10"
       inkscape:label="fig4_r"
       class="st7"
       d="m 397,371.1 2.8,2.9 22.7,-15.8 100.9,73.8 10.4,-16.2 -3.4,-2.1 -8.3,12.3 -100,-72.8 z"
       style="stroke:#000000;stroke-opacity:1" /><path
       id="path73"
       inkscape:label="fig4_l"
       class="st7"
       d="M 191.2,371.1 188.4,374 165.7,358.2 64.8,432 54.4,415.8 l 3.4,-2.1 8.3,12.3 100,-72.8 z"
       style="stroke:#000000;stroke-opacity:1" /></g><path
     id="path74"
     inkscape:label="engine1_l"
     sodipodi:nodetypes="ccccccc"
     style="fill:url(#path74_00000123402493905263489250000006273147629228872631_)"
     d="m 322.2,297.09994 0.6,-26.2 12.6,8.5 14.9,-11.1 v 28.7 l -13.3,11.4 z" /><path
     id="path13"
     inkscape:label="engine1_r"
     sodipodi:nodetypes="ccccccc"
     style="fill:url(#path13_00000001623032920965031700000009481967001161226901_)"
     d="m 266.1,297.09994 -0.6,-26.2 -12.6,8.5 -14.9,-11.1 v 28.7 l 13.3,11.4 z" /><path
     id="path75"
     inkscape:label="engine2_l"
     sodipodi:nodetypes="cccccccccccccc"
     style="fill:url(#path75_00000006698056055472845630000000476913759236699799_)"
     d="m 320.4,399.39994 v 0 l 4.2,2.8 3.9,-2.9 3.4,2.9 3.4,-2.9 3.5,2.9 3.4,-2.8 4.4,2.8 3.8,-3.4 c -2.8,-1.8 -5.3,-4 -8,-5.9 l -7,4.2 -6.8,-4.1 z" /><path
     id="path12"
     inkscape:label="engine2_r"
     sodipodi:nodetypes="cccccccccccccc"
     style="fill:url(#path12_00000155109882662612652620000009521674539995049917_)"
     d="m 267.9,399.39994 v 0 l -4.2,2.8 -3.9,-2.9 -3.4,2.9 -3.4,-2.9 -3.5,2.9 -3.4,-2.8 -4.4,2.8 -3.8,-3.4 c 2.8,-1.8 5.3,-4 8,-5.9 l 7,4.2 6.8,-4.1 z" /><path
     id="path76"
     inkscape:label="window1_l"
     sodipodi:nodetypes="ccccc"
     class="st12"
     d="m 295.3,445.99994 v -9.3 c 4.5,-0.7 6.4,-2.4 8.8,-6.2 l 4.6,2.9 c -3.1,5.2 -5.5,11.2 -13.4,12.6 z"
     style="fill:#000000" /><path
     id="path5"
     inkscape:label="window1_r"
     sodipodi:nodetypes="ccccc"
     class="st12"
     d="m 293.1,445.99994 v -9.3 c -4.5,-0.7 -6.4,-2.4 -8.8,-6.2 l -4.6,2.9 c 3.1,5.3 5.4,11.2 13.4,12.6 z"
     style="fill:#000000" /><path
     id="path6"
     inkscape:label="window2_r"
     sodipodi:nodetypes="ccccc"
     class="st12"
     d="m 283.7,429.39994 -4.5,2.9 c -2.4,-4.7 -2.6,-10 -2.9,-15.1 l 4.3,0.1 c 0.5,4.7 1,8 3.1,12.1 z"
     style="fill:#000000" /><path
     id="path77"
     inkscape:label="window2_l"
     sodipodi:nodetypes="ccccc"
     class="st12"
     d="m 304.6,429.39994 4.5,2.9 c 2.4,-4.7 2.6,-10 2.9,-15.1 l -4.3,0.1 c -0.4,4.7 -0.9,8 -3.1,12.1 z"
     style="fill:#000000" /><path
     id="path78"
     inkscape:label="shadow2_l"
     inkscape:transform-center-x="2.4473934"
     sodipodi:nodetypes="ccccsssccc"
     style="fill:url(#path78_00000035493026488882107740000012386334225245683088_)"
     d="m 237.8,290.7 0.8,-20.1 -32.2,29.8 -20.3,27.8 c 0,0 1.1,23.2 1.1,24.9 0,1.7 -5.6,41.7 -5,43.5 0.6,1.9 16.5,9.5 17.2,10.2 0.8,0.8 21.1,1.9 21.1,1.9 l 17.4,2.6 c 0.1,-40.1 0.2,-80.3 -0.1,-120.6 z"
     sodipodi:insensitive="true" /><path
     id="path1"
     inkscape:label="shadow2_r"
     inkscape:transform-center-x="2.4473976"
     sodipodi:nodetypes="ccccsssccc"
     style="fill:url(#path1_00000174564823659159510830000015761204594025670295_)"
     d="m 237.9,398.79994 0.8,20.1 -32.2,-29.8 -20.3,-27.8 c 0,0 1.1,-23.2 1.1,-24.9 0,-1.7 -5.6,-41.7 -5,-43.5 0.6,-1.9 16.5,-9.5 17.2,-10.2 0.8,-0.8 21.1,-1.9 21.1,-1.9 l 17.4,-2.6 c 0,40.1 0.2,80.3 -0.1,120.6 z" /><path
     id="path11"
     inkscape:label="engine0_r"
     sodipodi:nodetypes="ccccccccc"
     style="fill:url(#path11_00000155121570109820834970000004895951731746029725_)"
     d="m 267.9,399.39994 -8.3,-6.4 -6.7,4.1 -7.1,-4.1 -8,5.9 c 0.3,-33.8 0,-68 0.3,-101.8 l 13.3,11.4 14.7,-11.3 z" /><path
     id="path79"
     inkscape:label="engine0_l"
     sodipodi:nodetypes="ccccccccc"
     style="fill:url(#path79_00000153687319666007084810000014886463855219054737_)"
     d="m 320.4,399.39994 8.3,-6.4 6.7,4.1 7.1,-4.1 8,5.9 c -0.3,-33.8 0,-68 -0.3,-101.8 l -13.3,11.4 -14.7,-11.3 z" /><path
     id="path16"
     class="st17"
     d="m 209.4,391.69994 -4.2,3"
     style="stroke:#000000;stroke-opacity:1" /><path
     id="path28"
     sodipodi:nodetypes="cc"
     class="st17"
     d="m 275.1,273.69994 -6.2,-5"
     style="stroke:#000000;stroke-opacity:1" /><path
     id="path17"
     class="st17"
     d="m 175.7,366.89994 -4.3,3"
     style="stroke:#000000;stroke-opacity:1" /><path
     id="path18"
     class="st17"
     d="m 142.8,342.79994 -4.3,3"
     style="stroke:#000000;stroke-opacity:1" /><path
     id="path19"
     class="st17"
     d="m 109.8,318.59994 -4.4,3"
     style="stroke:#000000;stroke-opacity:1" /><path
     id="path20"
     class="st17"
     d="m 76.1,293.89994 -4.4,3"
     style="stroke:#000000;stroke-opacity:1" /><path
     id="path21"
     class="st17"
     d="m 42.4,269.19994 -4.4,3"
     style="stroke:#000000;stroke-opacity:1" /><path
     id="path22"
     class="st17"
     d="m 42.4,249.19994 -6.2,-5.1"
     style="stroke:#000000;stroke-opacity:1" /><path
     id="path23"
     class="st17"
     d="m 64.3,242.09994 5.8,-4"
     style="stroke:#000000;stroke-opacity:1" /><path
     id="path24"
     class="st17"
     d="m 107.2,273.89994 6.2,-4.3"
     style="stroke:#000000;stroke-opacity:1" /><path
     id="path25"
     class="st17"
     d="m 189.3,284.99994 -6.1,-5.1"
     style="stroke:#000000;stroke-opacity:1" /><path
     id="path26"
     class="st17"
     d="m 226.1,269.19994 6.8,-4.7"
     style="stroke:#000000;stroke-opacity:1" /><path
     id="path27"
     class="st17"
     d="m 253,288.69994 v -9.2"
     style="stroke:#000000;stroke-opacity:1" /><path
     id="path14"
     class="st18"
     d="m 276.5,440.79994 -4.3,3"
     style="stroke:#000000;stroke-opacity:1" /><path
     id="path15"
     class="st17"
     d="m 242.4,415.89994 -4.2,3"
     style="stroke:#000000;stroke-opacity:1" /><path
     id="path80"
     class="st17"
     d="m 379,391.69994 4.2,3"
     style="stroke:#000000;stroke-opacity:1" /><path
     id="path81"
     sodipodi:nodetypes="cc"
     class="st17"
     d="m 313.3,273.69994 6.2,-5"
     style="stroke:#000000;stroke-opacity:1" /><path
     id="path82"
     class="st17"
     d="m 412.7,366.89994 4.3,3"
     style="stroke:#000000;stroke-opacity:1" /><path
     id="path83"
     class="st17"
     d="m 445.6,342.79994 4.3,3"
     style="stroke:#000000;stroke-opacity:1" /><path
     id="path84"
     class="st17"
     d="m 478.5,318.59994 4.4,3"
     style="stroke:#000000;stroke-opacity:1" /><path
     id="path85"
     class="st17"
     d="m 512.3,293.89994 4.4,3"
     style="stroke:#000000;stroke-opacity:1" /><path
     id="path86"
     class="st17"
     d="m 545.9,269.19994 4.4,3"
     style="stroke:#000000;stroke-opacity:1" /><path
     id="path87"
     class="st17"
     d="m 546,249.19994 6.2,-5.1"
     style="stroke:#000000;stroke-opacity:1" /><path
     id="path88"
     class="st17"
     d="m 524,242.09994 -5.8,-4"
     style="stroke:#000000;stroke-opacity:1" /><path
     id="path89"
     class="st17"
     d="m 481.1,273.79994 -6.2,-4.3"
     style="stroke:#000000;stroke-opacity:1" /><path
     id="path90"
     class="st17"
     d="m 399.1,284.99994 6.1,-5.1"
     style="stroke:#000000;stroke-opacity:1" /><path
     id="path91"
     class="st17"
     d="m 362.3,269.19994 -6.8,-4.7"
     style="stroke:#000000;stroke-opacity:1" /><path
     id="path92"
     class="st17"
     d="m 335.4,288.69994 v -9.2"
     style="stroke:#000000;stroke-opacity:1" /><path
     id="path93"
     class="st18"
     d="m 311.9,440.79994 4.3,3"
     style="stroke:#000000;stroke-opacity:1" /><path
     id="path94"
     class="st17"
     d="m 346,415.89994 4.2,3"
     style="stroke:#000000;stroke-opacity:1" /><g
     id="g48"
     transform="matrix(-0.10245318,0,0,-0.10245318,389.82596,304.16673)"
     style="display:inline"><path
       style="fill:#ffffff;fill-opacity:1;stroke:#000000;stroke-width:0.185197;stroke-linejoin:bevel;stroke-dasharray:none;stroke-opacity:1;paint-order:markers fill stroke"
       d="m 1128.5217,348.97836 -60.8112,-26.16295 -63.6396,-36.76956 -41.71928,-12.02081 -79.19596,2.12132 -48.79037,25.45584 -77.07463,43.84062 -36.76956,1.41422 -24.04163,-15.55635 -12.72792,-75.66043 4.24264,-172.53405 12.02082,-27.57717 38.18376,-12.72792 50.20458,24.04163 86.97414,48.79037 110.30866,2.82843 136.47155,-74.24622 26.8701,3.53554 20.5061,12.72792 11.3137,21.2132 0.7071,219.20311 -4.9497,26.87005 -17.6777,16.97057 z"
       id="path48"
       transform="translate(5.1263397e-6)" /><path
       d="M 482.4,102.149 C 464.092,91.37 442.058,91.095 423.475,101.403 L 298.398,170.666 H 213.516 L 88.533,101.408 C 69.95,91.099 47.917,91.362 29.6,102.149 11.067,113.058 0,132.483 0,154.104 v 203.792 c 0,21.621 11.067,41.046 29.6,51.954 9.375,5.521 19.733,8.287 30.1,8.287 9.875,0 19.758,-2.512 28.825,-7.546 l 124.991,-69.258 h 84.882 l 125.068,69.258 c 9.075,5.033 18.958,7.546 28.842,7.546 10.358,0 20.717,-2.767 30.092,-8.288 18.533,-10.908 29.6,-30.333 29.6,-51.954 V 154.104 c 0,-21.621 -11.067,-41.046 -29.6,-51.955 z m -356.467,119.463 61.8,15.45 v 37.875 l -61.8,15.45 c -4.575,1.142 -7.358,5.775 -6.208,10.35 0.967,3.875 4.442,6.462 8.267,6.462 0.683,0 1.383,-0.079 2.075,-0.254 l 57.667,-14.417 v 23.204 c 0,6.46 2.484,12.3 6.446,16.809 L 80.25,395.666 C 67.008,403.028 51.3,402.828 38.258,395.141 24.991,387.333 17.066,373.408 17.066,357.895 V 154.104 c 0,-15.513 7.925,-29.438 21.192,-37.246 13.033,-7.679 28.75,-7.879 42,-0.525 l 113.921,63.124 c -3.962,4.509 -6.446,10.349 -6.446,16.809 v 23.204 l -57.667,-14.417 c -4.592,-1.179 -9.208,1.638 -10.342,6.208 -1.149,4.576 1.634,9.209 6.209,10.351 z M 307.2,315.733 c 0,4.704 -3.825,8.533 -8.533,8.533 h -85.333 c -4.708,0 -8.533,-3.829 -8.533,-8.533 V 196.266 c 0,-4.704 3.825,-8.533 8.533,-8.533 h 85.333 c 4.708,0 8.533,3.829 8.533,8.533 z m 187.733,42.162 c 0,15.513 -7.925,29.438 -21.192,37.246 -13.033,7.683 -28.742,7.883 -42,0.521 L 317.799,332.568 c 3.975,-4.512 6.467,-10.363 6.467,-16.835 v -23.204 l 57.667,14.417 c 0.692,0.175 1.392,0.254 2.075,0.254 3.825,0 7.3,-2.587 8.267,-6.462 1.15,-4.575 -1.633,-9.208 -6.208,-10.35 l -61.8,-15.45 v -37.875 l 61.8,-15.45 c 4.575,-1.142 7.358,-5.775 6.208,-10.35 -1.142,-4.567 -5.775,-7.383 -10.342,-6.208 l -57.667,14.417 v -23.204 c 0,-6.472 -2.492,-12.323 -6.467,-16.835 l 113.95,-63.098 c 13.25,-7.35 28.958,-7.158 41.992,0.525 13.267,7.808 21.192,21.733 21.192,37.246 z"
       id="path47"
       transform="rotate(180,594.92528,226.7735)"
       style="display:inline;fill:#de8787" /></g></g>
</g>
</svg>
