<?xml version="1.0" encoding="UTF-8" standalone="no"?>
<!-- Generator: Adobe Illustrator 27.1.1, SVG Export Plug-In . SVG Version: 6.00 Build 0)  -->

<svg
   version="1.1"
   id="svg1"
   inkscape:version="1.3.2 (091e20e, 2023-11-25, custom)"
   sodipodi:docname="demolisher_friday.svg"
   x="0px"
   y="0px"
   viewBox="0 0 560.00001 559.99998"
   xml:space="preserve"
   width="560"
   height="560"
   xmlns:inkscape="http://www.inkscape.org/namespaces/inkscape"
   xmlns:sodipodi="http://sodipodi.sourceforge.net/DTD/sodipodi-0.dtd"
   xmlns:xlink="http://www.w3.org/1999/xlink"
   xmlns="http://www.w3.org/2000/svg"
   xmlns:svg="http://www.w3.org/2000/svg"><defs
   id="defs24"><linearGradient
     inkscape:collect="always"
     xlink:href="#linearGradient61029"
     id="linearGradient61031"
     x1="32.55098"
     y1="236.03503"
     x2="202.19545"
     y2="236.03503"
     gradientUnits="userSpaceOnUse"
     gradientTransform="matrix(1.0833919,0,0,1.0106531,315.13446,129.40928)" /><linearGradient
     inkscape:collect="always"
     id="linearGradient61029"><stop
       style="stop-color:#8b4219;stop-opacity:1"
       offset="0"
       id="stop61025" /><stop
       style="stop-color:#703412;stop-opacity:1"
       offset="0.106"
       id="stop62773" /><stop
       style="stop-color:#dca42d;stop-opacity:1"
       offset="0.35108119"
       id="stop71209" /><stop
       style="stop-color:#f6db74;stop-opacity:1"
       offset="0.56599998"
       id="stop62771" /><stop
       style="stop-color:#e49919;stop-opacity:1"
       offset="0.77130222"
       id="stop69113" /><stop
       style="stop-color:#763d1c;stop-opacity:1"
       offset="1"
       id="stop61027" /></linearGradient><linearGradient
     inkscape:collect="always"
     xlink:href="#linearGradient61029"
     id="linearGradient8"
     gradientUnits="userSpaceOnUse"
     gradientTransform="matrix(-1.0833919,0,0,-1.1452483,272.9716,631.89034)"
     x1="32.55098"
     y1="236.03503"
     x2="202.19545"
     y2="236.03503" /><linearGradient
     inkscape:collect="always"
     xlink:href="#linearGradient61029"
     id="linearGradient61031-2"
     x1="32.55098"
     y1="236.03503"
     x2="202.19545"
     y2="236.03503"
     gradientUnits="userSpaceOnUse"
     gradientTransform="matrix(1.6460269,0,0,2.0336665,-38.721734,-128.39145)" /><linearGradient
     inkscape:collect="always"
     xlink:href="#linearGradient61029"
     id="linearGradient9"
     gradientUnits="userSpaceOnUse"
     gradientTransform="matrix(-1.6460269,0,0,-2.0336665,625.67673,831.64166)"
     x1="32.55098"
     y1="236.03503"
     x2="202.19545"
     y2="236.03503" /></defs>
<style
   type="text/css"
   id="style1">
	.st0{display:none;stroke:#000000;stroke-width:0.1843;stroke-linecap:round;stroke-linejoin:round;stroke-miterlimit:11.3386;}
	.st1{fill:#B5BAC3;stroke:#696969;stroke-width:0.1843;stroke-linecap:round;stroke-linejoin:round;stroke-miterlimit:11.3386;}
	.st2{fill:#BFC5CA;stroke:#696969;stroke-width:0.1843;stroke-linecap:round;stroke-linejoin:round;stroke-miterlimit:11.3386;}
	.st3{fill:url(#path29_00000094589808864914062440000016793566464638311564_);}
	.st4{fill:url(#path68_00000127009930920677770230000017694751578736807329_);}
	.st5{fill:url(#path4_00000034088386238187786140000016422453070378635195_);}
	.st6{fill:url(#path69_00000054963861053699491610000017170584685194620817_);}
	.st7{fill:none;stroke:#000000;stroke-width:0.1843;stroke-linecap:round;stroke-linejoin:round;stroke-miterlimit:11.3386;}
	.st8{fill:url(#path74_00000014612480202582330600000016661986186048579730_);}
	.st9{fill:url(#path13_00000115475499620948087790000011940108231266194304_);}
	.st10{fill:url(#path75_00000096032775491955098180000011569674160065136810_);}
	.st11{fill:url(#path12_00000140734262903000310810000015864065022912015532_);}
	.st12{fill:#021336;}
	.st13{fill:url(#path78_00000120540135821925816940000008194585274883265410_);}
	.st14{fill:url(#path1_00000122717515825683089540000006078171149534960061_);}
	.st15{fill:url(#path11_00000088134541519546527310000017328478149157165702_);}
	.st16{fill:url(#path79_00000072251736753054593240000012565791966764646061_);}
	.st17{fill:none;stroke:#5E5E5E;stroke-width:0.1843;stroke-linecap:round;stroke-linejoin:round;stroke-miterlimit:11.3386;}
	.st18{fill:none;stroke:#5E5E5E;stroke-width:0.1796;stroke-linecap:round;stroke-linejoin:round;stroke-miterlimit:11.3386;}
</style>
<sodipodi:namedview
   bordercolor="#000000"
   borderopacity="0.25"
   id="namedview1"
   inkscape:current-layer="g24"
   inkscape:cx="184.55486"
   inkscape:cy="322.79424"
   inkscape:deskcolor="#d1d1d1"
   inkscape:document-units="mm"
   inkscape:pagecheckerboard="true"
   inkscape:pageopacity="0.0"
   inkscape:showpageshadow="2"
   inkscape:window-height="1417"
   inkscape:window-maximized="1"
   inkscape:window-width="3440"
   inkscape:window-x="-8"
   inkscape:window-y="-8"
   inkscape:zoom="1.4142136"
   pagecolor="#ffffff"
   showgrid="false">
	</sodipodi:namedview>

<g
   id="layer1"
   inkscape:groupmode="layer"
   inkscape:label="РЎР»РѕР№ 1"
   style="display:inline">
	
		
	
		
	
		
	
		
	
		<radialGradient
   id="path29_00000065752957385978036170000015910564743533464505_"
   cx="113.253"
   cy="722.85248"
   r="6.0679998"
   gradientTransform="matrix(1.9217,0,0,-11.0376,103.5076,8317.0146)"
   gradientUnits="userSpaceOnUse">
		<stop
   offset="0.1441"
   style="stop-color:#000000;stop-opacity:1;"
   id="stop1" />
		<stop
   offset="1"
   style="stop-color:#30353c;stop-opacity:1;"
   id="stop2" />
	</radialGradient>
	
		
	
		<radialGradient
   id="path68_00000044874541930399516570000009279153387982543518_"
   cx="113.253"
   cy="722.85248"
   r="6.0679998"
   gradientTransform="matrix(-1.9217,0,0,-11.0376,484.7324,8317.0195)"
   gradientUnits="userSpaceOnUse">
		<stop
   offset="0.1441"
   style="stop-color:#000000;stop-opacity:1;"
   id="stop3" />
		<stop
   offset="1"
   style="stop-color:#30353c;stop-opacity:1;"
   id="stop4" />
	</radialGradient>
	
		
	
		<radialGradient
   id="path4_00000182501977058256673300000006421581735404065168_"
   cx="103.6647"
   cy="726.00378"
   r="3.8585"
   gradientTransform="matrix(5.1714,0,0,-27.9984,-242.2408,20656.5)"
   gradientUnits="userSpaceOnUse">
		<stop
   offset="0"
   style="stop-color:#51565b;stop-opacity:1;"
   id="stop5" />
		<stop
   offset="0.85028249"
   style="stop-color:#2f363c;stop-opacity:1;"
   id="stop6" />
	</radialGradient>
	
		
	
		<radialGradient
   id="path69_00000053508241893170768360000016176631075676228266_"
   cx="103.6653"
   cy="726.00409"
   r="3.8578"
   gradientTransform="matrix(-5.1714,0,0,-27.9984,830.4808,20656.506)"
   gradientUnits="userSpaceOnUse">
		<stop
   offset="0"
   style="stop-color:#51565b;stop-opacity:1;"
   id="stop7" />
		<stop
   offset="0.84745765"
   style="stop-color:#2f363c;stop-opacity:1;"
   id="stop8" />
	</radialGradient>
	
		
	
	
	
	
	
	
	
	
	
		<radialGradient
   id="path74_00000123402493905263489250000006273147629228872631_"
   cx="118.6471"
   cy="703.7738"
   r="5.0015998"
   gradientTransform="matrix(-3.0732,0,0,-4.5124,616.4754,3562.7566)"
   gradientUnits="userSpaceOnUse">
		<stop
   offset="0"
   style="stop-color:#000000"
   id="stop9" />
		<stop
   offset="1"
   style="stop-color:#000000;stop-opacity:0"
   id="stop10" />
	</radialGradient>
	
		
	
		<radialGradient
   id="path13_00000001623032920965031700000009481967001161226901_"
   cx="118.6471"
   cy="703.7738"
   r="5.0015998"
   gradientTransform="matrix(3.0732,0,0,-4.5124,-28.2354,3562.7517)"
   gradientUnits="userSpaceOnUse">
		<stop
   offset="0"
   style="stop-color:#000000"
   id="stop11" />
		<stop
   offset="1"
   style="stop-color:#000000;stop-opacity:0"
   id="stop12" />
	</radialGradient>
	
		
	
		<radialGradient
   id="path75_00000006698056055472845630000000476913759236699799_"
   cx="118.4896"
   cy="733.31982"
   r="5.7375998"
   gradientTransform="matrix(-5.1916,0,0,-2.022,867.5192,1780.0996)"
   gradientUnits="userSpaceOnUse">
		<stop
   offset="0"
   style="stop-color:#000000"
   id="stop13" />
		<stop
   offset="1"
   style="stop-color:#000000;stop-opacity:0"
   id="stop14" />
	</radialGradient>
	
		
	
		<radialGradient
   id="path12_00000155109882662612652620000009521674539995049917_"
   cx="118.4896"
   cy="733.31982"
   r="5.7375998"
   gradientTransform="matrix(5.1916,0,0,-2.022,-279.2792,1780.0945)"
   gradientUnits="userSpaceOnUse">
		<stop
   offset="0"
   style="stop-color:#000000"
   id="stop15" />
		<stop
   offset="1"
   style="stop-color:#000000;stop-opacity:0"
   id="stop16" />
	</radialGradient>
	
		
	
	
	
	
	
		<radialGradient
   id="path78_00000035493026488882107740000012386334225245683088_"
   cx="123.026"
   cy="720.87958"
   r="7.0826001"
   gradientTransform="matrix(-4.346,0,0,-9.1744,773.8466,6959.3667)"
   gradientUnits="userSpaceOnUse">
		<stop
   offset="0"
   style="stop-color:#000000;stop-opacity:0.44"
   id="stop17" />
		<stop
   offset="0.8785"
   style="stop-color:#000000;stop-opacity:0"
   id="stop18" />
	</radialGradient>
	
		
	
		<radialGradient
   id="path1_00000174564823659159510830000015761204594025670295_"
   cx="123.026"
   cy="720.87958"
   r="7.0826001"
   gradientTransform="matrix(4.346,0,0,-9.1744,-185.6065,6959.3618)"
   gradientUnits="userSpaceOnUse">
		<stop
   offset="0"
   style="stop-color:#000000;stop-opacity:0.44"
   id="stop19" />
		<stop
   offset="0.8785"
   style="stop-color:#000000;stop-opacity:0"
   id="stop20" />
	</radialGradient>
	
		
	
		<radialGradient
   id="path11_00000155121570109820834970000004895951731746029725_"
   cx="118.3017"
   cy="721.48749"
   r="5.3724999"
   gradientTransform="matrix(5.7953,0,0,-51.389,-350.2516,37417.82)"
   gradientUnits="userSpaceOnUse">
		<stop
   offset="0"
   style="stop-color:#51565b;stop-opacity:1;"
   id="stop21" />
		<stop
   offset="0.6893"
   style="stop-color:#000000;stop-opacity:6.435644e-02"
   id="stop22" />
	</radialGradient>
	
		
	
		<radialGradient
   id="path79_00000153687319666007084810000014886463855219054737_"
   cx="118.3017"
   cy="721.48749"
   r="5.3724999"
   gradientTransform="matrix(-5.7953,0,0,-51.389,938.4916,37417.824)"
   gradientUnits="userSpaceOnUse">
		<stop
   offset="0"
   style="stop-color:#51565b;stop-opacity:1;"
   id="stop23" />
		<stop
   offset="0.6893"
   style="stop-color:#000000;stop-opacity:6.435644e-02"
   id="stop24" />
	</radialGradient>
	
		
</g>
<g
   id="layer2"
   inkscape:groupmode="layer"
   inkscape:label="Р»РёРЅРёРё"
   style="display:inline">
	
	
	
	
	
	
	
	
	
	
	
	
	
	
	
	
	
	
	
	
	
	
	
	
	
	
	
	
	
	<g
   id="g24"
   transform="translate(-13.796449,-64.750002)"><path
     id="rect1631-6"
     style="display:inline;fill:url(#linearGradient61031-2);stroke-width:11.9317;stroke-linecap:round;stroke-linejoin:round;paint-order:fill markers stroke"
     d="M 294.09723 229.40234 L 16.800355 432.80078 L 58.300355 460.09961 L 154.59918 390 L 219.80035 435 L 252.99957 410.09961 L 294.09723 438.1289 L 294.09723 229.40234 z "
     transform="translate(1.2318259e-7)" /><path
     id="path9"
     style="display:inline;fill:url(#linearGradient9);stroke-width:11.9317;stroke-linecap:round;stroke-linejoin:round;paint-order:fill markers stroke"
     d="M 294.09918 229.40039 L 294.20074 438.09961 L 335.39996 410 L 368.49957 435 L 433.70074 390 L 529.99957 460.09961 L 571.49957 432.80078 L 294.09918 229.40039 z "
     transform="translate(1.2318259e-7)" /><path
     id="path67"
     inkscape:label="РІРЅСѓС‚СЂРµРЅРЅРёР№_РєРѕРЅС‚СѓСЂl"
     sodipodi:nodetypes="ccccccccc"
     class="st2"
     d="m 294.1,235.7 -266,195.2 30.9,20.3 89,-65.7 6.6,4.6 6.7,-5.2 57.8,40.5 33.9,-24.7 41.2,28.1"
     style="display:inline;fill:#30353c;fill-opacity:1" /><path
     id="path3"
     inkscape:label="РІРЅСѓС‚СЂРµРЅРЅРёР№_РєРѕРЅС‚СѓСЂr"
     sodipodi:nodetypes="ccccccccc"
     class="st2"
     d="m 294.1,235.7 266.1,195.3 -30.9,20.2 -89,-65.7 -6.6,4.6 -6.7,-5.2 -57.8,40.5 -33.9,-24.7 -41.2,28.1"
     style="fill:#30353c;fill-opacity:1" /><path
     id="path29"
     inkscape:label="С‚РµРЅСЊ2r"
     style="fill:url(#path29_00000065752957385978036170000015910564743533464505_)"
     d="m 315.8,291.2 -0.1,-8 -0.3,-6.3 -0.3,-7.2 -0.6,-3.4 -1.3,-4.4 3.2,-3 c 0,0 4,0.2 4.4,0.3 0.4,0.1 5,1.6 5,1.6 l 12,9.9 9.1,10.5 -0.3,4.4 -13.9,0.7 -7.6,0.9 -0.7,0.2 -4.2,2.8 1.5,76.7 0.4,25.6 0.3,14.2 v 2.7 l -9.3,6.4 -0.1,-0.1 -0.5,-16 v -7.5 -9.2 l 0.3,-13 0.5,-13.3 0.5,-10.6 0.5,-10.3 0.4,-8 0.3,-6.5 0.2,-4.8 0.1,-4.5 0.2,-5.9 0.1,-6.1 0.1,-4.9 z" /><path
     id="path68"
     inkscape:label="С‚РµРЅСЊ2l"
     style="fill:url(#path68_00000044874541930399516570000009279153387982543518_)"
     d="m 272.4,291.2 0.1,-8 0.3,-6.3 0.3,-7.2 0.6,-3.4 1.3,-4.4 -3.2,-3 c 0,0 -4,0.2 -4.4,0.3 -0.4,0.1 -5,1.6 -5,1.6 l -12,9.9 -9.1,10.5 0.3,4.4 13.9,0.7 7.6,0.9 0.7,0.2 4.2,2.8 -1.5,76.7 -0.4,25.6 -0.3,14.2 v 2.7 l 9.3,6.4 0.1,-0.1 0.5,-16 v -7.5 -9.2 l -0.3,-13 -0.5,-13.3 -0.5,-10.6 -0.5,-10.3 -0.4,-8 -0.3,-6.5 -0.2,-4.8 -0.1,-4.5 -0.2,-5.9 -0.1,-6.1 -0.1,-4.9 z" /><path
     id="path4"
     inkscape:label="С†РµРЅС‚СЂr"
     sodipodi:nodetypes="cccccc"
     style="fill:url(#path4_00000182501977058256673300000006421581735404065168_)"
     d="m 294.1,241.2 c 9.2,0 21.3,16.4 21.3,33 2,46.7 -4.7,82.1 -2.3,141.4 l -3.5,2.5 -15.6,10.6 z" /><path
     id="path69"
     inkscape:label="С†РµРЅС‚СЂl"
     sodipodi:nodetypes="cccccc"
     style="fill:url(#path69_00000053508241893170768360000016176631075676228266_)"
     d="m 294.1,241.2 c -9.2,0 -21.3,16.4 -21.3,33 -2,46.7 4.7,82.1 2.3,141.4 l 3.5,2.5 15.5,10.6 z" /><path
     id="rect1631"
     style="display:inline;fill:url(#linearGradient61031);stroke-width:6.82396;stroke-linecap:round;stroke-linejoin:round;paint-order:fill markers stroke"
     d="M 383.80035 306 L 373.39996 318.69922 L 373.49957 353 L 375.99957 355.30078 L 379.80035 352.80078 L 377.99957 351.09961 L 377.89996 321.30078 L 387.39996 308.90039 L 383.80035 306 z M 422.09918 353.19922 L 396.99957 371.09961 L 399.80035 374 L 422.49957 358.19922 L 523.39996 432 L 533.80035 415.80078 L 530.39996 413.69922 L 522.09918 426 L 422.09918 353.19922 z M 370.99957 353.90039 L 351.30035 367.80078 L 351.20074 390.90039 L 355.30035 388.30078 L 355.30035 370.09961 L 374.09918 356.80078 L 370.99957 353.90039 z M 394.99957 372.19922 L 355.59918 399.59961 L 355.30035 392 L 351.09918 394.5 L 350.89996 407.80078 L 398.20074 375.09961 L 394.99957 372.19922 z " /><path
     id="path8"
     style="display:inline;fill:url(#linearGradient8);stroke-width:7.26416;stroke-linecap:round;stroke-linejoin:round;paint-order:fill markers stroke"
     d="M 204.49957 306 L 200.89996 308.90039 L 210.39996 321.30078 L 210.30035 351.09961 L 208.49957 352.80078 L 212.30035 355.30078 L 214.80035 353 L 214.89996 318.69922 L 204.49957 306 z M 166.09918 353.19922 L 66.099183 426 L 57.800355 413.69922 L 54.399964 415.80078 L 64.800355 432 L 165.70074 358.19922 L 188.39996 374 L 191.20074 371.09961 L 166.09918 353.19922 z M 217.20074 353.90039 L 214.09918 356.80078 L 232.89996 370.09961 L 232.89996 388.30078 L 236.99957 390.90039 L 236.89996 367.80078 L 217.20074 353.90039 z M 193.20074 372.19922 L 189.99957 375.09961 L 237.30035 407.80078 L 237.09918 394.5 L 232.89996 392 L 232.59918 399.59961 L 193.20074 372.19922 z " /><path
     id="path74"
     inkscape:label="РїРѕРґ_РґРІРёРіР°С‚РµР»РµРј2l"
     sodipodi:nodetypes="ccccccc"
     style="fill:url(#path74_00000123402493905263489250000006273147629228872631_)"
     d="m 266.1,392.4 -0.6,26.2 -12.6,-8.5 -14.9,11.1 v -28.7 l 13.3,-11.4 z" /><path
     id="path13"
     inkscape:label="РїРѕРґ_РґРІРёРіР°С‚РµР»РµРј2r"
     sodipodi:nodetypes="ccccccc"
     style="fill:url(#path13_00000001623032920965031700000009481967001161226901_)"
     d="m 322.2,392.4 0.6,26.2 12.6,-8.5 14.9,11.1 V 392.5 L 337,381.1 Z" /><path
     id="path75"
     inkscape:label="РїРѕРґ_РґРІРёРіР°С‚РµР»РµРј1l"
     sodipodi:nodetypes="cccccccccccccc"
     style="fill:url(#path75_00000006698056055472845630000000476913759236699799_)"
     d="m 267.9,290.1 v 0 l -4.2,-2.8 -3.9,2.9 -3.4,-2.9 -3.4,2.9 -3.5,-2.9 -3.4,2.8 -4.4,-2.8 -3.8,3.4 c 2.8,1.8 5.3,4 8,5.9 l 7,-4.2 6.8,4.1 z" /><path
     id="path12"
     inkscape:label="РїРѕРґ_РґРІРёРіР°С‚РµР»РµРј1r"
     sodipodi:nodetypes="cccccccccccccc"
     style="fill:url(#path12_00000155109882662612652620000009521674539995049917_)"
     d="m 320.4,290.1 v 0 l 4.2,-2.8 3.9,2.9 3.4,-2.9 3.4,2.9 3.5,-2.9 3.4,2.8 4.4,-2.8 3.8,3.4 c -2.8,1.8 -5.3,4 -8,5.9 l -7,-4.2 -6.8,4.1 z" /><path
     id="path76"
     inkscape:label="РѕРєРЅРѕ1l"
     sodipodi:nodetypes="ccccc"
     class="st12"
     d="m 293,243.5 v 9.3 c -4.5,0.7 -6.4,2.4 -8.8,6.2 l -4.6,-2.9 c 3.1,-5.2 5.5,-11.2 13.4,-12.6 z"
     style="fill:#000080" /><path
     id="path5"
     inkscape:label="РѕРєРЅРѕ1r"
     sodipodi:nodetypes="ccccc"
     class="st12"
     d="m 295.2,243.5 v 9.3 c 4.5,0.7 6.4,2.4 8.8,6.2 l 4.6,-2.9 c -3.1,-5.3 -5.4,-11.2 -13.4,-12.6 z"
     style="fill:#000080" /><path
     id="path6"
     inkscape:label="РѕРєРЅРѕ2r"
     sodipodi:nodetypes="ccccc"
     class="st12"
     d="m 304.6,260.1 4.5,-2.9 c 2.4,4.7 2.6,10 2.9,15.1 l -4.3,-0.1 c -0.5,-4.7 -1,-8 -3.1,-12.1 z"
     style="fill:#000080" /><path
     id="path77"
     inkscape:label="РѕРєРЅРѕ2l"
     sodipodi:nodetypes="ccccc"
     class="st12"
     d="m 283.7,260.1 -4.5,-2.9 c -2.4,4.7 -2.6,10 -2.9,15.1 l 4.3,-0.1 c 0.4,-4.7 0.9,-8 3.1,-12.1 z"
     style="display:inline;fill:#000080" /><path
     id="path78"
     inkscape:label="С‚РµРЅСЊ1l"
     inkscape:transform-center-x="2.4473934"
     sodipodi:nodetypes="ccccsssccc"
     style="display:inline;fill:url(#path78_00000035493026488882107740000012386334225245683088_)"
     d="m 237.8,290.7 0.8,-20.1 -32.2,29.8 -20.3,27.8 c 0,0 1.1,23.2 1.1,24.9 0,1.7 -5.6,41.7 -5,43.5 0.6,1.9 16.5,9.5 17.2,10.2 0.8,0.8 21.1,1.9 21.1,1.9 l 17.4,2.6 c 0.1,-40.1 0.2,-80.3 -0.1,-120.6 z"
     sodipodi:insensitive="true" /><path
     id="path1"
     inkscape:label="С‚РµРЅСЊ1r"
     inkscape:transform-center-x="-2.4473958"
     sodipodi:nodetypes="ccccsssccc"
     style="display:inline;fill:url(#path1_00000174564823659159510830000015761204594025670295_)"
     d="m 350.4,290.7 -0.8,-20.1 32.2,29.8 20.3,27.8 c 0,0 -1.1,23.2 -1.1,24.9 0,1.7 5.6,41.7 5,43.5 -0.6,1.9 -16.5,9.5 -17.2,10.2 -0.8,0.8 -21.1,1.9 -21.1,1.9 l -17.4,2.6 c 0,-40.1 -0.2,-80.3 0.1,-120.6 z"
     sodipodi:insensitive="true" /><path
     id="path11"
     inkscape:label="РґРІРёРіР°С‚РµР»СЊr"
     sodipodi:nodetypes="ccccccccc"
     style="display:inline;fill:url(#path11_00000155121570109820834970000004895951731746029725_)"
     d="m 320.4,290.1 8.3,6.4 6.7,-4.1 7.1,4.1 8,-5.9 c -0.3,33.8 0,68 -0.3,101.8 L 336.9,381 322.2,392.3 Z" /><path
     id="path79"
     inkscape:label="РґРІРёРіР°С‚РµР»СЊl"
     sodipodi:nodetypes="ccccccccc"
     style="fill:url(#path79_00000153687319666007084810000014886463855219054737_)"
     d="m 267.9,290.1 -8.3,6.4 -6.7,-4.1 -7.1,4.1 -8,-5.9 c 0.3,33.8 0,68 0.3,101.8 l 13.3,-11.4 14.7,11.3 z" /><path
     id="path16"
     class="st17"
     d="m 378.9,297.8 4.2,-3" /><path
     id="path28"
     sodipodi:nodetypes="cc"
     class="st17"
     d="m 313.2,415.8 6.2,5" /><path
     id="path17"
     class="st17"
     d="m 412.6,322.6 4.3,-3" /><path
     id="path18"
     class="st17"
     d="m 445.5,346.7 4.3,-3" /><path
     id="path19"
     class="st17"
     d="m 478.5,370.9 4.4,-3" /><path
     id="path20"
     class="st17"
     d="m 512.2,395.6 4.4,-3" /><path
     id="path21"
     class="st17"
     d="m 545.9,420.3 4.4,-3" /><path
     id="path22"
     class="st17"
     d="m 545.9,440.3 6.2,5.1" /><path
     id="path23"
     class="st17"
     d="m 524,447.4 -5.8,4" /><path
     id="path24"
     class="st17"
     d="m 481.1,415.6 -6.2,4.3" /><path
     id="path25"
     class="st17"
     d="m 399,404.5 6.1,5.1" /><path
     id="path26"
     class="st17"
     d="m 362.2,420.3 -6.8,4.7" /><path
     id="path27"
     class="st17"
     d="M 335.3,400.8 V 410" /><path
     id="path14"
     class="st18"
     d="m 311.8,248.7 4.3,-3" /><path
     id="path15"
     class="st17"
     d="m 345.9,273.6 4.2,-3" /><path
     id="path80"
     class="st17"
     d="m 209.3,297.8 -4.2,-3" /><path
     id="path81"
     sodipodi:nodetypes="cc"
     class="st17"
     d="m 275,415.8 -6.2,5" /><path
     id="path82"
     class="st17"
     d="m 175.6,322.6 -4.3,-3" /><path
     id="path83"
     class="st17"
     d="m 142.7,346.7 -4.3,-3" /><path
     id="path84"
     class="st17"
     d="m 109.8,370.9 -4.4,-3" /><path
     id="path85"
     class="st17"
     d="m 76,395.6 -4.4,-3" /><path
     id="path86"
     class="st17"
     d="m 42.4,420.3 -4.4,-3" /><path
     id="path87"
     class="st17"
     d="m 42.3,440.3 -6.2,5.1" /><path
     id="path88"
     class="st17"
     d="m 64.3,447.4 5.8,4" /><path
     id="path89"
     class="st17"
     d="m 107.2,415.7 6.2,4.3" /><path
     id="path90"
     class="st17"
     d="m 189.2,404.5 -6.1,5.1" /><path
     id="path91"
     class="st17"
     d="m 226,420.3 6.8,4.7" /><path
     id="path92"
     class="st17"
     d="M 252.9,400.8 V 410" /><path
     id="path93"
     class="st18"
     d="m 276.4,248.7 -4.3,-3" /><path
     id="path94"
     class="st17"
     d="m 242.3,273.6 -4.2,-3" /></g>
</g>
</svg>
