<?xml version="1.0" encoding="UTF-8" standalone="no"?>
<svg
   width="7"
   height="10"
   viewBox="0 0 7 10"
   fill="none"
   version="1.1"
   id="svg1"
   sodipodi:docname="cash.svg"
   inkscape:version="1.3.2 (091e20e, 2023-11-25, custom)"
   xmlns:inkscape="http://www.inkscape.org/namespaces/inkscape"
   xmlns:sodipodi="http://sodipodi.sourceforge.net/DTD/sodipodi-0.dtd"
   xmlns="http://www.w3.org/2000/svg"
   xmlns:svg="http://www.w3.org/2000/svg">
  <defs
     id="defs1" />
  <sodipodi:namedview
     id="namedview1"
     pagecolor="#ffffff"
     bordercolor="#111111"
     borderopacity="1"
     inkscape:showpageshadow="0"
     inkscape:pageopacity="0"
     inkscape:pagecheckerboard="1"
     inkscape:deskcolor="#d1d1d1"
     inkscape:zoom="61.05"
     inkscape:cx="5.8558559"
     inkscape:cy="8.0753481"
     inkscape:window-width="1718"
     inkscape:window-height="1408"
     inkscape:window-x="1713"
     inkscape:window-y="0"
     inkscape:window-maximized="0"
     inkscape:current-layer="svg1" />
  <path
     style="font-size:10.5703px;font-family:Montserrat;-inkscape-font-specification:Montserrat;fill:#ffffff;fill-opacity:0.685039;stroke-width:0.17828;stroke-linejoin:bevel;paint-order:markers fill stroke"
     d="m 6.2535632,6.7440995 q 0,0.8139131 -0.6236477,1.3847093 Q 5.0062678,8.6890347 3.8012536,8.7524565 V 9.968041 H 3.2727385 V 8.7630268 Q 2.5011066,8.7207456 1.8140371,8.4670584 1.1375379,8.2028009 0.74643682,7.8011295 L 1.0529755,7.1986224 Q 1.422936,7.5580126 2.0148728,7.8011295 2.6173799,8.0442464 3.2727385,8.0865276 V 5.3065387 Q 2.5433878,5.1268436 2.057154,4.9260079 1.5709202,4.7146018 1.2432409,4.3235007 0.92613192,3.9218293 0.92613192,3.2664707 q 0,-0.8139131 0.59193678,-1.3635687 Q 2.1100055,1.3426761 3.2727385,1.2475434 V 0.0319589 h 0.5285151 v 1.2050142 q 0.6025071,0.021141 1.162733,0.2008357 0.5707962,0.1691248 0.9830379,0.4545229 L 5.682767,2.5159794 Q 5.2493847,2.2411516 4.7631509,2.0825971 4.2769171,1.9240426 3.8012536,1.902902 V 4.7040315 Q 4.5834558,4.894297 5.0802599,5.0951327 5.577064,5.2853981 5.9153136,5.6870695 6.2535632,6.0887409 6.2535632,6.7440995 Z M 1.6977638,3.2453301 q 0,0.5496556 0.4016714,0.8350537 0.4122417,0.2853981 1.1733033,0.4862338 V 1.9240426 Q 2.4905363,1.9874644 2.0888649,2.3574249 1.6977638,2.7168151 1.6977638,3.2453301 Z M 3.8012536,8.0865276 Q 4.6363073,8.0231058 5.0591193,7.6742859 5.4819313,7.325466 5.4819313,6.7863807 5.4819313,6.2155845 5.048549,5.9301864 4.6151667,5.6447883 3.8012536,5.4439526 Z"
     id="text1"
     aria-label="$" />
</svg>
