<svg width="7" height="10" viewBox="0 0 7 10" fill="none" xmlns="http://www.w3.org/2000/svg">
<path d="M6.69758 3.42933C6.66712 3.37066 6.60153 3.33301 6.52928 3.33301H4.32791L6.50048 0.255815C6.5367 0.204491 6.53892 0.139498 6.50624 0.0863391C6.47355 0.0330045 6.41111 0 6.34349 0H3.37119C3.30079 0 3.2365 0.0356605 3.20493 0.0921588L0.418392 5.09166C0.389591 5.14316 0.392748 5.20448 0.426556 5.25364C0.460561 5.3028 0.520188 5.33279 0.584649 5.33279H2.49491L0.413364 9.76769C0.377879 9.84352 0.409467 9.9315 0.487664 9.9745C0.51775 9.991 0.551188 9.99899 0.584453 9.99899C0.637767 9.99899 0.690341 9.97848 0.726762 9.93984L6.67139 3.60712C6.718 3.55748 6.72804 3.48815 6.69758 3.42933Z" fill="#18D04C"/>
</svg>
