<?xml version="1.0" encoding="UTF-8" standalone="no"?>
<svg
   width="300"
   height="300"
   viewBox="0 0 300 300"
   fill="none"
   version="1.1"
   id="svg20"
   sodipodi:docname="logo.svg"
   inkscape:version="1.2.1 (9c6d41e410, 2022-07-14)"
   xml:space="preserve"
   inkscape:export-filename="logo_150.png"
   inkscape:export-xdpi="48"
   inkscape:export-ydpi="48"
   xmlns:inkscape="http://www.inkscape.org/namespaces/inkscape"
   xmlns:sodipodi="http://sodipodi.sourceforge.net/DTD/sodipodi-0.dtd"
   xmlns="http://www.w3.org/2000/svg"
   xmlns:svg="http://www.w3.org/2000/svg"><sodipodi:namedview
     id="namedview22"
     pagecolor="#ffffff"
     bordercolor="#111111"
     borderopacity="1"
     inkscape:showpageshadow="0"
     inkscape:pageopacity="0"
     inkscape:pagecheckerboard="1"
     inkscape:deskcolor="#d1d1d1"
     showgrid="false"
     inkscape:zoom="2.8284271"
     inkscape:cx="98.111067"
     inkscape:cy="129.04699"
     inkscape:window-width="3440"
     inkscape:window-height="1417"
     inkscape:window-x="-8"
     inkscape:window-y="-8"
     inkscape:window-maximized="1"
     inkscape:current-layer="g396" /><defs
     id="defs18"><filter
       id="filter0_b_0_1"
       x="-18.8489"
       y="-18.8672"
       width="402.698"
       height="118.953"
       filterUnits="userSpaceOnUse"
       color-interpolation-filters="sRGB"><feFlood
         flood-opacity="0"
         result="BackgroundImageFix"
         id="feFlood294" /><feGaussianBlur
         in="BackgroundImageFix"
         stdDeviation="9.5"
         id="feGaussianBlur296" /><feComposite
         in2="SourceAlpha"
         operator="in"
         result="effect1_backgroundBlur_0_1"
         id="feComposite298" /><feBlend
         mode="normal"
         in="SourceGraphic"
         in2="effect1_backgroundBlur_0_1"
         result="shape"
         id="feBlend300" /></filter></defs><g
     style="fill:none"
     id="g147"
     transform="translate(0.02,-0.354)"><g
       style="fill:none"
       id="g396"
       transform="matrix(2.9870595,0,0,2.9870595,0.799,0.886)"
       inkscape:label="g396"><path
         d="m 49.942427,-0.17810157 c -27.690242,0 -50.21660969,22.52636757 -50.21660969,50.21660957 0,27.690242 22.52636769,50.216612 50.21660969,50.216612 27.690242,0 50.216613,-22.52637 50.216613,-50.216612 0,-27.690242 -22.526371,-50.21660957 -50.216613,-50.21660957 z m 0,2.78981387 c 26.151705,0 47.426775,21.2750897 47.426775,47.4267957 0,26.151705 -21.27507,47.426775 -47.426775,47.426775 -26.151706,0 -47.4267958,-21.27507 -47.4267958,-47.426775 0,-26.151706 21.2750898,-47.4267957 47.4267958,-47.4267957 z m 0,4.1847107 c -23.844554,0 -43.242085,19.398937 -43.242085,43.242085 0,23.843147 19.397531,43.242125 43.242085,43.242125 23.844553,0 43.242125,-19.398978 43.242125,-43.242125 0,-12.163568 -5.166887,-23.8321 -14.177957,-32.017408 -0.283121,-0.258113 -0.722717,-0.238328 -0.983542,0.0463 -0.259419,0.285933 -0.239634,0.726735 0.0463,0.986254 8.719612,7.920264 13.720282,19.213277 13.720282,30.984854 0,23.074532 -18.772676,41.847208 -41.847208,41.847208 -23.074532,0 -41.8471781,-18.772676 -41.8471781,-41.847208 0,-23.074533 18.7726461,-41.847178 41.8471781,-41.847178 4.953266,0 9.79937,0.8553897 14.406743,2.544646 0.361259,0.133877 0.763795,-0.05142 0.896367,-0.414187 C 65.378008,9.9591254 65.191407,9.5607369 64.828639,9.4282253 60.067903,7.6831981 55.058897,6.796423 49.942427,6.796423 Z m 18.872105,4.38628 c -0.270668,-0.01587 -0.538824,0.126445 -0.667479,0.386869 -0.170235,0.345992 -0.02852,0.762991 0.316063,0.934531 0.931719,0.460285 1.853495,0.958936 2.743434,1.484804 0.111581,0.06699 0.235516,0.09812 0.356939,0.09812 0.238529,0 0.469626,-0.121625 0.599386,-0.340569 0.195242,-0.332033 0.08537,-0.759577 -0.245258,-0.956325 -0.919265,-0.545353 -1.874988,-1.060877 -2.836134,-1.536528 -0.08537,-0.04188 -0.176762,-0.06558 -0.266951,-0.07091 z m 5.418874,3.321126 c -0.175758,0.03053 -0.339364,0.127048 -0.449539,0.286033 -0.221757,0.31526 -0.146331,0.750839 0.168929,0.972696 0.464503,0.326408 0.921173,0.658039 1.370411,1.002524 0.126948,0.09622 0.277095,0.144423 0.424933,0.144423 0.209303,0 0.417702,-0.0939 0.555797,-0.272475 0.233005,-0.306823 0.17616,-0.745114 -0.130764,-0.978019 -0.465909,-0.355734 -0.938146,-0.704539 -1.419422,-1.040789 -0.15758,-0.109472 -0.344587,-0.144925 -0.520345,-0.114393 z"
         fill="#eb9929"
         id="path386"
         inkscape:label="path386"
         sodipodi:nodetypes="sssssssssssssscccsssscccsccccsccccscccscccs"
         style="display:inline;fill:#4a4a4a;fill-opacity:1;stroke-width:1.00433" /><path
         d="m 85.668218,30.127253 c -2.439072,5.3e-5 -4.312325,1.188849 -5.619761,3.566391 -0.326941,0.607656 -1.118986,2.813533 -2.376139,6.617635 l -2.074405,6.300625 h 7.052985 v 3.249378 H 74.541849 L 63.415482,83.623114 h -1.50866 l -7.052984,-20.843572 -9.165027,7.7e-5 -7.01535,20.843495 H 37.315667 L 25.812137,49.861282 h -8.41078 v -3.249378 h 7.316998 l -2.602436,-7.608299 c -1.131504,-3.355003 -1.848115,-5.32312 -2.149838,-5.904359 -0.980636,-1.981278 -2.841317,-2.97194 -5.582044,-2.971993 v -1.466182 h 18.933681 v 1.466182 h -0.905195 c -2.740749,5.3e-5 -4.111114,1.083177 -4.111098,3.249378 -1.6e-5,0.951086 0.55316,3.07771 1.659524,6.37988 l 2.30071,6.855393 H 47.72542 l 0.792046,-2.337966 -2.715587,-8.123446 c -0.352052,-1.056661 -0.942945,-2.21904 -1.772674,-3.487139 -0.704073,-1.083074 -1.734987,-1.849187 -3.092755,-2.29834 -0.477766,-0.158454 -1.232098,-0.237707 -2.262989,-0.23776 v -1.466182 h 19.91431 v 1.466182 h -1.357792 c -2.715631,5.3e-5 -4.073422,1.175639 -4.073383,3.526765 -3.9e-5,1.320932 0.565707,3.672106 1.697242,7.053529 l 1.998977,5.904357 h 15.463761 l 2.074409,-6.300625 c 1.106287,-3.355002 1.659463,-5.626923 1.659524,-6.815768 -6.1e-5,-1.37367 -0.641243,-2.311498 -1.923541,-2.813486 -0.955544,-0.369796 -2.200189,-0.554719 -3.733933,-0.554772 V 28.661071 H 85.668218 Z M 71.260516,49.861282 H 57.908875 l 4.337455,12.918337 h 4.752205 z M 66.998535,62.779619 H 62.24633 l 2.413797,7.132706 z m -12.144666,0 -4.412861,-12.918337 h -0.377164 l -4.375033,12.918337 z m -8.257888,-12.909016 -13.278389,-0.0094 6.713662,20.051101 z"
         style="font-style:normal;font-variant:normal;font-weight:normal;font-stretch:normal;font-size:200px;line-height:125%;font-family:'Times New Roman';-inkscape-font-specification:'Times New Roman';text-align:center;letter-spacing:0px;word-spacing:-70px;text-anchor:middle;display:inline;fill:#4a4a4a;fill-opacity:1;stroke:none;stroke-width:0.39585;stroke-dasharray:none"
         id="path2986"
         inkscape:connector-curvature="0"
         inkscape:label="path2986"
         sodipodi:nodetypes="cccccccccccccccccccccccccccccccccccccccccccccccccccccccccccccccccc" /></g></g></svg>
