<?xml version="1.0" encoding="UTF-8" standalone="no"?>
<svg
   width="300"
   height="300"
   viewBox="0 0 300 300"
   fill="none"
   version="1.1"
   id="svg20"
   sodipodi:docname="nopic.svg"
   inkscape:version="1.2.1 (9c6d41e410, 2022-07-14)"
   xml:space="preserve"
   xmlns:inkscape="http://www.inkscape.org/namespaces/inkscape"
   xmlns:sodipodi="http://sodipodi.sourceforge.net/DTD/sodipodi-0.dtd"
   xmlns="http://www.w3.org/2000/svg"
   xmlns:svg="http://www.w3.org/2000/svg"><sodipodi:namedview
     id="namedview22"
     pagecolor="#ffffff"
     bordercolor="#111111"
     borderopacity="1"
     inkscape:showpageshadow="0"
     inkscape:pageopacity="0"
     inkscape:pagecheckerboard="1"
     inkscape:deskcolor="#d1d1d1"
     showgrid="false"
     inkscape:zoom="2.8284271"
     inkscape:cx="108.36411"
     inkscape:cy="124.45079"
     inkscape:window-width="3440"
     inkscape:window-height="1417"
     inkscape:window-x="-8"
     inkscape:window-y="-8"
     inkscape:window-maximized="1"
     inkscape:current-layer="svg20" /><defs
     id="defs18"><clipPath
       clipPathUnits="userSpaceOnUse"
       id="clipPath1026"><path
         id="path1028"
         style="opacity:0.291925;fill:#0000e2;stroke-opacity:0"
         d="m 365.29895,-165.613 c 0,0 -6.04859,-0.0349 -9.92578,0.32226 -3.87721,0.35717 -7.20919,1.10555 -9.98047,1.84571 -2.77128,0.74015 -5.19663,1.43685 -8.27344,2.67187 -3.07681,1.23503 -5.32356,2.25569 -7.49805,3.44727 -4.0786,2.235 -7.17531,4.35505 -10.92773,7.28125 -3.75242,2.92619 -8.55945,7.17218 -11.4043,11.15234 -5.79328,8.10526 -9.32329,17.77202 -11.1582,27.08594 -3.0348,15.404471 0.21094,46.01953 0.21094,46.01953 0,0 -1.60272,0.60887 -2.55469,0.54297 -1.57212,-0.10891 -1.78003,-0.7407 -2.45898,-0.6875 -0.67896,0.0532 -0.90789,0.23471 -1.40625,0.51953 -0.54581,0.31194 -0.75,2.27148 -0.75,2.27148 0,0 -0.87954,2.86594 2.30078,26.96289 0.3115,2.36023 1.47982,3.79175 2.96679,5.48243 1.44217,1.63973 5.08594,2.48632 5.08594,2.48633 0,0 0.49967,4.60114 1.0918,6.67187 0.61993,2.16799 2.55273,5.94336 2.55273,5.94336 0,0 5.94334,11.93309 9.0293,17.52539 3.59936,6.5227 10.36914,18.56055 10.36914,18.56055 0,0 1.13857,15.80538 -0.82617,23.23633 -0.97598,3.6913 -2.8573,7.67733 -5.06055,10.32812 -2.20326,2.65078 -8.36523,6.50781 -8.36523,6.50781 l -58.76368,23.13281 c 0,0 9.25968,8.88672 19.36329,16.13086 10.1036,7.24415 21.05029,12.84703 30.20898,16.60938 10.38865,4.26762 25.57083,8.57887 39.49805,10.79102 13.92719,2.21214 26.5957,2.32031 26.5957,2.32031 z"
         sodipodi:nodetypes="csssssssccsscsscscscssccssscc" /></clipPath></defs><path
     id="path590-0"
     style="opacity:1;fill:#28353e;stroke-opacity:1;fill-opacity:1;stroke:#ffffff;stroke-width:1;stroke-dasharray:none"
     d="M 150.86133 2.8925781 C 150.86133 2.8925781 144.81273 2.8576764 140.93555 3.2148438 C 137.05834 3.5720107 133.72636 4.3203934 130.95508 5.0605469 C 128.1838 5.8007001 125.75845 6.4973984 122.68164 7.7324219 C 119.60483 8.967445 117.35808 9.9881131 115.18359 11.179688 C 111.105 13.414686 108.00828 15.534747 104.25586 18.460938 C 100.50344 21.387125 95.696405 25.633121 92.851562 29.613281 C 87.058291 37.718534 83.528273 47.385306 81.693359 56.699219 C 78.658563 72.103675 81.904297 102.71875 81.904297 102.71875 C 81.904297 102.71875 80.301582 103.32762 79.349609 103.26172 C 77.777494 103.15281 77.569581 102.52102 76.890625 102.57422 C 76.211669 102.62742 75.982745 102.80893 75.484375 103.09375 C 74.938575 103.40569 74.734375 105.36523 74.734375 105.36523 C 74.734375 105.36523 73.854846 108.2312 77.035156 132.32812 C 77.346658 134.68835 78.514981 136.11987 80.001953 137.81055 C 81.444119 139.45028 85.087891 140.29687 85.087891 140.29688 C 85.087891 140.29688 85.587559 144.89802 86.179688 146.96875 C 86.799623 149.13674 88.732422 152.91211 88.732422 152.91211 C 88.732422 152.91211 94.675768 164.84521 97.761719 170.4375 C 101.36108 176.96019 108.13086 188.99805 108.13086 188.99805 C 108.13086 188.99805 109.26943 204.80343 107.30469 212.23438 C 106.32871 215.92567 104.44739 219.91171 102.24414 222.5625 C 100.04088 225.21328 93.878906 229.07031 93.878906 229.07031 L 35.115234 252.20312 C 35.115234 252.20312 44.374922 261.08985 54.478516 268.33398 C 64.582111 275.57813 75.528816 281.18101 84.6875 284.94336 C 95.076137 289.21098 110.25834 293.52223 124.18555 295.73438 C 138.11104 297.94625 150.77624 298.05466 150.7793 298.05469 L 150.7793 298.05664 C 150.7793 298.05664 163.45364 297.94458 177.38086 295.73242 C 191.30809 293.52027 206.4883 289.20902 216.87695 284.94141 C 226.03565 281.17906 236.98427 275.57617 247.08789 268.33203 C 257.1915 261.08788 266.45117 252.20117 266.45117 252.20117 L 207.68555 229.06836 C 207.68555 229.06836 201.52357 225.21132 199.32031 222.56055 C 197.11706 219.90976 195.23574 215.92569 194.25977 212.23438 C 192.29503 204.80343 193.43359 188.99609 193.43359 188.99609 C 193.43359 188.99609 200.20532 176.95826 203.80469 170.43555 C 206.89064 164.84323 212.83203 152.91016 212.83203 152.91016 C 212.83203 152.91016 214.76483 149.13478 215.38477 146.9668 C 215.9769 144.89607 216.47656 140.29492 216.47656 140.29492 C 216.47656 140.29492 220.12033 139.44832 221.5625 137.80859 C 223.04948 136.11792 224.21975 134.6864 224.53125 132.32617 C 227.71157 108.22919 226.83008 105.36328 226.83008 105.36328 C 226.83008 105.36328 226.62588 103.40374 226.08008 103.0918 C 225.58171 102.80698 225.35278 102.62548 224.67383 102.57227 C 223.99487 102.51907 223.78696 103.15086 222.21484 103.25977 C 221.26287 103.32567 219.66016 102.7168 219.66016 102.7168 C 219.66016 102.7168 222.90785 72.101754 219.87305 56.697266 C 218.03813 47.383335 214.50617 37.716597 208.71289 29.611328 C 205.86804 25.63116 201.06296 21.385177 197.31055 18.458984 C 193.55813 15.53279 190.45948 13.412739 186.38086 11.177734 C 184.20637 9.9861584 181.96157 8.9654945 178.88477 7.7304688 C 175.80796 6.495443 173.38065 5.798749 170.60938 5.0585938 C 167.8381 4.3184395 164.50807 3.5700583 160.63086 3.2128906 C 156.76246 2.8565347 150.88808 2.8943597 150.86133 2.8945312 L 150.86133 2.8925781 z " /></svg>
