<?xml version="1.0" encoding="UTF-8" standalone="no"?>
<!-- Created with Inkscape (http://www.inkscape.org/) -->

<svg
   width="210mm"
   height="210mm"
   viewBox="0 0 210 210"
   version="1.1"
   id="svg5"
   xml:space="preserve"
   inkscape:version="1.2.1 (9c6d41e410, 2022-07-14)"
   sodipodi:docname="wild_pass.svg"
   xmlns:inkscape="http://www.inkscape.org/namespaces/inkscape"
   xmlns:sodipodi="http://sodipodi.sourceforge.net/DTD/sodipodi-0.dtd"
   xmlns="http://www.w3.org/2000/svg"
   xmlns:svg="http://www.w3.org/2000/svg"><sodipodi:namedview
     id="namedview7"
     pagecolor="#ffffff"
     bordercolor="#111111"
     borderopacity="1"
     inkscape:showpageshadow="0"
     inkscape:pageopacity="0"
     inkscape:pagecheckerboard="1"
     inkscape:deskcolor="#d1d1d1"
     inkscape:document-units="mm"
     showgrid="false"
     inkscape:zoom="1.2938725"
     inkscape:cx="403.05363"
     inkscape:cy="445.94812"
     inkscape:window-width="1718"
     inkscape:window-height="1401"
     inkscape:window-x="1706"
     inkscape:window-y="0"
     inkscape:window-maximized="0"
     inkscape:current-layer="text11973" /><defs
     id="defs2"><inkscape:path-effect
       effect="perspective-envelope"
       up_left_point="43.546421,50.888199"
       up_right_point="152.16078,37.835957"
       down_left_point="41.522079,145.16855"
       down_right_point="147.19666,164.25521"
       id="path-effect21560"
       is_visible="true"
       lpeversion="1"
       deform_type="perspective"
       horizontal_mirror="false"
       vertical_mirror="false"
       overflow_perspective="false" /><filter
       style="color-interpolation-filters:sRGB"
       inkscape:label="Drop Shadow"
       id="filter38100"
       x="-0.053929424"
       y="-0.055880741"
       width="1.1777896"
       height="1.1480703"><feFlood
         flood-opacity="0.498039"
         flood-color="rgb(0,0,0)"
         result="flood"
         id="feFlood38090" /><feComposite
         in="flood"
         in2="SourceGraphic"
         operator="in"
         result="composite1"
         id="feComposite38092" /><feGaussianBlur
         in="composite1"
         stdDeviation="2"
         result="blur"
         id="feGaussianBlur38094" /><feOffset
         dx="6.38629"
         dy="3.2"
         result="offset"
         id="feOffset38096" /><feComposite
         in="SourceGraphic"
         in2="offset"
         operator="over"
         result="fbSourceGraphic"
         id="feComposite38098" /><feColorMatrix
         result="fbSourceGraphicAlpha"
         in="fbSourceGraphic"
         values="0 0 0 -1 0 0 0 0 -1 0 0 0 0 -1 0 0 0 0 1 0"
         id="feColorMatrix38102" /><feFlood
         id="feFlood38104"
         flood-opacity="0.498039"
         flood-color="rgb(0,0,0)"
         result="flood"
         in="fbSourceGraphic" /><feComposite
         in2="fbSourceGraphic"
         id="feComposite38106"
         in="flood"
         operator="in"
         result="composite1" /><feGaussianBlur
         id="feGaussianBlur38108"
         in="composite1"
         stdDeviation="2"
         result="blur" /><feOffset
         id="feOffset38110"
         dx="6.38629"
         dy="3.2"
         result="offset" /><feComposite
         in2="offset"
         id="feComposite38112"
         in="fbSourceGraphic"
         operator="over"
         result="composite2" /></filter><filter
       style="color-interpolation-filters:sRGB"
       inkscape:label="Drop Shadow"
       id="filter39354"
       x="-0.00094256741"
       y="-0.00095026225"
       width="1.0166279"
       height="1.0153297"><feFlood
         flood-opacity="0.498039"
         flood-color="rgb(0,0,0)"
         result="flood"
         id="feFlood39344" /><feComposite
         in="flood"
         in2="SourceGraphic"
         operator="out"
         result="composite1"
         id="feComposite39346" /><feGaussianBlur
         in="composite1"
         stdDeviation="0"
         result="blur"
         id="feGaussianBlur39348" /><feOffset
         dx="0.8"
         dy="0.8"
         result="offset"
         id="feOffset39350" /><feComposite
         in="offset"
         in2="SourceGraphic"
         operator="atop"
         result="fbSourceGraphic"
         id="feComposite39352" /><feColorMatrix
         result="fbSourceGraphicAlpha"
         in="fbSourceGraphic"
         values="0 0 0 -1 0 0 0 0 -1 0 0 0 0 -1 0 0 0 0 1 0"
         id="feColorMatrix39356" /><feFlood
         id="feFlood39358"
         flood-opacity="0.498039"
         flood-color="rgb(0,0,0)"
         result="flood"
         in="fbSourceGraphic" /><feComposite
         in2="fbSourceGraphic"
         id="feComposite39360"
         in="flood"
         operator="out"
         result="composite1" /><feGaussianBlur
         id="feGaussianBlur39362"
         in="composite1"
         stdDeviation="0"
         result="blur" /><feOffset
         id="feOffset39364"
         dx="0.8"
         dy="0.8"
         result="offset" /><feComposite
         in2="fbSourceGraphic"
         id="feComposite39366"
         in="offset"
         operator="atop"
         result="composite2" /></filter></defs><g
     inkscape:label="Слой 1"
     inkscape:groupmode="layer"
     id="layer1"><path
       id="path2802-7"
       style="fill:#ffb400;fill-opacity:1;stroke:#000000;stroke-width:0.5;stroke-dasharray:none;stroke-opacity:1;filter:url(#filter38100)"
       d="m 162.8235,13.222104 c -4.31948,-0.06747 -9.30951,0.476974 -9.30951,0.476974 l -49.09933,5.639449 -81.947978,10.270174 c 0,0 -2.29845,0.306595 -3.92586,0.767395 -1.6274,0.4608 -2.77525,1.216464 -3.66903,1.934765 -0.89377,0.718302 -1.90341,1.64471 -2.51044,2.979664 -0.60703,1.334952 -0.81132,3.078362 -0.81132,3.078362 l -0.0357,115.451873 c 0,0 0.19507,1.2901 0.41289,1.90066 0.34563,0.96879 0.83772,1.88866 1.40199,2.74867 0.57901,0.88246 1.23564,1.73086 2.01486,2.44275 0.82547,0.75413 1.7702,1.39057 2.76934,1.89239 0.96088,0.4826 3.05046,1.04955 3.05046,1.04955 l 63.71653,10.63294 77.519828,13.08706 c 0,0 0.12437,0.0103 0.14108,0.0119 l 12.34446,1.89808 c 0,0 3.42459,0.01 5.10202,-0.28629 1.55729,-0.27469 3.17363,-0.57672 4.54132,-1.37046 1.62643,-0.94389 2.93794,-2.39841 4.09484,-3.8809 1.28781,-1.65024 2.27513,-3.5397 3.0825,-5.47098 0.84326,-2.01715 1.40043,-4.15712 1.80558,-6.30556 0.42711,-2.2649 0.64853,-6.88382 0.64853,-6.88382 L 193.90477,36.578301 c 0.0382,-0.709192 -0.48552,-5.879792 -0.95705,-7.97419 -0.61239,-2.587736 -1.63323,-4.095849 -3.34192,-6.551538 -0.69955,-0.908129 -1.55142,-1.693813 -2.40657,-2.457214 -0.90653,-0.809262 -1.85438,-1.582634 -2.87631,-2.240174 -1.09277,-0.703117 -2.24825,-1.321775 -3.45405,-1.806091 -1.35035,-0.542376 -2.77103,-0.908711 -4.19354,-1.21543 -1.60112,-0.34523 -3.23323,-0.543058 -4.86379,-0.698148 -2.54724,-0.242282 -7.01143,-0.35793 -7.85172,-0.378789 -0.37123,-0.01662 -0.75038,-0.02859 -1.13636,-0.03462 z" /><path
       id="path2802"
       style="fill:#ffb400;fill-opacity:1;stroke:#000000;stroke-width:0.5;stroke-dasharray:none;stroke-opacity:1"
       d="m 168.49474,13.477548 c 1.37215,0.178596 2.9177,0.548438 4.20945,1.044559 0.86823,0.333461 1.89119,1.005982 2.43757,1.35754 1.02193,0.657537 1.96979,1.430912 2.87631,2.240173 0.85515,0.7634 1.70703,1.549086 2.40658,2.457215 1.70868,2.455686 2.72952,3.963804 3.34191,6.551538 0.47153,2.094396 0.99525,7.264999 0.95705,7.97419 l 0.2558,128.708427 c 0,0 -0.22143,4.61892 -0.64854,6.88382 -0.40515,2.14844 -0.96232,4.28841 -1.80558,6.30556 -0.80737,1.93127 -1.79469,3.82074 -3.0825,5.47098 -1.1569,1.48249 -2.46841,2.93701 -4.09484,3.8809 -1.36769,0.79374 -2.98403,1.09577 -4.54132,1.37046 -1.67743,0.29629 -5.10202,0.28629 -5.10202,0.28629 -18.04793,-2.69972 -0.51834,0.0113 9.28574,1.51879 0,0 3.42459,0.01 5.10202,-0.28629 1.55728,-0.27469 3.17363,-0.57672 4.54132,-1.37046 1.62643,-0.94389 2.93794,-2.39841 4.09484,-3.8809 1.28781,-1.65024 2.27513,-3.53971 3.0825,-5.47098 0.84326,-2.01715 1.40043,-4.15712 1.80558,-6.30556 0.42711,-2.2649 0.64853,-6.88382 0.64853,-6.88382 L 194.00935,36.621537 c 0.0382,-0.709191 -0.48552,-5.879794 -0.95705,-7.97419 -0.61239,-2.587733 -1.63323,-4.095852 -3.34192,-6.551538 -0.69955,-0.908128 -1.55142,-1.693814 -2.40657,-2.457214 -0.90653,-0.809262 -1.85438,-1.582634 -2.87631,-2.240174 -1.09277,-0.703116 -2.24825,-1.321776 -3.45405,-1.806091 -1.35035,-0.542376 -2.77103,-0.908711 -4.19354,-1.21543 -1.60112,-0.345229 -3.23323,-0.543059 -4.86379,-0.698148 z"
       sodipodi:nodetypes="csssccccsssscccsssssccccsssscc" /><g
       aria-label="₩"
       id="text11973"
       style="font-size:144.122px;opacity:1;fill:#e5a200;fill-opacity:1;stroke:none;stroke-width:1.02133;stroke-opacity:1;filter:url(#filter39354)"><path
         id="path19331"
         style="font-family:'Times New Roman';-inkscape-font-specification:'Times New Roman, ';fill:#e5a200;fill-opacity:1;stroke:#000000;stroke-width:0.5;stroke-dasharray:none;stroke-opacity:1"
         d="m 152.16074,37.835933 -29.15223,3.503146 -0.11059,3.203422 c 2.74236,-0.307349 4.98183,-0.151306 6.69985,0.47594 2.32839,0.862659 3.44691,2.83558 3.33572,5.908166 -0.0961,2.656462 -1.30739,7.803183 -3.61167,15.370122 l -4.24418,13.956254 -25.876977,0.551904 -2.738851,-11.868526 c -1.532544,-6.730223 -2.255187,-11.410199 -2.175577,-14.077694 0.141874,-4.753949 2.300639,-7.367378 6.548435,-7.843449 l 2.16111,-0.242362 0.0951,-3.040125 -29.395627,3.532601 -0.07441,2.799829 c 1.406973,-0.157686 2.439676,-0.121525 3.091284,0.110071 1.865247,0.660234 3.272175,1.992173 4.209046,3.998205 1.110629,2.360526 1.891236,4.556946 2.337842,6.582544 l 3.479891,15.719454 -1.28416,4.622457 -21.097937,0.450102 -2.619478,-12.48606 c -1.247,-5.955286 -1.846631,-9.78785 -1.804541,-11.527461 0.09596,-3.966173 1.872206,-6.145134 5.383134,-6.538619 l 1.176155,-0.131775 0.06925,-2.741435 -23.015133,2.765723 -0.05478,2.553332 c 3.133469,-0.351181 5.25763,1.16005 6.329846,4.553727 0.332357,0.997832 1.100292,4.420168 2.30942,10.293946 l 2.815332,13.459127 -8.637715,0.183968 -0.124541,5.660119 9.955465,-0.03462 c 3.867524,18.664314 8.689898,41.564974 13.037447,62.605474 l 1.791622,0.3235 C 76.82196,129.45358 82.746134,108.44783 88.691807,87.443761 l 0.557072,-0.0016 c 5.201222,23.052749 10.395136,46.097159 15.589231,69.162179 l 2.4324,0.43925 21.57698,-69.739922 15.35514,-0.05374 0.2837,-7.410918 -13.44517,0.286805 4.38009,-14.170712 c 2.70478,-8.721734 4.41265,-13.848151 5.09633,-15.287955 2.75446,-5.689124 6.57201,-8.835854 11.50834,-9.389091 z M 122.95167,87.324386 110.22945,129.16163 100.65329,87.402417 Z M 83.75096,87.461328 C 80.304405,100.0634 76.88387,112.65098 73.461666,125.26005 L 65.566541,87.52489 Z"
         sodipodi:nodetypes="cccccccccsccccccccccccsccccccccccccccccccccccccccccccccc" /></g></g></svg>
