<?xml version="1.0" encoding="UTF-8" standalone="no"?>
<!-- Created with Inkscape (http://www.inkscape.org/) -->

<svg
   width="210mm"
   height="210mm"
   viewBox="0 0 210 210"
   version="1.1"
   id="svg1"
   xml:space="preserve"
   inkscape:version="1.3.2 (091e20e, 2023-11-25, custom)"
   sodipodi:docname="carrier_green.svg"
   xmlns:inkscape="http://www.inkscape.org/namespaces/inkscape"
   xmlns:sodipodi="http://sodipodi.sourceforge.net/DTD/sodipodi-0.dtd"
   xmlns:xlink="http://www.w3.org/1999/xlink"
   xmlns="http://www.w3.org/2000/svg"
   xmlns:svg="http://www.w3.org/2000/svg"><sodipodi:namedview
     id="namedview1"
     pagecolor="#ffffff"
     bordercolor="#000000"
     borderopacity="0.25"
     inkscape:showpageshadow="2"
     inkscape:pageopacity="0.0"
     inkscape:pagecheckerboard="0"
     inkscape:deskcolor="#d1d1d1"
     inkscape:document-units="mm"
     showguides="true"
     inkscape:zoom="1"
     inkscape:cx="-56.5"
     inkscape:cy="515.5"
     inkscape:window-width="3440"
     inkscape:window-height="1417"
     inkscape:window-x="-8"
     inkscape:window-y="-8"
     inkscape:window-maximized="1"
     inkscape:current-layer="layer1" /><defs
     id="defs1"><linearGradient
       id="linearGradient2"
       inkscape:collect="always"><stop
         style="stop-color:#cee700;stop-opacity:0.55349797;"
         offset="0"
         id="stop3" /><stop
         style="stop-color:#869900;stop-opacity:0.60000002;"
         offset="1"
         id="stop4" /></linearGradient><linearGradient
       id="linearGradient17"
       inkscape:collect="always"><stop
         style="stop-color:#161a00;stop-opacity:1;"
         offset="0"
         id="stop17" /><stop
         style="stop-color:#7f9900;stop-opacity:0;"
         offset="1"
         id="stop18" /></linearGradient><linearGradient
       id="linearGradient583"
       inkscape:collect="always"><stop
         style="stop-color:#ddff33;stop-opacity:1;"
         offset="0"
         id="stop584" /><stop
         style="stop-color:#7f9900;stop-opacity:0.5;"
         offset="1"
         id="stop585" /></linearGradient><linearGradient
       id="linearGradient581"
       inkscape:collect="always"><stop
         style="stop-color:#ddff33;stop-opacity:1;"
         offset="0"
         id="stop582" /><stop
         style="stop-color:#809a00;stop-opacity:0.5;"
         offset="1"
         id="stop583" /></linearGradient><linearGradient
       id="linearGradient580"
       inkscape:collect="always"><stop
         style="stop-color:#161a00;stop-opacity:1;"
         offset="0"
         id="stop580" /><stop
         style="stop-color:#7f9900;stop-opacity:0;"
         offset="1"
         id="stop581" /></linearGradient><inkscape:path-effect
       effect="bspline"
       id="path-effect729"
       is_visible="true"
       lpeversion="1"
       weight="33.333333"
       steps="2"
       helper_size="0"
       apply_no_weight="true"
       apply_with_weight="true"
       only_selected="false"
       uniform="false" /><inkscape:path-effect
       effect="bspline"
       id="path-effect1385"
       is_visible="true"
       lpeversion="1"
       weight="33.333333"
       steps="2"
       helper_size="0"
       apply_no_weight="true"
       apply_with_weight="true"
       only_selected="false"
       uniform="false" /><inkscape:path-effect
       effect="bspline"
       id="path-effect312"
       is_visible="true"
       lpeversion="1"
       weight="33.333333"
       steps="2"
       helper_size="0"
       apply_no_weight="true"
       apply_with_weight="true"
       only_selected="false"
       uniform="false" /><inkscape:path-effect
       effect="bspline"
       id="path-effect50"
       is_visible="true"
       lpeversion="1"
       weight="33.333333"
       steps="2"
       helper_size="0"
       apply_no_weight="true"
       apply_with_weight="true"
       only_selected="false"
       uniform="false" /><inkscape:path-effect
       effect="bspline"
       id="path-effect52"
       is_visible="true"
       lpeversion="1"
       weight="33.333333"
       steps="2"
       helper_size="0"
       apply_no_weight="true"
       apply_with_weight="true"
       only_selected="false"
       uniform="false" /><inkscape:path-effect
       effect="bspline"
       id="path-effect54"
       is_visible="true"
       lpeversion="1"
       weight="33.333333"
       steps="2"
       helper_size="0"
       apply_no_weight="true"
       apply_with_weight="true"
       only_selected="false"
       uniform="false" /><radialGradient
       inkscape:collect="always"
       xlink:href="#linearGradient580"
       id="radialGradient581"
       cx="105.07166"
       cy="258.60706"
       fx="105.07166"
       fy="258.60706"
       r="103.07987"
       gradientTransform="matrix(1.0725995,0,0,0.41638007,-7.6281497,39.932557)"
       gradientUnits="userSpaceOnUse" /><radialGradient
       inkscape:collect="always"
       xlink:href="#linearGradient581"
       id="radialGradient583"
       cx="105.02719"
       cy="188.04417"
       fx="105.02719"
       fy="188.04417"
       r="4.8165979"
       gradientTransform="matrix(1.6866445,0,0,38.723298,-72.116348,-7147.383)"
       gradientUnits="userSpaceOnUse" /><radialGradient
       inkscape:collect="always"
       xlink:href="#linearGradient583"
       id="radialGradient585"
       cx="105.02718"
       cy="99.840584"
       fx="105.02718"
       fy="99.840584"
       r="4.5495901"
       gradientTransform="matrix(1.4523435,5.9446328e-6,-9.2485098e-5,22.595194,-47.499134,-2196.4886)"
       gradientUnits="userSpaceOnUse" /><radialGradient
       inkscape:collect="always"
       xlink:href="#linearGradient17"
       id="radialGradient18"
       cx="106.28445"
       cy="274.62393"
       fx="106.28445"
       fy="274.62393"
       r="35.412567"
       gradientTransform="matrix(1.4890505,0,0,0.78637264,-51.739291,3.2871608)"
       gradientUnits="userSpaceOnUse" /><radialGradient
       inkscape:collect="always"
       xlink:href="#linearGradient2"
       id="radialGradient4"
       cx="105.02718"
       cy="87.682304"
       fx="105.02718"
       fy="87.682304"
       r="9.0619793"
       gradientTransform="matrix(1,0,0,6.7223983,0,-501.75309)"
       gradientUnits="userSpaceOnUse" /></defs><g
     inkscape:label="Слой 1"
     inkscape:groupmode="layer"
     id="layer1"><g
       id="g1"
       transform="translate(-0.01673437,-15.840513)"><path
         id="path57"
         style="fill:#d0ea01;fill-opacity:1;stroke:none;stroke-width:1.168;stroke-linecap:round;stroke-linejoin:round;paint-order:markers fill stroke"
         d="m 103.42004,23.159645 c -1.35882,1.132107 -2.44553,2.606197 -3.19205,4.209562 -1.38858,2.982372 -2.058239,4.256954 -3.075264,9.424748 -0.347788,1.767216 -0.738896,4.661618 -0.912089,6.454386 -0.325294,3.367219 -0.279782,4.284261 -0.261483,6.242513 0.278711,29.826724 -0.304747,31.512834 -0.346748,87.091326 -8.98e-4,1.18858 0.319713,2.95759 0.305924,4.17442 -0.06217,5.4858 -0.01569,10.50115 0.0801,15.97267 0.03605,2.05914 0.03442,5.69711 0.163814,7.7525 0.223217,3.54578 0.404156,5.74467 1.015958,9.2444 0.294347,1.68376 0.872173,5.47204 1.415935,5.61774 1.813493,0.48593 4.761483,0.21404 6.413043,0.007 1.65156,0.20732 4.59955,0.47921 6.41305,-0.007 0.54376,-0.1457 1.12158,-3.93398 1.41593,-5.61774 0.6118,-3.49973 0.79275,-5.69862 1.01596,-9.2444 0.12941,-2.05539 0.12781,-5.69336 0.16381,-7.7525 0.0958,-5.47152 0.1423,-10.48687 0.0801,-15.97267 -0.0138,-1.21683 0.3063,-2.98584 0.30541,-4.17442 -0.042,-55.578492 -0.62494,-57.264602 -0.34623,-87.091326 0.0183,-1.958252 0.0638,-2.875294 -0.26149,-6.242513 -0.1732,-1.792768 -0.56429,-4.68717 -0.91208,-6.454386 -1.01702,-5.167794 -1.68669,-6.442376 -3.07527,-9.424748 -0.74652,-1.603365 -1.83322,-3.077455 -3.19205,-4.209562 -0.65311,-0.544135 -1.53495,-0.594483 -1.60713,-0.594483 -0.0722,0 -0.95404,0.05035 -1.60715,0.594483 z"
         sodipodi:nodetypes="ssssssssssscssscscssssscs"
         inkscape:label="Нижняя основа" /><path
         id="path585"
         style="fill:#9bb201;fill-opacity:1;stroke:none;stroke-width:1.168;stroke-linecap:round;stroke-linejoin:round;paint-order:markers fill stroke"
         inkscape:label="Верхняя средняя основа"
         d="m 105.00393,26.764076 c -0.99246,0 -3.12156,2.705003 -4.42919,6.478157 -0.91942,2.652989 -1.750574,7.980482 -1.81554,8.445266 0,0 -0.450951,3.944366 -0.461841,6.025686 -0.01428,2.73613 -0.136292,5.701269 -0.169245,8.436694 -0.02357,1.956551 -0.08079,3.767409 -0.175437,5.717999 -0.209983,4.32745 -0.454014,8.78559 -0.993737,13.08447 -0.355839,2.83426 -0.463021,5.82652 -0.463021,5.82652 l -0.530717,0.50798 0.853178,48.084922 3.46129,18.70893 4.56974,0.48214 v 0.0377 l 0.17777,-0.0186 0.17777,0.0186 v -0.0377 l 4.56974,-0.48214 3.46129,-18.70893 0.85318,-48.084922 -0.53072,-0.50798 c 0,0 -0.10718,-2.99226 -0.46302,-5.82652 -0.53972,-4.29888 -1.1808,-12.94391 -1.1808,-12.94391 0,0 -0.1282,-3.995542 -0.1518,-5.952093 -0.0329,-2.735426 -0.0386,-5.513496 -0.0528,-8.249626 -0.0109,-2.08132 -0.45513,-6.110952 -0.45513,-6.110952 -0.0717,-0.473052 -0.90284,-5.800545 -1.82225,-8.453534 -1.30763,-3.773154 -3.43621,-6.478157 -4.42867,-6.478157 z"
         sodipodi:nodetypes="ssccssscccccccccccccsccscsss" /><path
         id="path9"
         style="fill:url(#radialGradient4);fill-opacity:1;stroke:none;stroke-width:1.168;stroke-linecap:round;stroke-linejoin:round;paint-order:markers fill stroke"
         inkscape:label="Градиент верхней средней основы"
         d="m 105.00393,26.764076 c -0.99246,0 -3.12156,2.705003 -4.42919,6.478157 -0.919417,2.652989 -1.750574,7.980482 -1.81554,8.445266 0,0 -0.450951,3.944366 -0.461841,6.025686 -0.01428,2.73613 -0.136292,5.701269 -0.169245,8.436694 -0.02357,1.956551 -0.08079,3.767409 -0.175437,5.717999 -0.209983,4.32745 -0.454014,8.78559 -0.993737,13.08447 -0.355839,2.83426 -0.463021,5.82652 -0.463021,5.82652 l -0.530717,0.50798 0.853178,48.084922 3.46129,18.70893 4.56974,0.48214 v 0.0377 l 0.17777,-0.0186 0.17777,0.0186 v -0.0377 l 4.56974,-0.48214 3.46129,-18.70893 0.85318,-48.084922 -0.53072,-0.50798 c 0,0 -0.10718,-2.99226 -0.46302,-5.82652 -0.53972,-4.29888 -1.1808,-12.94391 -1.1808,-12.94391 0,0 -0.1282,-3.995542 -0.1518,-5.952093 -0.0329,-2.735426 -0.0386,-5.513496 -0.0528,-8.249626 -0.0109,-2.08132 -0.45513,-6.110952 -0.45513,-6.110952 -0.0717,-0.473052 -0.90284,-5.800545 -1.82225,-8.453534 -1.30763,-3.773154 -3.43621,-6.478157 -4.42867,-6.478157 z"
         sodipodi:nodetypes="ssccssscccccccccccccsccscsss" /><path
         id="path3"
         style="fill:#b4c90b;fill-opacity:1;stroke:none;stroke-width:1.168;stroke-linecap:round;stroke-linejoin:round;paint-order:markers fill stroke"
         d="m 81.658065,81.239308 v 0.0119 l -3.229777,0.71417 c 0,0 -0.107543,1.86056 -0.119373,2.78381 -0.01844,1.43796 -0.08977,2.80528 0.0894,4.31704 0.139851,1.18004 0.387646,3.53321 0.754476,3.745 0.194689,0.11237 2.358031,0.19011 2.506824,0.19533 v 0.002 c 0,0 0.02398,-10e-4 0.02532,-10e-4 0.0013,5e-5 0.0248,10e-4 0.0248,10e-4 v -0.002 c 0.148601,-0.005 2.312642,-0.083 2.507341,-0.19533 0.36683,-0.21179 0.614108,-2.56496 0.753959,-3.745 0.179167,-1.51176 0.107837,-2.87908 0.0894,-4.31704 -0.01183,-0.92325 -0.118856,-2.78381 -0.118856,-2.78381 l -3.230293,-0.71417 v -0.0119 l -0.02635,0.006 z m 46.685005,0 v 0.0119 l -3.23029,0.71417 c 0,0 -0.10706,1.86056 -0.11886,2.78381 -0.0184,1.43795 -0.0898,2.80529 0.0894,4.31704 0.13985,1.18004 0.38713,3.53321 0.75396,3.745 0.1947,0.11234 2.35874,0.19033 2.50734,0.19533 v 0.002 c 0,0 0.0238,-9.8e-4 0.0248,-10e-4 0.001,1e-5 0.0253,10e-4 0.0253,10e-4 v -0.002 c 0.14879,-0.005 2.31213,-0.083 2.50682,-0.19533 0.36684,-0.21179 0.61463,-2.56496 0.75448,-3.745 0.1792,-1.51175 0.1078,-2.87909 0.0894,-4.31704 -0.0118,-0.92325 -0.11938,-2.78381 -0.11938,-2.78381 l -3.22977,-0.71417 v -0.0119 l -0.0269,0.006 z m -64.854439,11.01587 v 0.0119 l -3.229777,0.71417 c 0,0 -0.107542,1.86056 -0.119372,2.78381 -0.01844,1.43798 -0.08977,2.80527 0.0894,4.317052 0.139851,1.18004 0.387644,3.5332 0.754476,3.74499 0.194689,0.11237 2.358032,0.19012 2.506823,0.19534 v 0.002 c 0,0 0.02398,-0.001 0.02532,-0.001 0.0013,5e-5 0.02481,0.001 0.02481,0.001 v -0.002 c 0.148599,-0.005 2.312641,-0.083 2.50734,-0.19534 0.366832,-0.21179 0.614108,-2.56495 0.753959,-3.74499 0.179167,-1.511782 0.107837,-2.879072 0.0894,-4.317052 -0.01183,-0.92325 -0.118855,-2.78381 -0.118855,-2.78381 l -3.230294,-0.71417 v -0.0119 l -0.02635,0.006 z m 83.023869,0 v 0.0119 l -3.23029,0.71417 c 0,0 -0.10706,1.86056 -0.11886,2.78381 -0.0184,1.43798 -0.0898,2.80527 0.0894,4.317052 0.13985,1.18004 0.38713,3.5332 0.75396,3.74499 0.1947,0.11234 2.35874,0.19034 2.50734,0.19534 v 0.002 c 0,0 0.0238,-9.8e-4 0.0248,-0.001 0.001,1e-5 0.0253,0.001 0.0253,0.001 v -0.002 c 0.14879,-0.005 2.31213,-0.083 2.50682,-0.19534 0.36683,-0.21179 0.61463,-2.56495 0.75448,-3.74499 0.1792,-1.511782 0.1078,-2.879072 0.0894,-4.317052 -0.0118,-0.92325 -0.11937,-2.78381 -0.11937,-2.78381 l -3.22978,-0.71417 v -0.0119 l -0.0269,0.006 z M 46.182711,103.19973 v 0.0119 l -3.229777,0.71417 c 0,0 -0.107543,1.86056 -0.119373,2.78381 -0.01844,1.43798 -0.08976,2.80527 0.0894,4.31705 0.139851,1.18004 0.387646,3.5332 0.754476,3.74499 0.194689,0.11237 2.358031,0.19012 2.506824,0.19534 v 0.002 c 0,0 0.02398,-9.9e-4 0.02532,-0.001 0.0013,5e-5 0.0248,0.001 0.0248,0.001 v -0.002 c 0.148601,-0.005 2.312642,-0.083 2.507341,-0.19534 0.36683,-0.21179 0.614108,-2.56495 0.753959,-3.74499 0.179167,-1.51178 0.107837,-2.87907 0.0894,-4.31705 -0.01183,-0.92325 -0.118856,-2.78381 -0.118856,-2.78381 l -3.230294,-0.71417 v -0.0119 l -0.02635,0.006 z m 117.635709,0 v 0.0119 l -3.23029,0.71417 c 0,0 -0.10706,1.86056 -0.11886,2.78381 -0.0184,1.43798 -0.0898,2.80527 0.0894,4.31705 0.13983,1.18004 0.38712,3.5332 0.75395,3.74499 0.1947,0.11234 2.35874,0.19034 2.50734,0.19534 v 0.002 c 0,0 0.0238,-9.9e-4 0.0248,-0.001 0.001,1e-5 0.0253,0.001 0.0253,0.001 v -0.002 c 0.14879,-0.005 2.31214,-0.083 2.50682,-0.19534 0.36684,-0.21179 0.61463,-2.56495 0.75448,-3.74499 0.1792,-1.51178 0.1078,-2.87907 0.0894,-4.31705 -0.0118,-0.92325 -0.11937,-2.78381 -0.11937,-2.78381 l -3.22978,-0.71417 v -0.0119 l -0.0269,0.006 z"
         inkscape:label="Турбины" /><path
         id="path4"
         style="fill:#808080;fill-opacity:1;stroke:none;stroke-width:1.168;stroke-linecap:round;stroke-linejoin:round;paint-order:markers fill stroke"
         d="m 80.826074,80.929248 c -0.507935,1.3e-4 -1.161133,6.4e-4 -1.741496,0.002 -0.175175,5.1e-4 -0.469618,0.19247 -0.532267,0.28164 -0.151621,0.21582 -0.125574,0.78651 -0.125574,0.78651 0,0 0.60178,-0.15232 0.895036,-0.20464 0.600663,-0.10717 2.237524,-0.0899 2.362647,-0.0899 0.125124,0 1.762467,-0.0172 2.363163,0.0899 0.29326,0.0523 0.895036,0.20464 0.895036,0.20464 0,0 0.02605,-0.57069 -0.125574,-0.78651 -0.06265,-0.0892 -0.357088,-0.28113 -0.532267,-0.28164 -1.144534,-0.003 -2.557633,-0.002 -2.599325,-0.002 -0.04169,1e-5 -0.365609,-1.2e-4 -0.859379,0 z m 47.542836,0 c -0.0417,0 -1.4548,-9.3e-4 -2.59933,0.002 -0.17518,5.1e-4 -0.46956,0.19244 -0.53226,0.28164 -0.15157,0.21582 -0.12558,0.78651 -0.12558,0.78651 0,0 0.60178,-0.15234 0.89504,-0.20464 0.6007,-0.1071 2.23803,-0.0899 2.36316,-0.0899 0.12512,0 1.76199,-0.0173 2.36265,0.0899 0.29326,0.0523 0.89503,0.20464 0.89503,0.20464 0,0 0.026,-0.57069 -0.12557,-0.78651 -0.0626,-0.0892 -0.3571,-0.28113 -0.53227,-0.28164 -0.58037,-10e-4 -1.23355,-0.002 -1.74149,-0.002 -0.49377,-1.2e-4 -0.81768,1e-5 -0.85938,0 z m -65.712269,11.01587 c -0.507938,1.3e-4 -1.161136,6.4e-4 -1.741496,0.002 -0.175178,5.1e-4 -0.469618,0.19246 -0.532267,0.28163 -0.151621,0.21582 -0.125574,0.78652 -0.125574,0.78652 0,0 0.601777,-0.15232 0.895036,-0.20464 0.60066,-0.10717 2.237523,-0.0899 2.362646,-0.0899 0.125124,0 1.762467,-0.0172 2.363163,0.0899 0.29326,0.0523 0.895036,0.20464 0.895036,0.20464 0,0 0.02605,-0.5707 -0.125574,-0.78652 -0.06265,-0.0892 -0.357088,-0.28112 -0.532267,-0.28163 -1.144534,-0.003 -2.558149,-0.002 -2.599841,-0.002 -0.04169,1e-5 -0.365095,-1.2e-4 -0.858862,0 z m 83.881699,0 c -0.0417,0 -1.45479,-9.3e-4 -2.59932,0.002 -0.17518,5.1e-4 -0.46957,0.19243 -0.53227,0.28163 -0.15158,0.21582 -0.12557,0.78652 -0.12557,0.78652 0,0 0.60177,-0.15234 0.89503,-0.20464 0.6007,-0.1071 2.23804,-0.0899 2.36317,-0.0899 0.12512,0 1.76198,-0.0172 2.36264,0.0899 0.29326,0.0523 0.89504,0.20464 0.89504,0.20464 0,0 0.026,-0.5707 -0.12558,-0.78652 -0.0626,-0.0892 -0.35709,-0.28112 -0.53226,-0.28163 -0.58037,-0.001 -1.23356,-0.002 -1.7415,-0.002 -0.49377,-1.2e-4 -0.81768,1e-5 -0.85938,0 z M 45.35072,102.88967 c -0.507936,1.3e-4 -1.161133,6.4e-4 -1.741496,0.002 -0.175176,5.1e-4 -0.469618,0.19246 -0.532267,0.28163 -0.151621,0.21582 -0.125574,0.78652 -0.125574,0.78652 0,0 0.601779,-0.15232 0.895036,-0.20464 0.600663,-0.10717 2.237524,-0.0899 2.362647,-0.0899 0.125124,0 1.762466,-0.0172 2.363163,0.0899 0.29326,0.0523 0.895036,0.20464 0.895036,0.20464 0,0 0.02605,-0.5707 -0.125574,-0.78652 -0.06265,-0.0892 -0.357088,-0.28112 -0.532267,-0.28163 -1.144535,-0.003 -2.557633,-0.002 -2.599325,-0.002 -0.04169,1e-5 -0.365609,-1.2e-4 -0.859379,0 z m 118.49354,0 c -0.0417,0 -1.45479,-9.3e-4 -2.59932,0.002 -0.17518,5.1e-4 -0.46967,0.19243 -0.53227,0.28163 -0.15167,0.21582 -0.12557,0.78652 -0.12557,0.78652 0,0 0.60177,-0.15234 0.89503,-0.20464 0.6007,-0.1071 2.23752,-0.0899 2.36265,-0.0899 0.12512,0 1.7625,-0.0173 2.36316,0.0899 0.29326,0.0523 0.89504,0.20464 0.89504,0.20464 0,0 0.026,-0.5707 -0.12558,-0.78652 -0.0626,-0.0892 -0.35708,-0.28112 -0.53226,-0.28163 -0.58037,-0.001 -1.23356,-0.002 -1.7415,-0.002 -0.49377,-1.2e-4 -0.81768,1e-5 -0.85938,0 z"
         inkscape:label="Передние части турбин" /><path
         id="path5"
         style="fill:#808080;fill-opacity:1;stroke:none;stroke-width:1.168;stroke-linecap:round;stroke-linejoin:round;paint-order:markers fill stroke"
         d="m 81.684937,82.650598 c -0.074,2e-5 -0.126051,0.10528 -0.143144,0.18345 -0.153233,0.70074 -0.236723,1.53494 -0.299724,2.24947 -0.110451,1.25273 -0.191231,2.51797 -0.264583,3.77342 -0.0749,1.28194 -0.179834,3.83904 -0.179834,3.83904 l 0.887285,-0.0331 0.887284,0.0331 c 0,0 -0.104934,-2.5571 -0.179834,-3.83904 -0.07335,-1.25545 -0.154132,-2.52069 -0.264583,-3.77342 -0.063,-0.71453 -0.146491,-1.54873 -0.299724,-2.24947 -0.01714,-0.0784 -0.06915,-0.18346 -0.143143,-0.18345 z m 46.684493,0 c -0.074,-1e-5 -0.12605,0.10505 -0.14315,0.18345 -0.15323,0.70074 -0.23672,1.53494 -0.29972,2.24947 -0.11045,1.25273 -0.19118,2.51797 -0.26458,3.77342 -0.0749,1.28194 -0.17984,3.83904 -0.17984,3.83904 l 0.88729,-0.0331 0.88728,0.0331 c 0,0 -0.10493,-2.5571 -0.17983,-3.83904 -0.0733,-1.25545 -0.15414,-2.52069 -0.26459,-3.77342 -0.063,-0.71453 -0.14649,-1.54873 -0.29972,-2.24947 -0.0171,-0.0782 -0.0691,-0.18343 -0.14314,-0.18345 z m -64.854444,11.01586 c -0.074,2e-5 -0.125534,0.10528 -0.142627,0.18345 -0.153233,0.70074 -0.236722,1.53495 -0.299723,2.24948 -0.110453,1.25273 -0.191233,2.51796 -0.264583,3.77341 -0.0749,1.281962 -0.179834,3.839042 -0.179834,3.839042 l 0.887284,-0.0331 0.887284,0.0331 c 0,0 -0.104934,-2.55708 -0.179834,-3.839042 -0.07335,-1.25545 -0.15413,-2.52068 -0.264583,-3.77341 -0.063,-0.71453 -0.146492,-1.54874 -0.299723,-2.24948 -0.01714,-0.0784 -0.06967,-0.18346 -0.143661,-0.18345 z m 83.024394,0 c -0.074,-1e-5 -0.12656,0.10505 -0.14366,0.18345 -0.15323,0.70074 -0.23673,1.53495 -0.29973,2.24948 -0.11045,1.25273 -0.19128,2.51796 -0.26458,3.77341 -0.0749,1.281962 -0.17984,3.839042 -0.17984,3.839042 l 0.88729,-0.0331 0.88728,0.0331 c 0,0 -0.10493,-2.55708 -0.17983,-3.839042 -0.0734,-1.25545 -0.15412,-2.52068 -0.26458,-3.77341 -0.063,-0.71453 -0.1465,-1.54874 -0.29973,-2.24948 -0.0171,-0.0782 -0.0686,-0.18343 -0.14262,-0.18345 z M 46.209583,104.61101 c -0.074,2e-5 -0.126051,0.10528 -0.143144,0.18345 -0.153233,0.70074 -0.236723,1.53495 -0.299724,2.24948 -0.110451,1.25273 -0.191231,2.51796 -0.264583,3.77341 -0.0749,1.28196 -0.179834,3.83904 -0.179834,3.83904 l 0.887285,-0.0331 0.887284,0.0331 c 0,0 -0.104934,-2.55708 -0.179834,-3.83904 -0.07335,-1.25545 -0.154132,-2.52068 -0.264583,-3.77341 -0.063,-0.71453 -0.146491,-1.54874 -0.299724,-2.24948 -0.01714,-0.0784 -0.06915,-0.18346 -0.143143,-0.18345 z m 117.635197,0 c -0.074,-10e-6 -0.12604,0.10505 -0.14314,0.18345 -0.15324,0.70074 -0.23673,1.53495 -0.29973,2.24948 -0.11045,1.25273 -0.19128,2.51796 -0.26458,3.77341 -0.0749,1.28196 -0.17983,3.83904 -0.17983,3.83904 l 0.88728,-0.0331 0.88728,0.0331 c 0,0 -0.10493,-2.55708 -0.17983,-3.83904 -0.0734,-1.25545 -0.15413,-2.52068 -0.26458,-3.77341 -0.063,-0.71453 -0.14649,-1.54874 -0.29973,-2.24948 -0.0171,-0.0782 -0.0691,-0.18343 -0.14314,-0.18345 z"
         inkscape:label="Палки на турбинах" /><path
         id="path16"
         style="fill:#6e7f01;fill-opacity:1;stroke:none;stroke-width:1.168;stroke-linecap:round;stroke-linejoin:round;paint-order:markers fill stroke"
         d="m 83.044027,123.56024 -0.824239,0.0527 0.397391,2.77709 z m 11.380184,0 -0.824239,0.0527 0.397391,2.77709 z m 21.205939,0 0.42685,2.8298 0.39739,-2.77709 z m 11.38019,0 0.42684,2.8298 0.39739,-2.77709 z m -51.207215,0.9219 -0.926042,0.24805 c -0.01654,0.0744 0.429948,2.91869 0.429948,2.91869 z m 58.448115,0 0.49609,3.16674 c 0,0 0.44645,-2.84429 0.42995,-2.91869 z m -69.155472,2.80293 -0.926041,0.24805 c -0.01654,0.0744 0.429947,2.91869 0.429947,2.91869 z m 79.862822,0 0.4961,3.16674 c 0,0 0.44645,-2.84429 0.42995,-2.91869 z m -97.690157,5.11855 -1.046448,0.30386 0.450102,3.0577 z m 115.517497,0 0.59635,3.36156 0.4501,-3.0577 z m -123.922152,2.98897 -1.046448,0.30386 0.450102,3.05769 z m 132.326802,0 0.59635,3.36155 0.4501,-3.05769 z m -140.671513,2.69648 -1.046964,0.30385 0.450618,3.0577 z m 149.016223,0 0.59635,3.36155 0.45062,-3.0577 z"
         inkscape:label="Треугольники" /><path
         id="path47"
         style="fill:#b9d101;fill-opacity:1;stroke:none;stroke-width:1.168;stroke-linecap:round;stroke-linejoin:round;paint-order:markers fill stroke"
         d="m 96.861271,123.22486 c -0.102498,-0.0169 -0.199069,0.0106 -0.255281,0.108 -0.14706,0.25472 -0.07608,4.58754 0.0217,6.87917 0.07754,1.81719 0.249151,3.78863 0.325561,5.60586 0.09114,2.16762 0.253045,4.13597 0.463021,6.30039 0.187124,1.92887 0.53343,3.86523 0.777214,5.78776 0.279036,2.20054 0.477861,4.39445 0.644921,6.60631 0.08061,1.06723 0.01409,2.31054 0.05116,3.38016 0.06802,1.96192 0.05745,3.89971 0.07183,5.8167 0.0083,1.11228 -0.304129,2.58659 -0.407727,3.13004 -0.06816,0.35753 0.398341,0.9109 0.496611,0.9834 0.297454,0.21945 0.876519,0.58391 1.352379,-0.0718 0.21653,-0.29837 0.26148,-0.62287 0.26148,-1.53221 0,-2.47274 -0.16381,-2.23067 -0.16381,-2.64428 0,-0.50819 0.14256,-1.08338 0.14056,-1.51308 -0.0214,-3.97138 0.0242,-7.72361 -0.0331,-11.6086 -0.0335,-2.27528 -0.24783,-4.56172 -0.47955,-6.82542 -0.175748,-1.71692 -0.413243,-3.40844 -0.678004,-5.1139 -0.294989,-1.90018 -0.601803,-3.76693 -0.917773,-5.66374 -0.290062,-1.74128 -0.581172,-3.49066 -0.802018,-5.24206 -0.173067,-1.37248 -0.481946,-4.12826 -0.578776,-4.22506 -0.0795,-0.0795 -0.187923,-0.14075 -0.290422,-0.15761 z m 16.331819,0 c -0.1025,0.0169 -0.21092,0.0781 -0.29042,0.15761 -0.0968,0.0968 -0.40572,2.85258 -0.57878,4.22506 -0.22085,1.7514 -0.51196,3.50078 -0.80202,5.24206 -0.31596,1.89681 -0.62278,3.76356 -0.91777,5.66374 -0.26477,1.70546 -0.50225,3.39698 -0.67799,5.1139 -0.23173,2.2637 -0.44602,4.55014 -0.47956,6.82542 -0.0573,3.88499 -0.0117,7.63722 -0.0331,11.6086 -0.002,0.4297 0.14056,1.00489 0.14056,1.51308 0,0.41361 -0.16382,0.17154 -0.16382,2.64428 0,0.90934 0.045,1.23384 0.26148,1.53221 0.47585,0.65574 1.05441,0.29128 1.35186,0.0718 0.0983,-0.0725 0.56528,-0.62587 0.49713,-0.9834 -0.1036,-0.54345 -0.41608,-2.01776 -0.40773,-3.13004 0.0144,-1.91699 0.004,-3.85478 0.0718,-5.8167 0.0371,-1.06962 -0.0294,-2.31293 0.0512,-3.38016 0.16706,-2.21186 0.36589,-4.40577 0.64492,-6.60631 0.24379,-1.92253 0.59009,-3.85889 0.77722,-5.78776 0.20997,-2.16442 0.37188,-4.13277 0.46302,-6.30039 0.0764,-1.81723 0.24802,-3.78867 0.32556,-5.60586 0.0978,-2.29163 0.16879,-6.62445 0.0217,-6.87917 -0.0562,-0.0974 -0.15278,-0.12487 -0.25528,-0.108 z"
         inkscape:label="Средняя нижняя основа" /><path
         id="path580"
         style="fill:#d0ea01;fill-opacity:1;stroke:none;stroke-width:1.168;stroke-linecap:round;stroke-linejoin:round;paint-order:markers fill stroke"
         d="m 95.967042,81.266688 c -45.01666,28.872372 -46.30948,29.619722 -88.5511902,54.747052 -1.77248,1.05436 -2.69848,1.29937 -4.23488,4.51084 -1.37813,2.88065 -1.52269,6.89369 -0.90899,6.82749 0.50182,-0.0541 23.3148602,-7.4564 23.3148602,-7.4564 l 27.95746,-9.36997 25.85527,-6.75462 h 17.88108 l -0.0155,-26.502262 c 0,0 0.0573,-5.28668 0.0196,-12.88965 -0.008,-1.54567 -1.2744,-3.14028 -1.31775,-3.11248 z m 18.077988,0 c -0.0433,-0.0278 -1.30959,1.56681 -1.31724,3.11248 -0.0376,7.60297 0.0196,12.88965 0.0196,12.88965 l -0.0155,26.502262 h 17.88108 l 25.85475,6.75462 27.95798,9.36997 c 0,0 22.81252,7.40226 23.31434,7.4564 0.6137,0.0662 0.46914,-3.94684 -0.90899,-6.82749 -1.53639,-3.21147 -2.46189,-3.45648 -4.23436,-4.51084 -42.24171,-25.12733 -43.53505,-25.87468 -88.5517,-54.747052 z"
         inkscape:label="Передние крылья" /><path
         id="path22"
         style="fill:url(#radialGradient581);fill-opacity:1;stroke:none;stroke-width:1.168;stroke-linecap:round;stroke-linejoin:round;paint-order:markers fill stroke"
         d="m 95.967042,81.266688 c -45.01666,28.872372 -46.30948,29.619722 -88.5511902,54.747052 -1.77248,1.05436 -2.69848,1.29937 -4.23488,4.51084 -1.37813,2.88065 -1.52269,6.89369 -0.90899,6.82749 0.50182,-0.0541 23.3148602,-7.4564 23.3148602,-7.4564 l 27.95746,-9.36997 25.85527,-6.75462 h 17.88108 l -0.0155,-26.502262 c 0,0 0.0573,-5.28668 0.0196,-12.88965 -0.008,-1.54567 -1.2744,-3.14028 -1.31775,-3.11248 z m 18.077988,0 c -0.0433,-0.0278 -1.30959,1.56681 -1.31724,3.11248 -0.0376,7.60297 0.0196,12.88965 0.0196,12.88965 l -0.0155,26.502262 h 17.88108 l 25.85475,6.75462 27.95798,9.36997 c 0,0 22.81252,7.40226 23.31434,7.4564 0.6137,0.0662 0.46914,-3.94684 -0.90899,-6.82749 -1.53639,-3.21147 -2.46189,-3.45648 -4.23436,-4.51084 -42.24171,-25.12733 -43.53505,-25.87468 -88.5517,-54.747052 z"
         inkscape:label="Градиент передних крыльев" /><path
         id="path23"
         style="fill:#333333;fill-opacity:1;stroke:none;stroke-width:1.168;stroke-linecap:round;stroke-linejoin:round;paint-order:markers fill stroke"
         d="m 7.540625,135.94966 -0.1038696,0.0641 c 0,0 -2.6984895,1.29937 -4.2348837,4.51084 -1.3781312,2.88064 -1.5226927,6.89369 -0.9089884,6.82749 0.1473218,-0.0159 2.3963637,-0.72525 5.2477417,-1.63453 z m 194.973115,0 v 9.76788 c 2.85137,0.90928 5.10042,1.61863 5.24774,1.63453 0.61371,0.0662 0.46915,-3.94685 -0.90899,-6.82749 -1.53639,-3.21147 -4.23488,-4.51084 -4.23488,-4.51084 z"
         inkscape:label="Наконечники крыльев" /><path
         id="path28"
         style="fill:#e6fe20;fill-opacity:1;stroke:none;stroke-width:1.168;stroke-linecap:round;stroke-linejoin:round;paint-order:markers fill stroke"
         d="m 98.844096,95.037428 c -0.706006,-0.028 -1.11719,0.53099 -1.245919,0.75396 -0.231341,0.4007 -0.329991,1.97276 -0.272851,2.72025 0.38884,5.086782 0.812842,10.433522 1.372526,15.610412 0.04559,0.42166 0.161939,1.0531 0.396875,1.21543 0.254601,0.17595 0.426097,0.26843 0.644921,0.0496 0.313542,-0.31357 0.402682,-1.05579 0.446482,-1.6123 0.10762,-1.36715 0.31853,-2.16593 0.32453,-3.65456 0.0104,-2.3889 0.0233,-6.7691 -0.002,-12.435422 -0.003,-0.67057 0.0791,-1.84739 -0.859892,-2.38951 -0.301377,-0.174 -0.569267,-0.24853 -0.804602,-0.25787 z m 12.366174,0 c -0.23534,0.009 -0.50323,0.0839 -0.80461,0.25787 -0.93898,0.54212 -0.85689,1.71894 -0.85989,2.38951 -0.0254,5.666322 -0.0125,10.046522 -0.002,12.435422 0.006,1.48863 0.21691,2.28741 0.32453,3.65456 0.0438,0.55651 0.13294,1.29873 0.44648,1.6123 0.21883,0.21882 0.39032,0.12634 0.64493,-0.0496 0.23493,-0.16233 0.35128,-0.79377 0.39687,-1.21543 0.55969,-5.17689 0.98369,-10.52363 1.37253,-15.610412 0.0571,-0.74749 -0.0415,-2.31955 -0.27286,-2.72025 -0.12872,-0.22297 -0.53991,-0.78198 -1.24591,-0.75396 z"
         inkscape:label="Палки на основе" /><path
         id="path46"
         style="fill:#6e7f01;fill-opacity:1;stroke:none;stroke-width:1.168;stroke-linecap:round;stroke-linejoin:round;paint-order:markers fill stroke"
         d="m 100.29104,171.74748 c 0,0 -0.28825,0.0686 -0.423751,0.38292 -0.547336,1.26976 -0.219108,4.45192 -0.219108,4.45192 l 0.666629,-1.28002 z m 9.47177,0 -0.0233,3.55482 0.66663,1.28002 c 0,0 0.32823,-3.18216 -0.21911,-4.45192 -0.1355,-0.31433 -0.42426,-0.38292 -0.42426,-0.38292 z"
         inkscape:label="Отверстия" /><path
         id="path42"
         style="fill:#d0ea01;fill-opacity:1;stroke:none;stroke-width:1.168;stroke-linecap:round;stroke-linejoin:round;paint-order:markers fill stroke"
         d="m 100.26985,171.75213 c -0.0187,-2e-5 -0.003,2.68566 -0.0605,3.07785 -0.11839,0.80635 -0.784475,2.27257 -1.518256,3.1321 -0.437977,0.51304 -1.161402,0.84421 -1.685686,1.26866 -9.505957,7.69582 -27.391093,21.98315 -27.391093,21.98315 l 0.263034,15.00787 c 0,0 21.532554,-10.57867 32.795411,-16.11116 0.17419,-0.0856 0.44067,-15.38209 0.30076,-23.0973 -0.0162,-0.89601 -0.0493,-1.14878 -0.54105,-2.63343 -0.26282,-0.79351 -0.80284,-1.90302 -1.17771,-2.27789 -0.12238,-0.12238 -0.70937,-0.34958 -0.98495,-0.34985 z m 9.51466,0 c -0.27558,2.7e-4 -0.86257,0.22747 -0.98495,0.34985 -0.37487,0.37487 -0.9154,1.48438 -1.17822,2.27789 -0.49176,1.48465 -0.52434,1.73742 -0.54054,2.63343 -0.13991,7.71521 0.12657,23.0117 0.30076,23.0973 11.26286,5.53249 32.7949,16.11116 32.7949,16.11116 l 0.26303,-15.00787 c 0,0 -17.88462,-14.28733 -27.39058,-21.98315 -0.52428,-0.42445 -1.2477,-0.75562 -1.68568,-1.26866 -0.73378,-0.85953 -1.39987,-2.32575 -1.51826,-3.1321 -0.0574,-0.39219 -0.0418,-3.07787 -0.0605,-3.07785 z"
         inkscape:label="Задние крылья" /><path
         id="path17"
         style="fill:url(#radialGradient18);stroke:none;stroke-width:1.168;stroke-linecap:round;stroke-linejoin:round;paint-order:markers fill stroke"
         d="m 100.26985,171.75213 c -0.0187,-2e-5 -0.003,2.68566 -0.0605,3.07785 -0.11839,0.80635 -0.784475,2.27257 -1.518256,3.1321 -0.437977,0.51304 -1.161402,0.84421 -1.685686,1.26866 -9.505957,7.69582 -27.391093,21.98315 -27.391093,21.98315 l 0.263034,15.00787 c 0,0 21.532554,-10.57867 32.795411,-16.11116 0.17419,-0.0856 0.44067,-15.38209 0.30076,-23.0973 -0.0162,-0.89601 -0.0493,-1.14878 -0.54105,-2.63343 -0.26282,-0.79351 -0.80284,-1.90302 -1.17771,-2.27789 -0.12238,-0.12238 -0.70937,-0.34958 -0.98495,-0.34985 z m 9.51466,0 c -0.27558,2.7e-4 -0.86257,0.22747 -0.98495,0.34985 -0.37487,0.37487 -0.9154,1.48438 -1.17822,2.27789 -0.49176,1.48465 -0.52434,1.73742 -0.54054,2.63343 -0.13991,7.71521 0.12657,23.0117 0.30076,23.0973 11.26286,5.53249 32.7949,16.11116 32.7949,16.11116 l 0.26303,-15.00787 c 0,0 -17.88462,-14.28733 -27.39058,-21.98315 -0.52428,-0.42445 -1.2477,-0.75562 -1.68568,-1.26866 -0.73378,-0.85953 -1.39987,-2.32575 -1.51826,-3.1321 -0.0574,-0.39219 -0.0418,-3.07787 -0.0605,-3.07785 z"
         inkscape:label="Градиент задних крыльев" /><path
         id="path43"
         style="fill:#6e7f01;fill-opacity:1;stroke:none;stroke-width:1.168;stroke-linecap:round;stroke-linejoin:round;paint-order:markers fill stroke"
         d="m 97.11862,179.14909 c -0.0367,0.0276 -0.07811,0.0533 -0.113172,0.0816 -9.243057,7.48298 -25.888583,20.78176 -26.83092,21.5346 l 0.460954,0.71882 27.615368,-20.84989 z m 15.81712,0 -1.13223,1.48518 27.61537,20.84989 0.46095,-0.71882 c -0.94233,-0.75284 -17.58786,-14.05162 -26.83092,-21.5346 -0.0351,-0.0283 -0.0765,-0.054 -0.11317,-0.0816 z"
         inkscape:label="ППолоски ЗКрыльев" /><path
         id="path25"
         style="fill:#00fcfb;fill-opacity:0.661765;stroke:none;stroke-width:1.168;stroke-linecap:round;stroke-linejoin:round;paint-order:markers fill stroke"
         d="M 75.414518,94.429198 C 50.248468,110.49191 41.555335,115.71746 8.1359375,135.59671 L 8.7932617,136.88035 77.23973,97.624868 Z m 59.225322,0 -1.82521,3.19567 68.44647,39.255482 0.65732,-1.28364 c -33.4194,-19.87925 -42.11252,-25.1048 -67.27858,-41.167512 z"
         inkscape:label="ППолоски ПКрыльев" /><path
         id="path50"
         style="fill:#737373;fill-opacity:1;stroke:none;stroke-width:1.168;stroke-linecap:round;stroke-linejoin:round;paint-order:markers fill stroke"
         d="m 102.68624,200.15401 c 0,0 0.39315,4.16545 0.94929,4.48655 0.0678,0.0391 1.27246,0.035 1.39127,0.035 0.11882,0 1.32424,0.004 1.39203,-0.035 0.55615,-0.3211 0.94929,-4.48655 0.94929,-4.48655 l -2.34094,-0.001 z"
         sodipodi:nodetypes="csccccc"
         inkscape:label="Задняя часть двигателя" /><path
         id="path49"
         style="fill:#595959;fill-opacity:1;stroke:none;stroke-width:1.168;stroke-linecap:round;stroke-linejoin:round;paint-order:markers fill stroke"
         d="m 102.75962,198.27196 -0.0744,1.88205 2.34197,-0.001 2.34198,0.001 -0.0744,-1.88205 -2.26756,0.001 z"
         sodipodi:nodetypes="ccccccc"
         inkscape:label="Передняя часть двигателя" /><path
         id="path52"
         style="fill:#333333;fill-opacity:1;stroke:none;stroke-width:1.168;stroke-linecap:round;stroke-linejoin:round;paint-order:markers fill stroke"
         d="m 104.29544,35.49946 c 0,0 -0.96704,0.24842 -1.42213,0.835091 -0.60983,0.786156 -1.07611,2.120676 -1.44384,3.257682 -0.20575,0.63617 -0.44132,2.008663 -0.44132,2.008663 l 0.33073,0.07493 3.7083,-4.44469 3.7083,4.44469 0.33073,-0.07493 c 0,0 -0.23557,-1.372493 -0.44132,-2.008663 -0.36773,-1.137006 -0.83401,-2.471526 -1.44384,-3.257682 -0.45508,-0.586671 -1.42213,-0.835091 -1.42213,-0.835091 l -0.73173,-0.0801 z"
         sodipodi:nodetypes="csscccccssccc"
         inkscape:label="Полоска перед стеклами" /><path
         id="path581"
         style="fill:#b9d101;fill-opacity:1;stroke:none;stroke-width:1.168;stroke-linecap:round;stroke-linejoin:round;paint-order:markers fill stroke"
         d="m 104.82203,98.403628 c -0.3554,0.30205 -0.55391,2.493192 -0.73123,3.746032 -0.37368,2.64011 -0.81716,5.26843 -1.18029,7.91114 -0.37676,2.7419 -0.64939,5.38639 -0.90588,8.14214 -0.51668,5.55122 -1.07415,11.2615 -1.25987,16.82275 -0.16513,4.94419 -0.2101,9.85198 -0.26924,14.79858 -0.0886,7.40832 -0.15532,14.96646 -0.26458,22.225 -0.035,2.32753 2.54575,2.97695 2.51354,6.51536 -0.009,0.99835 -0.009,9.38186 0.0708,19.72386 3e-5,0.004 2.1122,0.0313 2.23191,0.0313 0.1197,0 2.23187,-0.0274 2.2319,-0.0313 0.0797,-10.342 0.0798,-18.72551 0.0708,-19.72386 -0.0322,-3.53841 2.54854,-4.18783 2.51354,-6.51536 -0.10926,-7.25854 -0.17598,-14.81668 -0.26458,-22.225 -0.0591,-4.9466 -0.1041,-9.85439 -0.26923,-14.79858 -0.18573,-5.56125 -0.7432,-11.27153 -1.25987,-16.82275 -0.25649,-2.75575 -0.52913,-5.40024 -0.90589,-8.14214 -0.36313,-2.64271 -0.80661,-5.27103 -1.18029,-7.91114 -0.17732,-1.25284 -0.37582,-3.443982 -0.73122,-3.746032 -0.0532,-0.0452 -0.1154,-0.0623 -0.20516,-0.0623 -0.0898,0 -0.15198,0.0171 -0.20515,0.0623 z"
         inkscape:label="Верхняя задняя основ"
         sodipodi:nodetypes="csssssscsccccsssssscc" /><path
         id="path48"
         style="fill:url(#radialGradient583);fill-opacity:1;stroke:none;stroke-width:1.168;stroke-linecap:round;stroke-linejoin:round;paint-order:markers fill stroke"
         d="m 104.82203,98.403628 c -0.3554,0.30205 -0.55391,2.493192 -0.73123,3.746032 -0.37368,2.64011 -0.81716,5.26843 -1.18029,7.91114 -0.37676,2.7419 -0.64939,5.38639 -0.90588,8.14214 -0.51668,5.55122 -1.07415,11.2615 -1.25987,16.82275 -0.16513,4.94419 -0.2101,9.85198 -0.26924,14.79858 -0.0886,7.40832 -0.15532,14.96646 -0.26458,22.225 -0.035,2.32753 2.54575,2.97695 2.51354,6.51536 -0.009,0.99835 -0.009,9.38186 0.0708,19.72386 3e-5,0.004 2.1122,0.0313 2.23191,0.0313 0.1197,0 2.23187,-0.0274 2.2319,-0.0313 0.0797,-10.342 0.0798,-18.72551 0.0708,-19.72386 -0.0322,-3.53841 2.54854,-4.18783 2.51354,-6.51536 -0.10926,-7.25854 -0.17598,-14.81668 -0.26458,-22.225 -0.0591,-4.9466 -0.1041,-9.85439 -0.26923,-14.79858 -0.18573,-5.56125 -0.7432,-11.27153 -1.25987,-16.82275 -0.25649,-2.75575 -0.52913,-5.40024 -0.90589,-8.14214 -0.36313,-2.64271 -0.80661,-5.27103 -1.18029,-7.91114 -0.17732,-1.25284 -0.37582,-3.443982 -0.73122,-3.746032 -0.0532,-0.0452 -0.1154,-0.0623 -0.20516,-0.0623 -0.0898,0 -0.15198,0.0171 -0.20515,0.0623 z"
         inkscape:label="Градиент верхней задней основы"
         sodipodi:nodetypes="csssssscsccccsssssscc" /><path
         id="path51"
         style="fill:#b9d101;fill-opacity:1;stroke:none;stroke-width:1.168;stroke-linecap:round;stroke-linejoin:round;paint-order:markers fill stroke"
         d="m 104.96517,37.078692 v 0.0031 c -0.25795,0.01016 -0.94381,0.07971 -1.68052,0.534851 -0.90156,0.556982 -1.91064,2.313893 -2.08153,3.987354 -0.0947,0.92756 -0.72553,5.04476 -0.72553,10.531657 0,2.387201 0.0927,7.881064 0.42168,11.813754 0.25051,2.99482 0.6227,5.95894 1.27434,8.92141 0.65962,2.99873 1.99091,8.79618 2.24689,8.89507 0.19927,0.077 0.16066,-0.17839 0.35657,-0.26355 0.0579,-0.0251 0.13016,-0.033 0.19068,-0.0346 v 0.004 c 0,0 0.0369,-0.001 0.0594,-0.003 0.0224,0.001 0.0589,0.003 0.0589,0.003 v -0.004 c 0.0606,0.002 0.1332,0.009 0.1912,0.0346 0.19591,0.0852 0.1573,0.34055 0.35657,0.26355 0.25598,-0.0989 1.58676,-5.89634 2.24638,-8.89507 0.65164,-2.96247 1.02434,-5.92659 1.27485,-8.92141 0.32894,-3.93269 0.42168,-9.426553 0.42168,-11.813754 0,-5.486897 -0.63083,-9.604097 -0.72553,-10.531657 -0.17089,-1.673461 -1.17997,-3.430372 -2.08153,-3.987354 -0.73671,-0.455137 -1.42257,-0.52469 -1.68052,-0.534851 v -0.0031 c 0,0 -0.0446,0.0016 -0.062,0.0015 -0.0174,2.9e-5 -0.062,-0.0015 -0.062,-0.0015 z"
         inkscape:label="Верхняя передняя основа" /><path
         id="path583"
         style="fill:url(#radialGradient585);fill-opacity:1;stroke:none;stroke-width:1.168;stroke-linecap:round;stroke-linejoin:round;paint-order:markers fill stroke"
         d="m 104.96517,37.078692 v 0.0031 c -0.25795,0.01016 -0.94381,0.07971 -1.68052,0.534851 -0.90156,0.556982 -1.91064,2.313893 -2.08153,3.987354 -0.0947,0.92756 -0.72553,5.04476 -0.72553,10.531657 0,2.387201 0.0927,7.881064 0.42168,11.813754 0.25051,2.99482 0.6227,5.95894 1.27434,8.92141 0.65962,2.99873 1.99091,8.79618 2.24689,8.89507 0.19927,0.077 0.16066,-0.17839 0.35657,-0.26355 0.0579,-0.0251 0.13016,-0.033 0.19068,-0.0346 v 0.004 c 0,0 0.0369,-0.001 0.0594,-0.003 0.0224,0.001 0.0589,0.003 0.0589,0.003 v -0.004 c 0.0606,0.002 0.1332,0.009 0.1912,0.0346 0.19591,0.0852 0.1573,0.34055 0.35657,0.26355 0.25598,-0.0989 1.58676,-5.89634 2.24638,-8.89507 0.65164,-2.96247 1.02434,-5.92659 1.27485,-8.92141 0.32894,-3.93269 0.42168,-9.426553 0.42168,-11.813754 0,-5.486897 -0.63083,-9.604097 -0.72553,-10.531657 -0.17089,-1.673461 -1.17997,-3.430372 -2.08153,-3.987354 -0.73671,-0.455137 -1.42257,-0.52469 -1.68052,-0.534851 v -0.0031 c 0,0 -0.0446,0.0016 -0.062,0.0015 -0.0174,2.9e-5 -0.062,-0.0015 -0.062,-0.0015 z"
         inkscape:label="Градиент верхней передней полоски" /><path
         id="path58"
         style="fill:#333333;fill-opacity:1;stroke:none;stroke-width:1.168;stroke-linecap:round;stroke-linejoin:round;paint-order:markers fill stroke"
         d="m 103.31256,23.254729 c -0.77382,0.644712 -1.36703,1.324582 -1.95182,2.151807 l 3.66645,-0.01085 3.66643,0.01085 c -0.58479,-0.827225 -1.178,-1.507095 -1.95181,-2.151807 -0.7646,-0.637024 -1.53778,-0.692963 -1.71463,-0.692963 -0.17685,0 -0.95003,0.05594 -1.71462,0.692963 z"
         sodipodi:nodetypes="scccscs"
         inkscape:label="Нос" /><path
         id="path59"
         style="fill:#6e7f01;fill-opacity:1;stroke:none;stroke-width:1.168;stroke-linecap:round;stroke-linejoin:round;paint-order:markers fill stroke"
         d="m 68.357068,193.45003 c -0.23565,2e-5 -0.36786,0.049 -0.50953,0.15038 -0.574809,0.4115 -0.873455,0.50161 -1.014925,1.19424 -0.34831,1.70519 -0.299508,7.87255 -0.308508,12.20907 -0.0072,3.64327 0.544344,11.51881 1.216463,11.90367 0.19746,0.11315 0.34683,0.21189 0.6165,0.21187 0.26966,-1e-5 0.418523,-0.0988 0.615983,-0.21187 0.672129,-0.38486 1.223463,-8.2604 1.216463,-11.90367 -0.009,-4.33652 0.03977,-10.50388 -0.308508,-12.20907 -0.14147,-0.69263 -0.440106,-0.78274 -1.014925,-1.19424 -0.14167,-0.10141 -0.273373,-0.1504 -0.509013,-0.15038 z m 73.340222,0 c -0.23564,-2e-5 -0.36786,0.049 -0.50953,0.15038 -0.57481,0.4115 -0.87345,0.50161 -1.01492,1.19424 -0.34828,1.70519 -0.29951,7.87255 -0.30851,12.20907 -0.007,3.64327 0.54433,11.51881 1.21646,11.90367 0.19746,0.11307 0.34684,0.21186 0.6165,0.21187 0.26967,2e-5 0.41853,-0.0987 0.61599,-0.21187 0.67212,-0.38486 1.22366,-8.2604 1.21646,-11.90367 -0.009,-4.33652 0.0398,-10.50388 -0.30851,-12.20907 -0.14147,-0.69263 -0.44011,-0.78274 -1.01492,-1.19424 -0.14167,-0.10142 -0.27337,-0.15036 -0.50902,-0.15038 z"
         inkscape:label="Верхняя часть заднего крыла" /><path
         id="path53"
         style="fill:#4d4d4d;fill-opacity:1;stroke:none;stroke-width:1.168;stroke-linecap:round;stroke-linejoin:round;paint-order:markers fill stroke"
         d="m 104.72022,37.215634 c 0,0 -0.74626,0.115732 -1.24126,0.401526 -0.76675,0.442682 -1.32499,1.412834 -1.32499,1.412834 l 0.73174,0.802018 c 0,0 0.32408,-0.378605 0.74827,-0.570508 0.52877,-0.239214 1.16427,-0.212907 1.16427,-0.212907 z m 0.6134,0 -0.0775,1.832963 c 0,0 0.6355,-0.02631 1.16427,0.212907 0.42419,0.191903 0.74827,0.570508 0.74827,0.570508 l 0.73174,-0.802018 c 0,0 -0.55823,-0.970152 -1.32498,-1.412834 -0.49501,-0.285794 -1.24179,-0.401526 -1.24179,-0.401526 z m -3.26233,1.987993 c 0,0 -0.15459,0.285306 -0.22789,0.429948 -0.0833,0.164406 -0.21343,0.532267 -0.21343,0.532267 l 0.83716,0.42478 c 0,0 0.0921,-0.239531 0.15193,-0.350883 0.0518,-0.09658 0.17415,-0.283187 0.17415,-0.283187 z m 5.91127,0 -0.72141,0.752925 c 0,0 0.12232,0.186612 0.17415,0.283187 0.0598,0.111352 0.15193,0.350883 0.15193,0.350883 l 0.83716,-0.42478 c 0,0 -0.13009,-0.367861 -0.21342,-0.532267 -0.0733,-0.144642 -0.22841,-0.429948 -0.22841,-0.429948 z m -6.46318,1.329117 c 0,0 -0.10959,0.355856 -0.15089,0.541569 -0.042,0.188565 -0.0992,0.580844 -0.0992,0.580844 l 0.93018,0.177767 c 0,0 0.0213,-0.367339 0.0558,-0.541569 0.0282,-0.142659 0.12402,-0.409278 0.12402,-0.409278 z m 7.0156,0 -0.8599,0.349333 c 0,0 0.0958,0.266619 0.12402,0.409278 0.0345,0.17423 0.0558,0.541569 0.0558,0.541569 l 0.93017,-0.177767 c 0,0 -0.0572,-0.392279 -0.0992,-0.580844 -0.0413,-0.185713 -0.15089,-0.541569 -0.15089,-0.541569 z"
         inkscape:label="Стекла" /><path
         id="path134"
         style="fill:#6e7f01;fill-opacity:1;stroke:none;stroke-width:1.168;stroke-linecap:round;stroke-linejoin:round;paint-order:markers fill stroke"
         d="M 75.414518,94.429198 C 50.248468,110.49191 41.555335,115.71746 8.1359375,135.59671 L 8.7932617,136.88035 77.23973,97.624868 Z m 59.225322,0 -1.82521,3.19567 68.44647,39.255482 0.65732,-1.28364 c -33.4194,-19.87925 -42.11252,-25.1048 -67.27858,-41.167512 z"
         inkscape:label="ППолоски ПКрыльев" /><path
         id="path24"
         style="fill:#9c9c9c;fill-opacity:1;fill-rule:evenodd;stroke:#6e7f01;stroke-width:0.4;stroke-linecap:butt;stroke-linejoin:miter;stroke-dasharray:none;stroke-opacity:1"
         d="m 130.54741,123.56007 -17.8145,0.006 m 44.2053,6.88994 -26.42604,-6.9166 m 71.23612,21.73182 -45.31724,-14.88455 M 187.32474,129.7298 130.55049,97.530998 M 185.1526,134.84049 130.473,115.54112 m 54.06861,22.17001 -53.942,-17.55894 m -0.11894,-15.30976 56.51902,25.76079 z m 0.0858,6.23218 55.33616,21.96248 z m 56.19605,18.32446 15.19287,8.66821 z m -74.03499,-9.29781 17.98505,0.0146 m -17.99433,-4.5515 17.99433,0.0146 m -17.99131,-4.45796 17.99131,0.0146 m 53.76296,24.79166 2.81612,-6.29667 m -56.91641,-32.223112 0.0976,26.346462 z m 26.29038,14.949082 0.0935,18.12514 z m -9.12089,9.21508 v 6.53925 z m 19.97191,7.00715 -0.0119,5.57607 z m 16.98708,7.20284 -0.0977,4.03541 z m 17.27388,1.98489 -0.13592,7.62745 z m -89.04182,-32.91299 17.97679,0.0146 m -17.9665,-7.498152 17.95823,0.20891 m -51.346326,25.993712 17.919571,-0.006 m -44.384778,6.92669 26.570734,-6.94968 M 8.2104713,145.29048 53.490506,130.33565 M 22.679878,129.72967 79.454128,97.530868 M 24.843251,134.83451 79.531618,115.54099 m -54.06861,22.17001 53.942,-17.55894 m 0.11894,-15.30976 -56.61256,25.81341 z m -0.0858,6.23218 -55.33616,21.96248 z m -56.19605,18.32446 -15.1928696,8.66821 z m 74.03499,-9.29781 -17.98505,0.0146 m 17.99433,-4.5515 -17.99433,0.0146 m 17.99131,-4.45796 -17.99131,0.0146 m -53.80096,24.87806 -2.77812,-6.38307 m 56.91641,-32.165232 -0.0976,26.288582 z m -26.29038,14.891202 -0.0935,18.12514 z m 9.12089,9.3143 v 6.44003 z m -19.97191,7.00148 0.0119,5.48252 z m -17.017774,7.14875 0.128394,3.99595 z m -17.2431856,1.94543 0.13592,7.62745 z M 97.268828,104.8534 79.292038,104.868 m 17.9665,-7.498152 -17.95823,0.20891"
         sodipodi:nodetypes="cccccccccccccccccccccccccccccccccccccccccccccccccccccccccccccccccccccccccccccccccccccccccccccccccccccc" /></g></g></svg>
