<?xml version="1.0" encoding="UTF-8" standalone="no"?>
<!-- Created with Inkscape (http://www.inkscape.org/) -->

<svg
   width="210mm"
   height="210mm"
   viewBox="0 0 210 210"
   version="1.1"
   id="svg1"
   xml:space="preserve"
   inkscape:version="1.3.2 (091e20e, 2023-11-25, custom)"
   sodipodi:docname="carrier_friday.svg"
   xmlns:inkscape="http://www.inkscape.org/namespaces/inkscape"
   xmlns:sodipodi="http://sodipodi.sourceforge.net/DTD/sodipodi-0.dtd"
   xmlns:xlink="http://www.w3.org/1999/xlink"
   xmlns="http://www.w3.org/2000/svg"
   xmlns:svg="http://www.w3.org/2000/svg"><sodipodi:namedview
     id="namedview1"
     pagecolor="#ffffff"
     bordercolor="#000000"
     borderopacity="0.25"
     inkscape:showpageshadow="2"
     inkscape:pageopacity="0.0"
     inkscape:pagecheckerboard="0"
     inkscape:deskcolor="#d1d1d1"
     inkscape:document-units="mm"
     showguides="true"
     inkscape:zoom="1"
     inkscape:cx="379.5"
     inkscape:cy="330.5"
     inkscape:window-width="3440"
     inkscape:window-height="1417"
     inkscape:window-x="-8"
     inkscape:window-y="-8"
     inkscape:window-maximized="1"
     inkscape:current-layer="g40" /><defs
     id="defs1"><linearGradient
       id="linearGradient17"
       inkscape:collect="always"><stop
         style="stop-color:#0d0d0d;stop-opacity:1;"
         offset="0"
         id="stop17" /><stop
         style="stop-color:#000000;stop-opacity:0;"
         offset="1"
         id="stop18" /></linearGradient><linearGradient
       id="linearGradient581"
       inkscape:collect="always"><stop
         style="stop-color:#454545;stop-opacity:0.40000001;"
         offset="0"
         id="stop582" /><stop
         style="stop-color:#000000;stop-opacity:0.5;"
         offset="1"
         id="stop583" /></linearGradient><linearGradient
       id="linearGradient580"
       inkscape:collect="always"><stop
         style="stop-color:#0d0d0d;stop-opacity:1;"
         offset="0"
         id="stop580" /><stop
         style="stop-color:#000000;stop-opacity:0;"
         offset="1"
         id="stop581" /></linearGradient><inkscape:path-effect
       effect="bspline"
       id="path-effect729"
       is_visible="true"
       lpeversion="1"
       weight="33.333333"
       steps="2"
       helper_size="0"
       apply_no_weight="true"
       apply_with_weight="true"
       only_selected="false"
       uniform="false" /><inkscape:path-effect
       effect="bspline"
       id="path-effect1385"
       is_visible="true"
       lpeversion="1"
       weight="33.333333"
       steps="2"
       helper_size="0"
       apply_no_weight="true"
       apply_with_weight="true"
       only_selected="false"
       uniform="false" /><inkscape:path-effect
       effect="bspline"
       id="path-effect312"
       is_visible="true"
       lpeversion="1"
       weight="33.333333"
       steps="2"
       helper_size="0"
       apply_no_weight="true"
       apply_with_weight="true"
       only_selected="false"
       uniform="false" /><inkscape:path-effect
       effect="bspline"
       id="path-effect50"
       is_visible="true"
       lpeversion="1"
       weight="33.333333"
       steps="2"
       helper_size="0"
       apply_no_weight="true"
       apply_with_weight="true"
       only_selected="false"
       uniform="false" /><inkscape:path-effect
       effect="bspline"
       id="path-effect52"
       is_visible="true"
       lpeversion="1"
       weight="33.333333"
       steps="2"
       helper_size="0"
       apply_no_weight="true"
       apply_with_weight="true"
       only_selected="false"
       uniform="false" /><inkscape:path-effect
       effect="bspline"
       id="path-effect54"
       is_visible="true"
       lpeversion="1"
       weight="33.333333"
       steps="2"
       helper_size="0"
       apply_no_weight="true"
       apply_with_weight="true"
       only_selected="false"
       uniform="false" /><radialGradient
       inkscape:collect="always"
       xlink:href="#linearGradient580"
       id="radialGradient581"
       cx="105.07166"
       cy="258.60706"
       fx="105.07166"
       fy="258.60706"
       r="103.07987"
       gradientTransform="matrix(1.0725995,0,0,0.41638007,-7.6281497,39.932557)"
       gradientUnits="userSpaceOnUse" /><radialGradient
       inkscape:collect="always"
       xlink:href="#linearGradient581"
       id="radialGradient583"
       cx="105.02719"
       cy="188.04417"
       fx="105.02719"
       fy="188.04417"
       r="4.8165979"
       gradientTransform="matrix(1.6866445,0,0,38.723298,-72.116348,-7147.383)"
       gradientUnits="userSpaceOnUse" /><radialGradient
       inkscape:collect="always"
       xlink:href="#linearGradient17"
       id="radialGradient18"
       cx="106.28445"
       cy="274.62393"
       fx="106.28445"
       fy="274.62393"
       r="35.412567"
       gradientTransform="matrix(1.4890505,0,0,0.78637264,-51.739291,3.2871608)"
       gradientUnits="userSpaceOnUse" /><linearGradient
       inkscape:collect="always"
       xlink:href="#linearGradient308537"
       id="linearGradient308539"
       x1="-75.862068"
       y1="2020.5647"
       x2="93.579857"
       y2="2020.5647"
       gradientUnits="userSpaceOnUse"
       gradientTransform="matrix(1.2361645,0,0,0.63365277,94.054571,-1190.3645)" /><linearGradient
       inkscape:collect="always"
       id="linearGradient308537"><stop
         style="stop-color:#fbf271;stop-opacity:1"
         offset="0"
         id="stop308533" /><stop
         style="stop-color:#e39a01;stop-opacity:1"
         offset="0.27687776"
         id="stop308899" /><stop
         style="stop-color:#9a5f01;stop-opacity:1"
         offset="0.41384387"
         id="stop308833" /><stop
         style="stop-color:#f2a307;stop-opacity:1"
         offset="0.78055966"
         id="stop308767" /><stop
         style="stop-color:#f4ed72;stop-opacity:1"
         offset="1"
         id="stop308535" /></linearGradient><linearGradient
       inkscape:collect="always"
       xlink:href="#linearGradient308537"
       id="linearGradient6"
       gradientUnits="userSpaceOnUse"
       gradientTransform="matrix(0.09473742,0,0,0.63365277,104.13315,-1174.524)"
       x1="-75.862068"
       y1="2020.5647"
       x2="93.579857"
       y2="2020.5647" /><linearGradient
       inkscape:collect="always"
       xlink:href="#linearGradient61029"
       id="linearGradient61031"
       x1="32.55098"
       y1="236.03503"
       x2="202.19545"
       y2="236.03503"
       gradientUnits="userSpaceOnUse"
       gradientTransform="matrix(0.05607119,0,0,0.35760049,98.468639,-24.848153)" /><linearGradient
       inkscape:collect="always"
       id="linearGradient61029"><stop
         style="stop-color:#8b4219;stop-opacity:1"
         offset="0"
         id="stop61025" /><stop
         style="stop-color:#703412;stop-opacity:1"
         offset="0.106"
         id="stop62773" /><stop
         style="stop-color:#dca42d;stop-opacity:1"
         offset="0.35108119"
         id="stop71209" /><stop
         style="stop-color:#f6db74;stop-opacity:1"
         offset="0.56599998"
         id="stop62771" /><stop
         style="stop-color:#e49919;stop-opacity:1"
         offset="0.77130222"
         id="stop69113" /><stop
         style="stop-color:#763d1c;stop-opacity:1"
         offset="1"
         id="stop61027" /></linearGradient><linearGradient
       inkscape:collect="always"
       xlink:href="#linearGradient61029"
       id="linearGradient61031-2"
       x1="32.55098"
       y1="236.03503"
       x2="202.19545"
       y2="236.03503"
       gradientUnits="userSpaceOnUse"
       gradientTransform="matrix(0.51105498,0,0,0.36603311,44.215752,111.15751)" /><linearGradient
       inkscape:collect="always"
       xlink:href="#linearGradient61029"
       id="linearGradient7"
       gradientUnits="userSpaceOnUse"
       gradientTransform="matrix(0.02388077,0,0,0.36603311,138.83805,111.15751)"
       x1="32.55098"
       y1="236.03503"
       x2="202.19545"
       y2="236.03503" /><linearGradient
       inkscape:collect="always"
       xlink:href="#linearGradient61029"
       id="linearGradient10"
       gradientUnits="userSpaceOnUse"
       gradientTransform="matrix(0.02388077,0,0,0.36603311,65.452975,111.15751)"
       x1="32.55098"
       y1="236.03503"
       x2="202.19545"
       y2="236.03503" /></defs><g
     inkscape:label="Слой 1"
     inkscape:groupmode="layer"
     id="layer1"><g
       id="g40"
       transform="translate(-0.01673437,-15.840513)"><path
         id="path57"
         style="fill:#4d4d4d;fill-opacity:1;stroke:none;stroke-width:1.168;stroke-linecap:round;stroke-linejoin:round;paint-order:markers fill stroke"
         d="m 103.42004,23.159645 c -1.35882,1.132107 -2.44553,2.606197 -3.19205,4.209562 -1.38858,2.982372 -2.058239,4.256954 -3.075264,9.424748 -0.347788,1.767216 -0.738896,4.661618 -0.912089,6.454386 -0.325294,3.367219 -0.279782,4.284261 -0.261483,6.242513 0.278711,29.826724 -0.304747,31.512834 -0.346748,87.091326 -8.98e-4,1.18858 0.319713,2.95759 0.305924,4.17442 -0.06217,5.4858 -0.01569,10.50115 0.0801,15.97267 0.03605,2.05914 0.03442,5.69711 0.163814,7.7525 0.223217,3.54578 0.404156,5.74467 1.015958,9.2444 0.294347,1.68376 0.872173,5.47204 1.415935,5.61774 1.813493,0.48593 4.761483,0.21404 6.413043,0.007 1.65156,0.20732 4.59955,0.47921 6.41305,-0.007 0.54376,-0.1457 1.12158,-3.93398 1.41593,-5.61774 0.6118,-3.49973 0.79275,-5.69862 1.01596,-9.2444 0.12941,-2.05539 0.12781,-5.69336 0.16381,-7.7525 0.0958,-5.47152 0.1423,-10.48687 0.0801,-15.97267 -0.0138,-1.21683 0.3063,-2.98584 0.30541,-4.17442 -0.042,-55.578492 -0.62494,-57.264602 -0.34623,-87.091326 0.0183,-1.958252 0.0638,-2.875294 -0.26149,-6.242513 -0.1732,-1.792768 -0.56429,-4.68717 -0.91208,-6.454386 -1.01702,-5.167794 -1.68669,-6.442376 -3.07527,-9.424748 -0.74652,-1.603365 -1.83322,-3.077455 -3.19205,-4.209562 -0.65311,-0.544135 -1.53495,-0.594483 -1.60713,-0.594483 -0.0722,0 -0.95404,0.05035 -1.60715,0.594483 z"
         sodipodi:nodetypes="ssssssssssscssscscssssscs"
         inkscape:label="Нижняя основа" /><path
         id="path585"
         style="fill:#0d0d0d;fill-opacity:1;stroke:none;stroke-width:1.168;stroke-linecap:round;stroke-linejoin:round;paint-order:markers fill stroke"
         inkscape:label="Верхняя средняя основа"
         d="m 105.00393,26.764076 c -0.99246,0 -3.12156,2.705003 -4.42919,6.478157 -0.91942,2.652989 -1.750574,7.980482 -1.81554,8.445266 0,0 -0.450951,3.944366 -0.461841,6.025686 -0.01428,2.73613 -0.136292,5.701269 -0.169245,8.436694 -0.02357,1.956551 -0.08079,3.767409 -0.175437,5.717999 -0.209983,4.32745 -0.454014,8.78559 -0.993737,13.08447 -0.355839,2.83426 -0.463021,5.82652 -0.463021,5.82652 l -0.530717,0.50798 0.853178,48.084922 3.46129,18.70893 4.56974,0.48214 v 0.0377 l 0.17777,-0.0186 0.17777,0.0186 v -0.0377 l 4.56974,-0.48214 3.46129,-18.70893 0.85318,-48.084922 -0.53072,-0.50798 c 0,0 -0.10718,-2.99226 -0.46302,-5.82652 -0.53972,-4.29888 -1.1808,-12.94391 -1.1808,-12.94391 0,0 -0.1282,-3.995542 -0.1518,-5.952093 -0.0329,-2.735426 -0.0386,-5.513496 -0.0528,-8.249626 -0.0109,-2.08132 -0.45513,-6.110952 -0.45513,-6.110952 -0.0717,-0.473052 -0.90284,-5.800545 -1.82225,-8.453534 -1.30763,-3.773154 -3.43621,-6.478157 -4.42867,-6.478157 z"
         sodipodi:nodetypes="ssccssscccccccccccccsccscsss" /><path
         id="path9"
         style="fill:#333333;stroke:none;stroke-width:1.168;stroke-linecap:round;stroke-linejoin:round;paint-order:markers fill stroke"
         inkscape:label="Градиент верхней средней основы"
         d="m 105.00393,26.75 c -0.99246,0 -3.12156,2.705003 -4.42919,6.478157 -0.919417,2.652989 -1.750574,7.980482 -1.81554,8.445266 0,0 -0.450951,3.944366 -0.461841,6.025686 -0.01428,2.73613 -0.136292,5.701269 -0.169245,8.436694 -0.02357,1.956551 -0.08079,3.767409 -0.175437,5.717999 -0.209983,4.32745 -0.454014,8.78559 -0.993737,13.08447 -0.355839,2.83426 -0.463021,5.82652 -0.463021,5.82652 l -0.530717,0.50798 0.853178,48.084918 3.46129,18.70893 4.56974,0.48214 v 0.0377 l 0.17777,-0.0186 0.17777,0.0186 v -0.0377 l 4.56974,-0.48214 3.46129,-18.70893 0.85318,-48.084918 -0.53072,-0.50798 c 0,0 -0.10718,-2.99226 -0.46302,-5.82652 -0.53972,-4.29888 -1.1808,-12.94391 -1.1808,-12.94391 0,0 -0.1282,-3.995542 -0.1518,-5.952093 -0.0329,-2.735426 -0.0386,-5.513496 -0.0528,-8.249626 -0.0109,-2.08132 -0.45513,-6.110952 -0.45513,-6.110952 -0.0717,-0.473052 -0.90284,-5.800545 -1.82225,-8.453534 C 108.12501,29.455003 105.99643,26.75 105.00397,26.75 Z"
         sodipodi:nodetypes="ssccssscccccccccccccsccscsss" /><path
         id="path3"
         style="fill:#595959;fill-opacity:1;stroke:none;stroke-width:1.168;stroke-linecap:round;stroke-linejoin:round;paint-order:markers fill stroke"
         d="m 81.658065,81.239308 v 0.0119 l -3.229777,0.71417 c 0,0 -0.107543,1.86056 -0.119373,2.78381 -0.01844,1.43796 -0.08977,2.80528 0.0894,4.31704 0.139851,1.18004 0.387646,3.53321 0.754476,3.745 0.194689,0.11237 2.358031,0.19011 2.506824,0.19533 v 0.002 c 0,0 0.02398,-10e-4 0.02532,-10e-4 0.0013,5e-5 0.0248,10e-4 0.0248,10e-4 v -0.002 c 0.148601,-0.005 2.312642,-0.083 2.507341,-0.19533 0.36683,-0.21179 0.614108,-2.56496 0.753959,-3.745 0.179167,-1.51176 0.107837,-2.87908 0.0894,-4.31704 -0.01183,-0.92325 -0.118856,-2.78381 -0.118856,-2.78381 l -3.230293,-0.71417 v -0.0119 l -0.02635,0.006 z m 46.685005,0 v 0.0119 l -3.23029,0.71417 c 0,0 -0.10706,1.86056 -0.11886,2.78381 -0.0184,1.43795 -0.0898,2.80529 0.0894,4.31704 0.13985,1.18004 0.38713,3.53321 0.75396,3.745 0.1947,0.11234 2.35874,0.19033 2.50734,0.19533 v 0.002 c 0,0 0.0238,-9.8e-4 0.0248,-10e-4 0.001,1e-5 0.0253,10e-4 0.0253,10e-4 v -0.002 c 0.14879,-0.005 2.31213,-0.083 2.50682,-0.19533 0.36684,-0.21179 0.61463,-2.56496 0.75448,-3.745 0.1792,-1.51175 0.1078,-2.87909 0.0894,-4.31704 -0.0118,-0.92325 -0.11938,-2.78381 -0.11938,-2.78381 l -3.22977,-0.71417 v -0.0119 l -0.0269,0.006 z m -64.854439,11.01587 v 0.0119 l -3.229777,0.71417 c 0,0 -0.107542,1.86056 -0.119372,2.78381 -0.01844,1.43798 -0.08977,2.80527 0.0894,4.317052 0.139851,1.18004 0.387644,3.5332 0.754476,3.74499 0.194689,0.11237 2.358032,0.19012 2.506823,0.19534 v 0.002 c 0,0 0.02398,-0.001 0.02532,-0.001 0.0013,5e-5 0.02481,0.001 0.02481,0.001 v -0.002 c 0.148599,-0.005 2.312641,-0.083 2.50734,-0.19534 0.366832,-0.21179 0.614108,-2.56495 0.753959,-3.74499 0.179167,-1.511782 0.107837,-2.879072 0.0894,-4.317052 -0.01183,-0.92325 -0.118855,-2.78381 -0.118855,-2.78381 l -3.230294,-0.71417 v -0.0119 l -0.02635,0.006 z m 83.023869,0 v 0.0119 l -3.23029,0.71417 c 0,0 -0.10706,1.86056 -0.11886,2.78381 -0.0184,1.43798 -0.0898,2.80527 0.0894,4.317052 0.13985,1.18004 0.38713,3.5332 0.75396,3.74499 0.1947,0.11234 2.35874,0.19034 2.50734,0.19534 v 0.002 c 0,0 0.0238,-9.8e-4 0.0248,-0.001 0.001,1e-5 0.0253,0.001 0.0253,0.001 v -0.002 c 0.14879,-0.005 2.31213,-0.083 2.50682,-0.19534 0.36683,-0.21179 0.61463,-2.56495 0.75448,-3.74499 0.1792,-1.511782 0.1078,-2.879072 0.0894,-4.317052 -0.0118,-0.92325 -0.11937,-2.78381 -0.11937,-2.78381 l -3.22978,-0.71417 v -0.0119 l -0.0269,0.006 z M 46.182711,103.19973 v 0.0119 l -3.229777,0.71417 c 0,0 -0.107543,1.86056 -0.119373,2.78381 -0.01844,1.43798 -0.08976,2.80527 0.0894,4.31705 0.139851,1.18004 0.387646,3.5332 0.754476,3.74499 0.194689,0.11237 2.358031,0.19012 2.506824,0.19534 v 0.002 c 0,0 0.02398,-9.9e-4 0.02532,-0.001 0.0013,5e-5 0.0248,0.001 0.0248,0.001 v -0.002 c 0.148601,-0.005 2.312642,-0.083 2.507341,-0.19534 0.36683,-0.21179 0.614108,-2.56495 0.753959,-3.74499 0.179167,-1.51178 0.107837,-2.87907 0.0894,-4.31705 -0.01183,-0.92325 -0.118856,-2.78381 -0.118856,-2.78381 l -3.230294,-0.71417 v -0.0119 l -0.02635,0.006 z m 117.635709,0 v 0.0119 l -3.23029,0.71417 c 0,0 -0.10706,1.86056 -0.11886,2.78381 -0.0184,1.43798 -0.0898,2.80527 0.0894,4.31705 0.13983,1.18004 0.38712,3.5332 0.75395,3.74499 0.1947,0.11234 2.35874,0.19034 2.50734,0.19534 v 0.002 c 0,0 0.0238,-9.9e-4 0.0248,-0.001 0.001,1e-5 0.0253,0.001 0.0253,0.001 v -0.002 c 0.14879,-0.005 2.31214,-0.083 2.50682,-0.19534 0.36684,-0.21179 0.61463,-2.56495 0.75448,-3.74499 0.1792,-1.51178 0.1078,-2.87907 0.0894,-4.31705 -0.0118,-0.92325 -0.11937,-2.78381 -0.11937,-2.78381 l -3.22978,-0.71417 v -0.0119 l -0.0269,0.006 z"
         inkscape:label="Турбины" /><path
         id="path6"
         style="display:inline;fill:url(#linearGradient308539);stroke-width:5.77175;stroke-linecap:round;stroke-linejoin:round;paint-order:fill markers stroke"
         d="M 80.809538 65.088534 C 80.301603 65.088664 79.648404 65.089241 79.068042 65.090601 C 78.892867 65.091111 78.598424 65.283067 78.535775 65.372237 C 78.384154 65.588057 78.410201 66.158752 78.410201 66.158752 C 78.410201 66.158752 79.011981 66.006434 79.305237 65.954114 C 79.905899 65.846944 81.54276 65.864197 81.667883 65.864197 C 81.793007 65.864197 83.430351 65.847014 84.031047 65.954114 C 84.324306 66.006414 84.926082 66.158752 84.926082 66.158752 C 84.926082 66.158752 84.952132 65.588057 84.800509 65.372237 C 84.737859 65.283037 84.44342 65.091111 84.268241 65.090601 C 83.123709 65.087601 81.710609 65.088534 81.668917 65.088534 C 81.627227 65.088544 81.303307 65.088414 80.809538 65.088534 z M 128.35237 65.088534 C 128.31067 65.088534 126.89758 65.087671 125.75305 65.090601 C 125.57787 65.091111 125.28348 65.283037 125.22078 65.372237 C 125.06921 65.588057 125.09521 66.158752 125.09521 66.158752 C 125.09521 66.158752 125.69698 66.006414 125.99024 65.954114 C 126.59094 65.847014 128.22828 65.864197 128.35341 65.864197 C 128.47853 65.864197 130.11539 65.846914 130.71605 65.954114 C 131.00931 66.006414 131.61109 66.158752 131.61109 66.158752 C 131.61109 66.158752 131.63708 65.588057 131.48551 65.372237 C 131.42291 65.283037 131.12842 65.091111 130.95325 65.090601 C 130.37288 65.089601 129.71969 65.088534 129.21175 65.088534 C 128.71798 65.088414 128.39407 65.088544 128.35237 65.088534 z M 62.640104 76.104399 C 62.132167 76.104529 61.478968 76.105106 60.898608 76.106466 C 60.723431 76.106976 60.42899 76.298932 60.366341 76.388102 C 60.21472 76.603922 60.240767 77.174618 60.240767 77.174618 C 60.240767 77.174618 60.842545 77.022299 61.135803 76.969979 C 61.736463 76.862809 63.373327 76.880062 63.49845 76.880062 C 63.623574 76.880062 65.260918 76.862879 65.861613 76.969979 C 66.154873 77.022279 66.756649 77.174618 66.756649 77.174618 C 66.756649 77.174618 66.782699 76.603922 66.631075 76.388102 C 66.568425 76.298902 66.273987 76.106976 66.098808 76.106466 C 64.954275 76.103466 63.540658 76.104399 63.498966 76.104399 C 63.457277 76.104409 63.133871 76.104279 62.640104 76.104399 z M 146.52181 76.104399 C 146.48011 76.104399 145.06701 76.103536 143.92248 76.106466 C 143.7473 76.106976 143.45291 76.298902 143.39021 76.388102 C 143.23863 76.603922 143.26464 77.174618 143.26464 77.174618 C 143.26464 77.174618 143.86642 77.022279 144.15968 76.969979 C 144.76038 76.862879 146.39771 76.880062 146.52284 76.880062 C 146.64796 76.880062 148.28483 76.862879 148.88549 76.969979 C 149.17875 77.022279 149.78052 77.174618 149.78052 77.174618 C 149.78052 77.174618 149.80653 76.603922 149.65495 76.388102 C 149.59235 76.298902 149.29785 76.106976 149.12268 76.106466 C 148.54231 76.105466 147.88912 76.104399 147.38118 76.104399 C 146.88742 76.104279 146.56351 76.104409 146.52181 76.104399 z M 45.334184 87.04895 C 44.826248 87.04908 44.17305 87.049657 43.592688 87.051017 C 43.417512 87.051527 43.12307 87.243484 43.060421 87.332654 C 42.9088 87.548474 42.934847 88.119169 42.934847 88.119169 C 42.934847 88.119169 43.536626 87.96685 43.829883 87.91453 C 44.430545 87.807361 46.067406 87.824613 46.192529 87.824613 C 46.317653 87.824613 47.954996 87.807431 48.555693 87.91453 C 48.848952 87.96683 49.450728 88.119169 49.450728 88.119169 C 49.450728 88.119169 49.476778 87.548474 49.325155 87.332654 C 49.262505 87.243454 48.968066 87.051527 48.792887 87.051017 C 47.648354 87.048017 46.235255 87.04895 46.193563 87.04895 C 46.151873 87.04896 45.827953 87.04883 45.334184 87.04895 z M 163.82773 87.04895 C 163.78603 87.04895 162.37293 87.048087 161.2284 87.051017 C 161.05322 87.051527 160.75873 87.243454 160.69613 87.332654 C 160.54446 87.548474 160.57056 88.119169 160.57056 88.119169 C 160.57056 88.119169 161.17234 87.96683 161.4656 87.91453 C 162.0663 87.807431 163.70311 87.824613 163.82824 87.824613 C 163.95336 87.824613 165.59075 87.807331 166.19141 87.91453 C 166.48467 87.96683 167.08644 88.119169 167.08644 88.119169 C 167.08644 88.119169 167.11245 87.548474 166.96087 87.332654 C 166.89827 87.243454 166.60378 87.051527 166.4286 87.051017 C 165.84823 87.050017 165.19504 87.04895 164.68711 87.04895 C 164.19334 87.04883 163.86943 87.04896 163.82773 87.04895 z "
         transform="translate(0.01673437,15.840513)" /><path
         id="path5"
         style="fill:#404040;fill-opacity:1;stroke:none;stroke-width:1.168;stroke-linecap:round;stroke-linejoin:round;paint-order:markers fill stroke"
         d="m 81.684937,82.650598 c -0.074,2e-5 -0.126051,0.10528 -0.143144,0.18345 -0.153233,0.70074 -0.236723,1.53494 -0.299724,2.24947 -0.110451,1.25273 -0.191231,2.51797 -0.264583,3.77342 -0.0749,1.28194 -0.179834,3.83904 -0.179834,3.83904 l 0.887285,-0.0331 0.887284,0.0331 c 0,0 -0.104934,-2.5571 -0.179834,-3.83904 -0.07335,-1.25545 -0.154132,-2.52069 -0.264583,-3.77342 -0.063,-0.71453 -0.146491,-1.54873 -0.299724,-2.24947 -0.01714,-0.0784 -0.06915,-0.18346 -0.143143,-0.18345 z m 46.684493,0 c -0.074,-1e-5 -0.12605,0.10505 -0.14315,0.18345 -0.15323,0.70074 -0.23672,1.53494 -0.29972,2.24947 -0.11045,1.25273 -0.19118,2.51797 -0.26458,3.77342 -0.0749,1.28194 -0.17984,3.83904 -0.17984,3.83904 l 0.88729,-0.0331 0.88728,0.0331 c 0,0 -0.10493,-2.5571 -0.17983,-3.83904 -0.0733,-1.25545 -0.15414,-2.52069 -0.26459,-3.77342 -0.063,-0.71453 -0.14649,-1.54873 -0.29972,-2.24947 -0.0171,-0.0782 -0.0691,-0.18343 -0.14314,-0.18345 z m -64.854444,11.01586 c -0.074,2e-5 -0.125534,0.10528 -0.142627,0.18345 -0.153233,0.70074 -0.236722,1.53495 -0.299723,2.24948 -0.110453,1.25273 -0.191233,2.51796 -0.264583,3.77341 -0.0749,1.281962 -0.179834,3.839042 -0.179834,3.839042 l 0.887284,-0.0331 0.887284,0.0331 c 0,0 -0.104934,-2.55708 -0.179834,-3.839042 -0.07335,-1.25545 -0.15413,-2.52068 -0.264583,-3.77341 -0.063,-0.71453 -0.146492,-1.54874 -0.299723,-2.24948 -0.01714,-0.0784 -0.06967,-0.18346 -0.143661,-0.18345 z m 83.024394,0 c -0.074,-1e-5 -0.12656,0.10505 -0.14366,0.18345 -0.15323,0.70074 -0.23673,1.53495 -0.29973,2.24948 -0.11045,1.25273 -0.19128,2.51796 -0.26458,3.77341 -0.0749,1.281962 -0.17984,3.839042 -0.17984,3.839042 l 0.88729,-0.0331 0.88728,0.0331 c 0,0 -0.10493,-2.55708 -0.17983,-3.839042 -0.0734,-1.25545 -0.15412,-2.52068 -0.26458,-3.77341 -0.063,-0.71453 -0.1465,-1.54874 -0.29973,-2.24948 -0.0171,-0.0782 -0.0686,-0.18343 -0.14262,-0.18345 z M 46.209583,104.61101 c -0.074,2e-5 -0.126051,0.10528 -0.143144,0.18345 -0.153233,0.70074 -0.236723,1.53495 -0.299724,2.24948 -0.110451,1.25273 -0.191231,2.51796 -0.264583,3.77341 -0.0749,1.28196 -0.179834,3.83904 -0.179834,3.83904 l 0.887285,-0.0331 0.887284,0.0331 c 0,0 -0.104934,-2.55708 -0.179834,-3.83904 -0.07335,-1.25545 -0.154132,-2.52068 -0.264583,-3.77341 -0.063,-0.71453 -0.146491,-1.54874 -0.299724,-2.24948 -0.01714,-0.0784 -0.06915,-0.18346 -0.143143,-0.18345 z m 117.635197,0 c -0.074,-10e-6 -0.12604,0.10505 -0.14314,0.18345 -0.15324,0.70074 -0.23673,1.53495 -0.29973,2.24948 -0.11045,1.25273 -0.19128,2.51796 -0.26458,3.77341 -0.0749,1.28196 -0.17983,3.83904 -0.17983,3.83904 l 0.88728,-0.0331 0.88728,0.0331 c 0,0 -0.10493,-2.55708 -0.17983,-3.83904 -0.0734,-1.25545 -0.15413,-2.52068 -0.26458,-3.77341 -0.063,-0.71453 -0.14649,-1.54874 -0.29973,-2.24948 -0.0171,-0.0782 -0.0691,-0.18343 -0.14314,-0.18345 z"
         inkscape:label="Палки на турбинах" /><path
         id="path16"
         style="fill:#1a1a1a;fill-opacity:1;stroke:none;stroke-width:1.168;stroke-linecap:round;stroke-linejoin:round;paint-order:markers fill stroke"
         d="m 83.044027,123.56024 -0.824239,0.0527 0.397391,2.77709 z m 11.380184,0 -0.824239,0.0527 0.397391,2.77709 z m 21.205939,0 0.42685,2.8298 0.39739,-2.77709 z m 11.38019,0 0.42684,2.8298 0.39739,-2.77709 z m -51.207215,0.9219 -0.926042,0.24805 c -0.01654,0.0744 0.429948,2.91869 0.429948,2.91869 z m 58.448115,0 0.49609,3.16674 c 0,0 0.44645,-2.84429 0.42995,-2.91869 z m -69.155472,2.80293 -0.926041,0.24805 c -0.01654,0.0744 0.429947,2.91869 0.429947,2.91869 z m 79.862822,0 0.4961,3.16674 c 0,0 0.44645,-2.84429 0.42995,-2.91869 z m -97.690157,5.11855 -1.046448,0.30386 0.450102,3.0577 z m 115.517497,0 0.59635,3.36156 0.4501,-3.0577 z m -123.922152,2.98897 -1.046448,0.30386 0.450102,3.05769 z m 132.326802,0 0.59635,3.36155 0.4501,-3.05769 z m -140.671513,2.69648 -1.046964,0.30385 0.450618,3.0577 z m 149.016223,0 0.59635,3.36155 0.45062,-3.0577 z"
         inkscape:label="Треугольники" /><path
         id="path47"
         style="fill:#4d4d4d;fill-opacity:1;stroke:none;stroke-width:1.168;stroke-linecap:round;stroke-linejoin:round;paint-order:markers fill stroke"
         d="m 96.861271,123.22486 c -0.102498,-0.0169 -0.199069,0.0106 -0.255281,0.108 -0.14706,0.25472 -0.07608,4.58754 0.0217,6.87917 0.07754,1.81719 0.249151,3.78863 0.325561,5.60586 0.09114,2.16762 0.253045,4.13597 0.463021,6.30039 0.187124,1.92887 0.53343,3.86523 0.777214,5.78776 0.279036,2.20054 0.477861,4.39445 0.644921,6.60631 0.08061,1.06723 0.01409,2.31054 0.05116,3.38016 0.06802,1.96192 0.05745,3.89971 0.07183,5.8167 0.0083,1.11228 -0.304129,2.58659 -0.407727,3.13004 -0.06816,0.35753 0.398341,0.9109 0.496611,0.9834 0.297454,0.21945 0.876519,0.58391 1.352379,-0.0718 0.21653,-0.29837 0.26148,-0.62287 0.26148,-1.53221 0,-2.47274 -0.16381,-2.23067 -0.16381,-2.64428 0,-0.50819 0.14256,-1.08338 0.14056,-1.51308 -0.0214,-3.97138 0.0242,-7.72361 -0.0331,-11.6086 -0.0335,-2.27528 -0.24783,-4.56172 -0.47955,-6.82542 -0.175748,-1.71692 -0.413243,-3.40844 -0.678004,-5.1139 -0.294989,-1.90018 -0.601803,-3.76693 -0.917773,-5.66374 -0.290062,-1.74128 -0.581172,-3.49066 -0.802018,-5.24206 -0.173067,-1.37248 -0.481946,-4.12826 -0.578776,-4.22506 -0.0795,-0.0795 -0.187923,-0.14075 -0.290422,-0.15761 z m 16.331819,0 c -0.1025,0.0169 -0.21092,0.0781 -0.29042,0.15761 -0.0968,0.0968 -0.40572,2.85258 -0.57878,4.22506 -0.22085,1.7514 -0.51196,3.50078 -0.80202,5.24206 -0.31596,1.89681 -0.62278,3.76356 -0.91777,5.66374 -0.26477,1.70546 -0.50225,3.39698 -0.67799,5.1139 -0.23173,2.2637 -0.44602,4.55014 -0.47956,6.82542 -0.0573,3.88499 -0.0117,7.63722 -0.0331,11.6086 -0.002,0.4297 0.14056,1.00489 0.14056,1.51308 0,0.41361 -0.16382,0.17154 -0.16382,2.64428 0,0.90934 0.045,1.23384 0.26148,1.53221 0.47585,0.65574 1.05441,0.29128 1.35186,0.0718 0.0983,-0.0725 0.56528,-0.62587 0.49713,-0.9834 -0.1036,-0.54345 -0.41608,-2.01776 -0.40773,-3.13004 0.0144,-1.91699 0.004,-3.85478 0.0718,-5.8167 0.0371,-1.06962 -0.0294,-2.31293 0.0512,-3.38016 0.16706,-2.21186 0.36589,-4.40577 0.64492,-6.60631 0.24379,-1.92253 0.59009,-3.85889 0.77722,-5.78776 0.20997,-2.16442 0.37188,-4.13277 0.46302,-6.30039 0.0764,-1.81723 0.24802,-3.78867 0.32556,-5.60586 0.0978,-2.29163 0.16879,-6.62445 0.0217,-6.87917 -0.0562,-0.0974 -0.15278,-0.12487 -0.25528,-0.108 z"
         inkscape:label="Средняя нижняя основа" /><path
         id="path580"
         style="fill:#404040;fill-opacity:1;stroke:none;stroke-width:1.168;stroke-linecap:round;stroke-linejoin:round;paint-order:markers fill stroke"
         d="m 95.967042,81.266688 c -45.01666,28.872372 -46.30948,29.619722 -88.5511902,54.747052 -1.77248,1.05436 -2.69848,1.29937 -4.23488,4.51084 -1.37813,2.88065 -1.52269,6.89369 -0.90899,6.82749 0.50182,-0.0541 23.3148602,-7.4564 23.3148602,-7.4564 l 27.95746,-9.36997 25.85527,-6.75462 h 17.88108 l -0.0155,-26.502262 c 0,0 0.0573,-5.28668 0.0196,-12.88965 -0.008,-1.54567 -1.2744,-3.14028 -1.31775,-3.11248 z m 18.077988,0 c -0.0433,-0.0278 -1.30959,1.56681 -1.31724,3.11248 -0.0376,7.60297 0.0196,12.88965 0.0196,12.88965 l -0.0155,26.502262 h 17.88108 l 25.85475,6.75462 27.95798,9.36997 c 0,0 22.81252,7.40226 23.31434,7.4564 0.6137,0.0662 0.46914,-3.94684 -0.90899,-6.82749 -1.53639,-3.21147 -2.46189,-3.45648 -4.23436,-4.51084 -42.24171,-25.12733 -43.53505,-25.87468 -88.5517,-54.747052 z"
         inkscape:label="Передние крылья" /><path
         id="path22"
         style="fill:url(#radialGradient581);fill-opacity:1;stroke:none;stroke-width:1.168;stroke-linecap:round;stroke-linejoin:round;paint-order:markers fill stroke"
         d="m 95.967042,81.266688 c -45.01666,28.872372 -46.30948,29.619722 -88.5511902,54.747052 -1.77248,1.05436 -2.69848,1.29937 -4.23488,4.51084 -1.37813,2.88065 -1.52269,6.89369 -0.90899,6.82749 0.50182,-0.0541 23.3148602,-7.4564 23.3148602,-7.4564 l 27.95746,-9.36997 25.85527,-6.75462 h 17.88108 l -0.0155,-26.502262 c 0,0 0.0573,-5.28668 0.0196,-12.88965 -0.008,-1.54567 -1.2744,-3.14028 -1.31775,-3.11248 z m 18.077988,0 c -0.0433,-0.0278 -1.30959,1.56681 -1.31724,3.11248 -0.0376,7.60297 0.0196,12.88965 0.0196,12.88965 l -0.0155,26.502262 h 17.88108 l 25.85475,6.75462 27.95798,9.36997 c 0,0 22.81252,7.40226 23.31434,7.4564 0.6137,0.0662 0.46914,-3.94684 -0.90899,-6.82749 -1.53639,-3.21147 -2.46189,-3.45648 -4.23436,-4.51084 -42.24171,-25.12733 -43.53505,-25.87468 -88.5517,-54.747052 z"
         inkscape:label="Градиент передних крыльев" /><path
         id="rect16870"
         style="display:inline;fill:url(#linearGradient308539);stroke-width:5.77175;stroke-linecap:round;stroke-linejoin:round;paint-order:fill markers stroke"
         d="M 7.5240885 120.10895 L 7.4202189 120.17303 C 7.4202189 120.17303 4.721728 121.4724 3.1853353 124.68386 C 1.8072055 127.5645 1.6626432 131.57755 2.2763468 131.51135 C 2.4236685 131.49545 4.6727134 130.78611 7.5240885 129.87683 L 7.5240885 120.10895 z M 202.4972 120.10895 L 202.4972 129.87683 C 205.34857 130.78611 207.59762 131.49545 207.74494 131.51135 C 208.35865 131.57755 208.21409 127.5645 206.83595 124.68386 C 205.29957 121.4724 202.60107 120.17303 202.60107 120.17303 L 202.4972 120.10895 z "
         transform="translate(0.01673437,15.840513)" /><path
         id="path1"
         style="display:inline;fill:url(#linearGradient6);stroke-width:1.59783;stroke-linecap:round;stroke-linejoin:round;paint-order:fill markers stroke"
         d="M 98.844294 95.037229 C 98.138288 95.009229 97.727104 95.568219 97.598375 95.791188 C 97.367034 96.191888 97.268383 97.763947 97.325523 98.511436 C 97.714363 103.59821 98.138366 108.94497 98.698049 114.12185 C 98.743639 114.54351 98.859989 115.17495 99.094924 115.33728 C 99.349525 115.51323 99.521023 115.60572 99.739846 115.38689 C 100.05339 115.07332 100.14253 114.3311 100.18633 113.77459 C 100.29395 112.40744 100.50486 111.60866 100.51086 110.12003 C 100.52126 107.73113 100.53409 103.35093 100.50879 97.684613 C 100.50579 97.014044 100.58789 95.837214 99.648896 95.295095 C 99.347519 95.121095 99.079629 95.046569 98.844294 95.037229 z M 111.21046 95.037229 C 110.97512 95.046229 110.70724 95.121125 110.40586 95.295095 C 109.46688 95.837214 109.54897 97.014044 109.54597 97.684613 C 109.52057 103.35093 109.5334 107.73113 109.5439 110.12003 C 109.5499 111.60866 109.76081 112.40744 109.86843 113.77459 C 109.91223 114.3311 110.00137 115.07332 110.31491 115.38689 C 110.53374 115.60571 110.70522 115.51322 110.95983 115.33728 C 111.19476 115.17495 111.31112 114.54351 111.35671 114.12185 C 111.9164 108.94497 112.34039 103.59821 112.72923 98.511436 C 112.78633 97.763947 112.68774 96.191888 112.45638 95.791188 C 112.32766 95.568219 111.91646 95.009209 111.21046 95.037229 z " /><path
         id="path46"
         style="fill:#1a1a1a;fill-opacity:1;stroke:none;stroke-width:1.168;stroke-linecap:round;stroke-linejoin:round;paint-order:markers fill stroke"
         d="m 100.29104,171.74748 c 0,0 -0.28825,0.0686 -0.423751,0.38292 -0.547336,1.26976 -0.219108,4.45192 -0.219108,4.45192 l 0.666629,-1.28002 z m 9.47177,0 -0.0233,3.55482 0.66663,1.28002 c 0,0 0.32823,-3.18216 -0.21911,-4.45192 -0.1355,-0.31433 -0.42426,-0.38292 -0.42426,-0.38292 z"
         inkscape:label="Отверстия" /><path
         id="path42"
         style="fill:#404040;fill-opacity:1;stroke:none;stroke-width:1.168;stroke-linecap:round;stroke-linejoin:round;paint-order:markers fill stroke"
         d="m 100.26985,171.75213 c -0.0187,-2e-5 -0.003,2.68566 -0.0605,3.07785 -0.11839,0.80635 -0.784475,2.27257 -1.518256,3.1321 -0.437977,0.51304 -1.161402,0.84421 -1.685686,1.26866 -9.505957,7.69582 -27.391093,21.98315 -27.391093,21.98315 l 0.263034,15.00787 c 0,0 21.532554,-10.57867 32.795411,-16.11116 0.17419,-0.0856 0.44067,-15.38209 0.30076,-23.0973 -0.0162,-0.89601 -0.0493,-1.14878 -0.54105,-2.63343 -0.26282,-0.79351 -0.80284,-1.90302 -1.17771,-2.27789 -0.12238,-0.12238 -0.70937,-0.34958 -0.98495,-0.34985 z m 9.51466,0 c -0.27558,2.7e-4 -0.86257,0.22747 -0.98495,0.34985 -0.37487,0.37487 -0.9154,1.48438 -1.17822,2.27789 -0.49176,1.48465 -0.52434,1.73742 -0.54054,2.63343 -0.13991,7.71521 0.12657,23.0117 0.30076,23.0973 11.26286,5.53249 32.7949,16.11116 32.7949,16.11116 l 0.26303,-15.00787 c 0,0 -17.88462,-14.28733 -27.39058,-21.98315 -0.52428,-0.42445 -1.2477,-0.75562 -1.68568,-1.26866 -0.73378,-0.85953 -1.39987,-2.32575 -1.51826,-3.1321 -0.0574,-0.39219 -0.0418,-3.07787 -0.0605,-3.07785 z"
         inkscape:label="Задние крылья" /><path
         id="path17"
         style="fill:url(#radialGradient18);stroke:none;stroke-width:1.168;stroke-linecap:round;stroke-linejoin:round;paint-order:markers fill stroke"
         d="m 100.26985,171.75213 c -0.0187,-2e-5 -0.003,2.68566 -0.0605,3.07785 -0.11839,0.80635 -0.784475,2.27257 -1.518256,3.1321 -0.437977,0.51304 -1.161402,0.84421 -1.685686,1.26866 -9.505957,7.69582 -27.391093,21.98315 -27.391093,21.98315 l 0.263034,15.00787 c 0,0 21.532554,-10.57867 32.795411,-16.11116 0.17419,-0.0856 0.44067,-15.38209 0.30076,-23.0973 -0.0162,-0.89601 -0.0493,-1.14878 -0.54105,-2.63343 -0.26282,-0.79351 -0.80284,-1.90302 -1.17771,-2.27789 -0.12238,-0.12238 -0.70937,-0.34958 -0.98495,-0.34985 z m 9.51466,0 c -0.27558,2.7e-4 -0.86257,0.22747 -0.98495,0.34985 -0.37487,0.37487 -0.9154,1.48438 -1.17822,2.27789 -0.49176,1.48465 -0.52434,1.73742 -0.54054,2.63343 -0.13991,7.71521 0.12657,23.0117 0.30076,23.0973 11.26286,5.53249 32.7949,16.11116 32.7949,16.11116 l 0.26303,-15.00787 c 0,0 -17.88462,-14.28733 -27.39058,-21.98315 -0.52428,-0.42445 -1.2477,-0.75562 -1.68568,-1.26866 -0.73378,-0.85953 -1.39987,-2.32575 -1.51826,-3.1321 -0.0574,-0.39219 -0.0418,-3.07787 -0.0605,-3.07785 z"
         inkscape:label="Градиент задних крыльев" /><path
         id="path7"
         style="fill:url(#linearGradient61031-2);stroke-width:2.82058;stroke-linecap:round;stroke-linejoin:round;paint-order:fill markers stroke"
         d="M 97.118818 179.14889 C 97.082118 179.17649 97.040708 179.20224 97.005646 179.23054 C 87.762599 186.71351 71.117062 200.0123 70.174726 200.76514 L 70.63568 201.48396 L 98.251048 180.63407 L 97.118818 179.14889 z M 112.93594 179.14889 L 111.80371 180.63407 L 139.41908 201.48396 L 139.88003 200.76514 C 138.9377 200.0123 122.29216 186.71351 113.04911 179.23054 C 113.01401 179.20224 112.97261 179.17649 112.93594 179.14889 z " /><path
         id="path25"
         style="fill:#00fcfb;fill-opacity:0.661765;stroke:none;stroke-width:1.168;stroke-linecap:round;stroke-linejoin:round;paint-order:markers fill stroke"
         d="M 75.414518,94.429198 C 50.248468,110.49191 41.555335,115.71746 8.1359375,135.59671 L 8.7932617,136.88035 77.23973,97.624868 Z m 59.225322,0 -1.82521,3.19567 68.44647,39.255482 0.65732,-1.28364 c -33.4194,-19.87925 -42.11252,-25.1048 -67.27858,-41.167512 z"
         inkscape:label="ППолоски ПКрыльев" /><path
         id="path50"
         style="fill:#737373;fill-opacity:1;stroke:none;stroke-width:1.168;stroke-linecap:round;stroke-linejoin:round;paint-order:markers fill stroke"
         d="m 102.68624,200.15401 c 0,0 0.39315,4.16545 0.94929,4.48655 0.0678,0.0391 1.27246,0.035 1.39127,0.035 0.11882,0 1.32424,0.004 1.39203,-0.035 0.55615,-0.3211 0.94929,-4.48655 0.94929,-4.48655 l -2.34094,-0.001 z"
         sodipodi:nodetypes="csccccc"
         inkscape:label="Задняя часть двигателя" /><path
         id="path49"
         style="fill:#595959;fill-opacity:1;stroke:none;stroke-width:1.168;stroke-linecap:round;stroke-linejoin:round;paint-order:markers fill stroke"
         d="m 102.75962,198.27196 -0.0744,1.88205 2.34197,-0.001 2.34198,0.001 -0.0744,-1.88205 -2.26756,0.001 z"
         sodipodi:nodetypes="ccccccc"
         inkscape:label="Передняя часть двигателя" /><path
         id="path52"
         style="fill:#000000;fill-opacity:1;stroke:none;stroke-width:1.168;stroke-linecap:round;stroke-linejoin:round;paint-order:markers fill stroke"
         d="m 104.29544,35.49946 c 0,0 -0.96704,0.24842 -1.42213,0.835091 -0.60983,0.786156 -1.07611,2.120676 -1.44384,3.257682 -0.20575,0.63617 -0.44132,2.008663 -0.44132,2.008663 l 0.33073,0.07493 3.7083,-4.44469 3.7083,4.44469 0.33073,-0.07493 c 0,0 -0.23557,-1.372493 -0.44132,-2.008663 -0.36773,-1.137006 -0.83401,-2.471526 -1.44384,-3.257682 -0.45508,-0.586671 -1.42213,-0.835091 -1.42213,-0.835091 l -0.73173,-0.0801 z"
         sodipodi:nodetypes="csscccccssccc"
         inkscape:label="Полоска перед стеклами" /><path
         id="path581"
         style="fill:#666666;fill-opacity:1;stroke:none;stroke-width:1.168;stroke-linecap:round;stroke-linejoin:round;paint-order:markers fill stroke"
         d="m 104.82203,98.403628 c -0.3554,0.30205 -0.55391,2.493192 -0.73123,3.746032 -0.37368,2.64011 -0.81716,5.26843 -1.18029,7.91114 -0.37676,2.7419 -0.64939,5.38639 -0.90588,8.14214 -0.51668,5.55122 -1.07415,11.2615 -1.25987,16.82275 -0.16513,4.94419 -0.2101,9.85198 -0.26924,14.79858 -0.0886,7.40832 -0.15532,14.96646 -0.26458,22.225 -0.035,2.32753 2.54575,2.97695 2.51354,6.51536 -0.009,0.99835 -0.009,9.38186 0.0708,19.72386 3e-5,0.004 2.1122,0.0313 2.23191,0.0313 0.1197,0 2.23187,-0.0274 2.2319,-0.0313 0.0797,-10.342 0.0798,-18.72551 0.0708,-19.72386 -0.0322,-3.53841 2.54854,-4.18783 2.51354,-6.51536 -0.10926,-7.25854 -0.17598,-14.81668 -0.26458,-22.225 -0.0591,-4.9466 -0.1041,-9.85439 -0.26923,-14.79858 -0.18573,-5.56125 -0.7432,-11.27153 -1.25987,-16.82275 -0.25649,-2.75575 -0.52913,-5.40024 -0.90589,-8.14214 -0.36313,-2.64271 -0.80661,-5.27103 -1.18029,-7.91114 -0.17732,-1.25284 -0.37582,-3.443982 -0.73122,-3.746032 -0.0532,-0.0452 -0.1154,-0.0623 -0.20516,-0.0623 -0.0898,0 -0.15198,0.0171 -0.20515,0.0623 z"
         inkscape:label="Верхняя задняя основ"
         sodipodi:nodetypes="csssssscsccccsssssscc" /><path
         id="path48"
         style="fill:url(#radialGradient583);fill-opacity:1;stroke:none;stroke-width:1.168;stroke-linecap:round;stroke-linejoin:round;paint-order:markers fill stroke"
         d="m 104.82203,98.403628 c -0.3554,0.30205 -0.55391,2.493192 -0.73123,3.746032 -0.37368,2.64011 -0.81716,5.26843 -1.18029,7.91114 -0.37676,2.7419 -0.64939,5.38639 -0.90588,8.14214 -0.51668,5.55122 -1.07415,11.2615 -1.25987,16.82275 -0.16513,4.94419 -0.2101,9.85198 -0.26924,14.79858 -0.0886,7.40832 -0.15532,14.96646 -0.26458,22.225 -0.035,2.32753 2.54575,2.97695 2.51354,6.51536 -0.009,0.99835 -0.009,9.38186 0.0708,19.72386 3e-5,0.004 2.1122,0.0313 2.23191,0.0313 0.1197,0 2.23187,-0.0274 2.2319,-0.0313 0.0797,-10.342 0.0798,-18.72551 0.0708,-19.72386 -0.0322,-3.53841 2.54854,-4.18783 2.51354,-6.51536 -0.10926,-7.25854 -0.17598,-14.81668 -0.26458,-22.225 -0.0591,-4.9466 -0.1041,-9.85439 -0.26923,-14.79858 -0.18573,-5.56125 -0.7432,-11.27153 -1.25987,-16.82275 -0.25649,-2.75575 -0.52913,-5.40024 -0.90589,-8.14214 -0.36313,-2.64271 -0.80661,-5.27103 -1.18029,-7.91114 -0.17732,-1.25284 -0.37582,-3.443982 -0.73122,-3.746032 -0.0532,-0.0452 -0.1154,-0.0623 -0.20516,-0.0623 -0.0898,0 -0.15198,0.0171 -0.20515,0.0623 z"
         inkscape:label="Градиент верхней задней основы"
         sodipodi:nodetypes="csssssscsccccsssssscc" /><path
         id="path51"
         style="fill:#666666;fill-opacity:1;stroke:none;stroke-width:1.168;stroke-linecap:round;stroke-linejoin:round;paint-order:markers fill stroke"
         d="m 104.96517,37.078692 v 0.0031 c -0.25795,0.01016 -0.94381,0.07971 -1.68052,0.534851 -0.90156,0.556982 -1.91064,2.313893 -2.08153,3.987354 -0.0947,0.92756 -0.72553,5.04476 -0.72553,10.531657 0,2.387201 0.0927,7.881064 0.42168,11.813754 0.25051,2.99482 0.6227,5.95894 1.27434,8.92141 0.65962,2.99873 1.99091,8.79618 2.24689,8.89507 0.19927,0.077 0.16066,-0.17839 0.35657,-0.26355 0.0579,-0.0251 0.13016,-0.033 0.19068,-0.0346 v 0.004 c 0,0 0.0369,-0.001 0.0594,-0.003 0.0224,0.001 0.0589,0.003 0.0589,0.003 v -0.004 c 0.0606,0.002 0.1332,0.009 0.1912,0.0346 0.19591,0.0852 0.1573,0.34055 0.35657,0.26355 0.25598,-0.0989 1.58676,-5.89634 2.24638,-8.89507 0.65164,-2.96247 1.02434,-5.92659 1.27485,-8.92141 0.32894,-3.93269 0.42168,-9.426553 0.42168,-11.813754 0,-5.486897 -0.63083,-9.604097 -0.72553,-10.531657 -0.17089,-1.673461 -1.17997,-3.430372 -2.08153,-3.987354 -0.73671,-0.455137 -1.42257,-0.52469 -1.68052,-0.534851 v -0.0031 c 0,0 -0.0446,0.0016 -0.062,0.0015 -0.0174,2.9e-5 -0.062,-0.0015 -0.062,-0.0015 z"
         inkscape:label="Верхняя передняя основа" /><path
         id="rect1631"
         style="fill:url(#linearGradient61031);stroke-width:0.923447;stroke-linecap:round;stroke-linejoin:round;paint-order:fill markers stroke"
         d="M 104.96537 37.078493 L 104.96537 37.081594 C 104.70742 37.091754 104.02156 37.161304 103.28485 37.616445 C 102.38329 38.173426 101.37421 39.930339 101.20332 41.603798 C 101.10862 42.531357 100.47779 46.648564 100.47779 52.135455 C 100.47779 54.522654 100.57049 60.016518 100.89947 63.949204 C 101.14998 66.944021 101.52217 69.908157 102.17381 72.870624 C 102.83343 75.869351 104.16472 81.666798 104.4207 81.765688 C 104.61997 81.842688 104.58136 81.587298 104.77726 81.502138 C 104.83516 81.477038 104.90743 81.469115 104.96795 81.467515 L 104.96795 81.471649 C 104.96795 81.471649 105.00488 81.470548 105.02738 81.468548 C 105.04978 81.469548 105.08629 81.471649 105.08629 81.471649 L 105.08629 81.467515 C 105.14689 81.469515 105.21949 81.476538 105.27749 81.502138 C 105.4734 81.587338 105.43479 81.842688 105.63406 81.765688 C 105.89004 81.666788 107.22082 75.869351 107.88043 72.870624 C 108.53207 69.908157 108.90478 66.944021 109.15529 63.949204 C 109.48423 60.016518 109.57697 54.522654 109.57697 52.135455 C 109.57697 46.648564 108.94613 42.531357 108.85143 41.603798 C 108.68055 39.930339 107.67147 38.173426 106.76991 37.616445 C 106.0332 37.161308 105.34734 37.091755 105.08939 37.081594 L 105.08939 37.078493 C 105.08939 37.078493 105.04478 37.080143 105.02738 37.080043 C 105.00998 37.080072 104.96537 37.078493 104.96537 37.078493 z " /><path
         id="path58"
         style="fill:#000000;fill-opacity:1;stroke:none;stroke-width:1.168;stroke-linecap:round;stroke-linejoin:round;paint-order:markers fill stroke"
         d="m 103.31256,23.254729 c -0.77382,0.644712 -1.36703,1.324582 -1.95182,2.151807 l 3.66645,-0.01085 3.66643,0.01085 c -0.58479,-0.827225 -1.178,-1.507095 -1.95181,-2.151807 -0.7646,-0.637024 -1.53778,-0.692963 -1.71463,-0.692963 -0.17685,0 -0.95003,0.05594 -1.71462,0.692963 z"
         sodipodi:nodetypes="scccscs"
         inkscape:label="Нос" /><path
         id="rect1631-8"
         style="display:inline;fill:url(#linearGradient7);stroke-width:0.609718;stroke-linecap:round;stroke-linejoin:round;paint-order:fill markers stroke"
         d="M 141.69749 193.44983 C 141.46185 193.44981 141.32963 193.49883 141.18796 193.60021 C 140.61315 194.0117 140.31451 194.10182 140.17304 194.79445 C 139.82476 196.49964 139.87353 202.66701 139.86453 207.00352 C 139.85753 210.64679 140.40886 218.52233 141.08099 218.90719 C 141.27845 219.02026 141.42783 219.11905 141.69749 219.11906 C 141.96716 219.11908 142.11602 219.02036 142.31348 218.90719 C 142.98559 218.52233 143.53714 210.64679 143.52994 207.00352 C 143.52094 202.66701 143.56974 196.49964 143.22143 194.79445 C 143.07996 194.10182 142.78131 194.0117 142.2065 193.60021 C 142.06484 193.49879 141.93314 193.44985 141.69749 193.44983 z " /><path
         id="path10"
         style="display:inline;fill:url(#linearGradient10);stroke-width:0.609718;stroke-linecap:round;stroke-linejoin:round;paint-order:fill markers stroke"
         d="M 68.357266 193.44983 C 68.121616 193.44985 67.989406 193.49883 67.847736 193.60021 C 67.272928 194.0117 66.974281 194.10182 66.832811 194.79445 C 66.484501 196.49964 66.533303 202.66701 66.524303 207.00352 C 66.517103 210.64679 67.068648 218.52233 67.740766 218.90719 C 67.938226 219.02034 68.087596 219.11908 68.357266 219.11906 C 68.626926 219.11905 68.775789 219.02026 68.973249 218.90719 C 69.645377 218.52233 70.196712 210.64679 70.189712 207.00352 C 70.180712 202.66701 70.229481 196.49964 69.881204 194.79445 C 69.739734 194.10182 69.441097 194.0117 68.866279 193.60021 C 68.724609 193.4988 68.592906 193.44981 68.357266 193.44983 z " /><path
         id="path53"
         style="fill:#0d0d0d;fill-opacity:1;stroke:none;stroke-width:1.168;stroke-linecap:round;stroke-linejoin:round;paint-order:markers fill stroke"
         d="m 104.72022,37.215634 c 0,0 -0.74626,0.115732 -1.24126,0.401526 -0.76675,0.442682 -1.32499,1.412834 -1.32499,1.412834 l 0.73174,0.802018 c 0,0 0.32408,-0.378605 0.74827,-0.570508 0.52877,-0.239214 1.16427,-0.212907 1.16427,-0.212907 z m 0.6134,0 -0.0775,1.832963 c 0,0 0.6355,-0.02631 1.16427,0.212907 0.42419,0.191903 0.74827,0.570508 0.74827,0.570508 l 0.73174,-0.802018 c 0,0 -0.55823,-0.970152 -1.32498,-1.412834 -0.49501,-0.285794 -1.24179,-0.401526 -1.24179,-0.401526 z m -3.26233,1.987993 c 0,0 -0.15459,0.285306 -0.22789,0.429948 -0.0833,0.164406 -0.21343,0.532267 -0.21343,0.532267 l 0.83716,0.42478 c 0,0 0.0921,-0.239531 0.15193,-0.350883 0.0518,-0.09658 0.17415,-0.283187 0.17415,-0.283187 z m 5.91127,0 -0.72141,0.752925 c 0,0 0.12232,0.186612 0.17415,0.283187 0.0598,0.111352 0.15193,0.350883 0.15193,0.350883 l 0.83716,-0.42478 c 0,0 -0.13009,-0.367861 -0.21342,-0.532267 -0.0733,-0.144642 -0.22841,-0.429948 -0.22841,-0.429948 z m -6.46318,1.329117 c 0,0 -0.10959,0.355856 -0.15089,0.541569 -0.042,0.188565 -0.0992,0.580844 -0.0992,0.580844 l 0.93018,0.177767 c 0,0 0.0213,-0.367339 0.0558,-0.541569 0.0282,-0.142659 0.12402,-0.409278 0.12402,-0.409278 z m 7.0156,0 -0.8599,0.349333 c 0,0 0.0958,0.266619 0.12402,0.409278 0.0345,0.17423 0.0558,0.541569 0.0558,0.541569 l 0.93017,-0.177767 c 0,0 -0.0572,-0.392279 -0.0992,-0.580844 -0.0413,-0.185713 -0.15089,-0.541569 -0.15089,-0.541569 z"
         inkscape:label="Стекла" /><path
         id="path2"
         style="display:inline;fill:url(#linearGradient308539);stroke-width:5.77175;stroke-linecap:round;stroke-linejoin:round;paint-order:fill markers stroke"
         d="M 75.397982 78.588485 C 50.231957 94.651181 41.538765 99.876768 8.119401 119.756 L 8.7767253 121.03964 L 77.223193 81.784155 L 75.397982 78.588485 z M 134.62331 78.588485 L 132.7981 81.784155 L 201.24456 121.03964 L 201.90189 119.756 C 168.48252 99.876768 159.78934 94.651181 134.62331 78.588485 z "
         transform="translate(0.01673437,15.840513)" /><path
         id="path24"
         style="display:inline;fill:#9c9c9c;fill-opacity:1;fill-rule:evenodd;stroke:#000000;stroke-width:0.4;stroke-linecap:butt;stroke-linejoin:miter;stroke-dasharray:none;stroke-opacity:1"
         d="m 130.54741,123.56007 -17.8145,0.006 m 44.2053,6.88994 -26.42604,-6.9166 m 71.23612,21.73182 -45.31724,-14.88455 M 187.32474,129.7298 130.55049,97.530998 M 185.1526,134.84049 130.473,115.54112 m 54.06861,22.17001 -53.942,-17.55894 m -0.11894,-15.30976 56.51902,25.76079 z m 0.0858,6.23218 55.33616,21.96248 z m 56.19605,18.32446 15.19287,8.66821 z m -74.03499,-9.29781 17.98505,0.0146 m -17.99433,-4.5515 17.99433,0.0146 m -17.99131,-4.45796 17.99131,0.0146 m 53.76296,24.79166 2.81612,-6.29667 m -56.91641,-32.223112 0.0976,26.346462 z m 26.29038,14.949082 0.0935,18.12514 z m -9.12089,9.21508 v 6.53925 z m 19.97191,7.00715 -0.0119,5.57607 z m 16.98708,7.20284 -0.0977,4.03541 z m 17.27388,1.98489 -0.13592,7.62745 z m -89.04182,-32.91299 17.97679,0.0146 m -17.9665,-7.498152 17.95823,0.20891 m -51.346326,25.993712 17.919571,-0.006 m -44.384778,6.92669 26.570734,-6.94968 M 8.2104713,145.29048 53.490506,130.33565 M 22.679878,129.72967 79.454128,97.530868 M 24.843251,134.83451 79.531618,115.54099 m -54.06861,22.17001 53.942,-17.55894 m 0.11894,-15.30976 -56.61256,25.81341 z m -0.0858,6.23218 -55.33616,21.96248 z m -56.19605,18.32446 -15.1928696,8.66821 z m 74.03499,-9.29781 -17.98505,0.0146 m 17.99433,-4.5515 -17.99433,0.0146 m 17.99131,-4.45796 -17.99131,0.0146 m -53.80096,24.87806 -2.77812,-6.38307 m 56.91641,-32.165232 -0.0976,26.288582 z m -26.29038,14.891202 -0.0935,18.12514 z m 9.12089,9.3143 v 6.44003 z m -19.97191,7.00148 0.0119,5.48252 z m -17.017774,7.14875 0.128394,3.99595 z m -17.2431856,1.94543 0.13592,7.62745 z M 97.268828,104.8534 79.292038,104.868 m 17.9665,-7.498152 -17.95823,0.20891"
         sodipodi:nodetypes="cccccccccccccccccccccccccccccccccccccccccccccccccccccccccccccccccccccccccccccccccccccccccccccccccccccc" /></g></g></svg>
