<?xml version="1.0" encoding="UTF-8" standalone="no"?>
<!-- Created with Inkscape (http://www.inkscape.org/) -->

<svg
   width="285mm"
   height="285mm"
   viewBox="0 0 285 285"
   version="1.1"
   id="svg1"
   xml:space="preserve"
   xmlns:xlink="http://www.w3.org/1999/xlink"
   xmlns="http://www.w3.org/2000/svg"
   xmlns:svg="http://www.w3.org/2000/svg"><defs
     id="defs1"><linearGradient
       id="linearGradient121"><stop
         style="stop-color:#808080;stop-opacity:0.55000001;"
         offset="0"
         id="stop122" /><stop
         style="stop-color:#666666;stop-opacity:0.80000001;"
         offset="1"
         id="stop123" /></linearGradient><linearGradient
       id="linearGradient120"><stop
         style="stop-color:#808080;stop-opacity:0.55000001;"
         offset="0"
         id="stop120" /><stop
         style="stop-color:#666666;stop-opacity:0.80041152;"
         offset="1"
         id="stop121" /></linearGradient><linearGradient
       id="linearGradient118"><stop
         style="stop-color:#818181;stop-opacity:0;"
         offset="0"
         id="stop118" /><stop
         style="stop-color:#f3f3f3;stop-opacity:1;"
         offset="1"
         id="stop119" /></linearGradient><linearGradient
       id="linearGradient114"><stop
         style="stop-color:#727272;stop-opacity:0.75514406;"
         offset="0"
         id="stop115" /><stop
         style="stop-color:#ffffff;stop-opacity:0;"
         offset="1"
         id="stop116" /></linearGradient><linearGradient
       id="linearGradient110"><stop
         style="stop-color:#f2f2f2;stop-opacity:1;"
         offset="0"
         id="stop111" /><stop
         style="stop-color:#b0b0b0;stop-opacity:0;"
         offset="1"
         id="stop112" /></linearGradient><linearGradient
       id="linearGradient109"><stop
         style="stop-color:#f1f1f1;stop-opacity:1;"
         offset="0"
         id="stop109" /><stop
         style="stop-color:#afafaf;stop-opacity:0;"
         offset="1"
         id="stop110" /></linearGradient><radialGradient
       xlink:href="#linearGradient109"
       id="radialGradient110"
       cx="91.818169"
       cy="231.18533"
       fx="91.818169"
       fy="231.18533"
       r="8.1808329"
       gradientTransform="matrix(0.93531617,0,0,7.3887596,5.939151,-1476.9876)"
       gradientUnits="userSpaceOnUse" /><radialGradient
       xlink:href="#linearGradient110"
       id="radialGradient112"
       cx="119.8982"
       cy="231.18533"
       fx="119.8982"
       fy="231.18533"
       r="8.180829"
       gradientTransform="matrix(1,0,0,6.4873966,0,-1268.6056)"
       gradientUnits="userSpaceOnUse" /><radialGradient
       xlink:href="#linearGradient114"
       id="radialGradient116"
       cx="105.7727"
       cy="256.37775"
       fx="105.7727"
       fy="256.37775"
       r="95.747292"
       gradientTransform="matrix(1.7190662,0,0,0.68668352,-76.119006,50.199923)"
       gradientUnits="userSpaceOnUse" /><radialGradient
       xlink:href="#linearGradient118"
       id="radialGradient119"
       cx="105.85814"
       cy="307.16333"
       fx="105.85814"
       fy="307.16333"
       r="63.146034"
       gradientTransform="matrix(2.0307458,0,0,0.68112604,-109.11283,77.859091)"
       gradientUnits="userSpaceOnUse" /><radialGradient
       xlink:href="#linearGradient121"
       id="radialGradient123"
       cx="72.384796"
       cy="265.84781"
       fx="72.384796"
       fy="265.84781"
       r="1.4036596"
       gradientTransform="matrix(1,0,0,5.6852548,0,-1245.5647)"
       gradientUnits="userSpaceOnUse" /><radialGradient
       xlink:href="#linearGradient120"
       id="radialGradient124"
       gradientUnits="userSpaceOnUse"
       gradientTransform="matrix(1.0471209,0,0,5.6852529,-6.5654346,-1245.5642)"
       cx="139.33157"
       cy="265.84781"
       fx="139.33157"
       fy="265.84781"
       r="1.4036601" /></defs><g
     id="layer1"><g
       id="g1"
       transform="translate(36.640836,-15.058276)"
       style="display:inline"><path
         id="path16"
         style="fill:#a69f57;fill-opacity:1;stroke:none;stroke-width:1.168;stroke-linecap:round;stroke-linejoin:round;paint-order:markers fill stroke"
         d="m 79.569303,240.89847 c -1.729115,0.005 -3.676957,0.27422 -4.55321,1.33119 -19.584157,23.62318 -4.446299,5.07817 -30.393494,36.91506 -3.276585,4.02032 -2.189737,14.46713 2.122351,17.08009 0.399709,0.24221 31.617709,-15.57579 31.617709,-15.57579 l 4.445723,-39.4963 c 0,0 -1.509964,-0.25929 -3.239079,-0.25425 z m 52.577667,0 c -1.72911,-0.005 -3.23908,0.25425 -3.23908,0.25425 l 4.44573,39.4963 c 0,0 31.218,15.818 31.61771,15.57579 4.31208,-2.61296 5.39893,-13.05977 2.12235,-17.08009 -25.9472,-31.83689 -10.80882,-13.29188 -30.39298,-36.91506 -0.87625,-1.05697 -2.82461,-1.32614 -4.55373,-1.33119 z" /><path
         id="path41"
         style="fill:#8c9458;fill-opacity:1;stroke:none;stroke-width:0.765;stroke-linecap:square;paint-order:markers fill stroke"
         d="m 134.49445,254.81625 c -2.02288,-0.0315 -2.5286,2.84255 -3.43906,5.41828 l 2.29805,20.41425 c 0,0 5.38431,2.70709 9.19892,4.62866 1.43083,-0.88275 2.60363,-2.05556 3.21169,-3.43338 1.0521,-2.38401 -3.01171,-4.69898 -2.80655,-7.29671 0.21558,-2.7298 3.8847,-4.38063 4.11603,-7.10913 0.1967,-2.32008 -0.40273,-5.40652 -2.43189,-6.54844 -1.43894,-0.80978 -3.33924,1.56863 -4.8643,0.93586 -2.57215,-1.06722 -1.98082,-6.2267 -4.67724,-6.92257 -0.21604,-0.0558 -0.41757,-0.0839 -0.60565,-0.0868 z m -58.237268,8.55658 c -1.984296,-0.0517 -4.357697,1.04785 -5.883361,2.19729 -5.058234,3.81085 -5.933965,11.24093 -8.044987,17.21187 -0.857079,2.42419 -2.41028,5.09353 -3.643189,7.73286 5.661744,-2.81066 8.77278,-4.3736 12.772864,-6.39238 -0.575945,-0.45722 -1.026132,-1.0198 -1.271757,-1.71462 -1.430424,-4.04633 5.928626,-6.47686 7.483781,-10.47688 0.93334,-2.40076 2.789578,-5.88245 0.935343,-7.67033 -0.625036,-0.60268 -1.446741,-0.86428 -2.348694,-0.88781 z m -23.628015,5.96398 c -1.792803,2.198 -2.310796,2.82335 -5.645133,6.91483 0.383824,1.92036 0.29822,3.92652 -0.196887,6.273 -0.245992,1.16584 -3.038168,3.65216 -3.978569,5.32577 0.05484,0.5655 0.127639,1.12793 0.233061,1.67948 2.469353,1.89996 6.963179,-1.66245 9.81077,-3.46542 7.390689,-4.22315 1.764037,-4.11301 -0.207222,-10.94713 -0.319482,-1.3127 -0.117302,-3.56343 -0.01602,-5.78053 z" /><path
         id="path42"
         style="fill:#4b5b41;fill-opacity:1;stroke:none;stroke-width:0.765;stroke-linecap:square;paint-order:markers fill stroke"
         d="m 75.986398,243.86757 c -2.320198,-0.0557 -3.478695,3.66759 -3.554305,5.98723 -0.129939,3.98617 4.732512,6.73632 5.425508,10.66395 0.447568,2.53662 -2.293333,5.48124 -0.93586,7.67033 0.498447,0.8038 1.883538,0.45582 2.749703,0.82941 l 1.730644,-15.37426 c -0.181215,-0.20299 -0.377573,-0.4159 -0.551388,-0.60927 -2.312594,-2.57267 -1.405993,-9.08439 -4.864302,-9.16739 z m 67.675452,6.71845 c -0.55205,1.192 -0.84814,2.63671 -0.8847,3.75843 -0.12994,3.98617 4.73251,6.73683 5.42551,10.66446 0.44757,2.53664 -2.29282,5.48126 -0.93534,7.67033 0.59249,0.95547 2.44671,0.27081 3.18068,1.12242 1.28555,1.49156 -0.18786,4.33026 1.12241,5.80016 2.48048,2.78264 7.27797,4.92637 10.66395,3.36723 1.89697,-0.87348 3.30641,-3.33251 3.42718,-5.57847 -1.9789,-2.42823 -1.60907,-1.96816 -3.06182,-3.75067 -2.9016,-0.66906 -6.86893,-0.40375 -6.72621,-2.83135 0.0794,-1.35018 1.30761,-1.73481 2.89181,-1.86501 -5.27775,-6.46979 -12.00133,-14.65142 -15.10347,-18.35753 z m -79.592554,14.77584 c -1.834855,0.007 -3.420204,2.14455 -5.196065,2.94711 -1.91563,0.86572 -4.679261,0.87468 -6.6983,1.58491 -0.831189,1.01923 -1.373886,1.68046 -2.477885,3.03496 0.167037,1.38817 1.580448,2.77253 2.716631,3.66386 1.649376,1.29394 4.941022,-0.025 6.03684,1.76217 1.02699,1.67486 -2.391851,4.31738 -1.093473,5.79189 1.31657,1.49516 4.468918,0.95725 5.966044,-0.35708 2.484309,-2.18097 0.998939,-6.55075 1.869137,-9.73998 0.488221,-1.7893 2.129113,-3.40264 1.872237,-5.23947 -0.191777,-1.37134 -1.073674,-3.04442 -2.417424,-3.37861 -0.195638,-0.0487 -0.387929,-0.0705 -0.577742,-0.0698 z" /><path
         id="path44"
         style="fill:#1e2e23;fill-opacity:1;stroke:none;stroke-width:0.765;stroke-linecap:square;paint-order:markers fill stroke"
         d="m 79.569125,240.89824 c -1.729113,0.005 -3.676958,0.27421 -4.553211,1.33118 -13.557588,16.3537 -14.144587,17.01887 -19.571931,23.66006 3.953031,-1.16384 5.805099,-10.23849 9.368937,-8.14989 3.142809,1.84186 -4.33351,7.82327 -2.124418,10.71976 1.102599,1.44567 4.01288,1.5193 5.439978,0.39274 3.818329,-3.01425 -1.57401,-11.53837 2.357995,-14.40274 2.349706,-1.71171 5.757182,1.77852 8.62428,1.29811 0.632642,-0.10601 1.387687,-0.25175 2.09703,-0.37672 l 1.600419,-14.21825 c 0,0 -1.509966,-0.25929 -3.239079,-0.25425 z m 52.577665,0 c -0.0689,-2e-4 -0.12878,0.006 -0.19688,0.006 -0.8742,2.85961 -1.38588,6.28684 0.16329,8.76329 1.36087,2.1754 5.90745,1.01039 6.92206,3.36723 1.39601,3.24281 -4.76922,6.95005 -3.18017,10.10275 0.86104,1.7083 3.64363,2.56725 5.42551,1.8712 3.43066,-1.3401 4.45134,-6.13061 5.23844,-9.7286 0.0788,-0.36028 0.10519,-0.72376 0.14883,-1.08624 -1.57209,-1.87541 -2.34865,-2.77467 -9.96735,-11.96465 -0.87625,-1.05697 -2.82461,-1.32613 -4.55373,-1.33118 z m 31.39757,33.8987 c -1.34108,0.27861 -2.59683,0.73422 -3.59978,1.40509 -2.80966,1.87935 0.59852,8.84078 -2.64583,9.78958 -3.146,0.92002 -4.02427,-7.02632 -7.27604,-6.61458 -2.81782,0.35679 -5.40833,3.65153 -5.86528,6.7076 4.03654,2.0302 6.30752,3.16078 10.5022,5.23585 2.88025,-0.009 5.78872,-0.41418 8.59224,-0.96325 1.83502,-0.35938 3.84249,-0.68384 5.52783,-1.49706 0.55365,-3.62742 0.0558,-7.57827 -1.6862,-9.71569 -2.61885,-3.21329 -1.68941,-2.06555 -3.54914,-4.34754 z" /><path
         id="path118"
         style="display:none;fill:url(#radialGradient119);stroke:none;stroke-width:1.168;stroke-linecap:round;stroke-linejoin:round;paint-order:markers fill stroke"
         d="m 79.569303,240.89847 c -1.729115,0.005 -3.676957,0.27422 -4.55321,1.33119 -19.584157,23.62318 -4.446299,5.07817 -30.393494,36.91506 -3.276585,4.02032 -2.189737,14.46713 2.122351,17.08009 0.399709,0.24221 31.617709,-15.57579 31.617709,-15.57579 l 4.445723,-39.4963 c 0,0 -1.509964,-0.25929 -3.239079,-0.25425 z m 52.577667,0 c -1.72911,-0.005 -3.23908,0.25425 -3.23908,0.25425 l 4.44573,39.4963 c 0,0 31.218,15.818 31.61771,15.57579 4.31208,-2.61296 5.39893,-13.05977 2.12235,-17.08009 -25.9472,-31.83689 -10.80882,-13.29188 -30.39298,-36.91506 -0.87625,-1.05697 -2.82461,-1.32614 -4.55373,-1.33119 z" /><path
         id="path131"
         style="fill:#595959;fill-opacity:1;stroke:none;stroke-width:1.168;stroke-linecap:round;stroke-linejoin:round;paint-order:markers fill stroke"
         d="m 78.842216,276.38778 -33.945215,17.96583 c 0.528858,0.78761 1.140381,1.44244 1.847949,1.8712 0.399709,0.24221 31.617709,-15.57579 31.617709,-15.57579 z m 54.049414,0.003 0.47956,4.26124 c 0,0 31.218,15.818 31.61771,15.57579 0.70756,-0.42876 1.31909,-1.08359 1.84794,-1.8712 z" /><path
         id="path2"
         style="fill:#a69f57;fill-opacity:1;stroke:none;stroke-width:1.168;stroke-linecap:round;stroke-linejoin:round;paint-order:markers fill stroke"
         d="m 79.352262,157.35629 -2.458248,1.35444 c 0,0 -62.372499,51.6227 -63.685518,53.83134 -3.2469328,5.46168 -2.946127,8.55739 -3.089734,12.72997 -0.1381273,4.01337 1.576131,11.94397 1.576131,11.94397 l 64.94384,-10.03608 z m 53.011748,0 2.71353,69.82364 64.94384,10.03608 c 0,0 1.71426,-7.9306 1.57613,-11.94397 -0.14361,-4.17258 0.1572,-7.26829 -3.08973,-12.72997 -1.31302,-2.20864 -63.68552,-53.83134 -63.68552,-53.83134 z" /><path
         id="path39"
         style="fill:#4b5b41;fill-opacity:1;stroke:none;stroke-width:0.765;stroke-linecap:square;paint-order:markers fill stroke"
         d="m 65.173104,180.58202 c -3.610671,0.0211 -8.012015,1.84878 -9.242846,5.11959 -0.954615,2.53676 0.539055,6.41683 2.997233,7.55871 3.212395,1.49224 7.737575,-6.04006 10.074837,-3.37861 2.35558,2.68235 -5.686795,6.20131 -4.688603,9.62887 0.04346,0.14924 0.103052,0.29984 0.161748,0.4501 -1.205557,-1.99183 -3.289946,-3.60457 -5.326807,-3.61373 -3.79641,-0.0171 -4.022738,7.36826 -7.67085,8.41913 -3.358528,0.96745 -8.937831,0.4892 -10.102742,-2.80603 -1.430423,-4.04633 5.928626,-6.47735 7.483781,-10.4774 0.93334,-2.40076 2.789578,-5.88245 0.935343,-7.67033 -0.55228,-0.53253 -1.264748,-0.77911 -2.043803,-0.85008 -4.270464,3.56751 -6.898287,5.79855 -11.041703,9.28315 -1.261585,3.26346 -2.056596,6.88014 -3.19102,10.08879 -1.991474,5.6328 -7.860866,12.59932 -4.303096,17.39894 2.119724,2.85964 7.462172,2.11663 10.663948,0.56121 3.019186,-1.46672 2.883586,-6.56921 5.799646,-8.23154 3.423944,-1.95185 8.188329,0.67313 11.786361,-0.93534 3.382583,-1.51218 7.898106,-3.96858 8.044987,-7.67085 0.03065,-0.77248 -0.144668,-1.58851 -0.468705,-2.38177 1.69386,2.73029 5.433216,5.10088 7.972123,3.78013 2.154828,-1.12094 -1.166454,-5.45233 0.4408,-7.27346 1.05258,-1.19265 2.682345,-1.54652 4.398181,-1.62729 l 0.299207,-7.70082 c -1.725242,-1.6841 -2.00835,-5.18901 -4.341854,-5.75107 -1.093002,-0.26328 -1.93084,1.5265 -3.051494,1.4366 -1.962805,-0.15755 -2.90947,-3.212 -4.874637,-3.33674 -0.232514,-0.0148 -0.469323,-0.0216 -0.710035,-0.0202 z m 121.080986,21.14342 c -0.5074,1.1614 -0.78562,2.52766 -0.82063,3.60184 -0.12993,3.98619 4.73251,6.73684 5.42551,10.66447 0.44756,2.53664 -2.29281,5.48124 -0.93534,7.67033 0.5925,0.95547 2.44619,0.2708 3.18017,1.12241 1.28555,1.49158 -0.18736,4.33027 1.12293,5.80017 1.52728,1.71333 3.93363,3.17654 6.34741,3.69021 0.49783,-2.64126 1.11586,-6.31083 1.0232,-9.00307 -0.0151,-0.43831 -0.0268,-0.8341 -0.0367,-1.25264 -1.73198,-0.30177 -3.11564,-0.78516 -3.03083,-2.22777 0.0771,-1.31127 1.2432,-1.70762 2.76107,-1.84898 -0.29919,-2.08712 -0.98832,-4.31668 -2.67735,-7.20576 -1.82759,-0.84578 -3.40716,-2.72266 -4.76095,-4.22868 -0.14381,-0.15999 -0.24306,-0.37377 -0.3638,-0.56173 -1.96975,-1.72015 -4.38208,-3.79238 -7.2347,-6.2208 z m -29.25765,1.84949 c -1.48014,0.0298 -2.94805,1.62686 -3.86436,2.86701 -1.24578,1.68605 0.16723,4.93846 -1.5875,6.08542 -1.64454,1.07492 -4.38443,-2.26645 -5.82084,-0.92604 -1.45652,1.35919 -0.82783,4.49456 0.52917,5.95312 0.51257,0.55093 1.13334,0.89127 1.82314,1.10019 -2.38793,-0.12358 -4.50336,0.37806 -5.67303,2.20142 -1.36582,2.12908 -0.97353,4.87679 0.25993,7.49567 l 47.35473,7.31841 c -0.51516,-0.48169 -0.90056,-1.03173 -1.02939,-1.71824 -0.23713,-1.26359 1.72866,-2.28978 1.49655,-3.5543 -0.66894,-3.64433 -4.11584,-7.00081 -7.67085,-8.04499 -4.06351,-1.19353 -10.05397,6.55344 -12.34757,2.9931 -1.97278,-3.06233 7.3985,-5.02385 6.73499,-8.60568 -0.33116,-1.78776 -2.89526,-3.16748 -4.67724,-2.80654 -4.76786,0.96571 -3.80454,11.00617 -8.60619,11.78687 -2.8694,0.46653 -4.33395,-4.18617 -7.10913,-5.05189 -1.83112,-0.5712 -4.08331,-1.29528 -6.29418,-1.70842 1.8418,0.0217 3.8377,-0.22722 5.52782,0.1819 1.80265,0.43636 3.46302,2.02959 5.29167,1.71979 1.36523,-0.23129 3.01204,-1.1607 3.30729,-2.51354 0.45853,-2.10091 -2.10092,-3.75535 -3.04271,-5.68854 -1.43539,-2.94642 -0.83864,-8.02413 -3.96875,-8.99583 -0.21037,-0.0653 -0.4221,-0.0931 -0.63355,-0.0889 z M 12.515853,213.81307 c -2.324261,4.39885 -2.286143,7.2917 -2.378149,10.79831 0.854537,1.17297 1.625591,2.37398 1.864486,3.72793 0.271543,1.53901 -0.624524,3.22677 -1.072803,4.80643 0.298344,1.73082 0.505719,2.74785 0.609782,3.24373 0.671125,0.30102 1.702828,0.14006 2.370915,0.48421 l 6.848677,-1.05885 c -0.696646,-0.34529 -1.13418,-0.85163 -1.085722,-1.67587 0.209524,-3.56369 8.403858,-0.41451 10.102743,-3.5543 1.619527,-2.99315 0.819115,-8.91153 -2.43241,-9.9162 -2.320693,-0.71703 -3.002234,4.69894 -5.425508,4.86482 -2.77826,0.19018 -5.060405,-2.6062 -6.922059,-4.67723 -1.47905,-1.6454 -1.650406,-4.88742 -2.479952,-7.04298 z" /><path
         id="path40"
         style="fill:#8c9458;fill-opacity:1;stroke:none;stroke-width:0.765;stroke-linecap:square;paint-order:markers fill stroke"
         d="m 137.46998,160.91397 c -2.30279,2.20049 -3.60159,5.26045 -4.63796,8.48992 l 1.04283,26.82886 c 1.05524,-0.2463 2.06275,-0.5939 2.91559,-1.00821 1.94898,-0.94681 2.58571,-3.40615 3.57497,-5.47977 -0.23688,2.48367 1.33114,5.55693 3.55017,6.45852 3.28156,1.33329 7.43292,-6.41141 9.89759,-3.86746 2.484,2.56386 -5.37632,6.47229 -4.21163,9.84694 1.11028,3.217 6.01119,6.62874 8.94984,4.91236 2.09745,-1.22502 -1.43149,-5.38882 0.0848,-7.28637 1.73836,-2.17556 5.34153,-1.96657 8.12612,-1.93787 1.67892,0.0173 3.52698,1.21763 5.26066,2.16679 -1.80113,1.56134 -3.28708,4.62953 -4.46122,6.61252 -4.66417,7.1206 0.29764,4.46551 5.15937,9.65729 1.98344,2.30528 3.71131,10.00295 6.74688,10.18646 2.28885,0.13837 4.92501,-0.84934 6.35,-2.64583 1.6669,-2.10151 3.1565,-5.97977 1.32291,-7.9375 -1.21178,-1.29384 -3.73556,1.37826 -5.29166,0.52916 -4.08563,-2.22936 -6.06241,-4.89944 -7.27604,-9.39271 -0.27898,-1.0328 0.78347,-3.94261 1.05988,-5.9154 0.42413,-0.0787 0.81819,-0.27847 1.17254,-0.64647 1.60978,-1.67185 -0.34968,-5.04269 -2.00763,-6.66678 -2.84909,-2.7909 -8.16304,-1.06771 -11.5254,-3.21272 -2.17154,-1.38534 -2.48809,-5.39566 -5.01881,-5.87561 -1.10457,-0.20949 -1.85388,1.6194 -2.9776,1.5844 -0.32658,-0.0102 -0.62767,-0.10697 -0.91415,-0.25218 0.005,-0.002 0.01,-0.003 0.0145,-0.005 2.52767,-1.12999 5.68521,-2.78817 7.1825,-5.0984 -4.25473,-3.54966 -5.12114,-4.26416 -8.67595,-7.21919 -1.29024,2.24544 -2.23971,5.30758 -4.49327,5.95674 -3.35854,0.96745 -8.93783,0.48871 -10.10274,-2.80655 -1.30994,-3.70547 4.73918,-6.05956 6.96391,-9.50123 -2.15098,-1.78412 -7.15449,-5.95583 -7.78092,-6.47454 z m -74.347396,12.72946 c -1.583873,0.007 -3.275741,0.28374 -4.806425,0.52658 -2.505008,2.08272 -3.141434,2.61039 -6.012037,5.0028 0.278122,1.36386 0.555317,3.0508 0.224793,5.24981 -0.57814,2.98563 -5.544745,9.11514 -3.805969,11.61014 1.311067,1.88127 3.720543,3.33629 6.013586,3.33985 2.682321,0.004 6.648634,-1.23248 7.047115,-3.88504 0.263352,-1.75301 -3.39786,-2.07574 -3.696932,-3.82302 -0.785232,-4.58755 0.08323,-7.79378 2.855123,-11.53263 0.946901,-1.27723 6.995143,-2.8011 6.532418,-4.32222 -0.517343,-1.70064 -2.278859,-2.17587 -4.351672,-2.16627 z M 29.152564,198.614 c -3.702939,3.13642 -7.166523,6.07405 -9.743591,8.30957 0.658027,2.10054 3.718371,3.73746 4.00544,6.07456 0.457444,3.72416 -5.158421,7.78671 -2.993099,10.85102 2.020511,2.85938 7.295818,2.21091 10.47688,0.74827 1.903821,-0.87537 3.957969,-2.96711 3.74189,-5.05137 -0.232309,-2.24084 -3.976718,-2.51015 -5.051371,-4.49016 -0.992899,-1.82938 -1.38769,-4.14196 -0.93586,-6.17379 0.536902,-2.41437 4.410941,-3.71805 4.116028,-6.17378 -0.210537,-1.75313 -1.850545,-3.51797 -3.616317,-4.09432 z m 29.417326,3.04632 c -0.920948,-8.8e-4 -1.836666,0.14798 -2.744535,0.48834 -4.456683,1.67093 -8.926239,7.96208 -7.131348,12.37031 1.357101,3.33303 6.916601,3.86182 10.391614,2.92644 2.171232,-0.58446 2.489989,-4.41516 4.697904,-4.84054 4.697208,-0.90495 9.041064,2.73935 13.205912,5.5423 l 0.304891,-7.84551 c -1.255317,-0.76581 -2.521979,-1.50938 -3.860229,-2.11305 -4.772617,-2.15293 -9.891091,-6.52354 -14.864209,-6.52829 z" /><path
         id="path38"
         style="fill:#1e2e23;fill-opacity:1;stroke:none;stroke-width:0.765;stroke-linecap:square;paint-order:markers fill stroke"
         d="m 73.612899,163.94014 c -1.626223,0.14391 -3.370895,1.7706 -3.656107,3.33572 -0.87212,4.78584 8.808991,7.61659 7.752498,12.36513 -0.631336,2.83769 -5.495203,2.47196 -7.328751,4.72788 -3.028927,3.72666 -7.962294,9.53908 -5.170744,13.44673 2.403118,3.36386 8.044441,3.0601 12.518615,1.31671 l 1.005107,-25.8656 c -2.195627,-1.25982 -1.283771,-8.66415 -4.435388,-9.29298 -0.222878,-0.0445 -0.452911,-0.0541 -0.68523,-0.0336 z m 78.742481,17.23409 c -2.93778,-0.002 -6.08473,0.68198 -7.03265,3.0546 -1.79792,4.50018 2.72082,11.01177 7.31067,12.56667 3.20156,1.08457 6.64867,-5.85728 9.37669,-3.86126 2.6453,1.9355 -3.12348,7.47 -0.81701,9.79889 1.87868,1.89691 5.71678,2.07674 8.41551,0.84749 -0.0868,0.98241 0.0261,1.94297 0.48369,2.86959 1.70498,3.45231 7.2658,6.989 10.47688,4.8643 4.11735,-2.7243 0.5425,-9.28865 -0.36328,-14.68747 -2.23246,-1.88601 -4.42299,-3.73493 -6.83111,-5.75779 -0.11608,0.71636 -0.2178,1.42223 -0.28939,2.11047 -0.17257,1.65892 -0.88683,3.3386 -1.62316,5.00899 -0.22955,-0.50849 -0.47457,-1.00161 -0.68006,-1.44797 -1.97388,-4.28774 -5.39327,-7.86516 -8.9333,-10.98744 -1.97795,-1.74455 -4.10212,-3.82552 -6.71484,-4.18528 -0.84369,-0.11618 -1.79938,-0.19306 -2.77864,-0.19379 z m -16.45119,10.68979 c -1.01515,-0.0158 -1.63985,0.71407 -2.13114,1.757 -7e-5,1.4e-4 7e-5,3.7e-4 0,5.2e-4 l 1.15859,29.80593 c 0.0885,0.0481 0.17059,0.10278 0.26871,0.14108 3.99177,1.55761 10.24345,-0.7571 11.97343,-4.67724 1.05211,-2.38401 -3.01169,-4.6985 -2.80654,-7.29619 0.21558,-2.7298 3.88469,-4.38115 4.11602,-7.10965 0.1967,-2.32002 -0.40274,-5.406 -2.43189,-6.54792 -1.43894,-0.80978 -3.33922,1.56812 -4.8643,0.93535 -2.57215,-1.06722 -1.98087,-6.22619 -4.67723,-6.92206 -0.21605,-0.0558 -0.41757,-0.0839 -0.60565,-0.0868 z M 67.568307,212.9294 c -1.480134,0.0298 -2.948046,1.62686 -3.864364,2.86701 -1.245763,1.68605 0.167254,4.93846 -1.5875,6.08542 -1.644527,1.07492 -4.384434,-2.26645 -5.820833,-0.92604 -0.197284,0.1841 -0.353346,0.40267 -0.47749,0.64337 -0.337651,-0.51076 -0.663202,-1.00251 -0.942578,-1.44694 -4.199217,-7.40435 -4.107195,-1.77757 -10.947652,0.17156 -2.957153,0.70958 -10.59301,-1.27458 -12.144479,1.34101 -1.169827,1.97215 -1.497308,4.76809 -0.551387,6.85694 0.935078,2.06488 3.057639,4.5722 5.249292,4.86379 1.63e-4,2e-5 3.54e-4,-2e-5 5.16e-4,0 l 1.564246,-0.24185 c 1.154658,-0.86397 0.244204,-3.84995 1.589567,-4.76301 3.851044,-2.61377 7.129574,-3.15065 11.680424,-2.17507 1.197643,0.25676 3.770933,3.18489 5.439978,4.04679 l 1.102258,-0.17054 0.404627,-0.0625 c 0.452909,-0.55821 0.632319,-1.21901 0.594279,-1.94976 2.316331,0.60236 5.348986,-0.15608 7.757149,0.42685 0.149164,0.0361 0.292891,0.11412 0.440283,0.16433 l 8.174695,-1.26349 c 0.161643,-1.95606 -2.163739,-3.54599 -3.058728,-5.38313 -1.435384,-2.94642 -0.838661,-8.02419 -3.96875,-8.99583 -0.210375,-0.0653 -0.422104,-0.0932 -0.633553,-0.0889 z m 93.356573,3.99769 c -2.3202,-0.0557 -3.47922,3.66708 -3.55482,5.98672 -0.10365,3.17981 2.94299,5.58105 4.54236,8.41292 l 19.20399,2.96778 c 0.75937,-3.14014 -0.21557,-7.53303 -2.97966,-8.38709 -2.3207,-0.71706 -3.00223,4.69842 -5.42551,4.8643 -2.77825,0.19018 -5.06041,-2.6062 -6.92205,-4.67723 -2.3126,-2.57269 -1.40599,-9.0844 -4.86431,-9.1674 z" /><path
         id="path114"
         style="display:none;fill:url(#radialGradient116);fill-opacity:1;stroke:none;stroke-width:1.168;stroke-linecap:round;stroke-linejoin:round;paint-order:markers fill stroke"
         d="m 79.352262,157.35629 -2.458248,1.35444 c 0,0 -62.372499,51.6227 -63.685518,53.83134 -3.2469328,5.46168 -2.946127,8.55739 -3.089734,12.72997 -0.1381273,4.01337 1.576131,11.94397 1.576131,11.94397 l 64.94384,-10.03608 z m 53.011748,0 2.71353,69.82364 64.94384,10.03608 c 0,0 1.71426,-7.9306 1.57613,-11.94397 -0.14361,-4.17258 0.1572,-7.26829 -3.08973,-12.72997 -1.31302,-2.20864 -63.68552,-53.83134 -63.68552,-53.83134 z" /><path
         id="path139"
         style="fill:#595959;fill-opacity:1;stroke:none;stroke-width:1.168;stroke-linecap:round;stroke-linejoin:round;paint-order:markers fill stroke"
         d="m 79.352262,157.36094 -2.458248,1.35444 c 0,0 -62.372502,51.6227 -63.685518,53.83134 -3.2469229,5.46167 -2.946127,8.55741 -3.089734,12.72997 -0.1381264,4.01336 1.576131,11.94397 1.576131,11.94397 l 0.830957,-0.12816 c -2.1e-4,-0.001 -8.22e-4,-0.004 -10e-4,-0.005 l 64.113916,-9.90792 0.258899,-6.66212 c -6.388665,1.05657 -54.837102,9.06377 -65.364486,10.72647 -0.229261,-1.71977 -0.409068,-3.48891 -0.360185,-4.90926 0.143607,-4.17257 -0.157186,-7.26832 3.089734,-12.72997 1.313016,-2.20864 63.685519,-53.83134 63.685519,-53.83134 l 1.338936,-0.73794 z m 53.013818,0 0.0651,1.67483 1.33894,0.73794 c 0,0 62.3725,51.6227 63.68552,53.83134 3.24691,5.46165 2.94613,8.5574 3.08973,12.72997 0.049,1.42221 -0.13147,3.1941 -0.36122,4.91598 -10.55265,-1.67171 -58.95344,-9.69285 -65.33916,-10.7518 l 0.2558,6.66213 64.9397,10.0645 c 0,0 0.36146,-1.7655 0.74156,-4.02456 0.0948,-0.55415 0.18046,-1.0822 0.2713,-1.68259 0.006,-0.0428 0.0137,-0.0805 0.0202,-0.1235 -1.7e-4,-3e-5 -8.5e-4,3e-5 -0.001,0 0.32275,-2.1557 0.58404,-4.46417 0.5271,-6.11849 -0.14361,-4.17256 0.15718,-7.2683 -3.08973,-12.72997 -1.31302,-2.20864 -63.68552,-53.83134 -63.68552,-53.83134 z" /><path
         id="rect139"
         style="fill:#595959;fill-opacity:1;stroke:none;stroke-width:1.168;stroke-linecap:round;stroke-linejoin:round;paint-order:markers fill stroke"
         d="m 21.101182,189.96138 -1.587582,-2.6e-4 1.56e-4,42.46564 1.587582,2.6e-4 z m 117.271248,16.00713 -11.38044,40.91223 1.52907,0.42516 11.38095,-40.91216 z"
         transform="rotate(-7.7726495)" /><path
         id="path14"
         style="fill:#737b47;fill-opacity:1;stroke:none;stroke-width:1.168;stroke-linecap:round;stroke-linejoin:round;paint-order:markers fill stroke"
         d="m 97.461751,85.879513 c -1.054697,3.395611 -9.177387,24.587797 -12.89792,37.160517 -1.18457,4.003 -2.10988,6.3232 -2.993099,12.16102 -1.376696,9.09957 -1.559037,9.75849 -2.572453,27.47843 -1.252698,21.90388 -2.533696,65.78823 -2.533696,65.78823 l 1.901693,2.92695 0.744141,17.29714 -1.655713,22.51438 4.169254,-0.0248 2.315104,-4.44831 1.478463,-6.66212 12.830225,0.0326 1.330151,6.49211 3.800289,0.0233 0.7369,-1.20406 1.74305,0.0512 1.74356,-0.0512 0.73639,1.20406 3.80028,-0.0233 1.33016,-6.49211 12.83022,-0.0326 1.47846,6.66212 2.31511,4.44831 4.16925,0.0248 -1.65571,-22.51438 0.74414,-17.29714 1.90169,-2.92695 c 0,0 -1.28099,-43.88435 -2.53369,-65.78823 -1.01342,-17.71994 -1.19577,-18.37886 -2.57246,-27.47843 -0.88321,-5.83782 -1.80853,-8.15802 -2.99309,-12.16102 -3.72054,-12.57272 -11.84271,-33.764906 -12.89741,-37.160517 -0.0705,-0.226948 -7.44292,-0.276863 -8.39694,-0.276863 -0.95403,0 -8.325857,0.04992 -8.396349,0.276863 z" /><path
         id="path61"
         style="display:none;fill:#6a7246;fill-opacity:1;stroke:none;stroke-width:0.765;stroke-linecap:square;paint-order:markers fill stroke"
         d="m 99.456283,88.257942 c -0.975346,-0.02543 -2.043798,0.231395 -3.060278,0.631486 -2.399406,6.719901 -8.623581,23.307032 -11.832353,34.150372 -0.393118,1.32846 -0.724203,2.43124 -1.068152,3.57911 2.536866,0.84341 6.039915,0.15236 8.393803,-0.99116 3.019186,-1.46669 2.883586,-6.56972 5.799646,-8.23205 3.423951,-1.95185 8.188321,0.67313 11.786361,-0.93534 3.3826,-1.51218 7.89811,-3.96858 8.04499,-7.67085 0.12605,-3.1774 -3.18099,-7.09483 -6.36086,-7.10913 -3.79639,-0.0171 -4.02275,7.36825 -7.67084,8.41912 -3.35854,0.96745 -8.937839,0.48869 -10.102747,-2.80654 -1.430423,-4.04633 5.928098,-6.47684 7.483267,-10.476884 0.93344,-2.400751 2.7901,-5.882945 0.93586,-7.670849 -0.62504,-0.602681 -1.44674,-0.863764 -2.348697,-0.887285 z M 127.22771,130.7091 c -2.29975,0.0212 -4.62345,0.78033 -5.96552,2.21485 -1.92149,2.05386 1.35577,5.72116 0.5612,8.41912 -0.85625,2.90739 -4.47298,4.41942 -5.42551,7.29672 -0.97992,2.96012 -1.65366,6.71099 0,9.35446 1.36087,2.1754 5.90744,1.01037 6.92206,3.36724 1.396,3.24281 -4.76976,6.95007 -3.18068,10.10274 0.86104,1.7083 3.64415,2.56726 5.42602,1.87121 3.43066,-1.3401 4.45134,-6.13059 5.23844,-9.72861 1.05497,-4.82245 -1.26683,-9.85458 -0.93586,-14.77997 0.10741,-1.59839 0.74415,-3.27495 1.48002,-4.95733 -0.30055,-2.6149 -0.64419,-4.97831 -1.20251,-8.66872 -0.25498,-1.68531 -0.5162,-3.03506 -0.78342,-4.25917 -0.69225,-0.14372 -1.40507,-0.23925 -2.13424,-0.23254 z m -25.43255,35.33479 c -2.821161,-0.0439 -2.671374,5.5651 -4.819862,8.13129 -2.342903,2.79841 -10.203177,5.89185 -10.196277,9.54154 0.0048,2.54466 1.555243,7.29381 3.46077,8.98033 1.328258,1.17558 5.506859,-4.06229 6.922575,-2.99362 2.381882,1.79798 1.148817,6.96012 3.928964,8.04499 3.99175,1.55767 10.2434,-0.7571 11.97342,-4.67724 1.05211,-2.38399 -3.0117,-4.69846 -2.80654,-7.29619 0.21558,-2.7298 3.8847,-4.38115 4.11603,-7.10965 0.1967,-2.32006 -0.40275,-5.406 -2.4319,-6.54792 -1.43894,-0.80978 -3.33922,1.56812 -4.8643,0.93535 -2.57215,-1.06722 -1.98082,-6.22619 -4.67723,-6.92206 -0.21605,-0.0558 -0.41757,-0.0839 -0.60565,-0.0868 z m 32.0368,21.20129 c -2.1176,0.0349 -4.40953,0.7171 -6.08335,1.62523 -2.95034,1.60068 -2.58591,6.69224 -5.42447,8.48372 -3.33294,2.10348 -8.21036,-0.30483 -11.73262,1.46347 -3.31134,1.66242 -7.71195,4.31866 -7.69255,8.0238 0.0166,3.17986 3.49619,6.94502 6.67349,6.81664 3.79337,-0.15322 3.68806,-7.54104 7.28534,-8.7545 3.31176,-1.11716 8.90692,-0.88944 10.2185,2.35024 1.61052,3.97808 -5.63216,6.73615 -7.00629,10.80192 -0.8248,2.44022 -2.52272,6.00204 -0.59014,7.70496 2.08463,1.83691 6.02297,0.0924 8.16487,-1.67742 4.57016,-3.77614 5.34768,-10.54369 6.93705,-16.36541 -0.22933,-6.84943 -0.43914,-12.55449 -0.74983,-20.47265 z m -50.435162,44.78125 c -1.533339,0.009 -3.004969,0.40325 -4.036963,1.23506 -0.648308,0.52256 -0.831899,1.33754 -0.817521,2.23449 l 0.01705,0.39636 c 0.07435,0.96967 0.332781,2.0016 0.505396,2.86391 0.926503,4.62843 3.423698,8.90073 6.143811,12.75839 1.519816,2.15543 3.10373,4.67213 5.561934,5.62757 3.175224,1.23414 8.244528,2.27495 10.207132,-0.50953 2.79187,-3.96105 -0.0946,-11.3423 -4.19923,-13.91853 -2.863054,-1.79698 -7.825241,4.15724 -10.016442,1.58336 -2.124745,-2.49581 4.76998,-6.54309 3.065962,-9.3431 -1.148479,-1.88715 -3.875566,-2.94294 -6.431132,-2.92798 z" /><path
         id="path63"
         style="display:none;fill:#1f2f27;fill-opacity:1;stroke:none;stroke-width:0.765;stroke-linecap:square;paint-order:markers fill stroke"
         d="m 107.6656,94.996032 c -0.86286,-0.0051 -2.04836,0.685197 -4.04781,2.439645 -2.77578,2.221434 -8.010787,5.537833 -6.262671,8.633583 0.78178,1.38447 6.058391,-1.9425 7.636231,-1.74667 4.61883,0.57328 7.53885,2.15696 10.31771,5.8906 1.0584,1.42205 -1.23408,4.29498 0.21653,5.31389 2.19495,1.54175 5.82677,-0.47557 7.67446,-2.42001 0.192,-0.20205 0.3686,-0.42137 0.53175,-0.65267 -1.02666,-3.00565 -2.10723,-6.02892 -3.16621,-8.99067 -2.46837,-0.80462 -5.30584,-1.39915 -6.66419,-2.27014 -4.00177,-2.810377 -4.33751,-6.186401 -6.2358,-6.197558 z m -8.666653,23.266278 c -1.480143,0.0298 -2.948047,1.62686 -3.864364,2.86701 -1.245773,1.68605 0.167256,4.93846 -1.5875,6.08542 -1.644535,1.07492 -4.384432,-2.26645 -5.820833,-0.92604 -1.456525,1.35917 -0.827836,4.49456 0.529166,5.95312 2.251786,2.42031 6.576564,0.80974 9.789584,1.5875 1.802641,0.43636 3.46302,2.02959 5.29167,1.71979 1.36523,-0.23129 3.01204,-1.1607 3.30729,-2.51354 0.45854,-2.10094 -2.10093,-3.75535 -3.04271,-5.68854 -1.4354,-2.94642 -0.83865,-8.02415 -3.96875,-8.99583 -0.210375,-0.0653 -0.422104,-0.0932 -0.633553,-0.0889 z m -3.092318,18.96267 c -3.147998,0.0776 -6.440717,1.36083 -7.130314,3.91656 -1.479206,5.48203 8.040629,8.04092 11.681975,12.39769 2.3282,2.78564 4.05445,6.05236 6.47557,8.7576 4.13834,4.62388 7.45864,12.29256 13.65343,12.65401 4.75155,0.27725 11.3863,-3.66478 11.53057,-8.42222 0.10908,-3.59706 -4.7602,-6.33219 -8.31629,-6.88434 -2.2219,-0.34499 -4.06444,3.02865 -6.25543,2.52336 -5.34792,-1.23333 -7.84519,-7.75477 -11.02982,-12.22457 -2.66901,-3.7461 -2.40933,-10.33696 -6.664712,-12.08299 -1.11318,-0.45674 -2.51407,-0.67036 -3.944979,-0.6351 z m -13.893726,55.75939 c -1.484271,0.0293 -3.225617,1.15176 -4.430737,2.29185 -0.381923,10.38288 -0.541961,15.1649 -0.735356,21.35683 2.47951,-1.74514 6.553761,5.23913 9.735324,3.9641 3.158971,-1.26597 6.327256,-6.32788 4.469494,-9.17928 -1.325926,-2.03512 -5.312401,1.69312 -7.281726,0.2713 -2.257812,-1.63009 -2.224866,-5.23955 -2.332157,-8.02225 -0.133279,-3.45675 4.727358,-7.88362 2.121317,-10.15855 -0.437103,-0.38157 -0.969519,-0.53538 -1.546159,-0.524 z m 32.383037,18.03921 c -2.16552,0.0198 -4.45137,1.25361 -5.79965,2.92798 -1.9073,2.36865 2.62301,8.8278 2.9931,11.84631 0.56778,7.09006 -4.73556,8.97289 3.67006,10.31565 3.48173,0.71924 9.37614,2.6327 10.6438,-0.68885 0.56691,-1.48544 -5.36202,-3.42434 -6.21823,-4.76405 -2.50642,-3.92176 -3.15092,-7.18097 -2.05,-11.70316 0.4193,-1.72239 4.09462,-1.7909 3.95325,-3.55792 -0.21391,-2.67379 -4.08517,-4.18202 -6.76135,-4.36356 -0.14299,-0.01 -0.28661,-0.0137 -0.43098,-0.0124 z m -37.646281,8.61807 c -0.07442,2.42953 -0.285254,8.82582 -0.285254,8.82582 l 0.91519,1.4087 c 1.594891,-0.66595 3.002578,-1.86679 3.507796,-3.30832 0.799448,-2.28107 -2.639525,-4.75985 -4.137732,-6.9262 z" /><path
         id="path64"
         style="display:none;fill:#3b4838;fill-opacity:1;stroke:none;stroke-width:0.765;stroke-linecap:square;paint-order:markers fill stroke"
         d="m 123.9628,113.14738 c -0.60983,1.61713 -1.22824,3.29609 -2.31924,4.22868 -2.1168,1.80944 -4.74556,4.28283 -7.475,3.73052 -2.38068,-0.48175 -2.34722,-5.93951 -4.74183,-5.53248 -3.35506,0.57028 -4.92353,6.33214 -3.70985,9.51157 1.27315,3.33524 9.80922,1.28681 9.55032,4.84725 -0.25688,3.53272 -8.41135,0.25859 -10.07173,3.38739 -1.27057,2.39421 -0.11885,6.38944 2.17351,7.8357 3.1527,1.98903 8.18981,0.49138 11.01328,-1.94252 1.49147,-1.28568 0.40246,-4.29235 1.87224,-5.60276 0.83917,-0.74818 2.58755,0.17359 3.30005,-0.69608 1.63242,-1.9925 -0.69889,-5.27098 0.077,-7.72718 0.49688,-1.57302 1.67651,-2.85121 2.91455,-4.09226 -0.76317,-2.47298 -1.62845,-5.13777 -2.5833,-7.94783 z m -40.694676,14.23376 c -0.604053,2.08566 -1.169883,4.33181 -1.697571,7.81967 -1.376694,9.09956 -1.559038,9.75851 -2.572453,27.47843 -0.346812,6.06413 -0.687941,13.80301 -1.011307,21.83898 1.605498,-0.0713 3.238027,-0.59312 4.478279,-1.44746 2.288142,-1.57617 1.318547,-6.0683 3.724837,-7.45743 1.11342,-0.64276 2.733917,0.87141 3.849895,0.23306 3.216212,-1.83969 5.23912,-6.20417 5.04517,-9.9043 -0.22169,-4.22937 -9.517122,-7.31162 -6.918958,-10.6562 2.234736,-2.87673 7.193813,5.31339 10.352857,3.49953 1.576747,-0.90534 2.027567,-3.7814 1.096057,-5.34283 -2.492356,-4.17775 -11.644849,0.0609 -13.973824,-4.21007 -1.391768,-2.55227 2.511275,-5.47722 2.407605,-8.38244 -0.168994,-4.73605 -0.286741,-12.20992 -4.780587,-13.46894 z m 38.368196,35.85155 c -3.80746,-0.0973 -8.10286,3.55056 -8.79326,7.2962 -0.50618,2.74618 3.77559,4.5251 4.11603,7.29671 0.45744,3.72416 -5.15894,7.78671 -2.99361,10.85102 2.02049,2.85938 7.29583,2.21091 10.47687,0.74827 1.90382,-0.87537 3.95798,-2.96711 3.7419,-5.05137 -0.23231,-2.24084 -3.97673,-2.51015 -5.05138,-4.49016 -0.99288,-1.82938 -1.38717,-4.14196 -0.93534,-6.17379 0.53691,-2.41437 4.41094,-3.71805 4.11603,-6.17378 -0.2526,-2.10339 -2.55943,-4.24896 -4.67724,-4.3031 z m -28.583264,34.07958 c -2.299764,-0.0212 -4.575409,0.69619 -5.820833,2.21537 -3.427219,4.18052 2.818259,10.50875 3.180684,15.90238 0.330965,4.92542 -1.990307,9.95753 -0.935343,14.77998 0.7871,3.59802 1.80779,8.38851 5.23844,9.72861 1.781898,0.69605 4.564475,-0.16239 5.425506,-1.87069 1.58908,-3.1527 -4.576681,-6.85996 -3.180682,-10.10274 1.014612,-2.35687 5.561712,-1.19236 6.922572,-3.36776 1.6537,-2.64347 0.97995,-6.39433 0,-9.35446 -0.95253,-2.87729 -4.569259,-4.3888 -5.425506,-7.2962 -0.794571,-2.69799 2.482706,-6.36529 0.561207,-8.41912 -1.342065,-1.43452 -3.666278,-2.19421 -5.966045,-2.21537 z m 39.759334,33.77726 c -0.2413,-0.007 -0.47644,0.0112 -0.69919,0.0563 -4.76785,0.96574 -3.80453,11.00566 -8.60619,11.78636 -2.86939,0.46654 -4.33395,-4.18565 -7.10913,-5.05137 -4.58443,-1.43013 -11.81282,-3.85505 -14.40583,0.18707 -2.909554,4.5355 1.99591,11.89633 6.54792,14.77998 2.16056,1.36868 5.96002,-2.08827 7.67085,-0.18707 0.96757,1.07525 -0.71754,2.86504 -0.56173,4.30309 0.10239,0.94503 0.16941,2.03553 0.27854,3.13366 l 10.37094,-0.0269 0.11059,0.49764 c 0.81948,-0.75295 1.70302,-1.29238 2.71043,-1.3596 1.5802,-0.10545 2.99584,0.48649 4.35736,1.3317 l -0.87127,-11.84889 0.23254,-5.40587 c -1.14395,0.37055 -2.12077,0.30082 -2.78329,-0.72761 -1.00575,-1.56121 0.93621,-2.83763 2.99465,-4.18734 l 0.30024,-6.97631 0.1447,-0.22221 c -0.22976,-0.0463 -0.45856,-0.0765 -0.68213,-0.0827 z" /><path
         id="path7"
         style="fill:#808080;fill-opacity:1;stroke:none;stroke-width:1.168;stroke-linecap:round;stroke-linejoin:round;paint-order:markers fill stroke"
         d="m 85.371935,258.92019 -1.454745,6.2797 1.601263,5.14216 0.827841,0.006 c 0,0 -0.34867,1.45238 -0.390526,1.61818 -0.0032,0.0127 5.464002,0.0188 5.756203,0.0183 0,0 0.14619,3.1e-4 0.154,3.3e-4 0.292159,10e-4 5.75984,0.0183 5.756745,0.006 -0.04115,-0.16599 -0.383571,-1.61985 -0.383571,-1.61985 l 0.827858,-0.003 1.623347,-5.13523 -1.427768,-6.2859 -6.390281,-0.0137 -0.110069,-2.4e-4 z" /><path
         id="path88"
         style="fill:#808080;fill-opacity:1;stroke:none;stroke-width:1.168;stroke-linecap:round;stroke-linejoin:round;paint-order:markers fill stroke"
         d="m 126.34443,258.92019 1.45475,6.2797 -1.60127,5.14216 -0.82784,0.006 c 0,0 0.34867,1.45238 0.39053,1.61818 0.003,0.0127 -5.464,0.0188 -5.75621,0.0183 0,0 -0.14619,3.1e-4 -0.154,3.3e-4 -0.29215,10e-4 -5.75984,0.0183 -5.75674,0.006 0.0412,-0.16599 0.38357,-1.61985 0.38357,-1.61985 l -0.82786,-0.003 -1.62334,-5.13523 1.42776,-6.2859 6.39028,-0.0137 0.11007,-2.4e-4 z" /><path
         id="path8"
         style="fill:#a69f57;fill-opacity:1;stroke:none;stroke-width:1.168;stroke-linecap:round;stroke-linejoin:round;paint-order:markers fill stroke"
         d="m 89.19898,204.41776 c -4.929841,4.61561 -5.374937,17.02661 -5.527832,21.78782 -0.168736,5.25453 0.314331,15.86153 0.996839,17.6537 0.305734,0.80282 0.516953,1.94399 0.658357,2.95331 0.158287,1.12983 0.05271,12.30261 0.05271,12.30261 l 6.439146,0.007 6.43862,-0.007 c 0,0 -0.10508,-11.17278 0.0532,-12.30261 0.14141,-1.00932 0.3521,-2.15049 0.657836,-2.95331 0.682507,-1.79217 1.166084,-12.39917 0.997357,-17.6537 -0.1529,-4.76121 -0.597997,-17.17221 -5.527823,-21.78782 -0.9209,-0.86219 -2.24319,-1.16922 -2.61901,-1.16927 -0.37581,-6e-5 -1.69832,0.30687 -2.61943,1.16927 z" /><path
         id="path52"
         style="display:inline;fill:#8c9458;fill-opacity:1;stroke:none;stroke-width:0.765;stroke-linecap:square;paint-order:markers fill stroke"
         d="m 97.6073,209.80298 c -2.908139,2.61067 -9.49308,5.48646 -9.486759,8.82995 0.0048,2.54468 1.55576,7.29331 3.461287,8.97981 1.328259,1.1756 5.506342,-4.06175 6.922058,-2.9931 0.815977,0.61595 1.204809,1.62892 1.47898,2.73524 -0.0056,-0.38605 -0.0065,-0.80517 -0.01757,-1.14929 -0.110064,-3.42732 -0.38128,-10.80856 -2.357996,-16.40261 z m -2.724381,33.80879 c -1.480143,0.0298 -2.948047,1.62685 -3.864364,2.86701 -1.245771,1.68603 0.167258,4.93845 -1.5875,6.08541 -1.092562,0.71413 -2.667458,-0.51651 -4.023527,-1.03301 0.005,3.17869 -0.01883,6.27171 -0.0248,6.93549 2.293187,1.03953 5.596692,0.13838 8.245491,0.65371 l 4.628658,-0.005 c 0,0 -0.07385,-7.95045 -0.001,-11.09493 -0.425275,-1.98921 -1.011776,-3.78332 -2.739368,-4.31963 -0.210375,-0.0653 -0.422104,-0.0931 -0.633553,-0.0889 z" /><path
         id="path50"
         style="fill:#1e2e23;fill-opacity:1;stroke:none;stroke-width:0.765;stroke-linecap:square;paint-order:markers fill stroke"
         d="m 88.089535,215.5494 c -1.239425,-0.0281 -2.658723,0.86802 -3.779097,1.93063 -0.457769,3.4866 -0.576114,6.75987 -0.639238,8.72556 -0.168736,5.25453 0.314331,15.86154 0.996839,17.65371 0.305733,0.80282 0.516953,1.94399 0.658357,2.95331 0.08035,0.57352 0.09258,3.68796 0.08527,6.66212 2.223823,-0.51906 4.440367,-2.34567 4.910295,-4.40386 0.788436,-3.45321 -7.522605,-6.30518 -5.407939,-9.14673 2.131249,-2.86384 7.252219,4.26601 10.395748,2.574 2.996688,-1.61298 5.57606,-6.99863 3.409611,-9.62319 -1.546246,-1.87321 -5.088086,2.27928 -7.204728,1.08779 -2.426705,-1.36601 -2.79958,-4.95607 -3.218925,-7.70909 -0.52092,-3.41985 3.811034,-8.36557 0.965833,-10.33322 -0.357913,-0.24751 -0.754852,-0.36158 -1.172022,-0.37103 z" /><path
         id="path49"
         style="fill:#4b5b41;fill-opacity:1;stroke:none;stroke-width:0.765;stroke-linecap:square;paint-order:markers fill stroke"
         d="m 90.576205,208.04391 c -2.257603,-0.0567 -4.122096,2.95124 -5.617745,5.59088 -0.598429,2.79821 -0.901943,5.68639 -1.072803,8.15867 1.345656,0.67729 3.221438,1.5129 5.088062,3.50625 1.983444,2.30527 3.711309,10.00295 6.746875,10.18645 1.367868,0.0827 2.858056,-0.23955 4.141349,-0.89348 0.125418,-3.04307 0.174157,-6.18217 0.103353,-8.38709 -0.0076,-0.23553 -0.02202,-0.56553 -0.03152,-0.83664 -0.662561,0.23072 -1.303334,0.35148 -1.831929,0.063 -4.085629,-2.22936 -6.062386,-4.89944 -7.276042,-9.39271 -0.414596,-1.53494 2.141659,-7.22475 0.661459,-7.80521 -0.310297,-0.12168 -0.614071,-0.18271 -0.911056,-0.19017 z" /><path
         id="path109"
         style="display:none;fill:url(#radialGradient110);fill-opacity:1;stroke:none;stroke-width:1.168;stroke-linecap:round;stroke-linejoin:round;paint-order:markers fill stroke"
         d="m 89.19898,204.41776 c -4.929841,4.61561 -5.374937,17.02661 -5.527832,21.78782 -0.168736,5.25453 0.314331,15.86153 0.996839,17.6537 0.305734,0.80282 0.516953,1.94399 0.658357,2.95331 0.158287,1.12983 0.05271,12.30261 0.05271,12.30261 l 6.439146,0.007 6.43862,-0.007 c 0,0 -0.10508,-11.17278 0.0532,-12.30261 0.14141,-1.00932 0.3521,-2.15049 0.657836,-2.95331 0.682507,-1.79217 1.166084,-12.39917 0.997357,-17.6537 -0.1529,-4.76121 -0.597997,-17.17221 -5.527823,-21.78782 -0.9209,-0.86219 -2.24319,-1.16922 -2.61901,-1.16927 -0.37581,-6e-5 -1.69832,0.30687 -2.61943,1.16927 z" /><path
         id="path89"
         style="fill:#a69f57;fill-opacity:1;stroke:none;stroke-width:1.168;stroke-linecap:round;stroke-linejoin:round;paint-order:markers fill stroke"
         d="m 122.51739,204.41776 c 4.92984,4.61561 5.37493,17.02661 5.52783,21.78782 0.16873,5.25453 -0.31433,15.86153 -0.99684,17.6537 -0.30574,0.80282 -0.51695,1.94399 -0.65836,2.95331 -0.15829,1.12983 -0.0527,12.30261 -0.0527,12.30261 l -6.43914,0.007 -6.43862,-0.007 c 0,0 0.10508,-11.17278 -0.0532,-12.30261 -0.14141,-1.00932 -0.3521,-2.15049 -0.65784,-2.95331 -0.68251,-1.79217 -1.16608,-12.39917 -0.99736,-17.6537 0.1529,-4.76121 0.598,-17.17221 5.52783,-21.78782 0.9209,-0.86219 2.24319,-1.16922 2.61901,-1.16927 0.37581,-6e-5 1.69832,0.30687 2.61943,1.16927 z" /><path
         id="path55"
         style="fill:#8c9458;fill-opacity:1;stroke:none;stroke-width:0.765;stroke-linecap:square;paint-order:markers fill stroke"
         d="m 119.89793,203.24834 c -0.37582,5e-5 -1.69806,0.30725 -2.61896,1.16944 -0.80795,0.75645 -1.49346,1.72516 -2.07894,2.83238 0.0534,1.49165 0.49976,2.9105 1.41076,3.85041 2.12768,2.19525 6.06712,-0.6162 9.24543,-0.81803 -0.78537,-2.3778 -1.85636,-4.4768 -3.33881,-5.86476 -0.92111,-0.8624 -2.24367,-1.1695 -2.61948,-1.16944 z m 2.90783,18.13223 c -0.89426,0.0305 -1.7378,0.16155 -2.47788,0.47749 -2.36903,1.01127 -6.15643,2.11905 -6.13813,4.6948 0.0197,2.77841 3.94518,4.55219 6.6921,4.96972 2.44088,0.37101 4.83006,-0.10273 7.17786,-0.96996 0.0251,-1.61364 0.0246,-3.13108 -0.0145,-4.34703 -0.0363,-1.13064 -0.0942,-2.71183 -0.21963,-4.49843 -1.63632,-0.11272 -3.40888,-0.38153 -5.01985,-0.32659 z" /><path
         id="path56"
         style="fill:#4b5b41;fill-opacity:1;stroke:none;stroke-width:0.765;stroke-linecap:square;paint-order:markers fill stroke"
         d="m 124.40928,213.40069 c -2.58216,-0.0271 -5.76588,3.33397 -7.9468,5.22811 -6.67291,5.28487 -1.12646,4.33084 1.84847,10.79159 1.1546,2.8134 0.36485,10.66306 3.1874,11.79514 1.83084,0.73432 4.167,0.75682 6.00635,-0.0496 0.23128,-2.17527 0.40593,-5.25032 0.49868,-8.25738 -0.42474,-0.0573 -0.80144,-0.19047 -1.0728,-0.48162 -3.17334,-3.40475 -4.20613,-6.56248 -3.93982,-11.20913 0.091,-1.58735 4.31216,-6.17959 3.09077,-7.1975 -0.51208,-0.42677 -1.07637,-0.61335 -1.67225,-0.6196 z" /><path
         id="path57"
         style="fill:#1e2e23;fill-opacity:1;stroke:none;stroke-width:0.765;stroke-linecap:square;paint-order:markers fill stroke"
         d="m 116.10488,238.75263 c -1.35868,-0.0176 -2.73732,0.18244 -3.97288,0.61805 0.16993,2.15088 0.37981,3.8671 0.6165,4.48862 0.30573,0.80282 0.51643,1.94399 0.65784,2.95331 0.0457,0.32625 0.0658,1.55606 0.0765,3.04632 2.76646,-0.91279 5.85354,-2.82616 6.88226,-0.73639 1.45234,2.95029 -5.79389,4.29214 -6.89001,7.27501 -0.005,0.66568 -0.009,1.60397 -0.0109,1.85673 0.0583,0.28468 0.13195,0.57181 0.2279,0.86145 l 6.20582,0.007 1.92081,-0.002 c 0.13629,-0.59464 0.37867,-1.09899 0.84129,-1.40508 1.06032,-0.70155 2.33852,-0.80767 3.66541,-0.6351 -0.0213,-2.71381 -0.0656,-9.33847 0.0646,-10.26759 0.14141,-1.00932 0.35262,-2.15049 0.65836,-2.95331 0.0438,-0.11508 0.0866,-0.26868 0.12867,-0.45269 -0.0793,-0.0565 -0.1618,-0.11069 -0.25063,-0.15916 -0.98688,-0.53856 -2.26155,0.97216 -3.32021,0.59376 -1.85424,-0.66277 -1.97348,-3.85847 -3.83853,-4.49016 -1.10333,-0.37371 -2.37256,-0.58172 -3.66282,-0.59842 z" /><path
         id="path110"
         style="display:none;fill:url(#radialGradient112);fill-opacity:1;stroke:none;stroke-width:1.168;stroke-linecap:round;stroke-linejoin:round;paint-order:markers fill stroke"
         d="m 122.51739,204.41776 c 4.92984,4.61561 5.37493,17.02661 5.52783,21.78782 0.16873,5.25453 -0.31433,15.86153 -0.99684,17.6537 -0.30574,0.80282 -0.51695,1.94399 -0.65836,2.95331 -0.15829,1.12983 -0.0527,12.30261 -0.0527,12.30261 l -6.43914,0.007 -6.43862,-0.007 c 0,0 0.10508,-11.17278 -0.0532,-12.30261 -0.14141,-1.00932 -0.3521,-2.15049 -0.65784,-2.95331 -0.68251,-1.79217 -1.16608,-12.39917 -0.99736,-17.6537 0.1529,-4.76121 0.598,-17.17221 5.52783,-21.78782 0.9209,-0.86219 2.24319,-1.16922 2.61901,-1.16927 0.37581,-6e-5 1.69832,0.30687 2.61943,1.16927 z" /><path
         id="path4"
         style="fill:#a69f57;fill-opacity:1;stroke:none;stroke-width:1.168;stroke-linecap:round;stroke-linejoin:round;paint-order:markers fill stroke"
         d="m 105.77959,35.82262 c -0.17506,-0.01436 -0.31264,0.0088 -0.31264,0.0088 v 0.165364 c -0.0215,0.01639 -0.0481,0.02225 -0.0677,0.04186 -2.10867,2.108665 -6.498212,18.885936 -7.341669,30.44207 -0.546913,7.493196 -1.816621,48.240176 -0.817005,68.588576 0.462281,9.41029 1.094732,5.74046 1.23145,10.26346 0.780186,25.8108 2.442574,50.32451 3.460254,75.65792 0.56553,14.07778 0.86273,38.95287 1.9327,42.33126 0.21619,0.6826 1.33051,0.99464 1.80919,1.11311 v 0.11059 c 0,0 0.15376,-0.0486 0.18397,-0.0553 0.0302,0.007 0.18397,0.0553 0.18397,0.0553 v -0.11059 c 0.47868,-0.11847 1.593,-0.43051 1.80919,-1.11311 1.06997,-3.37839 1.36717,-28.25348 1.9327,-42.33126 1.01768,-25.33341 2.68006,-49.84712 3.46025,-75.65792 0.13672,-4.523 0.76916,-0.85317 1.23145,-10.26346 0.99961,-20.3484 -0.27009,-61.09538 -0.817,-68.588576 -0.84345,-11.556134 -5.23301,-28.333405 -7.34168,-30.44207 -0.0196,-0.0196 -0.0462,-0.02547 -0.0677,-0.04186 V 35.83142 c 0,0 -0.1816,-0.02261 -0.39119,0.0072 -0.0259,-0.0037 -0.0538,-0.01399 -0.0785,-0.01602 z" /><path
         id="path22"
         style="fill:#4b5b41;fill-opacity:1;stroke:none;stroke-width:1.168;stroke-linecap:round;stroke-linejoin:round;paint-order:markers fill stroke"
         d="m 102.77339,74.782279 c -1.37632,0.06575 -2.5576,0.506624 -3.264914,1.609204 -2.116392,3.299101 1.451924,8.653212 4.763014,10.750765 1.57161,0.995594 4.33506,-1.518836 5.57951,-0.135909 0.70381,0.782128 -0.52158,2.08399 -0.40825,3.130042 0.25967,2.396596 0.15084,6.078004 2.44947,6.804235 1.05369,0.332904 1.92264,-0.262242 2.75073,-1.148767 -0.11372,-5.913893 -0.26901,-11.234995 -0.42426,-15.989721 -1.5129,-0.586807 -2.54163,-3.019306 -4.23178,-3.546554 -2.0842,-0.650167 -4.91964,-1.582883 -7.21352,-1.473295 z m -2.76365,36.142501 c -1.129463,0.0228 -2.247249,0.95783 -3.122809,1.95078 -0.01436,4.66769 -0.0021,9.23596 0.07596,13.39608 0.724312,0.014 1.43454,0.0608 2.092896,0.22014 0.07458,0.0181 0.148607,0.0407 0.222725,0.0625 -0.853695,0.47854 -1.633988,1.08148 -2.25671,1.75804 0.04072,1.6842 0.09365,3.27017 0.15503,4.78575 1.724473,0.41499 4.390828,0.0939 5.203308,1.54616 1.35959,2.43031 -0.19277,5.68906 -1.26918,8.25738 -0.45803,1.09288 -1.510381,2.02703 -2.619997,2.92953 0.07039,2.29354 0.175276,4.53571 0.258383,6.81044 1.107729,-0.10174 2.234244,-0.40032 3.085604,-0.76946 3.65914,-1.5866 4.0666,-7.15799 7.321,-9.46351 1.25096,-0.88621 3.10979,-0.81999 4.70927,-1.07177 0.20248,-0.92154 0.4189,-2.37168 0.6103,-6.26783 0.198,-4.03054 0.28755,-8.97664 0.33073,-14.19087 -1.37229,0.13326 -2.68556,0.61797 -3.53673,1.49139 -2.47212,2.5367 3.13609,9.30151 -0.14935,10.62519 -2.28197,0.91937 -3.30388,-2.95154 -4.88497,-5.51078 0.69733,-0.44107 1.25898,-1.05023 1.41955,-1.78594 0.45853,-2.10092 -2.10092,-3.75535 -3.04271,-5.68854 -1.4354,-2.9464 -0.83864,-8.02413 -3.96875,-8.99583 -0.21037,-0.0653 -0.4221,-0.0932 -0.63355,-0.0889 z m 11.52384,68.77151 c -3.80747,-0.0973 -8.10286,3.55107 -8.79326,7.29671 -0.50617,2.74618 3.77559,4.52459 4.11603,7.2962 0.45745,3.72414 -5.15894,7.78672 -2.99362,10.85101 1.30738,1.85017 3.97508,2.22034 6.55878,1.86294 0.43663,-9.10252 0.89802,-18.18073 1.35702,-27.27172 -0.0817,-0.008 -0.16373,-0.0331 -0.24495,-0.0351 z m -2.6758,50.76486 c -0.30768,0.001 -0.613,0.0441 -0.91209,0.13384 -2.27703,0.68293 0.12288,5.45531 -1.75597,6.91172 -1.03053,0.7988 -2.34405,0.97143 -3.7207,0.87023 0.14259,4.99984 0.3061,9.25796 0.48679,13.47153 0.0477,0.0255 0.0787,0.0676 0.12919,0.0904 1.00259,0.45334 2.13629,-1.11394 3.19722,-0.82217 1.12102,0.30829 1.7098,1.53388 2.39727,2.58588 0.12143,-2.53514 0.24403,-5.01717 0.34365,-8.06772 -0.29721,-0.56654 -0.24045,-1.09489 0.0496,-1.60249 0.14397,-4.60254 0.28187,-8.92312 0.416,-13.47669 -0.21063,-0.036 -0.4216,-0.0954 -0.63097,-0.0946 z" /><path
         id="path36"
         style="fill:#1e2e23;fill-opacity:1;stroke:none;stroke-width:1.168;stroke-linecap:round;stroke-linejoin:round;paint-order:markers fill stroke"
         d="m 107.99788,39.467122 c -0.44858,0.46198 -0.85783,0.939987 -1.16892,1.405599 -2.98089,4.461434 -1.60471,10.648936 -1.62471,16.014526 -0.0189,5.061734 -2.76665,12.274208 1.42007,15.118974 2.00573,1.362827 5.01255,0.271594 7.22488,-1.316715 -0.0628,-1.275684 -0.13845,-3.493346 -0.19068,-4.209046 -0.25882,-3.546085 -0.87161,-7.572297 -1.62988,-11.526945 -0.23237,-0.163216 -0.46103,-0.332528 -0.6444,-0.561206 -0.79423,-0.990425 -0.6502,-2.127772 -0.15503,-3.336747 -1.02298,-4.61448 -2.18533,-8.77228 -3.23133,-11.58844 z m -5.21829,51.43252 c -2.32017,-0.05567 -3.479207,3.667597 -3.554817,5.987231 -0.129939,3.986187 4.732517,6.736347 5.425507,10.663947 0.44757,2.53664 -2.29282,5.48127 -0.93534,7.67033 0.5925,0.95547 2.4467,0.27132 3.18068,1.12293 1.28555,1.49158 -0.18785,4.32975 1.12241,5.79965 1.61025,1.8064 4.19552,3.32393 6.73861,3.75378 0.0589,-3.28482 0.0837,-6.78941 0.0842,-10.41229 -1.48561,-0.31248 -2.59615,-0.83506 -2.51974,-2.13475 0.0723,-1.22966 1.12342,-1.63863 2.50217,-1.80403 -0.0106,-2.28661 -0.0207,-4.54025 -0.0475,-6.84557 -0.07,0.0143 -0.13669,0.0384 -0.2098,0.0434 -2.77826,0.19018 -5.0604,-2.6062 -6.92206,-4.67723 -2.3126,-2.572678 -1.406,-9.084401 -4.86431,-9.167398 z m 3.24373,55.009048 c -2.21193,-0.098 -4.70712,3.57524 -5.10821,7.34632 -0.29406,2.76485 2.19329,4.55535 2.39107,7.3458 0.26575,3.74946 -2.99686,7.83977 -1.73891,10.92492 1.1738,2.87882 4.23842,2.22601 6.08645,0.75344 1.10601,-0.88132 2.29956,-2.98706 2.17402,-5.08548 -0.13496,-2.25607 -2.31038,-2.52718 -2.9347,-4.52065 -0.57683,-1.84182 -0.80612,-4.17052 -0.54364,-6.21616 0.31191,-2.43081 2.56239,-3.74321 2.39107,-6.21564 -0.14675,-2.11768 -1.48681,-4.27804 -2.71715,-4.33255 z m 4.67982,55.05245 c -1.13391,0.36129 -2.15799,0.95699 -2.78536,1.81178 -2.09581,2.85548 4.39781,8.77584 1.32809,10.54302 -2.92698,1.68498 -4.75697,-5.8907 -7.95766,-6.45697 0.22559,4.6972 0.45345,9.39122 0.64389,14.13196 0.14015,3.48865 0.26196,8.15546 0.38499,12.47882 0.10916,-0.0604 0.25493,-0.10854 0.35553,-0.17001 3.40329,-2.07947 3.03346,-7.65332 5.93608,-10.38852 0.32165,-0.3031 0.71773,-0.51845 1.13739,-0.70538 0.0134,-0.35177 0.0241,-0.87526 0.0377,-1.21491 0.27001,-6.72147 0.58706,-13.3842 0.91932,-20.02979 z" /><path
         id="path35"
         style="fill:#8b9357;fill-opacity:1;stroke:none;stroke-width:1.168;stroke-linecap:round;stroke-linejoin:round;paint-order:markers fill stroke"
         d="m 100.40558,64.152954 c -0.718117,-0.02814 -1.458837,0.214098 -2.175062,0.658874 -0.05317,0.551118 -0.134359,1.137632 -0.173116,1.668632 -0.273403,3.745861 -0.72719,15.802794 -0.988053,29.466419 1.773353,0.476932 3.938271,-0.217561 5.467371,-1.295528 1.44583,-1.019272 3.00578,-3.4549 2.84168,-5.881812 -0.17643,-2.609242 -3.02032,-2.922579 -3.83646,-5.228105 -0.75405,-2.130139 -1.05369,-4.823359 -0.71055,-7.189225 0.40775,-2.811332 3.34988,-4.329251 3.12591,-7.188708 -0.19183,-2.449191 -1.94336,-4.947507 -3.55172,-5.010547 z m 4.56199,84.161266 c -3.50664,0.44401 -6.721514,5.44557 -5.820829,8.86355 0.46737,1.77358 3.106129,2.10758 4.894789,2.51354 2.80862,0.63746 5.73474,0.68289 8.64185,0.41858 0.0769,-1.83477 0.13965,-3.69022 0.20981,-5.53507 -0.18208,0.14935 -0.3874,0.27732 -0.64957,0.35399 -3.14599,0.92002 -4.02425,-7.02631 -7.27605,-6.61459 z m 5.80275,14.30042 c -0.17889,-0.005 -0.35266,0.009 -0.5178,0.0444 -3.53477,0.76257 -2.82066,8.69096 -6.38049,9.30744 -1.83793,0.31829 -2.90091,-2.37383 -4.482409,-3.55482 0.342699,7.36282 0.707719,14.68699 1.084169,21.99039 0.0241,0.009 0.0446,0.0227 0.0693,0.031 2.91104,0.9796 4.44389,-5.39712 7.48998,-5.61361 1.25024,-0.0889 2.3629,0.44309 3.4339,1.18649 0.24667,-4.79649 0.47626,-9.62119 0.70745,-14.4446 -1.43599,0.84207 -2.70726,1.33403 -3.44785,0.10956 -0.99156,-1.63942 1.85484,-2.88657 3.65559,-4.39663 0.0616,-1.33983 0.12301,-2.67898 0.1819,-4.02301 -0.54151,-0.37811 -1.19268,-0.61897 -1.79369,-0.63666 z" /><path
         id="path9"
         style="fill:#b8b8b8;fill-opacity:1;stroke:none;stroke-width:1.168;stroke-linecap:round;stroke-linejoin:round;paint-order:markers fill stroke"
         d="m 104.5285,258.59455 c -0.77778,1.65148 -0.99276,5.3265 -0.24908,6.61458 0.24074,0.41698 0.86102,1.37078 1.57896,1.37078 0.71794,-10e-6 1.3378,-0.95391 1.57847,-1.37078 0.74368,-1.28808 0.5287,-4.9631 -0.24908,-6.61458 -0.40211,-0.85382 -0.90751,-1.9608 -1.32934,-1.96114 -0.42183,-3.3e-4 -0.92759,1.10685 -1.32993,1.96114 z" /><path
         id="path12"
         style="fill:#4b5b41;fill-opacity:1;stroke:none;stroke-width:1.168;stroke-linecap:round;stroke-linejoin:round;paint-order:markers fill stroke"
         d="m 78.34974,229.76117 -5.774842,29.7248 0.746208,12.44162 4.217708,-1.78336 1.629997,-22.43635 z m 55.0168,0 -0.81907,17.94671 1.63556,22.43635 4.21214,1.78336 0.74621,-12.44162 z" /><path
         id="path13"
         style="fill:#7b8351;fill-opacity:1;stroke:none;stroke-width:1.168;stroke-linecap:round;stroke-linejoin:round;paint-order:markers fill stroke"
         d="m 76.638733,227.17993 -4.893241,32.38924 0.912089,-0.12454 5.693192,-29.67623 z m 58.438807,0 -1.71204,2.58847 5.6932,29.67623 0.91208,0.12454 z" /><path
         id="path15"
         style="fill:#808080;fill-opacity:1;stroke:none;stroke-width:2.10801;stroke-linecap:round;stroke-linejoin:round;paint-order:markers fill stroke"
         d="m 71.019667,266.62918 c 0.104752,2.44346 0.636063,7.23365 1.633498,7.1986 0.997453,-0.0351 1.19033,-4.85068 1.123308,-7.29547 -0.09343,-3.40824 -0.716107,-8.69852 -1.684128,-8.6645 -0.968021,0.034 -1.218764,5.35498 -1.072678,8.76137 z" /><path
         id="path124"
         style="display:inline;fill:url(#radialGradient123);fill-opacity:1;stroke:none;stroke-width:2.10801;stroke-linecap:round;stroke-linejoin:round;paint-order:markers fill stroke"
         d="m 71.019667,266.62918 c 0.104752,2.44346 0.636063,7.23365 1.633498,7.1986 0.997453,-0.0351 1.19033,-4.85068 1.123308,-7.29547 -0.09343,-3.40824 -0.716107,-8.69852 -1.684128,-8.6645 -0.968021,0.034 -1.218764,5.35498 -1.072678,8.76137 z" /><path
         id="path17"
         style="fill:#595959;fill-opacity:1;stroke:none;stroke-width:1.168;stroke-linecap:round;stroke-linejoin:round;paint-order:markers fill stroke"
         d="m 105.39822,36.038627 c -2.10866,2.108657 -6.49822,18.88598 -7.341673,30.44207 -0.06644,0.910326 -0.196642,3.55796 -0.279053,5.353678 0.916193,-0.575286 2.469296,-1.343401 3.184306,-1.585433 2.18634,-0.740088 4.11972,-0.828561 4.89944,-0.886768 0.77971,0.05821 2.70739,0.14668 4.89376,0.886768 0.71501,0.242032 2.26758,1.010147 3.18378,1.585433 -0.0824,-1.795718 -0.21265,-4.443352 -0.27905,-5.353678 -0.84345,-11.55609 -5.23301,-28.333413 -7.34167,-30.44207 -0.0214,-0.02136 -0.22683,-0.199678 -0.45614,-0.199678 -0.24425,0 -0.44234,0.178308 -0.4637,0.199678 z" /><path
         id="path27"
         style="fill:#4d4d4d;fill-opacity:1;stroke:none;stroke-width:1.168;stroke-linecap:round;stroke-linejoin:round;paint-order:markers fill stroke"
         d="m 95.874768,131.31602 -8.590173,0.005 -10e-4,3.17759 8.591724,-0.002 z m 19.967252,0 -0.001,3.18068 8.59172,0.002 -10e-4,-3.17759 z m -19.967252,3.69486 -8.590173,0.005 -10e-4,3.17758 8.591724,-0.002 z m 19.967252,0 -0.001,3.1812 8.59172,0.002 -10e-4,-3.17758 z m -19.967252,3.70003 -8.590173,0.005 -10e-4,3.17758 8.591724,-0.002 z m 19.967252,0 -0.001,3.1812 8.59172,0.002 -10e-4,-3.17758 z m -19.967252,3.69952 -8.590173,0.005 -10e-4,3.17758 8.591724,-0.002 z m 19.967252,0 -0.001,3.18068 8.59172,0.002 -10e-4,-3.17758 z m -19.967252,3.70003 -8.590173,0.005 -10e-4,3.17758 8.591724,-0.002 z m 19.967252,0 -0.001,3.18069 8.59172,0.002 -10e-4,-3.17758 z" /><path
         id="path28"
         style="fill:#879c68;fill-opacity:1;stroke:none;stroke-width:1.168;stroke-linecap:round;stroke-linejoin:round;paint-order:markers fill stroke"
         d="m 95.874768,131.31602 -8.590173,0.005 -10e-4,3.17759 7.276559,-0.002 z m 19.967252,0 1.31414,3.18068 7.27655,0.002 -0.001,-3.17759 z m -19.967252,3.69486 -8.590173,0.005 -10e-4,3.17758 7.276559,-0.002 z m 19.967252,0 1.31414,3.1812 7.27655,0.002 -0.001,-3.17759 z m -19.967252,3.70003 -8.590173,0.005 -10e-4,3.17758 7.276559,-0.002 z m 19.967252,0 1.31414,3.1812 7.27655,0.002 -0.001,-3.17758 z m -19.967252,3.69952 -8.590173,0.005 -10e-4,3.17758 7.276559,-0.002 z m 19.967252,0 1.31414,3.18068 7.27655,0.002 -0.001,-3.17758 z m -19.967252,3.70003 -8.590173,0.005 -10e-4,3.17758 7.276559,-0.002 z m 19.967252,0 1.31414,3.18069 7.27655,0.002 -0.001,-3.17758 z" /><path
         id="path62"
         style="fill:#595959;fill-opacity:1;stroke:none;stroke-width:1.168;stroke-linecap:round;stroke-linejoin:round;paint-order:markers fill stroke"
         d="m 105.53568,22.13405 c 0,0.658041 0.002,14.339176 0.002,14.339176 l 0.3204,-0.05633 0.32039,0.05633 c 0,0 0.002,-13.681135 0.002,-14.339176 0,-2.218942 -0.28994,-3.248061 -0.31833,-3.248061 -0.0284,0 -0.32659,1.029119 -0.32659,3.248061 z" /><path
         id="path94"
         style="fill:#808080;fill-opacity:1;stroke:none;stroke-width:2.10801;stroke-linecap:round;stroke-linejoin:round;paint-order:markers fill stroke"
         d="m 140.6967,266.62918 c -0.10475,2.44346 -0.63606,7.23365 -1.6335,7.1986 -0.99745,-0.0351 -1.19033,-4.85068 -1.12331,-7.29547 0.0934,-3.40824 0.71611,-8.69852 1.68413,-8.6645 0.96802,0.034 1.21876,5.35498 1.07268,8.76137 z" /><path
         id="path123"
         style="display:inline;fill:url(#radialGradient124);fill-opacity:1;stroke:none;stroke-width:2.10801;stroke-linecap:round;stroke-linejoin:round;paint-order:markers fill stroke"
         d="m 140.6967,266.62918 c -0.10475,2.44346 -0.63606,7.23365 -1.6335,7.1986 -0.99745,-0.0351 -1.19033,-4.85068 -1.12331,-7.29547 0.0934,-3.40824 0.71611,-8.69852 1.68413,-8.6645 0.96802,0.034 1.21876,5.35498 1.07268,8.76137 z" /><path
         id="path107"
         style="fill:#5c5c5c;fill-opacity:1;stroke:none;stroke-width:1.168;stroke-linecap:round;stroke-linejoin:round;paint-order:markers fill stroke"
         d="m 105.86178,85.870728 c -0.73346,0 -3.69038,0.265929 -4.36561,0.655773 -1.730979,0.999379 -2.544172,10.795166 -2.92955,16.325619 -0.44932,6.44798 0.10365,14.7953 0.913638,19.36368 0.715682,4.0363 2.102612,7.40685 3.097482,11.3838 1.15329,4.61011 0.40176,8.15063 1.49397,9.24284 0.20081,0.20081 0.82444,0.57026 1.79007,0.57051 0.96563,2.5e-4 1.58916,-0.3696 1.79007,-0.57051 1.09221,-1.09221 0.34068,-4.63273 1.49397,-9.24284 0.99487,-3.97695 2.38182,-7.3475 3.09748,-11.3838 0.81,-4.56838 1.36296,-12.9157 0.91364,-19.36368 -0.38538,-5.530453 -1.19857,-15.32624 -2.92953,-16.325619 -0.67524,-0.389844 -3.63218,-0.655773 -4.36563,-0.655773 z" /><path
         id="path108"
         style="display:inline;fill:#454545;fill-opacity:1;stroke:none;stroke-width:1.168;stroke-linecap:round;stroke-linejoin:round;paint-order:markers fill stroke"
         d="m 101.49681,86.526501 c -1.730982,0.99938 -2.544165,10.795161 -2.929545,16.325619 -0.44932,6.44799 0.10364,14.7953 0.91363,19.36368 0.715685,4.03631 2.102625,7.40685 3.097505,11.3838 1.15329,4.61012 0.40176,8.15063 1.49397,9.24284 0.20081,0.20081 0.82454,0.57036 1.79017,0.57061 0.96563,2.5e-4 1.58913,-0.3697 1.79004,-0.57061 1.09221,-1.09221 0.34068,-4.63272 1.49397,-9.24284 0.99487,-3.97695 2.38182,-7.34749 3.09748,-11.3838 0.81,-4.56838 1.36296,-12.91569 0.91364,-19.36368 -0.38538,-5.530458 -1.19857,-15.326239 -2.92954,-16.325619 -0.67524,-0.389845 -3.63217,-0.655592 -4.36562,-0.655592 -0.73346,0 -3.69039,0.265747 -4.36563,0.655592 z m 4.36563,0.06253 c 0.70897,-0.01151 2.82923,0.108269 3.91449,0.734839 1.08428,0.666081 2.66871,13.62252 2.12907,13.76712 -0.55502,0.14872 -1.51138,-0.53767 -2.95383,-0.90227 -1.18136,-0.298616 -2.65785,-0.379969 -3.08973,-0.379969 -0.43188,0 -1.90838,0.08136 -3.08974,0.379969 -1.44244,0.3646 -2.3988,1.05099 -2.953832,0.90227 -0.539643,-0.1446 1.044802,-13.101039 2.129082,-13.76712 1.08525,-0.62657 3.20551,-0.746349 3.91449,-0.734839 z m 0,14.978409 c 1.1874,0.003 4.37029,0.11115 6.10505,1.84589 0.36815,0.36815 0.21173,5.45135 0.16123,8.22637 -0.13023,7.16097 -1.73427,14.01214 -2.02055,14.17743 -1.05566,0.60949 -2.79443,0.62307 -4.24574,0.62306 -1.45131,-1e-5 -3.19018,-0.0136 -4.24573,-0.62306 -0.28628,-0.16529 -1.890335,-7.01646 -2.020565,-14.17743 -0.0505,-2.77502 -0.20692,-7.85822 0.161233,-8.22637 1.734782,-1.73474 4.917662,-1.84287 6.105072,-1.84589 z" /></g></g></svg>
