<?xml version="1.0" encoding="UTF-8" standalone="no"?>
<!-- Created with Inkscape (http://www.inkscape.org/) -->

<svg
   width="285mm"
   height="285mm"
   viewBox="0 0 285 285"
   version="1.1"
   id="svg1"
   xml:space="preserve"
   inkscape:version="1.3.2 (091e20e, 2023-11-25, custom)"
   sodipodi:docname="reaper_base.svg"
   xmlns:inkscape="http://www.inkscape.org/namespaces/inkscape"
   xmlns:sodipodi="http://sodipodi.sourceforge.net/DTD/sodipodi-0.dtd"
   xmlns:xlink="http://www.w3.org/1999/xlink"
   xmlns="http://www.w3.org/2000/svg"
   xmlns:svg="http://www.w3.org/2000/svg"><sodipodi:namedview
     id="namedview1"
     pagecolor="#ffffff"
     bordercolor="#000000"
     borderopacity="0.25"
     inkscape:showpageshadow="2"
     inkscape:pageopacity="0.0"
     inkscape:pagecheckerboard="true"
     inkscape:deskcolor="#d1d1d1"
     inkscape:document-units="mm"
     showguides="true"
     inkscape:zoom="0.5"
     inkscape:cx="154"
     inkscape:cy="459"
     inkscape:window-width="3440"
     inkscape:window-height="1417"
     inkscape:window-x="-8"
     inkscape:window-y="-8"
     inkscape:window-maximized="1"
     inkscape:current-layer="layer1" /><defs
     id="defs1"><linearGradient
       id="linearGradient121"
       inkscape:collect="always"><stop
         style="stop-color:#585858;stop-opacity:0.39094651;"
         offset="0"
         id="stop122" /><stop
         style="stop-color:#c6c6c6;stop-opacity:0;"
         offset="1"
         id="stop123" /></linearGradient><linearGradient
       id="linearGradient120"
       inkscape:collect="always"><stop
         style="stop-color:#595959;stop-opacity:0.38065845;"
         offset="0"
         id="stop120" /><stop
         style="stop-color:#c6c6c6;stop-opacity:0;"
         offset="1"
         id="stop121" /></linearGradient><linearGradient
       id="linearGradient118"
       inkscape:collect="always"><stop
         style="stop-color:#818181;stop-opacity:0;"
         offset="0"
         id="stop118" /><stop
         style="stop-color:#f3f3f3;stop-opacity:1;"
         offset="1"
         id="stop119" /></linearGradient><linearGradient
       id="linearGradient114"
       inkscape:collect="always"><stop
         style="stop-color:#727272;stop-opacity:0.75514406;"
         offset="0"
         id="stop115" /><stop
         style="stop-color:#ffffff;stop-opacity:0;"
         offset="1"
         id="stop116" /></linearGradient><linearGradient
       id="linearGradient112"
       inkscape:collect="always"><stop
         style="stop-color:#b2b2b2;stop-opacity:1;"
         offset="0"
         id="stop113" /><stop
         style="stop-color:#ffffff;stop-opacity:0;"
         offset="1"
         id="stop114" /></linearGradient><linearGradient
       id="linearGradient110"
       inkscape:collect="always"><stop
         style="stop-color:#f2f2f2;stop-opacity:1;"
         offset="0"
         id="stop111" /><stop
         style="stop-color:#b0b0b0;stop-opacity:0;"
         offset="1"
         id="stop112" /></linearGradient><linearGradient
       id="linearGradient109"
       inkscape:collect="always"><stop
         style="stop-color:#f1f1f1;stop-opacity:1;"
         offset="0"
         id="stop109" /><stop
         style="stop-color:#afafaf;stop-opacity:0;"
         offset="1"
         id="stop110" /></linearGradient><inkscape:path-effect
       effect="bspline"
       id="path-effect729"
       is_visible="true"
       lpeversion="1"
       weight="33.333333"
       steps="2"
       helper_size="0"
       apply_no_weight="true"
       apply_with_weight="true"
       only_selected="false"
       uniform="false" /><inkscape:path-effect
       effect="bspline"
       id="path-effect1385"
       is_visible="true"
       lpeversion="1"
       weight="33.333333"
       steps="2"
       helper_size="0"
       apply_no_weight="true"
       apply_with_weight="true"
       only_selected="false"
       uniform="false" /><inkscape:path-effect
       effect="bspline"
       id="path-effect312"
       is_visible="true"
       lpeversion="1"
       weight="33.333333"
       steps="2"
       helper_size="0"
       apply_no_weight="true"
       apply_with_weight="true"
       only_selected="false"
       uniform="false" /><inkscape:path-effect
       effect="bspline"
       id="path-effect50"
       is_visible="true"
       lpeversion="1"
       weight="33.333333"
       steps="2"
       helper_size="0"
       apply_no_weight="true"
       apply_with_weight="true"
       only_selected="false"
       uniform="false" /><inkscape:path-effect
       effect="bspline"
       id="path-effect52"
       is_visible="true"
       lpeversion="1"
       weight="33.333333"
       steps="2"
       helper_size="0"
       apply_no_weight="true"
       apply_with_weight="true"
       only_selected="false"
       uniform="false" /><inkscape:path-effect
       effect="bspline"
       id="path-effect54"
       is_visible="true"
       lpeversion="1"
       weight="33.333333"
       steps="2"
       helper_size="0"
       apply_no_weight="true"
       apply_with_weight="true"
       only_selected="false"
       uniform="false" /><radialGradient
       inkscape:collect="always"
       xlink:href="#linearGradient109"
       id="radialGradient110"
       cx="91.818169"
       cy="231.18533"
       fx="91.818169"
       fy="231.18533"
       r="8.1808329"
       gradientTransform="matrix(0.93531617,0,0,7.3887596,5.939151,-1476.9876)"
       gradientUnits="userSpaceOnUse" /><radialGradient
       inkscape:collect="always"
       xlink:href="#linearGradient110"
       id="radialGradient112"
       cx="119.8982"
       cy="231.18533"
       fx="119.8982"
       fy="231.18533"
       r="8.180829"
       gradientTransform="matrix(1,0,0,6.4873966,0,-1268.6056)"
       gradientUnits="userSpaceOnUse" /><radialGradient
       inkscape:collect="always"
       xlink:href="#linearGradient112"
       id="radialGradient114"
       cx="105.85814"
       cy="150.96004"
       fx="105.85814"
       fy="150.96004"
       r="8.9898729"
       gradientTransform="matrix(1.3500017,0,0,21.545274,-37.050532,-3106.2885)"
       gradientUnits="userSpaceOnUse" /><radialGradient
       inkscape:collect="always"
       xlink:href="#linearGradient114"
       id="radialGradient116"
       cx="105.7727"
       cy="256.37775"
       fx="105.7727"
       fy="256.37775"
       r="95.747292"
       gradientTransform="matrix(1.7190662,0,0,0.68668352,-76.119006,50.199923)"
       gradientUnits="userSpaceOnUse" /><radialGradient
       inkscape:collect="always"
       xlink:href="#linearGradient118"
       id="radialGradient119"
       cx="105.85814"
       cy="307.16333"
       fx="105.85814"
       fy="307.16333"
       r="63.146034"
       gradientTransform="matrix(2.0307458,0,0,0.68112604,-109.11283,77.859091)"
       gradientUnits="userSpaceOnUse" /><radialGradient
       inkscape:collect="always"
       xlink:href="#linearGradient120"
       id="radialGradient121"
       cx="139.33157"
       cy="265.84781"
       fx="139.33157"
       fy="265.84781"
       r="1.4036601"
       gradientTransform="matrix(1,0,0,5.6852529,0,-1245.5642)"
       gradientUnits="userSpaceOnUse" /><radialGradient
       inkscape:collect="always"
       xlink:href="#linearGradient121"
       id="radialGradient123"
       cx="72.384796"
       cy="265.84781"
       fx="72.384796"
       fy="265.84781"
       r="1.4036596"
       gradientTransform="matrix(1,0,0,5.6852548,0,-1245.5647)"
       gradientUnits="userSpaceOnUse" /><radialGradient
       inkscape:collect="always"
       xlink:href="#linearGradient120"
       id="radialGradient124"
       gradientUnits="userSpaceOnUse"
       gradientTransform="matrix(1.0471209,0,0,5.6852529,-6.5654346,-1245.5642)"
       cx="139.33157"
       cy="265.84781"
       fx="139.33157"
       fy="265.84781"
       r="1.4036601" /><radialGradient
       inkscape:collect="always"
       xlink:href="#linearGradient121"
       id="radialGradient1"
       gradientUnits="userSpaceOnUse"
       gradientTransform="matrix(1,0,0,5.6852548,0,-1245.5647)"
       cx="72.384796"
       cy="265.84781"
       fx="72.384796"
       fy="265.84781"
       r="1.4036596" /></defs><g
     inkscape:label="Слой 1"
     inkscape:groupmode="layer"
     id="layer1"><g
       id="g1"
       transform="translate(36.640836,-15.058276)"><path
         id="path16"
         style="fill:#c4c4c4;fill-opacity:1;stroke:none;stroke-width:1.168;stroke-linecap:round;stroke-linejoin:round;paint-order:markers fill stroke"
         inkscape:label="Задние крылья "
         d="m 79.569303,240.89847 c -1.729115,0.005 -3.676957,0.27422 -4.55321,1.33119 -19.584157,23.62318 -4.446299,5.07817 -30.393494,36.91506 -3.276585,4.02032 -2.189737,14.46713 2.122351,17.08009 0.399709,0.24221 31.617709,-15.57579 31.617709,-15.57579 l 4.445723,-39.4963 c 0,0 -1.509964,-0.25929 -3.239079,-0.25425 z m 52.577667,0 c -1.72911,-0.005 -3.23908,0.25425 -3.23908,0.25425 l 4.44573,39.4963 c 0,0 31.218,15.818 31.61771,15.57579 4.31208,-2.61296 5.39893,-13.05977 2.12235,-17.08009 -25.9472,-31.83689 -10.80882,-13.29188 -30.39298,-36.91506 -0.87625,-1.05697 -2.82461,-1.32614 -4.55373,-1.33119 z" /><path
         id="path118"
         style="fill:url(#radialGradient119);stroke:none;stroke-width:1.168;stroke-linecap:round;stroke-linejoin:round;paint-order:markers fill stroke"
         inkscape:label="Градиент Задних крылев"
         d="m 79.569303,240.89847 c -1.729115,0.005 -3.676957,0.27422 -4.55321,1.33119 -19.584157,23.62318 -4.446299,5.07817 -30.393494,36.91506 -3.276585,4.02032 -2.189737,14.46713 2.122351,17.08009 0.399709,0.24221 31.617709,-15.57579 31.617709,-15.57579 l 4.445723,-39.4963 c 0,0 -1.509964,-0.25929 -3.239079,-0.25425 z m 52.577667,0 c -1.72911,-0.005 -3.23908,0.25425 -3.23908,0.25425 l 4.44573,39.4963 c 0,0 31.218,15.818 31.61771,15.57579 4.31208,-2.61296 5.39893,-13.05977 2.12235,-17.08009 -25.9472,-31.83689 -10.80882,-13.29188 -30.39298,-36.91506 -0.87625,-1.05697 -2.82461,-1.32614 -4.55373,-1.33119 z" /><path
         id="path131"
         style="fill:#969696;fill-opacity:1;stroke:none;stroke-width:1.168;stroke-linecap:round;stroke-linejoin:round;paint-order:markers fill stroke"
         inkscape:label="ЗМ Полоски"
         d="m 78.842216,276.38778 -33.945215,17.96583 c 0.528858,0.78761 1.140381,1.44244 1.847949,1.8712 0.399709,0.24221 31.617709,-15.57579 31.617709,-15.57579 z m 54.049414,0.003 0.47956,4.26124 c 0,0 31.218,15.818 31.61771,15.57579 0.70756,-0.42876 1.31909,-1.08359 1.84794,-1.8712 z" /><path
         id="path2"
         style="fill:#c4c4c4;fill-opacity:1;stroke:none;stroke-width:1.168;stroke-linecap:round;stroke-linejoin:round;paint-order:markers fill stroke"
         d="m 79.352262,157.35629 -2.458248,1.35444 c 0,0 -62.372499,51.6227 -63.685518,53.83134 -3.2469328,5.46168 -2.946127,8.55739 -3.089734,12.72997 -0.1381273,4.01337 1.576131,11.94397 1.576131,11.94397 l 64.94384,-10.03608 z m 53.011748,0 2.71353,69.82364 64.94384,10.03608 c 0,0 1.71426,-7.9306 1.57613,-11.94397 -0.14361,-4.17258 0.1572,-7.26829 -3.08973,-12.72997 -1.31302,-2.20864 -63.68552,-53.83134 -63.68552,-53.83134 z"
         inkscape:label="Передние крылья" /><path
         id="path114"
         style="fill:url(#radialGradient116);fill-opacity:1;stroke:none;stroke-width:1.168;stroke-linecap:round;stroke-linejoin:round;paint-order:markers fill stroke"
         d="m 79.352262,157.35629 -2.458248,1.35444 c 0,0 -62.372499,51.6227 -63.685518,53.83134 -3.2469328,5.46168 -2.946127,8.55739 -3.089734,12.72997 -0.1381273,4.01337 1.576131,11.94397 1.576131,11.94397 l 64.94384,-10.03608 z m 53.011748,0 2.71353,69.82364 64.94384,10.03608 c 0,0 1.71426,-7.9306 1.57613,-11.94397 -0.14361,-4.17258 0.1572,-7.26829 -3.08973,-12.72997 -1.31302,-2.20864 -63.68552,-53.83134 -63.68552,-53.83134 z"
         inkscape:label="Градиент передних крыльев" /><path
         id="path139"
         style="fill:#969696;fill-opacity:1;stroke:none;stroke-width:1.168;stroke-linecap:round;stroke-linejoin:round;paint-order:markers fill stroke"
         inkscape:label="Полоски на крыльях "
         d="m 79.352262,157.36094 -2.458248,1.35444 c 0,0 -62.372502,51.6227 -63.685518,53.83134 -3.2469229,5.46167 -2.946127,8.55741 -3.089734,12.72997 -0.1381264,4.01336 1.576131,11.94397 1.576131,11.94397 l 0.830957,-0.12816 c -2.1e-4,-0.001 -8.22e-4,-0.004 -10e-4,-0.005 l 64.113916,-9.90792 0.258899,-6.66212 c -6.388665,1.05657 -54.837102,9.06377 -65.364486,10.72647 -0.229261,-1.71977 -0.409068,-3.48891 -0.360185,-4.90926 0.143607,-4.17257 -0.157186,-7.26832 3.089734,-12.72997 1.313016,-2.20864 63.685519,-53.83134 63.685519,-53.83134 l 1.338936,-0.73794 z m 53.013818,0 0.0651,1.67483 1.33894,0.73794 c 0,0 62.3725,51.6227 63.68552,53.83134 3.24691,5.46165 2.94613,8.5574 3.08973,12.72997 0.049,1.42221 -0.13147,3.1941 -0.36122,4.91598 -10.55265,-1.67171 -58.95344,-9.69285 -65.33916,-10.7518 l 0.2558,6.66213 64.9397,10.0645 c 0,0 0.36146,-1.7655 0.74156,-4.02456 0.0948,-0.55415 0.18046,-1.0822 0.2713,-1.68259 0.006,-0.0428 0.0137,-0.0805 0.0202,-0.1235 -1.7e-4,-3e-5 -8.5e-4,3e-5 -0.001,0 0.32275,-2.1557 0.58404,-4.46417 0.5271,-6.11849 -0.14361,-4.17256 0.15718,-7.2683 -3.08973,-12.72997 -1.31302,-2.20864 -63.68552,-53.83134 -63.68552,-53.83134 z" /><path
         id="rect139"
         style="fill:#969696;fill-opacity:1;stroke:none;stroke-width:1.168;stroke-linecap:round;stroke-linejoin:round;paint-order:markers fill stroke"
         d="m 21.101182,189.96138 -1.587582,-2.6e-4 1.56e-4,42.46564 1.587582,2.6e-4 z m 117.271248,16.00713 -11.38044,40.91223 1.52907,0.42516 11.38095,-40.91216 z"
         transform="rotate(-7.7726495)"
         inkscape:label="Полоски на крыльях2" /><path
         id="path14"
         style="fill:#e8e8e8;fill-opacity:1;stroke:none;stroke-width:1.168;stroke-linecap:round;stroke-linejoin:round;paint-order:markers fill stroke"
         inkscape:label="Основа"
         d="m 97.461751,85.879513 c -1.054697,3.395611 -9.177387,24.587797 -12.89792,37.160517 -1.18457,4.003 -2.10988,6.3232 -2.993099,12.16102 -1.376696,9.09957 -1.559037,9.75849 -2.572453,27.47843 -1.252698,21.90388 -2.533696,65.78823 -2.533696,65.78823 l 1.901693,2.92695 0.744141,17.29714 -1.655713,22.51438 4.169254,-0.0248 2.315104,-4.44831 1.478463,-6.66212 12.830225,0.0326 1.330151,6.49211 3.800289,0.0233 0.7369,-1.20406 1.74305,0.0512 1.74356,-0.0512 0.73639,1.20406 3.80028,-0.0233 1.33016,-6.49211 12.83022,-0.0326 1.47846,6.66212 2.31511,4.44831 4.16925,0.0248 -1.65571,-22.51438 0.74414,-17.29714 1.90169,-2.92695 c 0,0 -1.28099,-43.88435 -2.53369,-65.78823 -1.01342,-17.71994 -1.19577,-18.37886 -2.57246,-27.47843 -0.88321,-5.83782 -1.80853,-8.15802 -2.99309,-12.16102 -3.72054,-12.57272 -11.84271,-33.764906 -12.89741,-37.160517 -0.0705,-0.226948 -7.44292,-0.276863 -8.39694,-0.276863 -0.95403,0 -8.325857,0.04992 -8.396349,0.276863 z"
         sodipodi:nodetypes="sssscccccccccccccccccccccccsscscs" /><path
         id="path7"
         style="fill:#808080;fill-opacity:1;stroke:none;stroke-width:1.168;stroke-linecap:round;stroke-linejoin:round;paint-order:markers fill stroke"
         d="m 85.371935,258.92019 -1.454745,6.2797 1.601263,5.14216 0.827841,0.006 c 0,0 -0.34867,1.45238 -0.390526,1.61818 -0.0032,0.0127 5.464002,0.0188 5.756203,0.0183 0,0 0.14619,3.1e-4 0.154,3.3e-4 0.292159,10e-4 5.75984,0.0183 5.756745,0.006 -0.04115,-0.16599 -0.383571,-1.61985 -0.383571,-1.61985 l 0.827858,-0.003 1.623347,-5.13523 -1.427768,-6.2859 -6.390281,-0.0137 -0.110069,-2.4e-4 z"
         inkscape:label="ЛВыхлоп" /><path
         id="path88"
         style="fill:#808080;fill-opacity:1;stroke:none;stroke-width:1.168;stroke-linecap:round;stroke-linejoin:round;paint-order:markers fill stroke"
         d="m 126.34443,258.92019 1.45475,6.2797 -1.60127,5.14216 -0.82784,0.006 c 0,0 0.34867,1.45238 0.39053,1.61818 0.003,0.0127 -5.464,0.0188 -5.75621,0.0183 0,0 -0.14619,3.1e-4 -0.154,3.3e-4 -0.29215,10e-4 -5.75984,0.0183 -5.75674,0.006 0.0412,-0.16599 0.38357,-1.61985 0.38357,-1.61985 l -0.82786,-0.003 -1.62334,-5.13523 1.42776,-6.2859 6.39028,-0.0137 0.11007,-2.4e-4 z"
         inkscape:label="ПВыхлоп" /><path
         id="path8"
         style="fill:#d1d1d1;fill-opacity:1;stroke:none;stroke-width:1.168;stroke-linecap:round;stroke-linejoin:round;paint-order:markers fill stroke"
         d="m 89.19898,204.41776 c -4.929841,4.61561 -5.374937,17.02661 -5.527832,21.78782 -0.168736,5.25453 0.314331,15.86153 0.996839,17.6537 0.305734,0.80282 0.516953,1.94399 0.658357,2.95331 0.158287,1.12983 0.05271,12.30261 0.05271,12.30261 l 6.439146,0.007 6.43862,-0.007 c 0,0 -0.10508,-11.17278 0.0532,-12.30261 0.14141,-1.00932 0.3521,-2.15049 0.657836,-2.95331 0.682507,-1.79217 1.166084,-12.39917 0.997357,-17.6537 -0.1529,-4.76121 -0.597997,-17.17221 -5.527823,-21.78782 -0.9209,-0.86219 -2.24319,-1.16922 -2.61901,-1.16927 -0.37581,-6e-5 -1.69832,0.30687 -2.61943,1.16927 z"
         sodipodi:nodetypes="sssscccsssscs"
         inkscape:label="Левый Двигатель" /><path
         id="path109"
         style="fill:url(#radialGradient110);fill-opacity:1;stroke:none;stroke-width:1.168;stroke-linecap:round;stroke-linejoin:round;paint-order:markers fill stroke"
         d="m 89.19898,204.41776 c -4.929841,4.61561 -5.374937,17.02661 -5.527832,21.78782 -0.168736,5.25453 0.314331,15.86153 0.996839,17.6537 0.305734,0.80282 0.516953,1.94399 0.658357,2.95331 0.158287,1.12983 0.05271,12.30261 0.05271,12.30261 l 6.439146,0.007 6.43862,-0.007 c 0,0 -0.10508,-11.17278 0.0532,-12.30261 0.14141,-1.00932 0.3521,-2.15049 0.657836,-2.95331 0.682507,-1.79217 1.166084,-12.39917 0.997357,-17.6537 -0.1529,-4.76121 -0.597997,-17.17221 -5.527823,-21.78782 -0.9209,-0.86219 -2.24319,-1.16922 -2.61901,-1.16927 -0.37581,-6e-5 -1.69832,0.30687 -2.61943,1.16927 z"
         sodipodi:nodetypes="sssscccsssscs"
         inkscape:label="Градиент Левого Двигателя" /><path
         id="path89"
         style="fill:#d1d1d1;fill-opacity:1;stroke:none;stroke-width:1.168;stroke-linecap:round;stroke-linejoin:round;paint-order:markers fill stroke"
         d="m 122.51739,204.41776 c 4.92984,4.61561 5.37493,17.02661 5.52783,21.78782 0.16873,5.25453 -0.31433,15.86153 -0.99684,17.6537 -0.30574,0.80282 -0.51695,1.94399 -0.65836,2.95331 -0.15829,1.12983 -0.0527,12.30261 -0.0527,12.30261 l -6.43914,0.007 -6.43862,-0.007 c 0,0 0.10508,-11.17278 -0.0532,-12.30261 -0.14141,-1.00932 -0.3521,-2.15049 -0.65784,-2.95331 -0.68251,-1.79217 -1.16608,-12.39917 -0.99736,-17.6537 0.1529,-4.76121 0.598,-17.17221 5.52783,-21.78782 0.9209,-0.86219 2.24319,-1.16922 2.61901,-1.16927 0.37581,-6e-5 1.69832,0.30687 2.61943,1.16927 z"
         sodipodi:nodetypes="sssscccsssscs"
         inkscape:label="Правый двигатель" /><path
         id="path110"
         style="fill:url(#radialGradient112);fill-opacity:1;stroke:none;stroke-width:1.168;stroke-linecap:round;stroke-linejoin:round;paint-order:markers fill stroke"
         d="m 122.51739,204.41776 c 4.92984,4.61561 5.37493,17.02661 5.52783,21.78782 0.16873,5.25453 -0.31433,15.86153 -0.99684,17.6537 -0.30574,0.80282 -0.51695,1.94399 -0.65836,2.95331 -0.15829,1.12983 -0.0527,12.30261 -0.0527,12.30261 l -6.43914,0.007 -6.43862,-0.007 c 0,0 0.10508,-11.17278 -0.0532,-12.30261 -0.14141,-1.00932 -0.3521,-2.15049 -0.65784,-2.95331 -0.68251,-1.79217 -1.16608,-12.39917 -0.99736,-17.6537 0.1529,-4.76121 0.598,-17.17221 5.52783,-21.78782 0.9209,-0.86219 2.24319,-1.16922 2.61901,-1.16927 0.37581,-6e-5 1.69832,0.30687 2.61943,1.16927 z"
         sodipodi:nodetypes="sssscccsssscs"
         inkscape:label="Градиент Правого Двигателя" /><path
         id="path4"
         style="fill:#d1d1d1;fill-opacity:1;stroke:none;stroke-width:1.168;stroke-linecap:round;stroke-linejoin:round;paint-order:markers fill stroke"
         inkscape:label="Центр"
         d="m 105.77959,35.82262 c -0.17506,-0.01436 -0.31264,0.0088 -0.31264,0.0088 v 0.165364 c -0.0215,0.01639 -0.0481,0.02225 -0.0677,0.04186 -2.10867,2.108665 -6.498212,18.885936 -7.341669,30.44207 -0.546913,7.493196 -1.816621,48.240176 -0.817005,68.588576 0.462281,9.41029 1.094732,5.74046 1.23145,10.26346 0.780186,25.8108 2.442574,50.32451 3.460254,75.65792 0.56553,14.07778 0.86273,38.95287 1.9327,42.33126 0.21619,0.6826 1.33051,0.99464 1.80919,1.11311 v 0.11059 c 0,0 0.15376,-0.0486 0.18397,-0.0553 0.0302,0.007 0.18397,0.0553 0.18397,0.0553 v -0.11059 c 0.47868,-0.11847 1.593,-0.43051 1.80919,-1.11311 1.06997,-3.37839 1.36717,-28.25348 1.9327,-42.33126 1.01768,-25.33341 2.68006,-49.84712 3.46025,-75.65792 0.13672,-4.523 0.76916,-0.85317 1.23145,-10.26346 0.99961,-20.3484 -0.27009,-61.09538 -0.817,-68.588576 -0.84345,-11.556134 -5.23301,-28.333405 -7.34168,-30.44207 -0.0196,-0.0196 -0.0462,-0.02547 -0.0677,-0.04186 V 35.83142 c 0,0 -0.1816,-0.02261 -0.39119,0.0072 -0.0259,-0.0037 -0.0538,-0.01399 -0.0785,-0.01602 z" /><path
         id="path112"
         style="fill:url(#radialGradient114);stroke:none;stroke-width:1.168;stroke-linecap:round;stroke-linejoin:round;paint-order:markers fill stroke"
         inkscape:label="Градиент Центра"
         d="m 105.77959,35.82262 c -0.17506,-0.01436 -0.31264,0.0088 -0.31264,0.0088 v 0.165364 c -0.0215,0.01639 -0.0481,0.02225 -0.0677,0.04186 -2.10867,2.108665 -6.498211,18.885936 -7.341668,30.44207 -0.546917,7.493196 -1.816618,48.240176 -0.817004,68.588576 0.462277,9.41029 1.094734,5.74046 1.231451,10.26346 0.780187,25.8108 2.442571,50.32451 3.460251,75.65792 0.56553,14.07778 0.86273,38.95287 1.9327,42.33126 0.21619,0.6826 1.33051,0.99464 1.80919,1.11311 v 0.11059 c 0,0 0.15376,-0.0486 0.18397,-0.0553 0.0302,0.007 0.18397,0.0553 0.18397,0.0553 v -0.11059 c 0.47868,-0.11847 1.593,-0.43051 1.80919,-1.11311 1.06997,-3.37839 1.36717,-28.25348 1.9327,-42.33126 1.01768,-25.33341 2.68006,-49.84712 3.46025,-75.65792 0.13672,-4.523 0.76916,-0.85317 1.23145,-10.26346 0.99961,-20.3484 -0.27009,-61.09538 -0.817,-68.588576 -0.84345,-11.556134 -5.23301,-28.333405 -7.34168,-30.44207 -0.0196,-0.0196 -0.0462,-0.02547 -0.0677,-0.04186 V 35.83142 c 0,0 -0.1816,-0.02261 -0.39119,0.0072 -0.0259,-0.0037 -0.0538,-0.01399 -0.0785,-0.01602 z" /><path
         id="path9"
         style="fill:#b8b8b8;fill-opacity:1;stroke:none;stroke-width:1.168;stroke-linecap:round;stroke-linejoin:round;paint-order:markers fill stroke"
         inkscape:label="Штука "
         d="m 104.5285,258.59455 c -0.77778,1.65148 -0.99276,5.3265 -0.24908,6.61458 0.24074,0.41698 0.86102,1.37078 1.57896,1.37078 0.71794,-10e-6 1.3378,-0.95391 1.57847,-1.37078 0.74368,-1.28808 0.5287,-4.9631 -0.24908,-6.61458 -0.40211,-0.85382 -0.90751,-1.9608 -1.32934,-1.96114 -0.42183,-3.3e-4 -0.92759,1.10685 -1.32993,1.96114 z"
         sodipodi:nodetypes="sscsscs" /><path
         id="path12"
         style="fill:#b8b8b8;fill-opacity:1;stroke:none;stroke-width:1.168;stroke-linecap:round;stroke-linejoin:round;paint-order:markers fill stroke"
         inkscape:label="Боковая Часть ВЗ Крыла"
         d="m 78.34974,229.76117 -5.774842,29.7248 0.746208,12.44162 4.14755,-1.78336 1.700155,-22.43635 z m 55.0168,0 -0.81907,17.94671 1.70067,22.43635 4.14703,1.78336 0.74621,-12.44162 z" /><path
         id="path13"
         style="fill:#dddddd;fill-opacity:1;stroke:none;stroke-width:1.168;stroke-linecap:round;stroke-linejoin:round;paint-order:markers fill stroke"
         inkscape:label="Передняя Часть ВЗ Крыла"
         d="m 76.638733,227.17993 -4.893241,32.38924 0.912089,-0.12454 5.693192,-29.67623 z m 58.438807,0 -1.71204,2.58847 5.6932,29.67623 0.91208,0.12454 z" /><path
         id="path15"
         style="fill:#808080;fill-opacity:1;stroke:none;stroke-width:2.10801;stroke-linecap:round;stroke-linejoin:round;paint-order:markers fill stroke"
         d="m 71.019667,266.62918 c 0.104752,2.44346 0.636063,7.23365 1.633498,7.1986 0.997453,-0.0351 1.19033,-4.85068 1.123308,-7.29547 -0.09343,-3.40824 -0.716107,-8.69852 -1.684128,-8.6645 -0.968021,0.034 -1.218764,5.35498 -1.072678,8.76137 z"
         sodipodi:nodetypes="scscs"
         inkscape:label="Левая штука" /><path
         id="path120"
         style="fill:url(#radialGradient1);fill-opacity:1;stroke:none;stroke-width:2.10801;stroke-linecap:round;stroke-linejoin:round;paint-order:markers fill stroke"
         d="m 71.019667,266.62918 c 0.104752,2.44346 0.636063,7.23365 1.633498,7.1986 0.997453,-0.0351 1.19033,-4.85068 1.123308,-7.29547 -0.09343,-3.40824 -0.716107,-8.69852 -1.684128,-8.6645 -0.968021,0.034 -1.218764,5.35498 -1.072678,8.76137 z"
         sodipodi:nodetypes="scscs"
         inkscape:label="Градиент Левой штуки" /><path
         id="path124"
         style="fill:url(#radialGradient123);fill-opacity:1;stroke:none;stroke-width:2.10801;stroke-linecap:round;stroke-linejoin:round;paint-order:markers fill stroke"
         d="m 71.019667,266.62918 c 0.104752,2.44346 0.636063,7.23365 1.633498,7.1986 0.997453,-0.0351 1.19033,-4.85068 1.123308,-7.29547 -0.09343,-3.40824 -0.716107,-8.69852 -1.684128,-8.6645 -0.968021,0.034 -1.218764,5.35498 -1.072678,8.76137 z"
         sodipodi:nodetypes="scscs"
         inkscape:label="Градиент 2 Левой штуки" /><path
         id="path17"
         style="fill:#e8e8e8;fill-opacity:1;stroke:none;stroke-width:1.168;stroke-linecap:round;stroke-linejoin:round;paint-order:markers fill stroke"
         inkscape:label="Нос"
         d="m 105.39822,36.038627 c -2.10866,2.108657 -6.49822,18.88598 -7.341673,30.44207 -0.06644,0.910326 -0.196642,3.55796 -0.279053,5.353678 0.916193,-0.575286 2.469296,-1.343401 3.184306,-1.585433 2.18634,-0.740088 4.11972,-0.828561 4.89944,-0.886768 0.77971,0.05821 2.70739,0.14668 4.89376,0.886768 0.71501,0.242032 2.26758,1.010147 3.18378,1.585433 -0.0824,-1.795718 -0.21265,-4.443352 -0.27905,-5.353678 -0.84345,-11.55609 -5.23301,-28.333413 -7.34167,-30.44207 -0.0214,-0.02136 -0.22683,-0.199678 -0.45614,-0.199678 -0.24425,0 -0.44234,0.178308 -0.4637,0.199678 z"
         sodipodi:nodetypes="cscscsccscc" /><path
         id="path27"
         style="fill:#a1a1a1;fill-opacity:1;stroke:none;stroke-width:1.168;stroke-linecap:round;stroke-linejoin:round;paint-order:markers fill stroke"
         inkscape:label="Внутренняя часть воздухозабоника"
         d="m 95.874768,131.31602 -8.590173,0.005 -10e-4,3.17759 8.591724,-0.002 z m 19.967252,0 -0.001,3.18068 8.59172,0.002 -10e-4,-3.17759 z m -19.967252,3.69486 -8.590173,0.005 -10e-4,3.17758 8.591724,-0.002 z m 19.967252,0 -0.001,3.1812 8.59172,0.002 -10e-4,-3.17758 z m -19.967252,3.70003 -8.590173,0.005 -10e-4,3.17758 8.591724,-0.002 z m 19.967252,0 -0.001,3.1812 8.59172,0.002 -10e-4,-3.17758 z m -19.967252,3.69952 -8.590173,0.005 -10e-4,3.17758 8.591724,-0.002 z m 19.967252,0 -0.001,3.18068 8.59172,0.002 -10e-4,-3.17758 z m -19.967252,3.70003 -8.590173,0.005 -10e-4,3.17758 8.591724,-0.002 z m 19.967252,0 -0.001,3.18069 8.59172,0.002 -10e-4,-3.17758 z" /><path
         id="path28"
         style="fill:#dddddd;fill-opacity:1;stroke:none;stroke-width:1.168;stroke-linecap:round;stroke-linejoin:round;paint-order:markers fill stroke"
         inkscape:label="Верхняя часть воздухозабоника"
         d="m 95.874768,131.31602 -8.590173,0.005 -10e-4,3.17759 7.276559,-0.002 z m 19.967252,0 1.31414,3.18068 7.27655,0.002 -0.001,-3.17759 z m -19.967252,3.69486 -8.590173,0.005 -10e-4,3.17758 7.276559,-0.002 z m 19.967252,0 1.31414,3.1812 7.27655,0.002 -0.001,-3.17759 z m -19.967252,3.70003 -8.590173,0.005 -10e-4,3.17758 7.276559,-0.002 z m 19.967252,0 1.31414,3.1812 7.27655,0.002 -0.001,-3.17758 z m -19.967252,3.69952 -8.590173,0.005 -10e-4,3.17758 7.276559,-0.002 z m 19.967252,0 1.31414,3.18068 7.27655,0.002 -0.001,-3.17758 z m -19.967252,3.70003 -8.590173,0.005 -10e-4,3.17758 7.276559,-0.002 z m 19.967252,0 1.31414,3.18069 7.27655,0.002 -0.001,-3.17758 z" /><path
         id="path62"
         style="fill:#808080;fill-opacity:1;stroke:none;stroke-width:1.168;stroke-linecap:round;stroke-linejoin:round;paint-order:markers fill stroke"
         d="m 105.53568,22.13405 c 0,0.658041 0.002,14.339176 0.002,14.339176 l 0.3204,-0.05633 0.32039,0.05633 c 0,0 0.002,-13.681135 0.002,-14.339176 0,-2.218942 -0.28994,-3.248061 -0.31833,-3.248061 -0.0284,0 -0.32659,1.029119 -0.32659,3.248061 z"
         sodipodi:nodetypes="scccscs"
         inkscape:label="Шпилька" /><path
         id="path94"
         style="fill:#808080;fill-opacity:1;stroke:none;stroke-width:2.10801;stroke-linecap:round;stroke-linejoin:round;paint-order:markers fill stroke"
         d="m 140.6967,266.62918 c -0.10475,2.44346 -0.63606,7.23365 -1.6335,7.1986 -0.99745,-0.0351 -1.19033,-4.85068 -1.12331,-7.29547 0.0934,-3.40824 0.71611,-8.69852 1.68413,-8.6645 0.96802,0.034 1.21876,5.35498 1.07268,8.76137 z"
         sodipodi:nodetypes="scscs"
         inkscape:label="Правая штука" /><path
         id="path119"
         style="fill:url(#radialGradient121);fill-opacity:1;stroke:none;stroke-width:2.10801;stroke-linecap:round;stroke-linejoin:round;paint-order:markers fill stroke"
         d="m 140.6967,266.62918 c -0.10475,2.44346 -0.63606,7.23365 -1.6335,7.1986 -0.99745,-0.0351 -1.19033,-4.85068 -1.12331,-7.29547 0.0934,-3.40824 0.71611,-8.69852 1.68413,-8.6645 0.96802,0.034 1.21876,5.35498 1.07268,8.76137 z"
         sodipodi:nodetypes="scscs"
         inkscape:label="Градиент Правой штуки" /><path
         id="path123"
         style="fill:url(#radialGradient124);fill-opacity:1;stroke:none;stroke-width:2.10801;stroke-linecap:round;stroke-linejoin:round;paint-order:markers fill stroke"
         d="m 140.6967,266.62918 c -0.10475,2.44346 -0.63606,7.23365 -1.6335,7.1986 -0.99745,-0.0351 -1.19033,-4.85068 -1.12331,-7.29547 0.0934,-3.40824 0.71611,-8.69852 1.68413,-8.6645 0.96802,0.034 1.21876,5.35498 1.07268,8.76137 z"
         sodipodi:nodetypes="scscs"
         inkscape:label="Градиент 2 правой штуки" /><path
         id="path107"
         style="fill:#5c5c5c;fill-opacity:1;stroke:none;stroke-width:1.168;stroke-linecap:round;stroke-linejoin:round;paint-order:markers fill stroke"
         d="m 105.86178,85.870728 c -0.73346,0 -3.69038,0.265929 -4.36561,0.655773 -1.730979,0.999379 -2.544172,10.795166 -2.92955,16.325619 -0.44932,6.44798 0.10365,14.7953 0.913638,19.36368 0.715682,4.0363 2.102612,7.40685 3.097482,11.3838 1.15329,4.61011 0.40176,8.15063 1.49397,9.24284 0.20081,0.20081 0.82444,0.57026 1.79007,0.57051 0.96563,2.5e-4 1.58916,-0.3696 1.79007,-0.57051 1.09221,-1.09221 0.34068,-4.63273 1.49397,-9.24284 0.99487,-3.97695 2.38182,-7.3475 3.09748,-11.3838 0.81,-4.56838 1.36296,-12.9157 0.91364,-19.36368 -0.38538,-5.530453 -1.19857,-15.32624 -2.92953,-16.325619 -0.67524,-0.389844 -3.63218,-0.655773 -4.36563,-0.655773 z"
         inkscape:label="Стекло" /><path
         id="path108"
         style="display:inline;fill:#454545;fill-opacity:1;stroke:none;stroke-width:1.168;stroke-linecap:round;stroke-linejoin:round;paint-order:markers fill stroke"
         d="m 101.49681,86.526501 c -1.730982,0.99938 -2.544165,10.795161 -2.929545,16.325619 -0.44932,6.44799 0.10364,14.7953 0.91363,19.36368 0.715685,4.03631 2.102625,7.40685 3.097505,11.3838 1.15329,4.61012 0.40176,8.15063 1.49397,9.24284 0.20081,0.20081 0.82454,0.57036 1.79017,0.57061 0.96563,2.5e-4 1.58913,-0.3697 1.79004,-0.57061 1.09221,-1.09221 0.34068,-4.63272 1.49397,-9.24284 0.99487,-3.97695 2.38182,-7.34749 3.09748,-11.3838 0.81,-4.56838 1.36296,-12.91569 0.91364,-19.36368 -0.38538,-5.530458 -1.19857,-15.326239 -2.92954,-16.325619 -0.67524,-0.389845 -3.63217,-0.655592 -4.36562,-0.655592 -0.73346,0 -3.69039,0.265747 -4.36563,0.655592 z m 4.36563,0.06253 c 0.70897,-0.01151 2.82923,0.108269 3.91449,0.734839 1.08428,0.666081 2.66871,13.62252 2.12907,13.76712 -0.55502,0.14872 -1.51138,-0.53767 -2.95383,-0.90227 -1.18136,-0.298616 -2.65785,-0.379969 -3.08973,-0.379969 -0.43188,0 -1.90838,0.08136 -3.08974,0.379969 -1.44244,0.3646 -2.3988,1.05099 -2.953832,0.90227 -0.539643,-0.1446 1.044802,-13.101039 2.129082,-13.76712 1.08525,-0.62657 3.20551,-0.746349 3.91449,-0.734839 z m 0,14.978409 c 1.1874,0.003 4.37029,0.11115 6.10505,1.84589 0.36815,0.36815 0.21173,5.45135 0.16123,8.22637 -0.13023,7.16097 -1.73427,14.01214 -2.02055,14.17743 -1.05566,0.60949 -2.79443,0.62307 -4.24574,0.62306 -1.45131,-1e-5 -3.19018,-0.0136 -4.24573,-0.62306 -0.28628,-0.16529 -1.890335,-7.01646 -2.020565,-14.17743 -0.0505,-2.77502 -0.20692,-7.85822 0.161233,-8.22637 1.734782,-1.73474 4.917662,-1.84287 6.105072,-1.84589 z"
         sodipodi:nodetypes="csssscssssscsccsscsscccscsccsscs"
         inkscape:label="Карбон" /></g></g></svg>
