<?xml version="1.0" encoding="UTF-8" standalone="no"?>
<!-- Created with Inkscape (http://www.inkscape.org/) -->

<svg
   width="1010"
   height="1010"
   viewBox="0 0 1010 1010"
   version="1.1"
   id="svg1"
   xml:space="preserve"
   sodipodi:docname="cheater_desert_cam.svg"
   inkscape:version="1.3.2 (091e20e, 2023-11-25, custom)"
   xmlns:inkscape="http://www.inkscape.org/namespaces/inkscape"
   xmlns:sodipodi="http://sodipodi.sourceforge.net/DTD/sodipodi-0.dtd"
   xmlns:xlink="http://www.w3.org/1999/xlink"
   xmlns="http://www.w3.org/2000/svg"
   xmlns:svg="http://www.w3.org/2000/svg"><sodipodi:namedview
     id="namedview1"
     pagecolor="#ffffff"
     bordercolor="#000000"
     borderopacity="0.25"
     inkscape:showpageshadow="2"
     inkscape:pageopacity="0.0"
     inkscape:pagecheckerboard="0"
     inkscape:deskcolor="#d1d1d1"
     inkscape:zoom="0.70710678"
     inkscape:cx="429.92092"
     inkscape:cy="418.60722"
     inkscape:window-width="1718"
     inkscape:window-height="1408"
     inkscape:window-x="1713"
     inkscape:window-y="0"
     inkscape:window-maximized="0"
     inkscape:current-layer="svg1"
     showguides="true" /><defs
     id="defs1"><linearGradient
       id="linearGradient27"><stop
         style="stop-color:#000000;stop-opacity:1;"
         offset="0.48656526"
         id="stop27" /><stop
         style="stop-color:#000000;stop-opacity:0;"
         offset="0.90063429"
         id="stop28" /></linearGradient><linearGradient
       id="linearGradient25"><stop
         style="stop-color:#333333;stop-opacity:0.28850856;"
         offset="0"
         id="stop25" /><stop
         style="stop-color:#e6e6e6;stop-opacity:0;"
         offset="0.67730498"
         id="stop26" /></linearGradient><linearGradient
       id="linearGradient16"><stop
         style="stop-color:#e6e6e6;stop-opacity:1;"
         offset="0"
         id="stop16" /><stop
         style="stop-color:#cecece;stop-opacity:0;"
         offset="1"
         id="stop17" /></linearGradient><linearGradient
       id="linearGradient5"><stop
         style="stop-color:#ffeac5;stop-opacity:1;"
         offset="0"
         id="stop5" /><stop
         style="stop-color:#d6c199;stop-opacity:1;"
         offset="1"
         id="stop6" /></linearGradient><linearGradient
       id="linearGradient13"><stop
         style="stop-color:#cecece;stop-opacity:1;"
         offset="0"
         id="stop13" /><stop
         style="stop-color:#b6b6b6;stop-opacity:1;"
         offset="1"
         id="stop14" /></linearGradient><linearGradient
       id="linearGradient11"><stop
         style="stop-color:#c7c7c7;stop-opacity:1;"
         offset="0"
         id="stop11" /><stop
         style="stop-color:#b1b1b1;stop-opacity:1;"
         offset="1"
         id="stop12" /></linearGradient><clipPath
       clipPathUnits="userSpaceOnUse"
       id="clipPath134"><path
         id="path135"
         style="fill:#ff0000;fill-opacity:1;fill-rule:nonzero;stroke:none;stroke-width:1.34078"
         d="m 1610.7749,1448.0779 117.7809,141.7335 h 133.1621 c -0.048,-0.053 -0.099,-0.1059 -0.1469,-0.158 -4.5395,-5.0612 -8.8811,-10.1528 -13.2441,-15.2418 -5.071,-5.9953 -9.9312,-11.9933 -14.7709,-17.984 -6.3633,-7.9366 -12.6368,-15.8655 -18.6331,-23.7527 -6.0987,-8.0445 -11.9699,-16.052 -18.17,-24.1144 -1.2871,-1.4927 -2.5665,-2.9856 -3.884,-4.5469 -4.065,-4.8164 -7.9929,-9.6387 -12.069,-14.4553 -4.3288,-5.1514 -8.6982,-10.3014 -13.0363,-15.4524 -5.1365,-6.1387 -10.1667,-12.2791 -15.1845,-18.4159 -1.0842,-1.3331 -2.1609,-2.6661 -3.2393,-3.9991 -1.0929,-1.2032 -2.1807,-2.409 -3.2719,-3.613 z m 267.5879,0 c 7.65,7.8213 14.3838,15.8204 20.2921,23.7984 4.479,6.3696 5.6814,7.8401 9.2498,13.8549 4.5067,7.5961 7.4804,14.3663 10.2071,20.9438 2.3394,5.7279 1.3794,3.3328 3.5627,8.8445 2.216,5.593 4.4931,11.2498 5.8608,16.2706 0.5319,1.9528 0.8181,3.7244 1.2261,5.5862 0.163,3.1311 0.9463,8.7394 -1.3889,9.5467 -3.1449,1.0871 -6.7186,1.9058 -12.1422,0.165 -1.2019,-0.3857 -2.4437,-0.9174 -3.7058,-1.5168 -10e-5,0.063 0.01,0.1264 0.01,0.1896 8.8525,10.2278 17.5558,20.4721 26.2178,30.7153 1.2742,1.5225 2.5492,3.0455 3.8234,4.568 2.5841,3.0872 4.8961,5.9801 7.0668,8.7673 h 53.2129 l -117.7809,-141.7335 z m 13.3671,60.6265 c 0.017,0.033 0.042,0.084 0.059,0.1159 0.1114,0.2079 0.4919,0.855 0.3719,0.6425 -0.1422,-0.2523 -0.2901,-0.5067 -0.4311,-0.7584 z m -36.4514,62.4313 c 0.1665,0.213 0.333,0.426 0.4997,0.639 0.2153,0.1987 0.4305,0.4009 0.6465,0.5969 -0.3485,-0.4072 -0.6967,-0.8147 -1.0467,-1.2219 -0.033,0 -0.067,-0.011 -0.1,-0.014 z m 53.3774,12.777 c -0.3655,0.4556 -0.7945,0.8493 -1.1908,1.2745 -0.6567,0.3537 -1.1819,0.8499 -1.9675,1.0639 -0.1863,0.051 -0.3983,0.062 -0.5912,0.1018 1.1917,1.1507 2.3821,2.3038 3.5713,3.4584 h 5.3047 c -1.6875,-1.8968 -3.3956,-3.862 -5.1265,-5.8987 z" /></clipPath><clipPath
       clipPathUnits="userSpaceOnUse"
       id="clipPath137"><path
         id="path137"
         style="fill:#ff0000;fill-opacity:1;fill-rule:nonzero;stroke:none;stroke-width:1.00313"
         d="m 498.09532,889.20097 8.8873,79.69241 h 146.63477 c -0.27294,-2.33806 -0.56896,-4.67593 -0.82715,-7.01445 -0.45998,-4.03498 -0.92396,-8.06995 -1.40853,-12.10481 -0.47475,-3.91816 -0.94971,-7.83729 -1.5392,-11.753 -0.56193,-3.72704 -1.11504,-7.45353 -1.60066,-11.18304 -0.60601,-4.49582 -1.10922,-8.9935 -1.45153,-13.48844 -0.36518,-5.72492 -0.46048,-11.43578 -0.11843,-17.08704 0.14283,-2.35772 0.32937,-4.70841 0.49959,-7.06163 z" /></clipPath><clipPath
       clipPathUnits="userSpaceOnUse"
       id="clipPath188"><path
         id="path189"
         style="fill:#ff0000;fill-opacity:1;fill-rule:nonzero;stroke:none"
         d="m 454.44141,255.96289 v 0.54297 c 0.16009,-0.18315 0.3239,-0.36375 0.48828,-0.54297 z m 3.80468,0 c -0.007,0.018 -0.0103,0.0342 -0.0176,0.0527 0.0694,0.0435 0.11405,0.0886 0.14062,0.13672 0.0433,-0.063 0.0858,-0.12637 0.12891,-0.18945 z m 9.07227,0 c 0.0166,0.12913 0.0206,0.26389 0.0156,0.4043 0.67985,-0.044 1.24169,0.17634 1.61133,0.5625 0.36819,-0.2986 0.69827,-0.56725 1.19141,-0.9668 z m 9.66016,0 c -1.33971,1.15032 -2.68237,2.29671 -4.04297,3.42188 -1.67343,1.35433 -2.32159,1.90372 -4.06446,3.21289 -1.78747,1.34268 -3.63452,2.59973 -5.5,3.83007 0.11912,0.28829 0.16652,0.66788 0.0977,1.13282 -0.0599,0.40451 -0.12135,0.80903 -0.18555,1.21289 -0.0926,0.5579 -0.19482,1.11359 -0.30664,1.66797 -0.0206,0.10222 0.0409,0.29294 -0.0625,0.30664 -0.72884,0.0968 -1.46988,-0.004 -2.20508,-0.006 -2e-4,-0.0861 -0.003,-0.17367 0,-0.25977 0.002,-0.0438 0.009,-0.0873 0.0137,-0.13086 0.005,-0.045 0.0107,-0.0897 0.0156,-0.13476 v -0.002 c -0.003,-0.0127 -3.4e-4,-0.0301 0.006,-0.0488 8.1e-4,-0.008 10e-4,-0.0156 0.002,-0.0234 0.0132,-0.13116 0.0242,-0.26316 0.0352,-0.39453 -0.34402,-0.01 -0.55944,-0.0103 -0.69531,-0.0352 -0.13548,0.66382 -0.29322,1.32325 -0.49219,1.9707 -0.72697,2.3657 -3.13191,1.6204 -2.38867,-0.74023 0.30258,-0.96103 0.52413,-1.95152 0.64453,-2.95313 -0.2621,0.311 -0.51346,0.63025 -0.78711,0.93165 -1.66365,1.8322 -3.61257,0.27378 -1.95117,-1.56055 0.4235,-0.46759 0.82828,-0.95107 1.22656,-1.43945 -0.18891,-0.23763 -0.41736,-0.53997 -0.76367,-0.99024 -0.1042,-0.0851 -0.16114,-0.15276 -0.17578,-0.22656 -0.0402,-0.0514 -0.0668,-0.0885 -0.10938,-0.14258 -0.0768,-0.0974 0.15708,-0.19136 0.23828,-0.28516 0.0297,-0.0343 0.0615,-0.0708 0.0918,-0.10546 0.0169,-0.0285 0.0283,-0.0465 0.0469,-0.0781 0.0214,-0.029 0.0412,-0.0588 0.0625,-0.0879 0.0973,-0.37692 0.29152,-0.80508 0.49218,-1.20703 -0.4838,0.52378 -1.09395,1.17202 -1.77929,1.5 V 339.5 H 506.75 v -83.53711 z" /></clipPath><clipPath
       clipPathUnits="userSpaceOnUse"
       id="clipPath224"><path
         id="path225"
         style="fill:#ff0000;fill-opacity:1;fill-rule:nonzero;stroke:none"
         d="m 460.80469,137.4082 v 126.81641 c 5.8e-4,-0.0497 0.004,-0.0993 0.01,-0.14844 0.012,-0.1032 0.0456,-0.17222 0.082,-0.23047 0.002,-0.0293 0.004,-0.0586 0.006,-0.0879 0.0205,-0.25553 0.15094,-0.37691 0.2793,-0.37695 0.14547,-5e-5 0.28908,0.15545 0.26953,0.44531 -0.007,0.0973 -0.0164,0.19392 -0.0254,0.29102 -0.0201,0.21859 -0.0268,0.43884 -0.0352,0.6582 0.002,0.0252 0.004,0.0478 0.01,0.13867 0.002,0.0308 0.004,0.0611 0.006,0.0918 0.0866,0.0475 0.16338,0.13479 0.17969,0.31445 0.006,0.0624 0.0245,0.12139 0.0469,0.17969 0.0322,0.0739 0.0707,0.1451 0.10742,0.2168 0.19666,0.38449 -0.0676,0.59828 -0.31054,0.4414 8.1e-4,0.011 9e-4,0.0222 0.002,0.0332 0.0405,0.54538 -0.51028,0.58641 -0.55078,0.041 -8.2e-4,-0.011 -9e-4,-0.0222 -0.002,-0.0332 -0.0221,0.009 -0.0438,0.0298 -0.0664,0.0234 -0.003,-7.9e-4 -0.005,-0.003 -0.008,-0.004 v 2.34375 h 97.02734 V 137.4082 Z m 0,127.97071 v 0.1289 c 0.006,-0.003 0.0149,-0.002 0.0215,-0.004 -6.1e-4,-0.007 -9e-4,-0.0144 -0.002,-0.0215 -0.003,-0.015 -0.007,-0.0299 -0.01,-0.0449 -0.003,-0.0197 -0.007,-0.039 -0.01,-0.0586 z m 0.01,0.55664 c -0.003,0.006 -0.007,0.0131 -0.01,0.0215 v 0.008 c 0.003,-0.0102 0.006,-0.0196 0.01,-0.0293 z" /></clipPath><linearGradient
       xlink:href="#linearGradient11"
       id="linearGradient12"
       x1="430.62131"
       y1="661.10309"
       x2="518.21106"
       y2="661.10309"
       gradientUnits="userSpaceOnUse"
       gradientTransform="translate(-4)" /><linearGradient
       xlink:href="#linearGradient13"
       id="linearGradient14"
       x1="458.8671"
       y1="361.31049"
       x2="472.14362"
       y2="369.91885"
       gradientUnits="userSpaceOnUse"
       gradientTransform="translate(-0.00236939,-6.6174257)" /><filter
       style="color-interpolation-filters:sRGB"
       id="filter26"
       x="-1.2730069"
       y="-0.28911956"
       width="3.5460137"
       height="1.5782391"><feGaussianBlur
         stdDeviation="26.173827"
         id="feGaussianBlur26" /></filter><filter
       style="color-interpolation-filters:sRGB"
       id="filter16"
       x="-0.00012089259"
       y="-0.00011815028"
       width="1.0002418"
       height="1.0002363"><feGaussianBlur
         stdDeviation="0.0012020189"
         id="feGaussianBlur16" /></filter><radialGradient
       xlink:href="#linearGradient16"
       id="radialGradient17"
       cx="464.29672"
       cy="360.55023"
       fx="464.29672"
       fy="360.55023"
       r="26.495195"
       gradientTransform="matrix(1,0,0,1.0013742,0,-0.49547224)"
       gradientUnits="userSpaceOnUse" /><linearGradient
       xlink:href="#linearGradient5"
       id="linearGradient19"
       x1="199.52017"
       y1="530.26562"
       x2="199.52017"
       y2="352.70038"
       gradientUnits="userSpaceOnUse" /><linearGradient
       xlink:href="#linearGradient25"
       id="linearGradient26"
       x1="364.61438"
       y1="538.12646"
       x2="373.31055"
       y2="488.0455"
       gradientUnits="userSpaceOnUse" /><linearGradient
       xlink:href="#linearGradient27"
       id="linearGradient28"
       x1="540"
       y1="846.71185"
       x2="540"
       y2="540"
       gradientUnits="userSpaceOnUse"
       gradientTransform="matrix(0.9276718,0,0,1.4159434,39.057198,-256.9282)" /></defs><g
     id="layer4"
     style="display:inline;opacity:1;fill:#e6e6e6"
     inkscape:label="layer4"><g
       id="g3"
       transform="translate(-34.2979,-36.493577)"
       inkscape:label="g3"><rect
         style="display:inline;opacity:1;fill:#000000;fill-opacity:1;stroke:#000000;stroke-width:2.75588;stroke-linecap:round;stroke-linejoin:round;stroke-opacity:0;paint-order:stroke fill markers"
         id="rect2"
         width="5.8125858"
         height="21.079544"
         x="537.01715"
         y="132.36127" /><g
         id="g2"
         style="display:inline"
         inkscape:label="низ"><use
           x="0"
           y="0"
           xlink:href="#path30"
           id="use30"
           transform="matrix(-1,0,0,1,1082.6065,0.97179)"
           style="display:inline;opacity:1;fill:#e6e6e6" /><path
           style="display:inline;opacity:1;fill:#000000;fill-opacity:1;stroke:none;stroke-width:3;stroke-linecap:round;stroke-linejoin:round;stroke-dasharray:none;stroke-opacity:1;paint-order:stroke fill markers"
           d="m 436.26749,549.01441 -17.13989,32.32658 2.60768,22.2587 21.86327,-2.62885 z"
           id="path30" /><use
           x="0"
           y="0"
           xlink:href="#path39"
           id="use14"
           transform="matrix(-1,0,0,1,1081.3724,0)"
           style="display:inline;opacity:1;fill:url(#radialGradient17);fill-opacity:1" /><path
           style="display:inline;opacity:1;fill:#cbaa70;fill-opacity:1"
           d="m 442.02751,385.31111 c 0,0 9.10596,-17.67858 15.83722,-27.99304 5.04645,-7.73279 7.33514,-11.68753 12.55133,-16.47367 7.9367,-7.28236 20.37586,-6.82578 20.37586,-6.82578 l -14.82304,48.71462 z"
           id="path39" /><use
           x="0"
           y="0"
           xlink:href="#path5"
           id="use1"
           transform="matrix(-1,0,0,1,1082.6172,-3.0000001e-6)"
           style="display:inline;opacity:1;fill:#e6e6e6"
           inkscape:label="use1" /><path
           style="display:inline;opacity:1;fill:#cbaa70;fill-opacity:1"
           d="m 518.43104,743.63219 c -55.25993,0 -52.14288,-10.68053 -57.73331,-42.99258 l -11.35175,-65.61179 c -15.06984,-87.10194 -13.0678,-89.01992 -13.0678,-89.01992 l 68.92461,10.13963 c 0,0 24.70285,187.48466 13.22825,187.48466 z"
           id="path5" /><g
           id="g53"
           inkscape:label="1 слой комуфляжа"
           style="display:inline;opacity:1;fill:#d19b4b;fill-opacity:1"><path
             style="fill:#d19b4b;fill-opacity:1;stroke-width:3;stroke-linecap:round;stroke-linejoin:round;paint-order:stroke fill markers"
             d="m 637.31516,611.27333 -4.04394,23.75449 c 0,0 -14.75579,-26.53277 -15.18242,6.74433 -0.42663,33.27711 -11.77831,43.47054 -15.57198,22.39805 -3.79367,-21.07249 -0.42663,-58.44824 10.87905,-71.46044 11.30568,-13.01221 26.48569,3.39466 23.91929,18.56357 z"
             id="path53" /><path
             style="display:inline;opacity:1;fill:#d19b4b;fill-opacity:1;stroke-width:3.27728;stroke-linecap:round;stroke-linejoin:round;paint-order:stroke fill markers"
             d="m 489.65207,720.14671 -1.42241,-17.06439 c 0,0 -17.85881,-10.94656 -12.8186,3.8354 5.04022,14.78196 14.24101,13.22899 14.24101,13.22899 z"
             id="path55" /><path
             style="display:inline;opacity:1;fill:#d19b4b;fill-opacity:1;stroke-width:3;stroke-linecap:round;stroke-linejoin:round;paint-order:stroke fill markers"
             d="m 443.59855,600.97084 c 0,0 -1.70775,-31.37376 10.45119,-23.69443 12.15894,7.67933 20.66209,50.87898 29.43744,26.0244 8.77534,-24.85457 31.99721,19.83828 20.69153,33.06379 -11.30568,13.22552 -31.63041,61.37119 -32.21053,39.03661 -0.42663,-16.42525 -22.6222,-40.37339 -22.6222,-40.37339"
             id="path54"
             sodipodi:nodetypes="cssssc" /><path
             style="fill:#d19b4b;fill-opacity:1;stroke-width:3;stroke-linecap:round;stroke-linejoin:round;paint-order:stroke fill markers"
             d="m 609.51012,706.46521 c 0,0 12.21774,4.07258 5.27927,-6.03346 -6.93847,-10.10603 -10.40771,-18.55286 -11.91607,-8.7485 -1.50836,9.80436 6.6368,14.78196 6.6368,14.78196 z"
             id="path56" /><path
             style="fill:#d19b4b;fill-opacity:1;stroke-width:3;stroke-linecap:round;stroke-linejoin:round;paint-order:stroke fill markers"
             d="m 615.43978,345.56377 c 0,0 -5.45694,1.97263 -1.29731,11.78511 4.15964,9.81248 5.55636,17.54541 0.75169,15.49212 -4.80467,-2.05329 -18.03673,-18.19374 -18.03673,-18.19374 0,0 0.6329,-15.13757 7.36591,-14.47022 6.733,0.66736 6.733,0.66736 6.733,0.66736 l 2.19477,2.14014 z"
             id="path57" /><path
             style="fill:#d19b4b;fill-opacity:1;stroke-width:3;stroke-linecap:round;stroke-linejoin:round;paint-order:stroke fill markers"
             d="m 454.04974,375.90727 c 0,0 -0.53329,-10.45243 2.87975,-11.94563 3.41303,-1.4932 9.27919,2.34646 10.66574,-6.07947 1.38654,-8.42593 7.35936,-6.39944 7.14604,-5.11955 -0.21331,1.27988 14.13321,-4.54214 9.99969,1.14196 -4.13353,5.68411 -22.26529,26.37564 -22.26529,26.37564 0,0 -9.49251,4.37295 -8.42593,-4.37295 z"
             id="path58" /></g><g
           id="g62"
           inkscape:label="2 слой комуфляжа"
           style="fill:#7f5928;fill-opacity:1"><path
             style="fill:#7f5928;fill-opacity:1;stroke-width:3;stroke-linecap:round;stroke-linejoin:round;paint-order:stroke fill markers"
             d="m 623.50767,357.31807 c 0,0 -13.05363,-3.97502 -6.81337,6.89236 6.24025,10.86738 12.3136,9.75095 8.749,17.32305 -3.5646,7.57211 8.04979,8.32629 8.04979,8.32629 0,0 5.58215,-5.21185 2.70685,-10.51583 -2.8753,-5.30398 -2.8753,-5.30398 -2.8753,-5.30398 z"
             id="path61" /><path
             style="display:inline;opacity:1;fill:#7f5928;fill-opacity:1;stroke-width:3;stroke-linecap:round;stroke-linejoin:round;paint-order:stroke fill markers"
             d="m 605.28991,711.83046 c 9.49948,-21.89871 29.01081,-48.63577 17.70513,-60.79471 -11.30569,-12.15895 -22.4898,-12.65678 -20.47822,6.61275 2.01158,19.26953 16.45959,30.37247 4.08119,35.78248 -12.3784,5.41 -10.48063,27.35869 -6.21434,26.0788 4.2663,-1.27988 4.28822,-6.25464 4.90624,-7.67932 z"
             id="path60"
             sodipodi:nodetypes="ssssss" /><path
             style="display:inline;opacity:1;fill:#7f5928;fill-opacity:1;stroke-width:3;stroke-linecap:round;stroke-linejoin:round;paint-order:stroke fill markers"
             d="m 445.4002,569.8075 c 4.12824,-7.66672 20.64588,-12.54224 16.89367,-0.30167 -3.75222,12.24056 -11.6144,26.69803 -4.9776,35.44653 6.6368,8.74851 21.26792,31.9773 9.9552,30.77061 -11.31273,-1.20669 -19.45789,-12.97192 -16.89367,-17.94952 2.56422,-4.9776 -0.94328,-16.34297 -3.77091,-21.87127 -2.82763,-5.52829 -5.43011,-18.25119 -1.20669,-26.09468 z"
             id="path59"
             sodipodi:nodetypes="sssssss" /></g><g
           id="g64"
           inkscape:label="3 слой комуфляжа"
           style="fill:#3d2105;fill-opacity:1"><path
             style="display:inline;opacity:1;fill:#3d2105;fill-opacity:1;stroke-width:3;stroke-linecap:round;stroke-linejoin:round;paint-order:stroke fill markers"
             d="m 622.56841,537.70652 c 0,0 23.1214,13.46764 10.77239,33.91705 -12.34901,20.44942 -12.69223,26.45103 -6.93273,32.63716 5.7595,6.18613 1.11984,30.27739 -11.30568,15.89195 -12.42552,-14.38544 -26.34437,-21.22482 -22.07808,-35.83688 4.2663,-14.61206 0.1096,-37.32902 9.91914,-37.33009 9.80954,-0.001 19.62496,-9.27919 19.62496,-9.27919 z"
             id="path64" /><path
             style="display:inline;opacity:1;fill:#3d2105;fill-opacity:1;stroke-width:3;stroke-linecap:round;stroke-linejoin:round;paint-order:stroke fill markers"
             d="m 466.91516,676.15539 c -3.54163,-1.81074 -17.14071,-5.28755 -5.0738,-13.58355 12.06691,-8.296 33.26715,-7.60196 33.26715,-7.60196 0,0 -10.71066,32.46268 -15.6193,39.57926 -4.90864,7.11657 -6.82252,17.90862 1.83631,17.58678 8.65882,-0.32183 -0.0263,15.59721 -6.3614,11.37379 -6.33513,-4.22342 -9.30675,-29.23231 -7.77029,-33.10766 3.47534,-8.76569 6.36431,-10.85029 -0.27867,-14.24666 z"
             id="path63"
             sodipodi:nodetypes="sscsssss" /><path
             style="display:inline;opacity:1;fill:#3d2105;fill-opacity:1;stroke-width:3;stroke-linecap:round;stroke-linejoin:round;paint-order:stroke fill markers"
             d="m 468.29095,342.9122 c 0,0 5.82823,-1.38442 3.9972,3.98426 -1.83103,5.36868 -4.3761,8.61529 -1.4932,11.19903 2.8829,2.58373 2.06304,5.46469 -2.34646,5.33286 -4.40951,-0.13182 -10.66574,-3.30637 -6.61276,-7.67933 4.05298,-4.37295 2.32498,-7.88809 2.32498,-7.88809 z"
             id="path62" /></g></g><use
         x="0"
         y="0"
         xlink:href="#path1"
         id="use58"
         transform="matrix(-1,0,0,1,1080,0)"
         style="display:inline;opacity:1;fill:#dddddd;fill-opacity:1"
         inkscape:label="физюляшь 2" /><path
         style="display:inline;opacity:1;fill:#ffeac5;fill-opacity:1"
         d="m 544.86397,950.5152 -126.38292,0.005 c -0.45304,2e-5 -2.12494,-9.35509 -2.16482,-19.0298 -0.01,-2.41516 0,-50.7049 0,-54.93543 0,-10.48364 -2.81178,-16.72907 5.58609,-16.72907 19.48797,-0.54907 62.46809,3.93129 67.62034,-32.89596 0.0269,-7.30211 -4.03738,-103.37603 -4.03738,-103.37603 0,0 -12.1979,-155.49704 -16.67348,-156.80867 C 417.3229,551.65661 225.92062,527.50166 225.92062,527.50166 V 373.70593 c 0,0 172.68333,22.15805 214.6069,20.15255 22.13503,-1.05887 37.74847,-30.55471 42.27108,-52.58479 5.07525,-24.72208 7.83501,-37.69111 4.08426,-62.6485 -3.53507,-23.52224 -0.68632,-28.18504 4.92036,-77.15103 1.89344,-16.53633 20.10816,-28.08994 24.01851,-46.63352 3.35166,-15.89416 24.39678,-15.89416 24.39678,-15.89416 z"
         id="path1"
         inkscape:label="физюляшь "
         transform="translate(1.49999,-8.54737)"
         sodipodi:nodetypes="ccssccccccssssscc" /><g
         id="g4"
         inkscape:label="1 слой комуфляжа"
         style="fill:#ddb57a;fill-opacity:1"><path
           style="display:inline;opacity:1;fill:#ddb57a;fill-opacity:1;stroke-width:3;stroke-linecap:round;stroke-linejoin:round;paint-order:stroke fill markers"
           d="m 443.09365,575.24322 c 0,0 45.39989,1.77323 45.39989,-30.4373 0,-32.21053 8.22439,-31.74507 16.83356,-16.83355 8.60917,14.91151 12.10279,17.13478 16.83353,8.94091 4.73074,-8.19388 31.72822,3.57915 13.88242,13.88242 -17.84579,10.30328 27.16785,35.01388 18.22198,50.50858 -8.94587,15.4947 -18.04749,16.14761 -38.31909,5.46625 -18.1128,-9.54385 -18.3901,-11.64364 -36.75879,-13.56234 -10.71163,-1.11888 -32.54332,19.49283 -32.54332,19.49283 z"
           id="path4"
           transform="translate(34.6729,35.243577)"
           sodipodi:nodetypes="cssssssscc" /><path
           style="display:inline;opacity:1;fill:#ddb57a;fill-opacity:1;stroke-width:3;stroke-linecap:round;stroke-linejoin:round;paint-order:stroke fill markers"
           d="m 456.46762,395.04597 c 0,0 46.64452,8.3789 34.69889,34.82993 -11.94563,26.45104 25.17114,25.17115 25.17114,25.17115 0,0 24.90122,3.40838 5.98252,22.32708 -18.91869,18.9187 -39.96403,-5.91566 -39.96403,-10.70833 0,-4.79268 0,-4.79268 0,-4.79268 0,0 -47.93136,-4.69292 -47.93136,-29.01081 0,-24.31788 -21.29764,-36.88251 -21.29764,-36.88251 z"
           id="path6" /><path
           style="display:inline;opacity:1;fill:#ddb57a;fill-opacity:1;stroke-width:3;stroke-linecap:round;stroke-linejoin:round;paint-order:stroke fill markers"
           d="m 590.41795,500.00399 c 0,0 -0.63677,0.5954 -1.73995,1.59576 -8.23396,7.46655 -42.45097,37.49297 -31.80976,10.88995 12.0669,-30.16727 -27.45221,-44.94923 1.81004,-52.18937 29.26224,-7.24014 42.53584,-24.43548 47.96595,-32.58064 5.4301,-8.14517 6.72753,-38.03647 6.72753,-38.03647 l 14.58847,6.64741 31.90309,-0.15081 c 0,0 -49.80989,66.43677 1.59897,87.98156 51.40886,21.54479 11.23526,32.63427 0.10076,39.92165 -9.58892,6.27583 -23.17865,4.64086 -31.47195,-13.83891 -18.43258,-49.0189 -15.881,-61.50115 -39.67315,-10.24013 z"
           id="path7"
           sodipodi:nodetypes="csssscccsssc" /><path
           style="display:inline;opacity:1;fill:#ddb57a;fill-opacity:1;stroke-width:3;stroke-linecap:round;stroke-linejoin:round;paint-order:stroke fill markers"
           d="m 305.73518,529.49754 c 0,0 -47.72172,-49.27935 -11.4582,-74.66381 36.26351,-25.38445 66.8314,-15.73426 64.58163,11.73218 -1.43654,17.53811 -28.64037,8.14256 -25.86728,15.18194 2.77309,7.03939 21.82021,32.99883 24.16667,3.77471 2.34646,-29.22412 60.67707,2.62487 51.0779,18.41016 -9.59916,15.7853 2.63919,41.88029 2.63919,41.88029 l -39.88024,-6.61505 -6.38047,-1.07147 -16.7687,-2.48531 -6.3089,-0.94157 -18.62187,-2.74686 -5.03794,-0.69616 z"
           id="path8"
           sodipodi:nodetypes="cssssscccccccc" /><path
           style="fill:#ddb57a;fill-opacity:1;stroke-width:3;stroke-linecap:round;stroke-linejoin:round;paint-order:stroke fill markers"
           d="m 596.29271,674.77624 c 0,0 -68.56104,-5.98779 -56.33961,41.36809 12.22143,47.35588 -32.57467,44.7961 -22.33556,80.20635 10.23911,35.41025 46.07599,-37.11677 49.48903,-15.78529 3.41303,21.33147 23.83406,-16.55423 23.83406,-16.55423 z"
           id="path9" /><path
           style="fill:#ddb57a;fill-opacity:1;stroke-width:3;stroke-linecap:round;stroke-linejoin:round;paint-order:stroke fill markers"
           d="m 462.15578,941.97108 c 0,0 -50.13533,-27.4085 -4.48597,-42.34053 45.64936,-14.93203 29.90694,17.74388 49.10527,-17.23975 19.19833,-34.98362 112.04956,-2.98936 57.99498,2.88962 -39.62447,4.30956 -75.73662,56.68954 -75.73662,56.68954 z"
           id="path13"
           sodipodi:nodetypes="cssscc" /><path
           style="fill:#ddb57a;fill-opacity:1;stroke-width:3;stroke-linecap:round;stroke-linejoin:round;paint-order:stroke fill markers"
           d="m 489.4622,278.61638 c 0,0 69.77648,-23.15177 50.4909,-50.60398 -19.28558,-27.45221 44.69962,-42.38638 2.74396,-47.32998 -41.95566,-4.94359 -34.23124,-15.79133 -34.23124,-15.79133 l -10.50926,15.23128 -2.5045,4.93409 -1.8402,5.15091 -1.3056,11.22114 -3.96939,30.68165 -1.38867,14.4291 0.0677,11.45691 1.36693,12.08165 z"
           id="path14" /><path
           style="fill:#ddb57a;fill-opacity:1;stroke-width:3;stroke-linecap:round;stroke-linejoin:round;paint-order:stroke fill markers"
           d="m 592.03022,312.89341 c 0,0 -26.62997,-20.33228 -51.16453,4.84949 -24.53456,25.18176 -16.82134,36.80406 0.0469,25.94384 16.86824,-10.86021 23.58014,-26.66632 37.08031,-15.98865 13.50017,10.67767 13.50017,10.67767 13.50017,10.67767 l 4.16144,-5.55569 z"
           id="path16" /><path
           style="display:inline;opacity:1;fill:#ddb57a;fill-opacity:1;stroke-width:3;stroke-linecap:round;stroke-linejoin:round;paint-order:stroke fill markers"
           d="m 762.24718,388.20162 24.53426,-2.59916 c 0,0 25.63711,14.83601 3.87901,45.1267 -21.75811,30.2907 -48.63577,25.59778 -36.26352,10.23911 12.37226,-15.35866 12.37226,-15.35866 12.37226,-15.35866 0,0 8.81172,-29.26388 0.0632,-28.66053 -8.74851,0.60334 -4.58522,-8.74746 -4.58522,-8.74746 z"
           id="path26" /><path
           style="display:inline;opacity:1;fill:#ddb57a;fill-opacity:1;stroke-width:3;stroke-linecap:round;stroke-linejoin:round;paint-order:stroke fill markers"
           d="m 491.80508,415.25401 c 0,0 29.76002,-46.44927 40.32601,-19.8133 10.56599,26.63598 48.79055,-2.26746 28.36098,-21.42942 -20.42957,-19.16197 -42.37645,-16.58133 -42.37645,-8.43617 0,8.14516 -15.54845,17.49702 -23.69361,16.29032 -8.14517,-1.20669 -28.19035,18.81337 -21.26295,22.64342 6.92739,3.83005 18.64602,10.74515 18.64602,10.74515 z"
           id="path50"
           sodipodi:nodetypes="csssssc" /><path
           style="display:inline;opacity:1;fill:#ddb57a;fill-opacity:1;stroke-width:3;stroke-linecap:round;stroke-linejoin:round;paint-order:stroke fill markers"
           d="m 489.30719,771.20287 c 0,0 15.08483,-0.0233 12.52506,9.36252 -2.55978,9.38585 -11.0062,23.45322 5.11955,24.10457 16.12575,0.65136 33.27711,15.14534 20.47822,26.23771 -12.79889,11.09237 -0.93954,23.75144 -21.75811,24.31789 -20.81856,0.56645 -18.22465,-24.89875 -18.22465,-24.89875 l 1.93198,-4.7208 0.76686,-2.67023 0.87655,-4.55321 z"
           id="path51" /><path
           style="display:inline;opacity:1;fill:#ddb57a;fill-opacity:1;stroke-width:3;stroke-linecap:round;stroke-linejoin:round;paint-order:stroke fill markers"
           d="m 769.92524,530.243 c 0,0 65.57926,-65.53593 8.81191,-66.51636 -56.76735,-0.98043 -93.88083,-11.23937 -81.50857,-32.57085 12.37225,-21.33147 -45.67011,-27.50087 -43.09996,0.32834 2.57015,27.82921 2.08267,59.6974 26.88803,51.29384 24.80537,-8.40356 24.80537,-8.40356 24.80537,-8.40356 0,0 38.6379,17.57227 14.44455,36.56111 -24.19335,18.98884 -15.46232,28.9881 -15.46232,28.9881 z"
           id="path52" /></g><g
         id="g27"
         inkscape:label="2 слой комуфляжа"
         style="display:inline;opacity:1;fill:#95682f;fill-opacity:1"><path
           style="fill:#95682f;fill-opacity:1;stroke-width:3;stroke-linecap:round;stroke-linejoin:round;paint-order:stroke fill markers"
           d="m 609.68821,558.19788 c 0,0 15.35805,-36.05466 -19.93765,-23.38441 -35.2957,12.67025 8.72308,-44.0442 -20.51374,-46.45758 C 540,485.94251 531.57859,530.01166 540,536.18347 c 8.42141,6.17182 13.40763,16.05687 3.22187,32.38227 -10.18577,16.32539 -25.10882,48.20486 -3.22187,38.64917 21.88695,-9.5557 42.26066,-25.41713 52.76729,-16.29032 10.50662,9.1268 11.84362,-3.00771 11.84362,-3.00771 l 3.22307,-23.59632 0.84651,-3.91998 z"
           id="path27" /><path
           style="fill:#95682f;fill-opacity:1;stroke-width:3;stroke-linecap:round;stroke-linejoin:round;paint-order:stroke fill markers"
           d="m 424.73563,478.40069 c 0,0 -32.88232,-2.41338 -7.84349,-25.03883 25.03883,-22.62545 66.66965,-34.99403 62.44623,-9.9552 -4.22341,25.03883 -40.12246,12.36858 -21.11708,30.16727 19.00537,17.79868 33.82257,21.34418 39.39414,2.17022 5.57157,-19.17397 33.30896,0.54483 23.05209,13.21508 -10.25686,12.67025 9.9552,21.72043 -2.1117,31.67563 -12.06691,9.9552 -23.06499,8.98021 -27.15054,-3.01673 -4.08555,-11.99694 -28.07308,-27.881 -31.53355,-16.05221 -3.46048,11.8288 -18.84578,27.81745 -30.61102,15.1472 -11.76523,-12.67026 -4.52508,-38.31243 -4.52508,-38.31243 z"
           id="path29" /><path
           style="fill:#95682f;fill-opacity:1;stroke-width:3;stroke-linecap:round;stroke-linejoin:round;paint-order:stroke fill markers"
           d="m 687.23034,395.0217 c 0,0 52.23456,4.13688 36.8759,28.88139 -15.35867,24.74451 -76.73142,15.41172 -49.48903,40.10318 27.24239,24.69146 27.24239,24.69146 27.24239,24.69146 0,0 10.71114,36.13914 -14.84309,15.8014 -25.55422,-20.33775 -105.70921,-40.42558 -77.24699,-46.03905 28.46222,-5.61346 57.93172,-22.32842 38.06121,-42.22893 -19.8705,-19.90052 -10.7235,-19.07305 -10.7235,-19.07305 z"
           id="path31" /><path
           style="fill:#95682f;fill-opacity:1;stroke-width:3;stroke-linecap:round;stroke-linejoin:round;paint-order:stroke fill markers"
           d="m 484.13794,680.29857 c 0,0 43.4136,12.93525 33.48563,-14.99057 -9.92797,-27.92583 22.28263,-58.09309 22.32953,-32.75259 0.0469,25.3405 2.50237,86.02954 22.37901,69.10945 19.87663,-16.92008 38.68931,25.59625 -1.11198,22.60919 -39.80129,-2.98706 -72.51869,32.01607 -72.51869,32.01607 l -1.71617,-41.28358 z"
           id="path32" /><path
           style="fill:#95682f;fill-opacity:1;stroke-width:3;stroke-linecap:round;stroke-linejoin:round;paint-order:stroke fill markers"
           d="m 550.68395,921.25613 c 23.73704,11.9425 84.61918,31.07228 82.50747,-6.33513 -2.11171,-37.40741 15.9081,-52.13362 -18.10036,-44.94922 -34.00846,7.1844 -6.93847,19.30705 -13.27359,29.56392 -6.33513,10.25687 -35.53216,4.94117 -28.6263,-15.62978 6.90587,-20.57094 16.27919,-65.82184 -8.47944,-48.6265 -24.75863,17.19534 -0.93532,23.58761 -6.95362,32.15671 -6.0183,8.5691 -40.05646,21.8427 -17.75811,32.40124 22.29835,10.55854 1.70452,16.90106 10.68395,21.41876 z"
           id="path33"
           sodipodi:nodetypes="sssssssss" /><path
           style="fill:#95682f;fill-opacity:1;stroke-width:3;stroke-linecap:round;stroke-linejoin:round;paint-order:stroke fill markers"
           d="m 580.97203,239.38582 c 4.69292,27.94423 -28.54284,9.38585 -21.11817,30.71732 7.42468,21.33148 10.51492,35.19694 -4.69292,27.51761 -15.20784,-7.67933 -38.46939,-15.94358 -25.46663,-39.29984 13.00277,-23.35626 22.42259,-13.33943 23.32761,-25.10466 0.90501,-11.76523 29.88095,-28.61293 27.95011,6.16957 z"
           id="path34" /><path
           style="fill:#95682f;fill-opacity:1;stroke-width:3;stroke-linecap:round;stroke-linejoin:round;paint-order:stroke fill markers"
           d="m 572.01281,362.46844 c 0,0 -15.47288,-48.14587 -37.33009,-29.43744 -21.85721,18.70843 -20.05159,58.44825 -0.63994,46.07599 19.41164,-12.37226 38.95391,-4.2663 33.23576,8.10596 -5.71816,12.37226 20.09293,18.7717 17.74647,0.21332 -2.34647,-18.55839 -13.0122,-24.95783 -13.0122,-24.95783 z"
           id="path35" /><path
           style="fill:#95682f;fill-opacity:1;stroke-width:3;stroke-linecap:round;stroke-linejoin:round;paint-order:stroke fill markers"
           d="m 287.87753,404.91808 c 0,0 -27.51861,37.42794 -2.34646,40.10317 25.17215,2.67524 26.27669,-9.36096 37.9763,-32.71663 6.38314,-12.74252 56.73546,-16.77239 39.67028,14.79819 -17.06519,31.57059 54.39526,18.98502 40.5298,-3.41303 -13.86546,-22.39805 1.98354,-27.96488 1.98354,-27.96488 l -54.26367,-4.28956 -53.92238,-5.32 z"
           id="path36"
           sodipodi:nodetypes="csssscccc" /><path
           style="fill:#95682f;fill-opacity:1;stroke-width:3;stroke-linecap:round;stroke-linejoin:round;paint-order:stroke fill markers"
           d="m 791.44545,527.1834 c 0,0 -42.5947,-92.18794 22.67962,-83.22872 65.27432,8.95922 38.40742,63.5678 38.40742,63.5678 l -27.14045,15.06039 z"
           id="path37" /></g><g
         id="g38"
         inkscape:label="3 слой комуфляжа"
         style="display:inline;opacity:1;fill:#542e05;fill-opacity:1"><path
           style="fill:#542e05;fill-opacity:1;stroke-width:3;stroke-linecap:round;stroke-linejoin:round;paint-order:stroke fill markers"
           d="m 489.4622,278.61638 c 0,0 33.4178,-16.83251 28.65342,8.97857 -4.76438,25.81109 -6.62172,43.08959 7.60788,39.03661 14.2296,-4.05298 32.35523,5.45758 14.2296,15.35866 -18.12563,9.90108 -49.32445,17.12199 -49.16218,0.0284 0.16227,-17.09358 -3.47305,-24.427 -3.47305,-24.427 l 2.47889,-17.86067 0.23002,-13.174 z"
           id="path38" /><path
           style="fill:#542e05;fill-opacity:1;stroke-width:3;stroke-linecap:round;stroke-linejoin:round;paint-order:stroke fill markers"
           d="m 453.96067,850.09279 c 0,0 23.76701,21.98463 10.11486,28.17076 -13.65214,6.18613 -29.65075,45.64936 -4.05298,38.39666 25.59777,-7.2527 63.44545,-28.72781 55.34948,-52.94071 -2.57159,-7.69096 -17.31932,1.49628 -24.15987,-2.85926 -6.61195,-4.20999 -8.82074,-22.43953 -12.38381,-19.99046 -3.56307,2.44907 -8.46283,4.94818 -8.46283,4.94818 l -5.98115,2.1264 -8.15601,1.80947"
           id="path41"
           sodipodi:nodetypes="cssaasccc" /><path
           style="fill:#542e05;fill-opacity:1;stroke-width:3;stroke-linecap:round;stroke-linejoin:round;paint-order:stroke fill markers"
           d="m 588.93045,818.47632 c 0,0 -91.11149,4.09904 -81.97865,-13.80636 9.13284,-17.90541 21.63313,2.34646 33.0013,-18.55839 11.36817,-20.90485 31.82214,-10.97289 30.23441,0.69969 -1.58774,11.67257 19.29833,14.14444 19.29833,14.14444"
           id="path42"
           sodipodi:nodetypes="csssc" /><path
           style="display:inline;opacity:1;fill:#542e05;fill-opacity:1;stroke-width:3;stroke-linecap:round;stroke-linejoin:round;paint-order:stroke fill markers"
           d="m 605.40352,382.73324 c 0,0 -38.12498,-18.36481 -38.12498,6.67402 0,25.03883 -28.97548,48.14352 -39.0692,32.66943 -10.09372,-15.47409 -37.07744,27.98746 -6.73487,34.31541 30.34257,6.32795 83.66139,17.18183 74.61122,-6.95198 -9.05018,-24.13381 24.58031,-56.43319 24.58031,-56.43319 z"
           id="path44" /><path
           style="display:inline;opacity:1;fill:#542e05;fill-opacity:1;stroke-width:3;stroke-linecap:round;stroke-linejoin:round;paint-order:stroke fill markers"
           d="m 472.61391,567.10663 c 0,0 51.87999,-14.57122 49.69942,-55.7433 -2.18057,-41.17208 34.50801,-11.46071 17.63977,18.40487 -16.86824,29.86559 -30.66905,52.22997 0.0469,59.41157 30.71595,7.1816 71.10553,20.31313 30.89395,24.22468 -40.21157,3.91154 -62.25413,-42.67417 -77.03609,-35.7357 -14.78196,6.93847 -17.90845,15.54202 -17.90845,15.54202 z"
           id="path43"
           sodipodi:nodetypes="cssssscc" /><path
           style="display:inline;opacity:1;fill:#542e05;fill-opacity:1;stroke-width:3;stroke-linecap:round;stroke-linejoin:round;paint-order:stroke fill markers"
           d="m 540,685.95147 c -11.48899,-25.94385 13.85152,-28.6589 13.85152,-28.6589 0,0 19.04262,3.9699 14.11518,19.31305 -4.92743,15.34316 -21.51738,30.90953 -6.20189,34.3063 15.3155,3.39678 33.57369,17.68951 16.52219,21.19546 -17.0515,3.50595 -50.20134,15.21883 -44.9334,-4.17499 5.26795,-19.39382 13.42064,-33.33519 6.6464,-41.98092 z"
           id="path47"
           sodipodi:nodetypes="ccssssc" /><path
           style="display:inline;opacity:1;fill:#542e05;fill-opacity:1;stroke-width:3;stroke-linecap:round;stroke-linejoin:round;paint-order:stroke fill markers"
           d="m 719.69605,452.49456 c -6.49195,-11.12907 17.34618,-51.8877 34.84319,-34.69236 17.49702,17.19534 49.60251,39.05617 24.19791,45.92444 -25.4046,6.86827 -41.09158,14.71176 -29.62802,34.62216 11.46356,19.91039 10.77301,32.75204 -0.62867,34.68984 -12.20055,2.07357 -24.32567,3.88318 -36.45614,5.52272 -19.15354,2.58876 -32.99571,-37.94767 -16.20664,-55.67211 16.78906,-17.72444 33.38106,-14.10437 23.87837,-30.39469 z"
           id="path48"
           sodipodi:nodetypes="ssssssss" /><path
           style="display:inline;opacity:1;fill:#542e05;fill-opacity:1;stroke-width:2.5714;stroke-linecap:round;stroke-linejoin:round;paint-order:stroke fill markers"
           d="m 303.43476,476.44182 c 0.14229,22.35704 36.11171,35.1697 41.64234,34.80352 23.89485,-1.58205 54.50754,-89.17969 29.68449,-89.17969 -24.82305,0 -34.23783,9.91779 -27.66736,20.16874 6.57047,10.25093 0.37294,34.99459 -7.14769,36.21565 -7.52065,1.22107 -6.87993,-27.23023 -8.17279,-32.66027 -1.29287,-5.43005 -21.65073,-11.49476 -20.52874,3.91939 1.13574,15.60291 -7.83956,22.12884 -7.81025,26.73266 z"
           id="path49"
           sodipodi:nodetypes="ssssssss" /></g><use
         x="0"
         y="0"
         xlink:href="#path25"
         id="use26"
         transform="matrix(-1,0,0,1,1079.9531,0.09375)"
         style="display:inline;opacity:1;fill:#e6e6e6"
         inkscape:label="тень на крыле 2" /><path
         style="display:inline;opacity:0.745631;fill:url(#linearGradient26);fill-opacity:1;stroke:none;stroke-width:1.6;stroke-linecap:round;stroke-linejoin:round;stroke-dasharray:none;stroke-opacity:1;paint-order:stroke fill markers"
         d="m 470.31179,558.19827 17.00794,-52.57708 -19.829,-2.86522 -207.36972,-32.39009 -15.10851,15.77003 9.54856,36.35321 33.94659,4.60053 43.04041,6.1192 24.25025,3.61922 24.41177,3.807 21.46274,3.52703 31.94127,5.73035 16.42759,3.33297 c 0,0 7.23028,1.5848 10.82329,2.47046 3.16287,0.77963 9.44682,2.50239 9.44682,2.50239 z"
         id="path25"
         inkscape:label="тень на крыле" /><use
         x="0"
         y="0"
         xlink:href="#path10"
         id="use10"
         transform="translate(241.74692,0.01968045)"
         inkscape:label="оперение 2" /><path
         style="display:inline;opacity:1;fill:#000000;fill-opacity:1;stroke-width:1.21658"
         d="m 419.4103,950.07191 c 1.50202,0.002 3.53031,-22.06188 4.05931,-30.15458 1.69762,-25.97061 3.18084,-48.17011 -0.0673,-68.6388 -0.45632,-2.87549 -1.48737,-7.10977 -3.99197,-7.10977 -2.45742,0 -3.46725,4.42442 -3.98393,7.19606 -2.81893,15.12142 -1.63399,41.41996 -0.19086,68.45963 0.441,8.26301 2.80651,30.24555 4.17479,30.24746 z"
         id="path10"
         inkscape:label="оперение" /><use
         x="0"
         y="0"
         xlink:href="#g16"
         id="use16"
         transform="matrix(-0.99999988,0,0,1,1079.8399,0.0958215)"
         inkscape:label="окна 2" /><g
         id="g16"
         transform="matrix(0.96824643,0,0,1,15.659096,-0.0958215)"
         style="display:inline;opacity:1;fill:#2e2e2e;fill-opacity:1"
         inkscape:label="окна"><path
           style="display:inline;opacity:1;fill:#2e2e2e;fill-opacity:1"
           d="M 490.48023,214.67929 H 500.25 V 255.25 c 0,0 -13.6016,-0.17661 -13.65556,-2.70512 -0.003,-0.14713 0.0128,-2.19018 0.0128,-2.19018 l 0.13776,-3.71962 0.283,-3.97048 0.26971,-2.85814 0.25662,-2.39083 0.48763,-4.11729 0.2745,-2.18472 0.33382,-2.58744 0.35969,-2.73857 0.29183,-2.20295 0.42158,-3.17404 0.42991,-3.24622 z"
           id="path15" /><rect
           style="display:inline;opacity:1;fill:#2e2e2e;fill-opacity:1"
           id="rect16"
           width="31.59026"
           height="40.570709"
           x="506.99557"
           y="214.67929" /><path
           style="display:inline;opacity:1;fill:#2e2e2e;fill-opacity:1"
           d="m 494.46272,187.33329 c 0,0 1.56069,-2.80395 16.08391,-5.03145 9.93383,-1.5236 14.42728,-1.45621 20.04835,-1.52362 l 7.99085,-0.0958 -10e-6,27.72888 c 0,0 -3.55219,0.0227 -11.68394,0.0227 -5.30836,0 -10.93222,0.003 -14.47467,0.003 -9.61615,0 -21.1224,-0.12439 -21.1224,-0.12439 0,0 1.01117,-7.95309 1.48593,-11.96988 0.0582,-0.49248 0.11069,-1.01505 0.1751,-1.50675 0.19831,-1.514 0.34739,-3.03849 0.66135,-4.53279 0.19196,-0.91363 0.42682,-1.67021 0.42682,-1.67021"
           id="path11" /></g><rect
         style="display:inline;opacity:0.745631;mix-blend-mode:normal;fill:#ffffff;fill-opacity:0.482474;stroke:#ffffff;stroke-opacity:1;filter:url(#filter26)"
         id="rect26"
         width="49.738289"
         height="219"
         x="518.21106"
         y="368"
         transform="matrix(0.98843202,0,0,0.76176569,5.8992161,-25.079774)"
         inkscape:label="блик" /><use
         x="0"
         y="0"
         xlink:href="#path2"
         id="use3"
         transform="matrix(-1,0,0,1,1079.9149,0)"
         style="display:inline;opacity:1;fill:#e6e6e6"
         inkscape:label="обводка крыла" /><path
         style="display:inline;opacity:1;fill:#000000;fill-opacity:1"
         d="m 485.17298,328.46293 c 0,0 5.70752,6.09828 5.61794,13.55569 -0.14999,12.48654 -3.31922,18.44695 -3.31922,18.44695 -2.99718,8.95042 -14.14599,24.08111 -20.92856,29.21765 -6.6167,5.01093 -15.44322,7.83377 -23.73547,7.47488 -18.21735,-0.78843 -18.2436,-0.87965 -29.68053,-1.1783 -31.52368,-0.82318 -64.09848,-5.09362 -95.45942,-7.77818 -28.91782,-2.47543 -85.91347,-10.78337 -85.91347,-10.78337 l -4.33364,-12.25969 c 0,0 30.51421,3.81303 45.78484,5.6068 19.97918,2.34686 39.9662,4.63254 59.97148,6.74539 14.12037,1.49131 28.27742,3.00973 42.42719,4.18989 17.79489,1.48418 35.78939,3.05227 53.63633,3.64184 4.33558,0.14322 7.70702,0.11712 12.1438,-0.003 2.95816,-0.08 6.44504,-0.81472 9.19568,-1.9061 3.12189,-1.23869 6.11501,-3.14606 8.77186,-5.20074 2.6109,-2.01915 4.89648,-4.45268 7.04281,-6.96007 2.13008,-2.4884 4.04376,-5.17309 5.74665,-7.97123 2.70073,-4.43776 5.01921,-9.1183 7.04119,-13.90362 1.44904,-3.42937 2.67577,-7.02141 3.64248,-10.61665 0.9346,-3.47583 2.34806,-10.31824 2.34806,-10.31824 z"
         id="path2"
         inkscape:label="обводка крыла" /><use
         x="0"
         y="0"
         xlink:href="#g46"
         id="use5"
         transform="matrix(-1,0,0,1,1079.3458,6.1938359e-8)"
         style="display:inline;opacity:1;fill:#e6e6e6"
         inkscape:label="винт 2" /><g
         id="g46"
         style="display:inline;opacity:1;fill:#e6e6e6"
         transform="translate(29.369988,-1.2686789)"
         inkscape:label="винт"><path
           style="display:inline;fill:#000000;fill-opacity:1"
           d="M 196.92924,359.21025 6.7175144,333.0473 390.32294,332.69374 Z"
           id="path46" /><ellipse
           style="display:inline;opacity:1;fill:#000000;fill-opacity:1;stroke-width:1.6672"
           id="ellipse46"
           cx="197.44331"
           cy="356.32333"
           rx="21.098331"
           ry="39.893028" /><ellipse
           style="display:inline;opacity:1;fill:#000000;fill-opacity:1"
           id="path45"
           cx="199.58089"
           cy="529.44623"
           rx="20.152544"
           ry="15.026019"
           transform="translate(-1.530265,5.80276)" /><path
           style="display:inline;opacity:1;fill:url(#linearGradient19);fill-opacity:1"
           d="m 226.68628,530.28125 c 0,0 -0.40439,-33.65284 2.4429,-49.82414 0,0 12.0392,-53.75368 12.0533,-68.45711 0.0195,-20.34858 -14.4962,-59.29962 -14.4962,-59.29962 h -54.33223 c 0,0 -15.53553,43.98403 -15.53553,59.29962 0,15.31559 12.07106,69.5 12.07106,69.5 1.94145,19.78153 3.46447,48.75 3.46447,48.75 z"
           id="path40"
           transform="translate(-1.530265,5.80276)" /></g><use
         x="0"
         y="0"
         xlink:href="#path12"
         id="use17"
         transform="matrix(-1,0,0,1,1079.9531,-6.6825848e-4)"
         inkscape:label="нос 2" /><path
         style="display:inline;opacity:1;fill:#000000;fill-opacity:1;filter:url(#filter16)"
         d="m 516.33599,149.98121 c 0,0 4.10362,2.46721 11.72962,3.86905 5.82082,1.07001 12.13326,0.9626 12.13326,0.9626 l -0.11249,-24.41308 c 0,0 -5.20118,-0.10937 -11.382,2.47993 -2.60485,1.09124 -3.94297,2.09566 -5.10336,3.0248 -1.12422,0.90018 -1.6395,1.57585 -2.18712,2.10952 -3.61439,3.52232 -5.0776,11.96718 -5.0776,11.96718 z"
         id="path12"
         inkscape:label="нос"
         sodipodi:nodetypes="csccssscc" /><use
         x="0"
         y="0"
         xlink:href="#path3"
         id="use4"
         transform="matrix(-1,0,0,1,1079.3458,1e-6)"
         style="display:inline;opacity:1;fill:#e6e6e6"
         inkscape:label="закрылки 2" /><path
         style="display:inline;opacity:1;fill:#000000;fill-opacity:1;stroke:#000000;stroke-width:2;stroke-linecap:round;stroke-linejoin:bevel;stroke-dasharray:none;stroke-opacity:1"
         d="m 260.12101,470.36588 207.36972,32.39009"
         id="path3"
         inkscape:label="закрылки" /><path
         style="display:inline;opacity:1;fill:#ffffff;fill-opacity:0.00392157;stroke:#030303;stroke-width:1.6;stroke-linecap:butt;stroke-linejoin:bevel;stroke-dasharray:none;stroke-dashoffset:0;stroke-opacity:1;paint-order:normal"
         d="m 490.00967,341.61237 c 0,0 17.55909,13.85381 50.05283,13.23695 33.58228,-0.63752 49.89658,-13.0182 49.89658,-13.0182"
         id="path28"
         inkscape:label="линия у кабины" /><use
         x="0"
         y="0"
         xlink:href="#path17"
         id="use18"
         transform="matrix(-1,0,0,1,1080,3.03e-6)"
         inkscape:label="линия у крыла 2" /><path
         style="display:inline;opacity:1;fill:#000000;fill-opacity:1;stroke:#000000;stroke-width:1.2;stroke-linecap:round;stroke-linejoin:round;stroke-dasharray:none;stroke-opacity:1;paint-order:stroke fill markers"
         d="m 466.54314,389.68322 47.64439,32.88082 -43.87574,135.63383 45.10675,-136.21701 z"
         id="path17"
         inkscape:label="линия у крыла" /><g
         id="g1"
         style="display:inline"
         inkscape:label="полосы на хвосте"
         transform="matrix(1,0,0,1.0008623,0,-0.71848938)"><rect
           style="display:inline;opacity:1;fill:#000000;fill-opacity:1;stroke:#000000;stroke-width:1;stroke-dasharray:none;stroke-opacity:1"
           id="rect1"
           width="2.625"
           height="71.744675"
           x="592.25"
           y="869.63269" /><rect
           style="display:none;opacity:1;fill:url(#linearGradient28);stroke:none;stroke-width:1.77817;stroke-linecap:round;stroke-linejoin:round;stroke-dasharray:none;stroke-opacity:1;paint-order:stroke fill markers"
           id="rect27"
           width="33.667088"
           height="434.28659"
           x="523.16644"
           y="507.68124" /><rect
           style="display:inline;opacity:1;fill:#000000;fill-opacity:1;stroke:#000000;stroke-width:1;stroke-dasharray:none;stroke-opacity:1"
           id="rect29"
           width="2.625"
           height="71.744675"
           x="485.125"
           y="869.63269"
           inkscape:label="rect29" /><rect
           style="display:inline;opacity:1;fill:#000000;fill-opacity:1;stroke:#000000;stroke-width:1;stroke-dasharray:none;stroke-opacity:1"
           id="rect72"
           width="2.4945977"
           height="107.15887"
           x="538.4256"
           y="834.21851" /></g><use
         x="0"
         y="0"
         xlink:href="#g24"
         id="use40"
         transform="matrix(-1,0,0,1,1084.8819,-1.1121131)"
         style="display:none"
         inkscape:label="громоотводы? 2" /><g
         id="g24"
         style="display:none;opacity:1;fill:#b9b9b9;fill-opacity:1"
         inkscape:label="громоотводы? "><path
           style="fill:#b9b9b9;fill-opacity:1"
           d="m 414.55188,546.0079 2.66728,4.0158 3.61081,-3.16395 z"
           id="path24" /><path
           style="display:inline;opacity:1;fill:#b9b9b9;fill-opacity:1"
           d="m 389.85239,541.9921 2.66728,4.0158 3.61081,-3.16395 z"
           id="path23" /><path
           style="display:inline;opacity:1;fill:#b9b9b9;fill-opacity:1"
           d="m 364.61438,538.12649 2.66728,4.0158 3.61081,-3.16395 z"
           id="path22" /><path
           style="display:inline;opacity:1;fill:#b9b9b9;fill-opacity:1"
           d="m 341.54916,534.51505 2.66728,4.0158 3.61081,-3.16395 z"
           id="path21" /><path
           style="display:inline;opacity:1;fill:#b9b9b9;fill-opacity:1"
           d="m 317.37395,530.49925 2.66728,4.0158 3.61081,-3.16395 z"
           id="path20" /><path
           style="display:inline;opacity:1;fill:#b9b9b9;fill-opacity:1"
           d="m 295.0414,527.29263 2.75277,4.12077 3.82956,-3.2577 z"
           id="path19" /><path
           style="display:inline;opacity:1;fill:#b9b9b9;fill-opacity:1"
           d="m 269.61035,523.72505 2.83958,4.08981 3.48581,-3.16395 z"
           id="path18" /></g><g
         id="g72"
         inkscape:label="1 слой комуфляжа на винтах"
         style="fill:#ddb57a;fill-opacity:1"><path
           style="display:inline;opacity:1;fill:#ddb57a;fill-opacity:1;stroke-width:3;stroke-linecap:round;stroke-linejoin:round;paint-order:stroke fill markers"
           d="m 885.07881,396.15494 c -4.31892,-9.92092 -22.30981,-48.5304 -25.93616,-19.51959 -3.62636,29.0108 17.97155,28.2226 2.41033,36.9685 -15.56122,8.74591 -20.11285,-8.41706 -9.02048,-18.65617 11.09237,-10.23911 -10.33128,-14.67396 -14.57424,-4.02024 0,0 -17.1238,10.46847 -18.30004,19.24134 -1.82339,13.59951 7.15001,36.30593 19.50924,36.24682 19.70775,-0.0942 26.05355,24.71085 16.51588,36.83233 -9.53767,12.12148 4.73105,30.54881 10.70386,19.02982 5.97281,-11.519 23.52274,-41.77849 11.07607,-56.30151 -10.78124,-12.57976 0.91919,-17.04461 4.93492,-24.25028 4.3028,-7.72078 6.1015,-17.71297 2.68062,-25.57102 z"
           id="path66"
           sodipodi:nodetypes="assssasssssa" /><path
           style="display:inline;opacity:1;fill:#ddb57a;fill-opacity:1;stroke-width:3;stroke-linecap:round;stroke-linejoin:round;paint-order:stroke fill markers"
           d="m 193.40845,377.91391 c 0,0 26.71018,52.38276 41.27341,27.18033 14.56323,-25.20243 28.6589,-5.43011 17.19534,17.19534 -11.46356,22.62545 -37.14795,38.6141 -24.45659,56.71446 12.69136,18.10035 22.30267,37.4074 0,25.64217 -22.30267,-11.76523 -35.14322,-39.66394 -35.14322,-39.66394 l -3.85016,-20.00717 -2.11465,-12.62323 -1.19746,-8.99647 -0.45688,-6.82132 1.5192,-11.58091 4.02224,-16.16892 z"
           id="path65" /></g><g
         id="g71"
         inkscape:label="2 слой комуфляжа на винтах"
         style="display:inline;fill:#956831;fill-opacity:1"><path
           style="fill:#956831;fill-opacity:1;stroke-width:3;stroke-linecap:round;stroke-linejoin:round;paint-order:stroke fill markers"
           d="m 842.59637,378.21748 c 0,0 12.07414,-13.78494 8.02363,6.80389 -4.05051,20.58883 -7.77347,40.65166 -17.58678,18.27241 -9.81331,-22.37924 9.56315,-25.0763 9.56315,-25.0763 z"
           id="path71" /><path
           style="display:inline;opacity:1;fill:#956831;fill-opacity:1;stroke-width:3;stroke-linecap:round;stroke-linejoin:round;paint-order:stroke fill markers"
           d="m 822.3769,484.99119 c -3.30764,-12.68755 -2.95718,-11.44641 -3.15211,-14.62531 -0.76978,-12.5533 19.36261,-39.6305 24.86261,-28.3805 5.5,11.25 1.07999,25.80131 8.44509,35.46889 6.25569,8.21135 30.76541,8.03931 27.14041,14.91431 -3.625,6.875 -17.9974,34.69654 -27.14041,20.1539 -4.32677,-6.88205 -22.57633,19.95952 -14.35595,-11.43885 5.52185,-21.09115 -13.90325,-8.81822 -15.79964,-16.09244 z"
           id="path70"
           sodipodi:nodetypes="sssassss" /><path
           style="display:inline;opacity:1;fill:#956831;fill-opacity:1;stroke-width:3;stroke-linecap:round;stroke-linejoin:round;paint-order:stroke fill markers"
           d="m 267.93987,428.06067 c 0,0 -51.01697,-22.06709 -50.26697,-2.56709 0.75,19.5 18.25,33.75 23.25,35.5 5,1.75 14.96221,22.02025 4.0896,25.14233 -10.87261,3.12209 10.22109,15.90488 10.22109,15.90488 l 1.22589,-13.73035 0.75243,-4.41307 1.72924,-7.95954 2.06538,-9.83163 4.00509,-20.41066 1.63248,-9.2653 z"
           id="path67" /></g></g></g></svg>
