<?xml version="1.0" encoding="UTF-8" standalone="no"?>
<!-- Created with Inkscape (http://www.inkscape.org/) -->

<svg
   width="1010"
   height="1010"
   viewBox="0 0 1010 1010"
   version="1.1"
   id="svg1"
   xml:space="preserve"
   xmlns:xlink="http://www.w3.org/1999/xlink"
   xmlns="http://www.w3.org/2000/svg"
   xmlns:svg="http://www.w3.org/2000/svg"><defs
     id="defs1"><linearGradient
       id="linearGradient27"><stop
         style="stop-color:#d3d3d3;stop-opacity:1;"
         offset="0.49290776"
         id="stop27" /><stop
         style="stop-color:#dddddd;stop-opacity:1;"
         offset="0.9308511"
         id="stop28" /></linearGradient><linearGradient
       id="linearGradient25"><stop
         style="stop-color:#333333;stop-opacity:0.28850856;"
         offset="0"
         id="stop25" /><stop
         style="stop-color:#e6e6e6;stop-opacity:0;"
         offset="0.67730498"
         id="stop26" /></linearGradient><linearGradient
       id="linearGradient16"><stop
         style="stop-color:#e6e6e6;stop-opacity:1;"
         offset="0"
         id="stop16" /><stop
         style="stop-color:#cecece;stop-opacity:0;"
         offset="1"
         id="stop17" /></linearGradient><linearGradient
       id="linearGradient5"><stop
         style="stop-color:#d5d5d5;stop-opacity:1;"
         offset="0"
         id="stop5" /><stop
         style="stop-color:#b8b8b8;stop-opacity:1;"
         offset="1"
         id="stop6" /></linearGradient><linearGradient
       id="linearGradient13"><stop
         style="stop-color:#cecece;stop-opacity:1;"
         offset="0"
         id="stop13" /><stop
         style="stop-color:#b6b6b6;stop-opacity:1;"
         offset="1"
         id="stop14" /></linearGradient><linearGradient
       id="linearGradient11"><stop
         style="stop-color:#c7c7c7;stop-opacity:1;"
         offset="0"
         id="stop11" /><stop
         style="stop-color:#b1b1b1;stop-opacity:1;"
         offset="1"
         id="stop12" /></linearGradient><clipPath
       clipPathUnits="userSpaceOnUse"
       id="clipPath134"><path
         id="path135"
         style="fill:#ff0000;fill-opacity:1;fill-rule:nonzero;stroke:none;stroke-width:1.34078"
         d="m 1610.7749,1448.0779 117.7809,141.7335 h 133.1621 c -0.048,-0.053 -0.099,-0.1059 -0.1469,-0.158 -4.5395,-5.0612 -8.8811,-10.1528 -13.2441,-15.2418 -5.071,-5.9953 -9.9312,-11.9933 -14.7709,-17.984 -6.3633,-7.9366 -12.6368,-15.8655 -18.6331,-23.7527 -6.0987,-8.0445 -11.9699,-16.052 -18.17,-24.1144 -1.2871,-1.4927 -2.5665,-2.9856 -3.884,-4.5469 -4.065,-4.8164 -7.9929,-9.6387 -12.069,-14.4553 -4.3288,-5.1514 -8.6982,-10.3014 -13.0363,-15.4524 -5.1365,-6.1387 -10.1667,-12.2791 -15.1845,-18.4159 -1.0842,-1.3331 -2.1609,-2.6661 -3.2393,-3.9991 -1.0929,-1.2032 -2.1807,-2.409 -3.2719,-3.613 z m 267.5879,0 c 7.65,7.8213 14.3838,15.8204 20.2921,23.7984 4.479,6.3696 5.6814,7.8401 9.2498,13.8549 4.5067,7.5961 7.4804,14.3663 10.2071,20.9438 2.3394,5.7279 1.3794,3.3328 3.5627,8.8445 2.216,5.593 4.4931,11.2498 5.8608,16.2706 0.5319,1.9528 0.8181,3.7244 1.2261,5.5862 0.163,3.1311 0.9463,8.7394 -1.3889,9.5467 -3.1449,1.0871 -6.7186,1.9058 -12.1422,0.165 -1.2019,-0.3857 -2.4437,-0.9174 -3.7058,-1.5168 -10e-5,0.063 0.01,0.1264 0.01,0.1896 8.8525,10.2278 17.5558,20.4721 26.2178,30.7153 1.2742,1.5225 2.5492,3.0455 3.8234,4.568 2.5841,3.0872 4.8961,5.9801 7.0668,8.7673 h 53.2129 l -117.7809,-141.7335 z m 13.3671,60.6265 c 0.017,0.033 0.042,0.084 0.059,0.1159 0.1114,0.2079 0.4919,0.855 0.3719,0.6425 -0.1422,-0.2523 -0.2901,-0.5067 -0.4311,-0.7584 z m -36.4514,62.4313 c 0.1665,0.213 0.333,0.426 0.4997,0.639 0.2153,0.1987 0.4305,0.4009 0.6465,0.5969 -0.3485,-0.4072 -0.6967,-0.8147 -1.0467,-1.2219 -0.033,0 -0.067,-0.011 -0.1,-0.014 z m 53.3774,12.777 c -0.3655,0.4556 -0.7945,0.8493 -1.1908,1.2745 -0.6567,0.3537 -1.1819,0.8499 -1.9675,1.0639 -0.1863,0.051 -0.3983,0.062 -0.5912,0.1018 1.1917,1.1507 2.3821,2.3038 3.5713,3.4584 h 5.3047 c -1.6875,-1.8968 -3.3956,-3.862 -5.1265,-5.8987 z" /></clipPath><clipPath
       clipPathUnits="userSpaceOnUse"
       id="clipPath137"><path
         id="path137"
         style="fill:#ff0000;fill-opacity:1;fill-rule:nonzero;stroke:none;stroke-width:1.00313"
         d="m 498.09532,889.20097 8.8873,79.69241 h 146.63477 c -0.27294,-2.33806 -0.56896,-4.67593 -0.82715,-7.01445 -0.45998,-4.03498 -0.92396,-8.06995 -1.40853,-12.10481 -0.47475,-3.91816 -0.94971,-7.83729 -1.5392,-11.753 -0.56193,-3.72704 -1.11504,-7.45353 -1.60066,-11.18304 -0.60601,-4.49582 -1.10922,-8.9935 -1.45153,-13.48844 -0.36518,-5.72492 -0.46048,-11.43578 -0.11843,-17.08704 0.14283,-2.35772 0.32937,-4.70841 0.49959,-7.06163 z" /></clipPath><clipPath
       clipPathUnits="userSpaceOnUse"
       id="clipPath188"><path
         id="path189"
         style="fill:#ff0000;fill-opacity:1;fill-rule:nonzero;stroke:none"
         d="m 454.44141,255.96289 v 0.54297 c 0.16009,-0.18315 0.3239,-0.36375 0.48828,-0.54297 z m 3.80468,0 c -0.007,0.018 -0.0103,0.0342 -0.0176,0.0527 0.0694,0.0435 0.11405,0.0886 0.14062,0.13672 0.0433,-0.063 0.0858,-0.12637 0.12891,-0.18945 z m 9.07227,0 c 0.0166,0.12913 0.0206,0.26389 0.0156,0.4043 0.67985,-0.044 1.24169,0.17634 1.61133,0.5625 0.36819,-0.2986 0.69827,-0.56725 1.19141,-0.9668 z m 9.66016,0 c -1.33971,1.15032 -2.68237,2.29671 -4.04297,3.42188 -1.67343,1.35433 -2.32159,1.90372 -4.06446,3.21289 -1.78747,1.34268 -3.63452,2.59973 -5.5,3.83007 0.11912,0.28829 0.16652,0.66788 0.0977,1.13282 -0.0599,0.40451 -0.12135,0.80903 -0.18555,1.21289 -0.0926,0.5579 -0.19482,1.11359 -0.30664,1.66797 -0.0206,0.10222 0.0409,0.29294 -0.0625,0.30664 -0.72884,0.0968 -1.46988,-0.004 -2.20508,-0.006 -2e-4,-0.0861 -0.003,-0.17367 0,-0.25977 0.002,-0.0438 0.009,-0.0873 0.0137,-0.13086 0.005,-0.045 0.0107,-0.0897 0.0156,-0.13476 v -0.002 c -0.003,-0.0127 -3.4e-4,-0.0301 0.006,-0.0488 8.1e-4,-0.008 10e-4,-0.0156 0.002,-0.0234 0.0132,-0.13116 0.0242,-0.26316 0.0352,-0.39453 -0.34402,-0.01 -0.55944,-0.0103 -0.69531,-0.0352 -0.13548,0.66382 -0.29322,1.32325 -0.49219,1.9707 -0.72697,2.3657 -3.13191,1.6204 -2.38867,-0.74023 0.30258,-0.96103 0.52413,-1.95152 0.64453,-2.95313 -0.2621,0.311 -0.51346,0.63025 -0.78711,0.93165 -1.66365,1.8322 -3.61257,0.27378 -1.95117,-1.56055 0.4235,-0.46759 0.82828,-0.95107 1.22656,-1.43945 -0.18891,-0.23763 -0.41736,-0.53997 -0.76367,-0.99024 -0.1042,-0.0851 -0.16114,-0.15276 -0.17578,-0.22656 -0.0402,-0.0514 -0.0668,-0.0885 -0.10938,-0.14258 -0.0768,-0.0974 0.15708,-0.19136 0.23828,-0.28516 0.0297,-0.0343 0.0615,-0.0708 0.0918,-0.10546 0.0169,-0.0285 0.0283,-0.0465 0.0469,-0.0781 0.0214,-0.029 0.0412,-0.0588 0.0625,-0.0879 0.0973,-0.37692 0.29152,-0.80508 0.49218,-1.20703 -0.4838,0.52378 -1.09395,1.17202 -1.77929,1.5 V 339.5 H 506.75 v -83.53711 z" /></clipPath><clipPath
       clipPathUnits="userSpaceOnUse"
       id="clipPath224"><path
         id="path225"
         style="fill:#ff0000;fill-opacity:1;fill-rule:nonzero;stroke:none"
         d="m 460.80469,137.4082 v 126.81641 c 5.8e-4,-0.0497 0.004,-0.0993 0.01,-0.14844 0.012,-0.1032 0.0456,-0.17222 0.082,-0.23047 0.002,-0.0293 0.004,-0.0586 0.006,-0.0879 0.0205,-0.25553 0.15094,-0.37691 0.2793,-0.37695 0.14547,-5e-5 0.28908,0.15545 0.26953,0.44531 -0.007,0.0973 -0.0164,0.19392 -0.0254,0.29102 -0.0201,0.21859 -0.0268,0.43884 -0.0352,0.6582 0.002,0.0252 0.004,0.0478 0.01,0.13867 0.002,0.0308 0.004,0.0611 0.006,0.0918 0.0866,0.0475 0.16338,0.13479 0.17969,0.31445 0.006,0.0624 0.0245,0.12139 0.0469,0.17969 0.0322,0.0739 0.0707,0.1451 0.10742,0.2168 0.19666,0.38449 -0.0676,0.59828 -0.31054,0.4414 8.1e-4,0.011 9e-4,0.0222 0.002,0.0332 0.0405,0.54538 -0.51028,0.58641 -0.55078,0.041 -8.2e-4,-0.011 -9e-4,-0.0222 -0.002,-0.0332 -0.0221,0.009 -0.0438,0.0298 -0.0664,0.0234 -0.003,-7.9e-4 -0.005,-0.003 -0.008,-0.004 v 2.34375 h 97.02734 V 137.4082 Z m 0,127.97071 v 0.1289 c 0.006,-0.003 0.0149,-0.002 0.0215,-0.004 -6.1e-4,-0.007 -9e-4,-0.0144 -0.002,-0.0215 -0.003,-0.015 -0.007,-0.0299 -0.01,-0.0449 -0.003,-0.0197 -0.007,-0.039 -0.01,-0.0586 z m 0.01,0.55664 c -0.003,0.006 -0.007,0.0131 -0.01,0.0215 v 0.008 c 0.003,-0.0102 0.006,-0.0196 0.01,-0.0293 z" /></clipPath><linearGradient
       xlink:href="#linearGradient11"
       id="linearGradient12"
       x1="430.62131"
       y1="661.10309"
       x2="518.21106"
       y2="661.10309"
       gradientUnits="userSpaceOnUse"
       gradientTransform="translate(-4)" /><linearGradient
       xlink:href="#linearGradient13"
       id="linearGradient14"
       x1="458.8671"
       y1="361.31049"
       x2="472.14362"
       y2="369.91885"
       gradientUnits="userSpaceOnUse"
       gradientTransform="translate(-0.00236939,-6.6174257)" /><filter
       style="color-interpolation-filters:sRGB"
       id="filter26"
       x="-1.2730069"
       y="-0.28911956"
       width="3.5460137"
       height="1.5782391"><feGaussianBlur
         stdDeviation="26.173827"
         id="feGaussianBlur26" /></filter><filter
       style="color-interpolation-filters:sRGB"
       id="filter16"
       x="-0.00012190856"
       y="-0.00011815028"
       width="1.0002438"
       height="1.0002363"><feGaussianBlur
         stdDeviation="0.0012020189"
         id="feGaussianBlur16" /></filter><radialGradient
       xlink:href="#linearGradient16"
       id="radialGradient17"
       cx="464.29672"
       cy="360.55023"
       fx="464.29672"
       fy="360.55023"
       r="26.495195"
       gradientTransform="matrix(1,0,0,1.0013742,0,-0.49547224)"
       gradientUnits="userSpaceOnUse" /><linearGradient
       xlink:href="#linearGradient5"
       id="linearGradient19"
       x1="199.52017"
       y1="530.26562"
       x2="199.52017"
       y2="352.70038"
       gradientUnits="userSpaceOnUse" /><linearGradient
       xlink:href="#linearGradient25"
       id="linearGradient26"
       x1="364.61438"
       y1="538.12646"
       x2="373.31055"
       y2="488.0455"
       gradientUnits="userSpaceOnUse" /><linearGradient
       xlink:href="#linearGradient27"
       id="linearGradient28"
       x1="540"
       y1="846.71185"
       x2="540"
       y2="540"
       gradientUnits="userSpaceOnUse"
       gradientTransform="matrix(0.9276718,0,0,1.4159434,39.057198,-256.9282)" /></defs><g
     id="layer4"
     style="display:inline;opacity:1;fill:#e6e6e6"><g
       id="g3"
       transform="translate(-34.6729,-35.243577)"><g
         id="g2"><use
           x="0"
           y="0"
           xlink:href="#path30"
           id="use30"
           transform="matrix(-1,0,0,1,1082.6065,0.97179)"
           style="display:inline;opacity:1;fill:#e6e6e6" /><path
           style="display:inline;opacity:1;fill:#a7a7a7;fill-opacity:1;stroke:none;stroke-width:3;stroke-linecap:round;stroke-linejoin:round;stroke-dasharray:none;stroke-opacity:1;paint-order:stroke fill markers"
           d="m 436.26749,549.01441 -17.13989,32.32658 2.60768,22.2587 21.86327,-2.62885 z"
           id="path30" /><use
           x="0"
           y="0"
           xlink:href="#path39"
           id="use14"
           transform="matrix(-1,0,0,1,1081.3724,0)"
           style="display:inline;opacity:1;fill:url(#radialGradient17);fill-opacity:1" /><path
           style="display:inline;opacity:1;fill:url(#linearGradient14)"
           d="m 442.02751,385.31111 c 0,0 9.10596,-17.67858 15.83722,-27.99304 5.04645,-7.73279 7.33514,-11.68753 12.55133,-16.47367 7.9367,-7.28236 20.37586,-6.82578 20.37586,-6.82578 l -14.82304,48.71462 z"
           id="path39" /><use
           x="0"
           y="0"
           xlink:href="#path5"
           id="use1"
           transform="matrix(-1,0,0,1,1082.6172,3.9783)"
           style="display:inline;opacity:1;fill:#e6e6e6" /><path
           style="display:inline;opacity:1;fill:url(#linearGradient12)"
           d="m 518.43104,743.63219 c -55.25993,0 -52.14288,-10.68053 -57.73331,-42.99258 l -11.35175,-65.61179 c -15.06984,-87.10194 -13.0678,-89.01992 -13.0678,-89.01992 l 68.92461,10.13963 c 0,0 24.70285,187.48466 13.22825,187.48466 z"
           id="path5" /></g><use
         x="0"
         y="0"
         xlink:href="#path1"
         id="use58"
         transform="matrix(-1,0,0,1,1079.9531,0.09375)"
         style="display:inline;opacity:1;fill:#dddddd;fill-opacity:1" /><path
         style="display:inline;opacity:1;fill:#dddddd;fill-opacity:1"
         d="m 538.50001,950.5152 -120.01896,0.005 c -0.45304,2e-5 -2.12494,-9.35509 -2.16482,-19.0298 -0.01,-2.41516 0,-50.7049 0,-54.93543 0,-10.48364 -2.81178,-16.72907 5.58609,-16.72907 19.48797,-0.54907 62.46809,3.93129 67.62034,-32.89596 0.0269,-7.30211 -4.03738,-103.37603 -4.03738,-103.37603 0,0 -12.1979,-155.49704 -16.67348,-156.80867 C 417.3229,551.65661 225.92062,527.50166 225.92062,527.50166 V 373.70593 c 0,0 172.68333,22.15805 214.6069,20.15255 22.13503,-1.05887 37.74847,-30.55471 42.27108,-52.58479 5.07525,-24.72208 7.83501,-37.69111 4.08426,-62.6485 -3.53507,-23.52224 -0.68632,-28.18504 4.92036,-77.15103 1.89344,-16.53633 20.10816,-28.08994 24.01851,-46.63352 3.35166,-15.89416 22.67828,-15.89416 22.67828,-15.89416 z"
         id="path1"
         transform="translate(1.49999,-8.54737)" /><use
         x="0"
         y="0"
         xlink:href="#path25"
         id="use26"
         transform="matrix(-1,0,0,1,1079.9531,0.09375)"
         style="display:inline;opacity:1;fill:#e6e6e6" /><path
         style="display:inline;opacity:0.745631;fill:url(#linearGradient26);fill-opacity:1;stroke:none;stroke-width:1.6;stroke-linecap:round;stroke-linejoin:round;stroke-dasharray:none;stroke-opacity:1;paint-order:stroke fill markers"
         d="m 470.31179,558.19827 17.00794,-52.57708 -19.829,-2.86522 -207.36972,-32.39009 -15.10851,15.77003 9.54856,36.35321 33.94659,4.60053 43.04041,6.1192 24.25025,3.61922 24.41177,3.807 21.46274,3.52703 31.94127,5.73035 16.42759,3.33297 c 0,0 7.23028,1.5848 10.82329,2.47046 3.16287,0.77963 9.44682,2.50239 9.44682,2.50239 z"
         id="path25" /><use
         x="0"
         y="0"
         xlink:href="#path10"
         id="use10"
         transform="translate(241.74692,0.01968045)" /><path
         style="display:inline;opacity:1;fill:#ababab;fill-opacity:1;stroke-width:1.21658"
         d="m 419.4103,950.07191 c 1.50202,0.002 3.53031,-22.06188 4.05931,-30.15458 1.69762,-25.97061 3.18084,-48.17011 -0.0673,-68.6388 -0.45632,-2.87549 -1.48737,-7.10977 -3.99197,-7.10977 -2.45742,0 -3.46725,4.42442 -3.98393,7.19606 -2.81893,15.12142 -1.63399,41.41996 -0.19086,68.45963 0.441,8.26301 2.80651,30.24555 4.17479,30.24746 z"
         id="path10" /><use
         x="0"
         y="0"
         xlink:href="#g16"
         id="use16"
         transform="matrix(-0.99999988,0,0,1,1079.8399,0.0958215)" /><g
         id="g16"
         transform="matrix(0.96824643,0,0,1,15.659096,-0.0958215)"
         style="display:inline;opacity:1;fill:#e6e6e6"><path
           style="display:inline;opacity:1;fill:#4c4c4c;fill-opacity:1"
           d="M 490.48023,214.67929 H 500.25 V 255.25 c 0,0 -13.6016,-0.17661 -13.65556,-2.70512 -0.003,-0.14713 0.0128,-2.19018 0.0128,-2.19018 l 0.13776,-3.71962 0.283,-3.97048 0.26971,-2.85814 0.25662,-2.39083 0.48763,-4.11729 0.2745,-2.18472 0.33382,-2.58744 0.35969,-2.73857 0.29183,-2.20295 0.42158,-3.17404 0.42991,-3.24622 z"
           id="path15" /><rect
           style="display:inline;opacity:1;fill:#4c4c4c;fill-opacity:1"
           id="rect16"
           width="31.59026"
           height="40.570709"
           x="506.99557"
           y="214.67929" /><path
           style="display:inline;opacity:1;fill:#4c4c4c;fill-opacity:1"
           d="m 494.46272,187.33329 c 0,0 1.56069,-2.80395 16.08391,-5.03145 9.93383,-1.5236 14.42728,-1.45621 20.04835,-1.52362 l 7.99085,-0.0958 -10e-6,27.72888 c 0,0 -3.55219,0.0227 -11.68394,0.0227 -5.30836,0 -10.93222,0.003 -14.47467,0.003 -9.61615,0 -21.1224,-0.12439 -21.1224,-0.12439 0,0 1.01117,-7.95309 1.48593,-11.96988 0.0582,-0.49248 0.11069,-1.01505 0.1751,-1.50675 0.19831,-1.514 0.34739,-3.03849 0.66135,-4.53279 0.19196,-0.91363 0.42682,-1.67021 0.42682,-1.67021"
           id="path11" /></g><rect
         style="display:inline;opacity:0.745631;mix-blend-mode:normal;fill:#ffffff;fill-opacity:1;stroke:#ffffff;stroke-opacity:1;filter:url(#filter26)"
         id="rect26"
         width="49.738289"
         height="219"
         x="518.21106"
         y="368"
         transform="matrix(0.98843202,0,0,0.76176569,3.2021376,-25.175597)" /><path
         style="display:inline;opacity:1;fill:#ffffff;fill-opacity:0.00392157;stroke:#cccccc;stroke-width:1.6;stroke-linecap:butt;stroke-linejoin:bevel;stroke-dasharray:none;stroke-dashoffset:0;stroke-opacity:1;paint-order:normal"
         d="m 490.00967,341.61237 c 0,0 17.55909,13.85381 50.05283,13.23695 33.58228,-0.63752 49.89658,-13.0182 49.89658,-13.0182"
         id="path28" /><use
         x="0"
         y="0"
         xlink:href="#path3"
         id="use4"
         transform="matrix(-1,0,0,1,1079.3458,1.1309692e-6)"
         style="display:inline;opacity:1;fill:#e6e6e6" /><path
         style="display:inline;opacity:1;fill:#cccccc;fill-opacity:1;stroke:#cccccc;stroke-width:2;stroke-linecap:round;stroke-linejoin:bevel;stroke-dasharray:none;stroke-opacity:1"
         d="m 260.12101,470.36588 207.36972,32.39009"
         id="path3" /><use
         x="0"
         y="0"
         xlink:href="#path2"
         id="use3"
         transform="matrix(-1,0,0,1,1079.9149,0)"
         style="display:inline;opacity:1;fill:#e6e6e6" /><path
         style="display:inline;opacity:1;fill:#a4a4a4;fill-opacity:1"
         d="m 485.17298,328.46293 c 0,0 5.70752,6.09828 5.61794,13.55569 -0.14999,12.48654 -3.31922,18.44695 -3.31922,18.44695 -2.99718,8.95042 -14.14599,24.08111 -20.92856,29.21765 -6.6167,5.01093 -15.44322,7.83377 -23.73547,7.47488 -18.21735,-0.78843 -18.2436,-0.87965 -29.68053,-1.1783 -31.52368,-0.82318 -64.09848,-5.09362 -95.45942,-7.77818 -28.91782,-2.47543 -85.91347,-10.78337 -85.91347,-10.78337 l -4.33364,-12.25969 c 0,0 30.51421,3.81303 45.78484,5.6068 19.97918,2.34686 39.9662,4.63254 59.97148,6.74539 14.12037,1.49131 28.27742,3.00973 42.42719,4.18989 17.79489,1.48418 35.78939,3.05227 53.63633,3.64184 4.33558,0.14322 7.70702,0.11712 12.1438,-0.003 2.95816,-0.08 6.44504,-0.81472 9.19568,-1.9061 3.12189,-1.23869 6.11501,-3.14606 8.77186,-5.20074 2.6109,-2.01915 4.89648,-4.45268 7.04281,-6.96007 2.13008,-2.4884 4.04376,-5.17309 5.74665,-7.97123 2.70073,-4.43776 5.01921,-9.1183 7.04119,-13.90362 1.44904,-3.42937 2.67577,-7.02141 3.64248,-10.61665 0.9346,-3.47583 2.34806,-10.31824 2.34806,-10.31824 z"
         id="path2" /><use
         x="0"
         y="0"
         xlink:href="#g46"
         id="use5"
         transform="matrix(-1,0,0,1,1079.3458,6.1938359e-8)"
         style="display:inline;opacity:1;fill:#e6e6e6" /><g
         id="g46"
         style="display:inline;opacity:1;fill:#e6e6e6"
         transform="translate(29.369988,-1.2686789)"><path
           style="display:inline;fill:#000000;fill-opacity:1"
           d="M 196.92924,359.21025 6.7175144,333.0473 390.32294,332.69374 Z"
           id="path46" /><ellipse
           style="display:inline;opacity:1;fill:#000000;fill-opacity:1;stroke-width:1.6672"
           id="ellipse46"
           cx="197.44331"
           cy="356.32333"
           rx="21.098331"
           ry="39.893028" /><ellipse
           style="display:inline;opacity:1;fill:#000000;fill-opacity:1"
           id="path45"
           cx="199.58089"
           cy="529.44623"
           rx="20.152544"
           ry="15.026019"
           transform="translate(-1.530265,5.80276)" /><path
           style="display:inline;opacity:1;fill:url(#linearGradient19);fill-opacity:1"
           d="m 226.68628,530.28125 c 0,0 -0.40439,-33.65284 2.4429,-49.82414 0,0 12.0392,-53.75368 12.0533,-68.45711 0.0195,-20.34858 -14.4962,-59.29962 -14.4962,-59.29962 h -54.33223 c 0,0 -15.53553,43.98403 -15.53553,59.29962 0,15.31559 12.07106,69.5 12.07106,69.5 1.94145,19.78153 3.46447,48.75 3.46447,48.75 z"
           id="path40"
           transform="translate(-1.530265,5.80276)" /></g><use
         x="0"
         y="0"
         xlink:href="#path12"
         id="use17"
         transform="matrix(-1,0,0,1,1079.9531,-6.6825848e-4)" /><path
         style="display:inline;opacity:1;fill:#a6a6a6;fill-opacity:1;filter:url(#filter16)"
         d="m 516.33599,149.98121 c 0,0 4.10362,2.46721 11.72962,3.86905 5.82082,1.07001 11.93439,0.9626 11.93439,0.9626 v -24.41308 c 0,0 -5.11511,-0.10937 -11.29593,2.47993 -2.60485,1.09124 -3.94297,2.09566 -5.10336,3.0248 -1.12422,0.90018 -1.6395,1.57585 -2.18712,2.10952 -3.61439,3.52232 -5.0776,11.96718 -5.0776,11.96718 z"
         id="path12" /><use
         x="0"
         y="0"
         xlink:href="#path17"
         id="use18"
         transform="matrix(-1,0,0,1,1080,3.03e-6)" /><path
         style="display:inline;opacity:1;fill:#cccccc;fill-opacity:1;stroke:#cccccc;stroke-width:1.2;stroke-linecap:round;stroke-linejoin:round;stroke-dasharray:none;stroke-opacity:1;paint-order:stroke fill markers"
         d="m 466.54314,389.68322 47.64439,32.88082 -43.87574,135.63383 45.10675,-136.21701 z"
         id="path17" /><g
         id="g1"><rect
           style="display:inline;opacity:1;fill:#d3d3d3;fill-opacity:1;stroke:#d3d3d3;stroke-width:3;stroke-dasharray:none;stroke-opacity:1"
           id="rect1"
           width="2.625"
           height="71.744675"
           x="592.25"
           y="868.8219" /><rect
           style="display:inline;opacity:1;fill:url(#linearGradient28);stroke:none;stroke-width:1.77817;stroke-linecap:round;stroke-linejoin:round;stroke-dasharray:none;stroke-opacity:1;paint-order:stroke fill markers"
           id="rect27"
           width="33.667088"
           height="434.28659"
           x="523.16644"
           y="507.68124" /><rect
           style="display:inline;opacity:1;fill:#d3d3d3;fill-opacity:1;stroke:#d3d3d3;stroke-width:3;stroke-dasharray:none;stroke-opacity:1"
           id="rect29"
           width="2.625"
           height="71.744675"
           x="485.125"
           y="868.72815" /></g><use
         x="0"
         y="0"
         xlink:href="#g24"
         id="use40"
         transform="matrix(-1,0,0,1,1084.8819,-1.1121131)" /><g
         id="g24"
         style="display:inline;opacity:1;fill:#b9b9b9;fill-opacity:1"><path
           style="fill:#b9b9b9;fill-opacity:1"
           d="m 414.55188,546.0079 2.66728,4.0158 3.61081,-3.16395 z"
           id="path24" /><path
           style="display:inline;opacity:1;fill:#b9b9b9;fill-opacity:1"
           d="m 389.85239,541.9921 2.66728,4.0158 3.61081,-3.16395 z"
           id="path23" /><path
           style="display:inline;opacity:1;fill:#b9b9b9;fill-opacity:1"
           d="m 364.61438,538.12649 2.66728,4.0158 3.61081,-3.16395 z"
           id="path22" /><path
           style="display:inline;opacity:1;fill:#b9b9b9;fill-opacity:1"
           d="m 341.54916,534.51505 2.66728,4.0158 3.61081,-3.16395 z"
           id="path21" /><path
           style="display:inline;opacity:1;fill:#b9b9b9;fill-opacity:1"
           d="m 317.37395,530.49925 2.66728,4.0158 3.61081,-3.16395 z"
           id="path20" /><path
           style="display:inline;opacity:1;fill:#b9b9b9;fill-opacity:1"
           d="m 295.0414,527.29263 2.75277,4.12077 3.82956,-3.2577 z"
           id="path19" /><path
           style="display:inline;opacity:1;fill:#b9b9b9;fill-opacity:1"
           d="m 269.61035,523.72505 2.83958,4.08981 3.48581,-3.16395 z"
           id="path18" /></g></g></g></svg>
