<?xml version="1.0" encoding="UTF-8" standalone="no"?>
<!-- Generator: Adobe Illustrator 22.1.0, SVG Export Plug-In . SVG Version: 6.00 Build 0)  -->

<svg
   xmlns:dc="http://purl.org/dc/elements/1.1/"
   xmlns:cc="http://creativecommons.org/ns#"
   xmlns:rdf="http://www.w3.org/1999/02/22-rdf-syntax-ns#"
   xmlns:svg="http://www.w3.org/2000/svg"
   xmlns="http://www.w3.org/2000/svg"
   xmlns:sodipodi="http://sodipodi.sourceforge.net/DTD/sodipodi-0.dtd"
   xmlns:inkscape="http://www.inkscape.org/namespaces/inkscape"
   version="1.1"
   id="Слой_1"
   x="0px"
   y="0px"
   viewBox="0 0 511.82465 511.82468"
   xml:space="preserve"
   sodipodi:docname="congress.svg"
   width="511.82465"
   height="511.82468"
   inkscape:version="0.92.1 r15371"><metadata
     id="metadata11"><rdf:RDF><cc:Work
         rdf:about=""><dc:format>image/svg+xml</dc:format><dc:type
           rdf:resource="http://purl.org/dc/dcmitype/StillImage" /></cc:Work></rdf:RDF></metadata><defs
     id="defs9" /><sodipodi:namedview
     pagecolor="#ffffff"
     bordercolor="#666666"
     borderopacity="1"
     objecttolerance="10"
     gridtolerance="10"
     guidetolerance="10"
     inkscape:pageopacity="0"
     inkscape:pageshadow="2"
     inkscape:window-width="1920"
     inkscape:window-height="1057"
     id="namedview7"
     showgrid="false"
     inkscape:measure-start="0,0"
     inkscape:measure-end="0,0"
     inkscape:zoom="0.70238095"
     inkscape:cx="205.01956"
     inkscape:cy="202.27612"
     inkscape:window-x="-8"
     inkscape:window-y="-8"
     inkscape:window-maximized="1"
     inkscape:current-layer="Слой_1" /><g
     transform="translate(-180.58189,-730.10179)"
     id="g4"
     style="fill:#000000"><path
       d="m 436.36838,729.91303 c -141.3611,0 -255.91233,114.55123 -255.91233,255.91233 0,141.36104 114.55123,255.91234 255.91233,255.91234 141.36109,0 255.91232,-114.5513 255.91232,-255.91234 0,-141.3611 -114.55123,-255.91233 -255.91232,-255.91233 z"
       id="path2"
       inkscape:connector-curvature="0"
       sodipodi:nodetypes="sssss"
       style="fill:#000000;stroke-width:6.09315062" /></g><path
     style="fill:#ffffff;fill-opacity:1;stroke:none;stroke-width:188.02252197;stroke-linecap:butt;stroke-linejoin:miter;stroke-miterlimit:4;stroke-dasharray:none;stroke-opacity:1;paint-order:stroke fill markers"
     d="M 244.76172 25.826172 L 244.76172 66.316406 A 10.655721 4.2044492 0 0 1 252.60156 64.951172 A 10.655721 4.2044492 0 0 1 259.98828 66.132812 L 259.98828 25.826172 L 244.76172 25.826172 z M 252.05469 80.578125 A 21.80196 14.786322 0 0 0 233.21094 87.964844 L 233.21094 101.9043 A 23.217672 6.04037 0 0 1 252.24805 99.318359 A 23.217672 6.04037 0 0 1 271.44727 101.9707 L 271.53125 101.9707 A 21.80196 14.786322 0 0 0 271.6543 101.78125 L 271.6543 88.929688 A 21.80196 14.786322 0 0 0 252.05469 80.578125 z M 251.87305 114.73242 C 248.84843 114.7613 235.80163 115.40151 220.62305 123.78711 C 205.81529 131.96784 197.61133 141.73438 197.61133 141.73438 C 197.61133 141.73438 186.2319 153.46065 176.29492 174.32227 C 168.68623 190.2959 166.05273 206.91211 166.05273 206.91211 L 339.01562 206.91211 C 339.01562 206.91211 336.89149 193.09139 328.34375 174.32227 C 319.6989 155.3399 307.10156 141.73438 307.10156 141.73438 C 307.10156 141.73438 293.38302 128.11448 283.28711 122.62891 C 267.96452 114.30343 252.5332 114.73633 252.5332 114.73633 C 252.5332 114.73633 252.30513 114.7283 251.87305 114.73242 z M 149.40234 222.69336 L 143.11328 236.2168 L 149.40234 236.2168 L 355.37305 236.2168 L 361.66211 236.2168 L 355.37305 222.69336 L 149.40234 222.69336 z M 150.29297 251.41602 L 150.29297 275.04102 L 165.33008 275.04102 L 165.33008 251.41602 L 150.29297 251.41602 z M 197.53125 251.41602 L 197.53125 275.04102 L 212.56836 275.04102 L 212.56836 251.41602 L 197.53125 251.41602 z M 244.76953 251.41602 L 244.76953 275.04102 L 259.80664 275.04102 L 259.80664 251.41602 L 244.76953 251.41602 z M 292.00781 251.41602 L 292.00781 275.04102 L 307.04492 275.04102 L 307.04492 251.41602 L 292.00781 251.41602 z M 339.44531 251.41602 L 339.44531 275.04102 L 354.48242 275.04102 L 354.48242 251.41602 L 339.44531 251.41602 z M 110.98438 290.10938 L 110.98438 303.94727 L 393.77148 303.94727 L 393.77148 290.10938 L 110.98438 290.10938 z M 123.10742 319.04297 L 123.10742 369.62891 L 138.2793 369.62891 L 138.2793 319.04297 L 123.10742 319.04297 z M 163.67969 319.04297 L 163.67969 369.62891 L 178.85156 369.62891 L 178.85156 319.04297 L 163.67969 319.04297 z M 204.05273 319.04297 L 204.05273 369.62891 L 219.22266 369.62891 L 219.22266 319.04297 L 204.05273 319.04297 z M 244.625 319.04297 L 244.625 369.62891 L 259.79492 369.62891 L 259.79492 319.04297 L 244.625 319.04297 z M 285.19531 319.04297 L 285.19531 369.62891 L 300.36719 369.62891 L 300.36719 319.04297 L 285.19531 319.04297 z M 325.76758 319.04297 L 325.76758 369.62891 L 340.93945 369.62891 L 340.93945 319.04297 L 325.76758 319.04297 z M 366.33984 319.04297 L 366.33984 369.62891 L 381.51172 369.62891 L 381.51172 319.04297 L 366.33984 319.04297 z M 70.742188 384.85742 L 70.742188 410.08398 L 433.9707 410.08398 L 433.9707 384.85742 L 70.742188 384.85742 z "
     id="rect4499" /><a
     id="a4540" /></svg>