<?xml version="1.0" encoding="UTF-8" standalone="no"?>
<svg
   width="35"
   height="35"
   viewBox="0 0 35 35"
   fill="none"
   version="1.1"
   id="svg6"
   sodipodi:docname="ore_point.svg"
   inkscape:version="1.2.1 (9c6d41e410, 2022-07-14)"
   xmlns:inkscape="http://www.inkscape.org/namespaces/inkscape"
   xmlns:sodipodi="http://sodipodi.sourceforge.net/DTD/sodipodi-0.dtd"
   xmlns="http://www.w3.org/2000/svg"
   xmlns:svg="http://www.w3.org/2000/svg">
  <defs
     id="defs10" />
  <sodipodi:namedview
     id="namedview8"
     pagecolor="#ffffff"
     bordercolor="#111111"
     borderopacity="1"
     inkscape:showpageshadow="0"
     inkscape:pageopacity="0"
     inkscape:pagecheckerboard="1"
     inkscape:deskcolor="#d1d1d1"
     showgrid="false"
     inkscape:zoom="22.326087"
     inkscape:cx="17.401168"
     inkscape:cy="22.977605"
     inkscape:window-width="3440"
     inkscape:window-height="1417"
     inkscape:window-x="-8"
     inkscape:window-y="-8"
     inkscape:window-maximized="1"
     inkscape:current-layer="svg6" />
  <path
     d="m 30.324472,5.5499815 -0.5921,-0.59208 c -1.1314,-1.13138 -2.5927,-0.23571 -3.182,0.35358 -0.5657,0.5657 -0.9428,0 -1.0607,-0.35358 -0.8485,-1.41422 -2.0034,-1.76777 -2.4748,-1.76777 l -9.546,-0.35356 c -1.697001,0 -2.357001,1.64991 -2.474901,2.47491 -0.2828,1.9799 1.532101,2.4748 2.474901,2.4748 h 4.9498 c 1.697,0 2.5927,0.4714 2.8284,0.7071 l 1.0606,1.0607 C 16.532972,15.328782 4.7007713,27.161082 3.5693913,28.292382 c -1.13138,1.1314 -0.47141,2.3571 0,2.8285 l 0.59218,0.5921"
     stroke="var(--c10two)"
     id="path2"
     style="fill:#000000;fill-opacity:1;stroke:#ffffff;stroke-width:0.3;stroke-dasharray:none;stroke-opacity:1" />
  <path
     d="m 4.0465713,31.597982 c 0.4714,0.4714 1.697,1.1314 2.8284,0 1.1314,-1.1314 12.9636007,-12.9636 18.7383007,-18.7383 l 1.0607,1.0606 c 0.2357,0.2357 0.7071,1.1314 0.7071,2.8285 v 4.9497 c 0,0.9428 0.495,2.7577 2.4749,2.4749 0.8249,-0.1179 2.4748,-0.7778 2.4748,-2.4749 l -0.3535,-9.545901 c 0,-0.4715 -0.3536,-1.6264 -1.7678,-2.4748995 -0.3536,-0.1179 -0.9192,-0.495 -0.3536,-1.0607 0.5893,-0.5892 1.485,-2.0506 0.3536,-3.182"
     stroke="var(--c10two)"
     id="path4"
     style="fill:#000000;fill-opacity:1;stroke:#ffffff;stroke-width:0.3;stroke-dasharray:none;stroke-opacity:1" />
</svg>
