<?xml version="1.0" encoding="UTF-8" standalone="no"?>
<svg
   enable-background="new 0 0 100 100"
   height="168"
   id="Layer_1"
   version="1.1"
   viewBox="0 0 102 168"
   width="102"
   xml:space="preserve"
   xmlns="http://www.w3.org/2000/svg"
   xmlns:svg="http://www.w3.org/2000/svg"><defs
     id="defs6" /><g
     id="g1"
     transform="matrix(1.7445714,0,0,1.7445714,-36.22857,-5.2337142)"><g
       id="g6"
       transform="matrix(0.57421535,0,0,0.57421535,19.16395,11.269759)"
       style="fill:#000000"><path
         d="m 53.701193,69.176192 c -23.099862,0 -41.891895,18.792034 -41.891895,41.891898 0,23.09986 18.792033,41.8919 41.891895,41.8919 23.099861,0 41.891898,-18.79204 41.891898,-41.8919 0,-23.099864 -18.792037,-41.891898 -41.891898,-41.891898 z m 0,2.327329 c 21.816377,0 39.564549,17.748189 39.564549,39.564569 0,21.81638 -17.748172,39.56455 -39.564549,39.56455 -21.816378,0 -39.564565,-17.74817 -39.564565,-39.56455 0,-21.81638 17.748187,-39.564569 39.564565,-39.564569 z m 0,3.490986 c -19.891697,0 -36.07358,16.183057 -36.07358,36.073583 0,19.89052 16.181883,36.07361 36.07358,36.07361 19.891696,0 36.073614,-16.18309 36.073614,-36.07361 0,-10.14714 -4.310341,-19.88131 -11.827591,-26.709689 -0.236186,-0.215324 -0.602908,-0.198819 -0.820494,0.03862 -0.216414,0.238532 -0.199908,0.606259 0.03862,0.822756 7.274109,6.607274 11.445788,16.028173 11.445788,25.848303 0,19.24933 -15.660615,34.90994 -34.909941,34.90994 -19.249326,0 -34.909915,-15.66061 -34.909915,-34.90994 0,-19.249324 15.660589,-34.909913 34.909915,-34.909913 4.132133,0 8.174869,0.713586 12.018449,2.122804 0.301371,0.111684 0.637176,-0.0429 0.747771,-0.345524 0.110511,-0.302543 -0.04516,-0.634888 -0.347786,-0.745433 -3.97152,-1.455743 -8.150153,-2.195512 -12.418434,-2.195512 z m 15.743561,3.65914 c -0.225798,-0.01324 -0.4495,0.105483 -0.556828,0.322735 -0.142013,0.288635 -0.02379,0.636505 0.263668,0.779608 0.777262,0.383981 1.54623,0.799968 2.288638,1.238659 0.09308,0.05589 0.196473,0.08185 0.297768,0.08185 0.198986,0 0.391773,-0.101462 0.500021,-0.284111 0.162876,-0.276989 0.07122,-0.633657 -0.2046,-0.797789 -0.766873,-0.454946 -1.564159,-0.885009 -2.36597,-1.281808 -0.07122,-0.03494 -0.14746,-0.05471 -0.222697,-0.05916 z m 4.520554,2.770562 c -0.146622,0.02547 -0.283105,0.105987 -0.375016,0.238616 -0.184995,0.262997 -0.122073,0.626368 0.140924,0.811446 0.3875,0.272298 0.768465,0.548952 1.14323,0.83633 0.105903,0.08027 0.231159,0.120481 0.354489,0.120481 0.174606,0 0.348457,-0.07833 0.46366,-0.227305 0.194378,-0.255959 0.146956,-0.621592 -0.109087,-0.815887 -0.388673,-0.296762 -0.782624,-0.587743 -1.184116,-0.868251 -0.131457,-0.09132 -0.287462,-0.1209 -0.434084,-0.09543 z"
         fill="#eb9929"
         id="path386"
         style="display:inline;fill:#000000;fill-opacity:1;stroke-width:0.837835" /><path
         d="m 63.840792,89.393152 h 8.017353 l -4.857549,21.835788 q -1.41532,6.22543 -1.933657,7.64013 1.886542,8.67787 5.47073,8.67787 4.24462,0 4.386144,-5.84795 h 1.697774 q -0.134447,5.47073 -2.027907,8.86648 -1.83932,3.34841 -4.857549,3.34841 -2.499609,0 -3.725632,-2.02796 -1.225509,-2.02796 -2.641053,-8.30039 -4.904895,10.32853 -16.03495,10.32853 -7.593039,0 -12.073367,-5.89528 -4.480327,-5.94238 -4.480327,-16.97801 0,-10.84726 4.904891,-16.883812 4.904639,-6.036558 11.790323,-6.036558 4.857551,0 7.970256,3.442843 3.112718,3.442843 5.518069,11.224477 z m -4.150196,18.487388 q -2.21654,-7.59304 -4.951981,-11.837663 -2.735235,-4.291711 -6.555552,-4.291711 -8.630523,0 -8.630523,20.185134 0,19.14765 8.253302,19.14765 7.168476,0 10.611313,-16.88382 z"
         id="path1"
         style="stroke-width:0.254536" /></g><path
       d="M 64.002,55.526 V 45 H 61.733 L 79.1,3 h -16 L 50,35.154 36.9,3 h -16 l 17.366,42 h -2.264 v 10.523 c 0,0 5.063896,-1.904326 7.40523,-2.491966 2.341334,-0.58764 4.315828,-1.096358 6.577414,-1.110111 2.261586,-0.01375 4.496085,0.431863 6.823593,1.021743 C 59.135745,53.532545 64.002,55.526 64.002,55.526 Z M 38.002,47 h 1.131 L 40,49 h 4 12 4 l 0.867,-2 h 1.135 v 7.229 C 58.469,52.18 54.371,51 50,51 c -4.369,0 -8.465,1.18 -11.998,3.228 z"
       fill="#231f20"
       id="path5"
       style="fill:#000000" /></g></svg>
