<?xml version="1.0" encoding="UTF-8" standalone="no"?>
<svg
   enable-background="new 0 0 100 100"
   height="168"
   id="Layer_1"
   version="1.1"
   viewBox="0 0 102 168"
   width="102"
   xml:space="preserve"
   xmlns="http://www.w3.org/2000/svg"
   xmlns:svg="http://www.w3.org/2000/svg"><defs
     id="defs6" /><path
     id="path5"
     style="display:inline;fill:#000000"
     d="m 20.899685,3 17.366371,41.999705 h -2.263719 v 10.523717 c 0,0 1.076108,-0.391194 1.999507,-0.725465 v -0.569848 -3.629563 -3.598215 h 1.130739 l 0.867647,1.999506 h 4.000132 11.999276 4.000132 l 0.867647,-1.999506 h 1.134098 v 3.598215 h 0.0011 v 4.141195 c 0.945043,0.369155 1.999506,0.78592 1.999506,0.78592 V 44.999705 H 61.732824 L 79.100315,3 H 63.099788 L 50,35.154432 36.900212,3 Z"
     transform="matrix(1.7445714,0,0,1.7445714,-36.22857,-5.2337142)" /><path
     id="path1-6"
     style="stroke-width:0.166961"
     d="M 88.431641 93.240234 L 87.625 93.546875 L 81.953125 95 L 81.792969 95.048828 L 82.121094 95.152344 C 81.899172 100.93716 81.107257 106.62442 79.791016 112.15234 L 85.599609 115.07617 C 87.351036 108.01245 88.318765 100.69535 88.431641 93.240234 z M 13.580078 93.3125 C 13.677493 99.258959 14.295068 105.12023 15.439453 110.83008 C 15.66054 111.93318 15.912986 113.02753 16.171875 114.11914 L 22.068359 111.57617 C 21.899815 110.84659 21.724227 110.11973 21.574219 109.38477 C 20.624672 104.73246 20.048313 99.975537 19.863281 95.152344 L 20.132812 95.066406 L 13.580078 93.3125 z M 23.958984 118.45898 L 20.90625 119.59375 L 17.826172 120.17578 C 23.378477 138.22491 34.173126 154.34787 49.25 166.45508 C 49.769588 166.87462 50.380905 167.09375 50.992188 167.09375 C 51.603468 167.09375 52.21513 166.87462 52.75 166.45508 C 67.829093 154.34608 78.638237 138.21488 84.1875 120.16211 L 80.632812 119.50195 L 78.033203 118.46875 C 73.070542 134.0228 63.80297 148.01897 50.992188 158.84961 C 38.179921 148.0177 28.921338 134.0152 23.958984 118.45898 z " /><g
     id="g1"
     transform="matrix(-1.7708399,2.3812319e-8,-2.3812319e-8,-1.7708399,140.84315,280.1481)"
     style="display:inline;fill:#000000"><path
       id="path1"
       style="display:inline;fill:#000000;fill-opacity:1;stroke:none;stroke-width:0.0286693;stroke-linejoin:bevel;stroke-dasharray:none;stroke-opacity:1;paint-order:markers fill stroke"
       d="m 78.061027,109.49501 a 2.3118951,2.7230066 20.193782 0 0 -1.160304,-3.32121 1.8836684,4.9465539 20.193782 0 0 -0.639232,1.08846 c -1.037142,-0.54439 -2.249137,-1.07644 -3.512391,-1.54218 -2.062187,-0.75849 -3.98751,-1.24301 -5.407795,-1.40971 a 0.78189833,1.7274497 20.193782 0 0 -0.344806,-0.72623 0.78189833,1.7274497 20.193782 0 0 -0.609161,0.20977 l -0.659185,-0.24243 c 0.304643,-1.18637 0.409764,-2.314 0.328977,-3.27186 l -0.07495,-0.568662 c 6.14e-4,-0.006 -0.005,-0.012 -0.0029,-0.0183 -0.205069,-0.0505 -0.498138,-0.0194 -0.78584,0.0839 -0.248123,0.0898 -0.466768,0.224872 -0.603303,0.370502 0.06337,0.26763 0.172624,0.89257 0.101682,1.79267 L 33.781323,90.570646 c 0,0 -3.667499,-0.70563 -5.430783,-0.91011 -1.763276,-0.20446 -5.134768,-0.34521 -5.134768,-0.34521 l -8e-5,2.3e-4 -1.03e-4,3.3e-4 -8.9e-5,1.9e-4 c 0,0 2.659194,2.0774 4.134764,3.06417 1.475552,0.98679 4.726188,2.8257 4.726188,2.8257 L 62.9931,106.57724 c -0.534795,0.74426 -1.029884,1.15606 -1.253615,1.32027 0.009,0.19967 0.0886,0.44391 0.21964,0.67302 0.15225,0.26509 0.35523,0.47879 0.544222,0.57307 0.0066,-0.005 0.01203,-0.006 0.01398,-0.012 l 0.425577,-0.38459 c 0.68487,-0.67991 1.337975,-1.6114 1.87581,-2.71805 l 0.657711,0.24191 a 0.78189833,1.7274497 20.193782 0 0 0.328074,0.55455 0.78189833,1.7274497 20.193782 0 0 0.734994,-0.3283 c 1.189802,0.79305 2.969544,1.67107 5.030827,2.42922 1.262695,0.46425 2.530338,0.84509 3.673908,1.104 a 1.8836684,4.9465539 20.193782 0 0 -0.218259,1.24478 2.3118951,2.7230066 20.193782 0 0 3.036367,-1.78232 z m -0.335539,-0.12346 a 1.5803998,2.4125573 20.193782 0 1 -0.01528,0.0371 l -0.191847,-0.0704 a 1.1966273,1.9976754 20.193782 0 0 0.008,-0.0174 1.1966273,1.9976754 20.193782 0 0 -0.420135,-2.28131 l -1.44e-4,3.1e-4 a 1.013672,1.9976754 20.193782 0 1 0.248476,2.21781 1.013672,1.9976754 20.193782 0 1 -0.008,0.0174 l -0.469261,-0.1726 c -0.110224,-0.0406 -0.210711,0.0254 -0.271404,0.12542 l -0.965012,1.59464 a 1.112587,4.269177 20.193782 0 0 0.851475,-1.90467 1.112587,4.269177 20.193782 0 0 0.648413,-2.32426 1.5803998,2.4125573 20.193782 0 1 0.584782,2.77785 z m -1.135175,-1.53247 -0.33765,0.918 -0.450485,-0.1657 a 0.91041231,1.5147949 20.193782 0 0 -0.199446,-1.29705 6.439949,1.4405413 20.193782 0 1 0.987588,0.54472 z m -0.923238,1.75028 c -0.582575,0.0731 -2.438235,-0.40729 -4.494566,-1.16357 -2.060483,-0.75793 -3.67595,-1.75532 -4.067833,-2.1876 0.743125,0.4 2.297247,1.25301 4.159584,1.93819 1.856556,0.68282 3.571891,1.23329 4.402834,1.41292 z m -0.05624,-1.06834 -0.720918,-0.26517 a 0.95217402,1.5842805 20.193782 0 0 -0.300536,-1.44798 6.439949,1.4405413 20.193782 0 1 0.951042,0.45545 0.70089268,1.5147949 20.193782 0 1 0.07044,1.25767 z m -0.921195,-0.33877 -0.690849,-0.25411 a 0.88831057,1.8236192 20.193782 0 0 -0.159441,-1.44267 6.439949,1.4405413 20.193782 0 1 0.706555,0.30296 0.73304351,1.5842805 20.193782 0 1 0.143773,1.39373 z m -0.875654,-0.32209 -0.727486,-0.26758 a 0.88831057,1.8236192 20.193782 0 0 -0.186978,-1.47688 6.439949,1.4405413 20.193782 0 1 0.893362,0.35091 0.68387747,1.8236192 20.193782 0 1 0.02107,1.39364 z m -0.912274,-0.33553 -0.793112,-0.29171 a 0.88831057,1.8236192 20.193782 0 0 -0.187785,-1.47786 5.9509737,1.4405413 20.193782 0 1 0.401817,0.15436 6.439949,1.4405413 20.193782 0 1 0.478564,0.1672 6.439949,1.4405413 20.193782 0 1 0.06143,0.0233 0.68387747,1.8236192 20.193782 0 1 0.03947,1.42306 z m -0.977889,-0.35968 -0.890215,-0.32741 a 0.87702815,1.8004574 20.193782 0 0 -0.179473,-1.44702 5.9509737,1.4405413 20.193782 0 1 1.029508,0.35037 0.68387747,1.8236192 20.193782 0 1 0.04014,1.42416 z m -1.072664,-0.39454 -0.893793,-0.32874 a 0.83565976,1.7155318 20.193782 0 0 -0.170587,-1.36036 5.9509737,1.4405413 20.193782 0 1 1.030473,0.29745 0.67519156,1.8004574 20.193782 0 1 0.03388,1.39171 z m -1.067314,-0.39256 -0.908063,-0.33398 a 0.83565976,1.4067128 20.193782 0 0 -0.201651,-1.21697 5.9509737,1.4405413 20.193782 0 1 1.078189,0.24555 0.64334356,1.7155318 20.193782 0 1 0.03149,1.3055 z m -1.083423,-0.39846 -0.767661,-0.28238 a 0.83565976,1.097895 20.193782 0 0 -0.175605,-1.01272 5.9509737,1.4405413 20.193782 0 1 0.878712,0.13549 0.64334356,1.4067128 20.193782 0 1 0.06456,1.15958 z m -0.946516,-0.34817 -0.547296,-0.20127 a 0.89747043,1.7479658 20.193782 0 0 0.154183,-0.78163 5.9509737,1.4405413 20.193782 0 1 0.34341,0.0311 0.64334356,1.097895 20.193782 0 1 0.04964,0.9517 z m -0.824364,-0.26053 c -0.01083,-0.006 -0.02692,-0.0187 -0.04051,-0.0259 a 0.63810392,1.3688639 20.193782 0 0 -0.10242,-1.44915 0.5722757,1.4125697 20.193782 0 1 0.0868,-0.0196 0.5722757,1.4125697 20.193782 0 1 0.05643,1.49569 z m -0.167167,-0.10812 c -0.06383,-0.0391 -0.131066,-0.0744 -0.173276,-0.11188 -0.05583,-0.0495 -0.118886,-0.1203 -0.175187,-0.19856 -0.06913,-0.0965 -0.125608,-0.19762 -0.125608,-0.19762 0,0 -0.04704,0.0598 -0.07907,0.10692 -0.0332,0.0468 -0.05599,0.086 -0.07576,0.12195 -0.04839,0.088 -0.146735,0.30878 -0.146735,0.30878 0,0 -0.152315,0.38798 -0.233072,0.6333 -0.01814,0.0537 -0.03983,0.12571 -0.0635,0.20314 a 0.5722757,1.4125697 20.193782 0 1 0.157753,-1.1255 0.5722757,1.4125697 20.193782 0 1 0.936026,-1.10727 0.49125259,1.3688639 20.193782 0 1 -0.02218,1.36663 z m -1.672991,-0.57443 -0.813928,-0.29937 a 2.1957764,5.6311828 20.193782 0 0 0.74721,-4.11679 1.7182975,2.5613758 20.193782 0 1 0.752976,-0.278072 2.1957764,5.6311828 20.193782 0 1 -0.686222,4.694302 z M 64.417203,103.3337 54.134908,99.488618 38.32521,93.673726 c 0,0 -2.775106,-0.72771 -4.095414,-1.01106 -1.31596,-0.28242 -3.793002,-0.69722 -3.809591,-0.69999 l -6.563059,-2.41397 c 0.0215,0.001 3.243099,0.18307 4.939061,0.39935 1.701662,0.21702 5.245323,0.92814 5.245323,0.92814 l 20.48928,7.53606 2.867959,1.054852 -0.01278,0.0343 7.212804,2.751042 c 0,0 -0.03243,0.31297 -0.0621,0.49338 -0.02971,0.18055 -0.119623,0.58791 -0.119623,0.58791 z m -0.647598,1.72586 -27.730582,-10.229494 -4.528382,-2.41367 5.096103,1.04199 3.955554,1.45487 c -1.663488,-0.58023 -3.310428,-1.13976 -4.117102,-1.35182 -2.018508,-0.53062 -3.688614,-0.70764 -3.688614,-0.70764 l 31.176354,11.714224 -0.0021,0.0361 z" /><path
       id="path4"
       style="display:inline;fill:#000000;fill-opacity:1;stroke:none;stroke-width:0.0286693;stroke-linejoin:bevel;stroke-dasharray:none;stroke-opacity:1;paint-order:markers fill stroke"
       d="m 78.254361,89.315926 c 0,0 -3.37149,0.13929 -5.134765,0.34375 -1.763282,0.20448 -5.431641,0.91016 -5.431641,0.91016 l -17.066406,6.27734 0.287109,0.10352 16.519531,-6.07422 c 0,0 3.544434,-0.71072 5.246094,-0.92774 1.69596,-0.21627 4.916,-0.39939 4.9375,-0.40039 l -6.5625,2.41407 c -0.01659,0.003 -2.492635,0.41875 -3.808594,0.70117 -1.320306,0.28335 -4.095703,1.00976 -4.095703,1.00976 l -10.566406,3.88477 1.833984,0.66797 14.300782,-5.37305 c 0,0 -1.670948,0.17837 -3.689454,0.70899 -0.806673,0.21206 -2.453701,0.77133 -4.117187,1.35156 l 3.957031,-1.45508 5.095703,-1.04297 -4.529297,2.41406 -10.107421,3.728522 2.492187,0.90625 11.578125,-4.257812 c 0,0 3.251012,-1.83939 4.726563,-2.82617 1.475568,-0.98677 4.134765,-3.06446 4.134765,-3.06446 z m -30.007812,8.4043 -0.775391,0.28516 0.28711,0.10351 0.77539,-0.28516 z m 1.957031,0.71289 -0.775391,0.285162 1.867188,0.67968 0.767578,-0.28906 z m -5.107422,0.445312 -8.318359,3.060552 c -0.07094,-0.9001 0.03819,-1.52339 0.101562,-1.79102 -0.136535,-0.14563 -0.355393,-0.281292 -0.603515,-0.371092 -0.287702,-0.1033 -0.580088,-0.13448 -0.785157,-0.084 0.0021,0.006 -0.0045,0.0116 -0.0039,0.0176 l -0.07422,0.568362 c -0.08079,0.95786 0.02348,2.08706 0.328125,3.27343 l -0.658203,0.24219 a 1.7274497,0.78189833 69.806218 0 0 -0.609375,-0.21094 1.7274497,0.78189833 69.806218 0 0 -0.345703,0.72656 c -1.420283,0.1667 -3.344065,0.65167 -5.40625,1.41016 -1.263253,0.46574 -2.476531,0.99858 -3.513672,1.54297 a 4.9465539,1.8836684 69.806218 0 0 -0.638672,-1.08985 2.7230066,2.3118951 69.806218 0 0 -1.160156,3.32227 2.7230066,2.3118951 69.806218 0 0 3.035156,1.7793 4.9465539,1.8836684 69.806218 0 0 -0.21875,-1.24414 c 1.143569,-0.25891 2.411135,-0.63927 3.673828,-1.10352 2.061281,-0.75815 3.84145,-1.63664 5.03125,-2.42969 a 1.7274497,0.78189833 69.806218 0 0 0.734376,0.32813 1.7274497,0.78189833 69.806218 0 0 0.328124,-0.55469 l 0.658204,-0.24219 c 0.537834,1.10665 1.19013,2.03884 1.875,2.71875 l 0.425781,0.38477 c 0.0019,0.006 0.009,0.007 0.01563,0.0117 0.188992,-0.0943 0.390718,-0.30913 0.542969,-0.57422 0.131039,-0.22911 0.211703,-0.47221 0.220703,-0.67188 -0.223731,-0.16421 -0.719112,-0.57605 -1.253906,-1.32031 l 13.8125,-5.08007 -2.482422,-0.90429 -12.107422,4.46678 -0.160156,-0.45507 -0.002,-0.0371 11.410157,-4.2871 -1.892579,-0.689462 -10.001953,3.742182 c 0,0 -0.09138,-0.40734 -0.121093,-0.58789 -0.02967,-0.18041 -0.06055,-0.49219 -0.06055,-0.49219 l 7.21289,-2.751942 -0.01367,-0.0352 1.3125,-0.48242 z m 7.855469,0.55469 -0.773438,0.28516 2.486329,0.906252 0.77539,-0.28516 z m -17.257813,0.56055 a 2.5613758,1.7182975 69.806218 0 1 0.753907,0.277342 5.6311828,2.1957764 69.806218 0 0 0.746093,4.11718 l -0.814453,0.30078 a 5.6311828,2.1957764 69.806218 0 1 -0.685547,-4.695302 z m -1.097656,3.882802 a 1.4125697,0.5722757 69.806218 0 1 0.08594,0.0195 1.3688639,0.63810392 69.806218 0 0 -0.101563,1.44922 c -0.01359,0.007 -0.03019,0.0194 -0.04102,0.0254 a 1.4125697,0.5722757 69.806218 0 1 0.05664,-1.49414 z m 0.08984,0.0195 a 1.4125697,0.5722757 69.806218 0 1 0.935547,1.10742 1.4125697,0.5722757 69.806218 0 1 0.158203,1.125 c -0.02367,-0.0774 -0.04631,-0.14942 -0.06445,-0.20312 -0.08076,-0.24532 -0.232422,-0.63281 -0.232422,-0.63281 0,0 -0.0981,-0.2206 -0.146485,-0.3086 -0.01978,-0.036 -0.04297,-0.0763 -0.07617,-0.12305 -0.03203,-0.0471 -0.07813,-0.10546 -0.07813,-0.10546 0,0 -0.05782,0.10076 -0.126954,0.19726 -0.0563,0.0783 -0.117998,0.14777 -0.173828,0.19727 -0.04221,0.0375 -0.109998,0.0742 -0.173828,0.11328 a 1.3688639,0.49125259 69.806218 0 1 -0.02148,-1.36719 z m -0.578125,0.75195 a 1.7479658,0.89747043 69.806218 0 0 0.154297,0.78125 l -0.546875,0.20118 a 1.097895,0.64334356 69.806218 0 1 0.05078,-0.95118 1.4405413,5.9509737 69.806218 0 1 0.341797,-0.0312 z m -0.394531,0.0371 a 1.097895,0.83565976 69.806218 0 0 -0.175782,1.01172 l -0.767578,0.28321 a 1.4067128,0.64334356 69.806218 0 1 0.06445,-1.16016 1.4405413,5.9509737 69.806218 0 1 0.878907,-0.13477 z m -0.917969,0.14258 a 1.4067128,0.83565976 69.806218 0 0 -0.201172,1.2168 l -0.908203,0.33398 a 1.7155318,0.64334356 69.806218 0 1 0.03125,-1.30664 1.4405413,5.9509737 69.806218 0 1 1.078125,-0.24414 z m -1.113281,0.25391 a 1.7155318,0.83565976 69.806218 0 0 -0.169922,1.35937 l -0.894532,0.33008 a 1.8004574,0.67519156 69.806218 0 1 0.03516,-1.39258 1.4405413,5.9509737 69.806218 0 1 1.029297,-0.29687 z m -1.066407,0.30859 a 1.8004574,0.87702815 69.806218 0 0 -0.179687,1.44727 l -0.890625,0.32812 a 1.8236192,0.68387747 69.806218 0 1 0.04102,-1.42383 1.4405413,5.9509737 69.806218 0 1 1.029297,-0.35156 z m -1.066406,0.36524 a 1.8236192,0.88831057 69.806218 0 0 -0.1875,1.47851 l -0.792969,0.29102 -0.002,-0.002 a 1.8236192,0.68387747 69.806218 0 1 0.04102,-1.42382 1.4405413,6.439949 69.806218 0 1 0.06055,-0.0234 1.4405413,6.439949 69.806218 0 1 0.478515,-0.16602 1.4405413,5.9509737 69.806218 0 1 0.402344,-0.15429 z m -0.978515,0.35937 a 1.8236192,0.88831057 69.806218 0 0 -0.1875,1.47852 l -0.728516,0.26757 a 1.8236192,0.68387747 69.806218 0 1 0.02148,-1.39453 1.4405413,6.439949 69.806218 0 1 0.894532,-0.35156 z m 5.794921,0.12305 c -0.391882,0.43228 -2.007878,1.42957 -4.068359,2.1875 -2.056329,0.75628 -3.911566,1.23716 -4.494141,1.16406 0.830943,-0.17963 2.54579,-0.72929 4.402344,-1.41211 1.862335,-0.68518 3.417032,-1.53945 4.160156,-1.93945 z m -6.736328,0.24804 a 1.8236192,0.88831057 69.806218 0 0 -0.158203,1.44141 l -0.691406,0.25586 a 1.5842805,0.73304351 69.806218 0 1 0.144531,-1.39453 1.4405413,6.439949 69.806218 0 1 0.705078,-0.30274 z m -3.300781,0.10743 a 4.269177,1.112587 69.806218 0 0 0.648438,2.32422 4.269177,1.112587 69.806218 0 0 0.851562,1.90429 l -0.964844,-1.59375 c -0.06069,-0.10002 -0.16126,-0.1656 -0.271484,-0.125 l -0.46875,0.17188 a 1.9976754,1.013672 69.806218 0 1 -0.0078,-0.0176 1.9976754,1.013672 69.806218 0 1 0.248047,-2.2168 v -0.002 a 1.9976754,1.1966273 69.806218 0 0 -0.419922,2.2832 1.9976754,1.1966273 69.806218 0 0 0.0078,0.0156 l -0.191406,0.0703 a 2.4125573,1.5803998 69.806218 0 1 -0.01563,-0.0371 2.4125573,1.5803998 69.806218 0 1 0.583984,-2.77734 z m 2.550781,0.21484 a 1.5842805,0.95217402 69.806218 0 0 -0.298828,1.44727 l -0.722656,0.26562 a 1.5147949,0.70089268 69.806218 0 1 0.07227,-1.25781 1.4405413,6.439949 69.806218 0 1 0.949219,-0.45508 z m -1.011719,0.48633 a 1.5147949,0.91041231 69.806218 0 0 -0.199218,1.29687 l -0.451172,0.16602 -0.337891,-0.91797 a 1.4405413,6.439949 69.806218 0 1 0.988281,-0.54492 z" /></g><g
     id="g4"
     transform="matrix(0.71701845,0,0,0.71701845,10.373683,46.448035)"><path
       id="path3"
       style="font-style:normal;font-variant:normal;font-weight:normal;font-stretch:normal;font-size:200px;line-height:125%;font-family:'Times New Roman';-inkscape-font-specification:'Times New Roman';text-align:center;letter-spacing:0px;word-spacing:-70px;text-anchor:middle;display:inline;fill:#000000;fill-opacity:1;stroke:none;stroke-width:0.263601;stroke-dasharray:none"
       d="m 47.765622,91.693782 -7.410226,22.482568 h -5.397874 v 2.16131 h 4.696394 l -1.381293,4.19804 c -0.837149,2.5332 -1.36671,4.00195 -1.584423,4.4066 -0.870634,1.58322 -2.116125,2.37524 -3.740323,2.37528 l -0.04332,0.97502 h 10.213436 v -0.97502 c -1.021336,-4e-5 -1.850022,-0.1248 -2.486326,-0.37104 -0.853892,-0.33428 -1.281038,-0.95951 -1.28108,-1.87423 4.2e-5,-0.79168 0.36835,-2.30248 1.105034,-4.53661 l 0.614809,-1.86609 h -0.08125 l 2.781544,-8.35275 1.565464,-4.74515 1.557339,-4.74785 0.01896,0.0569 0.04063,-0.11912 5.395164,16.20716 1.118577,3.30156 c 0.753498,2.25171 1.129435,3.81678 1.129409,4.6964 2.6e-5,1.56563 -0.902764,2.35086 -2.711124,2.3509 h -0.904611 v 0.97502 h 13.260403 v -0.97501 c -0.686477,-4e-5 -1.187731,-0.0542 -1.50588,-0.1598 -0.904146,-0.2991 -1.592255,-0.80904 -2.061104,-1.53025 -0.552521,-0.84443 -0.946437,-1.61746 -1.180868,-2.32111 l -1.806513,-5.41141 0.308759,-0.91003 h -0.07042 l 4.246794,-12.74039 1.121285,-3.42073 0.01082,0.0298 0.0298,-0.0921 5.411415,16.22342 h -0.01625 l 1.313581,3.91907 c 0.736738,2.19896 1.105045,3.61618 1.105034,4.24952 1.1e-5,1.44248 -0.913123,2.16397 -2.738208,2.16401 h -0.601269 v 0.97502 h 12.607676 v -0.97502 c -1.825074,-4e-5 -3.062935,-0.66049 -3.715946,-1.97985 -0.200921,-0.38705 -0.679274,-1.69849 -1.432753,-3.93262 l -1.733386,-5.06745 h 4.87244 v -2.16131 H 72.804925 L 65.145524,91.693782 h -0.904609 l -4.672018,13.877928 h -0.04332 l -2.911546,8.60464 h -0.251884 l -2.93863,-8.60464 h 0.04335 L 48.770456,91.693782 Z" /></g></svg>
