<?xml version="1.0" encoding="UTF-8" standalone="no"?>
<svg
   enable-background="new 0 0 100 100"
   height="168"
   id="Layer_1"
   version="1.1"
   viewBox="0 0 102 168"
   width="102"
   xml:space="preserve"
   xmlns="http://www.w3.org/2000/svg"
   xmlns:svg="http://www.w3.org/2000/svg"><defs
     id="defs6" /><g
     id="g1"
     transform="matrix(1.7445714,0,0,1.7445714,-36.22857,-5.2337142)"><g
       id="g6"
       transform="matrix(0.57421535,0,0,0.57421535,19.16395,11.269759)"
       style="fill:#000000"><path
         id="path386"
         style="display:inline;fill:#000000;fill-opacity:1;stroke-width:0.837835"
         d="M 29.216935 77.107053 C 18.6825 84.723069 11.810065 97.10494 11.810065 111.06878 C 11.810065 134.16861 30.601355 152.9599 53.701194 152.9599 C 76.801032 152.9599 95.592323 134.16861 95.592323 111.06878 C 95.592323 97.10494 88.719889 84.723069 78.185454 77.107053 L 73.972164 77.107053 C 85.518527 84.024679 93.266338 96.657107 93.266338 111.06878 C 93.266338 132.88513 75.517549 150.63197 53.701194 150.63197 C 31.884838 150.63197 14.13605 132.88513 14.13605 111.06878 C 14.13605 96.657107 21.883857 84.024679 33.430224 77.107053 L 29.216935 77.107053 z M 41.546801 77.107053 C 27.618552 82.107267 17.627953 95.44176 17.627953 111.06878 C 17.627953 130.95928 33.809517 147.14202 53.701194 147.14202 C 73.59287 147.14202 89.774436 130.95928 89.774436 111.06878 C 89.774436 100.92165 85.464833 91.186338 77.947591 84.357966 C 77.711405 84.142642 77.344355 84.159521 77.12677 84.39696 C 76.910356 84.635492 76.927236 85.003234 77.165763 85.219731 C 84.439865 91.826998 88.610468 101.24866 88.610468 111.06878 C 88.610468 130.31809 72.950501 145.97805 53.701194 145.97805 C 34.451887 145.97805 18.79192 130.31809 18.79192 111.06878 C 18.79192 94.592403 30.268101 80.754597 45.645058 77.107053 L 41.546801 77.107053 z M 61.792425 77.107053 C 63.120269 77.422294 64.43182 77.808795 65.719109 78.280769 C 66.02048 78.392453 66.357197 78.238297 66.467792 77.935673 C 66.578302 77.633131 66.421422 77.301435 66.118796 77.19089 C 66.037379 77.161047 65.954726 77.136295 65.873135 77.107053 L 61.792425 77.107053 z M 69.444975 78.653161 C 69.219177 78.639921 68.99469 78.759558 68.887362 78.97681 C 68.745349 79.265445 68.865063 79.613585 69.15252 79.756688 C 69.929782 80.140668 70.697104 80.556053 71.439512 80.994743 C 71.532592 81.050633 71.63652 81.076631 71.737815 81.076631 C 71.936801 81.076631 72.130638 80.974624 72.238886 80.791975 C 72.401762 80.514987 72.309988 80.158682 72.034168 79.99455 C 71.267296 79.539605 70.46905 79.1104 69.66724 78.713601 C 69.59602 78.678661 69.520211 78.657611 69.444975 78.653161 z M 73.964366 81.423676 C 73.817744 81.449146 73.681935 81.53086 73.590024 81.663489 C 73.40503 81.926485 73.467406 82.289484 73.730402 82.474561 C 74.117902 82.746859 74.500108 83.023602 74.874873 83.31098 C 74.980776 83.39125 75.106387 83.431861 75.229717 83.431861 C 75.404323 83.431861 75.576592 83.352722 75.691795 83.203747 C 75.886172 82.947788 75.838655 82.58307 75.582612 82.388775 C 75.193939 82.092013 74.800639 81.799719 74.399147 81.519211 C 74.267691 81.427891 74.110988 81.398206 73.964366 81.423676 z " /><g
         id="g2"
         transform="matrix(0.96350219,0,0,0.96350219,-0.30152923,3.0290991)"><path
           fill="var(--ci-primary-color, #000000)"
           d="m 53.185541,121.85069 1.644582,-3.49483 a 65.406219,65.406219 0 0 1 -4.608362,-5.10499 q 1.810578,-2.44185 3.373983,-5.01161 a 61.949008,61.949008 0 0 0 6.65973,-15.212466 h 5.9043 V 89.378502 H 49.742465 v -6.384508 h -3.648292 v 6.384508 H 28.764792 v 3.648292 h 6.814324 a 62.148978,62.148978 0 0 0 8.145722,17.552726 c 0.776514,-0.95836 1.56261,-1.98741 2.34471,-3.08178 A 58.449839,58.449839 0 0 1 39.382461,93.026794 h 17.071376 c -3.389145,11.119316 -9.639009,19.291256 -14.438108,24.297506 -5.585649,5.82667 -10.483368,8.76274 -10.53216,8.7917 l 0.184808,0.31216 0.744707,1.2574 0.928033,1.57036 c 0.213541,-0.12609 5.298459,-3.16136 11.217241,-9.31226 q 1.753458,-1.82209 3.356429,-3.75443 a 69.333263,69.333263 0 0 0 5.270754,5.66146 z"
           class="ci-primary"
           id="path1"
           style="stroke-width:0.11401" /><path
           fill="var(--ci-primary-color, #000000)"
           d="m 64.98799,103.97167 -0.65236,1.42694 -13.523874,29.58353 h 4.01141 l 4.169427,-9.12072 h 16.15851 l 4.169427,9.12072 h 4.01141 L 69.155705,103.97167 Z m -0.65236,18.24146 h -3.675198 l 3.675198,-8.03947 2.73622,-5.98548 6.411414,14.02495 z"
           class="ci-primary"
           id="path2"
           style="stroke-width:0.11401" /></g></g><path
       id="path5"
       style="fill:#000000"
       d="M 20.899685 3 L 38.266056 44.999705 L 36.002337 44.999705 L 36.002337 55.523422 L 64.002141 55.525661 L 64.002141 44.999705 L 61.732824 44.999705 L 79.100315 3 L 73.956009 3 L 55.111839 48.999837 L 55.999638 48.999837 L 59.99977 48.999837 L 60.867417 47.000331 L 62.001515 47.000331 L 62.001515 54.229228 L 38.001844 54.228109 L 38.001844 47.000331 L 39.132583 47.000331 L 40.00023 48.999837 L 44.000362 48.999837 L 45.172525 48.999837 L 26.328355 3 L 20.899685 3 z M 31.143515 3 L 49.987685 48.999837 L 50.296679 48.999837 L 69.140849 3 L 63.099788 3 L 50 35.154432 L 36.900212 3 L 31.143515 3 z " /><g
       id="g4" /></g></svg>
