<?xml version="1.0" encoding="UTF-8" standalone="no"?>
<!-- Created with Inkscape (http://www.inkscape.org/) -->

<svg
   width="200mm"
   height="200mm"
   viewBox="0 0 200 200"
   version="1.1"
   id="svg1"
   xml:space="preserve"
   inkscape:version="1.3.2 (091e20e, 2023-11-25, custom)"
   sodipodi:docname="boost_40.svg"
   xmlns:inkscape="http://www.inkscape.org/namespaces/inkscape"
   xmlns:sodipodi="http://sodipodi.sourceforge.net/DTD/sodipodi-0.dtd"
   xmlns="http://www.w3.org/2000/svg"
   xmlns:svg="http://www.w3.org/2000/svg"><sodipodi:namedview
     id="namedview1"
     pagecolor="#ffffff"
     bordercolor="#111111"
     borderopacity="1"
     inkscape:showpageshadow="0"
     inkscape:pageopacity="0"
     inkscape:pagecheckerboard="1"
     inkscape:deskcolor="#d1d1d1"
     inkscape:document-units="mm"
     inkscape:zoom="0.70710678"
     inkscape:cx="-341.53258"
     inkscape:cy="512.65242"
     inkscape:window-width="3440"
     inkscape:window-height="1417"
     inkscape:window-x="-8"
     inkscape:window-y="-8"
     inkscape:window-maximized="1"
     inkscape:current-layer="layer1" /><defs
     id="defs1"><inkscape:path-effect
       effect="bspline"
       id="path-effect1"
       is_visible="true"
       lpeversion="1.3"
       weight="33.333333"
       steps="2"
       helper_size="0"
       apply_no_weight="true"
       apply_with_weight="true"
       only_selected="false"
       uniform="false" /></defs><g
     inkscape:label="Слой 1"
     inkscape:groupmode="layer"
     id="layer1"><path
       style="fill:#d9a520;stroke-width:0.499999;stroke-linejoin:bevel;paint-order:markers fill stroke;fill-opacity:1"
       d="m 4.0224064,111.03713 c 0,0 10.7575986,10.75759 10.7575986,10.75759 0,0 2.993418,0.28064 2.993418,0.28064 0,0 54.115397,-54.115401 54.115397,-54.115401 0,0 4.443357,0 4.443357,0 0,0 36.225043,36.225041 36.225043,36.225041 0,0 63.0842,-63.084202 63.0842,-63.084202 0,0 12.10206,12.687194 12.10206,12.687194 0,0 9.82215,-48.0817876 9.82215,-48.0817876 0,0 -48.54951,8.8867116 -48.54951,8.8867116 0,0 12.25431,12.254307 12.25431,12.254307 0,0 -48.83014,48.830142 -48.83014,48.830142 0,0 -38.072544,-38.072544 -38.072544,-38.072544 0,0 -70.4382327,70.438229 -70.4382327,70.438229 z"
       id="path1"
       inkscape:path-effect="#path-effect1"
       inkscape:original-d="m 4.0224064,111.03713 10.7575986,10.75759 2.993418,0.28064 54.115397,-54.115401 h 4.443357 L 112.55722,104.185 175.64142,41.100798 187.74348,53.787992 197.56563,5.7062044 149.01612,14.592916 161.27043,26.847223 112.44029,75.677365 74.367746,37.604821 3.9295133,108.04305 Z"
       sodipodi:nodetypes="ccccccccccccccc" /><text
       xml:space="preserve"
       style="font-style:normal;font-variant:normal;font-weight:normal;font-stretch:normal;font-size:55.7949px;font-family:'AC Boucle';-inkscape-font-specification:'AC Boucle';fill:#d9a520;fill-opacity:1;stroke:#d9a520;stroke-width:0.988492;stroke-linejoin:bevel;stroke-opacity:1;paint-order:markers fill stroke"
       x="80.720688"
       y="175.47321"
       id="text1"><tspan
         sodipodi:role="line"
         id="tspan1"
         style="font-style:normal;font-variant:normal;font-weight:normal;font-stretch:normal;font-size:55.7949px;font-family:'AC Boucle';-inkscape-font-specification:'AC Boucle';stroke-width:0.988494"
         x="80.720688"
         y="175.47321">40 %</tspan></text><g
       id="g4"
       transform="translate(14.075093,-2.6458333)"><path
         d="m 24.406845,168.44129 c -0.293159,10.11396 4.543957,14.65792 15.24424,14.95107 11.433179,0.14659 16.563452,-4.98369 15.977135,-14.80449 -0.879476,-8.5016 -9.087912,-10.70028 -15.537398,-11.57976 -7.035803,-2.49184 -14.511343,-3.66448 -14.511343,-13.92503 0,-7.03581 4.690534,-11.57976 14.511343,-11.43317 8.794754,0 14.218185,3.66447 14.071605,12.31264"
         style="fill:none;stroke:#d9a520;stroke-width:5.86314;stroke-opacity:1"
         id="path3" /><path
         d="M 39.797663,124.90725 V 193.7995"
         style="stroke:#d9a520;stroke-width:4.39738;stroke-opacity:1"
         id="path4" /></g></g></svg>
