<?xml version="1.0" encoding="UTF-8" standalone="no"?>
<!-- Created with Inkscape (http://www.inkscape.org/) -->

<svg
   width="210mm"
   height="210mm"
   viewBox="0 0 210 210"
   version="1.1"
   id="svg1"
   xml:space="preserve"
   sodipodi:docname="beluzzo_base.svg"
   inkscape:version="1.3.2 (091e20e, 2023-11-25, custom)"
   xmlns:inkscape="http://www.inkscape.org/namespaces/inkscape"
   xmlns:sodipodi="http://sodipodi.sourceforge.net/DTD/sodipodi-0.dtd"
   xmlns:xlink="http://www.w3.org/1999/xlink"
   xmlns="http://www.w3.org/2000/svg"
   xmlns:svg="http://www.w3.org/2000/svg"><sodipodi:namedview
     id="namedview1"
     pagecolor="#ffffff"
     bordercolor="#111111"
     borderopacity="1"
     inkscape:showpageshadow="0"
     inkscape:pageopacity="0"
     inkscape:pagecheckerboard="1"
     inkscape:deskcolor="#d1d1d1"
     inkscape:document-units="mm"
     inkscape:zoom="1.087787"
     inkscape:cx="410.92604"
     inkscape:cy="398.05587"
     inkscape:window-width="1718"
     inkscape:window-height="1408"
     inkscape:window-x="1713"
     inkscape:window-y="0"
     inkscape:window-maximized="0"
     inkscape:current-layer="g1" /><defs
     id="defs1"><linearGradient
       id="linearGradient54"
       inkscape:collect="always"><stop
         style="stop-color:#ffffff;stop-opacity:0.41639343;"
         offset="0.38009387"
         id="stop54" /><stop
         style="stop-color:#ffffff;stop-opacity:0.12459017;"
         offset="0.72807014"
         id="stop56" /><stop
         style="stop-color:#000000;stop-opacity:0;"
         offset="1"
         id="stop55" /></linearGradient><linearGradient
       id="linearGradient40"
       inkscape:collect="always"><stop
         style="stop-color:#000000;stop-opacity:1;"
         offset="0.04670464"
         id="stop40" /><stop
         style="stop-color:#cbb973;stop-opacity:1;"
         offset="1"
         id="stop41" /></linearGradient><linearGradient
       id="linearGradient22"
       inkscape:collect="always"><stop
         style="stop-color:#c7b261;stop-opacity:0.19016394;"
         offset="0.11405295"
         id="stop27" /><stop
         style="stop-color:#c7b261;stop-opacity:0.46229509;"
         offset="0.24032587"
         id="stop26" /><stop
         style="stop-color:#c7b261;stop-opacity:0.48524591;"
         offset="0.40971807"
         id="stop22" /><stop
         style="stop-color:#c7b261;stop-opacity:0.80000001;"
         offset="0.65987778"
         id="stop25" /><stop
         style="stop-color:#c7b261;stop-opacity:0.87868851;"
         offset="0.9162131"
         id="stop24" /><stop
         style="stop-color:#c7b261;stop-opacity:1;"
         offset="1"
         id="stop23" /></linearGradient><linearGradient
       id="linearGradient15"
       inkscape:collect="always"><stop
         style="stop-color:#c9b66b;stop-opacity:1;"
         offset="0.86558044"
         id="stop19" /><stop
         style="stop-color:#000000;stop-opacity:1;"
         offset="1"
         id="stop20" /></linearGradient><linearGradient
       id="linearGradient13"
       inkscape:collect="always"><stop
         style="stop-color:#c9b66b;stop-opacity:1;"
         offset="0"
         id="stop14" /><stop
         style="stop-color:#c9b66b;stop-opacity:0.73333335;"
         offset="1"
         id="stop15" /></linearGradient><linearGradient
       id="linearGradient12"
       inkscape:collect="always"><stop
         style="stop-color:#c9b66b;stop-opacity:1;"
         offset="0.87495261"
         id="stop12" /><stop
         style="stop-color:#000000;stop-opacity:1;"
         offset="1"
         id="stop13" /></linearGradient><linearGradient
       id="linearGradient8"
       inkscape:collect="always"><stop
         style="stop-color:#c9b66b;stop-opacity:1;"
         offset="0.921911"
         id="stop8" /><stop
         style="stop-color:#000000;stop-opacity:1;"
         offset="1"
         id="stop10" /></linearGradient><linearGradient
       id="linearGradient17"><stop
         style="stop-color:#ffffff;stop-opacity:0.85000002;"
         offset="0"
         id="stop17" /><stop
         style="stop-color:#000000;stop-opacity:0;"
         offset="1"
         id="stop18" /></linearGradient><linearGradient
       id="linearGradient9"><stop
         style="stop-color:#bfbfbf;stop-opacity:1;"
         offset="0"
         id="stop9" /><stop
         style="stop-color:#ffffff;stop-opacity:0.2;"
         offset="1"
         id="stop16" /></linearGradient><linearGradient
       id="linearGradient583"><stop
         style="stop-color:#ffffff;stop-opacity:1;"
         offset="0"
         id="stop584" /><stop
         style="stop-color:#4d4d4d;stop-opacity:0;"
         offset="1"
         id="stop585" /></linearGradient><linearGradient
       id="linearGradient581"><stop
         style="stop-color:#ffffff;stop-opacity:1;"
         offset="0"
         id="stop582" /><stop
         style="stop-color:#4d4d4d;stop-opacity:0;"
         offset="1"
         id="stop583" /></linearGradient><linearGradient
       id="linearGradient580"><stop
         style="stop-color:#ffffff;stop-opacity:0.84999996;"
         offset="0"
         id="stop580" /><stop
         style="stop-color:#000000;stop-opacity:0;"
         offset="1"
         id="stop581" /></linearGradient><radialGradient
       xlink:href="#linearGradient580"
       id="radialGradient581"
       cx="105.07166"
       cy="258.60706"
       fx="105.07166"
       fy="258.60706"
       r="103.07987"
       gradientTransform="matrix(1.0725995,0,0,0.41638007,-10.303689,109.37729)"
       gradientUnits="userSpaceOnUse" /><radialGradient
       xlink:href="#linearGradient581"
       id="radialGradient583"
       cx="105.02719"
       cy="188.04417"
       fx="105.02719"
       fy="188.04417"
       r="4.8165979"
       gradientTransform="matrix(1.6866445,0,0,38.723298,-72.116348,-7114.9098)"
       gradientUnits="userSpaceOnUse" /><radialGradient
       xlink:href="#linearGradient583"
       id="radialGradient585"
       cx="105.02718"
       cy="99.840584"
       fx="105.02718"
       fy="99.840584"
       r="4.5495901"
       gradientTransform="matrix(1.4523435,5.9446328e-6,-9.2485098e-5,22.595194,-47.499134,-2164.0154)"
       gradientUnits="userSpaceOnUse" /><radialGradient
       xlink:href="#linearGradient9"
       id="radialGradient17"
       cx="105.02718"
       cy="128.09346"
       fx="105.02718"
       fy="128.09346"
       r="9.0619793"
       gradientTransform="matrix(1.2627739,0,0,14.196054,-27.598406,-1698.2662)"
       gradientUnits="userSpaceOnUse" /><radialGradient
       xlink:href="#linearGradient17"
       id="radialGradient18"
       cx="105.02692"
       cy="274.62393"
       fx="105.02692"
       fy="274.62393"
       r="35.412567"
       gradientTransform="matrix(1.1901921,0,0,0.89731806,-19.975294,5.2925437)"
       gradientUnits="userSpaceOnUse" /><radialGradient
       inkscape:collect="always"
       xlink:href="#linearGradient8"
       id="radialGradient10"
       cx="106.49689"
       cy="153.51918"
       fx="106.49689"
       fy="153.51918"
       r="54.424917"
       gradientTransform="matrix(0,-0.99860308,0.99051953,0,-46.992331,259.03858)"
       gradientUnits="userSpaceOnUse" /><radialGradient
       inkscape:collect="always"
       xlink:href="#linearGradient12"
       id="radialGradient13"
       cx="105.10273"
       cy="153.86311"
       fx="105.10273"
       fy="153.86311"
       r="54.424917"
       gradientTransform="matrix(6.7089899e-6,-0.94488087,0.92415665,0,-37.091594,253.17271)"
       gradientUnits="userSpaceOnUse" /><radialGradient
       inkscape:collect="always"
       xlink:href="#linearGradient13"
       id="radialGradient15"
       cx="103.09241"
       cy="153.95758"
       fx="103.09241"
       fy="153.95758"
       r="24.328583"
       gradientUnits="userSpaceOnUse"
       gradientTransform="matrix(0,-1.0250728,1,2.2535967e-6,-49.104401,259.15839)" /><radialGradient
       inkscape:collect="always"
       xlink:href="#linearGradient15"
       id="radialGradient20"
       cx="105.10273"
       cy="153.17516"
       fx="105.10273"
       fy="153.17516"
       r="54.424917"
       gradientTransform="matrix(0,-0.84691669,0.82935255,-8.6159224e-7,-21.933477,242.18859)"
       gradientUnits="userSpaceOnUse" /><radialGradient
       inkscape:collect="always"
       xlink:href="#linearGradient22"
       id="radialGradient23"
       cx="104.24277"
       cy="153.34718"
       fx="104.24277"
       fy="153.34718"
       r="99.365295"
       gradientUnits="userSpaceOnUse"
       gradientTransform="matrix(0,-0.99006778,1,-2.934104e-6,-49.347646,256.55504)" /><radialGradient
       inkscape:collect="always"
       xlink:href="#linearGradient40"
       id="radialGradient41"
       cx="104.07296"
       cy="247.9825"
       fx="104.07296"
       fy="247.9825"
       r="8.2314038"
       gradientTransform="matrix(0.03691154,2.0231478,-2.0184115,0.03682359,600.95988,12.409479)"
       gradientUnits="userSpaceOnUse" /><radialGradient
       inkscape:collect="always"
       xlink:href="#linearGradient40"
       id="radialGradient42"
       gradientUnits="userSpaceOnUse"
       gradientTransform="matrix(-0.03691154,-2.0231478,2.0184115,-0.03682359,-391.54307,293.03048)"
       cx="104.07296"
       cy="247.9825"
       fx="104.07296"
       fy="247.9825"
       r="8.2314038" /><radialGradient
       inkscape:collect="always"
       xlink:href="#linearGradient40"
       id="radialGradient43"
       gradientUnits="userSpaceOnUse"
       gradientTransform="matrix(0.03691154,2.0231478,-2.0184115,0.03682359,600.95988,12.409479)"
       cx="104.07296"
       cy="247.9825"
       fx="104.07296"
       fy="247.9825"
       r="8.2314038" /><radialGradient
       inkscape:collect="always"
       xlink:href="#linearGradient40"
       id="radialGradient44"
       gradientUnits="userSpaceOnUse"
       gradientTransform="matrix(-0.03691154,-2.0231478,2.0184115,-0.03682359,-391.54307,293.03048)"
       cx="104.07296"
       cy="247.9825"
       fx="104.07296"
       fy="247.9825"
       r="8.2314038" /><radialGradient
       inkscape:collect="always"
       xlink:href="#linearGradient40"
       id="radialGradient45"
       gradientUnits="userSpaceOnUse"
       gradientTransform="matrix(0.03691154,2.0231478,-2.0184115,0.03682359,600.95988,12.409479)"
       cx="104.07296"
       cy="247.9825"
       fx="104.07296"
       fy="247.9825"
       r="8.2314038" /><radialGradient
       inkscape:collect="always"
       xlink:href="#linearGradient40"
       id="radialGradient46"
       gradientUnits="userSpaceOnUse"
       gradientTransform="matrix(-0.03691154,-2.0231478,2.0184115,-0.03682359,-391.54307,293.03048)"
       cx="104.07296"
       cy="247.9825"
       fx="104.07296"
       fy="247.9825"
       r="8.2314038" /><radialGradient
       inkscape:collect="always"
       xlink:href="#linearGradient40"
       id="radialGradient47"
       gradientUnits="userSpaceOnUse"
       gradientTransform="matrix(0.03691154,2.0231478,-2.0184115,0.03682359,600.95988,12.409479)"
       cx="104.07296"
       cy="247.9825"
       fx="104.07296"
       fy="247.9825"
       r="8.2314038" /><radialGradient
       inkscape:collect="always"
       xlink:href="#linearGradient40"
       id="radialGradient48"
       gradientUnits="userSpaceOnUse"
       gradientTransform="matrix(-0.03691154,-2.0231478,2.0184115,-0.03682359,-391.54307,293.03048)"
       cx="104.07296"
       cy="247.9825"
       fx="104.07296"
       fy="247.9825"
       r="8.2314038" /><radialGradient
       inkscape:collect="always"
       xlink:href="#linearGradient54"
       id="radialGradient55"
       cx="104.91891"
       cy="233.80444"
       fx="104.91891"
       fy="233.80444"
       r="9.3711465"
       gradientTransform="matrix(1.1654259,-2.0995678e-6,0,4.2763223,-17.172505,-766.1564)"
       gradientUnits="userSpaceOnUse" /><radialGradient
       inkscape:collect="always"
       xlink:href="#linearGradient54"
       id="radialGradient57"
       gradientUnits="userSpaceOnUse"
       gradientTransform="matrix(1.1654259,-2.0995678e-6,0,4.2763223,-17.172505,-766.1564)"
       cx="104.91891"
       cy="233.80444"
       fx="104.91891"
       fy="233.80444"
       r="9.3711465" /><radialGradient
       inkscape:collect="always"
       xlink:href="#linearGradient54"
       id="radialGradient79"
       gradientUnits="userSpaceOnUse"
       gradientTransform="matrix(1.1654259,-2.0995678e-6,0,4.2763223,-17.172505,-766.1564)"
       cx="104.91891"
       cy="233.80444"
       fx="104.91891"
       fy="233.80444"
       r="9.3711465" /><radialGradient
       inkscape:collect="always"
       xlink:href="#linearGradient54"
       id="radialGradient80"
       gradientUnits="userSpaceOnUse"
       gradientTransform="matrix(1.1654259,-2.0995678e-6,0,4.2763223,-17.172505,-766.1564)"
       cx="104.91891"
       cy="233.80444"
       fx="104.91891"
       fy="233.80444"
       r="9.3711465" /><radialGradient
       inkscape:collect="always"
       xlink:href="#linearGradient54"
       id="radialGradient84"
       gradientUnits="userSpaceOnUse"
       gradientTransform="matrix(1.1654259,-2.0995678e-6,0,4.2763223,-17.172505,-766.1564)"
       cx="104.91891"
       cy="233.80444"
       fx="104.91891"
       fy="233.80444"
       r="9.3711465" /><radialGradient
       inkscape:collect="always"
       xlink:href="#linearGradient54"
       id="radialGradient85"
       gradientUnits="userSpaceOnUse"
       gradientTransform="matrix(1.1654259,-2.0995678e-6,0,4.2763223,-17.172505,-766.1564)"
       cx="104.91891"
       cy="233.80444"
       fx="104.91891"
       fy="233.80444"
       r="9.3711465" /><radialGradient
       inkscape:collect="always"
       xlink:href="#linearGradient54"
       id="radialGradient89"
       gradientUnits="userSpaceOnUse"
       gradientTransform="matrix(1.1654259,-2.0995678e-6,0,4.2763223,-17.172505,-766.1564)"
       cx="104.91891"
       cy="233.80444"
       fx="104.91891"
       fy="233.80444"
       r="9.3711465" /><radialGradient
       inkscape:collect="always"
       xlink:href="#linearGradient54"
       id="radialGradient90"
       gradientUnits="userSpaceOnUse"
       gradientTransform="matrix(1.1654259,-2.0995678e-6,0,4.2763223,-17.172505,-766.1564)"
       cx="104.91891"
       cy="233.80444"
       fx="104.91891"
       fy="233.80444"
       r="9.3711465" /></defs><g
     id="layer1"><g
       id="g1"
       transform="translate(-0.01673437,-47.745222)"><circle
         style="display:inline;fill:#e6e6e6;stroke:#053d00;stroke-width:0.011;stroke-linejoin:bevel;paint-order:markers fill stroke"
         id="path1"
         cx="105.01673"
         cy="152.74522"
         r="99.359795"
         inkscape:label="корпус"
         sodipodi:insensitive="true" /><circle
         style="display:inline;fill:url(#radialGradient23);fill-opacity:1;stroke:#053d00;stroke-width:0.011;stroke-linejoin:bevel;paint-order:markers fill stroke"
         id="circle22"
         cx="104.7735"
         cy="152.74522"
         r="99.359795"
         inkscape:label="корпус"
         sodipodi:insensitive="true" /><path
         id="path32"
         style="display:inline;fill:#5b6833;fill-opacity:0.685039;stroke:none;stroke-width:0.765;stroke-linecap:square;paint-order:markers fill stroke"
         inkscape:label="темные пятна"
         d="m 102.21618,54.94995 c -1.43503,-0.07742 -3.045879,0.155818 -4.330484,0.248047 -4.280695,0.30725 -8.772302,6.622692 -12.217342,4.063318 -1.030288,-0.765418 -1.514196,-1.991798 -1.629358,-3.377055 a 99.359795,99.359795 0 0 0 -19.70164,6.257499 c -0.140417,1.287355 0.03906,2.516659 0.763261,3.502112 0.221063,0.300946 0.461069,0.569872 0.718302,0.808219 3.858188,3.575609 11.57982,0.43554 17.176213,0.20774 6.327872,-0.257588 13.686698,1.095652 18.819008,-2.614828 2.25167,-1.627865 4.93074,-5.000525 3.67729,-7.480163 -0.581,-1.1494 -1.84022,-1.537471 -3.27525,-1.614889 z m 16.25121,4.394047 c -1.56166,0.04347 -3.08548,0.3139 -4.5465,0.923975 -2.56391,1.070615 -5.9426,3.742119 -5.28856,6.442501 0.60632,2.50341 4.54862,2.660338 7.09207,3.067513 4.23774,0.67849 10.053,-4.444347 12.82247,-1.165821 2.25542,2.669964 -0.14996,7.727074 -2.68149,10.136849 -2.74977,2.617549 -9.23791,-0.918255 -11.14092,2.366781 -1.59398,2.751516 0.11646,7.584807 2.9223,9.081099 3.26937,1.743464 7.67032,-0.912145 10.68411,-3.067513 3.20574,-2.292651 3.34721,-7.731228 6.76134,-9.700183 2.90769,-1.676888 7.24303,1.018257 10.03401,-0.84646 2.95979,-1.977465 6.29969,-6.21334 4.90255,-9.487276 -0.14652,-0.343474 -0.3187,-0.659524 -0.5147,-0.95033 -2.93964,-4.362257 -11.17442,-3.068992 -16.67495,-4.125329 -4.66461,-0.895784 -9.68679,-2.806226 -14.37173,-2.675806 z M 65.851992,73.948274 c -2.575051,-0.06227 -3.747084,3.705598 -4.798673,6.056994 -1.752187,3.91773 1.690978,10.860508 -2.192631,12.687081 -3.162738,1.487534 -7.424647,-2.144669 -9.097119,-5.213635 -1.81666,-3.333559 3.277956,-8.685591 0.597379,-11.373983 -2.245211,-2.251807 -7.356604,-1.850649 -9.5281,0.472323 -2.530247,2.706718 -1.103983,7.64511 0.19792,11.11405 1.384827,3.689897 6.601468,5.233919 7.61969,9.041309 0.867189,3.242627 -2.858551,6.733047 -1.779736,9.911537 1.14404,3.37075 4.37113,7.69296 7.895125,7.19078 0.36969,-0.0526 0.719991,-0.13709 1.051616,-0.25115 4.974443,-1.71043 5.856292,-9.99917 8.300268,-15.038875 2.763403,-5.698422 7.433334,-11.544077 6.588745,-17.820617 -0.370535,-2.753661 -2.076848,-6.708648 -4.854484,-6.775814 z m 29.214755,3.946012 c -1.061112,7.18e-4 -2.121483,0.200921 -3.04891,0.583427 -2.811382,1.159509 -1.945024,9.00113 -3.072164,11.825635 -2.911866,6.489385 -8.467089,5.589541 -1.743046,10.809162 2.453015,2.0889 6.171231,5.9905 8.863025,4.98987 0.278614,-0.10308 0.54599,-0.25957 0.799951,-0.47542 1.2114,-1.02975 -3.054113,-5.58064 -3.16053,-7.167004 -0.311557,-4.643832 0.690758,-7.811367 3.830774,-11.246859 1.195941,-1.308481 4.450593,0.39925 5.176423,-1.218013 1.09829,-2.447134 -1.57013,-5.631441 -3.829219,-7.077605 -1.086315,-0.695395 -2.452022,-1.024122 -3.816304,-1.023193 z m 64.383663,3.339848 c -2.05166,-0.02391 -4.03409,0.502378 -5.3821,1.789555 -1.96026,1.871837 -2.29754,6.016197 -0.57774,8.111133 2.24748,2.737694 9.59167,-2.087307 10.54354,1.324467 0.95931,3.438515 -7.81354,3.121645 -8.40052,6.643005 -0.55955,3.356876 2.11905,8.693996 5.5206,8.588106 2.42775,-0.0756 1.3137,-5.41895 3.55172,-6.36292 2.56585,-1.08225 5.63279,0.8215 8.06617,2.17558 3.02282,1.68207 4.28008,8.13528 7.57783,7.09052 2.2125,-0.70092 2.09992,-4.59821 1.418,-6.81664 -1.17179,-3.812231 -6.66424,-4.834458 -8.59534,-8.324036 -1.2472,-2.253736 0.38826,-5.929234 -1.60662,-7.558711 -0.87071,-0.711224 -2.40213,0.538616 -3.37292,-0.02842 -1.70029,-0.99315 -1.22837,-4.155994 -2.94504,-5.120618 -1.62489,-0.913057 -3.7459,-1.487106 -5.79758,-1.511019 z m -23.23114,12.327413 c -2.57504,-0.06227 -3.74707,3.705595 -4.79867,6.056994 -1.75219,3.917729 1.69098,10.860509 -2.19263,12.687079 -3.16274,1.48754 -7.42465,-2.14468 -9.09712,-5.21363 -1.81666,-3.33357 3.27796,-8.685584 0.59738,-11.373986 -2.24521,-2.251798 -7.3566,-1.850651 -9.5281,0.472323 -2.53024,2.706726 -1.10399,7.645103 0.19792,11.114053 1.38482,3.68988 6.60146,5.23443 7.61969,9.04182 0.86719,3.24263 -2.85856,6.73251 -1.77974,9.91103 1.14404,3.37073 4.37113,7.69295 7.89513,7.19077 0.36969,-0.0526 0.71999,-0.13709 1.05161,-0.25115 4.97446,-1.71042 5.85629,-9.99916 8.30027,-15.03887 2.76341,-5.69842 7.43334,-11.54407 6.58875,-17.82062 -0.37054,-2.753659 -2.07684,-6.708649 -4.85449,-6.775813 z m -104.307325,3.58221 c -1.435027,-0.07729 -3.045878,0.155818 -4.330485,0.248047 -2.407958,0.172833 -4.876789,2.218977 -7.194393,3.545006 a 99.359795,99.359795 0 0 0 -4.324284,7.91993 c 5.450684,0.0822 11.199904,0.45215 15.44712,-2.61845 2.251661,-1.62787 4.930741,-5.00052 3.677294,-7.480161 -0.581002,-1.149399 -1.840223,-1.537084 -3.275252,-1.614372 z M 195.534,111.83692 c -0.11948,0.13955 -0.20805,0.29968 -0.34468,0.42788 -2.44788,2.29664 -7.28481,0.66273 -9.57616,3.11557 -2.42996,2.60117 -4.71397,7.48761 -2.60604,10.35596 0.22107,0.30095 0.46106,0.56987 0.7183,0.80822 3.85497,3.57263 11.56649,0.44171 17.16174,0.20929 A 99.359795,99.359795 0 0 0 195.534,111.83692 Z m -39.09271,6.71277 c -1.26276,0.0128 -2.4237,0.6921 -3.43854,1.69447 -0.81136,0.80141 -1.51827,1.81053 -2.12029,2.84892 l 7.00164,27.01179 c 0.39703,0.20604 0.82123,0.30538 1.27693,0.24287 3.5018,-0.48041 6.88617,-5.36935 5.95002,-8.77775 -0.86812,-3.16069 -8.54258,-0.92095 -8.90075,-4.17908 -0.36935,-3.36 7.36752,-2.88585 8.02432,-6.20169 0.94161,-4.75369 -2.44887,-11.91713 -7.24607,-12.60336 -0.18443,-0.0264 -0.36686,-0.038 -0.54726,-0.0362 z m -132.447208,0.82527 c -0.144376,4e-4 -0.288122,0.006 -0.430981,0.0176 -2.673808,0.21349 -6.526675,1.76804 -6.708635,4.44417 -0.120257,1.76861 3.555774,1.79313 3.995622,3.51038 1.154847,4.50871 0.548923,7.77501 -1.910478,11.72642 -0.6408,1.02956 -4.210346,2.44109 -5.617228,3.70985 l 0.783415,2.54145 c 2.294243,1.12145 6.563232,-0.24686 9.323979,-0.85163 1.310775,-0.22549 2.286791,-0.4604 3.0024,-0.72296 3.864249,-1.41776 0.137098,-3.64806 0.54467,-9.63558 0.334003,-3.02272 4.786451,-9.53575 2.850989,-11.88145 -1.368171,-1.65814 -3.668142,-2.86428 -5.833753,-2.85822 z m 79.882458,1.82624 c -0.46079,-0.01 -0.90978,0.0396 -1.33583,0.15658 -3.160693,0.86812 -0.92095,8.54258 -4.179074,8.90075 -3.360033,0.36936 -2.885866,-7.367 -6.201689,-8.0238 -4.753712,-0.94161 -11.917125,2.44888 -12.603365,7.24607 -0.211042,1.47538 0.51274,2.82598 1.658297,3.9858 0.801403,0.81134 1.810535,1.51827 2.848922,2.12029 l 27.011789,-7.00164 c 0.20603,-0.39703 0.30486,-0.82174 0.24236,-1.27744 -0.42038,-3.0641 -4.21573,-6.0381 -7.44141,-6.10661 z m -62.60961,10.19938 c -2.051679,-0.0239 -4.034093,0.50186 -5.382101,1.78904 -1.960274,1.87184 -2.297033,6.01618 -0.577225,8.11113 2.247475,2.73769 9.591157,-2.08679 10.543025,1.32499 0.959311,3.43851 -7.813544,3.12164 -8.400521,6.643 -0.55955,3.35689 2.119061,8.69399 5.520594,8.58811 2.427764,-0.0756 1.314222,-5.41896 3.552238,-6.36292 2.565864,-1.08225 5.632277,0.82098 8.065657,2.17506 3.022807,1.68207 4.280595,8.13527 7.578349,7.09052 2.212493,-0.70092 2.099399,-4.59821 1.417484,-6.81664 -1.171805,-3.81224 -6.663726,-4.83394 -8.594824,-8.32352 -1.247199,-2.25374 0.387739,-5.92923 -1.607137,-7.55871 -0.87071,-0.71122 -2.401618,0.5386 -3.372404,-0.0284 -1.700295,-0.99315 -1.228888,-4.156 -2.945556,-5.12062 -1.624895,-0.91306 -3.74591,-1.4871 -5.797579,-1.51102 z M 178.35624,132.03 c -2.05167,0.0247 -4.02105,0.59792 -5.33818,1.91668 -1.91536,1.91777 -2.15396,6.0689 -0.38499,8.1225 2.31173,2.68366 9.53951,-2.31389 10.57197,1.07435 1.04052,3.41484 -7.73749,3.30561 -8.24084,6.8399 -0.47985,3.36919 2.32458,8.64177 5.72264,8.45529 2.42529,-0.13308 1.18478,-5.44887 3.3998,-6.4456 2.53948,-1.14275 5.65048,0.68782 8.11526,1.98386 3.06183,1.60997 4.47216,8.03124 7.74423,6.90862 2.19527,-0.75314 1.99004,-4.64651 1.25574,-6.84816 -1.26182,-3.78339 -6.77691,-4.67501 -8.79016,-8.11785 -1.30026,-2.22355 0.24751,-5.93666 -1.78542,-7.5184 -0.88732,-0.69039 -2.38845,0.59552 -3.37241,0.0517 -1.72334,-0.95257 -1.32691,-4.12614 -3.06596,-5.04982 -1.64607,-0.87428 -3.78003,-1.39776 -5.83168,-1.37304 z m -26.34258,25.98084 c -2.3202,-0.0557 -3.47922,3.66708 -3.55482,5.98672 -0.12994,3.98614 4.73252,6.73634 5.42551,10.66395 0.44754,2.53661 -2.29282,5.48178 -0.93535,7.67085 0.5925,0.95544 2.44671,0.2708 3.18069,1.12241 1.28551,1.49156 -0.18788,4.32977 1.12241,5.79964 2.48048,2.78264 7.27795,4.92688 10.66395,3.36776 2.46194,-1.13366 4.12681,-4.94385 3.18068,-7.48378 -1.23643,-3.31925 -9.74942,-1.14127 -9.54154,-4.67724 0.20953,-3.56366 8.40386,-0.41453 10.10275,-3.5543 1.61953,-2.99315 0.81962,-8.91101 -2.4319,-9.91568 -2.32066,-0.71706 -3.00274,4.69843 -5.42602,4.86431 -2.77827,0.19018 -5.06041,-2.60621 -6.92206,-4.67724 -2.3126,-2.57269 -1.40602,-9.0844 -4.8643,-9.1674 z m -18.29759,1.88671 -16.61501,10.99106 c -0.4284,-0.59054 -0.99277,-0.97122 -1.80196,-0.99064 -1.83855,-0.0441 -2.91931,2.26814 -3.33829,4.39095 l -1.51826,1.00459 c -0.0659,0.44242 -0.0216,0.87605 0.18552,1.28674 0.37857,0.75056 1.0023,1.40565 1.75493,1.95389 1.31249,2.70012 4.2577,5.01579 4.78679,8.0145 0.44757,2.53661 -2.29281,5.48178 -0.93534,7.67085 0.5925,0.95544 2.4467,0.2708 3.18068,1.12241 1.28554,1.49156 -0.18788,4.32977 1.12241,5.79964 2.48048,2.78264 7.27798,4.92688 10.66395,3.36776 2.46197,-1.13366 4.12682,-4.94385 3.18069,-7.48378 -1.23643,-3.31925 -9.74942,-1.14127 -9.54154,-4.67724 0.20953,-3.56366 8.40385,-0.41453 10.10274,-3.5543 1.61953,-2.99315 0.81963,-8.91101 -2.43189,-9.91568 -2.32069,-0.71706 -3.00275,4.69843 -5.42603,4.86431 -2.5923,0.17745 -4.73685,-2.23307 -6.52673,-4.24057 0.0967,-0.0554 0.21245,-0.0833 0.30386,-0.14573 2.70736,-1.84764 -1.90371,-8.37864 1.06143,-9.77563 3.0579,-1.44067 5.12194,6.03064 8.47132,5.57485 4.80181,-0.65344 10.47595,-6.1866 9.56686,-10.94662 -0.2796,-1.46392 -1.40271,-2.50643 -2.86288,-3.23132 -1.02147,-0.50706 -2.20563,-0.84793 -3.38325,-1.08004 z m -93.411355,1.4826 c -2.575053,-0.0623 -3.746559,3.70559 -4.798157,6.05699 -1.752178,3.91773 1.690969,10.86051 -2.192631,12.68708 -3.162738,1.48754 -7.425164,-2.14467 -9.097636,-5.21363 -1.816656,-3.33356 3.277959,-8.68558 0.597379,-11.37399 -2.24521,-2.2518 -7.356087,-1.85065 -9.527583,0.47233 -2.530247,2.70671 -1.103983,7.6451 0.19792,11.11405 1.384826,3.68989 6.600949,5.2339 7.619173,9.04131 0.867187,3.24261 -2.858034,6.73303 -1.779219,9.91154 1.14404,3.37073 4.371139,7.69295 7.895125,7.19077 0.36969,-0.0526 0.719475,-0.13709 1.051099,-0.25115 4.974443,-1.71043 5.856809,-9.99918 8.300785,-15.03887 2.763402,-5.69843 7.432816,-11.54408 6.588229,-17.82062 -0.370537,-2.75366 -2.076853,-6.70866 -4.854484,-6.77581 z m 42.209826,1.90634 c -5.260295,0.002 -8.786772,7.55481 -12.73514,11.52746 -1.441389,1.45027 -3.07173,2.85449 -4.665865,4.29483 l -5.930904,-8.96534 c -0.110609,-0.0165 -0.220939,-0.026 -0.330212,-0.0279 -0.327835,-0.006 -0.648518,0.0581 -0.956531,0.21342 -3.155919,1.59179 -4.76902,7.31495 -2.776575,10.23452 1.471277,2.15587 5.905609,-0.31903 8.35918,0.0765 -2.688114,2.58614 -5.018739,5.38299 -5.718514,8.88835 -0.54394,2.72472 -0.214682,7.01934 2.390552,7.98504 1.01365,0.37574 2.009364,0.0142 2.957442,-0.64905 2.085175,1.98992 4.718903,3.26487 7.159253,2.79879 1.463941,-0.27961 2.505922,-1.40271 3.23081,-2.86287 0.507073,-1.02149 0.847926,-2.20563 1.080038,-3.38326 l -5.04052,-7.61969 c 0.618936,-1.95628 1.463715,-3.5388 3.312977,-3.74086 3.474408,-0.37963 6.325689,4.44003 6.910689,7.88583 0.635427,3.74285 -5.921226,7.14988 -4.259172,10.56318 1.392097,2.85894 6.356542,4.13963 9.164816,2.6479 3.272198,-1.73816 3.52714,-6.87188 3.42253,-10.57558 -0.11127,-3.93964 -4.543127,-7.09451 -4.269507,-11.02621 0.23303,-3.34846 4.889976,-5.43925 4.902026,-8.79584 0.0128,-3.55958 -1.635429,-8.69568 -5.13147,-9.36532 -0.366737,-0.0703 -0.725213,-0.10403 -1.075903,-0.10387 z m 97.771809,22.41827 c -4.11522,0.0858 -1.31452,3.40588 -3.64474,8.93641 -1.29767,2.75032 -7.62433,7.46386 -6.55567,10.31099 0.80579,2.14681 2.78168,4.15187 5.0028,4.72168 2.59816,0.66653 6.74685,0.44778 7.78815,-2.02417 0.68818,-1.63363 -2.78036,-2.85079 -2.6386,-4.6178 0.37219,-4.63937 2.00571,-7.53182 5.61516,-10.47016 0.94046,-0.76561 4.77525,-0.94164 6.51795,-1.68466 l 0.0842,-2.65772 c -1.80559,-1.8058 -6.28754,-1.89841 -9.09505,-2.22312 -1.31295,-0.21245 -2.31214,-0.30734 -3.07423,-0.29145 z m -28.12593,10.14977 c -5.26031,0.002 -8.78676,7.55478 -12.73514,11.52746 -4.46443,4.49193 -10.7796,8.50376 -12.01942,14.71435 -0.54394,2.72469 -0.21469,7.01934 2.39055,7.98504 2.41522,0.89527 4.74723,-2.28741 6.50555,-4.16977 2.92964,-3.13622 1.92812,-10.82102 6.19445,-11.28717 3.47442,-0.37963 6.32569,4.44003 6.91069,7.88583 0.63543,3.74285 -5.92123,7.1499 -4.25917,10.56317 1.3921,2.85897 6.35656,4.13961 9.16481,2.64791 3.27221,-1.73816 3.52714,-6.87186 3.42253,-10.57559 -0.11127,-3.93961 -4.54312,-7.0945 -4.2695,-11.0262 0.23303,-3.34846 4.88997,-5.43928 4.90202,-8.79584 0.0128,-3.55958 -1.63542,-8.69568 -5.13147,-9.36532 -0.36674,-0.0703 -0.72521,-0.10403 -1.0759,-0.10387 z m -49.96026,2.84013 c -0.29699,0.007 -0.60075,0.068 -0.91105,0.18966 -1.4802,0.58046 1.07605,6.27029 0.66145,7.80521 -1.21363,4.49324 -3.19042,7.16337 -7.276038,9.3927 -1.556094,0.8491 -4.079889,-1.823 -5.291666,-0.52916 -1.833564,1.95774 -0.343978,5.83599 1.322916,7.9375 1.424987,1.7965 4.061129,2.7842 6.35,2.64583 3.035568,-0.18351 4.763438,-7.88118 6.746878,-10.18646 4.86172,-5.19176 9.82354,-2.53671 5.15937,-9.65729 -1.64155,-2.77239 -3.891,-7.67007 -6.76186,-7.59799 z m -29.99455,6.33398 c -2.222934,-0.0687 -4.686706,0.53464 -6.68383,1.13069 -3.77659,1.1271 -5.676617,6.22456 -9.545154,6.97786 -3.294696,0.64156 -6.519971,-3.31587 -9.765295,-2.45876 -3.441594,0.90892 -7.975897,3.83073 -7.717875,7.38094 0.02701,0.37244 0.08736,0.72739 0.178283,1.06609 1.363398,5.08052 9.571429,6.53214 14.430644,9.31778 5.494333,3.14968 11.004167,8.21091 17.324007,7.80107 2.77265,-0.17981 6.835633,-1.60906 7.094141,-4.37544 0.23966,-2.56463 -3.438499,-3.99364 -5.711796,-5.20485 -3.787602,-2.01813 -10.951226,0.93845 -12.505697,-3.06183 -1.265937,-3.25777 2.651616,-7.25937 5.828585,-8.71627 3.450871,-1.58248 8.438958,3.86859 11.30577,1.37977 2.401242,-2.08462 2.353249,-7.2109 0.185518,-9.53741 -1.105054,-1.18599 -2.688354,-1.6462 -4.417301,-1.69964 z m 37.49952,20.93723 c -3.13648,0.0885 -6.21994,3.14218 -8.3566,5.58054 -2.597408,2.96416 -1.492444,8.29132 -4.366655,10.98796 -2.447871,2.2966 -7.284806,0.66273 -9.57616,3.11557 -1.008659,1.07973 -1.972027,2.55759 -2.626713,4.11706 a 99.359795,99.359795 0 0 0 20.237528,2.33784 99.359795,99.359795 0 0 0 20.20445,-2.33009 c 0.34705,-0.98313 0.41204,-1.97141 -0.031,-2.84789 -1.162,-2.2988 -5.03655,-1.5513 -7.60573,-1.36684 -4.28071,0.30725 -8.77177,6.6227 -12.21683,4.06332 -2.80558,-2.08432 -1.61868,-7.55676 0.29559,-10.48102 2.07932,-3.17634 9.20336,-1.21598 10.30583,-4.84879 0.92345,-3.04283 -1.84567,-7.35773 -4.91908,-8.17367 -0.44764,-0.11884 -0.89655,-0.16663 -1.34462,-0.15399 z"
         sodipodi:insensitive="true" /><path
         id="circle39"
         style="display:inline;fill:#e6e6e6;fill-opacity:0.412074;stroke:#050000;stroke-width:0.3;stroke-linejoin:bevel;stroke-dasharray:none;stroke-opacity:1;paint-order:markers fill stroke"
         inkscape:label="обводка"
         d="M 104.81706,53.385188 A 99.359795,99.359795 0 0 0 5.4572292,152.74501 99.359795,99.359795 0 0 0 104.81706,252.10484 99.359795,99.359795 0 0 0 204.17688,152.74501 99.359795,99.359795 0 0 0 104.81706,53.385188 Z m 0.19947,3.042708 A 96.317314,96.317314 0 0 1 201.33416,152.74501 96.317314,96.317314 0 0 1 105.01653,249.06265 96.317314,96.317314 0 0 1 8.6994085,152.74501 96.317314,96.317314 0 0 1 105.01653,56.427896 Z"
         sodipodi:insensitive="true" /><g
         id="g90"
         inkscape:label="засветы"
         sodipodi:insensitive="true"><g
           id="g49"
           transform="rotate(-15,105.06679,152.78115)"><g
             id="g54"><path
               id="path54"
               style="display:inline;fill:none;stroke:#050000;stroke-width:0.5;stroke-linejoin:bevel;stroke-dasharray:none;stroke-opacity:1;paint-order:markers fill stroke"
               inkscape:label="корпус"
               d="m 95.895637,215.79543 v 32.61506 a 96.317314,96.317314 0 0 0 9.120893,0.65216 96.317314,96.317314 0 0 0 9.1214,-0.44648 v -32.82074 a 63.474464,63.717693 0 0 1 -9.1214,0.66766 63.474464,63.717693 0 0 1 -9.120893,-0.66766 z m 9.326563,36.29959 a 99.359795,99.359795 0 0 1 -0.27285,0.007 99.359795,99.359795 0 0 0 0.0672,0.003 99.359795,99.359795 0 0 0 0.20567,-0.01 z" /><path
               id="circle48"
               style="display:inline;fill:url(#radialGradient55);fill-opacity:1;stroke:#050000;stroke-width:0.5;stroke-linejoin:bevel;stroke-dasharray:none;stroke-opacity:1;paint-order:markers fill stroke"
               inkscape:label="корпус"
               d="m 95.895637,215.79543 v 32.61506 a 96.317314,96.317314 0 0 0 9.120893,0.65216 96.317314,96.317314 0 0 0 9.1214,-0.44648 v -32.82074 a 63.474464,63.717693 0 0 1 -9.1214,0.66766 63.474464,63.717693 0 0 1 -9.120893,-0.66766 z m 9.326563,36.29959 a 99.359795,99.359795 0 0 1 -0.27285,0.007 99.359795,99.359795 0 0 0 0.0672,0.003 99.359795,99.359795 0 0 0 0.20567,-0.01 z" /></g><g
             id="g57"
             transform="rotate(180,105.06678,152.78124)"><path
               id="path56"
               style="display:inline;fill:none;stroke:#050000;stroke-width:0.5;stroke-linejoin:bevel;stroke-dasharray:none;stroke-opacity:1;paint-order:markers fill stroke"
               inkscape:label="корпус"
               d="m 95.895637,215.79543 v 32.61506 a 96.317314,96.317314 0 0 0 9.120893,0.65216 96.317314,96.317314 0 0 0 9.1214,-0.44648 v -32.82074 a 63.474464,63.717693 0 0 1 -9.1214,0.66766 63.474464,63.717693 0 0 1 -9.120893,-0.66766 z m 9.326563,36.29959 a 99.359795,99.359795 0 0 1 -0.27285,0.007 99.359795,99.359795 0 0 0 0.0672,0.003 99.359795,99.359795 0 0 0 0.20567,-0.01 z" /><path
               id="path57"
               style="display:inline;fill:url(#radialGradient57);fill-opacity:1;stroke:#050000;stroke-width:0.5;stroke-linejoin:bevel;stroke-dasharray:none;stroke-opacity:1;paint-order:markers fill stroke"
               inkscape:label="корпус"
               d="m 95.895637,215.79543 v 32.61506 a 96.317314,96.317314 0 0 0 9.120893,0.65216 96.317314,96.317314 0 0 0 9.1214,-0.44648 v -32.82074 a 63.474464,63.717693 0 0 1 -9.1214,0.66766 63.474464,63.717693 0 0 1 -9.120893,-0.66766 z m 9.326563,36.29959 a 99.359795,99.359795 0 0 1 -0.27285,0.007 99.359795,99.359795 0 0 0 0.0672,0.003 99.359795,99.359795 0 0 0 0.20567,-0.01 z" /></g></g><g
           id="g79"
           transform="rotate(-60,105.06679,152.78122)"><g
             id="g76"><path
               id="path75"
               style="display:inline;fill:none;stroke:#050000;stroke-width:0.5;stroke-linejoin:bevel;stroke-dasharray:none;stroke-opacity:1;paint-order:markers fill stroke"
               inkscape:label="корпус"
               d="m 95.895637,215.79543 v 32.61506 a 96.317314,96.317314 0 0 0 9.120893,0.65216 96.317314,96.317314 0 0 0 9.1214,-0.44648 v -32.82074 a 63.474464,63.717693 0 0 1 -9.1214,0.66766 63.474464,63.717693 0 0 1 -9.120893,-0.66766 z m 9.326563,36.29959 a 99.359795,99.359795 0 0 1 -0.27285,0.007 99.359795,99.359795 0 0 0 0.0672,0.003 99.359795,99.359795 0 0 0 0.20567,-0.01 z" /><path
               id="path76"
               style="display:inline;fill:url(#radialGradient79);fill-opacity:1;stroke:#050000;stroke-width:0.5;stroke-linejoin:bevel;stroke-dasharray:none;stroke-opacity:1;paint-order:markers fill stroke"
               inkscape:label="корпус"
               d="m 95.895637,215.79543 v 32.61506 a 96.317314,96.317314 0 0 0 9.120893,0.65216 96.317314,96.317314 0 0 0 9.1214,-0.44648 v -32.82074 a 63.474464,63.717693 0 0 1 -9.1214,0.66766 63.474464,63.717693 0 0 1 -9.120893,-0.66766 z m 9.326563,36.29959 a 99.359795,99.359795 0 0 1 -0.27285,0.007 99.359795,99.359795 0 0 0 0.0672,0.003 99.359795,99.359795 0 0 0 0.20567,-0.01 z" /></g><g
             id="g78"
             transform="rotate(180,105.06678,152.78124)"><path
               id="path77"
               style="display:inline;fill:none;stroke:#050000;stroke-width:0.5;stroke-linejoin:bevel;stroke-dasharray:none;stroke-opacity:1;paint-order:markers fill stroke"
               inkscape:label="корпус"
               d="m 95.895637,215.79543 v 32.61506 a 96.317314,96.317314 0 0 0 9.120893,0.65216 96.317314,96.317314 0 0 0 9.1214,-0.44648 v -32.82074 a 63.474464,63.717693 0 0 1 -9.1214,0.66766 63.474464,63.717693 0 0 1 -9.120893,-0.66766 z m 9.326563,36.29959 a 99.359795,99.359795 0 0 1 -0.27285,0.007 99.359795,99.359795 0 0 0 0.0672,0.003 99.359795,99.359795 0 0 0 0.20567,-0.01 z" /><path
               id="path78"
               style="display:inline;fill:url(#radialGradient80);fill-opacity:1;stroke:#050000;stroke-width:0.5;stroke-linejoin:bevel;stroke-dasharray:none;stroke-opacity:1;paint-order:markers fill stroke"
               inkscape:label="корпус"
               d="m 95.895637,215.79543 v 32.61506 a 96.317314,96.317314 0 0 0 9.120893,0.65216 96.317314,96.317314 0 0 0 9.1214,-0.44648 v -32.82074 a 63.474464,63.717693 0 0 1 -9.1214,0.66766 63.474464,63.717693 0 0 1 -9.120893,-0.66766 z m 9.326563,36.29959 a 99.359795,99.359795 0 0 1 -0.27285,0.007 99.359795,99.359795 0 0 0 0.0672,0.003 99.359795,99.359795 0 0 0 0.20567,-0.01 z" /></g></g><g
           id="g84"
           transform="rotate(-105,105.06679,152.78123)"><g
             id="g81"><path
               id="path80"
               style="display:inline;fill:none;stroke:#050000;stroke-width:0.5;stroke-linejoin:bevel;stroke-dasharray:none;stroke-opacity:1;paint-order:markers fill stroke"
               inkscape:label="корпус"
               d="m 95.895637,215.79543 v 32.61506 a 96.317314,96.317314 0 0 0 9.120893,0.65216 96.317314,96.317314 0 0 0 9.1214,-0.44648 v -32.82074 a 63.474464,63.717693 0 0 1 -9.1214,0.66766 63.474464,63.717693 0 0 1 -9.120893,-0.66766 z m 9.326563,36.29959 a 99.359795,99.359795 0 0 1 -0.27285,0.007 99.359795,99.359795 0 0 0 0.0672,0.003 99.359795,99.359795 0 0 0 0.20567,-0.01 z" /><path
               id="path81"
               style="display:inline;fill:url(#radialGradient84);fill-opacity:1;stroke:#050000;stroke-width:0.5;stroke-linejoin:bevel;stroke-dasharray:none;stroke-opacity:1;paint-order:markers fill stroke"
               inkscape:label="корпус"
               d="m 95.895637,215.79543 v 32.61506 a 96.317314,96.317314 0 0 0 9.120893,0.65216 96.317314,96.317314 0 0 0 9.1214,-0.44648 v -32.82074 a 63.474464,63.717693 0 0 1 -9.1214,0.66766 63.474464,63.717693 0 0 1 -9.120893,-0.66766 z m 9.326563,36.29959 a 99.359795,99.359795 0 0 1 -0.27285,0.007 99.359795,99.359795 0 0 0 0.0672,0.003 99.359795,99.359795 0 0 0 0.20567,-0.01 z" /></g><g
             id="g83"
             transform="rotate(180,105.06678,152.78124)"><path
               id="path82"
               style="display:inline;fill:none;stroke:#050000;stroke-width:0.5;stroke-linejoin:bevel;stroke-dasharray:none;stroke-opacity:1;paint-order:markers fill stroke"
               inkscape:label="корпус"
               d="m 95.895637,215.79543 v 32.61506 a 96.317314,96.317314 0 0 0 9.120893,0.65216 96.317314,96.317314 0 0 0 9.1214,-0.44648 v -32.82074 a 63.474464,63.717693 0 0 1 -9.1214,0.66766 63.474464,63.717693 0 0 1 -9.120893,-0.66766 z m 9.326563,36.29959 a 99.359795,99.359795 0 0 1 -0.27285,0.007 99.359795,99.359795 0 0 0 0.0672,0.003 99.359795,99.359795 0 0 0 0.20567,-0.01 z" /><path
               id="path83"
               style="display:inline;fill:url(#radialGradient85);fill-opacity:1;stroke:#050000;stroke-width:0.5;stroke-linejoin:bevel;stroke-dasharray:none;stroke-opacity:1;paint-order:markers fill stroke"
               inkscape:label="корпус"
               d="m 95.895637,215.79543 v 32.61506 a 96.317314,96.317314 0 0 0 9.120893,0.65216 96.317314,96.317314 0 0 0 9.1214,-0.44648 v -32.82074 a 63.474464,63.717693 0 0 1 -9.1214,0.66766 63.474464,63.717693 0 0 1 -9.120893,-0.66766 z m 9.326563,36.29959 a 99.359795,99.359795 0 0 1 -0.27285,0.007 99.359795,99.359795 0 0 0 0.0672,0.003 99.359795,99.359795 0 0 0 0.20567,-0.01 z" /></g></g><g
           id="g89"
           transform="rotate(-150,105.06679,152.78124)"><g
             id="g86"><path
               id="path85"
               style="display:inline;fill:none;stroke:#050000;stroke-width:0.5;stroke-linejoin:bevel;stroke-dasharray:none;stroke-opacity:1;paint-order:markers fill stroke"
               inkscape:label="корпус"
               d="m 95.895637,215.79543 v 32.61506 a 96.317314,96.317314 0 0 0 9.120893,0.65216 96.317314,96.317314 0 0 0 9.1214,-0.44648 v -32.82074 a 63.474464,63.717693 0 0 1 -9.1214,0.66766 63.474464,63.717693 0 0 1 -9.120893,-0.66766 z m 9.326563,36.29959 a 99.359795,99.359795 0 0 1 -0.27285,0.007 99.359795,99.359795 0 0 0 0.0672,0.003 99.359795,99.359795 0 0 0 0.20567,-0.01 z" /><path
               id="path86"
               style="display:inline;fill:url(#radialGradient89);fill-opacity:1;stroke:#050000;stroke-width:0.5;stroke-linejoin:bevel;stroke-dasharray:none;stroke-opacity:1;paint-order:markers fill stroke"
               inkscape:label="корпус"
               d="m 95.895637,215.79543 v 32.61506 a 96.317314,96.317314 0 0 0 9.120893,0.65216 96.317314,96.317314 0 0 0 9.1214,-0.44648 v -32.82074 a 63.474464,63.717693 0 0 1 -9.1214,0.66766 63.474464,63.717693 0 0 1 -9.120893,-0.66766 z m 9.326563,36.29959 a 99.359795,99.359795 0 0 1 -0.27285,0.007 99.359795,99.359795 0 0 0 0.0672,0.003 99.359795,99.359795 0 0 0 0.20567,-0.01 z" /></g><g
             id="g88"
             transform="rotate(180,105.06678,152.78124)"><path
               id="path87"
               style="display:inline;fill:none;stroke:#050000;stroke-width:0.5;stroke-linejoin:bevel;stroke-dasharray:none;stroke-opacity:1;paint-order:markers fill stroke"
               inkscape:label="корпус"
               d="m 95.895637,215.79543 v 32.61506 a 96.317314,96.317314 0 0 0 9.120893,0.65216 96.317314,96.317314 0 0 0 9.1214,-0.44648 v -32.82074 a 63.474464,63.717693 0 0 1 -9.1214,0.66766 63.474464,63.717693 0 0 1 -9.120893,-0.66766 z m 9.326563,36.29959 a 99.359795,99.359795 0 0 1 -0.27285,0.007 99.359795,99.359795 0 0 0 0.0672,0.003 99.359795,99.359795 0 0 0 0.20567,-0.01 z" /><path
               id="path88"
               style="display:inline;fill:url(#radialGradient90);fill-opacity:1;stroke:#050000;stroke-width:0.5;stroke-linejoin:bevel;stroke-dasharray:none;stroke-opacity:1;paint-order:markers fill stroke"
               inkscape:label="корпус"
               d="m 95.895637,215.79543 v 32.61506 a 96.317314,96.317314 0 0 0 9.120893,0.65216 96.317314,96.317314 0 0 0 9.1214,-0.44648 v -32.82074 a 63.474464,63.717693 0 0 1 -9.1214,0.66766 63.474464,63.717693 0 0 1 -9.120893,-0.66766 z m 9.326563,36.29959 a 99.359795,99.359795 0 0 1 -0.27285,0.007 99.359795,99.359795 0 0 0 0.0672,0.003 99.359795,99.359795 0 0 0 0.20567,-0.01 z" /></g></g></g><g
         id="g48"
         inkscape:label="бойницы"
         style="display:inline"
         sodipodi:insensitive="true"><g
           id="g41"
           transform="rotate(-15,104.70841,152.71997)"><path
             id="path40"
             style="display:inline;fill:url(#radialGradient41);fill-opacity:1;stroke:#000000;stroke-width:0.3;stroke-linejoin:bevel;stroke-dasharray:none;stroke-opacity:1;paint-order:markers fill stroke"
             inkscape:label="корпус"
             d="m 104.36282,231.85026 c -3.18268,0.0349 -6.170916,6.196 -8.046537,16.59021 2.889199,0.33867 5.792257,0.54628 8.700247,0.62218 2.49229,-0.0101 4.98324,-0.11702 7.46724,-0.32039 -1.87495,-10.5941 -4.89857,-16.88339 -8.12095,-16.892 z"
             sodipodi:nodetypes="ccccc" /><path
             id="path41"
             style="display:inline;fill:url(#radialGradient42);fill-opacity:1;stroke:#000000;stroke-width:0.3;stroke-linejoin:bevel;stroke-dasharray:none;stroke-opacity:1;paint-order:markers fill stroke"
             inkscape:label="корпус"
             d="m 105.05399,73.589682 c 3.18268,-0.0349 6.17092,-6.196 8.04654,-16.59021 -2.8892,-0.33867 -5.79226,-0.54628 -8.70025,-0.62218 -2.49229,0.0101 -4.983242,0.11702 -7.467248,0.32039 1.874946,10.5941 4.898578,16.88339 8.120958,16.892 z"
             sodipodi:nodetypes="ccccc" /><path
             id="path58"
             style="display:inline;fill:url(#radialGradient42);fill-opacity:1;stroke:#000000;stroke-width:0.3;stroke-linejoin:bevel;stroke-dasharray:none;stroke-opacity:1;paint-order:markers fill stroke"
             inkscape:label="корпус"
             d="m 105.05399,73.589682 c 3.18268,-0.0349 6.17092,-6.196 8.04654,-16.59021 -2.8892,-0.33867 -5.79226,-0.54628 -8.70025,-0.62218 -2.49229,0.0101 -4.983242,0.11702 -7.467248,0.32039 1.874946,10.5941 4.898578,16.88339 8.120958,16.892 z"
             sodipodi:nodetypes="ccccc" /></g><g
           id="g43"
           transform="rotate(-60,104.70841,152.71997)"><path
             id="path42"
             style="display:inline;fill:url(#radialGradient43);fill-opacity:1;stroke:#000000;stroke-width:0.3;stroke-linejoin:bevel;stroke-dasharray:none;stroke-opacity:1;paint-order:markers fill stroke"
             inkscape:label="корпус"
             d="m 104.36282,231.85026 c -3.18268,0.0349 -6.170916,6.196 -8.046537,16.59021 2.889199,0.33867 5.792257,0.54628 8.700247,0.62218 2.49229,-0.0101 4.98324,-0.11702 7.46724,-0.32039 -1.87495,-10.5941 -4.89857,-16.88339 -8.12095,-16.892 z"
             sodipodi:nodetypes="ccccc" /><path
             id="path43"
             style="display:inline;fill:url(#radialGradient44);fill-opacity:1;stroke:#000000;stroke-width:0.3;stroke-linejoin:bevel;stroke-dasharray:none;stroke-opacity:1;paint-order:markers fill stroke"
             inkscape:label="корпус"
             d="m 105.05399,73.589682 c 3.18268,-0.0349 6.17092,-6.196 8.04654,-16.59021 -2.8892,-0.33867 -5.79226,-0.54628 -8.70025,-0.62218 -2.49229,0.0101 -4.983242,0.11702 -7.467248,0.32039 1.874946,10.5941 4.898578,16.88339 8.120958,16.892 z"
             sodipodi:nodetypes="ccccc" /></g><g
           id="g45"
           transform="rotate(-105,104.70841,152.71997)"><path
             id="path44"
             style="display:inline;fill:url(#radialGradient45);fill-opacity:1;stroke:#000000;stroke-width:0.3;stroke-linejoin:bevel;stroke-dasharray:none;stroke-opacity:1;paint-order:markers fill stroke"
             inkscape:label="корпус"
             d="m 104.36282,231.85026 c -3.18268,0.0349 -6.170916,6.196 -8.046537,16.59021 2.889199,0.33867 5.792257,0.54628 8.700247,0.62218 2.49229,-0.0101 4.98324,-0.11702 7.46724,-0.32039 -1.87495,-10.5941 -4.89857,-16.88339 -8.12095,-16.892 z"
             sodipodi:nodetypes="ccccc" /><path
             id="path45"
             style="display:inline;fill:url(#radialGradient46);fill-opacity:1;stroke:#000000;stroke-width:0.3;stroke-linejoin:bevel;stroke-dasharray:none;stroke-opacity:1;paint-order:markers fill stroke"
             inkscape:label="корпус"
             d="m 105.05399,73.589682 c 3.18268,-0.0349 6.17092,-6.196 8.04654,-16.59021 -2.8892,-0.33867 -5.79226,-0.54628 -8.70025,-0.62218 -2.49229,0.0101 -4.983242,0.11702 -7.467248,0.32039 1.874946,10.5941 4.898578,16.88339 8.120958,16.892 z"
             sodipodi:nodetypes="ccccc" /></g><g
           id="g47"
           transform="rotate(30,104.7084,152.71997)"
           style="display:inline"><path
             id="path46"
             style="display:inline;fill:url(#radialGradient47);fill-opacity:1;stroke:#000000;stroke-width:0.3;stroke-linejoin:bevel;stroke-dasharray:none;stroke-opacity:1;paint-order:markers fill stroke"
             inkscape:label="корпус"
             d="m 104.36282,231.85026 c -3.18268,0.0349 -6.170916,6.196 -8.046537,16.59021 2.889199,0.33867 5.792257,0.54628 8.700247,0.62218 2.49229,-0.0101 4.98324,-0.11702 7.46724,-0.32039 -1.87495,-10.5941 -4.89857,-16.88339 -8.12095,-16.892 z"
             sodipodi:nodetypes="ccccc" /><path
             id="path47"
             style="display:inline;fill:url(#radialGradient48);fill-opacity:1;stroke:#000000;stroke-width:0.3;stroke-linejoin:bevel;stroke-dasharray:none;stroke-opacity:1;paint-order:markers fill stroke"
             inkscape:label="корпус"
             d="m 105.05399,73.589682 c 3.18268,-0.0349 6.17092,-6.196 8.04654,-16.59021 -2.8892,-0.33867 -5.79226,-0.54628 -8.70025,-0.62218 -2.49229,0.0101 -4.983242,0.11702 -7.467248,0.32039 1.874946,10.5941 4.898578,16.88339 8.120958,16.892 z"
             sodipodi:nodetypes="ccccc" /></g></g><path
         id="circle6"
         style="display:inline;fill:url(#radialGradient20);fill-opacity:1;stroke:#053d00;stroke-width:0.011;stroke-linejoin:bevel;paint-order:markers fill stroke"
         d="m 106.35546,98.294591 v 14.931389 c 9.55651,0.32468 18.67186,4.10038 25.6589,10.62829 l 10.55801,-10.55801 c -9.79293,-9.32079 -22.70148,-14.667729 -36.21691,-15.001669 z m -2.67735,0.06253 C 90.186882,98.712732 77.307771,104.06288 67.535611,113.37119 l 10.53114,10.53166 c 6.976896,-6.51224 16.073228,-10.28211 25.611359,-10.61434 z m 40.78769,16.832049 -10.55853,10.55853 c 6.52809,6.98696 10.30399,16.10231 10.62881,25.65889 h 14.93139 c -0.33381,-13.51561 -5.68077,-26.42436 -15.00167,-36.21742 z m -78.823097,0.0749 c -9.308305,9.77216 -14.658458,22.65127 -15.014071,36.14249 h 14.931389 c 0.332231,-9.53813 4.102103,-18.63446 10.614339,-25.61135 z m -15.014071,38.81985 c 0.355611,13.49123 5.705764,26.37034 15.014071,36.1425 l 10.53114,-10.53166 C 69.661909,172.71795 65.892232,163.62183 65.560021,154.08395 Z m 93.844398,0 c -0.33207,9.53781 -4.10156,18.63392 -10.6133,25.61084 l 10.53165,10.53166 c 9.30812,-9.77224 14.65809,-22.65134 15.01356,-36.1425 z m -66.406279,27.50427 -10.53114,10.53114 c 9.77216,9.30831 22.651271,14.65846 36.142499,15.01407 v -14.93191 c -9.537995,-0.33194 -18.63431,-4.10144 -25.611359,-10.6133 z m 53.899549,0 c -6.97692,6.51174 -16.07303,10.28123 -25.61084,10.6133 v 14.93191 c 13.49116,-0.35547 26.37026,-5.70544 36.1425,-15.01356 z"
         inkscape:label="основа вентиляции"
         sodipodi:nodetypes="cccccccccccccccccccccccccccccccccccccccc"
         sodipodi:insensitive="true" /><path
         id="path11"
         style="display:inline;fill:url(#radialGradient13);fill-opacity:1;stroke:#053d00;stroke-width:0.011;stroke-linejoin:bevel;paint-order:markers fill stroke"
         inkscape:label="середина  вентиляции"
         d="m 106.35546,98.294591 v 8.968959 a 45.577057,45.577057 0 0 1 29.8602,12.38943 l 6.35671,-6.35672 c -9.79292,-9.32078 -22.70149,-14.667729 -36.21691,-15.001669 z m -2.67735,0.06253 c -13.491217,0.35561 -26.370349,5.705769 -36.142499,15.014069 l 6.281787,6.2823 a 45.577057,45.577057 0 0 1 29.860712,-12.38994 z m 40.78769,16.832049 -6.35724,6.35723 a 45.577057,45.577057 0 0 1 12.38943,29.86019 h 8.96948 C 159.13366,137.891 153.78669,124.98222 144.4658,115.18917 Z m -78.823097,0.0749 c -9.308296,9.77215 -14.658458,22.65129 -15.014071,36.14249 h 8.906433 a 45.577057,45.577057 0 0 1 12.389942,-29.8607 z m -15.014071,38.81985 c 0.355611,13.49122 5.705773,26.37035 15.014071,36.1425 l 6.281787,-6.28231 A 45.577057,45.577057 0 0 1 59.535065,154.08395 Z m 99.932398,0 a 45.577057,45.577057 0 0 1 -12.39304,29.9191 l 6.22339,6.2234 c 9.30812,-9.77223 14.65809,-22.65135 15.01356,-36.1425 z m -76.743116,31.7531 -6.282303,6.28231 c 9.77215,9.3083 22.651282,14.65846 36.142499,15.01407 v -8.90695 a 45.577057,45.577057 0 0 1 -29.860196,-12.3894 z m 62.456656,0.0594 a 45.577057,45.577057 0 0 1 -29.91911,12.39304 v 8.84391 c 13.49115,-0.35547 26.37027,-5.70545 36.1425,-15.01356 z"
         sodipodi:insensitive="true" /><path
         id="path7"
         style="display:inline;fill:url(#radialGradient10);fill-opacity:1;stroke:#053d00;stroke-width:0.011;stroke-linejoin:bevel;paint-order:markers fill stroke"
         inkscape:label="внешняя вентиляция"
         d="m 106.32414,98.325816 v 4.256594 a 50.227043,50.227043 0 0 1 33.20728,13.75472 l 3.00963,-3.00964 c -9.79292,-9.32078 -22.70149,-14.667734 -36.21691,-15.001674 z m -2.67735,0.06253 c -13.491212,0.35561 -26.370344,5.705774 -36.142494,15.014074 l 3.001883,3.0024 a 50.227043,50.227043 0 0 1 33.140611,-13.75988 z m 40.78769,16.832054 -3.01015,3.01015 a 50.227043,50.227043 0 0 1 13.75523,33.20727 h 4.25659 c -0.33381,-13.51559 -5.68078,-26.42437 -15.00167,-36.21742 z m -78.823092,0.0749 c -9.308296,9.77215 -14.658458,22.65129 -15.014071,36.14249 h 4.256588 a 50.227043,50.227043 0 0 1 13.759884,-33.14061 z m -15.014071,38.81985 c 0.355611,13.49122 5.705773,26.37035 15.014071,36.1425 l 3.001884,-3.0024 a 50.227043,50.227043 0 0 1 -13.759367,-33.1401 z m 104.519713,0 a 50.227043,50.227043 0 0 1 -13.75937,33.1401 l 3.0024,3.0024 c 9.30812,-9.77223 14.65809,-22.65135 15.01356,-36.1425 z m -84.610851,35.03352 -3.001883,3.00189 c 9.77215,9.3083 22.651282,14.65846 36.142494,15.01407 v -4.25659 A 50.227043,50.227043 0 0 1 70.506179,189.1487 Z m 68.958061,0 a 50.227043,50.227043 0 0 1 -33.1401,13.75937 v 4.25659 c 13.49115,-0.35547 26.37027,-5.70545 36.1425,-15.01356 z"
         sodipodi:insensitive="true" /><g
         id="g15"
         inkscape:label="центр"><circle
           style="display:inline;fill:#008080;stroke:#053d00;stroke-width:0.0168995;stroke-linejoin:bevel;paint-order:markers fill stroke"
           id="circle7"
           cx="105.01673"
           cy="152.74522"
           r="25.597095"
           inkscape:label="окна" /><path
           id="circle91"
           style="display:inline;fill:#d7cda7;stroke:#053d00;stroke-width:0.0168995;stroke-linejoin:bevel;paint-order:markers fill stroke;fill-opacity:1"
           inkscape:label="окна"
           d="m 105.01653,127.14813 a 25.597095,25.597095 0 0 0 -1.48622,0.10645 v 21.90254 L 88.013947,133.64075 a 25.597095,25.597095 0 0 0 -2.10168,2.10168 L 101.42863,151.2588 H 79.526093 a 25.597095,25.597095 0 0 0 -0.106453,1.48621 25.597095,25.597095 0 0 0 0.106453,1.48674 h 21.902027 l -15.515853,15.51636 a 25.597095,25.597095 0 0 0 2.10168,2.10168 l 15.516363,-15.51636 v 21.90254 a 25.597095,25.597095 0 0 0 1.48622,0.10645 25.597095,25.597095 0 0 0 1.48673,-0.10645 v -21.90203 l 15.51636,15.51637 a 25.597095,25.597095 0 0 0 2.1022,-2.1022 l -15.51636,-15.51636 h 21.90202 a 25.597095,25.597095 0 0 0 0.10645,-1.48674 25.597095,25.597095 0 0 0 -0.0481,-1.48621 H 108.6049 l 15.52877,-15.52825 a 25.597095,25.597095 0 0 0 -2.1022,-2.1022 l -15.52825,15.52825 v -21.96041 a 25.597095,25.597095 0 0 0 -1.48673,-0.0481 z" /><circle
           style="display:inline;fill:#000000;stroke:#053d00;stroke-width:0.0160567;stroke-linejoin:bevel;paint-order:markers fill stroke"
           id="path2"
           cx="105.01673"
           cy="152.74522"
           r="24.320555"
           inkscape:label="центр" /><circle
           style="display:inline;fill:url(#radialGradient15);fill-opacity:1;stroke:#053d00;stroke-width:0.0160567;stroke-linejoin:bevel;paint-order:markers fill stroke"
           id="circle13"
           cx="105.01673"
           cy="152.74522"
           r="24.320555"
           inkscape:label="центр" /></g><g
         id="g113"
         transform="rotate(51.839157,105.01674,151.63391)"><g
           id="g107"
           transform="matrix(-0.55556012,0,0,-0.55556012,169.17871,248.52196)"
           style="display:inline"
           inkscape:label="значок"><g
             id="g103"
             transform="rotate(-90,115.49059,34.853994)"
             style="display:inline"><rect
               style="display:inline;fill:#000000;fill-opacity:1;stroke:none;stroke-width:0.567334;stroke-linejoin:bevel;stroke-dasharray:none;stroke-opacity:1;paint-order:markers fill stroke"
               id="rect101"
               width="11.273564"
               height="26.268929"
               x="-40.490772"
               y="102.3561"
               transform="rotate(-90)" /><path
               id="rect102"
               style="fill:#ffffff;fill-opacity:1;stroke:none;stroke-width:0.517545;stroke-linejoin:bevel;stroke-dasharray:none;stroke-opacity:1;paint-order:markers fill stroke"
               d="m -39.544924,102.356 v 7.49773 c 0.34398,3.78378 9.381857,0 9.381857,0 V 102.356 Z m 0,18.77146 v 7.49774 h 9.381857 v -7.49774 z"
               transform="rotate(-90)"
               sodipodi:nodetypes="cccccccccc" /><rect
               style="fill:#000000;fill-opacity:1;stroke:none;stroke-width:0.467706;stroke-linejoin:bevel;stroke-dasharray:none;stroke-opacity:1;paint-order:markers fill stroke"
               id="rect103"
               width="7.6617708"
               height="26.268929"
               x="-38.684875"
               y="102.3561"
               transform="rotate(-90)" /></g><rect
             style="display:inline;fill:#000000;fill-opacity:1;stroke:none;stroke-width:0.567334;stroke-linejoin:bevel;stroke-dasharray:none;stroke-opacity:1;paint-order:markers fill stroke"
             id="rect105"
             width="11.273564"
             height="26.268929"
             x="-40.490772"
             y="102.3561"
             transform="rotate(-90)" /><path
             id="path106"
             style="fill:#ffffff;fill-opacity:1;stroke:none;stroke-width:0.517545;stroke-linejoin:bevel;stroke-dasharray:none;stroke-opacity:1;paint-order:markers fill stroke"
             d="m -39.544924,102.356 v 7.49773 h 9.381857 V 102.356 Z m 0,18.77146 v 7.49774 h 9.381857 v -7.49774 z"
             transform="rotate(-90)"
             inkscape:label="path106" /><rect
             style="fill:#000000;fill-opacity:1;stroke:none;stroke-width:0.467706;stroke-linejoin:bevel;stroke-dasharray:none;stroke-opacity:1;paint-order:markers fill stroke"
             id="rect107"
             width="7.6617708"
             height="26.268929"
             x="-38.684875"
             y="102.3561"
             transform="rotate(-90)" /></g><g
           id="g112"
           transform="matrix(-0.55556013,0,0,-0.55556013,169.17871,93.472821)"
           style="display:inline"
           inkscape:label="значок"><g
             id="g110"
             transform="rotate(-90,115.49059,34.853994)"
             style="display:inline"><rect
               style="display:inline;fill:#000000;fill-opacity:1;stroke:none;stroke-width:0.567334;stroke-linejoin:bevel;stroke-dasharray:none;stroke-opacity:1;paint-order:markers fill stroke"
               id="rect109"
               width="11.273564"
               height="26.268929"
               x="-40.490772"
               y="102.3561"
               transform="rotate(-90)" /><path
               id="path109"
               style="fill:#ffffff;fill-opacity:1;stroke:none;stroke-width:0.517545;stroke-linejoin:bevel;stroke-dasharray:none;stroke-opacity:1;paint-order:markers fill stroke"
               d="m -39.544924,102.356 v 7.49773 c 0.34398,3.78378 9.381857,0 9.381857,0 V 102.356 Z m 0,18.77146 v 7.49774 h 9.381857 v -7.49774 z"
               transform="rotate(-90)"
               sodipodi:nodetypes="cccccccccc" /><rect
               style="fill:#000000;fill-opacity:1;stroke:none;stroke-width:0.467706;stroke-linejoin:bevel;stroke-dasharray:none;stroke-opacity:1;paint-order:markers fill stroke"
               id="rect110"
               width="7.6617708"
               height="26.268929"
               x="-38.684875"
               y="102.3561"
               transform="rotate(-90)" /></g><rect
             style="display:inline;fill:#000000;fill-opacity:1;stroke:none;stroke-width:0.567334;stroke-linejoin:bevel;stroke-dasharray:none;stroke-opacity:1;paint-order:markers fill stroke"
             id="rect111"
             width="11.273564"
             height="26.268929"
             x="-40.490772"
             y="102.3561"
             transform="rotate(-90)" /><path
             id="path111"
             style="fill:#ffffff;fill-opacity:1;stroke:none;stroke-width:0.517545;stroke-linejoin:bevel;stroke-dasharray:none;stroke-opacity:1;paint-order:markers fill stroke"
             d="m -39.544924,102.356 v 7.49773 h 9.381857 V 102.356 Z m 0,18.77146 v 7.49774 h 9.381857 v -7.49774 z"
             transform="rotate(-90)"
             inkscape:label="path106" /><rect
             style="fill:#000000;fill-opacity:1;stroke:none;stroke-width:0.467706;stroke-linejoin:bevel;stroke-dasharray:none;stroke-opacity:1;paint-order:markers fill stroke"
             id="rect112"
             width="7.6617708"
             height="26.268929"
             x="-38.684875"
             y="102.3561"
             transform="rotate(-90)" /></g></g></g></g></svg>
