<?xml version="1.0" encoding="UTF-8" standalone="no"?>
<!-- Created with Inkscape (http://www.inkscape.org/) -->

<svg
   width="210mm"
   height="210mm"
   viewBox="0 0 210 210"
   version="1.1"
   id="svg1"
   xml:space="preserve"
   sodipodi:docname="beluzzo_friday.svg"
   inkscape:version="1.3.2 (091e20e, 2023-11-25, custom)"
   xmlns:inkscape="http://www.inkscape.org/namespaces/inkscape"
   xmlns:sodipodi="http://sodipodi.sourceforge.net/DTD/sodipodi-0.dtd"
   xmlns:xlink="http://www.w3.org/1999/xlink"
   xmlns="http://www.w3.org/2000/svg"
   xmlns:svg="http://www.w3.org/2000/svg"><sodipodi:namedview
     id="namedview1"
     pagecolor="#ffffff"
     bordercolor="#111111"
     borderopacity="1"
     inkscape:showpageshadow="0"
     inkscape:pageopacity="0"
     inkscape:pagecheckerboard="1"
     inkscape:deskcolor="#d1d1d1"
     inkscape:document-units="mm"
     inkscape:zoom="0.5438935"
     inkscape:cx="-505.61369"
     inkscape:cy="488.14704"
     inkscape:window-width="3440"
     inkscape:window-height="1417"
     inkscape:window-x="-8"
     inkscape:window-y="-8"
     inkscape:window-maximized="1"
     inkscape:current-layer="g1" /><defs
     id="defs1"><linearGradient
       id="linearGradient32"
       inkscape:collect="always"><stop
         style="stop-color:#000000;stop-opacity:1;"
         offset="0.04670464"
         id="stop31" /><stop
         style="stop-color:#9f9f9f;stop-opacity:1;"
         offset="1"
         id="stop32" /></linearGradient><linearGradient
       id="linearGradient30"
       inkscape:collect="always"><stop
         style="stop-color:#000000;stop-opacity:1;"
         offset="0.04670464"
         id="stop29" /><stop
         style="stop-color:#9f9f9f;stop-opacity:1;"
         offset="1"
         id="stop30" /></linearGradient><linearGradient
       id="linearGradient28"
       inkscape:collect="always"><stop
         style="stop-color:#000000;stop-opacity:1;"
         offset="0.04670464"
         id="stop21" /><stop
         style="stop-color:#9f9f9f;stop-opacity:1;"
         offset="1"
         id="stop28" /></linearGradient><linearGradient
       id="linearGradient11"
       inkscape:collect="always"><stop
         style="stop-color:#000000;stop-opacity:1;"
         offset="0.04670464"
         id="stop7" /><stop
         style="stop-color:#9f9f9f;stop-opacity:1;"
         offset="1"
         id="stop11" /></linearGradient><linearGradient
       id="linearGradient6"
       inkscape:collect="always"><stop
         style="stop-color:#000000;stop-opacity:1;"
         offset="0.04670464"
         id="stop5" /><stop
         style="stop-color:#9f9f9f;stop-opacity:1;"
         offset="1"
         id="stop6" /></linearGradient><linearGradient
       id="linearGradient4"
       inkscape:collect="always"><stop
         style="stop-color:#000000;stop-opacity:1;"
         offset="0.04670464"
         id="stop3" /><stop
         style="stop-color:#9f9f9f;stop-opacity:1;"
         offset="1"
         id="stop4" /></linearGradient><linearGradient
       id="linearGradient2"
       inkscape:collect="always"><stop
         style="stop-color:#000000;stop-opacity:1;"
         offset="0.04670464"
         id="stop1" /><stop
         style="stop-color:#9f9f9f;stop-opacity:1;"
         offset="1"
         id="stop2" /></linearGradient><linearGradient
       id="linearGradient54"
       inkscape:collect="always"><stop
         style="stop-color:#ffffff;stop-opacity:0.41639343;"
         offset="0.38009387"
         id="stop54" /><stop
         style="stop-color:#ffffff;stop-opacity:0.12459017;"
         offset="0.72807014"
         id="stop56" /><stop
         style="stop-color:#000000;stop-opacity:0;"
         offset="1"
         id="stop55" /></linearGradient><linearGradient
       id="linearGradient40"
       inkscape:collect="always"><stop
         style="stop-color:#000000;stop-opacity:1;"
         offset="0.04670464"
         id="stop40" /><stop
         style="stop-color:#9f9f9f;stop-opacity:1;"
         offset="1"
         id="stop41" /></linearGradient><linearGradient
       id="linearGradient22"
       inkscape:collect="always"><stop
         style="stop-color:#000000;stop-opacity:0.19016394;"
         offset="0.11405295"
         id="stop27" /><stop
         style="stop-color:#000000;stop-opacity:0.46229511;"
         offset="0.24032587"
         id="stop26" /><stop
         style="stop-color:#000000;stop-opacity:0.48524594;"
         offset="0.40971807"
         id="stop22" /><stop
         style="stop-color:#000000;stop-opacity:0.80000001;"
         offset="0.65987778"
         id="stop25" /><stop
         style="stop-color:#000000;stop-opacity:0.87868851;"
         offset="0.9162131"
         id="stop24" /><stop
         style="stop-color:#000000;stop-opacity:1;"
         offset="1"
         id="stop23" /></linearGradient><linearGradient
       id="linearGradient15"
       inkscape:collect="always"><stop
         style="stop-color:#9a9a9a;stop-opacity:1;"
         offset="0.86558044"
         id="stop19" /><stop
         style="stop-color:#000000;stop-opacity:1;"
         offset="1"
         id="stop20" /></linearGradient><linearGradient
       id="linearGradient13"
       inkscape:collect="always"><stop
         style="stop-color:#9a9a9a;stop-opacity:1;"
         offset="0"
         id="stop14" /><stop
         style="stop-color:#9a9a9a;stop-opacity:0.73333335;"
         offset="1"
         id="stop15" /></linearGradient><linearGradient
       id="linearGradient12"
       inkscape:collect="always"><stop
         style="stop-color:#9a9a9a;stop-opacity:1;"
         offset="0.87495261"
         id="stop12" /><stop
         style="stop-color:#000000;stop-opacity:1;"
         offset="1"
         id="stop13" /></linearGradient><linearGradient
       id="linearGradient8"
       inkscape:collect="always"><stop
         style="stop-color:#9a9a9a;stop-opacity:1;"
         offset="0.921911"
         id="stop8" /><stop
         style="stop-color:#000000;stop-opacity:1;"
         offset="1"
         id="stop10" /></linearGradient><linearGradient
       id="linearGradient17"><stop
         style="stop-color:#ffffff;stop-opacity:0.85000002;"
         offset="0"
         id="stop17" /><stop
         style="stop-color:#000000;stop-opacity:0;"
         offset="1"
         id="stop18" /></linearGradient><linearGradient
       id="linearGradient9"><stop
         style="stop-color:#bfbfbf;stop-opacity:1;"
         offset="0"
         id="stop9" /><stop
         style="stop-color:#ffffff;stop-opacity:0.2;"
         offset="1"
         id="stop16" /></linearGradient><linearGradient
       id="linearGradient583"><stop
         style="stop-color:#ffffff;stop-opacity:1;"
         offset="0"
         id="stop584" /><stop
         style="stop-color:#4d4d4d;stop-opacity:0;"
         offset="1"
         id="stop585" /></linearGradient><linearGradient
       id="linearGradient581"><stop
         style="stop-color:#ffffff;stop-opacity:1;"
         offset="0"
         id="stop582" /><stop
         style="stop-color:#4d4d4d;stop-opacity:0;"
         offset="1"
         id="stop583" /></linearGradient><linearGradient
       id="linearGradient580"><stop
         style="stop-color:#ffffff;stop-opacity:0.84999996;"
         offset="0"
         id="stop580" /><stop
         style="stop-color:#000000;stop-opacity:0;"
         offset="1"
         id="stop581" /></linearGradient><radialGradient
       xlink:href="#linearGradient580"
       id="radialGradient581"
       cx="105.07166"
       cy="258.60706"
       fx="105.07166"
       fy="258.60706"
       r="103.07987"
       gradientTransform="matrix(1.0725995,0,0,0.41638007,-10.303689,109.37729)"
       gradientUnits="userSpaceOnUse" /><radialGradient
       xlink:href="#linearGradient581"
       id="radialGradient583"
       cx="105.02719"
       cy="188.04417"
       fx="105.02719"
       fy="188.04417"
       r="4.8165979"
       gradientTransform="matrix(1.6866445,0,0,38.723298,-72.116348,-7114.9098)"
       gradientUnits="userSpaceOnUse" /><radialGradient
       xlink:href="#linearGradient583"
       id="radialGradient585"
       cx="105.02718"
       cy="99.840584"
       fx="105.02718"
       fy="99.840584"
       r="4.5495901"
       gradientTransform="matrix(1.4523435,5.9446328e-6,-9.2485098e-5,22.595194,-47.499134,-2164.0154)"
       gradientUnits="userSpaceOnUse" /><radialGradient
       xlink:href="#linearGradient9"
       id="radialGradient17"
       cx="105.02718"
       cy="128.09346"
       fx="105.02718"
       fy="128.09346"
       r="9.0619793"
       gradientTransform="matrix(1.2627739,0,0,14.196054,-27.598406,-1698.2662)"
       gradientUnits="userSpaceOnUse" /><radialGradient
       xlink:href="#linearGradient17"
       id="radialGradient18"
       cx="105.02692"
       cy="274.62393"
       fx="105.02692"
       fy="274.62393"
       r="35.412567"
       gradientTransform="matrix(1.1901921,0,0,0.89731806,-19.975294,5.2925437)"
       gradientUnits="userSpaceOnUse" /><radialGradient
       inkscape:collect="always"
       xlink:href="#linearGradient8"
       id="radialGradient10"
       cx="106.49689"
       cy="153.51918"
       fx="106.49689"
       fy="153.51918"
       r="54.424917"
       gradientTransform="matrix(0,-0.99860308,0.99051953,0,-46.992331,259.03858)"
       gradientUnits="userSpaceOnUse" /><radialGradient
       inkscape:collect="always"
       xlink:href="#linearGradient12"
       id="radialGradient13"
       cx="105.10273"
       cy="153.86311"
       fx="105.10273"
       fy="153.86311"
       r="54.424917"
       gradientTransform="matrix(6.7089899e-6,-0.94488087,0.92415665,0,-37.091594,253.17271)"
       gradientUnits="userSpaceOnUse" /><radialGradient
       inkscape:collect="always"
       xlink:href="#linearGradient13"
       id="radialGradient15"
       cx="103.09241"
       cy="153.95758"
       fx="103.09241"
       fy="153.95758"
       r="24.328583"
       gradientUnits="userSpaceOnUse"
       gradientTransform="matrix(0,-1.0250728,1,2.2535967e-6,-49.104401,259.15839)" /><radialGradient
       inkscape:collect="always"
       xlink:href="#linearGradient15"
       id="radialGradient20"
       cx="105.10273"
       cy="153.17516"
       fx="105.10273"
       fy="153.17516"
       r="54.424917"
       gradientTransform="matrix(0,-0.84691669,0.82935255,-8.6159224e-7,-21.933477,242.18859)"
       gradientUnits="userSpaceOnUse" /><radialGradient
       inkscape:collect="always"
       xlink:href="#linearGradient22"
       id="radialGradient23"
       cx="104.24277"
       cy="153.34718"
       fx="104.24277"
       fy="153.34718"
       r="99.365295"
       gradientUnits="userSpaceOnUse"
       gradientTransform="matrix(0,-0.99006778,1,-2.934104e-6,-49.347646,256.55504)" /><radialGradient
       inkscape:collect="always"
       xlink:href="#linearGradient40"
       id="radialGradient41"
       cx="104.07296"
       cy="247.9825"
       fx="104.07296"
       fy="247.9825"
       r="8.2314038"
       gradientTransform="matrix(0.03691154,2.0231478,-2.0184115,0.03682359,600.95988,12.409479)"
       gradientUnits="userSpaceOnUse" /><radialGradient
       inkscape:collect="always"
       xlink:href="#linearGradient32"
       id="radialGradient42"
       gradientUnits="userSpaceOnUse"
       gradientTransform="matrix(-0.03691154,-2.0231478,2.0184115,-0.03682359,-391.54307,293.03048)"
       cx="104.07296"
       cy="247.9825"
       fx="104.07296"
       fy="247.9825"
       r="8.2314038" /><radialGradient
       inkscape:collect="always"
       xlink:href="#linearGradient30"
       id="radialGradient43"
       gradientUnits="userSpaceOnUse"
       gradientTransform="matrix(0.03691154,2.0231478,-2.0184115,0.03682359,600.95988,12.409479)"
       cx="104.07296"
       cy="247.9825"
       fx="104.07296"
       fy="247.9825"
       r="8.2314038" /><radialGradient
       inkscape:collect="always"
       xlink:href="#linearGradient28"
       id="radialGradient44"
       gradientUnits="userSpaceOnUse"
       gradientTransform="matrix(-0.03691154,-2.0231478,2.0184115,-0.03682359,-391.54307,293.03048)"
       cx="104.07296"
       cy="247.9825"
       fx="104.07296"
       fy="247.9825"
       r="8.2314038" /><radialGradient
       inkscape:collect="always"
       xlink:href="#linearGradient6"
       id="radialGradient45"
       gradientUnits="userSpaceOnUse"
       gradientTransform="matrix(0.03691154,2.0231478,-2.0184115,0.03682359,600.95988,12.409479)"
       cx="104.07296"
       cy="247.9825"
       fx="104.07296"
       fy="247.9825"
       r="8.2314038" /><radialGradient
       inkscape:collect="always"
       xlink:href="#linearGradient11"
       id="radialGradient46"
       gradientUnits="userSpaceOnUse"
       gradientTransform="matrix(-0.03691154,-2.0231478,2.0184115,-0.03682359,-391.54307,293.03048)"
       cx="104.07296"
       cy="247.9825"
       fx="104.07296"
       fy="247.9825"
       r="8.2314038" /><radialGradient
       inkscape:collect="always"
       xlink:href="#linearGradient4"
       id="radialGradient47"
       gradientUnits="userSpaceOnUse"
       gradientTransform="matrix(0.03691154,2.0231478,-2.0184115,0.03682359,600.95988,12.409479)"
       cx="104.07296"
       cy="247.9825"
       fx="104.07296"
       fy="247.9825"
       r="8.2314038" /><radialGradient
       inkscape:collect="always"
       xlink:href="#linearGradient2"
       id="radialGradient48"
       gradientUnits="userSpaceOnUse"
       gradientTransform="matrix(-0.03691154,-2.0231478,2.0184115,-0.03682359,-391.54307,293.03048)"
       cx="104.07296"
       cy="247.9825"
       fx="104.07296"
       fy="247.9825"
       r="8.2314038" /><radialGradient
       inkscape:collect="always"
       xlink:href="#linearGradient54"
       id="radialGradient55"
       cx="104.91891"
       cy="233.80444"
       fx="104.91891"
       fy="233.80444"
       r="9.3711465"
       gradientTransform="matrix(1.1654259,-2.0995678e-6,0,4.2763223,-17.172505,-766.1564)"
       gradientUnits="userSpaceOnUse" /><radialGradient
       inkscape:collect="always"
       xlink:href="#linearGradient54"
       id="radialGradient57"
       gradientUnits="userSpaceOnUse"
       gradientTransform="matrix(1.1654259,-2.0995678e-6,0,4.2763223,-17.172505,-766.1564)"
       cx="104.91891"
       cy="233.80444"
       fx="104.91891"
       fy="233.80444"
       r="9.3711465" /><radialGradient
       inkscape:collect="always"
       xlink:href="#linearGradient54"
       id="radialGradient79"
       gradientUnits="userSpaceOnUse"
       gradientTransform="matrix(1.1654259,-2.0995678e-6,0,4.2763223,-17.172505,-766.1564)"
       cx="104.91891"
       cy="233.80444"
       fx="104.91891"
       fy="233.80444"
       r="9.3711465" /><radialGradient
       inkscape:collect="always"
       xlink:href="#linearGradient54"
       id="radialGradient80"
       gradientUnits="userSpaceOnUse"
       gradientTransform="matrix(1.1654259,-2.0995678e-6,0,4.2763223,-17.172505,-766.1564)"
       cx="104.91891"
       cy="233.80444"
       fx="104.91891"
       fy="233.80444"
       r="9.3711465" /><radialGradient
       inkscape:collect="always"
       xlink:href="#linearGradient54"
       id="radialGradient84"
       gradientUnits="userSpaceOnUse"
       gradientTransform="matrix(1.1654259,-2.0995678e-6,0,4.2763223,-17.172505,-766.1564)"
       cx="104.91891"
       cy="233.80444"
       fx="104.91891"
       fy="233.80444"
       r="9.3711465" /><radialGradient
       inkscape:collect="always"
       xlink:href="#linearGradient54"
       id="radialGradient85"
       gradientUnits="userSpaceOnUse"
       gradientTransform="matrix(1.1654259,-2.0995678e-6,0,4.2763223,-17.172505,-766.1564)"
       cx="104.91891"
       cy="233.80444"
       fx="104.91891"
       fy="233.80444"
       r="9.3711465" /><radialGradient
       inkscape:collect="always"
       xlink:href="#linearGradient54"
       id="radialGradient89"
       gradientUnits="userSpaceOnUse"
       gradientTransform="matrix(1.1654259,-2.0995678e-6,0,4.2763223,-17.172505,-766.1564)"
       cx="104.91891"
       cy="233.80444"
       fx="104.91891"
       fy="233.80444"
       r="9.3711465" /><radialGradient
       inkscape:collect="always"
       xlink:href="#linearGradient54"
       id="radialGradient90"
       gradientUnits="userSpaceOnUse"
       gradientTransform="matrix(1.1654259,-2.0995678e-6,0,4.2763223,-17.172505,-766.1564)"
       cx="104.91891"
       cy="233.80444"
       fx="104.91891"
       fy="233.80444"
       r="9.3711465" /><linearGradient
       inkscape:collect="always"
       xlink:href="#linearGradient61029"
       id="linearGradient61031"
       x1="32.55098"
       y1="236.03503"
       x2="202.19545"
       y2="236.03503"
       gradientUnits="userSpaceOnUse"
       gradientTransform="matrix(1.1811907,0,0,1.5687861,-34.255372,-217.77833)" /><linearGradient
       inkscape:collect="always"
       id="linearGradient61029"><stop
         style="stop-color:#8b4219;stop-opacity:1"
         offset="0"
         id="stop61025" /><stop
         style="stop-color:#703412;stop-opacity:1"
         offset="0.106"
         id="stop62773" /><stop
         style="stop-color:#dca42d;stop-opacity:1"
         offset="0.35108119"
         id="stop71209" /><stop
         style="stop-color:#f6db74;stop-opacity:1"
         offset="0.56599998"
         id="stop62771" /><stop
         style="stop-color:#e49919;stop-opacity:1"
         offset="0.77130222"
         id="stop69113" /><stop
         style="stop-color:#763d1c;stop-opacity:1"
         offset="1"
         id="stop61027" /></linearGradient></defs><g
     id="layer1"><g
       id="g1"
       transform="translate(-0.01673437,-47.745222)"><circle
         style="display:inline;fill:#e6e6e6;stroke:#053d00;stroke-width:0.011;stroke-linejoin:bevel;paint-order:markers fill stroke"
         id="path1"
         cx="105.01673"
         cy="152.74522"
         r="99.359795"
         inkscape:label="корпус"
         sodipodi:insensitive="true" /><circle
         style="display:inline;fill:url(#radialGradient23);fill-opacity:1;stroke:#053d00;stroke-width:0.011;stroke-linejoin:bevel;paint-order:markers fill stroke"
         id="circle22"
         cx="104.7735"
         cy="152.74522"
         r="99.359795"
         inkscape:label="корпус"
         sodipodi:insensitive="true" /><path
         id="rect1631"
         style="fill:url(#linearGradient61031);stroke-width:8.8774;stroke-linecap:round;stroke-linejoin:round;paint-order:fill markers stroke"
         d="M 102.21618 54.94995 C 100.78115 54.87253 99.1703 55.105768 97.885696 55.197997 C 93.605005 55.505247 89.11339 61.820686 85.668354 59.261315 C 84.638067 58.495898 84.154158 57.269516 84.038996 55.88426 A 99.359795 99.359795 0 0 0 64.337356 62.141759 C 64.196939 63.429113 64.376417 64.658419 65.100617 65.643871 C 65.32168 65.944817 65.561687 66.213744 65.818919 66.45209 C 69.677104 70.027696 77.398745 66.88763 82.995132 66.65983 C 89.322998 66.402242 96.681833 67.755479 101.81414 64.045002 C 104.06581 62.417139 106.74488 59.044474 105.49143 56.564839 C 104.91043 55.41544 103.65121 55.027368 102.21618 54.94995 z M 118.46739 59.343997 C 116.90573 59.387467 115.38191 59.657897 113.92089 60.267972 C 111.35699 61.338586 107.97829 64.010093 108.63233 66.710473 C 109.23865 69.21388 113.18095 69.370811 115.7244 69.777986 C 119.96214 70.456475 125.77741 65.333643 128.54687 68.612165 C 130.80229 71.282127 128.39691 76.339242 125.86538 78.749014 C 123.11562 81.366561 116.62747 77.830762 114.72446 81.115795 C 113.13048 83.867308 114.84093 88.700604 117.64676 90.196894 C 120.91613 91.940357 125.31708 89.284747 128.33087 87.129381 C 131.5366 84.836733 131.67808 79.398151 135.09221 77.429198 C 137.9999 75.752312 142.33525 78.447453 145.12622 76.582738 C 148.08601 74.605275 151.42591 70.369395 150.02877 67.095462 C 149.88225 66.751988 149.71007 66.435938 149.51407 66.145132 C 146.57443 61.78288 138.33964 63.076139 132.83912 62.019803 C 128.17451 61.12402 123.15232 59.213577 118.46739 59.343997 z M 65.851992 73.948274 C 63.276944 73.886004 62.104907 77.653875 61.053319 80.005268 C 59.301134 83.922994 62.744293 90.865778 58.860688 92.692349 C 55.697953 94.179882 51.436039 90.547677 49.763569 87.478714 C 47.94691 84.145158 53.041523 78.793121 50.360948 76.104731 C 48.115739 73.852927 43.004341 74.254084 40.832848 76.577054 C 38.302603 79.283769 39.728867 84.222168 41.030768 87.691104 C 42.415594 91.380997 47.632237 92.925027 48.650458 96.732413 C 49.517646 99.975037 45.791908 103.46547 46.870722 106.64395 C 48.014761 110.0147 51.241856 114.33691 54.765847 113.83473 C 55.135537 113.78213 55.485838 113.69764 55.817463 113.58358 C 60.791901 111.87315 61.673758 103.58441 64.117731 98.544705 C 66.881132 92.846289 71.551065 87.000621 70.706476 80.724088 C 70.335942 77.970429 68.629626 74.01544 65.851992 73.948274 z M 95.066747 77.894286 C 94.005636 77.895004 92.945263 78.095207 92.017837 78.477713 C 89.206458 79.637221 90.072812 87.478846 88.945673 90.303348 C 86.03381 96.792726 80.478591 95.892891 87.202627 101.11251 C 89.65564 103.20141 93.373861 107.10301 96.065652 106.10238 C 96.344266 105.9993 96.611642 105.84281 96.865603 105.62696 C 98.077002 104.59721 93.811489 100.04632 93.705073 98.459956 C 93.393516 93.816129 94.395834 90.648586 97.535847 87.213097 C 98.731786 85.904617 101.98645 87.612345 102.71227 85.995084 C 103.81056 83.547952 101.14214 80.363642 98.883051 78.917479 C 97.796737 78.222085 96.431027 77.893357 95.066747 77.894286 z M 159.45041 81.234134 C 157.39876 81.210224 155.41632 81.736513 154.06831 83.023689 C 152.10806 84.895524 151.77077 89.039888 153.49057 91.134822 C 155.73805 93.872513 163.08224 89.047518 164.03411 92.459289 C 164.99342 95.8978 156.22057 95.580937 155.63359 99.102294 C 155.07404 102.45917 157.75264 107.79629 161.15419 107.6904 C 163.58193 107.6148 162.46789 102.27145 164.70591 101.32748 C 167.27175 100.24523 170.3387 102.14898 172.77208 103.50306 C 175.7949 105.18513 177.05217 111.63834 180.34991 110.59358 C 182.56241 109.89266 182.44983 105.99537 181.76791 103.77694 C 180.59613 99.964717 175.10367 98.942479 173.17257 95.452904 C 171.92537 93.199171 173.56083 89.523668 171.56595 87.894193 C 170.69524 87.182969 169.16382 88.432806 168.19303 87.865771 C 166.49274 86.872621 166.96466 83.709776 165.24799 82.745153 C 163.6231 81.832097 161.50209 81.258047 159.45041 81.234134 z M 136.21927 93.561547 C 133.64424 93.499277 132.4722 97.267145 131.4206 99.618541 C 129.66841 103.53627 133.11158 110.47905 129.22797 112.30562 C 126.06523 113.79316 121.80332 110.16093 120.13085 107.09199 C 118.31419 103.75842 123.40881 98.406404 120.72823 95.718004 C 118.48302 93.466209 113.37163 93.867355 111.20013 96.190327 C 108.66989 98.89705 110.09614 103.83543 111.39805 107.30438 C 112.78287 110.99425 117.99951 112.53882 119.01774 116.3462 C 119.88493 119.58883 116.15918 123.07871 117.238 126.25723 C 118.38204 129.62795 121.60913 133.95018 125.13313 133.448 C 125.50282 133.3954 125.85312 133.31091 126.18474 133.19685 C 131.1592 131.48644 132.04103 123.19768 134.48501 118.15798 C 137.24842 112.45956 141.91835 106.6139 141.07376 100.33736 C 140.70322 97.583704 138.99692 93.628711 136.21927 93.561547 z M 31.911945 97.143757 C 30.47692 97.066467 28.866066 97.299575 27.58146 97.391804 C 25.173505 97.564637 22.704669 99.61078 20.387067 100.93681 A 99.359795 99.359795 0 0 0 16.062783 108.85674 C 21.513462 108.93894 27.262691 109.30889 31.509903 106.23829 C 33.761561 104.61042 36.440643 101.23777 35.187197 98.758129 C 34.606196 97.608731 33.346973 97.221045 31.911945 97.143757 z M 195.534 111.83692 C 195.41452 111.97647 195.32595 112.1366 195.18932 112.2648 C 192.74144 114.56144 187.90451 112.92753 185.61316 115.38037 C 183.1832 117.98154 180.89919 122.86798 183.00712 125.73633 C 183.22819 126.03728 183.46818 126.3062 183.72542 126.54455 C 187.58038 130.11717 195.29192 126.98626 200.88716 126.75384 A 99.359795 99.359795 0 0 0 195.534 111.83692 z M 156.44129 118.54969 C 155.17854 118.56249 154.01758 119.24179 153.00275 120.24416 C 152.19139 121.04557 151.48448 122.05469 150.88246 123.09308 L 157.8841 150.10487 C 158.28113 150.31091 158.70533 150.41025 159.16103 150.34774 C 162.66282 149.86734 166.0472 144.97838 165.11105 141.56999 C 164.24293 138.4093 156.56847 140.64904 156.2103 137.39091 C 155.84095 134.03092 163.57782 134.50506 164.23462 131.18922 C 165.17623 126.43554 161.78574 119.27209 156.98855 118.58586 C 156.80412 118.55946 156.62169 118.54789 156.44129 118.54969 z M 23.994082 119.37496 C 23.849706 119.37536 23.70596 119.38093 23.563101 119.39253 C 20.889295 119.60602 17.036426 121.16057 16.854466 123.8367 C 16.734209 125.60531 20.41024 125.62983 20.850088 127.34708 C 22.004934 131.85579 21.399009 135.12209 18.93961 139.0735 C 18.298811 140.10306 14.729263 141.51459 13.322382 142.78335 L 14.105797 145.3248 C 16.400038 146.44624 20.669031 145.07794 23.429776 144.47317 C 24.740549 144.24768 25.716568 144.01277 26.432176 143.75021 C 30.296421 142.33246 26.569274 140.10214 26.976846 134.11463 C 27.310849 131.09191 31.763295 124.57888 29.827835 122.23318 C 28.459665 120.57504 26.159691 119.3689 23.994082 119.37496 z M 103.87654 121.2012 C 103.41576 121.1912 102.96676 121.2408 102.54071 121.35778 C 99.380019 122.2259 101.61976 129.90036 98.361636 130.25853 C 95.001606 130.62789 95.475767 122.89153 92.159947 122.23473 C 87.40624 121.29312 80.242822 124.68362 79.556582 129.4808 C 79.34554 130.95618 80.069323 132.30679 81.214879 133.4666 C 82.016281 134.27794 83.025415 134.98487 84.063801 135.58689 L 111.07559 128.58525 C 111.28162 128.18822 111.38045 127.76351 111.31795 127.30781 C 110.89757 124.24371 107.10222 121.26971 103.87654 121.2012 z M 41.26693 131.40058 C 39.215253 131.37668 37.232836 131.90244 35.884829 133.18962 C 33.924557 135.06146 33.587797 139.2058 35.307604 141.30075 C 37.555076 144.03844 44.898762 139.21396 45.850629 142.62574 C 46.809939 146.06424 38.037085 145.74738 37.450108 149.26874 C 36.890559 152.62563 39.569172 157.96273 42.970702 157.85685 C 45.398463 157.78125 44.284926 152.43789 46.52294 151.49393 C 49.088801 150.41168 52.15522 152.31491 54.588597 153.66899 C 57.611401 155.35106 58.869195 161.80426 62.166946 160.75951 C 64.379437 160.05859 64.266345 156.1613 63.58443 153.94287 C 62.412627 150.13064 56.920702 149.10893 54.989606 145.61935 C 53.742409 143.36561 55.377343 139.69012 53.382469 138.06064 C 52.51176 137.34942 50.98085 138.59922 50.010065 138.03222 C 48.309772 137.03907 48.781175 133.87622 47.064509 132.9116 C 45.439615 131.99854 43.318597 131.4245 41.26693 131.40058 z M 178.35624 132.03 C 176.30457 132.0547 174.33519 132.62792 173.01806 133.94668 C 171.1027 135.86445 170.8641 140.01558 172.63307 142.06918 C 174.9448 144.75284 182.17258 139.7553 183.20504 143.14353 C 184.24555 146.55837 175.46754 146.44914 174.9642 149.98343 C 174.48435 153.35261 177.28879 158.6252 180.68684 158.43872 C 183.11213 158.30564 181.87162 152.98985 184.08664 151.99312 C 186.62611 150.85037 189.73713 152.68094 192.2019 153.97698 C 195.26373 155.58695 196.67407 162.00822 199.94613 160.8856 C 202.1414 160.13246 201.93617 156.23909 201.20187 154.03744 C 199.94005 150.25406 194.42496 149.36243 192.41171 145.91959 C 191.11145 143.69604 192.65922 139.98293 190.62629 138.40119 C 189.73897 137.7108 188.23784 138.99668 187.25388 138.45286 C 185.53055 137.50029 185.92697 134.32672 184.18792 133.40304 C 182.54185 132.52876 180.40788 132.00528 178.35624 132.03 z M 152.01366 158.01084 C 149.69346 157.95514 148.53444 161.67792 148.45884 163.99756 C 148.3289 167.98369 153.19136 170.7339 153.88435 174.66151 C 154.33188 177.19811 151.59153 180.14329 152.949 182.33236 C 153.5415 183.28779 155.39571 182.60316 156.12969 183.45477 C 157.41519 184.94633 155.94181 187.78455 157.2521 189.25441 C 159.73258 192.03705 164.53005 194.18129 167.91605 192.62217 C 170.37798 191.48851 172.04286 187.67831 171.09673 185.13839 C 169.8603 181.81914 161.34731 183.99712 161.55519 180.46115 C 161.76472 176.8975 169.95905 180.04661 171.65794 176.90685 C 173.27747 173.9137 172.47756 167.99584 169.22604 166.99117 C 166.90539 166.27411 166.2233 171.6896 163.80002 171.85548 C 161.02175 172.04566 158.73961 169.24927 156.87796 167.17824 C 154.56536 164.60555 155.47193 158.09384 152.01366 158.01084 z M 133.71607 159.89755 L 117.10106 170.88861 C 116.67266 170.29807 116.10829 169.91739 115.2991 169.89797 C 113.46056 169.85387 112.37979 172.16611 111.96081 174.28892 L 110.44255 175.29351 C 110.37665 175.73593 110.42095 176.16956 110.62807 176.58025 C 111.00664 177.33081 111.63037 177.9859 112.383 178.53414 C 113.69549 181.23426 116.6407 183.54993 117.16979 186.54864 C 117.61736 189.08524 114.87698 192.03042 116.23445 194.21949 C 116.82695 195.17492 118.68115 194.49029 119.41513 195.3419 C 120.70067 196.83346 119.22725 199.67168 120.53754 201.14154 C 123.01802 203.92418 127.81553 206.06842 131.20149 204.5093 C 133.66346 203.37564 135.32831 199.56544 134.38218 197.02552 C 133.14575 193.70627 124.63276 195.88425 124.84064 192.34828 C 125.05017 188.78463 133.24449 191.93374 134.94338 188.79398 C 136.56291 185.80083 135.76301 179.88297 132.51149 178.8783 C 130.1908 178.16124 129.50874 183.57673 127.08546 183.74261 C 124.49317 183.92006 122.34861 181.50954 120.55873 179.50204 C 120.65543 179.44664 120.77118 179.41874 120.86259 179.35631 C 123.56995 177.50867 118.95888 170.97767 121.92402 169.58068 C 124.98192 168.14001 127.04596 175.61132 130.39534 175.15553 C 135.19714 174.50209 140.87129 168.96893 139.9622 164.20891 C 139.6826 162.745 138.55949 161.70248 137.09932 160.97759 C 136.07785 160.47053 134.89369 160.12966 133.71607 159.89755 z M 40.304715 161.38015 C 37.729664 161.31785 36.558155 165.08574 35.506558 167.43714 C 33.754382 171.35487 37.197523 178.29765 33.313927 180.12422 C 30.151192 181.61176 25.888761 177.97954 24.216291 174.91059 C 22.399637 171.57703 27.494248 166.22501 24.81367 163.5366 C 22.568463 161.28481 17.45758 161.68595 15.286087 164.00893 C 12.755842 166.71563 14.182106 171.65403 15.484007 175.12298 C 16.868832 178.81286 22.084958 180.35688 23.10318 184.16429 C 23.970367 187.40689 20.245147 190.89732 21.323961 194.07583 C 22.468 197.44655 25.695104 201.76878 29.219086 201.2666 C 29.588776 201.214 29.938561 201.12951 30.270185 201.01545 C 35.244623 199.30502 36.126997 191.01626 38.57097 185.97658 C 41.334369 180.27815 46.003785 174.43249 45.159199 168.15596 C 44.788662 165.4023 43.082343 161.4473 40.304715 161.38015 z M 82.514541 163.28649 C 77.254251 163.28849 73.727765 170.84131 69.779401 174.81395 C 68.338014 176.26422 66.70767 177.66844 65.113536 179.10878 L 59.182632 170.14344 C 59.072023 170.12694 58.961692 170.11743 58.85242 170.11553 C 58.524585 170.10953 58.203902 170.17363 57.895889 170.32895 C 54.739973 171.92074 53.126871 177.6439 55.119314 180.56347 C 56.59059 182.71934 61.024925 180.24442 63.478494 180.63995 C 60.790382 183.22609 58.459754 186.02294 57.75998 189.5283 C 57.21604 192.25302 57.5453 196.54764 60.150532 197.51334 C 61.164181 197.88908 62.159897 197.52753 63.107974 196.86429 C 65.193147 198.8542 67.826879 200.12916 70.267227 199.66308 C 71.731166 199.38347 72.77315 198.26037 73.498037 196.80021 C 74.00511 195.77872 74.345963 194.59458 74.578075 193.41695 L 69.537555 185.79726 C 70.156491 183.84098 71.001271 182.25846 72.850532 182.0564 C 76.324936 181.67677 79.176221 186.49643 79.761221 189.94223 C 80.396647 193.68507 73.839997 197.09211 75.502049 200.50541 C 76.894145 203.36434 81.858593 204.64504 84.666865 203.15331 C 87.939059 201.41515 88.194005 196.28142 88.089395 192.57773 C 87.978125 188.63809 83.546268 185.48322 83.819888 181.55152 C 84.052918 178.20307 88.709864 176.11227 88.721914 172.75568 C 88.734714 169.1961 87.086482 164.06 83.590444 163.39036 C 83.223708 163.32006 82.865231 163.28633 82.514541 163.28649 z M 180.28635 185.70476 C 176.17114 185.79056 178.97183 189.11064 176.64161 194.64117 C 175.34394 197.39148 169.01728 202.10504 170.08594 204.95216 C 170.89173 207.09897 172.86762 209.10403 175.08874 209.67384 C 177.68689 210.34037 181.83559 210.12162 182.87689 207.64967 C 183.56507 206.01605 180.09653 204.79888 180.23829 203.03187 C 180.61048 198.3925 182.24401 195.50004 185.85345 192.56171 C 186.79391 191.7961 190.6287 191.62007 192.3714 190.87705 L 192.45563 188.21933 C 190.65005 186.41354 186.16809 186.32092 183.36058 185.99621 C 182.04763 185.78377 181.04844 185.68887 180.28635 185.70476 z M 152.16042 195.85453 C 146.90011 195.85653 143.37366 203.40931 139.42528 207.38199 C 134.96085 211.87392 128.64568 215.88575 127.40586 222.09634 C 126.86192 224.82102 127.19117 229.11568 129.79641 230.08138 C 132.21163 230.97665 134.54364 227.79397 136.30196 225.91161 C 139.23159 222.77539 138.23008 215.09059 142.49641 214.62444 C 145.97083 214.24481 148.8221 219.06447 149.4071 222.51027 C 150.04253 226.25311 143.48587 229.66018 145.14793 233.07344 C 146.54003 235.93241 151.5045 237.21304 154.31274 235.72135 C 157.58495 233.98319 157.83988 228.84949 157.73527 225.14576 C 157.624 221.20616 153.19215 218.05126 153.46577 214.11956 C 153.6988 210.77111 158.35574 208.68027 158.36779 205.32372 C 158.38059 201.76414 156.73237 196.62804 153.23632 195.9584 C 152.86958 195.8881 152.51111 195.85437 152.16042 195.85453 z M 102.20016 198.69466 C 101.90317 198.70166 101.59941 198.76266 101.28911 198.88432 C 99.808907 199.46478 102.36516 205.15461 101.95056 206.68953 C 100.73694 211.18276 98.760136 213.85291 94.674522 216.08223 C 93.11843 216.93133 90.594632 214.25923 89.382856 215.55307 C 87.549294 217.51081 89.03888 221.38906 90.705772 223.49057 C 92.130758 225.28707 94.766904 226.27477 97.055772 226.1364 C 100.09134 225.95289 101.81921 218.25522 103.80265 215.94994 C 108.66436 210.75819 113.62619 213.41322 108.96202 206.29265 C 107.32047 203.52026 105.07102 198.62258 102.20016 198.69466 z M 72.20561 205.02864 C 69.982678 204.95994 67.518902 205.56328 65.52178 206.15933 C 61.745194 207.28642 59.845159 212.38389 55.976626 213.13719 C 52.681933 213.77875 49.456651 209.82132 46.211331 210.67843 C 42.76974 211.58735 38.235434 214.50917 38.493456 218.05937 C 38.520466 218.43181 38.580816 218.78676 38.671739 219.12546 C 40.035136 224.20597 48.243173 225.6576 53.102383 228.44324 C 58.59671 231.59291 64.106556 236.65415 70.42639 236.24431 C 73.199037 236.0645 77.262023 234.63524 77.520531 231.86887 C 77.760191 229.30424 74.082029 227.87523 71.808735 226.66402 C 68.021136 224.64589 60.857508 227.60246 59.303038 223.60219 C 58.037102 220.34442 61.954657 216.34282 65.131623 214.88592 C 68.58249 213.30345 73.570584 218.7545 76.437393 216.26569 C 78.838632 214.18107 78.79064 209.05479 76.622911 206.72828 C 75.517858 205.54229 73.934555 205.08208 72.20561 205.02864 z M 109.70513 225.96587 C 106.56865 226.05437 103.48519 229.10805 101.34853 231.54641 C 98.751128 234.51056 99.856083 239.83773 96.981875 242.53437 C 94.534007 244.83096 89.697067 243.1971 87.405715 245.64994 C 86.397057 246.72967 85.433688 248.20753 84.779002 249.767 A 99.359795 99.359795 0 0 0 105.01653 252.10484 A 99.359795 99.359795 0 0 0 125.22098 249.77475 C 125.56803 248.79162 125.63301 247.80334 125.18997 246.92686 C 124.02797 244.62806 120.15341 245.37556 117.58424 245.56002 C 113.30353 245.86727 108.81247 252.18272 105.36741 249.62334 C 102.56183 247.53902 103.74873 242.06658 105.663 239.14232 C 107.74232 235.96599 114.86636 237.92633 115.96883 234.29353 C 116.89228 231.2507 114.12316 226.9358 111.04975 226.11986 C 110.60211 226.00102 110.1532 225.95323 109.70513 225.96587 z " /><path
         id="circle39"
         style="display:inline;fill:#e6e6e6;fill-opacity:0.412074;stroke:#050000;stroke-width:0.3;stroke-linejoin:bevel;stroke-dasharray:none;stroke-opacity:1;paint-order:markers fill stroke"
         inkscape:label="обводка"
         d="M 104.81706,53.385188 A 99.359795,99.359795 0 0 0 5.4572292,152.74501 99.359795,99.359795 0 0 0 104.81706,252.10484 99.359795,99.359795 0 0 0 204.17688,152.74501 99.359795,99.359795 0 0 0 104.81706,53.385188 Z m 0.19947,3.042708 A 96.317314,96.317314 0 0 1 201.33416,152.74501 96.317314,96.317314 0 0 1 105.01653,249.06265 96.317314,96.317314 0 0 1 8.6994085,152.74501 96.317314,96.317314 0 0 1 105.01653,56.427896 Z"
         sodipodi:insensitive="true" /><g
         id="g90"
         inkscape:label="засветы"
         sodipodi:insensitive="true"><g
           id="g49"
           transform="rotate(-15,105.06679,152.78115)"><g
             id="g54"><path
               id="path54"
               style="display:inline;fill:none;stroke:#050000;stroke-width:0.5;stroke-linejoin:bevel;stroke-dasharray:none;stroke-opacity:1;paint-order:markers fill stroke"
               inkscape:label="корпус"
               d="m 95.895637,215.79543 v 32.61506 a 96.317314,96.317314 0 0 0 9.120893,0.65216 96.317314,96.317314 0 0 0 9.1214,-0.44648 v -32.82074 a 63.474464,63.717693 0 0 1 -9.1214,0.66766 63.474464,63.717693 0 0 1 -9.120893,-0.66766 z m 9.326563,36.29959 a 99.359795,99.359795 0 0 1 -0.27285,0.007 99.359795,99.359795 0 0 0 0.0672,0.003 99.359795,99.359795 0 0 0 0.20567,-0.01 z" /><path
               id="circle48"
               style="display:inline;fill:url(#radialGradient55);fill-opacity:1;stroke:#050000;stroke-width:0.5;stroke-linejoin:bevel;stroke-dasharray:none;stroke-opacity:1;paint-order:markers fill stroke"
               inkscape:label="корпус"
               d="m 95.895637,215.79543 v 32.61506 a 96.317314,96.317314 0 0 0 9.120893,0.65216 96.317314,96.317314 0 0 0 9.1214,-0.44648 v -32.82074 a 63.474464,63.717693 0 0 1 -9.1214,0.66766 63.474464,63.717693 0 0 1 -9.120893,-0.66766 z m 9.326563,36.29959 a 99.359795,99.359795 0 0 1 -0.27285,0.007 99.359795,99.359795 0 0 0 0.0672,0.003 99.359795,99.359795 0 0 0 0.20567,-0.01 z" /></g><g
             id="g57"
             transform="rotate(180,105.06678,152.78124)"><path
               id="path56"
               style="display:inline;fill:none;stroke:#050000;stroke-width:0.5;stroke-linejoin:bevel;stroke-dasharray:none;stroke-opacity:1;paint-order:markers fill stroke"
               inkscape:label="корпус"
               d="m 95.895637,215.79543 v 32.61506 a 96.317314,96.317314 0 0 0 9.120893,0.65216 96.317314,96.317314 0 0 0 9.1214,-0.44648 v -32.82074 a 63.474464,63.717693 0 0 1 -9.1214,0.66766 63.474464,63.717693 0 0 1 -9.120893,-0.66766 z m 9.326563,36.29959 a 99.359795,99.359795 0 0 1 -0.27285,0.007 99.359795,99.359795 0 0 0 0.0672,0.003 99.359795,99.359795 0 0 0 0.20567,-0.01 z" /><path
               id="path57"
               style="display:inline;fill:url(#radialGradient57);fill-opacity:1;stroke:#050000;stroke-width:0.5;stroke-linejoin:bevel;stroke-dasharray:none;stroke-opacity:1;paint-order:markers fill stroke"
               inkscape:label="корпус"
               d="m 95.895637,215.79543 v 32.61506 a 96.317314,96.317314 0 0 0 9.120893,0.65216 96.317314,96.317314 0 0 0 9.1214,-0.44648 v -32.82074 a 63.474464,63.717693 0 0 1 -9.1214,0.66766 63.474464,63.717693 0 0 1 -9.120893,-0.66766 z m 9.326563,36.29959 a 99.359795,99.359795 0 0 1 -0.27285,0.007 99.359795,99.359795 0 0 0 0.0672,0.003 99.359795,99.359795 0 0 0 0.20567,-0.01 z" /></g></g><g
           id="g79"
           transform="rotate(-60,105.06679,152.78122)"><g
             id="g76"><path
               id="path75"
               style="display:inline;fill:none;stroke:#050000;stroke-width:0.5;stroke-linejoin:bevel;stroke-dasharray:none;stroke-opacity:1;paint-order:markers fill stroke"
               inkscape:label="корпус"
               d="m 95.895637,215.79543 v 32.61506 a 96.317314,96.317314 0 0 0 9.120893,0.65216 96.317314,96.317314 0 0 0 9.1214,-0.44648 v -32.82074 a 63.474464,63.717693 0 0 1 -9.1214,0.66766 63.474464,63.717693 0 0 1 -9.120893,-0.66766 z m 9.326563,36.29959 a 99.359795,99.359795 0 0 1 -0.27285,0.007 99.359795,99.359795 0 0 0 0.0672,0.003 99.359795,99.359795 0 0 0 0.20567,-0.01 z" /><path
               id="path76"
               style="display:inline;fill:url(#radialGradient79);fill-opacity:1;stroke:#050000;stroke-width:0.5;stroke-linejoin:bevel;stroke-dasharray:none;stroke-opacity:1;paint-order:markers fill stroke"
               inkscape:label="корпус"
               d="m 95.895637,215.79543 v 32.61506 a 96.317314,96.317314 0 0 0 9.120893,0.65216 96.317314,96.317314 0 0 0 9.1214,-0.44648 v -32.82074 a 63.474464,63.717693 0 0 1 -9.1214,0.66766 63.474464,63.717693 0 0 1 -9.120893,-0.66766 z m 9.326563,36.29959 a 99.359795,99.359795 0 0 1 -0.27285,0.007 99.359795,99.359795 0 0 0 0.0672,0.003 99.359795,99.359795 0 0 0 0.20567,-0.01 z" /></g><g
             id="g78"
             transform="rotate(180,105.06678,152.78124)"><path
               id="path77"
               style="display:inline;fill:none;stroke:#050000;stroke-width:0.5;stroke-linejoin:bevel;stroke-dasharray:none;stroke-opacity:1;paint-order:markers fill stroke"
               inkscape:label="корпус"
               d="m 95.895637,215.79543 v 32.61506 a 96.317314,96.317314 0 0 0 9.120893,0.65216 96.317314,96.317314 0 0 0 9.1214,-0.44648 v -32.82074 a 63.474464,63.717693 0 0 1 -9.1214,0.66766 63.474464,63.717693 0 0 1 -9.120893,-0.66766 z m 9.326563,36.29959 a 99.359795,99.359795 0 0 1 -0.27285,0.007 99.359795,99.359795 0 0 0 0.0672,0.003 99.359795,99.359795 0 0 0 0.20567,-0.01 z" /><path
               id="path78"
               style="display:inline;fill:url(#radialGradient80);fill-opacity:1;stroke:#050000;stroke-width:0.5;stroke-linejoin:bevel;stroke-dasharray:none;stroke-opacity:1;paint-order:markers fill stroke"
               inkscape:label="корпус"
               d="m 95.895637,215.79543 v 32.61506 a 96.317314,96.317314 0 0 0 9.120893,0.65216 96.317314,96.317314 0 0 0 9.1214,-0.44648 v -32.82074 a 63.474464,63.717693 0 0 1 -9.1214,0.66766 63.474464,63.717693 0 0 1 -9.120893,-0.66766 z m 9.326563,36.29959 a 99.359795,99.359795 0 0 1 -0.27285,0.007 99.359795,99.359795 0 0 0 0.0672,0.003 99.359795,99.359795 0 0 0 0.20567,-0.01 z" /></g></g><g
           id="g84"
           transform="rotate(-105,105.06679,152.78123)"><g
             id="g81"><path
               id="path80"
               style="display:inline;fill:none;stroke:#050000;stroke-width:0.5;stroke-linejoin:bevel;stroke-dasharray:none;stroke-opacity:1;paint-order:markers fill stroke"
               inkscape:label="корпус"
               d="m 95.895637,215.79543 v 32.61506 a 96.317314,96.317314 0 0 0 9.120893,0.65216 96.317314,96.317314 0 0 0 9.1214,-0.44648 v -32.82074 a 63.474464,63.717693 0 0 1 -9.1214,0.66766 63.474464,63.717693 0 0 1 -9.120893,-0.66766 z m 9.326563,36.29959 a 99.359795,99.359795 0 0 1 -0.27285,0.007 99.359795,99.359795 0 0 0 0.0672,0.003 99.359795,99.359795 0 0 0 0.20567,-0.01 z" /><path
               id="path81"
               style="display:inline;fill:url(#radialGradient84);fill-opacity:1;stroke:#050000;stroke-width:0.5;stroke-linejoin:bevel;stroke-dasharray:none;stroke-opacity:1;paint-order:markers fill stroke"
               inkscape:label="корпус"
               d="m 95.895637,215.79543 v 32.61506 a 96.317314,96.317314 0 0 0 9.120893,0.65216 96.317314,96.317314 0 0 0 9.1214,-0.44648 v -32.82074 a 63.474464,63.717693 0 0 1 -9.1214,0.66766 63.474464,63.717693 0 0 1 -9.120893,-0.66766 z m 9.326563,36.29959 a 99.359795,99.359795 0 0 1 -0.27285,0.007 99.359795,99.359795 0 0 0 0.0672,0.003 99.359795,99.359795 0 0 0 0.20567,-0.01 z" /></g><g
             id="g83"
             transform="rotate(180,105.06678,152.78124)"><path
               id="path82"
               style="display:inline;fill:none;stroke:#050000;stroke-width:0.5;stroke-linejoin:bevel;stroke-dasharray:none;stroke-opacity:1;paint-order:markers fill stroke"
               inkscape:label="корпус"
               d="m 95.895637,215.79543 v 32.61506 a 96.317314,96.317314 0 0 0 9.120893,0.65216 96.317314,96.317314 0 0 0 9.1214,-0.44648 v -32.82074 a 63.474464,63.717693 0 0 1 -9.1214,0.66766 63.474464,63.717693 0 0 1 -9.120893,-0.66766 z m 9.326563,36.29959 a 99.359795,99.359795 0 0 1 -0.27285,0.007 99.359795,99.359795 0 0 0 0.0672,0.003 99.359795,99.359795 0 0 0 0.20567,-0.01 z" /><path
               id="path83"
               style="display:inline;fill:url(#radialGradient85);fill-opacity:1;stroke:#050000;stroke-width:0.5;stroke-linejoin:bevel;stroke-dasharray:none;stroke-opacity:1;paint-order:markers fill stroke"
               inkscape:label="корпус"
               d="m 95.895637,215.79543 v 32.61506 a 96.317314,96.317314 0 0 0 9.120893,0.65216 96.317314,96.317314 0 0 0 9.1214,-0.44648 v -32.82074 a 63.474464,63.717693 0 0 1 -9.1214,0.66766 63.474464,63.717693 0 0 1 -9.120893,-0.66766 z m 9.326563,36.29959 a 99.359795,99.359795 0 0 1 -0.27285,0.007 99.359795,99.359795 0 0 0 0.0672,0.003 99.359795,99.359795 0 0 0 0.20567,-0.01 z" /></g></g><g
           id="g89"
           transform="rotate(-150,105.06679,152.78124)"><g
             id="g86"><path
               id="path85"
               style="display:inline;fill:none;stroke:#050000;stroke-width:0.5;stroke-linejoin:bevel;stroke-dasharray:none;stroke-opacity:1;paint-order:markers fill stroke"
               inkscape:label="корпус"
               d="m 95.895637,215.79543 v 32.61506 a 96.317314,96.317314 0 0 0 9.120893,0.65216 96.317314,96.317314 0 0 0 9.1214,-0.44648 v -32.82074 a 63.474464,63.717693 0 0 1 -9.1214,0.66766 63.474464,63.717693 0 0 1 -9.120893,-0.66766 z m 9.326563,36.29959 a 99.359795,99.359795 0 0 1 -0.27285,0.007 99.359795,99.359795 0 0 0 0.0672,0.003 99.359795,99.359795 0 0 0 0.20567,-0.01 z" /><path
               id="path86"
               style="display:inline;fill:url(#radialGradient89);fill-opacity:1;stroke:#050000;stroke-width:0.5;stroke-linejoin:bevel;stroke-dasharray:none;stroke-opacity:1;paint-order:markers fill stroke"
               inkscape:label="корпус"
               d="m 95.895637,215.79543 v 32.61506 a 96.317314,96.317314 0 0 0 9.120893,0.65216 96.317314,96.317314 0 0 0 9.1214,-0.44648 v -32.82074 a 63.474464,63.717693 0 0 1 -9.1214,0.66766 63.474464,63.717693 0 0 1 -9.120893,-0.66766 z m 9.326563,36.29959 a 99.359795,99.359795 0 0 1 -0.27285,0.007 99.359795,99.359795 0 0 0 0.0672,0.003 99.359795,99.359795 0 0 0 0.20567,-0.01 z" /></g><g
             id="g88"
             transform="rotate(180,105.06678,152.78124)"><path
               id="path87"
               style="display:inline;fill:none;stroke:#050000;stroke-width:0.5;stroke-linejoin:bevel;stroke-dasharray:none;stroke-opacity:1;paint-order:markers fill stroke"
               inkscape:label="корпус"
               d="m 95.895637,215.79543 v 32.61506 a 96.317314,96.317314 0 0 0 9.120893,0.65216 96.317314,96.317314 0 0 0 9.1214,-0.44648 v -32.82074 a 63.474464,63.717693 0 0 1 -9.1214,0.66766 63.474464,63.717693 0 0 1 -9.120893,-0.66766 z m 9.326563,36.29959 a 99.359795,99.359795 0 0 1 -0.27285,0.007 99.359795,99.359795 0 0 0 0.0672,0.003 99.359795,99.359795 0 0 0 0.20567,-0.01 z" /><path
               id="path88"
               style="display:inline;fill:url(#radialGradient90);fill-opacity:1;stroke:#050000;stroke-width:0.5;stroke-linejoin:bevel;stroke-dasharray:none;stroke-opacity:1;paint-order:markers fill stroke"
               inkscape:label="корпус"
               d="m 95.895637,215.79543 v 32.61506 a 96.317314,96.317314 0 0 0 9.120893,0.65216 96.317314,96.317314 0 0 0 9.1214,-0.44648 v -32.82074 a 63.474464,63.717693 0 0 1 -9.1214,0.66766 63.474464,63.717693 0 0 1 -9.120893,-0.66766 z m 9.326563,36.29959 a 99.359795,99.359795 0 0 1 -0.27285,0.007 99.359795,99.359795 0 0 0 0.0672,0.003 99.359795,99.359795 0 0 0 0.20567,-0.01 z" /></g></g></g><g
         id="g48"
         inkscape:label="бойницы"
         style="display:inline"
         sodipodi:insensitive="true"><g
           id="g41"
           transform="rotate(-15,104.70841,152.71997)"><path
             id="path40"
             style="display:inline;fill:url(#radialGradient41);fill-opacity:1;stroke:#000000;stroke-width:0.3;stroke-linejoin:bevel;stroke-dasharray:none;stroke-opacity:1;paint-order:markers fill stroke"
             inkscape:label="корпус"
             d="m 104.36282,231.85026 c -3.18268,0.0349 -6.170916,6.196 -8.046537,16.59021 2.889199,0.33867 5.792257,0.54628 8.700247,0.62218 2.49229,-0.0101 4.98324,-0.11702 7.46724,-0.32039 -1.87495,-10.5941 -4.89857,-16.88339 -8.12095,-16.892 z"
             sodipodi:nodetypes="ccccc" /><path
             id="path58"
             style="display:inline;fill:url(#radialGradient42);fill-opacity:1;stroke:#000000;stroke-width:0.3;stroke-linejoin:bevel;stroke-dasharray:none;stroke-opacity:1;paint-order:markers fill stroke"
             inkscape:label="корпус"
             d="m 105.05399,73.589682 c 3.18268,-0.0349 6.17092,-6.196 8.04654,-16.59021 -2.8892,-0.33867 -5.79226,-0.54628 -8.70025,-0.62218 -2.49229,0.0101 -4.983242,0.11702 -7.467248,0.32039 1.874946,10.5941 4.898578,16.88339 8.120958,16.892 z"
             sodipodi:nodetypes="ccccc" /></g><g
           id="g43"
           transform="rotate(-60,104.70841,152.71997)"><path
             id="path42"
             style="display:inline;fill:url(#radialGradient43);fill-opacity:1;stroke:#000000;stroke-width:0.3;stroke-linejoin:bevel;stroke-dasharray:none;stroke-opacity:1;paint-order:markers fill stroke"
             inkscape:label="корпус"
             d="m 104.36282,231.85026 c -3.18268,0.0349 -6.170916,6.196 -8.046537,16.59021 2.889199,0.33867 5.792257,0.54628 8.700247,0.62218 2.49229,-0.0101 4.98324,-0.11702 7.46724,-0.32039 -1.87495,-10.5941 -4.89857,-16.88339 -8.12095,-16.892 z"
             sodipodi:nodetypes="ccccc" /><path
             id="path43"
             style="display:inline;fill:url(#radialGradient44);fill-opacity:1;stroke:#000000;stroke-width:0.3;stroke-linejoin:bevel;stroke-dasharray:none;stroke-opacity:1;paint-order:markers fill stroke"
             inkscape:label="корпус"
             d="m 105.05399,73.589682 c 3.18268,-0.0349 6.17092,-6.196 8.04654,-16.59021 -2.8892,-0.33867 -5.79226,-0.54628 -8.70025,-0.62218 -2.49229,0.0101 -4.983242,0.11702 -7.467248,0.32039 1.874946,10.5941 4.898578,16.88339 8.120958,16.892 z"
             sodipodi:nodetypes="ccccc" /></g><g
           id="g45"
           transform="rotate(-105,104.70841,152.71997)"><path
             id="path44"
             style="display:inline;fill:url(#radialGradient45);fill-opacity:1;stroke:#000000;stroke-width:0.3;stroke-linejoin:bevel;stroke-dasharray:none;stroke-opacity:1;paint-order:markers fill stroke"
             inkscape:label="корпус"
             d="m 104.36282,231.85026 c -3.18268,0.0349 -6.170916,6.196 -8.046537,16.59021 2.889199,0.33867 5.792257,0.54628 8.700247,0.62218 2.49229,-0.0101 4.98324,-0.11702 7.46724,-0.32039 -1.87495,-10.5941 -4.89857,-16.88339 -8.12095,-16.892 z"
             sodipodi:nodetypes="ccccc" /><path
             id="path45"
             style="display:inline;fill:url(#radialGradient46);fill-opacity:1;stroke:#000000;stroke-width:0.3;stroke-linejoin:bevel;stroke-dasharray:none;stroke-opacity:1;paint-order:markers fill stroke"
             inkscape:label="корпус"
             d="m 105.05399,73.589682 c 3.18268,-0.0349 6.17092,-6.196 8.04654,-16.59021 -2.8892,-0.33867 -5.79226,-0.54628 -8.70025,-0.62218 -2.49229,0.0101 -4.983242,0.11702 -7.467248,0.32039 1.874946,10.5941 4.898578,16.88339 8.120958,16.892 z"
             sodipodi:nodetypes="ccccc" /></g><g
           id="g47"
           transform="rotate(30,104.7084,152.71997)"
           style="display:inline"><path
             id="path46"
             style="display:inline;fill:url(#radialGradient47);fill-opacity:1;stroke:#000000;stroke-width:0.3;stroke-linejoin:bevel;stroke-dasharray:none;stroke-opacity:1;paint-order:markers fill stroke"
             inkscape:label="корпус"
             d="m 104.36282,231.85026 c -3.18268,0.0349 -6.170916,6.196 -8.046537,16.59021 2.889199,0.33867 5.792257,0.54628 8.700247,0.62218 2.49229,-0.0101 4.98324,-0.11702 7.46724,-0.32039 -1.87495,-10.5941 -4.89857,-16.88339 -8.12095,-16.892 z"
             sodipodi:nodetypes="ccccc" /><path
             id="path47"
             style="display:inline;fill:url(#radialGradient48);fill-opacity:1;stroke:#000000;stroke-width:0.3;stroke-linejoin:bevel;stroke-dasharray:none;stroke-opacity:1;paint-order:markers fill stroke"
             inkscape:label="корпус"
             d="m 105.05399,73.589682 c 3.18268,-0.0349 6.17092,-6.196 8.04654,-16.59021 -2.8892,-0.33867 -5.79226,-0.54628 -8.70025,-0.62218 -2.49229,0.0101 -4.983242,0.11702 -7.467248,0.32039 1.874946,10.5941 4.898578,16.88339 8.120958,16.892 z"
             sodipodi:nodetypes="ccccc" /></g></g><path
         id="circle6"
         style="display:inline;fill:url(#radialGradient20);fill-opacity:1;stroke:#053d00;stroke-width:0.011;stroke-linejoin:bevel;paint-order:markers fill stroke"
         d="m 106.35546,98.294591 v 14.931389 c 9.55651,0.32468 18.67186,4.10038 25.6589,10.62829 l 10.55801,-10.55801 c -9.79293,-9.32079 -22.70148,-14.667729 -36.21691,-15.001669 z m -2.67735,0.06253 C 90.186882,98.712732 77.307771,104.06288 67.535611,113.37119 l 10.53114,10.53166 c 6.976896,-6.51224 16.073228,-10.28211 25.611359,-10.61434 z m 40.78769,16.832049 -10.55853,10.55853 c 6.52809,6.98696 10.30399,16.10231 10.62881,25.65889 h 14.93139 c -0.33381,-13.51561 -5.68077,-26.42436 -15.00167,-36.21742 z m -78.823097,0.0749 c -9.308305,9.77216 -14.658458,22.65127 -15.014071,36.14249 h 14.931389 c 0.332231,-9.53813 4.102103,-18.63446 10.614339,-25.61135 z m -15.014071,38.81985 c 0.355611,13.49123 5.705764,26.37034 15.014071,36.1425 l 10.53114,-10.53166 C 69.661909,172.71795 65.892232,163.62183 65.560021,154.08395 Z m 93.844398,0 c -0.33207,9.53781 -4.10156,18.63392 -10.6133,25.61084 l 10.53165,10.53166 c 9.30812,-9.77224 14.65809,-22.65134 15.01356,-36.1425 z m -66.406279,27.50427 -10.53114,10.53114 c 9.77216,9.30831 22.651271,14.65846 36.142499,15.01407 v -14.93191 c -9.537995,-0.33194 -18.63431,-4.10144 -25.611359,-10.6133 z m 53.899549,0 c -6.97692,6.51174 -16.07303,10.28123 -25.61084,10.6133 v 14.93191 c 13.49116,-0.35547 26.37026,-5.70544 36.1425,-15.01356 z"
         inkscape:label="основа вентиляции"
         sodipodi:nodetypes="cccccccccccccccccccccccccccccccccccccccc"
         sodipodi:insensitive="true" /><path
         id="path11"
         style="display:inline;fill:url(#radialGradient13);fill-opacity:1;stroke:#053d00;stroke-width:0.011;stroke-linejoin:bevel;paint-order:markers fill stroke"
         inkscape:label="середина  вентиляции"
         d="m 106.35546,98.294591 v 8.968959 a 45.577057,45.577057 0 0 1 29.8602,12.38943 l 6.35671,-6.35672 c -9.79292,-9.32078 -22.70149,-14.667729 -36.21691,-15.001669 z m -2.67735,0.06253 c -13.491217,0.35561 -26.370349,5.705769 -36.142499,15.014069 l 6.281787,6.2823 a 45.577057,45.577057 0 0 1 29.860712,-12.38994 z m 40.78769,16.832049 -6.35724,6.35723 a 45.577057,45.577057 0 0 1 12.38943,29.86019 h 8.96948 C 159.13366,137.891 153.78669,124.98222 144.4658,115.18917 Z m -78.823097,0.0749 c -9.308296,9.77215 -14.658458,22.65129 -15.014071,36.14249 h 8.906433 a 45.577057,45.577057 0 0 1 12.389942,-29.8607 z m -15.014071,38.81985 c 0.355611,13.49122 5.705773,26.37035 15.014071,36.1425 l 6.281787,-6.28231 A 45.577057,45.577057 0 0 1 59.535065,154.08395 Z m 99.932398,0 a 45.577057,45.577057 0 0 1 -12.39304,29.9191 l 6.22339,6.2234 c 9.30812,-9.77223 14.65809,-22.65135 15.01356,-36.1425 z m -76.743116,31.7531 -6.282303,6.28231 c 9.77215,9.3083 22.651282,14.65846 36.142499,15.01407 v -8.90695 a 45.577057,45.577057 0 0 1 -29.860196,-12.3894 z m 62.456656,0.0594 a 45.577057,45.577057 0 0 1 -29.91911,12.39304 v 8.84391 c 13.49115,-0.35547 26.37027,-5.70545 36.1425,-15.01356 z"
         sodipodi:insensitive="true" /><path
         id="path7"
         style="display:inline;fill:url(#radialGradient10);fill-opacity:1;stroke:#053d00;stroke-width:0.011;stroke-linejoin:bevel;paint-order:markers fill stroke"
         inkscape:label="внешняя вентиляция"
         d="m 106.32414,98.325816 v 4.256594 a 50.227043,50.227043 0 0 1 33.20728,13.75472 l 3.00963,-3.00964 c -9.79292,-9.32078 -22.70149,-14.667734 -36.21691,-15.001674 z m -2.67735,0.06253 c -13.491212,0.35561 -26.370344,5.705774 -36.142494,15.014074 l 3.001883,3.0024 a 50.227043,50.227043 0 0 1 33.140611,-13.75988 z m 40.78769,16.832054 -3.01015,3.01015 a 50.227043,50.227043 0 0 1 13.75523,33.20727 h 4.25659 c -0.33381,-13.51559 -5.68078,-26.42437 -15.00167,-36.21742 z m -78.823092,0.0749 c -9.308296,9.77215 -14.658458,22.65129 -15.014071,36.14249 h 4.256588 a 50.227043,50.227043 0 0 1 13.759884,-33.14061 z m -15.014071,38.81985 c 0.355611,13.49122 5.705773,26.37035 15.014071,36.1425 l 3.001884,-3.0024 a 50.227043,50.227043 0 0 1 -13.759367,-33.1401 z m 104.519713,0 a 50.227043,50.227043 0 0 1 -13.75937,33.1401 l 3.0024,3.0024 c 9.30812,-9.77223 14.65809,-22.65135 15.01356,-36.1425 z m -84.610851,35.03352 -3.001883,3.00189 c 9.77215,9.3083 22.651282,14.65846 36.142494,15.01407 v -4.25659 A 50.227043,50.227043 0 0 1 70.506179,189.1487 Z m 68.958061,0 a 50.227043,50.227043 0 0 1 -33.1401,13.75937 v 4.25659 c 13.49115,-0.35547 26.37027,-5.70545 36.1425,-15.01356 z"
         sodipodi:insensitive="true" /><g
         id="g15"
         inkscape:label="центр"><circle
           style="display:inline;fill:#00fc04;fill-opacity:1;stroke:#053d00;stroke-width:0.0168995;stroke-linejoin:bevel;paint-order:markers fill stroke"
           id="circle7"
           cx="105.01673"
           cy="152.74522"
           r="25.597095"
           inkscape:label="окна" /><path
           id="circle91"
           style="display:inline;fill:#d7cda7;fill-opacity:1;stroke:#053d00;stroke-width:0.0168995;stroke-linejoin:bevel;paint-order:markers fill stroke"
           inkscape:label="окна"
           d="m 105.01653,127.14813 a 25.597095,25.597095 0 0 0 -1.48622,0.10645 v 21.90254 L 88.013947,133.64075 a 25.597095,25.597095 0 0 0 -2.10168,2.10168 L 101.42863,151.2588 H 79.526093 a 25.597095,25.597095 0 0 0 -0.106453,1.48621 25.597095,25.597095 0 0 0 0.106453,1.48674 h 21.902027 l -15.515853,15.51636 a 25.597095,25.597095 0 0 0 2.10168,2.10168 l 15.516363,-15.51636 v 21.90254 a 25.597095,25.597095 0 0 0 1.48622,0.10645 25.597095,25.597095 0 0 0 1.48673,-0.10645 v -21.90203 l 15.51636,15.51637 a 25.597095,25.597095 0 0 0 2.1022,-2.1022 l -15.51636,-15.51636 h 21.90202 a 25.597095,25.597095 0 0 0 0.10645,-1.48674 25.597095,25.597095 0 0 0 -0.0481,-1.48621 H 108.6049 l 15.52877,-15.52825 a 25.597095,25.597095 0 0 0 -2.1022,-2.1022 l -15.52825,15.52825 v -21.96041 a 25.597095,25.597095 0 0 0 -1.48673,-0.0481 z" /><circle
           style="display:inline;fill:#000000;stroke:#053d00;stroke-width:0.0160567;stroke-linejoin:bevel;paint-order:markers fill stroke"
           id="path2"
           cx="105.01673"
           cy="152.74522"
           r="24.320555"
           inkscape:label="центр" /><circle
           style="display:inline;fill:url(#radialGradient15);fill-opacity:1;stroke:#053d00;stroke-width:0.0160567;stroke-linejoin:bevel;paint-order:markers fill stroke"
           id="circle13"
           cx="105.01673"
           cy="152.74522"
           r="24.320555"
           inkscape:label="центр" /></g></g></g></svg>
