<?xml version="1.0" encoding="UTF-8" standalone="no"?>
<svg
   xmlns:dc="http://purl.org/dc/elements/1.1/"
   xmlns:cc="http://creativecommons.org/ns#"
   xmlns:rdf="http://www.w3.org/1999/02/22-rdf-syntax-ns#"
   xmlns:svg="http://www.w3.org/2000/svg"
   xmlns="http://www.w3.org/2000/svg"
   xmlns:sodipodi="http://sodipodi.sourceforge.net/DTD/sodipodi-0.dtd"
   xmlns:inkscape="http://www.inkscape.org/namespaces/inkscape"
   width="135.86606mm"
   height="135.86606mm"
   viewBox="0 0 135.86606 135.86606"
   version="1.1"
   id="svg963"
   inkscape:version="1.0.2-2 (e86c870879, 2021-01-15)"
   sodipodi:docname="smile.svg">
  <defs
     id="defs957" />
  <sodipodi:namedview
     id="base"
     pagecolor="#ffffff"
     bordercolor="#666666"
     borderopacity="1.0"
     inkscape:pageopacity="0.0"
     inkscape:pageshadow="2"
     inkscape:zoom="0.49497475"
     inkscape:cx="-603.23547"
     inkscape:cy="358.74015"
     inkscape:document-units="mm"
     inkscape:current-layer="layer1"
     inkscape:document-rotation="0"
     showgrid="false"
     inkscape:window-width="3440"
     inkscape:window-height="1417"
     inkscape:window-x="-8"
     inkscape:window-y="-8"
     inkscape:window-maximized="1" />
  <metadata
     id="metadata960">
    <rdf:RDF>
      <cc:Work
         rdf:about="">
        <dc:format>image/svg+xml</dc:format>
        <dc:type
           rdf:resource="http://purl.org/dc/dcmitype/StillImage" />
        <dc:title />
      </cc:Work>
    </rdf:RDF>
  </metadata>
  <g
     inkscape:label="Слой 1"
     inkscape:groupmode="layer"
     id="layer1"
     transform="translate(-35.176191,-48.013715)">
    <g
       id="g1572">
      <circle
         style="fill:none;fill-opacity:1;stroke:#000000;stroke-width:9.33759;stroke-miterlimit:4;stroke-dasharray:none;stroke-opacity:1"
         id="path1542"
         cx="103.10922"
         cy="115.94675"
         r="63.264236" />
      <circle
         style="fill:#000000;fill-opacity:1;stroke:none;stroke-width:23.9773;stroke-miterlimit:4;stroke-dasharray:none;stroke-opacity:1"
         id="path1544"
         cx="81.954689"
         cy="102.83788"
         r="9.9691219" />
      <circle
         style="fill:#000000;fill-opacity:1;stroke:none;stroke-width:23.9773;stroke-miterlimit:4;stroke-dasharray:none;stroke-opacity:1"
         id="path1544-7"
         cx="124.45812"
         cy="102.83912"
         r="9.9691219" />
      <path
         style="fill:#000000;fill-opacity:1;stroke:none;stroke-width:0.264583px;stroke-linecap:butt;stroke-linejoin:miter;stroke-opacity:1"
         d="m 65.783721,129.25067 7.791707,-2.68771 c 0,0 2.221749,5.0402 3.834997,7.24594 2.010894,2.74943 4.507835,5.21718 7.25922,7.2254 2.642944,1.92906 5.583575,3.44774 8.667549,4.4809 3.119555,1.04509 6.438682,1.65397 9.728626,1.66382 3.24259,0.01 4.77921,-0.20945 9.59824,-1.5824 2.9829,-0.84983 5.96044,-2.45457 7.89131,-3.80053 2.20525,-1.53721 5.6984,-4.40279 8.00138,-7.55989 2.71522,-3.72223 4.07575,-7.66724 4.07575,-7.66724 l 7.78423,2.85644 c 0,0 -1.30885,4.84651 -5.46789,10.18109 -2.74999,3.52727 -4.08506,4.85307 -8.80824,8.53293 -9.16824,7.14304 -22.23957,7.41158 -22.23957,7.41158 -6.044017,-0.19553 -10.701583,-1.23462 -13.722118,-2.27372 -4.65694,-1.60203 -8.914217,-4.14952 -11.784413,-6.61684 -6.208114,-4.66737 -10.712385,-11.63992 -12.610778,-17.40977 z"
         id="path1566"
         sodipodi:nodetypes="ccsssssssccsscscc" />
    </g>
  </g>
</svg>
