<?xml version="1.0" encoding="UTF-8" standalone="no"?>
<!-- Created with Inkscape (http://www.inkscape.org/) -->

<svg
   width="210mm"
   height="210mm"
   viewBox="0 0 233.33333 233.33333"
   version="1.1"
   id="svg1"
   xml:space="preserve"
   inkscape:version="1.3.2 (091e20e, 2023-11-25, custom)"
   sodipodi:docname="sprinter_base.svg"
   xmlns:inkscape="http://www.inkscape.org/namespaces/inkscape"
   xmlns:sodipodi="http://sodipodi.sourceforge.net/DTD/sodipodi-0.dtd"
   xmlns:xlink="http://www.w3.org/1999/xlink"
   xmlns="http://www.w3.org/2000/svg"
   xmlns:svg="http://www.w3.org/2000/svg"><sodipodi:namedview
     id="namedview1"
     pagecolor="#ffffff"
     bordercolor="#000000"
     borderopacity="0.25"
     inkscape:showpageshadow="2"
     inkscape:pageopacity="0.0"
     inkscape:pagecheckerboard="0"
     inkscape:deskcolor="#d1d1d1"
     inkscape:document-units="mm"
     showguides="true"
     inkscape:zoom="1"
     inkscape:cx="382.5"
     inkscape:cy="416.5"
     inkscape:window-width="3440"
     inkscape:window-height="1417"
     inkscape:window-x="-8"
     inkscape:window-y="-8"
     inkscape:window-maximized="1"
     inkscape:current-layer="layer1"
     showgrid="false" /><defs
     id="defs1"><linearGradient
       id="linearGradient102"
       inkscape:collect="always"><stop
         style="stop-color:#ffffff;stop-opacity:1;"
         offset="0"
         id="stop102" /><stop
         style="stop-color:#a7a7a7;stop-opacity:0;"
         offset="1"
         id="stop103" /></linearGradient><linearGradient
       id="linearGradient96"
       inkscape:collect="always"><stop
         style="stop-color:#ffffff;stop-opacity:1;"
         offset="0"
         id="stop95" /><stop
         style="stop-color:#ffffff;stop-opacity:0;"
         offset="1"
         id="stop96" /></linearGradient><linearGradient
       id="linearGradient93"
       inkscape:collect="always"><stop
         style="stop-color:#000000;stop-opacity:0.89905363;"
         offset="0"
         id="stop93" /><stop
         style="stop-color:#000000;stop-opacity:0;"
         offset="1"
         id="stop94" /></linearGradient><linearGradient
       id="linearGradient91"
       inkscape:collect="always"><stop
         style="stop-color:#b5b5b5;stop-opacity:0.58999997;"
         offset="0"
         id="stop91" /><stop
         style="stop-color:#171717;stop-opacity:0;"
         offset="1"
         id="stop92" /></linearGradient><linearGradient
       id="linearGradient87"
       inkscape:collect="always"><stop
         style="stop-color:#b4b4b4;stop-opacity:0.59215701;"
         offset="0"
         id="stop88" /><stop
         style="stop-color:#161616;stop-opacity:0;"
         offset="1"
         id="stop89" /></linearGradient><linearGradient
       id="linearGradient85"
       inkscape:collect="always"><stop
         style="stop-color:#ededed;stop-opacity:1;"
         offset="0"
         id="stop86" /><stop
         style="stop-color:#bebebe;stop-opacity:1;"
         offset="1"
         id="stop87" /></linearGradient><linearGradient
       id="linearGradient76"
       inkscape:collect="always"><stop
         style="stop-color:#ededed;stop-opacity:1;"
         offset="0"
         id="stop77" /><stop
         style="stop-color:#dddddd;stop-opacity:0.71608835;"
         offset="1"
         id="stop78" /></linearGradient><linearGradient
       id="linearGradient75"
       inkscape:collect="always"><stop
         style="stop-color:#ededed;stop-opacity:1;"
         offset="0"
         id="stop75" /><stop
         style="stop-color:#dddddd;stop-opacity:0.71924293;"
         offset="1"
         id="stop76" /></linearGradient><linearGradient
       id="linearGradient66"
       inkscape:collect="always"><stop
         style="stop-color:#ededed;stop-opacity:1;"
         offset="0"
         id="stop66" /><stop
         style="stop-color:#a5a5a5;stop-opacity:1;"
         offset="1"
         id="stop67" /></linearGradient><inkscape:path-effect
       effect="bspline"
       id="path-effect729"
       is_visible="true"
       lpeversion="1"
       weight="33.333333"
       steps="2"
       helper_size="0"
       apply_no_weight="true"
       apply_with_weight="true"
       only_selected="false"
       uniform="false" /><inkscape:path-effect
       effect="bspline"
       id="path-effect1385"
       is_visible="true"
       lpeversion="1"
       weight="33.333333"
       steps="2"
       helper_size="0"
       apply_no_weight="true"
       apply_with_weight="true"
       only_selected="false"
       uniform="false" /><inkscape:path-effect
       effect="bspline"
       id="path-effect312"
       is_visible="true"
       lpeversion="1"
       weight="33.333333"
       steps="2"
       helper_size="0"
       apply_no_weight="true"
       apply_with_weight="true"
       only_selected="false"
       uniform="false" /><inkscape:path-effect
       effect="bspline"
       id="path-effect50"
       is_visible="true"
       lpeversion="1"
       weight="33.333333"
       steps="2"
       helper_size="0"
       apply_no_weight="true"
       apply_with_weight="true"
       only_selected="false"
       uniform="false" /><inkscape:path-effect
       effect="bspline"
       id="path-effect52"
       is_visible="true"
       lpeversion="1"
       weight="33.333333"
       steps="2"
       helper_size="0"
       apply_no_weight="true"
       apply_with_weight="true"
       only_selected="false"
       uniform="false" /><inkscape:path-effect
       effect="bspline"
       id="path-effect54"
       is_visible="true"
       lpeversion="1"
       weight="33.333333"
       steps="2"
       helper_size="0"
       apply_no_weight="true"
       apply_with_weight="true"
       only_selected="false"
       uniform="false" /><radialGradient
       inkscape:collect="always"
       xlink:href="#linearGradient66"
       id="radialGradient67"
       cx="105.33672"
       cy="118.35634"
       fx="105.33672"
       fy="118.35634"
       r="102.71725"
       gradientTransform="matrix(1.964437,0,0,0.36028322,-89.887643,59.770636)"
       gradientUnits="userSpaceOnUse" /><radialGradient
       inkscape:collect="always"
       xlink:href="#linearGradient75"
       id="radialGradient76"
       cx="-7.6064825"
       cy="154.74815"
       fx="-7.6064825"
       fy="154.74815"
       r="37.527409"
       gradientTransform="matrix(0.10500632,0.00365067,-0.08475194,2.437759,98.212865,-245.00486)"
       gradientUnits="userSpaceOnUse" /><radialGradient
       inkscape:collect="always"
       xlink:href="#linearGradient76"
       id="radialGradient78"
       cx="137.61108"
       cy="158.44304"
       fx="137.61108"
       fy="158.44304"
       r="5.2527866"
       gradientTransform="matrix(0.79797778,-0.01857139,0.35278184,15.158375,-16.392339,-2268.3609)"
       gradientUnits="userSpaceOnUse" /><radialGradient
       inkscape:collect="always"
       xlink:href="#linearGradient85"
       id="radialGradient87"
       cx="105.33646"
       cy="215.95992"
       fx="105.33646"
       fy="215.95992"
       r="38.536339"
       gradientTransform="matrix(1.6214227,0,0,0.36035352,-53.755481,122.19415)"
       gradientUnits="userSpaceOnUse" /><radialGradient
       inkscape:collect="always"
       xlink:href="#linearGradient87"
       id="radialGradient89"
       cx="70.35363"
       cy="215.89125"
       fx="70.35363"
       fy="215.89125"
       r="1.0770837"
       gradientTransform="matrix(0.86771667,0.03473587,-0.52105138,13.01608,133.50031,-2612.5547)"
       gradientUnits="userSpaceOnUse" /><radialGradient
       inkscape:collect="always"
       xlink:href="#linearGradient91"
       id="radialGradient92"
       cx="140.31569"
       cy="215.89194"
       fx="140.31569"
       fy="215.89194"
       r="1.076906"
       gradientTransform="matrix(0.69635158,-0.03530592,0.64936509,12.807666,-85.883049,-2560.1703)"
       gradientUnits="userSpaceOnUse" /><radialGradient
       inkscape:collect="always"
       xlink:href="#linearGradient102"
       id="radialGradient103"
       cx="105.33646"
       cy="109.87745"
       fx="105.33646"
       fy="109.87745"
       r="14.67571"
       gradientTransform="matrix(0.85577129,0,0,6.6839202,26.89553,-640.47853)"
       gradientUnits="userSpaceOnUse" /><radialGradient
       inkscape:collect="always"
       xlink:href="#linearGradient93"
       id="radialGradient106"
       gradientUnits="userSpaceOnUse"
       gradientTransform="matrix(-1.0603132e-6,0.90232551,-0.69520769,-8.1693122e-7,232.87486,53.603887)"
       cx="105.32647"
       cy="166.65805"
       fx="105.32647"
       fy="166.65805"
       r="5.3515105" /><radialGradient
       inkscape:collect="always"
       xlink:href="#linearGradient96"
       id="radialGradient107"
       gradientUnits="userSpaceOnUse"
       gradientTransform="matrix(0,0.47589187,-1.4244561,0,354.40986,98.518871)"
       cx="105.32647"
       cy="166.65805"
       fx="105.32647"
       fy="166.65805"
       r="5.3515105" /></defs><g
     inkscape:label="Слой 1"
     inkscape:groupmode="layer"
     id="layer1"><g
       id="g1"
       transform="translate(-0.37305118,-9.1213784)"><path
         style="fill:#808080;fill-opacity:1;stroke-width:2.2;paint-order:markers fill stroke"
         d="m 31.197296,85.450009 c 0.124328,-0.30944 0.367683,-0.80786 0.617725,-0.78698 0.322881,0.027 0.3616,0.48416 0.422539,0.80239 0.05321,0.27788 -0.687933,11.049893 -0.687933,11.049893 l -1.483718,0.37227 c 0.03508,-0.0819 1.074396,-11.295723 1.131387,-11.437573 z"
         id="path17"
         sodipodi:nodetypes="sssccs"
         inkscape:label="БПалка 1" /><path
         style="fill:#808080;fill-opacity:1;stroke-width:2.2;paint-order:markers fill stroke"
         d="m 85.455593,75.800369 c 0.01654,-0.115756 -0.08595,-1.833879 0.0248,-2.025716 0.127802,-0.221359 0.455885,-0.718973 0.723677,-0.722259 0.238222,-0.0029 0.632998,0.586414 0.698458,0.771868 0.05415,0.153403 0.0083,1.992643 0.0083,1.992643 z"
         id="path18"
         sodipodi:nodetypes="cssscc"
         inkscape:label="МЛПалка " /><path
         id="path19"
         style="fill:#cccccc;fill-opacity:1;stroke-width:2.2;paint-order:markers fill stroke"
         d="m 103.56353,72.548889 -13.891139,11.78688 c 0,0 -65.992437,12.788136 -71.46799,15.949461 -2.982188,1.72177 -3.881934,3.84636 -3.881934,8.23154 0,5.59925 2.152621,7.83906 4.656563,8.75709 14.372988,5.26963 79.378568,8.58203 85.19997,10.84326 2.41879,0.93955 3.62923,4.15892 3.62923,4.15892 z m 26.95185,0 -4.24471,59.727151 c 0,0 1.21044,-3.21937 3.62924,-4.15892 5.82139,-2.26123 70.82698,-5.57363 85.19997,-10.84326 2.50393,-0.91803 4.65708,-3.15784 4.65708,-8.75709 0,-4.38518 -0.90027,-6.50977 -3.88245,-8.23154 -5.47556,-3.161325 -71.46799,-15.949461 -71.46799,-15.949461 z"
         inkscape:label="Передние крылья " /><path
         style="fill:#808080;fill-opacity:1;stroke-width:2.2;paint-order:markers fill stroke"
         d="m 202.88167,85.450009 c -0.12433,-0.30944 -0.36769,-0.80786 -0.61773,-0.78698 -0.32288,0.027 -0.3616,0.48416 -0.42254,0.80239 -0.0532,0.27788 0.68793,11.049893 0.68793,11.049893 l 1.48372,0.37227 c -0.0351,-0.0819 -1.07439,-11.295723 -1.13138,-11.437573 z"
         id="path60"
         sodipodi:nodetypes="sssccs"
         inkscape:label="БППалка" /><path
         style="fill:#808080;fill-opacity:1;stroke-width:2.2;paint-order:markers fill stroke"
         d="m 148.62337,75.800369 c -0.0165,-0.115756 0.0859,-1.833879 -0.0248,-2.025716 -0.1278,-0.221359 -0.45589,-0.718973 -0.72368,-0.722259 -0.23822,-0.0029 -0.633,0.586414 -0.69846,0.771868 -0.0541,0.153403 -0.008,1.992643 -0.008,1.992643 z"
         id="path61"
         sodipodi:nodetypes="cssscc"
         inkscape:label="МППалка" /><path
         id="path66"
         style="fill:url(#radialGradient67);fill-opacity:1;stroke-width:2.2;paint-order:markers fill stroke"
         d="m 103.56353,72.548889 -13.891139,11.78688 c 0,0 -65.992437,12.788136 -71.46799,15.949461 -2.982188,1.72177 -3.881934,3.84636 -3.881934,8.23154 0,5.59925 2.152621,7.83906 4.656563,8.75709 14.372988,5.26963 79.378568,8.58203 85.19997,10.84326 2.41879,0.93955 3.62923,4.15892 3.62923,4.15892 z m 26.95185,0 -4.24471,59.727151 c 0,0 1.21044,-3.21937 3.62924,-4.15892 5.82139,-2.26123 70.82698,-5.57363 85.19997,-10.84326 2.50393,-0.91803 4.65708,-3.15784 4.65708,-8.75709 0,-4.38518 -0.90027,-6.50977 -3.88245,-8.23154 -5.47556,-3.161325 -71.46799,-15.949461 -71.46799,-15.949461 z"
         inkscape:label="Градиент передних крыльев " /><path
         id="path13"
         style="fill:none;fill-rule:evenodd;stroke:#808080;stroke-width:0.777778;stroke-linecap:butt;stroke-linejoin:miter;stroke-dasharray:none;stroke-opacity:1"
         d="m 145.33514,106.54934 24.52209,1.16405 m -23.40557,0.007 -31.02386,-24.385316 m 53.32921,36.196686 1.46991,-22.979548 m 13.60113,21.472888 1.4699,-18.250805 m 13.15567,16.899605 1.46991,-14.40509 M 144.98176,87.615525 128.00432,73.210433 m 16.47126,14.474643 71.37751,14.987834 m -0.99904,12.07737 -92.05808,9.73706 m 21.67961,-33.528726 71.37751,14.987826 m -1.34472,9.14731 1.46991,-12.82494 M 144.98176,91.331314 128.00432,76.926222 m -39.281323,29.623118 -24.522082,1.16405 m 23.405563,0.007 31.023862,-24.385316 M 65.301127,119.53176 63.831219,96.552212 M 50.230096,118.0251 48.760188,99.774295 M 35.604518,116.6739 34.13461,102.26881 M 89.076385,87.615525 106.05382,73.210433 M 89.582562,87.685076 18.205054,102.67291 m 0.99904,12.07737 92.058076,9.73706 M 89.582562,90.958614 18.205054,105.94644 m 1.344714,9.14731 -1.469908,-12.82494 M 89.076385,91.331314 106.05382,76.926222" /><path
         id="path67"
         style="fill:#dddddd;fill-opacity:1;stroke-width:2.2;paint-order:markers fill stroke"
         d="m 86.182165,75.537327 c -0.494491,-0.01629 -0.874006,0.10169 -1.131197,0.22841 -2.085619,1.027631 -3.130782,4.718283 -3.217892,7.409368 -1.093632,33.942045 -2.004529,92.158765 -2.004529,92.158765 0,0 -1.20567,34.28197 1.08934,35.71152 0.318328,0.19829 0.526825,0.26955 0.717269,0.27595 0.190444,0.006 0.403435,-0.0509 0.734322,-0.22737 2.385538,-1.27282 3.475756,-35.55856 3.475756,-35.55856 0,0 2.985787,-58.14724 4.165121,-92.086425 0.09311,-2.690879 -0.70289,-6.442955 -2.71508,-7.6078 -0.248345,-0.143759 -0.61862,-0.287564 -1.11311,-0.303858 z m 61.715095,0 c -0.49449,0.01629 -0.86476,0.160099 -1.11311,0.303858 -2.01219,1.164845 -2.8087,4.916921 -2.7156,7.6078 1.17934,33.939185 4.16564,92.086425 4.16564,92.086425 0,0 1.0897,34.28574 3.47524,35.55856 0.33089,0.1765 0.54387,0.23337 0.73432,0.22737 0.19044,-0.006 0.39894,-0.0777 0.71727,-0.27595 2.29501,-1.42955 1.08934,-35.71152 1.08934,-35.71152 0,0 -0.9109,-58.21672 -2.00453,-92.158765 -0.0871,-2.691085 -1.13227,-6.381737 -3.21789,-7.409368 -0.25719,-0.12672 -0.63619,-0.2447 -1.13068,-0.22841 z"
         inkscape:label="Большие палки" /><path
         id="path75"
         style="fill:url(#radialGradient76);fill-opacity:1;stroke-width:2.2;paint-order:markers fill stroke"
         d="m 86.182173,75.539919 c -0.494491,-0.01629 -0.874007,0.10169 -1.131197,0.22841 -2.085617,1.02763 -3.130782,4.718286 -3.217892,7.409365 -1.093631,33.942006 -2.004529,92.158756 -2.004529,92.158756 0,0 -1.205668,34.28197 1.08934,35.71152 0.318327,0.19829 0.526825,0.26955 0.717269,0.27595 0.190443,0.006 0.403435,-0.0509 0.734322,-0.22737 2.385535,-1.27282 3.475756,-35.55856 3.475756,-35.55856 0,0 2.985788,-58.14727 4.165121,-92.086419 0.09311,-2.690875 -0.702892,-6.442951 -2.71508,-7.607794 -0.248345,-0.143759 -0.618621,-0.287564 -1.11311,-0.303858 z"
         inkscape:label="ЛГрадиент больших палок" /><path
         id="path76"
         style="fill:url(#radialGradient78);stroke-width:2.2;paint-order:markers fill stroke"
         d="m 147.89726,75.631634 c -0.49449,0.0163 -0.86476,0.16009 -1.11311,0.30385 -2.01219,1.16485 -2.8087,4.916916 -2.7156,7.607802 1.17934,33.939134 4.16564,92.086424 4.16564,92.086424 0,0 1.0897,34.28573 3.47524,35.55855 0.33089,0.1765 0.54387,0.23338 0.73432,0.22738 0.19044,-0.006 0.39894,-0.0777 0.71727,-0.27596 2.29501,-1.42955 1.08934,-35.71151 1.08934,-35.71151 0,0 -0.9109,-58.21676 -2.00453,-92.158774 -0.0871,-2.691076 -1.13227,-6.381732 -3.21789,-7.409352 -0.25719,-0.12672 -0.63619,-0.2447 -1.13068,-0.22841 z"
         inkscape:label="ПГрадиент больших палок" /><path
         id="path79"
         style="fill:#cccccc;fill-opacity:1;stroke-width:2.2;paint-order:markers fill stroke"
         d="m 91.687772,191.86779 c -6.575483,-0.0238 -11.90052,0.0217 -12.106238,0.22738 -0.21821,0.21821 -1.62706,14.64534 -0.843359,15.42903 0.781051,0.78103 38.048605,0.82609 38.301025,0.82211 0.25078,0.004 37.52047,-0.0411 38.30153,-0.82211 0.7837,-0.78369 -0.62515,-15.21082 -0.84336,-15.42903 -0.54761,-0.54761 -37.32819,-0.38865 -37.45817,-0.38655 -0.0822,-0.001 -14.42363,0.1987 -25.351428,0.15916 z"
         sodipodi:nodetypes="ssscsscss"
         inkscape:label="Заднее крыло" /><path
         id="path81"
         style="fill:url(#radialGradient87);fill-opacity:1;stroke-width:2.2;paint-order:markers fill stroke"
         d="m 91.687772,191.86779 c -6.575483,-0.0238 -11.90052,0.0217 -12.106238,0.22738 -0.21821,0.21821 -1.62706,14.64534 -0.843359,15.42903 0.781051,0.78103 38.048605,0.82609 38.301025,0.82211 0.25078,0.004 37.52047,-0.0411 38.30153,-0.82211 0.7837,-0.78369 -0.62515,-15.21082 -0.84336,-15.42903 -0.54761,-0.54761 -37.32819,-0.38865 -37.45817,-0.38655 -0.0822,-0.001 -14.42363,0.1987 -25.351428,0.15916 z"
         sodipodi:nodetypes="ssscsscss"
         inkscape:label="Градиент заднего крыла" /><path
         id="path82"
         style="fill:#808080;fill-opacity:1;stroke-width:1.87019;paint-order:markers fill stroke"
         d="m 151.63347,191.74348 c -0.13488,0.006 -0.15939,0.11556 -0.17519,0.14056 -0.50931,0.79784 -0.60094,5.70702 -0.45061,8.70851 0.11766,2.34972 0.72158,7.13366 1.1529,7.45484 0.0381,0.0284 0.0864,0.10935 0.22686,0.10335 0.14056,-0.006 0.18122,-0.0924 0.21652,-0.12402 0.40009,-0.35938 0.56235,-5.17814 0.46405,-7.52874 -0.1255,-3.00264 -0.6672,-7.88321 -1.24746,-8.631 -0.0181,-0.0233 -0.0522,-0.1295 -0.18707,-0.1235 z m -69.191645,5.1e-4 c -0.134886,-0.006 -0.168965,0.10023 -0.187069,0.12351 -0.580265,0.74779 -1.12196,5.62836 -1.247469,8.631 -0.09828,2.35059 0.06451,7.16936 0.464571,7.52874 0.03525,0.0316 0.07596,0.11704 0.216524,0.1235 0.140509,0.006 0.1888,-0.075 0.22686,-0.10335 0.431323,-0.32118 1.035238,-5.10461 1.152901,-7.45433 0.150328,-3.00148 0.05812,-7.91118 -0.451135,-8.70902 -0.01582,-0.025 -0.04029,-0.13385 -0.175183,-0.14005 z"
         inkscape:label="ВЗКрыло" /><path
         id="path87"
         style="fill:url(#radialGradient89);stroke-width:1.87019;paint-order:markers fill stroke"
         d="m 82.442247,191.74399 c -0.134886,-0.006 -0.168965,0.10023 -0.187069,0.12351 -0.580264,0.74779 -1.12196,5.62836 -1.247469,8.631 -0.09828,2.35058 0.06451,7.16936 0.464572,7.52874 0.03525,0.0316 0.07596,0.11704 0.216524,0.1235 0.140509,0.006 0.188799,-0.075 0.226859,-0.10335 0.431323,-0.32118 1.035239,-5.10461 1.152902,-7.45433 0.150327,-3.00147 0.05812,-7.91119 -0.451136,-8.70903 -0.01582,-0.025 -0.04029,-0.13384 -0.175183,-0.14004 z"
         inkscape:label="Градиент ВЗЛКрыла" /><path
         id="path89"
         style="fill:url(#radialGradient92);fill-opacity:1;stroke-width:1.87019;paint-order:markers fill stroke"
         d="m 151.63309,191.74442 c -0.13488,0.006 -0.15939,0.11556 -0.17519,0.14056 -0.50931,0.79784 -0.60094,5.70702 -0.45061,8.70851 0.11766,2.34972 0.72158,7.13366 1.1529,7.45484 0.0381,0.0284 0.0864,0.10936 0.22686,0.10336 0.14056,-0.006 0.18122,-0.0924 0.21652,-0.12403 0.40009,-0.35938 0.56235,-5.17814 0.46405,-7.52874 -0.1255,-3.00263 -0.66721,-7.88321 -1.24746,-8.631 -0.0181,-0.0233 -0.0522,-0.1295 -0.18707,-0.1235 z"
         inkscape:label="Градиент ВЗПКрыла" /><path
         id="path96"
         style="fill:#dddddd;fill-opacity:1;stroke-width:2.2;paint-order:markers fill stroke"
         d="m 112.87511,42.20242 c -5.77848,6.062726 -8.80819,15.992758 -9.86038,24.292058 -0.86641,6.83391 -0.69799,14.763402 -0.45631,21.647771 0.50848,14.484321 0.25029,21.939981 3.02721,36.245901 1.1132,5.73489 6.40736,23.31899 6.40736,23.31899 0,0 1.49621,-0.94929 2.27583,-1.19321 1.06982,-0.33472 2.60506,-0.31488 2.77038,-0.31057 0.16457,-0.004 1.70078,-0.0242 2.77089,0.31057 0.77962,0.24392 2.27583,1.19321 2.27583,1.19321 0,0 5.29416,-17.5841 6.40736,-23.31899 2.77692,-14.30592 2.51872,-21.76158 3.0272,-36.245901 0.24168,-6.884369 0.41011,-14.813861 -0.4563,-21.647771 -1.05219,-8.2993 -4.0819,-18.229332 -9.86038,-24.292058 -1.2097,-1.269207 -3.26319,-2.042402 -4.16434,-2.042402 -0.90116,0 -2.95465,0.773195 -4.16435,2.042402 z"
         sodipodi:nodetypes="sssscscscsssscs" /><path
         id="path101"
         style="fill:url(#radialGradient103);fill-opacity:1;stroke-width:2.2;paint-order:markers fill stroke"
         d="m 112.87511,42.20242 c -5.77848,6.062726 -8.80819,15.992758 -9.86038,24.292058 -0.86641,6.83391 -0.69799,14.763402 -0.45631,21.647771 0.50848,14.484321 0.25029,21.939981 3.02721,36.245901 1.1132,5.73489 6.40736,23.31899 6.40736,23.31899 0,0 1.49621,-0.94929 2.27583,-1.19321 1.06982,-0.33472 2.60506,-0.31488 2.77038,-0.31057 0.16457,-0.004 1.70078,-0.0242 2.77089,0.31057 0.77962,0.24392 2.27583,1.19321 2.27583,1.19321 0,0 5.29416,-17.5841 6.40736,-23.31899 2.77692,-14.30592 2.51872,-21.76158 3.0272,-36.245901 0.24168,-6.884369 0.41011,-14.813861 -0.4563,-21.647771 -1.05219,-8.2993 -4.0819,-18.229332 -9.86038,-24.292058 -1.2097,-1.269207 -3.26319,-2.042402 -4.16434,-2.042402 -0.90116,0 -2.95465,0.773195 -4.16435,2.042402 z"
         sodipodi:nodetypes="sssscscscsssscs" /><path
         id="path102"
         style="fill:#666666;fill-opacity:1;stroke-width:2.2;paint-order:markers fill stroke"
         d="m 110.23548,54.823875 c -0.94074,0.543135 -4.72398,5.468917 -5.73816,8.797397 -0.94985,3.117381 -0.98209,21.349357 0.0656,22.987737 1.40593,2.19853 3.53961,3.184497 5.58416,3.93877 1.91845,0.707746 5.41698,1.497019 6.89235,1.497019 1.47536,0 4.97389,-0.789273 6.89234,-1.497019 2.04455,-0.754273 4.17823,-1.74024 5.58415,-3.93877 1.04772,-1.63838 1.01544,-19.870356 0.0656,-22.987737 -1.01417,-3.32848 -4.79742,-8.254262 -5.73815,-8.797397 -0.77196,-0.445692 -5.42302,-0.770677 -6.80396,-0.770677 -1.38094,10e-7 -6.03201,0.324985 -6.80396,0.770677 z"
         sodipodi:nodetypes="sssscsssscs"
         inkscape:label="Стекло " /><path
         id="path103"
         style="fill:#a1a1a1;fill-opacity:1;stroke-width:2.2;paint-order:markers fill stroke"
         d="m 114.33032,146.38473 c -0.93031,0.29457 -2.01653,0.9438 -2.32596,1.24489 -0.17328,0.16861 -0.27341,0.40863 -0.31368,0.85111 -0.0366,0.4028 0.26717,0.88885 0.66818,0.94155 0.93558,0.12305 1.36554,-0.0817 2.32492,-0.63562 1.17096,-0.67606 2.34312,-0.62051 2.35542,-0.62051 0.0123,0 1.18445,-0.0556 2.35541,0.62051 0.95939,0.55389 1.38934,0.75867 2.32492,0.63562 0.40101,-0.0527 0.70483,-0.53875 0.66818,-0.94155 -0.0403,-0.44248 -0.13988,-0.6825 -0.31316,-0.85111 -0.30943,-0.30109 -1.39617,-0.95032 -2.32648,-1.24489 -0.86539,-0.27401 -2.65133,-0.33403 -2.70887,-0.33403 -0.0575,0 -1.84348,0.06 -2.70888,0.33403 z"
         sodipodi:nodetypes="ssscscscssscs"
         inkscape:label="Выхллоп" /><path
         id="path105"
         style="fill:url(#radialGradient107);fill-opacity:1;stroke-width:2.2;paint-order:markers fill stroke"
         d="m 114.33032,146.38474 c -0.93031,0.29457 -2.01653,0.9438 -2.32596,1.24489 -0.17328,0.16861 -0.27341,0.40863 -0.31368,0.85111 -0.0366,0.4028 0.26717,0.88885 0.66818,0.94155 0.93558,0.12305 1.36554,-0.0817 2.32492,-0.63562 1.17096,-0.67606 2.34312,-0.62051 2.35542,-0.62051 0.0123,0 1.18445,-0.0556 2.35541,0.62051 0.95939,0.55389 1.38934,0.75867 2.32492,0.63562 0.40101,-0.0527 0.70483,-0.53875 0.66818,-0.94155 -0.0403,-0.44248 -0.13988,-0.6825 -0.31316,-0.85111 -0.30943,-0.30109 -1.39617,-0.95032 -2.32648,-1.24489 -0.86539,-0.27401 -2.65133,-0.33403 -2.70887,-0.33403 -0.0575,0 -1.84348,0.06 -2.70888,0.33403 z"
         sodipodi:nodetypes="ssscscscssscs"
         inkscape:label="БГрадиент выхлопа" /><path
         id="path106"
         style="fill:url(#radialGradient106);fill-opacity:1;stroke-width:2.2;paint-order:markers fill stroke"
         d="m 114.33032,146.38439 c -0.93031,0.29457 -2.01653,0.9438 -2.32596,1.24489 -0.17328,0.16861 -0.27341,0.40863 -0.31368,0.85111 -0.0366,0.4028 0.26717,0.88885 0.66818,0.94155 0.93558,0.12305 1.36554,-0.0817 2.32492,-0.63562 1.17096,-0.67606 2.34312,-0.62051 2.35542,-0.62051 0.0123,0 1.18445,-0.0556 2.35541,0.62051 0.95939,0.55389 1.38934,0.75867 2.32492,0.63562 0.40101,-0.0527 0.70483,-0.53875 0.66818,-0.94155 -0.0403,-0.44248 -0.13988,-0.6825 -0.31316,-0.85111 -0.30943,-0.30109 -1.39617,-0.95032 -2.32648,-1.24489 -0.86539,-0.27401 -2.65133,-0.33403 -2.70887,-0.33403 -0.0575,0 -1.84348,0.06 -2.70888,0.33403 z"
         sodipodi:nodetypes="ssscscscssscs"
         inkscape:label="ЦГрадиент Выхлопа" /><path
         id="path1"
         style="fill:#141414;fill-opacity:0.313725;stroke-width:2.2;paint-order:markers fill stroke"
         d="m 111.43443,54.51524 c -0.47587,0.07809 -0.85113,0.163941 -1.07746,0.255282 v 10.420037 h -6.14122 c -0.04,0.326164 -0.077,0.688626 -0.11163,1.076937 h 12.3052 v 14.022916 h -12.55066 c 0.11127,3.205712 0.3409,5.755217 0.70177,6.319517 1.40592,2.19853 3.53961,3.184497 5.58415,3.93877 1.91846,0.707746 5.41724,1.497069 6.89261,1.497069 1.47536,0 4.97364,-0.789323 6.89209,-1.497069 2.04455,-0.754273 4.17824,-1.74024 5.58415,-3.93877 0.36087,-0.5643 0.59051,-3.113805 0.70177,-6.319517 H 117.67643 V 66.267496 h 12.29279 c -0.0346,-0.388304 -0.0711,-0.750778 -0.1111,-1.076937 h -6.12935 v -10.41487 c -0.22265,-0.0925 -0.59826,-0.179357 -1.07745,-0.258382 v 10.673252 h -5.31595 -5.90094 z"
         inkscape:label="Карбон " /></g></g></svg>
